<svg width="72" height="22" viewBox="0 0 72 22" fill="none" xmlns="http://www.w3.org/2000/svg">
<g clip-path="url(#clip0_271_6969)">
<mask id="mask0_271_6969" style="mask-type:luminance" maskUnits="userSpaceOnUse" x="0" y="0" width="72" height="22">
<path d="M0 21.9934L72 21.9934L72 0.00648499L1.92216e-06 0.00647869L0 21.9934Z" fill="white"/>
</mask>
<g mask="url(#mask0_271_6969)">
<path d="M10.0761 6.84395C10.9838 3.66033 6.21619 1.18216 3.03473 3.30759C-2.41134 7.02484 8.4808 13.573 10.0761 6.84395ZM32.0988 13.9257C25.5158 8.08304 21.4267 21.0075 29.1465 20.4739C32.548 20.293 35.051 16.5757 32.0988 13.9257ZM55.2583 17.1093C56.6244 14.4503 55.0291 11.8003 52.0769 11.6194C45.4939 11.0858 46.1724 18.5203 51.6185 18.873C53.4338 18.873 54.3415 18.6921 55.2492 17.1003M65.6921 9.85574C72.7334 12.3339 71.3673 0.829435 65.6921 1.5349C61.1537 2.24036 62.5106 8.7885 65.6921 9.85574Z" fill="#0C0C0C"/>
<path d="M10.0761 6.84395C10.9838 3.66033 6.21619 1.18216 3.03473 3.30759C-2.41134 7.02484 8.4808 13.573 10.0761 6.84395ZM32.0988 13.9257C25.5158 8.08304 21.4267 21.0075 29.1465 20.4739C32.548 20.293 35.051 16.5757 32.0988 13.9257ZM55.2583 17.1093C56.6244 14.4503 55.0291 11.8003 52.0769 11.6194C45.4939 11.0858 46.1724 18.5203 51.6185 18.873C53.4338 18.873 54.3415 18.6921 55.2492 17.1003L55.2583 17.1093ZM65.6921 9.85574C72.7334 12.3339 71.3673 0.829436 65.6921 1.5349C61.1537 2.24036 62.5106 8.7885 65.6921 9.85574Z" stroke="#0C0C0C" stroke-width="4.42609"/>
</g>
</g>
<defs>
<clipPath id="clip0_271_6969">
<rect width="72" height="22" fill="white" transform="translate(72 22) rotate(-180)"/>
</clipPath>
</defs>
</svg>
