<svg width="20" height="21" viewBox="0 0 20 21" fill="none" xmlns="http://www.w3.org/2000/svg">
<path d="M12.9164 4.25763C13.1938 4.83623 13.6419 5.52401 14.2606 6.08078C14.8367 6.60479 15.6049 7.04147 16.5117 7.09606M4.48835 16.5393H15.4235M18.1013 10.8843V17.7183C18.1013 18.5699 17.4292 19.2685 16.5864 19.2685H3.24014C2.408 19.2685 1.72522 18.5808 1.72522 17.7183V4.06112C1.72522 3.2096 2.39733 2.51091 3.24014 2.51091H9.96126M16.8104 0.993439L18.8801 2.71833C19.0828 2.91484 19.1895 3.18776 19.1895 3.48252C19.1895 3.76636 19.0721 4.03929 18.8694 4.2358L17.2905 6.20086L11.9242 12.9039C11.8282 13.0131 11.7109 13.1004 11.5615 13.1332L8.77706 13.7882C8.40366 13.7991 8.09428 13.5262 8.05161 13.1441L8.17963 10.3384C8.17963 10.1965 8.24364 10.0546 8.33965 9.9454L15.2848 1.2882C15.6369 0.796932 16.2983 0.665928 16.7997 0.993439H16.8104Z" stroke="#B6B3B3" stroke-width="1.5" stroke-linecap="round" stroke-linejoin="round"/>
</svg>
