<svg width="51" height="42" viewBox="0 0 51 42" fill="none" xmlns="http://www.w3.org/2000/svg">
<g filter="url(#filter0_d_328_388)">
<path fill-rule="evenodd" clip-rule="evenodd" d="M17 5C15.8954 5 15 5.89543 15 7V15.375L6 19.5L15 23.625V33C15 34.1046 15.8954 35 17 35H43C44.1046 35 45 34.1046 45 33V7C45 5.89543 44.1046 5 43 5H17Z" fill="white"/>
</g>
<path fill-rule="evenodd" clip-rule="evenodd" d="M25.2759 15.2555C25.618 14.9142 26.172 14.9149 26.5133 15.2571L30.2199 18.9735L33.9183 15.2751C34.26 14.9334 34.8141 14.9334 35.1558 15.2751C35.4975 15.6168 35.4975 16.1708 35.1558 16.5125L31.4558 20.2125L35.164 23.9305C35.5053 24.2727 35.5045 24.8267 35.1624 25.1679C34.8202 25.5092 34.2662 25.5085 33.925 25.1663L30.2183 21.45L26.4937 25.1746C26.152 25.5163 25.598 25.5163 25.2563 25.1746C24.9146 24.8328 24.9146 24.2788 25.2563 23.9371L28.9825 20.2109L25.2742 16.4929C24.933 16.1508 24.9337 15.5967 25.2759 15.2555Z" fill="#D93231" stroke="#D93231" stroke-width="0.5" stroke-linecap="round" stroke-linejoin="round"/>
<defs>
<filter id="filter0_d_328_388" x="0" y="0" width="51" height="42" filterUnits="userSpaceOnUse" color-interpolation-filters="sRGB">
<feFlood flood-opacity="0" result="BackgroundImageFix"/>
<feColorMatrix in="SourceAlpha" type="matrix" values="0 0 0 0 0 0 0 0 0 0 0 0 0 0 0 0 0 0 127 0" result="hardAlpha"/>
<feOffset dy="1"/>
<feGaussianBlur stdDeviation="3"/>
<feComposite in2="hardAlpha" operator="out"/>
<feColorMatrix type="matrix" values="0 0 0 0 0 0 0 0 0 0 0 0 0 0 0 0 0 0 0.15 0"/>
<feBlend mode="normal" in2="BackgroundImageFix" result="effect1_dropShadow_328_388"/>
<feBlend mode="normal" in="SourceGraphic" in2="effect1_dropShadow_328_388" result="shape"/>
</filter>
</defs>
</svg>
