<svg width="18" height="23" viewBox="0 0 18 23" fill="none" xmlns="http://www.w3.org/2000/svg">
<g clip-path="url(#clip0_278_364)">
<path d="M13.5153 12.553C13.9348 11.7685 14.3536 10.9831 14.7731 10.1985C14.7981 10.1559 14.9265 9.91871 14.8647 9.65942C14.8236 9.48798 14.7112 9.35169 14.53 9.25482C14.3488 9.15795 14.164 9.13766 13.9896 9.19847C13.6951 9.3013 13.5407 9.60022 13.5357 9.60965L12.9139 10.7725C11.7741 12.9044 10.6345 15.0358 9.49466 17.1676L9.48074 17.1937C9.40659 17.3323 9.33004 17.4755 9.24957 17.6108C8.69655 18.5398 7.73929 19.102 6.68936 19.116C5.64291 19.1295 4.73145 18.5937 4.25145 17.6827C3.7419 16.7154 3.75932 15.709 4.3029 14.6913C5.73567 12.0085 7.17036 9.32619 8.6044 6.64409L9.84262 4.32822C9.87597 4.26584 9.91228 4.20503 9.94294 4.15275C10.2631 3.61468 10.7901 3.26853 11.3882 3.20279C11.9858 3.13683 12.5422 3.36391 12.9145 3.82494C13.3966 4.42204 13.4483 5.25764 13.0491 6.00514C11.9461 8.07124 10.8418 10.1367 9.73702 12.2019L8.55543 14.4118C8.53983 14.441 8.52519 14.4684 8.50965 14.4924C8.37773 14.7006 8.17529 14.8411 7.95339 14.8771C7.73498 14.9127 7.52419 14.8479 7.36049 14.694C7.10802 14.4569 7.06991 14.0873 7.2614 13.7292C8.04975 12.2537 8.83851 10.7785 9.62704 9.30368L10.4643 7.73777C10.4908 7.69424 10.6044 7.4878 10.5506 7.25008C10.5112 7.0755 10.3937 6.93539 10.202 6.83288C9.59612 6.50892 9.26167 7.09593 9.25711 7.10446C8.94252 7.69285 8.63326 8.27025 8.32664 8.8427C7.53589 10.3186 6.78863 11.7122 6.00212 13.2065C5.47068 14.2157 5.80743 15.4899 6.75242 16.0471C7.24593 16.3381 7.82555 16.4022 8.38276 16.2274C8.95603 16.048 9.43995 15.6385 9.74477 15.0754C10.0758 14.4635 10.4089 13.8394 10.7306 13.2358C10.8695 12.9759 11.0083 12.7154 11.1468 12.4553C11.4623 11.8651 11.7785 11.2758 12.0945 10.6858C12.822 9.32908 13.5743 7.9261 14.3043 6.5406C15.1492 4.939 14.6252 2.96616 13.1374 2.14237C12.3753 1.71934 11.4945 1.63795 10.6603 1.91218C9.8217 2.18864 9.11454 2.79684 8.66892 3.62624C6.79884 7.10361 4.91943 10.6187 3.08301 14.0737C2.6443 14.8993 2.44713 15.8021 2.51285 16.6844C2.57856 17.5667 2.90391 18.3871 3.45431 19.057C3.63452 19.2763 3.84843 19.464 4.05553 19.6451C4.12924 19.7099 4.20362 19.7745 4.27595 19.8409L4.28691 19.8508L4.99175 20.2542L5.00626 20.2585C5.05975 20.275 5.11343 20.2921 5.1671 20.3093C5.27488 20.3438 5.38669 20.3799 5.50011 20.41C7.49386 20.9341 9.53541 19.9815 10.5798 18.0393C11.5619 16.2126 12.5552 14.3527 13.5159 12.5539L13.5153 12.553Z" fill="#B6B3B3"/>
</g>
<defs>
<clipPath id="clip0_278_364">
<rect width="8.491" height="19.8123" fill="white" transform="translate(10.2728 0.611206) rotate(28.132)"/>
</clipPath>
</defs>
</svg>
