<svg width="12" height="14" viewBox="0 0 12 14" fill="none" xmlns="http://www.w3.org/2000/svg">
<g clip-path="url(#clip0_241_717)">
<path fill-rule="evenodd" clip-rule="evenodd" d="M2.03494 8.73115L3.42867 1.14816H8.56456L9.96526 8.73823H2.03494V8.73115ZM11.352 8.73115H10.9269L9.52623 1.14816H10.6552C10.913 1.14816 11.129 0.935752 11.129 0.666701C11.129 0.39765 10.92 0.185242 10.6552 0.185242H1.33808C1.08024 0.185242 0.864212 0.39765 0.864212 0.666701C0.864212 0.935752 1.07327 1.14816 1.33808 1.14816H2.467L1.07327 8.73115H0.648184C0.390344 8.73115 0.174316 8.94356 0.174316 9.21261C0.174316 9.48166 0.383376 9.69407 0.648184 9.69407H5.52623V13.3333C5.52623 13.5953 5.73529 13.8148 6.0001 13.8148C6.26491 13.8148 6.47397 13.6024 6.47397 13.3333V9.69407H10.5367H11.352C11.6099 9.69407 11.8259 9.48166 11.8259 9.21261C11.8259 8.94356 11.6168 8.73115 11.352 8.73115Z" fill="#EF7D3E" stroke="#EF7D3E" stroke-width="0.666136" stroke-miterlimit="10"/>
</g>
<defs>
<clipPath id="clip0_241_717">
<rect width="12" height="14" fill="white"/>
</clipPath>
</defs>
</svg>
