<svg width="20" height="20" viewBox="0 0 20 20" fill="none" xmlns="http://www.w3.org/2000/svg">
<path d="M10.7967 1.8C10.7967 1.35817 10.4385 1 9.99668 1C9.55485 1 9.19668 1.35817 9.19668 1.8V10.2653L6.96569 8.03431C6.65327 7.72189 6.14673 7.72189 5.83431 8.03431C5.5219 8.34673 5.5219 8.85327 5.83431 9.16569L9.38921 12.7206C9.53593 12.8916 9.75365 13 9.99668 13L9.9983 13C10.2036 13.0004 10.409 12.9223 10.5657 12.7657L14.1657 9.16569C14.4781 8.85327 14.4781 8.34673 14.1657 8.03431C13.8533 7.72189 13.3467 7.72189 13.0343 8.03431L10.7967 10.2719V1.8Z" fill="#EF7D3E"/>
<path d="M17.2 8.2C17.6418 8.2 18 8.55817 18 9V16.2C18 16.6418 17.6418 17 17.2 17H2.8C2.35817 17 2 16.6418 2 16.2V9.00332C2 8.56149 2.35817 8.20332 2.8 8.20332C3.24183 8.20332 3.6 8.56149 3.6 9.00332V15.4H16.4V9C16.4 8.55817 16.7582 8.2 17.2 8.2Z" fill="#EF7D3E"/>
</svg>
