<svg version="1.2" xmlns="http://www.w3.org/2000/svg" viewBox="0 0 353 48" width="353" height="48">
	<title>anillas_slide3_v2-svg</title>
	<style>
		.s0 { fill: #0b0d0d } 
		.s1 { fill: #ffffff } 
	</style>
	<g id="Carpeta_1">
		<g id="Layer">
			<path id="Layer" class="s0" d="m353.8 13.4c-0.7-4.4-2.1-8.7-4-12.8h-5.3c1 3.6 2 7.1 2.8 10.8 1 4.8 1.3 9.3-2 13.3-5.8 6.9-15 11.1-23.1 14.6-2.8 1.2-0.4 5 2.1 4.4 5.2-1.3 10.1-3.7 14.6-6.5 4.2-2.6 8.6-5.7 11.7-9.6 3.4-4.1 4.1-9 3.2-14.2z"/>
			<path id="Layer" class="s0" d="m219.6 0.6h-6.5c0.3 1.2 0.8 2.3 1.1 3.5 0.5 2 0.9 4.2 1 6.3 0.2 4.2-0.2 8.4-3.7 11.2-7.1 5.8-16.1 9.9-24.9 12.5-2.9 0.9-0.4 4.9 2 4.4 5.4-1.2 10.5-3 15.4-5.4 4.5-2.2 9.2-4.9 12.9-8.4 3.9-3.6 4.9-8.6 4.6-13.8-0.2-3.2-0.6-7-1.9-10.3z"/>
			<path id="Layer" class="s0" d="m85.8 1.9q-0.2-0.7-0.5-1.3h-5.8c0 0.5 0.1 1.1 0.3 1.8 0.3 1.7 0.7 3.3 1 4.9 0.6 3.1 1 6.2 0.8 9.3-0.5 5.5-2.8 10.2-7.4 13.5-9.1 6.5-21.4 6.2-32.1 6.3-3.7 0-3 4.7 0.3 4.8 12.6 0.5 27 0.5 37.2-8 5-4 7.7-9.6 8.1-16 0.2-3.3-0.1-6.6-0.7-9.8q-0.5-2.8-1.2-5.5z"/>
			<path id="Layer" class="s1" d="m823.2 545.5c-8.1-142-8.3-551.9-8.3-551.9h-80.3c0 0 4.1 13.9 0.6 23.1-3.4 9.2-28.6 19.6-44.1 7-15.4-12.6 4.6-30.1 4.6-30.1h-83.1c0 0 7.6 20.6 0.4 28.1-8.9 9.4-25.7 18.1-44.1 8.3-18.3-9.7-0.4-36.4-0.4-36.4l-65.9 2.9c0 0 5.5 17 5.5 24.5 0 7.5-10.4 20.4-35.8 14.5-21.3-5-18.8-25.9-16.7-34.9h-107.8c2.8 7.7 6 19.4 1.6 23.5-6.9 6.3-22.4 17.4-41.3 6-12.6-7.6-9.3-21.2-5.8-29.5h-84.6c1.8 5.8 3.4 13.7 0.4 18.4-5.1 8-24.6 16.9-40.6 8.3-11.8-6.3-9-19.9-6.6-26.7h-87.7c1.8 7.5 4.4 22.9-2.8 28.1-9.8 6.9-25.7 9.6-40.1 1-12.3-7.3-3.3-24.3-0.4-29.1h-79.9c0.1 11.3 1 93.3 0 115.1-1.1 23.5 0.6 119.2 0 139.2-0.6 20.1 0 151.9-1.7 186.2-1.7 34.4 3.4 197.1 6.3 230.9 2.9 33.9-6.9 140.4-8.6 151.9-1.7 11.5 3.4 94 2.3 112.3-1.2 18.3 0.6 145-0.6 157-1.1 12-3.6 67.4-4.6 96.6-1.1 35.1 6.9 53.5 6.9 53.5h863.9c0 0 1.4-243.6 3.7-276.3 2.3-32.6-3.5-406.6-4.4-421.5z"/>
		</g>
	</g>
</svg>