<svg version="1.2" xmlns="http://www.w3.org/2000/svg" viewBox="0 0 386 48" width="386" height="48">
	<title>icono_slide3-svg</title>
	<style>
		.s0 { fill: #0b0d0d } 
		.s1 { fill: #ffffff } 
	</style>
	<g id="Carpeta 1">
		<path id="Layer" class="s0" d="m734.3 3.2c-1-1.9-4.9-2-4.4 0.7 1.4 8 0.7 16-4.2 22.7-4.7 6.4-12 8.4-19.4 10.2-3.5 0.8-1.5 5.1 1.6 4.6 4.9-0.9 9.6-1.9 14.1-4.2 3.7-2.1 7.1-5.1 9.7-8.5 5.3-7.2 6.8-17.5 2.6-25.5z"/>
		<path id="Layer" class="s0" d="m612 1.4c-0.8-1.2-3.9-1.7-4 0.4 0 3.2 1.1 6.4 1.7 9.6 0.6 2.8 0.9 5.7 0.6 8.6-0.6 5.3-3.8 9.6-7.7 13.1-8.3 7.2-19.1 11.2-29.2 15.1-3 1.2-0.1 5.4 2.5 4.5 11.6-3.9 23.9-8.1 32.7-16.9 4.2-4.2 7.3-9.2 8-15.1 0.8-6.3-0.9-14.1-4.6-19.3z"/>
		<path id="Layer" class="s0" d="m506.4 12c-0.4-1.5-0.9-3-1.7-4.4-0.9-1.6-1.8-2.5-3.1-3.8-1.2-1.3-4.4-0.3-3.4 1.7 2.2 4.2 2.5 9.4 2.4 14 0 4.7-0.2 9.8-2.3 14.2-3.7 8-13.3 11.5-21.5 12.5-3.7 0.4-3 5.1 0.5 4.9 10.1-0.5 20.8-4.1 26.2-13.2 3.1-5.2 3.7-11.3 3.7-17.2-0.1-2.9-0.2-5.9-0.9-8.7z"/>
		<path id="Layer" class="s0" d="m351.7 19.8c-1-6.3-3.2-12.3-6.6-17.8-1.2-1.9-4.5-0.9-3.8 1.5 1.5 4.7 2.9 9.4 3.9 14.3 1 4.8 1.3 9.3-2 13.3-5.8 6.9-15 11.1-23.1 14.6-2.8 1.2-0.4 5 2.1 4.4 5.2-1.3 10.1-3.7 14.6-6.5 4.2-2.6 8.6-5.7 11.7-9.6 3.4-4.1 4.1-9 3.2-14.2z"/>
		<path id="Layer" class="s0" d="m219.4 17.3c-0.2-4.9-1.1-11.1-4.7-14.9-1.2-1.2-4.7-1-4.5 1.4 0.3 2.3 1.3 4.4 1.9 6.7 0.5 2 0.9 4.2 1 6.3 0.2 4.2-0.2 8.4-3.7 11.2-7.1 5.8-16.1 9.9-24.9 12.5-2.9 0.9-0.4 4.9 2 4.4 5.4-1.2 10.5-3 15.4-5.4 4.5-2.2 9.2-4.9 12.9-8.4 3.9-3.6 4.9-8.6 4.6-13.8z"/>
		<path id="Layer" class="s0" d="m84.9 13.8q-0.5-2.8-1.2-5.5c-0.6-2.1-1.2-3.2-3.3-3.9-0.5-0.3-1.5-0.2-1.9 0.3-1.2 1.5-1.2 2.3-0.8 4.1 0.3 1.7 0.7 3.3 1 4.9 0.6 3.1 1 6.2 0.8 9.3-0.5 5.5-2.8 10.2-7.4 13.5-9.1 6.5-21.4 6.2-32.1 6.3-3.7 0-3 4.7 0.3 4.8 12.6 0.5 27 0.5 37.2-8 5-4 7.7-9.6 8.1-16 0.2-3.3-0.1-6.6-0.7-9.8z"/>
		<path id="Layer" class="s1" d="m-42.1 5.7h80.8c0 0-14.8 21.8-0.5 30.4 14.4 8.6 30.3 5.9 40.1-1 9.7-6.9 1.7-32.2 1.7-32.2h90.5c0 0-11.2 22.2 4.9 30.8 16 8.6 35.5-0.3 40.6-8.3 5.2-8-3.1-25.4-3.1-25.4h91.1c0 0-16.9 25 2 36.5 18.9 11.4 34.4 0.3 41.3-6 6.8-6.3-4.4-30.5-4.4-30.5l111.8 2.9c0 0-11.8 32.6 15.5 39 25.4 5.9 35.8-7.1 35.8-14.5 0-7.5-5.5-24.5-5.5-24.5l65.9-2.9c0 0-17.9 26.7 0.4 36.4 18.4 9.8 35.2 1.1 44.1-8.3 7.2-7.5-0.4-28.1-0.4-28.1h83.1c0 0-20 17.5-4.6 30.1 15.5 12.6 40.7 2.2 44.1-7 3.5-9.2-0.6-23.1-0.6-23.1h80.3c0 0 0.2 409.9 8.3 551.9 0.9 14.9 6.7 388.9 4.4 421.5-2.3 32.7-3.7 276.3-3.7 276.3h-863.9c0 0-8-18.4-6.9-53.5 1-29.2 3.5-84.6 4.6-96.6 1.2-12-0.6-138.7 0.6-157 1.1-18.3-4-100.8-2.3-112.3 1.7-11.5 11.5-118 8.6-151.9-2.9-33.8-8-196.5-6.3-230.9 1.7-34.3 1.1-166.1 1.7-186.2 0.6-20-1.1-115.7 0-139.2 1.1-23.5 0-116.4 0-116.4z"/>
		<path id="Layer" class="s1" d="m-53.3 45.8q-0.4 9.3-0.7 18.6 0.6 4.5 1.1 9c1.7 6.8 3.5 13.6 5.2 20.4q-0.3-12.1-0.5-24.1 0.2-10 0.4-19.9 0.3-14.6 0.6-29.1-0.8 3.7-1.7 7.3c-1.5 5.9-3.1 11.8-4.4 17.8z"/>
	</g>
</svg>