<?xml version="1.0" encoding="UTF-8"?>
<svg id="Capa_1" data-name="Capa 1" xmlns="http://www.w3.org/2000/svg" viewBox="0 0 386 48">
  <defs>
    <style>
      .cls-1 {
        fill: #fff;
      }

      .cls-2 {
        fill: #0b0d0d;
      }
    </style>
  </defs>
  <g id="Carpeta_1" data-name="Carpeta 1">
    <g>
      <path class="cls-2" d="m369.61,14.46c-.7-4.44-2.02-8.73-3.92-12.8h-5.39c1.08,3.54,2.06,7.12,2.81,10.8,1,4.8,1.3,9.3-2,13.3-5.8,6.9-15,11.1-23.1,14.6-2.8,1.2-.4,5,2.1,4.4,5.2-1.3,10.1-3.7,14.6-6.5,4.2-2.6,8.6-5.7,11.7-9.6,3.4-4.1,4.1-9,3.2-14.2h0Z"/>
      <path class="cls-2" d="m363.01-3.34c-1.2-1.9-4.5-.9-3.8,1.5.37,1.17.74,2.33,1.09,3.5h5.39c-.79-1.71-1.68-3.38-2.68-5Z"/>
      <path class="cls-2" d="m235.43,1.66h-6.53c.38,1.15.8,2.3,1.11,3.5.5,2,.9,4.2,1,6.3.2,4.2-.2,8.4-3.7,11.2-7.1,5.8-16.1,9.9-24.9,12.5-2.9.9-.4,4.9,2,4.4,5.4-1.2,10.5-3,15.4-5.4,4.5-2.2,9.2-4.9,12.9-8.4,3.9-3.6,4.9-8.6,4.6-13.8-.13-3.22-.57-7.01-1.88-10.3Z"/>
      <path class="cls-2" d="m232.61-2.94c-1.2-1.2-4.7-1-4.5,1.4.14,1.1.45,2.15.79,3.2h6.53c-.68-1.71-1.59-3.3-2.82-4.6Z"/>
      <path class="cls-2" d="m98.31-.94c-.5-.3-1.5-.2-1.9.3-.72.89-1,1.54-1.03,2.3h5.79c-.52-1.28-1.25-2.06-2.86-2.6Z"/>
      <path class="cls-2" d="m101.61,2.96c-.14-.49-.28-.91-.44-1.3h-5.79c-.02.51.07,1.07.23,1.8.3,1.7.7,3.3,1,4.9.6,3.1,1,6.2.8,9.3-.5,5.5-2.8,10.2-7.4,13.5-9.1,6.5-21.4,6.2-32.1,6.3-3.7,0-3,4.7.3,4.8,12.6.5,27,.5,37.2-8,5-4,7.7-9.6,8.1-16,.2-3.3-.1-6.6-.7-9.8-.33-1.87-.73-3.7-1.2-5.5Z"/>
      <path class="cls-1" d="m56.61.36H-24.19s0,.46.01,1.3H55.79c.5-.82.82-1.3.82-1.3Z"/>
      <path class="cls-1" d="m839.01,546.56c-8.1-142-8.3-551.9-8.3-551.9h-80.3s4.1,13.9.6,23.1c-3.4,9.2-28.6,19.6-44.1,7-15.4-12.6,4.6-30.1,4.6-30.1h-83.1s7.6,20.6.4,28.1c-8.9,9.4-25.7,18.1-44.1,8.3-18.3-9.7-.4-36.4-.4-36.4l-65.9,2.9s5.5,17,5.5,24.5-10.4,20.4-35.8,14.5c-21.3-4.99-18.8-25.94-16.67-34.9h-107.8c2.78,7.66,6.01,19.39,1.57,23.5-6.9,6.3-22.4,17.4-41.3,6-12.56-7.64-9.31-21.23-5.72-29.5h-84.68c1.84,5.75,3.45,13.7.39,18.4-5.1,8-24.6,16.9-40.6,8.3-11.79-6.3-8.94-19.87-6.57-26.7h-87.72c1.8,7.45,4.46,22.93-2.81,28.1-9.8,6.9-25.7,9.6-40.1,1-12.21-7.34-3.21-24.3-.32-29.1H-24.18c.13,11.26,1.01,93.23-.01,115.1-1.1,23.5.6,119.2,0,139.2-.6,20.1,0,151.9-1.7,186.2-1.7,34.4,3.4,197.1,6.3,230.9,2.9,33.9-6.9,140.4-8.6,151.9s3.4,94,2.3,112.3c-1.2,18.3.6,145-.6,157-1.1,12-3.6,67.4-4.6,96.6-1.1,35.1,6.9,53.5,6.9,53.5h863.9s1.4-243.6,3.7-276.3c2.3-32.6-3.5-406.6-4.4-421.5Z"/>
    </g>
  </g>
</svg>