<svg width="866" height="1152" viewBox="0 0 866 1152" fill="none" xmlns="http://www.w3.org/2000/svg">
<path d="M567.964 0L560.842 33.4801L519.087 213.883L821.268 273.843L866 63.3527L567.964 0Z" fill="#D73532"/>
<path d="M820.408 802.985C820.285 803.952 820.147 802.555 820.116 801.373V800.268C820.116 800.268 820.132 800.222 820.132 800.206C820.316 798.84 820.515 802.233 820.408 802.97M829.68 50.8112C829.081 50.719 829.557 50.6423 830.386 50.5809C830.447 51.3331 830.478 52.6072 830.417 53.0524C830.263 54.3265 830.094 51.9318 830.11 50.8419C829.91 50.8419 829.757 50.8419 829.664 50.8112M819.717 846.259C819.671 846.09 819.594 845.66 819.502 845.169L819.533 842.651C819.579 843.987 819.64 845.123 819.702 846.243M819.579 854.364C819.502 854.901 819.426 854.702 819.38 854.226L819.41 851.309C819.548 851.524 819.656 853.796 819.579 854.379M818.704 911.208C818.673 911.423 818.643 911.515 818.612 911.515L818.643 908.813C818.719 909.581 818.75 910.794 818.689 911.208M816.893 1039.6L816.954 1035.41C817.031 1034.47 817.108 1033.55 817.123 1033.03C817.123 1033.11 817.061 1033.06 816.985 1033.02L817.015 1031.16C817.722 1025.62 817.292 1039.57 816.908 1039.6M816.033 1125.09C815.941 1125.8 815.833 1125.24 815.787 1124.45L815.818 1122.07C815.987 1121.68 816.125 1124.46 816.033 1125.11M826.026 356.277C826.026 356.277 826.026 356.292 826.026 356.307V356.154C826.026 356.154 826.026 356.231 826.026 356.261M825.55 391.737V390.309C825.811 391.86 825.934 393.441 825.55 391.737ZM824.844 453.739C824.798 454.046 824.768 454.107 824.722 454.015L824.768 451.052C824.86 451.774 824.906 453.278 824.844 453.724M823.862 537.662C823.77 538.352 823.678 537.846 823.616 537.078L823.647 534.607C823.816 534.269 823.954 537.017 823.862 537.646M823.018 591.773C822.972 592.126 822.926 592.157 822.879 592.003L822.926 588.964C823.033 589.624 823.094 591.282 823.018 591.773ZM821.191 718.525L821.222 716.652C821.314 717.205 821.283 718.018 821.191 718.525ZM786.406 1150.51C785.024 1150.33 788.448 1150.14 789.184 1150.24C790.566 1150.42 787.143 1150.6 786.406 1150.51ZM723.79 49.4449C724.235 49.2914 725.233 49.23 726.737 49.491L723.79 49.4449ZM687.746 48.9537C687.746 48.9537 687.685 48.9537 687.654 48.9537H686.396C687.716 48.616 689.865 48.2322 690.571 48.3397C692.781 48.7081 688.053 48.877 687.746 48.9384M658.227 1148.58C657.736 1148.52 657.858 1148.44 658.227 1148.39L661.266 1148.44C660.883 1148.58 658.779 1148.65 658.227 1148.58ZM660.468 48.5239C659.071 48.3397 662.494 48.1555 663.247 48.2476C664.628 48.4318 661.19 48.616 660.468 48.5239ZM643.49 48.3704L633.098 48.2322C634.771 47.9713 640.497 48.2629 644.089 48.2783C643.92 48.309 643.705 48.355 643.49 48.3857M617.302 1147.96C617.302 1147.96 617.47 1147.9 617.609 1147.87L622.567 1147.93C622.69 1147.96 622.766 1148.01 622.766 1148.04C620.31 1148.19 617.823 1148.35 617.317 1147.95M630.672 48.2015L627.602 48.1555C628.262 48.048 629.951 47.9866 630.442 48.048C630.81 48.0941 630.826 48.1401 630.657 48.1862M534.806 1146.74H535.39C533.64 1146.92 532.089 1147.04 534.806 1146.74ZM529.372 46.8353H527.806C528.236 46.8046 528.758 46.7892 529.449 46.8046C529.418 46.8046 529.403 46.8353 529.372 46.8353ZM501.464 1146.29H501.787C501.787 1146.29 501.91 1146.32 501.986 1146.34C501.833 1146.31 501.633 1146.31 501.48 1146.29M513.561 46.6204C514.344 46.559 515.434 46.5283 515.817 46.5897C515.986 46.6204 516.094 46.6357 516.125 46.6664L513.561 46.6357V46.6204ZM489.982 1146.14L497.212 1146.23C494.633 1146.32 491.886 1146.46 489.982 1146.14ZM496.859 46.4055C497.627 46.3287 498.993 46.2827 499.438 46.3441C499.699 46.3748 499.791 46.4208 499.761 46.4515L496.859 46.4208V46.4055ZM344.902 44.3792C345.915 44.3024 347.373 44.3331 348.325 44.4252L344.902 44.3792ZM328.016 1144.09C327.264 1144.06 326.726 1144.02 326.358 1143.96L328.108 1143.99C328.108 1143.99 328 1144.06 328.016 1144.09ZM339.867 44.3178H339.468C340.465 44.2257 340.987 44.1796 339.867 44.3178ZM314.369 1143.9C314.139 1143.86 313.939 1143.83 313.755 1143.8H314.308C316.349 1144.08 318.744 1144.43 314.369 1143.9ZM96.8942 41.0941C97.4622 41.0788 98.0148 41.0788 98.2604 41.0941C98.2604 41.0941 98.2758 41.0941 98.2912 41.0941H96.8942ZM83.8307 40.9252C84.0456 40.9252 84.2912 40.9099 84.6136 40.9099C84.936 40.9099 85.2276 40.9406 85.5346 40.9559H83.8307V40.9252ZM14.4912 51.0875C14.2916 49.2607 14.4605 47.4186 14.5526 46.0217L14.4912 51.0875ZM14.0767 81.8198C13.9078 82.3724 13.7543 79.4864 13.8464 78.8264C13.9385 78.0742 14.046 78.7343 14.1074 79.6093L14.0767 81.8198ZM13.739 107.363C13.7083 106.78 13.7083 106.197 13.739 105.936C13.739 105.905 13.739 105.905 13.739 105.874V107.363ZM821.099 778.685C820.853 778.04 820.469 778.516 820.5 775.875C820.991 771.27 820.393 759.818 821.436 757.04C820.577 754.154 821.697 745.573 821.697 740.799C820.669 736.178 821.651 731.711 821.344 721.764C821.667 721.794 821.682 724.005 821.943 724.573C821.989 713.659 821.851 717.911 821.559 708.224C821.82 707.656 822.189 708.255 822.235 705.63C820.761 709.683 821.728 700.426 821.682 700.104C821.636 699.735 821.559 699.582 821.467 699.536L821.529 695.099C821.805 694.885 822.066 694.455 822.127 692.045C821.882 692.26 821.713 691.753 821.575 691.093L821.621 687.931C821.82 688.299 822.005 688.698 822.158 689.328C822.419 683.325 821.897 683.203 821.713 680.455L821.774 675.604C822.219 675.159 822.358 686.104 822.634 678.567C821.636 677.154 822.189 666.762 822.849 665.027C822.572 664.429 822.266 664.797 822.25 662.218C822.25 659.777 822.849 645.516 822.634 637.872C822.48 637.657 822.373 637.749 822.281 638.025L822.327 634.909C822.803 634.402 823.171 632.729 823.401 629.859C823.171 629.214 822.772 629.674 822.803 627.049C823.524 619.712 822.265 603.762 823.586 597.33C823.831 587.168 822.849 578.71 823.877 578.387C823.325 567.964 824.2 558.938 824.292 551.339C824.292 551.539 823.77 547.179 823.739 545.813C823.678 543.096 824.215 538.414 824.553 535.098C824.292 532.504 824.031 529.863 823.754 527.192V526.778C824.921 526.01 823.969 525.212 823.816 522.541V521.221C823.969 520.699 824.445 519.379 824.476 518.796C824.721 514.943 824.353 507.421 824.445 499.807C824.491 496.353 824.936 496.122 824.89 491.747C824.338 492.269 824.154 488.554 824.937 489.046C825.105 483.258 824.737 481.462 824.384 479.605L824.43 476.182C824.722 478.039 824.936 480.787 825.151 475.522C824.829 474.37 824.184 464.853 825.274 467.401C825.013 457.346 825.366 442.732 825.182 432.11C826.318 427.689 825.366 417.097 825.52 410.465C825.597 406.704 826.241 405.921 826.287 402.452C826.287 401.961 825.719 399.167 825.735 396.941C825.735 397.202 826.18 389.926 826.226 386.165C826.41 373.347 826.379 365.81 826.41 353.636C826.564 349.998 826.947 348.555 826.901 342.86C826.702 342.63 826.456 342.753 826.226 342.645L826.456 325.575C826.779 324.731 827.086 323.779 827.239 321.215C826.226 320.924 827.393 310.194 826.671 310.055L826.702 307.876C827.132 305.757 827.93 304.391 827.224 302.211C826.809 307.523 826.978 296.654 826.947 290.069L826.993 286.077C827.224 286.83 827.3 289.24 827.469 285.985C826.963 281.887 828.037 270.681 827.469 264.279C827.454 265.369 827.347 266.106 827.239 266.398L827.3 261.869C827.638 260.288 827.991 258.738 828.237 256.266C827.884 256.573 827.592 256.374 827.377 255.529L827.408 253.027C827.792 253.319 827.761 242.834 827.884 237.216C827.776 237.431 827.7 237.538 827.608 237.584L827.654 234.483C827.73 234.514 827.807 234.529 827.93 234.499C828.252 228.021 828.022 225.473 827.807 222.848L827.868 217.736C828.298 220.299 828.989 222.832 828.483 218.319C828.314 216.155 828.129 214.113 827.945 212.179L827.991 208.326C828.16 210.045 828.176 212.823 828.575 212.9C827.807 202.6 829.572 184.317 828.436 180.326C829.649 175.429 829.066 143.806 829.143 134.335C829.143 135.179 829.035 136.039 828.958 136.069L829.004 133.168C829.833 126.966 829.864 115.484 829.311 110.633V110.019C830.386 111.094 829.618 103.802 829.664 101.853C830.048 87.3 830.739 69.969 830.018 58.5173C830.616 56.9361 830.724 54.4339 830.724 50.2585C828.344 50.2585 825.719 50.2892 823.094 50.2892C820.684 50.2892 818.274 50.2125 816.11 49.9669C815.45 50.2739 816.816 50.5195 817.353 50.673L815.112 50.6423C813.331 50.1511 811.228 50.2892 809.064 50.5655L801.787 50.4734C799.362 50.3506 796.138 50.3199 794.281 49.6291C793.759 50.7344 790.305 49.6598 783.259 50.0897C771.562 48.8923 758.375 49.6138 743.24 49.6905L733.676 49.5677C731.788 49.1686 728.012 48.9691 723.284 48.8463C714.027 49.0151 715.055 48.6006 709.744 49.2454H709.468C708.869 48.8923 706.52 48.7234 704.187 48.5546C703.849 48.8309 704.479 49.0151 705.2 49.184L699.72 49.1072C698.369 48.5699 692.121 47.9866 685.152 47.9406C685.198 48.4932 682.911 48.7234 679.534 48.8156C676.233 47.4954 673.869 48.8156 665.887 48.6006C663.323 47.4647 650.751 48.5699 652.409 47.4493C644.273 48.4932 623.227 46.8507 614.093 47.4954C615.613 47.5107 617.163 47.8024 614.047 47.8177C606.817 47.434 599.479 47.1116 593.093 47.7103L590.008 47.6642C587.797 47.2651 584.927 46.9428 581.411 46.6664C579.063 46.7585 579.354 47.1884 578.756 47.5107L572.37 47.434C570.911 47.2498 572.047 47.2958 575.901 46.9121C572.14 46.8353 569.883 46.9735 567.657 47.0963C516.186 45.991 472.559 46.0524 431.265 44.9779C427.765 45.1007 424.403 45.2542 421.18 45.4077L409.836 45.2542C407.886 45.0239 405.138 44.8704 403.972 44.5634C404.586 44.9011 403.972 45.0546 402.928 45.1621L396.818 45.0853C398 45.0546 399.458 44.9165 398.476 44.7936C397.739 44.7015 394.301 44.8857 395.682 45.07C395.697 45.07 395.728 45.07 395.744 45.07L390.11 44.9932C390.248 44.7783 390.524 44.5327 390.355 44.3485C381.099 44.1182 365.472 45.2542 376.709 44.1336C370.476 44.1182 365.61 44.2717 362.064 44.6248L360.222 44.5941L360.345 43.8879C353.222 43.3967 353.038 45.3002 352.147 43.7651C343.704 43.5349 338.992 44.3024 333.051 43.4735C335.016 44.7169 320.079 43.673 313.847 43.8112C313.709 42.491 312.066 43.7191 308.398 43.7191C303.178 43.0437 296.7 43.3046 292.356 43.7037L289.639 43.673C290.176 43.4735 291.113 43.32 292.064 43.1665C287.137 42.9669 282.977 43.366 278.863 43.5349L272.385 43.4428C271.464 43.2586 273.597 42.8901 270.235 42.8287C262.483 42.6906 256.067 43.059 248.422 42.491C247.915 42.8287 246.856 42.9976 245.49 43.0897L231.797 42.9055C231.766 42.5985 231.766 42.2761 229.341 42.1994C228.681 42.4296 229.157 42.8287 226.516 42.798C223.615 42.184 214.773 42.6292 215.602 42.6292C212.87 42.6445 212.363 42.2454 210.183 42.2301C208.894 42.2301 208.571 42.5678 204.672 42.4603C202.063 42.3836 197.442 41.9998 196.552 42.0152C195.615 42.0152 195.999 42.2608 195.815 42.4296L193.082 42.3989C192.177 42.0766 190.166 41.5239 185.637 41.8463C185.453 41.9844 185.453 42.1533 185.361 42.2915L182.935 42.2608C182.521 42.1226 181.431 42.1687 180.295 42.2301L177.256 42.184C177.056 42.0919 177.071 41.9537 177.471 41.7235C162.427 41.7849 148.841 41.8616 142.041 40.8485C139.155 41.6928 130.973 41.0788 125.631 40.9099C125.109 41.1402 125.846 41.3551 126.445 41.5086L121.394 41.4472C121.977 41.3704 122.591 41.309 122.852 41.2016C91.9666 40.0963 80.4228 41.2016 49.2454 39.7432C48.5853 39.9735 49.0611 40.3726 46.4055 40.3266C41.8309 39.9888 37.6709 39.8967 32.7586 39.8353C30.3025 39.8046 27.6621 39.7739 24.6841 39.7432C21.5679 39.6818 18.0986 39.6051 14.1381 39.5283C14.1381 39.7893 14.1227 40.1577 14.1074 40.5415C14.3069 40.6796 14.4758 41.1402 14.5986 41.7695L14.5679 44.1643C14.5065 43.7651 14.353 43.5656 14.0613 43.627C13.9999 47.2191 13.9539 50.8265 13.8925 54.4339C14.0613 54.8945 14.2916 54.8331 14.4144 55.616L14.3683 58.4405C13.739 65.6554 13.0328 84.4908 13.6162 92.3811C13.6776 90.9688 13.8157 89.4491 13.9692 88.6509L13.9232 92.1816C12.7872 100.655 13.3245 113.074 12.7105 130.205C12.9714 130.589 13.2017 130.681 13.4012 130.512L13.3552 134.181C13.171 134.688 12.9714 135.118 12.6184 135.624C12.9254 146.17 11.989 151.451 12.9254 157.376C11.9276 196.076 11.7741 225.979 11.2521 265.615C11.2675 264.11 11.5591 262.591 11.5745 265.676C11.0526 270.097 11.2982 269.714 11.5284 271.095L11.467 275.608C11.0986 278.724 10.9451 283.974 10.592 287.229C12.0811 284.02 9.80916 300.86 10.9758 303.562C11.0219 302.841 11.0679 302.134 11.1293 301.444L11.0833 305.312C10.9758 305.496 10.8223 305.757 10.6228 306.218C10.9298 318.575 9.74776 338.5 9.99337 346.805C10.0241 348.033 10.3157 349.292 10.4692 351.027V351.81C10.285 351.15 9.94732 350.397 9.94732 349.507C9.90126 353.038 9.85521 356.2 9.79381 359.193C9.76311 358.027 9.62495 356.614 9.50214 357.566C9.39469 358.303 9.59425 361.711 9.77846 360.345C9.65565 368.02 9.59425 374.805 10.0241 384.353V384.86C9.47144 385.627 9.28723 380.73 9.08767 384.66C9.671 385.152 9.13372 393.855 9.56355 395.605C9.30258 419.461 8.33548 437.467 8.96486 455.167C8.7039 455.75 8.33548 455.136 8.28943 457.776C9.31793 460.432 8.36618 462.827 8.39689 471.377C8.62715 474.309 8.7346 477.256 8.7653 480.465L8.6425 489.476C8.56574 492.208 8.44294 495.171 8.30478 498.456C8.36618 499.5 8.42759 500.083 8.50434 500.375L8.47364 503.153C8.30478 502.186 8.18197 500.144 7.99776 498.425C7.41443 514.82 8.81136 522.173 7.46049 533.594C7.6754 534.162 7.99777 533.87 8.04382 535.62V536.449C7.6754 537.017 7.50654 539.381 7.32233 541.714C8.05917 549.528 6.23242 563.804 7.09207 576.944C7.19952 574.872 7.18417 571.602 7.49119 571.587C6.8004 584.973 6.40128 586.953 7.07672 598.65C5.94076 604.085 6.78505 622.091 6.61619 628.416C6.61619 627.525 6.739 626.62 6.8311 626.681L6.8004 629.291C5.72585 635.63 5.51094 652.025 6.41663 657.766L6.38593 659.701C5.43418 673.762 5.92541 686.518 5.8026 701.501C5.48023 701.455 5.46488 699.26 5.20392 698.692C4.91226 704.924 5.41883 705.17 5.75655 706.766L5.72585 709.683C5.37278 709.053 5.21927 706.275 5.05041 709.514C5.63374 710.281 4.8048 713.95 5.28067 714.994C5.29603 713.49 5.58769 711.985 5.60304 715.055C5.14252 727.259 5.06576 731.542 5.14252 744.821C4.7741 745.036 4.71269 740.799 4.49778 744.713C4.8969 752.235 4.97366 763.625 4.40568 771.838C4.55919 772.237 4.75875 772.206 4.88155 772.759L4.8355 775.845C4.16007 781.847 4.08331 794.742 4.48243 802.678L4.39033 809.478C3.65349 814.866 3.71489 823.724 4.11401 830.386L4.05261 834.439C3.71489 835.053 3.48463 836.91 3.34647 839.474C3.63814 846.704 3.20832 860.857 3.57674 870.974L3.53068 874.919C3.19297 874.949 2.85525 874.827 2.77849 877.359C3.31577 889.594 3.14691 899.664 2.22587 912.528C2.37937 914.309 2.76314 914.324 2.97805 915.644L2.91665 920.587C2.71709 920.035 2.67104 918.454 2.45613 917.993C2.67104 926.574 1.9649 933.267 2.73244 934.234L2.67104 938.486C2.50218 940.021 2.22587 940.651 2.07236 942.355C2.25657 952.256 1.91885 959.778 1.88815 974.883C1.88815 972.918 2.11841 972.964 2.19516 973.778V975.282C1.9035 978.506 1.19736 978.736 2.07236 983.004V983.034C1.85745 983.004 1.65789 982.958 1.44297 982.942C1.98025 1013.54 0.997802 1032.54 0.629383 1056.04C0.798241 1056.92 0.951749 1056.79 1.10526 1056.23V1057.36C0.721488 1062.32 0.76754 1071.07 0.828943 1077.06L0.736838 1084.2C0.537278 1085.19 0.153508 1086.1 0.138157 1088.54C0.138157 1088.74 0.475875 1090.95 0.629383 1092.78L0.598681 1094.56C0.429822 1095.79 0.168859 1098.81 0.537278 1099.38L0.475875 1104.47C0.0460524 1111.34 0.0307016 1120.07 0.18421 1126.07L0 1139.67H0.874995C1.39692 1139.72 2.16446 1139.75 3.28507 1139.77C3.43858 1139.74 3.56139 1139.74 3.71489 1139.72L13.6929 1139.86C13.8618 1139.89 14.046 1139.9 14.2148 1139.95C14.2455 1139.92 14.2609 1139.9 14.2916 1139.87L17.2082 1139.92C17.1008 1139.95 17.0087 1139.97 16.9319 1140C24.6073 1140.12 31.1314 1140.17 36.934 1140.18L56.1839 1140.44C55.9383 1140.52 56.2914 1140.61 57.8572 1140.64C62.3856 1140.7 66.8067 1140.67 71.811 1140.64L93.3789 1140.93C96.6947 1141.04 100.271 1141.16 104.232 1141.35C104.263 1141.21 104.8 1141.13 105.537 1141.09L130.697 1141.42C131.648 1141.52 132.738 1141.62 134.227 1141.81C134.504 1141.67 134.964 1141.56 135.548 1141.49L145.188 1141.61C149.532 1141.87 153.938 1142.21 156.072 1142.13C156.379 1141.99 156.24 1141.85 155.964 1141.75L158.62 1141.78C159.433 1141.93 160.37 1142.08 161.521 1142.21C167.017 1141.36 177.471 1142.82 180.249 1142.07L182.076 1142.1C187.218 1142.62 202.185 1142.16 205.163 1142.9C205.363 1142.74 205.348 1142.58 205.47 1142.42L214.174 1142.53C213.852 1142.58 213.576 1142.64 213.391 1142.7C225.181 1143.51 235.527 1142.24 235.159 1143.36C236.617 1143.36 265.599 1142.81 256.988 1143.7C262.391 1143.96 262.591 1143.51 263.681 1143.19L266.874 1143.24C266.229 1143.31 265.507 1143.39 265.231 1143.51C278.233 1143.25 282.47 1144.06 292.555 1143.62C292.172 1143.62 291.819 1143.59 291.481 1143.56L298.082 1143.65C296.884 1143.73 295.902 1143.83 295.227 1143.97C300.86 1144.29 307.553 1143.54 316.994 1144.62C318.514 1143.54 325.729 1144.46 327.954 1144.46C332.867 1144.46 334.325 1144.33 334.663 1144.22C334.494 1144.16 334.479 1144.13 334.525 1144.11H334.663C334.755 1144.13 334.801 1144.17 334.663 1144.22C334.862 1144.29 335.292 1144.4 336.136 1144.59C346.913 1144 355.279 1145 362.095 1144.48L366.823 1144.54C373.408 1145.15 386.84 1145.58 378.305 1144.69H378.766C386.794 1145.28 389.972 1145.06 396.204 1145.2C404.847 1145.38 416.851 1145.98 428.993 1145.38C428.855 1145.38 428.748 1145.38 428.625 1145.38L434.243 1145.46C435.978 1145.72 438.235 1145.92 439.8 1146.21C453.14 1145.92 458.467 1145.68 469.811 1146.67C470.824 1146.41 471.976 1146.18 473.541 1145.98L475.322 1146.01C475.583 1146.44 479.221 1146.54 480.726 1146.84C492.699 1146.49 503.721 1147.43 519.026 1146.8C517.199 1146.72 515.495 1146.63 513.837 1146.52L529.894 1146.74C528.942 1147.12 522.357 1146.74 521.712 1147.15C542.206 1147.98 556.819 1146.14 565.308 1148.15C565.262 1147.59 567.519 1147.36 570.865 1147.29H570.958C573.398 1147.7 577.42 1147.64 581.243 1147.43L585.602 1147.49C585.065 1147.59 584.697 1147.7 584.528 1147.81C603.471 1148.12 620.587 1148.95 633.635 1148.58C629.828 1147.81 626.896 1148.87 625.499 1148.13C625.913 1148.09 626.359 1148.06 626.788 1148.04L632.054 1148.12C634.633 1148.24 637.38 1148.38 640.128 1148.22L641.909 1148.26L641.832 1148.72C658.918 1148.79 678.567 1148.96 701.854 1149.65C705.016 1149.47 704.034 1149.25 703.189 1149.07L706.551 1149.11C711.003 1149.73 721.902 1150.31 723.667 1149.99C720.919 1149.94 720.336 1149.38 723.775 1149.36C726.415 1149.93 736.362 1149.77 737.253 1150.53C738.65 1150.17 740.292 1149.85 742.871 1149.67C744.191 1150.79 753.386 1150.02 759.235 1149.91C761.046 1150.85 773.143 1150.42 781.018 1150.57C786.606 1150.73 793.13 1150.91 799.101 1151.06C802.079 1151.13 804.919 1151.16 807.437 1151.13C809.954 1151.08 812.103 1150.97 813.899 1150.76C814.191 1150.9 815.005 1151.05 816.064 1151.16C816.263 1149.81 816.355 1147.44 816.079 1146.89C816.048 1148.59 815.987 1149.51 815.895 1149.56C815.818 1149.65 815.726 1149.05 815.649 1148.18C815.603 1147.78 815.573 1147.32 815.542 1146.83L815.619 1141.26C816.11 1140.98 816.294 1145.28 816.478 1141.53C816.141 1135.39 816.094 1134.85 815.726 1133.52L815.803 1127.92C816.064 1128.25 816.094 1130.14 816.325 1130.66C816.739 1106.02 816.509 1098.89 816.724 1084.61C816.616 1092.18 816.54 1078.85 816.494 1079.15C816.555 1078.85 816.693 1079.56 816.831 1080.34C816.954 1081.13 817.092 1081.94 817.092 1081.95C817.338 1073.93 817.507 1063.76 816.831 1057.49C817.798 1058.94 818.136 1050.41 817.276 1049.43C817.246 1052.31 817.015 1056.27 816.908 1052.08C817.798 1041.86 818.136 1026.88 817.292 1015.67L817.323 1013.48C817.568 1012.49 817.829 1011.46 818.167 1011.59C818.52 1004.25 817.614 1006.05 817.691 1000.67C818.965 991.109 817.814 966.348 818.274 962.787C818.858 963.539 818.029 967.223 818.505 968.252C818.842 960.407 818.443 947.482 818.643 938.425C818.658 937.627 819.026 938.809 819.011 935.769C819.011 934.787 818.551 936.122 818.735 933.006C818.827 931.471 819.472 933.881 819.41 930.412C819.41 929.429 818.213 928.953 818.535 924.839C818.811 924.394 819.072 924.686 819.195 922.706C819.195 922.706 819.303 916.32 819.303 916.826C819.272 909.228 819.379 897.254 819.042 892.357C819.303 891.789 819.671 892.388 819.717 889.763C819.502 883.531 819.502 869.776 820.178 859.998C819.779 859.123 819.472 861.778 819.318 861.379L819.349 859.506C820.761 856.068 819.779 840.241 820.408 824.768C820.208 824.63 819.994 824.629 819.825 824.307L819.871 820.454C820.009 821.406 820.132 822.465 820.439 822.066C820.853 815.972 820.301 816.923 819.917 816.708L819.948 814.651C820.516 814.882 820.04 804.781 820.7 805.825C821.068 805.61 821.145 809.847 821.344 805.932C820.316 800.022 820.638 788.985 821.129 778.761M741.121 93.8394C741.213 86.5939 747.169 80.8066 754.415 80.8987C761.66 80.9908 767.448 86.9469 767.356 94.1925C767.264 101.438 761.307 107.225 754.062 107.133C746.816 107.041 741.029 101.085 741.121 93.8394ZM644.565 92.55C644.657 85.3044 650.613 79.5171 657.858 79.6093C665.104 79.7014 670.891 85.6575 670.799 92.903C670.707 100.149 664.751 105.936 657.505 105.844C650.26 105.752 644.472 99.7956 644.565 92.55ZM548.008 91.2605C548.1 84.0149 554.056 78.2277 561.302 78.3198C568.547 78.4119 574.335 84.368 574.243 91.6136C574.151 98.8591 568.194 104.646 560.949 104.554C553.703 104.462 547.916 98.5061 548.008 91.2605ZM451.452 89.971C451.544 82.7255 457.5 76.9382 464.745 77.0303C471.991 77.1224 477.778 83.0785 477.686 90.3241C477.594 97.5697 471.638 103.357 464.392 103.265C457.147 103.173 451.359 97.2166 451.452 89.971ZM354.895 88.6816C354.987 81.436 360.943 75.6487 368.189 75.7409C375.434 75.833 381.222 81.7891 381.13 89.0346C381.037 96.2802 375.081 102.067 367.836 101.975C360.59 101.883 354.803 95.9272 354.895 88.6816ZM258.339 87.3921C258.431 80.1465 264.387 74.3593 271.632 74.4514C278.878 74.5435 284.665 80.4996 284.573 87.7452C284.481 94.9907 278.525 100.778 271.279 100.686C264.034 100.594 258.246 94.6377 258.339 87.3921ZM161.782 86.1026C161.874 78.8571 167.83 73.0698 175.076 73.1619C182.321 73.254 188.109 79.2101 188.017 86.4557C187.924 93.7013 181.968 99.4885 174.723 99.3964C167.477 99.3043 161.69 93.3482 161.782 86.1026ZM65.2255 84.8132C65.3176 77.5676 71.2738 71.7803 78.5193 71.8724C85.7649 71.9646 91.5522 77.9207 91.4601 85.1662C91.368 92.4118 85.4118 98.1991 78.1663 98.107C70.9207 98.0149 65.1334 92.0587 65.2255 84.8132ZM788.77 66.6378C789.277 66.6225 789.737 66.6378 789.967 66.6532H788.77V66.6378ZM735.963 65.9317C736.715 65.8396 738.143 65.7935 738.588 65.8549C738.865 65.8856 738.941 65.9317 738.88 65.9624L735.963 65.9163V65.9317ZM637.043 64.6115C637.611 64.5962 638.179 64.5962 638.424 64.6115C638.44 64.6115 638.455 64.6115 638.455 64.6115H637.043ZM509.171 62.9076C510.076 62.8922 510.859 62.9076 511.473 62.9383L509.171 62.9076ZM190.227 58.6554C190.856 58.6247 191.501 58.6247 191.762 58.6554C191.808 58.6554 191.839 58.6554 191.87 58.6708H190.227V58.6554Z" fill="white"/>
<path d="M757.117 144.773C755.029 144.911 752.834 144.65 750.731 144.589C748.536 144.527 746.34 144.466 744.145 144.42C739.816 144.328 735.441 144.451 731.143 144.082C730.207 144.005 729.961 142.378 730.959 142.271C735.288 141.81 739.74 141.964 744.099 142.01C746.233 142.025 748.351 142.071 750.485 142.117C752.665 142.163 754.968 142.086 757.132 142.378C758.222 142.532 758.299 144.696 757.132 144.773" fill="#D73532"/>
<path d="M792.73 144.005C792.024 144.635 790.873 144.42 789.906 144.404C788.693 144.389 787.496 144.374 786.283 144.358C783.873 144.328 781.447 144.282 779.037 144.251C774.309 144.174 769.52 144.251 764.792 143.928C763.886 143.867 764.347 142.163 765.16 142.117C769.673 141.902 774.263 142.025 778.776 142.04C781.048 142.04 783.32 142.04 785.577 142.04C786.636 142.04 787.695 142.04 788.754 142.04C789.353 142.04 789.967 142.04 790.566 142.04C790.689 142.04 791.226 142.071 791.594 142.086C791.686 142.01 791.794 141.933 791.901 141.887C792.362 141.687 792.838 141.733 793.114 142.117C793.559 142.716 793.267 143.514 792.715 143.99" fill="#D73532"/>
<path d="M723.898 142.839C724.051 143.284 723.975 143.79 723.545 144.128C723.1 144.466 722.179 144.312 721.626 144.312C720.843 144.312 720.06 144.312 719.277 144.312C717.819 144.312 716.345 144.312 714.887 144.328C711.863 144.328 699.536 144.236 696.497 144.097C695.576 144.051 695.1 142.133 696.113 142.071C698.968 141.902 711.111 141.994 713.981 141.964C715.393 141.948 716.806 141.933 718.203 141.918H720.244C720.628 141.887 721.027 141.887 721.411 141.887C721.518 141.887 721.902 141.918 722.132 141.918C722.163 141.902 722.163 141.872 722.194 141.856C722.209 141.856 722.225 141.825 722.24 141.825C722.455 141.672 722.762 141.718 722.992 141.81C723.483 141.994 723.729 142.44 723.852 142.839" fill="#D73532"/>
<path d="M619.42 140.536C617.348 140.367 615.138 140.582 613.034 140.597C610.839 140.628 608.644 140.628 606.449 140.628C602.12 140.628 597.76 140.429 593.447 140.705C592.51 140.766 592.234 142.378 593.232 142.516C597.546 143.054 601.997 142.992 606.357 143.038C608.491 143.054 610.609 143.069 612.743 143.054C614.923 143.054 617.225 143.176 619.39 142.931C620.48 142.808 620.602 140.628 619.42 140.536Z" fill="#D73532"/>
<path d="M655.003 142.01C654.297 141.365 653.146 141.565 652.179 141.565C650.966 141.565 649.769 141.565 648.556 141.55C646.131 141.55 643.721 141.519 641.31 141.519C636.582 141.504 631.793 141.335 627.065 141.55C626.159 141.596 626.589 143.315 627.403 143.376C631.916 143.683 636.49 143.637 641.019 143.729C643.291 143.776 645.563 143.806 647.819 143.852C648.878 143.868 649.938 143.883 650.997 143.914C651.595 143.914 652.209 143.929 652.808 143.944C652.931 143.944 653.468 143.929 653.837 143.929C653.929 144.006 654.021 144.083 654.144 144.129C654.604 144.328 655.08 144.297 655.356 143.929C655.802 143.33 655.525 142.547 654.988 142.041" fill="#D73532"/>
<path d="M586.186 141.826C586.339 141.38 586.278 140.874 585.863 140.536C585.434 140.183 584.512 140.321 583.945 140.306C583.162 140.29 582.379 140.275 581.596 140.244C580.138 140.214 578.664 140.168 577.205 140.137C574.181 140.06 561.855 139.922 558.815 139.999C557.894 140.03 557.388 141.933 558.401 142.025C561.241 142.255 573.398 142.394 576.254 142.486C577.666 142.532 579.078 142.578 580.475 142.608C581.166 142.624 581.841 142.655 582.517 142.67C582.901 142.67 583.3 142.701 583.684 142.701C583.806 142.701 584.175 142.685 584.405 142.685C584.436 142.701 584.436 142.731 584.466 142.762C584.482 142.762 584.497 142.793 584.512 142.793C584.727 142.946 585.034 142.9 585.265 142.823C585.771 142.639 586.017 142.209 586.14 141.81" fill="#D73532"/>
<path d="M690.203 142.01C689.635 141.887 689.021 141.918 688.453 141.903C687.885 141.903 687.317 141.887 686.749 141.872C685.582 141.872 671.398 141.795 670.231 141.841C667.929 141.903 665.626 142.071 663.339 142.286C662.326 142.378 662.602 144.236 663.615 144.174C665.887 144.052 668.174 144.006 670.446 143.99C671.551 143.99 685.674 144.082 686.779 144.098C687.347 144.098 687.915 144.113 688.483 144.144C689.067 144.159 689.696 144.236 690.279 144.159C691.354 144.006 691.139 142.225 690.187 142.01" fill="#D73532"/>
<path d="M478.3 138.664C476.228 138.495 474.017 138.71 471.914 138.725C469.719 138.756 467.524 138.756 465.329 138.756C461 138.756 456.64 138.556 452.327 138.832C451.39 138.894 451.114 140.506 452.112 140.644C456.425 141.181 460.877 141.12 465.237 141.166C467.37 141.181 469.489 141.196 471.623 141.181C473.802 141.181 476.105 141.304 478.27 141.058C479.36 140.935 479.482 138.756 478.3 138.664Z" fill="#D73532"/>
<path d="M513.898 140.137C513.192 139.492 512.041 139.692 511.074 139.692C509.861 139.692 508.664 139.692 507.451 139.677C505.026 139.677 502.616 139.646 500.205 139.646C495.477 139.631 490.688 139.462 485.96 139.677C485.054 139.723 485.484 141.442 486.298 141.503C490.811 141.81 495.385 141.764 499.914 141.841C502.186 141.887 504.458 141.918 506.714 141.964C507.773 141.979 508.833 141.995 509.892 142.025C510.491 142.025 511.105 142.041 511.703 142.056C511.826 142.056 512.363 142.041 512.732 142.041C512.824 142.117 512.916 142.194 513.039 142.24C513.499 142.44 513.975 142.409 514.251 142.041C514.697 141.442 514.42 140.659 513.883 140.152" fill="#D73532"/>
<path d="M549.083 140.122C548.515 139.999 547.901 140.03 547.333 140.014C546.765 140.014 546.197 139.999 545.629 139.984C544.462 139.984 530.278 139.922 529.112 139.953C526.809 140.014 524.506 140.183 522.219 140.398C521.206 140.49 521.482 142.348 522.495 142.286C524.767 142.163 527.055 142.117 529.327 142.102C530.432 142.102 544.555 142.194 545.66 142.21C546.228 142.21 546.796 142.225 547.364 142.256C547.947 142.271 548.576 142.348 549.16 142.271C550.234 142.117 550.019 140.337 549.068 140.122" fill="#D73532"/>
<path d="M374.391 137.097C372.319 136.913 370.093 137.097 368.005 137.113C365.81 137.113 363.615 137.113 361.42 137.113C357.091 137.082 352.731 136.852 348.417 137.113C347.481 137.174 347.189 138.786 348.187 138.909C352.501 139.477 356.952 139.446 361.312 139.523C363.446 139.553 365.564 139.584 367.698 139.584C369.878 139.584 372.18 139.738 374.345 139.507C375.435 139.385 375.573 137.22 374.391 137.113" fill="#D73532"/>
<path d="M409.974 138.817C409.283 138.157 408.132 138.356 407.149 138.341C405.937 138.341 404.739 138.31 403.527 138.295C401.117 138.264 398.691 138.234 396.281 138.203C391.553 138.142 386.764 137.957 382.036 138.142C381.13 138.172 381.544 139.907 382.358 139.968C386.871 140.306 391.446 140.291 395.974 140.413C398.246 140.475 400.503 140.521 402.774 140.582C403.834 140.613 404.893 140.628 405.952 140.659C406.551 140.659 407.165 140.69 407.764 140.705C407.886 140.705 408.424 140.69 408.792 140.69C408.884 140.767 408.976 140.843 409.099 140.889C409.56 141.089 410.02 141.058 410.312 140.69C410.772 140.091 410.496 139.308 409.974 138.802" fill="#D73532"/>
<path d="M341.141 138.157C341.294 137.712 341.248 137.205 340.834 136.868C340.404 136.514 339.483 136.637 338.915 136.622C338.132 136.591 337.349 136.576 336.566 136.545C335.108 136.499 333.634 136.453 332.176 136.407C329.152 136.315 316.825 136.1 313.801 136.146C312.88 136.161 312.358 138.08 313.371 138.157C316.211 138.403 328.369 138.633 331.224 138.74C332.637 138.802 334.049 138.848 335.446 138.894C336.136 138.925 336.812 138.94 337.487 138.971C337.871 138.971 338.27 139.001 338.654 139.017C338.777 139.017 339.145 139.001 339.376 139.017C339.406 139.032 339.406 139.063 339.437 139.093C339.452 139.093 339.468 139.124 339.483 139.124C339.698 139.278 340.005 139.247 340.235 139.155C340.742 138.986 340.987 138.541 341.125 138.142" fill="#D73532"/>
<path d="M445.158 139.062C444.59 138.94 443.991 138.955 443.408 138.94C442.84 138.924 442.272 138.909 441.704 138.894C440.537 138.878 426.353 138.725 425.186 138.74C422.884 138.786 420.581 138.94 418.294 139.139C417.281 139.216 417.526 141.073 418.555 141.027C420.827 140.92 423.114 140.889 425.401 140.905C426.506 140.905 440.629 141.104 441.734 141.135C442.302 141.135 442.87 141.166 443.438 141.181C444.022 141.196 444.651 141.288 445.234 141.212C446.324 141.073 446.125 139.277 445.173 139.062" fill="#D73532"/>
<path d="M98.9361 136.007C96.8484 136.146 94.6532 135.885 92.5501 135.823C90.355 135.762 88.1598 135.7 85.9646 135.654C81.6357 135.562 77.2607 135.685 72.9625 135.317C72.0261 135.24 71.7805 133.613 72.7783 133.505C77.1072 133.045 81.559 133.198 85.9186 133.244C88.0524 133.26 90.1708 133.306 92.3045 133.352C94.4843 133.398 96.787 133.321 98.9514 133.613C100.041 133.766 100.118 135.931 98.9514 136.007" fill="#D73532"/>
<path d="M134.55 135.225C133.843 135.854 132.692 135.639 131.725 135.624C130.512 135.609 129.315 135.593 128.102 135.578C125.692 135.547 123.267 135.501 120.857 135.471C116.129 135.394 111.339 135.471 106.611 135.148C105.705 135.087 106.166 133.383 106.98 133.337C111.493 133.122 116.083 133.245 120.596 133.26C122.868 133.26 125.14 133.26 127.396 133.26C128.455 133.26 129.515 133.26 130.574 133.26C131.172 133.26 131.786 133.26 132.385 133.26C132.508 133.26 133.045 133.291 133.414 133.306C133.506 133.229 133.613 133.153 133.721 133.107C134.181 132.907 134.657 132.953 134.933 133.337C135.379 133.935 135.087 134.734 134.534 135.21" fill="#D73532"/>
<path d="M65.7323 134.058C65.8858 134.503 65.809 135.01 65.3792 135.348C64.934 135.685 64.013 135.532 63.4604 135.532C62.6775 135.532 61.8946 135.532 61.1117 135.532C59.6534 135.532 58.1797 135.532 56.7214 135.547C53.6973 135.547 41.3706 135.455 38.3311 135.317C37.4101 135.271 36.9342 133.352 37.9473 133.291C40.8026 133.122 52.9451 133.214 55.8157 133.183C57.2279 133.168 58.6402 133.152 60.0371 133.137H62.0788C62.4626 133.106 62.8617 133.106 63.2455 133.106C63.3529 133.106 63.7367 133.137 63.9669 133.137C63.9976 133.122 63.9976 133.091 64.0283 133.076C64.0437 133.076 64.059 133.045 64.0744 133.045C64.2893 132.891 64.5963 132.938 64.8266 133.03C65.3178 133.214 65.5634 133.659 65.6862 134.058" fill="#D73532"/>
<path d="M169.734 135.931C169.166 136.038 168.552 136.007 167.984 136.007C167.416 136.007 166.848 136.007 166.28 136.007C165.113 136.007 150.929 135.777 149.763 135.716C147.46 135.608 145.157 135.393 142.87 135.148C141.872 135.04 142.164 133.183 143.177 133.26C145.449 133.428 147.736 133.521 150.008 133.567C151.113 133.597 165.236 133.782 166.341 133.782C166.909 133.782 167.477 133.782 168.045 133.782C168.613 133.782 169.273 133.705 169.841 133.797C170.916 133.966 170.67 135.746 169.719 135.946" fill="#D73532"/>
<path d="M236.633 137.666C234.545 137.789 232.35 137.512 230.262 137.436C228.067 137.359 225.872 137.282 223.677 137.221C219.363 137.098 214.973 137.19 210.675 136.791C209.738 136.699 209.508 135.087 210.506 134.98C214.835 134.55 219.287 134.734 223.646 134.811C225.78 134.841 227.898 134.903 230.032 134.964C232.212 135.026 234.515 134.964 236.664 135.271C237.754 135.425 237.815 137.605 236.633 137.666Z" fill="#D73532"/>
<path d="M272.247 137.128C271.525 137.758 270.389 137.528 269.407 137.497L265.784 137.42L258.538 137.267C253.81 137.159 249.021 137.19 244.308 136.852C243.403 136.791 243.878 135.071 244.692 135.041C249.205 134.857 253.795 135.025 258.308 135.056C260.58 135.071 262.852 135.102 265.109 135.118C266.168 135.118 267.227 135.133 268.286 135.148C268.885 135.148 269.499 135.148 270.098 135.148C270.22 135.148 270.758 135.194 271.126 135.194C271.218 135.118 271.326 135.041 271.433 134.995C271.894 134.795 272.369 134.841 272.646 135.225C273.076 135.839 272.784 136.622 272.231 137.098" fill="#D73532"/>
<path d="M203.444 135.486C203.582 135.931 203.505 136.438 203.091 136.776C202.646 137.113 201.725 136.96 201.172 136.944C200.389 136.944 199.606 136.944 198.823 136.944C197.365 136.944 195.891 136.944 194.433 136.944C191.409 136.944 179.067 136.745 176.058 136.591C175.137 136.545 174.692 134.611 175.705 134.565C178.56 134.412 190.718 134.596 193.573 134.565C194.986 134.565 196.398 134.565 197.81 134.55C198.486 134.55 199.177 134.55 199.852 134.55C200.236 134.55 200.635 134.55 201.019 134.55C201.126 134.55 201.51 134.58 201.74 134.58C201.771 134.565 201.771 134.534 201.801 134.519C201.817 134.519 201.832 134.488 201.848 134.488C202.062 134.335 202.369 134.396 202.6 134.488C203.091 134.672 203.321 135.133 203.459 135.532" fill="#D73532"/>
<path d="M307.431 138.08C306.863 138.188 306.249 138.142 305.681 138.142C305.113 138.142 304.545 138.142 303.977 138.126C302.81 138.111 288.626 137.789 287.475 137.727C285.172 137.604 282.885 137.374 280.597 137.098C279.6 136.975 279.907 135.133 280.92 135.225C283.192 135.409 285.464 135.517 287.751 135.593C288.856 135.624 302.979 135.9 304.084 135.916C304.652 135.916 305.22 135.916 305.788 135.916C306.371 135.916 307.016 135.854 307.584 135.947C308.659 136.131 308.398 137.911 307.446 138.08" fill="#D73532"/>
<path d="M562.453 40.5412C563.589 34.6312 564.572 28.7211 565.754 22.8111C567.028 16.4405 568.44 10.0852 569.883 3.73001C570.604 0.552397 566.275 -0.384001 565.385 2.77826C563.528 9.287 561.87 15.8571 560.381 22.4426C558.953 28.7365 557.526 35.1377 556.604 41.4469C555.96 45.8526 561.716 44.3636 562.468 40.5412" fill="#0B0E0E"/>
</svg>
