<svg version="1.2" xmlns="http://www.w3.org/2000/svg" viewBox="0 0 761 98" width="761" height="98">
	<title>barra_top_slide9-svg</title>
	<style>
		.s0 { fill: #ffffff } 
		.s1 { fill: #d73532 } 
	</style>
	<path id="Layer" fill-rule="evenodd" class="s0" d="m787.8 725.1c-0.5 10.3-0.8 21.3 0.2 27.2-0.2 3.9-0.3-0.3-0.7-0.1-0.6-1-0.1 9.1-0.7 8.8v2.1c0.3 0.2 0.9-0.7 0.5 5.4-0.3 0.4-0.4-0.7-0.6-1.7v3.9c0.1 0.3 0.4 0.3 0.6 0.5-0.7 15.4 0.3 31.3-1.1 34.7v1.9c0.1 0.4 0.4-2.3 0.8-1.4-0.7 9.8-0.7 23.6-0.4 29.8-0.1 2.6-0.5 2-0.7 2.6 0.3 4.9 0.2 16.9 0.2 24.5 0-0.3-0.1 5.9-0.1 5.9-0.1 2-0.3 1.7-0.6 2.1-0.3 4.1 0.9 4.6 0.9 5.6 0 3.5-0.6 1-0.7 2.6-0.2 3.1 0.3 1.8 0.3 2.7 0 3.1-0.4 1.9-0.4 2.7-0.2 9.1 0.2 22-0.2 29.9-0.4-1.1 0.4-4.8-0.2-5.5-0.4 3.6 0.7 28.3-0.6 37.9 0 5.4 0.9 3.6 0.5 10.9-0.3-0.1-0.6 0.9-0.8 1.9l-0.1 2.2c0.9 11.2 0.5 26.2-0.4 36.4 0.2 4.2 0.4 0.3 0.4-2.6 0.9 1 0.5 9.5-0.4 8.1 0.6 6.2 0.5 16.4 0.2 24.4 0 0-0.1-0.8-0.2-1.6-0.2-0.7-0.3-1.4-0.4-1.2 0.1-0.1 0.2 12.6 0.3 5.9-0.2 14 0 21.2-0.4 45.7-0.3-0.5-0.3-2.4-0.6-2.8v5.7c0.3 1.3 0.4 1.8 0.7 8-0.2 3.7-0.3-0.6-0.8-0.3l-0.1 5.6q0 0.7 0.1 1.3c0.1 0.9 0.2 1.5 0.2 1.4 0.1 0 0.2-1 0.2-2.7 0.3 0.6 0.2 3 0 4.3-1.1-0.1-1.9-0.3-2.2-0.4q-2.7 0.3-6.4 0.4c-2.5 0-5.4 0-8.4-0.1-5.9-0.1-12.5-0.3-18.1-0.5-7.8-0.1-20 0.3-21.8-0.6-5.8 0.1-15 0.8-16.3-0.3-2.6 0.2-4.3 0.5-5.7 0.9-0.9-0.8-10.8-0.6-13.5-1.2-3.4 0-2.8 0.6-0.1 0.6-1.7 0.4-12.6-0.2-17.1-0.8l-3.4-0.1c0.9 0.2 1.9 0.4-1.3 0.6-23.3-0.7-43-0.9-60.1-0.9l0.1-0.5h-1.8c-2.7 0.1-5.5 0-8-0.1l-5.3-0.1q-0.7 0-1.3 0.1c1.4 0.7 4.3-0.3 8.1 0.4-13 0.4-30.2-0.4-49.1-0.7q0.2-0.2 1.1-0.4h-4.4c-3.8 0.2-7.9 0.2-10.3-0.2h-0.1c-3.3 0.1-5.6 0.3-5.5 0.9-8.5-2-23.2-0.2-43.7-1 0.7-0.4 7.3 0 8.2-0.4l-16.1-0.2c1.7 0.1 3.4 0.2 5.2 0.2-15.3 0.7-26.3-0.3-38.3 0.1-1.5-0.3-5.1-0.4-5.4-0.8l-1.8-0.1c-1.6 0.2-2.7 0.5-3.7 0.7-11.4-1-16.7-0.7-30.1-0.4-1.5-0.3-3.8-0.5-5.5-0.8l-5.4-0.1c-12.1 0.6-24.1 0-32.7-0.2-6.2-0.1-9.4 0.1-17.4-0.5h-0.5c8.5 0.9-4.9 0.5-11.5-0.1l-4.7-0.1c-6.8 0.6-15.2-0.4-26 0.1-0.8-0.2-1.3-0.3-1.5-0.3 0.2-0.1 0.1-0.1 0-0.2h-0.1c-0.1 0.1 0 0.1 0.1 0.2-0.3 0.1-1.8 0.2-6.7 0.2-2.2 0-9.4-0.9-11 0.2-9.4-1.1-16.1-0.4-21.7-0.7 0.6-0.1 1.6-0.2 2.8-0.3l-6.6-0.1q0.5 0.1 1.1 0.1c-10.1 0.4-14.3-0.4-27.4-0.1 0.3-0.2 1-0.2 1.7-0.3l-3.2-0.1c-1.1 0.4-1.3 0.8-6.7 0.5 8.6-0.8-20.4-0.3-21.9-0.3 0.4-1.1-9.9 0.2-21.7-0.7q0.2-0.1 0.7-0.1l-8.7-0.1c-0.1 0.1-0.1 0.3-0.3 0.4-3-0.7-17.9-0.2-23.1-0.8h-1.8c-2.8 0.8-13.3-0.7-18.8 0.1-1.1-0.1-2-0.2-2.9-0.4h-2.6c0.3 0.1 0.4 0.2 0.1 0.4-2.1 0-6.5-0.3-10.9-0.6l-9.6-0.1q-0.9 0.1-1.4 0.4c-1.5-0.2-2.5-0.3-3.5-0.4l-25.2-0.4c-0.7 0.1-1.3 0.1-1.3 0.3-3.9-0.2-7.5-0.3-10.8-0.4l-21.6-0.3c-5 0-9.5 0-14 0-1.6-0.1-1.9-0.1-1.7-0.2l-19.2-0.3c-5.8 0-12.4 0-20.1-0.2q0.2 0 0.3 0l-2.9-0.1q0 0.1-0.1 0.1-0.2-0.1-0.5-0.1l-10-0.1c-0.1 0-0.3 0-0.4 0-1.1 0-1.9 0-2.4-0.1h-0.9l0.2-13.6c-0.2-6-0.2-14.7 0.3-21.6v-5.1c-0.3-0.6-0.1-3.6 0.1-4.8v-1.8c-0.1-1.9-0.5-4.1-0.5-4.3 0.1-2.4 0.4-3.3 0.6-4.3l0.1-7.1c0-6-0.1-14.8 0.3-19.8v-1.1c-0.1 0.6-0.3 0.7-0.5-0.2 0.4-23.5 1.4-42.5 0.8-73.1q0.4 0 0.7 0.1v-0.1c-0.9-4.2-0.2-4.5 0.1-7.7v-1.5c-0.1-0.8-0.3-0.9-0.3 1 0-15.1 0.4-22.6 0.2-32.5 0.1-1.7 0.4-2.3 0.6-3.8v-4.3c-0.7-1 0-7.7-0.2-16.2 0.2 0.4 0.2 2 0.4 2.6l0.1-5c-0.2-1.3-0.6-1.3-0.8-3.1 0.9-12.9 1.1-23 0.6-35.2 0.1-2.5 0.4-2.4 0.7-2.4l0.1-4c-0.4-10.1 0-24.3-0.3-31.5 0.2-2.6 0.4-4.4 0.8-5.1v-4c-0.4-6.7-0.4-15.5 0.3-20.9l0.1-6.8c-0.4-8-0.3-20.9 0.3-26.9l0.1-3.1c-0.1-0.5-0.3-0.5-0.5-0.9 0.6-8.2 0.5-19.6 0.1-27.2 0.2-3.9 0.3 0.4 0.6 0.2 0-13.3 0-17.6 0.5-29.8 0-3.1-0.3-1.6-0.3-0.1-0.5-1 0.3-4.7-0.2-5.5 0.1-3.2 0.3-0.4 0.6 0.2l0.1-2.9c-0.4-1.6-0.9-1.9-0.6-8.1 0.3 0.6 0.3 2.8 0.6 2.8 0.1-15-0.4-27.8 0.6-41.8v-2c-0.9-5.7-0.7-22.1 0.4-28.5v-2.6c0 0-0.1 0.6-0.2 1.3 0.2-6.7-0.6-24 0.5-29.3-0.7-11.7-0.3-13.7 0.4-27.1-0.3 0-0.3 3.3-0.4 5.3-0.9-13.1 1-27.4 0.2-35.2 0.2-2.4 0.4-4.7 0.8-5.3v-0.8c-0.1-1.8-0.4-1.5-0.6-2 1.3-11.5-0.1-18.8 0.5-35.2 0.2 1.7 0.3 3.7 0.5 4.7v-2.8c-0.1-0.3-0.1-0.9-0.2-1.9 0.1-3.3 0.3-6.3 0.3-9l0.2-9c-0.1-3.2-0.2-6.2-0.4-9.1 0-8.6 0.9-11-0.1-13.6 0-2.7 0.4-2 0.7-2.6-0.7-17.7 0.3-35.8 0.6-59.6-0.5-1.8 0.1-10.5-0.5-11 0.2-3.9 0.4 1 0.9 0.2v-0.5c-0.4-9.6-0.3-16.3-0.2-24-0.2 1.3-0.4-2.1-0.3-2.8 0.1-1 0.3 0.5 0.3 1.6 0.1-3 0.1-6.1 0.2-9.7 0 0.9 0.3 1.7 0.5 2.3v-0.8c-0.2-1.7-0.5-2.9-0.5-4.2-0.2-8.3 0.9-28.2 0.6-40.6 0.2-0.5 0.4-0.7 0.5-0.9v-3.9q-0.1 1.1-0.1 2.1c-1.2-2.7 1.1-19.5-0.4-16.3 0.4-3.3 0.5-8.5 0.9-11.6v-4.5c-0.2-1.4-0.4-1 0.1-5.5 0-3-0.3-1.6-0.3-0.1 0.5-39.6 0.6-69.5 1.6-108.3-0.9-5.9 0-11.2-0.3-21.7 0.4-0.5 0.6-1 0.8-1.5v-3.6q-0.3 0.2-0.7-0.3c0.6-17.2 0.1-29.6 1.2-38.1l0.1-3.5c-0.2 0.8-0.3 2.3-0.4 3.7-0.6-7.9 0.1-26.7 0.8-34v-2.8c-0.1-0.8-0.3-0.7-0.5-1.2q0.1-5.4 0.2-10.8c0.3-0.1 0.4 0.1 0.5 0.5v-2.4c-0.1-0.6-0.3-1-0.5-1.2 0-0.4 0-0.7 0-1 4 0.1 7.5 0.2 10.6 0.2 3 0.1 5.6 0.1 8.1 0.1 4.9 0.1 9.1 0.2 13.6 0.5 2.7 0 2.2-0.3 2.9-0.6 31.2 1.5 42.7 0.4 73.6 1.5-0.2 0.1-0.8 0.1-1.4 0.2l5 0.1c-0.6-0.2-1.3-0.4-0.8-0.6 5.4 0.2 13.6 0.8 16.5-0.1 6.8 1 20.4 1 35.4 0.9-0.4 0.2-0.4 0.4-0.2 0.5h3c1.2-0.1 2.3-0.1 2.7 0l2.4 0.1c0.1-0.2 0.1-0.3 0.3-0.5 4.5-0.3 6.5 0.3 7.4 0.6h2.8c0.2-0.2-0.2-0.4 0.7-0.4 0.9 0 5.5 0.4 8.1 0.4 3.9 0.1 4.3-0.2 5.5-0.2 2.2 0 2.7 0.4 5.5 0.4-0.9 0 8-0.4 10.9 0.2 2.6 0 2.2-0.4 2.8-0.6 2.4 0.1 2.4 0.4 2.5 0.7l13.7 0.2c1.4-0.1 2.4-0.3 2.9-0.6 7.7 0.5 14.1 0.2 21.8 0.3 3.4 0.1 1.3 0.4 2.2 0.6l6.5 0.1c4.1-0.2 8.3-0.6 13.2-0.4-1 0.2-1.9 0.4-2.4 0.6h2.7c4.3-0.4 10.8-0.7 16 0 3.7 0 5.4-1.2 5.5 0.1 6.2-0.1 21.2 0.9 19.2-0.3 6 0.8 10.7 0 19.1 0.2 0.9 1.6 1.1-0.3 8.2 0.2l-0.1 0.7h1.8q5.4-0.5 14.7-0.5c-11.2 1.1 4.4 0 13.7 0.2 0.1 0.2-0.1 0.5-0.3 0.7h5.6c-1.4-0.1 2.1-0.3 2.8-0.2 1 0.1-0.5 0.2-1.7 0.3h6.1c1.1-0.1 1.7-0.2 1.1-0.6 1.2 0.4 3.9 0.5 5.9 0.7l11.3 0.2q4.8-0.2 10.1-0.4c41.3 1 85 1 136.5 2.1 2.2-0.1 4.5-0.3 8.3-0.2-3.9 0.4-5 0.3-3.6 0.5l6.4 0.1c0.6-0.3 0.3-0.8 2.7-0.9q5.2 0.5 8.6 1l3.1 0.1c6.4-0.6 13.7-0.3 20.9 0.1 3.1 0 1.6-0.3 0.1-0.3 9.1-0.7 30.2 1 38.3-0.1-1.6 1.2 10.9 0 13.5 1.2 8 0.2 10.4-1.1 13.7 0.2 3.3-0.1 5.6-0.3 5.6-0.9 7 0.1 13.2 0.7 14.6 1.2l5.5 0.1c-0.8-0.2-1.4-0.4-1.1-0.7 2.4 0.2 4.7 0.4 5.3 0.7h0.3c5.3-0.6 4.3-0.2 13.6-0.4 4.7 0.2 8.5 0.4 10.4 0.8l9.5 0.1c15.2-0.1 28.4-0.8 40.1 0.4 7-0.5 10.5 0.6 11-0.5 1.9 0.7 5.1 0.7 7.5 0.9l7.3 0.1c2.2-0.3 4.3-0.5 6.1 0l2.2 0.1c-0.5-0.2-1.9-0.4-1.2-0.7 2.1 0.2 4.5 0.3 6.9 0.3 2.7 0 5.3-0.1 7.7-0.1 0 4.2-0.1 6.7-0.7 8.3 0.7 11.5 0 28.8-0.4 43.4 0 1.9 0.7 9.2-0.3 8.2v0.6c0.5 4.8 0.5 16.3-0.3 22.5l-0.1 2.9c0.1 0 0.2-0.8 0.2-1.6-0.1 9.7 0.5 41-0.7 45.9 1.1 4-0.6 22.3 0.1 32.6-0.4-0.1-0.4-2.8-0.6-4.6v3.9q0.3 2.9 0.5 6.1c0.5 4.6-0.2 2-0.6-0.5v5.1c0.2 2.6 0.4 5.1 0.1 11.6q-0.2 0.1-0.3 0v3.1c0.1 0 0.1-0.1 0.2-0.4-0.1 5.7-0.1 16.2-0.4 15.9l-0.1 2.5c0.2 0.8 0.5 1 0.9 0.7-0.3 2.5-0.6 4-0.9 5.6l-0.1 4.6c0.1-0.3 0.2-1.1 0.2-2.2 0.6 6.4-0.5 17.7 0 21.8-0.1 3.2-0.2 0.8-0.5 0v4c0 6.6-0.1 17.5 0.3 12.2 0.7 2.2-0.1 3.5-0.5 5.7l-0.1 2.1c0.7 0.2-0.4 10.9 0.6 11.2-0.2 2.6-0.5 3.5-0.8 4.4l-0.2 17.1c0.2 0.1 0.5-0.1 0.7 0.2 0 5.7-0.4 7.1-0.5 10.8-0.1 12.1 0 19.7-0.2 32.5-0.1 3.8-0.5 11.1-0.5 10.8 0 2.2 0.5 5 0.5 5.5 0 3.5-0.7 4.3-0.7 8-0.2 6.7 0.8 17.3-0.4 21.7 0.2 10.6-0.1 25.3 0.1 35.3-1.1-2.5-0.4 7-0.1 8.1-0.2 5.3-0.4 2.6-0.7 0.7l-0.1 3.4c0.4 1.9 0.8 3.7 0.6 9.5-0.8-0.5-0.6 3.2-0.1 2.7 0.1 4.4-0.4 4.6-0.4 8-0.1 7.7 0.3 15.2 0 19 0 0.6-0.5 2-0.6 2.5v1.3c0.1 2.7 1.1 3.5-0.1 4.2v0.5q0.4 4 0.8 7.9c-0.3 3.3-0.9 8-0.8 10.7 0 1.3 0.5 5.7 0.5 5.5-0.1 7.6-0.9 16.7-0.4 27.1-1 0.3 0 8.8-0.3 18.9-1.3 6.5 0 22.4-0.8 29.8 0 2.6 0.4 2.2 0.6 2.8q-0.3 4.3-1 5.1l-0.1 3.1c0.1-0.3 0.2-0.4 0.4-0.2 0.2 7.7-0.4 21.9-0.4 24.4 0 2.6 0.3 2.2 0.6 2.8-0.7 1.7-1.2 12.1-0.2 13.5-0.3 7.6-0.4-3.4-0.9-2.9v4.8c0.1 2.8 0.7 2.9 0.4 8.9-0.1-0.6-0.3-1-0.5-1.4l-0.1 3.2c0.2 0.6 0.3 1.1 0.6 0.9-0.1 2.4-0.3 2.9-0.6 3.1l-0.1 4.4c0.1 0.1 0.2 0.2 0.2 0.6 0.1 0.3-0.9 9.6 0.6 5.5-0.1 2.7-0.4 2.1-0.7 2.6 0.3 9.7 0.4 5.5 0.4 16.4-0.3-0.6-0.3-2.8-0.6-2.8 0.3 9.9-0.7 14.4 0.3 19 0 4.8-1.1 13.4-0.2 16.3-1.1 2.8-0.5 14.2-1 18.8 0 2.7 0.4 2.2 0.6 2.8m3.2-227.5q0 0 0 0 0 0 0 0zm4.9-417.3q0 0.1 0 0.1 0 0 0-0.1zm-433.8-89.3q0 0 0.1 0l-0.1-0.1q0 0.1 0 0.1zm-384.7 220.7q0-0.1 0-0.1 0 0 0 0.1zm-4.7 363.1q0-0.3 0-0.5 0 0.2 0 0.5zm-4.7 346.7q0-0.1 0-0.1 0 0 0 0.1zm427.4 170.6q-0.2 0-0.3 0h0.2q0.1 0 0.1 0zm388.1-60.8q0 0.2 0 0.4 0-0.2 0-0.4zm-0.3-5.5q0 0 0 0 0 0 0 0zm2.8-162.4q0 0 0 0 0 0 0 0zm10.4-866.7q0.2 0 0.5 0c-0.1 1.1 0.1 3.5 0.3 2.2 0-0.4 0-1.7-0.1-2.4-0.8 0-1.3 0.1-0.7 0.2zm-9.9 796.1q0-0.1 0-0.1 0 0 0 0.1zm-0.1-0.1c0-1.1-0.1-2.2-0.1-3.6l-0.1 2.6c0.1 0.4 0.2 0.8 0.2 1zm-0.1 8.2c0.1-0.6 0-2.9-0.1-3.1l-0.1 2.9c0.1 0.5 0.1 0.7 0.2 0.2zm-0.9 56.8c0.1-0.4 0.1-1.6 0-2.4v2.7q0 0.1 0-0.3zm-1.7 128.5c0.3 0 0.8-14 0.1-8.4l-0.1 1.8c0.1 0.1 0.2 0.1 0.2 0.1 0 0.5-0.1 1.4-0.2 2.3v4.2zm0.2-6.5q0 0 0 0 0 0 0 0zm-1.1 92.1c0.1-0.6-0.1-3.4-0.2-3l-0.1 2.3c0.1 0.8 0.2 1.4 0.3 0.7zm9.5-735.4v1.4c0.4 1.7 0.3 0.2 0-1.4zm-0.7 63.5c0.1-0.5 0-2-0.1-2.7v3c0 0.1 0 0 0.1-0.3zm-1 84c0.1-0.7 0-3.4-0.2-3.1v2.5c0 0.8 0.1 1.3 0.2 0.6zm-0.9 51.4l-0.1 3c0.1 0.1 0.1 0.1 0.2-0.2 0-0.5 0-2.2-0.1-2.8zm-1.7 127.7l-0.1 1.9c0.1-0.5 0.2-1.3 0.1-1.9zm-32.1 434c-0.7-0.1-4.2 0.1-2.8 0.2 0.8 0.1 4.2 0 2.8-0.2zm-62.5-1101.6c-1.5-0.3-2.5-0.2-2.9-0.1zm-39.1-0.5c0.3-0.1 5.1-0.3 2.9-0.6-0.7-0.1-2.9 0.2-4.2 0.6 0 0 1.3 0 1.3 0zm-26.5 1100.3h-3c-0.4 0-0.5 0.1 0 0.2 0.5 0.1 2.7 0 3-0.2zm2-1101c-0.7-0.1-4.2 0.1-2.8 0.3 0.8 0 4.2-0.1 2.8-0.3zm-19.8 0.1q0.4 0 0.6-0.1c-3.5 0-9.3-0.3-11 0l10.4 0.1zm-26.2 1100.4q0 0 0.1 0 0 0 0 0zm0 0c0.5 0.4 3 0.3 5.4 0.1q0 0-0.2-0.1l-4.9-0.1c-0.2 0.1-0.3 0.1-0.3 0.1zm13.3-1100.6c0.2-0.1 0.2-0.1-0.2-0.1-0.5-0.1-2.2 0-2.8 0.1h3zm-95.3 1099.4h-0.6c-2.7 0.3-1.2 0.2 0.6 0zm-6-1100.8c-0.6 0-1.2 0-1.6 0.1h1.6c0 0 0-0.1 0-0.1zm-27.9 1100.4c0.1 0 0.3 0 0.4 0-0.1 0-0.1 0-0.1 0zm0.5 0q-0.1 0-0.1 0 0 0 0.1 0zm11.6-1100.5h2.5q0 0-0.3-0.1c-0.4 0-1.5 0-2.2 0zm-16.4 1100.5l-7.2-0.1c1.9 0.3 4.6 0.2 7.2 0.1zm-0.4-1100.7l2.9 0.1q0.1-0.1-0.3-0.1c-0.4-0.1-1.8-0.1-2.6 0zm-148.6-2c-1-0.1-2.4-0.1-3.4 0zm-20.3 1100.4h-1.7q0.5 0.1 1.6 0.1c0 0 0.1-0.1 0.1-0.1zm11.4-1100.5h0.4c1.1-0.2 0.6-0.1-0.4 0zm-25.2 1100.3h-0.5q0.2 0.1 0.6 0.1c4.4 0.5 2 0.2-0.1-0.1zm-216.2-1103.6c-0.2 0-0.8 0-1.4 0zm-14.4-0.1h1.7c-0.3 0-0.6 0-0.9 0q-0.5 0-0.8 0zm-69.3 5c-0.1 1.4-0.3 3.3-0.1 5.1zm-0.4 33.6c-0.1-0.9-0.2-1.5-0.3-0.8-0.1 0.7 0.1 3.6 0.2 3zm-0.3 26.4c-0.1 0.2-0.1 0.8 0 1.4zm807.3 697.6c0.1-0.7-0.1-4.1-0.3-2.8 0 0 0 0.1 0 0.1v1.1c0 1.2 0.1 2.6 0.3 1.6zm-66.4-696.4c7.2 0.1 13.2-5.7 13.3-12.9 0.1-7.3-5.7-13.2-13-13.3-7.2-0.1-13.2 5.7-13.3 12.9-0.1 7.3 5.7 13.2 13 13.3zm-96.7-1.3c7.3 0.1 13.2-5.7 13.3-12.9 0.1-7.3-5.7-13.2-12.9-13.3-7.3-0.1-13.2 5.7-13.3 12.9-0.1 7.3 5.7 13.2 12.9 13.3zm-96.6-1.3c7.2 0.1 13.2-5.7 13.3-12.9 0.1-7.3-5.7-13.2-13-13.3-7.2-0.1-13.2 5.7-13.3 12.9-0.1 7.3 5.7 13.2 13 13.3zm-96.6-1.3c7.2 0.1 13.2-5.6 13.3-12.9 0.1-7.3-5.7-13.2-13-13.3-7.2-0.1-13.2 5.7-13.3 12.9-0.1 7.3 5.7 13.3 13 13.3zm-96.7-1.2c7.3 0.1 13.2-5.7 13.3-13 0.1-7.2-5.7-13.2-12.9-13.3-7.3-0.1-13.2 5.7-13.3 13-0.1 7.2 5.7 13.2 12.9 13.3zm-96.6-1.3c7.2 0.1 13.2-5.7 13.3-13 0.1-7.2-5.7-13.2-13-13.3-7.2-0.1-13.2 5.7-13.3 13 0 7.2 5.7 13.2 13 13.3zm-96.6-1.3c7.2 0.1 13.2-5.7 13.3-13 0.1-7.2-5.7-13.2-13-13.3-7.2-0.1-13.2 5.7-13.3 13-0.1 7.2 5.7 13.2 13 13.3zm-96.7-1.3c7.3 0.1 13.2-5.7 13.3-13 0.1-7.2-5.7-13.2-12.9-13.3-7.3-0.1-13.2 5.7-13.3 13-0.1 7.2 5.7 13.2 12.9 13.3zm711.2-31.5h1.2c-0.2 0-0.7 0-1.2 0zm-52.9-0.7q0.1 0 0.2 0h-0.2zm0.2-0.1l2.8 0.1c0 0-0.1-0.1-0.3-0.1-0.5-0.1-1.8 0-2.5 0zm-97.8-1.3c-0.2 0-0.8 0-1.4 0zm-127-1.6q-0.9-0.1-2.3-0.1zm-321.5-4.2h1.6q0-0.1-0.1-0.1c-0.2 0-0.9 0-1.5 0zm636.3 297.9q0 0 0 0v-0.1c0 0 0 0 0 0.1"/>
	<path id="Layer" class="s1" d="m723.7 72.6c-2.1 0.2-4.3-0.1-6.4-0.2q-3.3 0-6.6-0.1c-4.3-0.1-8.7 0-13-0.4-0.9 0-1.2-1.7-0.2-1.8 4.4-0.4 8.8-0.3 13.2-0.2q3.2 0 6.4 0.1c2.2 0 4.5-0.1 6.6 0.2 1.1 0.2 1.2 2.4 0 2.4"/>
	<path id="Layer copy" class="s1" d="m723.7 72.6c-2.1 0.2-4.3-0.1-6.4-0.2q-3.3 0-6.6-0.1c-4.3-0.1-8.7 0-13-0.4-0.9 0-1.2-1.7-0.2-1.8 4.4-0.4 8.8-0.3 13.2-0.2q3.2 0 6.4 0.1c2.2 0 4.5-0.1 6.6 0.2 1.1 0.2 1.2 2.4 0 2.4"/>
	<path id="Layer" class="s1" d="m759.4 71.9c-0.8 0.6-1.9 0.4-2.9 0.4q-1.8-0.1-3.6-0.1-3.6 0-7.3-0.1c-4.7-0.1-9.5 0-14.2-0.3-0.9-0.1-0.5-1.8 0.4-1.8 4.5-0.2 9.1-0.1 13.6-0.1q3.4 0 6.8 0 1.6 0 3.2 0 0.9 0 1.8 0c0.1 0 0.6 0 1 0q0.2-0.1 0.3-0.2c0.5-0.2 1-0.1 1.2 0.3 0.5 0.6 0.2 1.4-0.4 1.8"/>
	<path id="Layer copy 2" class="s1" d="m759.4 71.9c-0.8 0.6-1.9 0.4-2.9 0.4q-1.8-0.1-3.6-0.1-3.6 0-7.3-0.1c-4.7-0.1-9.5 0-14.2-0.3-0.9-0.1-0.5-1.8 0.4-1.8 4.5-0.2 9.1-0.1 13.6-0.1q3.4 0 6.8 0 1.6 0 3.2 0 0.9 0 1.8 0c0.1 0 0.6 0 1 0q0.2-0.1 0.3-0.2c0.5-0.2 1-0.1 1.2 0.3 0.5 0.6 0.2 1.4-0.4 1.8"/>
	<path id="Layer" class="s1" d="m690.5 70.7c0.1 0.4 0 0.9-0.4 1.3-0.4 0.3-1.4 0.2-1.9 0.2q-1.2 0-2.4 0-2.2 0-4.4 0c-3 0-15.3-0.1-18.4-0.2-0.9-0.1-1.4-2-0.3-2.1 2.8-0.1 15 0 17.8-0.1q2.2 0 4.3 0h2q0.6-0.1 1.2-0.1c0.1 0 0.5 0.1 0.7 0.1 0 0 0-0.1 0.1-0.1q0 0 0 0c0.2-0.2 0.5-0.1 0.8 0 0.5 0.2 0.7 0.6 0.8 1"/>
	<path id="Layer" class="s1" d="m585.9 70.4c-2.1-0.2-4.3 0-6.4 0.1q-3.3 0-6.6 0c-4.3 0-8.7-0.2-13 0.1-0.9 0-1.2 1.6-0.2 1.8 4.3 0.5 8.8 0.4 13.1 0.5q3.2 0 6.4 0c2.2 0 4.5 0.1 6.7-0.1 1.1-0.1 1.2-2.3 0-2.4z"/>
	<path id="Layer" class="s1" d="m621.5 70.9c-0.7-0.7-1.8-0.5-2.8-0.5q-1.8 0-3.6 0c-2.5 0-4.9 0-7.3 0-4.7 0-9.5-0.2-14.2 0-0.9 0.1-0.5 1.8 0.3 1.8 4.5 0.3 9.1 0.3 13.6 0.4q3.4 0 6.8 0.1 1.6 0 3.2 0.1 0.9 0 1.8 0c0.1 0 0.7 0 1.1 0q0.1 0.1 0.3 0.2c0.4 0.2 0.9 0.2 1.2-0.2 0.4-0.6 0.1-1.4-0.4-1.9"/>
	<path id="Layer" class="s1" d="m552.6 71.7c0.2-0.5 0.1-1-0.3-1.3-0.4-0.4-1.3-0.2-1.9-0.2q-1.2-0.1-2.3-0.1-2.2-0.1-4.4-0.1c-3.1-0.1-15.4-0.2-18.4-0.1-1 0-1.5 1.9-0.5 2 2.9 0.2 15 0.4 17.9 0.4q2.1 0.1 4.2 0.2 1.1 0 2.1 0c0.4 0 0.8 0.1 1.1 0.1 0.2 0 0.5-0.1 0.8-0.1q0 0.1 0 0.1 0 0 0.1 0.1c0.2 0.1 0.5 0.1 0.7 0 0.5-0.2 0.8-0.6 0.9-1"/>
	<path id="Layer" class="s1" d="m656.7 69.9c-0.5-0.2-1.1-0.1-1.7-0.1q-0.9 0-1.7-0.1c-1.2 0-15.4 0-16.5 0q-3.5 0.1-6.9 0.4c-1.1 0.1-0.8 2 0.2 1.9q3.5-0.1 6.9-0.2c1.1 0 15.2 0.1 16.3 0.2q0.9 0 1.7 0c0.6 0 1.2 0.1 1.8 0 1.1-0.1 0.9-1.9-0.1-2.1"/>
	<path id="Layer" class="s1" d="m444.7 70.5c-2.1-0.2-4.3 0.1-6.4 0.1q-3.3 0-6.6 0c-4.3 0-8.7-0.2-13 0.1-1 0-1.2 1.7-0.2 1.8 4.3 0.5 8.7 0.5 13.1 0.5q3.2 0.1 6.4 0c2.2 0 4.5 0.2 6.6-0.1 1.1-0.1 1.3-2.3 0.1-2.4z"/>
	<path id="Layer" class="s1" d="m480.3 71c-0.7-0.7-1.9-0.5-2.8-0.5q-1.8 0.1-3.6 0c-2.5 0-4.9 0-7.3 0-4.7 0-9.5-0.2-14.3 0-0.9 0.1-0.4 1.8 0.4 1.9 4.5 0.3 9.1 0.2 13.6 0.3q3.4 0.1 6.8 0.1 1.6 0 3.2 0.1 0.9 0 1.8 0c0.1 0 0.7 0 1 0q0.2 0.1 0.3 0.2c0.5 0.2 1 0.2 1.3-0.2 0.4-0.6 0.1-1.4-0.4-1.9"/>
	<path id="Layer" class="s1" d="m515.5 71c-0.6-0.1-1.2-0.1-1.7-0.1q-0.9 0-1.7-0.1c-1.2 0-15.4 0-16.6 0-2.3 0.1-4.6 0.2-6.9 0.5-1 0-0.7 1.9 0.3 1.8q3.4-0.1 6.8-0.1c1.1 0 15.3 0.1 16.4 0.1q0.8 0 1.7 0c0.6 0 1.2 0.1 1.8 0 1.1-0.1 0.9-1.9-0.1-2.1"/>
	<path id="Layer" class="s1" d="m340.7 70c-2.1-0.2-4.3 0-6.4 0q-3.3 0-6.6 0c-4.3-0.1-8.7-0.3-13 0-0.9 0-1.2 1.6-0.2 1.8 4.3 0.5 8.7 0.5 13.1 0.6q3.2 0 6.4 0c2.2 0 4.5 0.2 6.6 0 1.1-0.2 1.3-2.3 0.1-2.4"/>
	<path id="Layer" class="s1" d="m376.3 70.7c-0.7-0.7-1.8-0.5-2.8-0.5q-1.8 0-3.7-0.1-3.6 0-7.2 0c-4.7-0.1-9.5-0.3-14.3-0.1-0.9 0-0.5 1.8 0.4 1.8 4.5 0.4 9.1 0.3 13.6 0.5q3.4 0.1 6.8 0.1 1.6 0.1 3.2 0.1 0.9 0 1.8 0.1c0.1 0 0.6-0.1 1-0.1q0.1 0.2 0.3 0.2c0.5 0.2 0.9 0.2 1.2-0.2 0.5-0.6 0.2-1.3-0.3-1.8"/>
	<path id="Layer" class="s1" d="m307.4 72c0.2-0.4 0.1-0.9-0.3-1.3-0.4-0.3-1.3-0.2-1.9-0.2q-1.2-0.1-2.4-0.1-2.2-0.1-4.4-0.1c-3-0.1-15.3-0.3-18.4-0.3-0.9 0-1.4 1.9-0.4 2 2.9 0.3 15 0.5 17.9 0.6q2.1 0.1 4.2 0.1 1 0.1 2.1 0.1 0.5 0 1.1 0.1c0.1 0 0.5 0 0.7 0q0.1 0 0.1 0 0 0.1 0.1 0.1c0.2 0.1 0.5 0.1 0.7 0 0.5-0.2 0.8-0.6 0.9-1"/>
	<path id="Layer" class="s1" d="m411.5 70.9c-0.6-0.1-1.2-0.1-1.7-0.1q-0.9 0-1.7-0.1c-1.2 0-15.4-0.1-16.6-0.1q-3.4 0.1-6.9 0.4c-1 0.1-0.7 1.9 0.3 1.9q3.4-0.2 6.8-0.1c1.1 0 15.3 0.2 16.4 0.2q0.8 0 1.7 0c0.6 0.1 1.2 0.1 1.8 0.1 1.1-0.2 0.9-2-0.1-2.2"/>
	<path id="Layer" class="s1" d="m65 72.9c-2.1 0.1-4.3-0.2-6.4-0.2q-3.3-0.1-6.6-0.2c-4.3-0.1-8.7 0-13-0.3-0.9-0.1-1.2-1.7-0.2-1.8 4.4-0.5 8.8-0.4 13.2-0.3q3.2 0 6.4 0.1c2.2 0 4.5 0 6.6 0.3 1.1 0.1 1.2 2.3 0 2.4"/>
	<path id="Layer" class="s1" d="m100.7 72.1c-0.8 0.6-1.9 0.4-2.9 0.4q-1.8 0-3.6-0.1-3.6 0-7.2-0.1c-4.8-0.1-9.6 0-14.3-0.3-0.9-0.1-0.5-1.8 0.4-1.8 4.5-0.2 9.1-0.1 13.6-0.1q3.4 0 6.8 0 1.6 0 3.2 0 0.9 0 1.8 0c0.1 0 0.7 0 1 0.1q0.2-0.2 0.3-0.2c0.5-0.2 1-0.2 1.2 0.2 0.5 0.6 0.2 1.4-0.4 1.9"/>
	<path id="Layer" class="s1" d="m31.8 70.9c0.1 0.5 0.1 1-0.4 1.3-0.4 0.3-1.3 0.2-1.9 0.2q-1.2 0-2.3 0-2.2 0-4.4 0c-3.1 0-15.4-0.1-18.4-0.2-1-0.1-1.4-2-0.4-2.1 2.8-0.1 15 0 17.9-0.1q2.1 0 4.2 0h2q0.6-0.1 1.2 0c0.1 0 0.5 0 0.7 0 0 0 0-0.1 0.1-0.1q0 0 0 0c0.2-0.2 0.5-0.1 0.8 0 0.5 0.2 0.7 0.6 0.8 1"/>
	<path id="Layer" class="s1" d="m135.9 72.8c-0.6 0.1-1.2 0.1-1.8 0.1q-0.8 0-1.7 0c-1.2 0-15.4-0.3-16.5-0.3-2.3-0.1-4.6-0.4-6.9-0.6-1-0.1-0.7-2 0.3-1.9q3.4 0.3 6.8 0.3c1.1 0 15.3 0.2 16.4 0.2q0.8 0 1.7 0c0.5 0 1.2 0 1.8 0 1.1 0.2 0.8 2-0.1 2.2"/>
	<path id="Layer" class="s1" d="m202.8 72.5c-2.1 0.1-4.3-0.1-6.4-0.2q-3.3-0.1-6.5-0.2c-4.4-0.1-8.8-0.1-13.1-0.5-0.9 0-1.1-1.7-0.1-1.8 4.3-0.4 8.8-0.2 13.1-0.1q3.2 0 6.4 0.1c2.2 0.1 4.5 0 6.6 0.3 1.1 0.2 1.2 2.4 0 2.4z"/>
	<path id="Layer" class="s1" d="m238.5 72c-0.8 0.6-1.9 0.4-2.9 0.4l-3.6-0.1-7.3-0.2c-4.7-0.1-9.5 0-14.2-0.4-0.9 0-0.4-1.8 0.4-1.8 4.5-0.2 9.1 0 13.6 0q3.4 0.1 6.8 0.1 1.6 0 3.2 0 0.9 0 1.8 0c0.1 0 0.7 0.1 1 0.1q0.2-0.2 0.3-0.2c0.5-0.2 1-0.2 1.3 0.2 0.4 0.6 0.1 1.4-0.5 1.9"/>
	<path id="Layer" class="s1" d="m169.6 71.3c0.1 0.5 0.1 1-0.3 1.3-0.5 0.4-1.4 0.2-2 0.2q-1.1 0-2.3 0-2.2 0-4.4 0c-3 0-15.4-0.2-18.4-0.4-0.9 0-1.4-1.9-0.4-2 2.9-0.1 15.1 0 17.9 0q2.1 0 4.3 0 1 0 2 0 0.6 0 1.2 0c0.1 0 0.5 0 0.7 0 0 0 0 0 0.1 0q0 0 0-0.1c0.2-0.1 0.5-0.1 0.8 0 0.5 0.2 0.7 0.7 0.8 1.1"/>
	<path id="Layer" class="s1" d="m273.7 72.9c-0.6 0.1-1.2 0.1-1.8 0.1q-0.8 0-1.7 0c-1.2 0-15.3-0.4-16.5-0.4-2.3-0.1-4.6-0.4-6.9-0.6-1-0.2-0.7-2 0.3-1.9q3.4 0.2 6.9 0.3c1.1 0.1 15.2 0.4 16.3 0.4q0.9 0 1.7 0c0.6 0 1.3-0.1 1.8 0 1.1 0.2 0.8 2-0.1 2.1"/>
</svg>