<svg width="832" height="1113" viewBox="0 0 832 1113" fill="none" xmlns="http://www.w3.org/2000/svg">
<path d="M821.053 764.361C820.93 765.329 820.792 763.931 820.761 762.748V761.642C820.761 761.642 820.776 761.596 820.776 761.581C820.961 760.213 821.16 763.609 821.053 764.346M830.332 11.5965C829.733 11.5043 830.209 11.4275 831.039 11.3661C831.1 12.1188 831.131 13.394 831.069 13.8395C830.916 15.1146 830.747 12.718 830.762 11.6272C830.562 11.6272 830.409 11.6272 830.317 11.5965M820.361 807.669C820.315 807.5 820.238 807.07 820.146 806.579L820.177 804.059C820.223 805.396 820.285 806.533 820.346 807.654M820.223 815.781C820.146 816.319 820.07 816.119 820.024 815.643L820.054 812.724C820.192 812.939 820.3 815.212 820.223 815.796M819.347 872.67C819.317 872.885 819.286 872.977 819.255 872.977L819.286 870.273C819.363 871.041 819.394 872.255 819.332 872.67M817.535 1001.16L817.596 996.971C817.673 996.033 817.75 995.112 817.765 994.589C817.765 994.666 817.704 994.62 817.627 994.574L817.658 992.715C818.364 987.169 817.934 1001.13 817.55 1001.16M816.674 1086.72C816.582 1087.43 816.475 1086.87 816.429 1086.08L816.459 1083.69C816.628 1083.31 816.767 1086.09 816.674 1086.74M826.676 317.302C826.676 317.302 826.676 317.317 826.676 317.333V317.179C826.676 317.179 826.676 317.256 826.676 317.287M826.199 352.79V351.362C826.46 352.913 826.583 354.496 826.199 352.79ZM825.493 414.841C825.447 415.148 825.416 415.21 825.37 415.117L825.416 412.152C825.508 412.874 825.554 414.38 825.493 414.826M824.509 498.83C824.417 499.521 824.325 499.014 824.264 498.246L824.294 495.772C824.463 495.435 824.602 498.184 824.509 498.814M823.665 552.984C823.618 553.337 823.572 553.368 823.526 553.214L823.572 550.172C823.68 550.833 823.741 552.492 823.665 552.984ZM821.836 679.835L821.867 677.961C821.959 678.514 821.928 679.328 821.836 679.835ZM787.024 1112.16C785.641 1111.98 789.067 1111.79 789.805 1111.88C791.187 1112.07 787.761 1112.25 787.024 1112.16ZM724.359 10.2292C724.804 10.0756 725.803 10.0141 727.309 10.2753L724.359 10.2292ZM688.287 9.73761C688.287 9.73761 688.225 9.73761 688.195 9.73761H686.935C688.256 9.39962 690.407 9.01555 691.114 9.12309C693.326 9.4918 688.594 9.66079 688.287 9.72224M658.744 1110.23C658.252 1110.16 658.375 1110.09 658.744 1110.04L661.786 1110.09C661.402 1110.23 659.297 1110.3 658.744 1110.23ZM660.987 9.30744C659.589 9.12309 663.015 8.93874 663.768 9.03091C665.15 9.21527 661.709 9.39962 660.987 9.30744ZM643.996 9.15382L633.595 9.01555C635.27 8.75438 641 9.04628 644.595 9.06164C644.426 9.09237 644.211 9.13845 643.996 9.16918M617.787 1109.61C617.787 1109.61 617.956 1109.55 618.094 1109.52L623.056 1109.58C623.179 1109.61 623.256 1109.66 623.256 1109.69C620.798 1109.84 618.309 1110 617.802 1109.6M631.168 8.98483L628.095 8.93874C628.756 8.8312 630.446 8.76975 630.937 8.8312C631.306 8.87729 631.321 8.92337 631.152 8.96946M535.227 1108.38H535.811C534.059 1108.57 532.507 1108.69 535.227 1108.38ZM529.788 7.61753H528.221C528.651 7.5868 529.174 7.57144 529.865 7.58681C529.834 7.58681 529.819 7.61753 529.788 7.61753ZM501.859 1107.94H502.181C502.181 1107.94 502.304 1107.97 502.381 1107.98C502.227 1107.95 502.028 1107.95 501.874 1107.94M513.965 7.40245C514.748 7.341 515.839 7.31027 516.223 7.37172C516.392 7.40245 516.499 7.41781 516.53 7.44854L513.965 7.41781V7.40245ZM490.367 1107.78L497.603 1107.88C495.022 1107.97 492.272 1108.11 490.367 1107.78ZM497.25 7.18737C498.018 7.11056 499.385 7.06447 499.831 7.12592C500.092 7.15664 500.184 7.20273 500.153 7.23346L497.25 7.20273V7.18737ZM345.173 5.15947C346.187 5.08266 347.646 5.11338 348.599 5.20556L345.173 5.15947ZM328.274 1105.74C327.521 1105.71 326.983 1105.66 326.614 1105.6L328.366 1105.63C328.366 1105.63 328.258 1105.71 328.274 1105.74ZM340.134 5.09802H339.734C340.733 5.00584 341.255 4.95976 340.134 5.09802ZM314.616 1105.54C314.386 1105.51 314.186 1105.48 314.002 1105.45H314.555C316.598 1105.72 318.994 1106.08 314.616 1105.54ZM96.9704 1.87182C97.5388 1.85646 98.0919 1.85646 98.3377 1.87182C98.3377 1.87182 98.353 1.87182 98.3684 1.87182H96.9704ZM83.8966 1.70283C84.1117 1.70283 84.3575 1.68747 84.6801 1.68747C85.0027 1.68747 85.2946 1.71819 85.6019 1.73355H83.8966V1.70283ZM14.5025 11.873C14.3028 10.0449 14.4718 8.20132 14.564 6.8033L14.5025 11.873ZM14.0877 42.6295C13.9188 43.1826 13.7651 40.2943 13.8573 39.6337C13.9495 38.881 14.057 39.5416 14.1185 40.4172L14.0877 42.6295ZM13.7498 68.1933C13.719 67.6095 13.719 67.0257 13.7498 66.7646C13.7498 66.7338 13.7498 66.7338 13.7498 66.7031V68.1933ZM821.744 740.042C821.498 739.397 821.114 739.873 821.145 737.231C821.637 732.622 821.037 721.161 822.082 718.38C821.222 715.492 822.343 706.904 822.343 702.126C821.314 697.502 822.297 693.032 821.99 683.076C822.313 683.107 822.328 685.32 822.589 685.888C822.635 674.965 822.497 679.22 822.205 669.526C822.466 668.958 822.835 669.557 822.881 666.93C821.406 670.986 822.374 661.722 822.328 661.4C822.282 661.031 822.205 660.877 822.113 660.831L822.174 656.391C822.451 656.176 822.712 655.746 822.773 653.334C822.528 653.549 822.359 653.042 822.22 652.382L822.266 649.217C822.466 649.586 822.651 649.985 822.804 650.615C823.065 644.608 822.543 644.485 822.359 641.735L822.42 636.88C822.866 636.435 823.004 647.389 823.28 639.845C822.282 638.432 822.835 628.031 823.495 626.295C823.219 625.696 822.912 626.065 822.896 623.484C822.896 621.041 823.495 606.769 823.28 599.118C823.127 598.903 823.019 598.996 822.927 599.272L822.973 596.153C823.449 595.646 823.818 593.972 824.049 591.099C823.818 590.454 823.419 590.915 823.449 588.288C824.171 580.944 822.912 564.982 824.233 558.545C824.479 548.375 823.495 539.91 824.525 539.587C823.972 529.156 824.847 520.123 824.94 512.518C824.94 512.718 824.417 508.355 824.386 506.987C824.325 504.268 824.863 499.583 825.201 496.264C824.94 493.668 824.678 491.025 824.402 488.352V487.937C825.569 487.169 824.617 486.37 824.463 483.697V482.376C824.617 481.854 825.093 480.533 825.124 479.949C825.37 476.093 825.001 468.565 825.093 460.945C825.139 457.488 825.585 457.258 825.539 452.879C824.986 453.402 824.801 449.684 825.585 450.176C825.754 444.384 825.385 442.586 825.032 440.727L825.078 437.301C825.37 439.16 825.585 441.91 825.8 436.641C825.477 435.489 824.832 425.964 825.923 428.514C825.662 418.451 826.015 403.826 825.831 393.195C826.967 388.77 826.015 378.17 826.169 371.533C826.245 367.769 826.891 366.986 826.937 363.514C826.937 363.022 826.368 360.226 826.384 357.998C826.384 358.259 826.829 350.977 826.875 347.214C827.06 334.386 827.029 326.842 827.06 314.66C827.213 311.019 827.597 309.575 827.551 303.875C827.352 303.645 827.106 303.767 826.875 303.66L827.106 286.576C827.428 285.731 827.736 284.779 827.889 282.213C826.875 281.921 828.043 271.183 827.321 271.045L827.352 268.863C827.782 266.743 828.581 265.376 827.874 263.194C827.459 268.51 827.628 257.633 827.597 251.042L827.643 247.048C827.874 247.801 827.951 250.212 828.12 246.956C827.613 242.854 828.688 231.639 828.12 225.232C828.104 226.323 827.997 227.061 827.889 227.353L827.951 222.821C828.289 221.238 828.642 219.686 828.888 217.213C828.534 217.52 828.243 217.321 828.027 216.476L828.058 213.971C828.442 214.263 828.412 203.771 828.534 198.148C828.427 198.363 828.35 198.47 828.258 198.516L828.304 195.413C828.381 195.444 828.458 195.459 828.581 195.429C828.903 188.945 828.673 186.395 828.458 183.768L828.519 178.652C828.949 181.218 829.641 183.753 829.134 179.236C828.965 177.07 828.78 175.027 828.596 173.091L828.642 169.235C828.811 170.955 828.826 173.736 829.226 173.813C828.458 163.504 830.224 145.207 829.088 141.213C830.301 136.312 829.717 104.665 829.794 95.1858C829.794 96.0308 829.687 96.8911 829.61 96.9219L829.656 94.0183C830.486 87.8117 830.516 76.3202 829.963 71.4656V70.8511C831.039 71.9265 830.27 64.6291 830.317 62.678C830.701 48.114 831.392 30.7694 830.67 19.3087C831.269 17.7263 831.377 15.2221 831.377 11.0435C828.995 11.0435 826.368 11.0742 823.741 11.0742C821.329 11.0742 818.917 10.9974 816.751 10.7516C816.091 11.0588 817.458 11.3046 817.996 11.4582L815.753 11.4275C813.97 10.9359 811.866 11.0742 809.7 11.3507L802.418 11.2585C799.99 11.1356 796.764 11.1049 794.905 10.4136C794.383 11.5197 790.926 10.4443 783.875 10.8745C772.168 9.67615 758.971 10.3982 743.824 10.475L734.253 10.3521C732.363 9.95269 728.584 9.75297 723.852 9.63007C714.588 9.79906 715.617 9.38426 710.302 10.0295H710.025C709.426 9.67616 707.076 9.50716 704.74 9.33817C704.403 9.6147 705.032 9.79906 705.754 9.96805L700.27 9.89124C698.918 9.35354 692.665 8.76975 685.691 8.72366C685.737 9.27672 683.448 9.50716 680.068 9.59934C676.765 8.27813 674.399 9.59934 666.41 9.38426C663.845 8.24741 651.262 9.35354 652.922 8.23205C644.779 9.27672 623.717 7.63289 614.576 8.27813C616.097 8.2935 617.648 8.58539 614.53 8.60075C607.294 8.21668 599.95 7.89406 593.559 8.49322L590.472 8.44713C588.259 8.04769 585.386 7.72507 581.868 7.44854C579.518 7.54072 579.81 7.97088 579.211 8.2935L572.82 8.21668C571.36 8.03233 572.497 8.07842 576.353 7.69435C572.589 7.61753 570.331 7.7558 568.103 7.8787C516.592 6.77257 472.93 6.83402 431.604 5.75862C428.101 5.88153 424.737 6.03516 421.511 6.18879L410.158 6.03516C408.207 5.80471 405.457 5.65108 404.289 5.34383C404.904 5.68181 404.289 5.83544 403.244 5.94298L397.13 5.86616C398.313 5.83544 399.772 5.69717 398.789 5.57427C398.052 5.48209 394.61 5.66645 395.993 5.8508C396.008 5.8508 396.039 5.8508 396.055 5.8508L390.416 5.77399C390.555 5.55891 390.831 5.3131 390.662 5.12875C381.398 4.8983 365.759 6.03516 377.005 4.91367C370.767 4.89831 365.897 5.05193 362.348 5.40528L360.505 5.37455L360.628 4.66786C353.499 4.17625 353.315 6.08124 352.424 4.54496C343.974 4.31451 339.258 5.08266 333.313 4.25306C335.279 5.49746 320.331 4.45278 314.094 4.59105C313.955 3.26984 312.312 4.49887 308.64 4.49887C303.417 3.8229 296.933 4.08407 292.586 4.48351L289.866 4.45278C290.404 4.25306 291.341 4.09943 292.294 3.94581C287.362 3.74609 283.199 4.14552 279.082 4.31451L272.599 4.22234C271.677 4.03798 273.812 3.66928 270.448 3.60782C262.69 3.46956 256.268 3.83827 248.617 3.26984C248.11 3.60782 247.05 3.77682 245.683 3.86899L231.979 3.68464C231.948 3.37738 231.948 3.05476 229.521 2.97795C228.861 3.20839 229.337 3.60782 226.694 3.5771C223.791 2.96258 214.942 3.40811 215.771 3.40811C213.037 3.42347 212.53 3.02403 210.348 3.00867C209.058 3.00867 208.735 3.34666 204.833 3.23912C202.221 3.1623 197.597 2.77823 196.706 2.79359C195.769 2.79359 196.153 3.0394 195.969 3.20839L193.234 3.17766C192.328 2.85504 190.315 2.30198 185.783 2.6246C185.599 2.76286 185.599 2.93186 185.507 3.07012L183.079 3.0394C182.664 2.90113 181.574 2.94722 180.437 3.00867L177.395 2.96258C177.195 2.87041 177.211 2.73214 177.61 2.5017C162.554 2.56315 148.958 2.63996 142.153 1.62601C139.264 2.47097 131.076 1.85646 125.73 1.68747C125.207 1.91791 125.945 2.13299 126.544 2.28662L121.49 2.22517C122.073 2.14835 122.688 2.0869 122.949 1.97936C92.0389 0.873233 80.486 1.97936 49.2841 0.519889C48.6235 0.750332 49.0997 1.14976 46.4419 1.10368C41.8638 0.765693 37.7005 0.673516 32.7843 0.612065C30.3263 0.581339 27.6839 0.550614 24.7035 0.519889C21.5848 0.458437 18.1128 0.381624 14.1492 0.30481C14.1492 0.565978 14.1338 0.934687 14.1185 1.31876C14.3182 1.45702 14.4872 1.91791 14.6101 2.54779L14.5794 4.94439C14.5179 4.54496 14.3643 4.34524 14.0724 4.40669C14.0109 8.0016 13.9648 11.6119 13.9034 15.2221C14.0724 15.683 14.3028 15.6216 14.4257 16.4051L14.3796 19.2319C13.7498 26.4524 13.0431 45.3026 13.6269 53.1991C13.6883 51.7858 13.8266 50.2648 13.9802 49.466L13.9341 52.9994C12.7973 61.4797 13.335 73.9083 12.7204 91.0532C12.9816 91.4373 13.2121 91.5295 13.4118 91.3605L13.3657 95.0322C13.1813 95.5392 12.9816 95.9694 12.6283 96.4763C12.9355 107.031 11.9984 112.315 12.9355 118.245C11.9369 156.975 11.7833 186.902 11.261 226.569C11.2763 225.063 11.5682 223.543 11.5836 226.631C11.0613 231.055 11.3071 230.671 11.5375 232.054L11.4761 236.57C11.1073 239.689 10.9537 244.943 10.6004 248.2C12.0906 244.989 9.81687 261.842 10.9844 264.546C11.0305 263.824 11.0766 263.117 11.1381 262.426L11.092 266.297C10.9844 266.482 10.8308 266.743 10.6311 267.204C10.9384 279.571 9.75542 299.512 10.0012 307.823C10.0319 309.052 10.3238 310.312 10.4775 312.048V312.832C10.2931 312.171 9.95513 311.418 9.95513 310.527C9.90905 314.061 9.86296 317.225 9.80151 320.221C9.77078 319.053 9.63251 317.64 9.50961 318.593C9.40207 319.33 9.60179 322.741 9.78614 321.373C9.66324 329.055 9.60179 335.845 10.0319 345.401V345.908C9.47889 346.676 9.29453 341.775 9.09481 345.708C9.6786 346.2 9.1409 354.91 9.57106 356.662C9.30989 380.536 8.34203 398.556 8.97191 416.27C8.71074 416.853 8.34203 416.239 8.29594 418.881C9.32526 421.539 8.37276 423.936 8.40348 432.493C8.63393 435.427 8.74147 438.377 8.77219 441.588L8.64929 450.606C8.57248 453.34 8.44957 456.305 8.31131 459.593C8.37276 460.638 8.43421 461.221 8.51102 461.513L8.4803 464.294C8.31131 463.326 8.1884 461.283 8.00405 459.562C7.42026 475.97 8.81828 483.329 7.46635 494.759C7.68143 495.327 8.00405 495.035 8.05014 496.786V497.616C7.68143 498.184 7.51244 500.55 7.32808 502.885C8.0655 510.705 6.23732 524.993 7.09764 538.143C7.20518 536.069 7.18982 532.797 7.49708 532.782C6.80575 546.178 6.40631 548.16 7.08228 559.866C5.94543 565.305 6.79038 583.325 6.62139 589.655C6.62139 588.764 6.7443 587.857 6.83647 587.919L6.80575 590.531C5.73035 596.876 5.51527 613.283 6.42168 619.029L6.39095 620.964C5.43845 635.037 5.93006 647.803 5.80716 662.798C5.48454 662.751 5.46918 660.555 5.20801 659.986C4.91612 666.223 5.42309 666.469 5.76107 668.067L5.73035 670.986C5.377 670.356 5.22337 667.575 5.05438 670.817C5.63817 671.585 4.80858 675.257 5.28482 676.302C5.30019 674.796 5.59208 673.29 5.60744 676.363C5.14656 688.576 5.06974 692.863 5.14656 706.152C4.77785 706.367 4.7164 702.126 4.50132 706.044C4.90075 713.572 4.97757 724.971 4.40914 733.19C4.56277 733.59 4.76249 733.559 4.88539 734.112L4.8393 737.2C4.16334 743.207 4.08652 756.112 4.48596 764.054L4.39378 770.86C3.65636 776.252 3.71781 785.117 4.11725 791.784L4.0558 795.84C3.71781 796.454 3.48737 798.313 3.3491 800.879C3.641 808.115 3.21084 822.279 3.57955 832.404L3.53346 836.352C3.19548 836.383 2.85749 836.26 2.78068 838.794C3.31838 851.039 3.14939 861.117 2.22761 873.991C2.38124 875.773 2.76532 875.788 2.9804 877.109L2.91894 882.056C2.71923 881.503 2.67314 879.921 2.45806 879.46C2.67314 888.048 1.96645 894.746 2.73459 895.714L2.67314 899.969C2.50415 901.506 2.22762 902.136 2.07399 903.841C2.25834 913.75 1.92036 921.278 1.88963 936.395C1.88963 934.428 2.12007 934.474 2.19689 935.289V936.794C1.90499 940.02 1.1983 940.251 2.07399 944.522V944.552C1.85891 944.522 1.65919 944.476 1.44411 944.46C1.98181 975.078 0.998586 994.098 0.629877 1017.62C0.798869 1018.49 0.952498 1018.37 1.10613 1017.8V1018.94C0.722055 1023.9 0.768143 1032.66 0.829595 1038.65L0.737417 1045.79C0.5377 1046.79 0.153629 1047.7 0.138266 1050.14C0.138266 1050.34 0.476249 1052.55 0.629877 1054.38L0.599152 1056.16C0.43016 1057.39 0.168992 1060.42 0.5377 1060.99L0.476249 1066.09C0.0460886 1072.96 0.0307257 1081.7 0.184354 1087.7L0 1101.32H0.875683C1.39802 1101.36 2.16616 1101.39 3.28765 1101.41C3.44128 1101.38 3.56418 1101.38 3.71781 1101.36L13.7037 1101.5C13.8727 1101.53 14.057 1101.55 14.226 1101.59C14.2567 1101.56 14.2721 1101.55 14.3028 1101.51L17.2218 1101.56C17.1142 1101.59 17.022 1101.61 16.9452 1101.64C24.6267 1101.76 31.1559 1101.81 36.963 1101.82L56.2281 1102.08C55.9823 1102.16 56.3356 1102.25 57.9026 1102.28C62.4347 1102.34 66.8592 1102.31 71.8675 1102.28L93.4523 1102.57C96.7707 1102.68 100.35 1102.81 104.314 1102.99C104.345 1102.85 104.882 1102.77 105.62 1102.73L130.799 1103.07C131.752 1103.16 132.843 1103.27 134.333 1103.45C134.609 1103.31 135.07 1103.2 135.654 1103.13L145.302 1103.25C149.65 1103.51 154.059 1103.85 156.194 1103.77C156.501 1103.63 156.363 1103.5 156.087 1103.39L158.744 1103.42C159.559 1103.57 160.496 1103.73 161.648 1103.85C167.148 1103.01 177.61 1104.46 180.391 1103.71L182.219 1103.74C187.365 1104.26 202.344 1103.8 205.325 1104.54C205.524 1104.39 205.509 1104.22 205.632 1104.07L214.343 1104.17C214.02 1104.22 213.743 1104.28 213.559 1104.34C225.358 1105.16 235.712 1103.88 235.344 1105C236.803 1105 265.808 1104.45 257.19 1105.34C262.597 1105.6 262.797 1105.16 263.888 1104.83L267.083 1104.88C266.438 1104.96 265.716 1105.03 265.44 1105.16C278.452 1104.89 282.692 1105.71 292.785 1105.26C292.401 1105.26 292.048 1105.23 291.71 1105.2L298.316 1105.29C297.118 1105.37 296.135 1105.48 295.459 1105.62C301.097 1105.94 307.795 1105.19 317.243 1106.26C318.764 1105.19 325.985 1106.11 328.212 1106.11C333.128 1106.11 334.588 1105.97 334.926 1105.86C334.757 1105.8 334.741 1105.77 334.787 1105.75H334.926C335.018 1105.77 335.064 1105.82 334.926 1105.86C335.125 1105.94 335.556 1106.05 336.401 1106.23C347.185 1105.65 355.558 1106.65 362.379 1106.12L367.111 1106.19C373.702 1106.8 387.144 1107.23 378.602 1106.34H379.063C387.098 1106.92 390.278 1106.71 396.515 1106.85C405.165 1107.03 417.178 1107.63 429.331 1107.03C429.192 1107.03 429.085 1107.03 428.962 1107.03L434.585 1107.11C436.321 1107.37 438.579 1107.57 440.146 1107.86C453.496 1107.57 458.827 1107.32 470.18 1108.32C471.194 1108.06 472.347 1107.83 473.914 1107.63L475.696 1107.66C475.957 1108.09 479.598 1108.18 481.103 1108.49C493.086 1108.14 504.117 1109.07 519.434 1108.44C517.606 1108.37 515.9 1108.27 514.241 1108.17L530.311 1108.38C529.358 1108.77 522.767 1108.38 522.122 1108.8C542.632 1109.63 557.257 1107.78 565.753 1109.8C565.707 1109.24 567.965 1109.01 571.314 1108.94H571.406C573.849 1109.35 577.874 1109.29 581.699 1109.07L586.062 1109.13C585.525 1109.24 585.156 1109.35 584.987 1109.46C603.945 1109.76 621.074 1110.59 634.133 1110.23C630.323 1109.46 627.389 1110.52 625.991 1109.78C626.405 1109.73 626.851 1109.7 627.281 1109.69L632.55 1109.76C635.131 1109.89 637.881 1110.03 640.631 1109.87L642.413 1109.9L642.337 1110.36C659.435 1110.44 679.1 1110.61 702.405 1111.3C705.57 1111.12 704.587 1110.9 703.742 1110.72L707.106 1110.76C711.562 1111.38 722.469 1111.96 724.236 1111.64C721.486 1111.59 720.902 1111.02 724.344 1111.01C726.986 1111.58 736.941 1111.42 737.832 1112.18C739.23 1111.82 740.874 1111.5 743.455 1111.32C744.776 1112.44 753.978 1111.67 759.832 1111.56C761.645 1112.5 773.751 1112.07 781.632 1112.22C787.224 1112.38 793.753 1112.56 799.729 1112.71C802.71 1112.78 805.552 1112.81 808.071 1112.78C810.591 1112.73 812.741 1112.62 814.539 1112.41C814.831 1112.55 815.645 1112.7 816.705 1112.81C816.905 1111.45 816.997 1109.09 816.72 1108.54C816.69 1110.24 816.628 1111.16 816.536 1111.21C816.459 1111.3 816.367 1110.7 816.29 1109.83C816.244 1109.43 816.213 1108.97 816.183 1108.47L816.26 1102.9C816.751 1102.62 816.936 1106.92 817.12 1103.17C816.782 1097.03 816.736 1096.49 816.367 1095.15L816.444 1089.55C816.705 1089.89 816.736 1091.77 816.966 1092.3C817.381 1067.64 817.151 1060.5 817.366 1046.21C817.258 1053.78 817.181 1040.45 817.135 1040.74C817.197 1040.45 817.335 1041.15 817.473 1041.94C817.596 1042.72 817.734 1043.54 817.734 1043.55C817.98 1035.52 818.149 1025.35 817.473 1019.06C818.441 1020.52 818.779 1011.98 817.919 1011C817.888 1013.89 817.658 1017.85 817.55 1013.65C818.441 1003.42 818.779 988.429 817.934 977.214L817.965 975.017C818.211 974.034 818.472 973.004 818.81 973.127C819.163 965.784 818.257 967.581 818.334 962.204C819.609 952.633 818.456 927.853 818.917 924.289C819.501 925.042 818.672 928.729 819.148 929.758C819.486 921.908 819.086 908.972 819.286 899.908C819.301 899.109 819.67 900.292 819.655 897.25C819.655 896.267 819.194 897.603 819.378 894.485C819.47 892.949 820.116 895.36 820.054 891.888C820.054 890.905 818.856 890.429 819.178 886.312C819.455 885.866 819.716 886.158 819.839 884.176C819.839 884.176 819.947 877.785 819.947 878.292C819.916 870.688 820.023 858.705 819.685 853.804C819.947 853.236 820.315 853.835 820.361 851.208C820.146 844.97 820.146 831.205 820.822 821.419C820.423 820.543 820.116 823.201 819.962 822.802L819.993 820.927C821.406 817.486 820.423 801.647 821.053 786.161C820.853 786.023 820.638 786.023 820.469 785.7L820.515 781.844C820.653 782.797 820.776 783.857 821.083 783.457C821.498 777.358 820.945 778.311 820.561 778.096L820.592 776.037C821.16 776.268 820.684 766.159 821.345 767.204C821.713 766.988 821.79 771.229 821.99 767.311C820.961 761.396 821.283 750.351 821.775 740.119M741.704 54.6586C741.796 47.4073 747.756 41.6155 755.008 41.7077C762.259 41.7999 768.051 47.7607 767.959 55.012C767.867 62.2632 761.906 68.055 754.654 67.9629C747.403 67.8707 741.611 61.9099 741.704 54.6586ZM645.071 53.3681C645.163 46.1169 651.124 40.3251 658.375 40.4172C665.627 40.5094 671.418 46.4702 671.326 53.7215C671.234 60.9727 665.273 66.7645 658.022 66.6724C650.771 66.5802 644.979 60.6194 645.071 53.3681ZM548.439 52.0777C548.531 44.8264 554.492 39.0346 561.743 39.1268C568.994 39.2189 574.786 45.1797 574.694 52.431C574.602 59.6823 568.641 65.4741 561.39 65.3819C554.138 65.2897 548.347 59.3289 548.439 52.0777ZM451.806 50.7872C451.899 43.5359 457.859 37.7441 465.111 37.8363C472.362 37.9285 478.154 43.8892 478.062 51.1405C477.969 58.3918 472.009 64.1836 464.757 64.0914C457.506 63.9992 451.714 58.0384 451.806 50.7872ZM355.174 49.4967C355.266 42.2454 361.227 36.4536 368.478 36.5458C375.73 36.638 381.521 42.5988 381.429 49.85C381.337 57.1013 375.376 62.8931 368.125 62.8009C360.874 62.7088 355.082 56.748 355.174 49.4967ZM258.542 48.2062C258.634 40.9549 264.595 35.1631 271.846 35.2553C279.097 35.3475 284.889 41.3083 284.797 48.5596C284.705 55.8108 278.744 61.6026 271.492 61.5104C264.241 61.4183 258.449 55.4575 258.542 48.2062ZM161.909 46.9157C162.001 39.6645 167.962 33.8727 175.213 33.9648C182.465 34.057 188.257 40.0178 188.164 47.2691C188.072 54.5203 182.111 60.3122 174.86 60.22C167.609 60.1278 161.817 54.167 161.909 46.9157ZM65.2768 45.6253C65.369 38.374 71.3298 32.5822 78.581 32.6744C85.8323 32.7665 91.6241 38.7273 91.5319 45.9786C91.4398 53.2299 85.479 59.0217 78.2277 58.9295C70.9764 58.8373 65.1846 52.8765 65.2768 45.6253ZM789.39 27.4356C789.897 27.4203 790.358 27.4356 790.588 27.451H789.39V27.4356ZM736.542 26.7289C737.294 26.6368 738.723 26.5907 739.169 26.6521C739.445 26.6828 739.522 26.7289 739.461 26.7597L736.542 26.7136V26.7289ZM637.543 25.4077C638.112 25.3924 638.68 25.3924 638.926 25.4077C638.941 25.4077 638.957 25.4077 638.957 25.4077H637.543ZM509.571 23.7024C510.477 23.6871 511.261 23.7024 511.875 23.7332L509.571 23.7024ZM190.377 19.4469C191.006 19.4162 191.652 19.4162 191.913 19.4469C191.959 19.4469 191.99 19.4469 192.02 19.4623H190.377V19.4469Z" fill="white"/>
<path d="M757.712 105.632C755.622 105.77 753.425 105.509 751.321 105.448C749.124 105.386 746.927 105.325 744.73 105.279C740.398 105.187 736.019 105.31 731.718 104.941C730.78 104.864 730.535 103.236 731.533 103.128C735.866 102.667 740.321 102.821 744.684 102.867C746.819 102.882 748.939 102.928 751.075 102.974C753.256 103.02 755.561 102.944 757.727 103.236C758.818 103.389 758.895 105.555 757.727 105.632" fill="#D73532"/>
<path d="M793.354 104.864C792.647 105.494 791.495 105.279 790.527 105.263C789.313 105.248 788.115 105.233 786.901 105.217C784.489 105.187 782.062 105.141 779.65 105.11C774.918 105.033 770.125 105.11 765.393 104.787C764.487 104.726 764.948 103.02 765.762 102.974C770.279 102.759 774.872 102.882 779.389 102.898C781.663 102.898 783.936 102.898 786.195 102.898C787.255 102.898 788.315 102.898 789.375 102.898C789.974 102.898 790.588 102.898 791.188 102.898C791.31 102.898 791.848 102.928 792.217 102.944C792.309 102.867 792.417 102.79 792.524 102.744C792.985 102.544 793.461 102.59 793.738 102.974C794.183 103.574 793.891 104.372 793.338 104.849" fill="#D73532"/>
<path d="M724.466 103.696C724.62 104.142 724.543 104.649 724.113 104.987C723.668 105.325 722.746 105.171 722.193 105.171C721.409 105.171 720.626 105.171 719.842 105.171C718.383 105.171 716.908 105.171 715.448 105.187C712.422 105.187 700.086 105.094 697.044 104.956C696.122 104.91 695.646 102.99 696.66 102.928C699.517 102.759 711.669 102.851 714.542 102.821C715.955 102.805 717.369 102.79 718.767 102.775H720.81C721.194 102.744 721.594 102.744 721.978 102.744C722.085 102.744 722.469 102.775 722.7 102.775C722.73 102.759 722.73 102.729 722.761 102.713C722.777 102.713 722.792 102.682 722.807 102.682C723.022 102.529 723.33 102.575 723.56 102.667C724.052 102.851 724.297 103.297 724.42 103.696" fill="#D73532"/>
<path d="M619.907 101.392C617.833 101.223 615.621 101.438 613.516 101.454C611.319 101.484 609.122 101.484 606.925 101.484C602.593 101.484 598.23 101.285 593.913 101.561C592.976 101.623 592.699 103.236 593.698 103.374C598.015 103.912 602.47 103.85 606.833 103.896C608.968 103.912 611.089 103.927 613.224 103.912C615.406 103.912 617.71 104.034 619.876 103.789C620.967 103.666 621.09 101.484 619.907 101.392Z" fill="#D73532"/>
<path d="M655.518 102.867C654.811 102.222 653.659 102.421 652.691 102.421C651.477 102.421 650.279 102.421 649.065 102.406C646.638 102.406 644.226 102.375 641.814 102.375C637.082 102.36 632.289 102.191 627.557 102.406C626.651 102.452 627.081 104.173 627.895 104.234C632.412 104.541 636.99 104.495 641.522 104.587C643.796 104.634 646.07 104.664 648.328 104.71C649.388 104.726 650.448 104.741 651.508 104.772C652.107 104.772 652.722 104.787 653.321 104.803C653.444 104.803 653.982 104.787 654.35 104.787C654.442 104.864 654.535 104.941 654.658 104.987C655.118 105.187 655.595 105.156 655.871 104.787C656.317 104.188 656.04 103.405 655.503 102.898" fill="#D73532"/>
<path d="M586.646 102.683C586.8 102.237 586.738 101.73 586.323 101.392C585.893 101.039 584.971 101.177 584.403 101.162C583.62 101.146 582.836 101.131 582.052 101.1C580.593 101.07 579.118 101.024 577.659 100.993C574.632 100.916 562.296 100.778 559.254 100.855C558.332 100.885 557.825 102.79 558.839 102.882C561.681 103.113 573.849 103.251 576.706 103.343C578.12 103.389 579.533 103.435 580.931 103.466C581.622 103.482 582.298 103.512 582.974 103.528C583.358 103.528 583.758 103.558 584.142 103.558C584.265 103.558 584.633 103.543 584.864 103.543C584.895 103.558 584.895 103.589 584.925 103.62C584.941 103.62 584.956 103.651 584.971 103.651C585.187 103.804 585.494 103.758 585.724 103.681C586.231 103.497 586.477 103.067 586.6 102.667" fill="#D73532"/>
<path d="M690.745 102.867C690.176 102.744 689.562 102.775 688.993 102.76C688.425 102.76 687.857 102.744 687.288 102.729C686.121 102.729 671.925 102.652 670.758 102.698C668.453 102.76 666.149 102.929 663.86 103.144C662.846 103.236 663.122 105.095 664.136 105.033C666.41 104.911 668.699 104.864 670.973 104.849C672.079 104.849 686.213 104.941 687.319 104.957C687.887 104.957 688.456 104.972 689.024 105.003C689.608 105.018 690.238 105.095 690.822 105.018C691.897 104.864 691.682 103.082 690.729 102.867" fill="#D73532"/>
<path d="M478.676 99.518C476.602 99.3491 474.39 99.5641 472.285 99.5795C470.088 99.6102 467.892 99.6102 465.695 99.6102C461.362 99.6102 456.999 99.4105 452.682 99.687C451.745 99.7485 451.469 101.362 452.467 101.5C456.784 102.038 461.239 101.976 465.603 102.022C467.738 102.038 469.858 102.053 471.993 102.038C474.175 102.038 476.479 102.16 478.646 101.915C479.736 101.792 479.859 99.6102 478.676 99.518Z" fill="#D73532"/>
<path d="M514.302 100.993C513.595 100.348 512.443 100.547 511.475 100.547C510.262 100.547 509.063 100.547 507.85 100.532C505.422 100.532 503.01 100.501 500.598 100.501C495.867 100.486 491.073 100.317 486.342 100.532C485.435 100.578 485.865 102.299 486.68 102.36C491.196 102.667 495.774 102.621 500.307 102.698C502.58 102.744 504.854 102.775 507.112 102.821C508.172 102.836 509.232 102.852 510.292 102.882C510.892 102.882 511.506 102.898 512.105 102.913C512.228 102.913 512.766 102.898 513.134 102.898C513.227 102.975 513.319 103.051 513.442 103.098C513.903 103.297 514.379 103.266 514.655 102.898C515.101 102.299 514.824 101.515 514.287 101.008" fill="#D73532"/>
<path d="M549.514 100.978C548.946 100.855 548.331 100.885 547.763 100.87C547.195 100.87 546.626 100.855 546.058 100.839C544.89 100.839 530.695 100.778 529.527 100.809C527.223 100.87 524.918 101.039 522.629 101.254C521.615 101.346 521.892 103.205 522.906 103.144C525.18 103.021 527.469 102.975 529.742 102.959C530.848 102.959 544.982 103.052 546.088 103.067C546.657 103.067 547.225 103.082 547.794 103.113C548.377 103.128 549.007 103.205 549.591 103.128C550.667 102.975 550.451 101.193 549.499 100.978" fill="#D73532"/>
<path d="M374.685 97.9507C372.611 97.7664 370.383 97.9507 368.294 97.9661C366.097 97.9661 363.9 97.9661 361.703 97.9661C357.371 97.9354 353.008 97.7049 348.691 97.9661C347.753 98.0276 347.462 99.6407 348.46 99.7636C352.777 100.332 357.232 100.301 361.595 100.378C363.731 100.409 365.851 100.44 367.986 100.44C370.168 100.44 372.472 100.593 374.638 100.363C375.729 100.24 375.867 98.0736 374.685 97.9661" fill="#D73532"/>
<path d="M410.296 99.6716C409.605 99.011 408.453 99.2107 407.469 99.1953C406.256 99.1953 405.057 99.1646 403.844 99.1492C401.432 99.1185 399.004 99.0878 396.592 99.0571C391.861 98.9956 387.068 98.8112 382.336 98.9956C381.429 99.0263 381.844 100.762 382.658 100.824C387.175 101.162 391.753 101.146 396.285 101.269C398.559 101.331 400.817 101.377 403.091 101.438C404.151 101.469 405.211 101.484 406.271 101.515C406.87 101.515 407.485 101.546 408.084 101.561C408.207 101.561 408.745 101.546 409.113 101.546C409.205 101.623 409.298 101.699 409.42 101.746C409.881 101.945 410.342 101.915 410.634 101.546C411.095 100.947 410.818 100.163 410.296 99.6562" fill="#D73532"/>
<path d="M341.409 99.0111C341.562 98.5656 341.516 98.0586 341.101 97.7206C340.671 97.3673 339.75 97.4902 339.181 97.4748C338.398 97.4441 337.614 97.4287 336.831 97.398C335.371 97.3519 333.896 97.3058 332.437 97.2598C329.41 97.1676 317.074 96.9525 314.047 96.9986C313.126 97.0139 312.603 98.9343 313.617 99.0111C316.459 99.2569 328.627 99.4874 331.484 99.5949C332.898 99.6564 334.311 99.7024 335.709 99.7485C336.4 99.7793 337.076 99.7946 337.752 99.8254C338.136 99.8254 338.536 99.8561 338.92 99.8714C339.043 99.8714 339.412 99.8561 339.642 99.8714C339.673 99.8868 339.673 99.9175 339.703 99.9483C339.719 99.9483 339.734 99.979 339.75 99.979C339.965 100.133 340.272 100.102 340.502 100.01C341.009 99.8407 341.255 99.3952 341.393 98.9958" fill="#D73532"/>
<path d="M445.508 99.9173C444.939 99.7944 444.34 99.8098 443.757 99.7944C443.188 99.7791 442.62 99.7637 442.051 99.7483C440.884 99.733 426.688 99.5793 425.521 99.5947C423.216 99.6408 420.912 99.7944 418.623 99.9941C417.609 100.071 417.855 101.93 418.884 101.884C421.158 101.776 423.447 101.746 425.736 101.761C426.842 101.761 440.976 101.961 442.082 101.991C442.65 101.991 443.219 102.022 443.787 102.037C444.371 102.053 445.001 102.145 445.585 102.068C446.675 101.93 446.476 100.132 445.523 99.9173" fill="#D73532"/>
<path d="M99.0133 96.8599C96.9239 96.9982 94.727 96.737 92.6223 96.6756C90.4254 96.6141 88.2286 96.5527 86.0317 96.5066C81.6993 96.4144 77.3209 96.5373 73.0193 96.1686C72.0822 96.0918 71.8364 94.4633 72.835 94.3558C77.1673 93.8949 81.6225 94.0485 85.9856 94.0946C88.121 94.11 90.2411 94.1561 92.3765 94.2022C94.5581 94.2483 96.8625 94.1715 99.0287 94.4633C100.119 94.617 100.196 96.7831 99.0287 96.8599" fill="#D73532"/>
<path d="M134.655 96.0767C133.949 96.7065 132.797 96.4915 131.829 96.4761C130.615 96.4607 129.417 96.4454 128.203 96.43C125.791 96.3993 123.364 96.3532 120.952 96.3225C116.22 96.2457 111.427 96.3225 106.695 95.9999C105.789 95.9384 106.249 94.2331 107.064 94.187C111.58 93.972 116.174 94.0949 120.691 94.1102C122.964 94.1102 125.238 94.1102 127.496 94.1102C128.556 94.1102 129.616 94.1102 130.676 94.1102C131.276 94.1102 131.89 94.1102 132.489 94.1102C132.612 94.1102 133.15 94.1409 133.519 94.1563C133.611 94.0795 133.718 94.0027 133.826 93.9566C134.287 93.7569 134.763 93.803 135.04 94.187C135.485 94.7862 135.193 95.585 134.64 96.0613" fill="#D73532"/>
<path d="M65.7839 94.9091C65.9375 95.3546 65.8607 95.8616 65.4305 96.1996C64.985 96.5375 64.0632 96.3839 63.5102 96.3839C62.7267 96.3839 61.9431 96.3839 61.1596 96.3839C59.7002 96.3839 58.2253 96.3839 56.7659 96.3993C53.7394 96.3993 41.403 96.3071 38.3612 96.1688C37.4394 96.1227 36.9631 94.2024 37.9771 94.1409C40.8346 93.9719 52.9866 94.0641 55.8595 94.0334C57.2728 94.018 58.6862 94.0027 60.0842 93.9873H62.1275C62.5116 93.9566 62.911 93.9566 63.2951 93.9566C63.4026 93.9566 63.7867 93.9873 64.0171 93.9873C64.0479 93.9719 64.0479 93.9412 64.0786 93.9259C64.0939 93.9259 64.1093 93.8951 64.1247 93.8951C64.3398 93.7415 64.647 93.7876 64.8775 93.8798C65.3691 94.0641 65.6149 94.5096 65.7378 94.9091" fill="#D73532"/>
<path d="M169.867 96.7831C169.299 96.8907 168.684 96.8599 168.116 96.8599C167.548 96.8599 166.979 96.8599 166.411 96.8599C165.243 96.8599 151.048 96.6295 149.88 96.568C147.576 96.4605 145.271 96.2454 142.982 95.9996C141.984 95.8921 142.276 94.0332 143.29 94.11C145.563 94.279 147.852 94.3711 150.126 94.4172C151.232 94.448 165.366 94.6323 166.472 94.6323C167.041 94.6323 167.609 94.6323 168.177 94.6323C168.746 94.6323 169.406 94.5555 169.975 94.6477C171.05 94.8167 170.804 96.5988 169.852 96.7985" fill="#D73532"/>
<path d="M236.819 98.5196C234.729 98.6425 232.532 98.3659 230.443 98.2891C228.246 98.2123 226.049 98.1355 223.852 98.074C219.535 97.9511 215.142 98.0433 210.84 97.6439C209.903 97.5517 209.672 95.9386 210.671 95.8311C215.003 95.4009 219.459 95.5852 223.822 95.6621C225.957 95.6928 228.077 95.7542 230.213 95.8157C232.394 95.8771 234.699 95.8157 236.849 96.1229C237.94 96.2766 238.002 98.4581 236.819 98.5196Z" fill="#D73532"/>
<path d="M272.46 97.9971C271.738 98.6269 270.601 98.3965 269.618 98.3658L265.992 98.289L258.741 98.1353C254.009 98.0278 249.216 98.0585 244.5 97.7205C243.593 97.6591 244.069 95.9384 244.884 95.9077C249.4 95.7234 253.994 95.8923 258.51 95.9231C260.784 95.9384 263.058 95.9692 265.316 95.9845C266.376 95.9845 267.436 95.9999 268.496 96.0152C269.095 96.0152 269.71 96.0152 270.309 96.0152C270.432 96.0152 270.97 96.0613 271.338 96.0613C271.431 95.9845 271.538 95.9077 271.646 95.8616C272.107 95.6619 272.583 95.708 272.859 96.0921C273.289 96.7066 272.998 97.4901 272.445 97.9663" fill="#D73532"/>
<path d="M203.604 96.338C203.742 96.7835 203.665 97.2905 203.251 97.6285C202.805 97.9665 201.883 97.8128 201.33 97.7975C200.547 97.7975 199.763 97.7975 198.98 97.7975C197.52 97.7975 196.045 97.7975 194.586 97.7975C191.559 97.7975 179.208 97.5978 176.197 97.4441C175.275 97.398 174.829 95.4623 175.843 95.4162C178.701 95.2626 190.868 95.447 193.726 95.4162C195.139 95.4162 196.552 95.4162 197.966 95.4009C198.642 95.4009 199.333 95.4009 200.009 95.4009C200.393 95.4009 200.793 95.4009 201.177 95.4009C201.284 95.4009 201.668 95.4316 201.899 95.4316C201.929 95.4162 201.929 95.3855 201.96 95.3701C201.976 95.3701 201.991 95.3394 202.006 95.3394C202.221 95.1858 202.529 95.2472 202.759 95.3394C203.251 95.5238 203.481 95.9847 203.619 96.3841" fill="#D73532"/>
<path d="M307.672 98.9343C307.104 99.0419 306.489 98.9958 305.921 98.9958C305.352 98.9958 304.784 98.9958 304.215 98.9804C303.048 98.965 288.852 98.6424 287.7 98.581C285.396 98.4581 283.107 98.2276 280.818 97.9511C279.819 97.8282 280.126 95.9847 281.14 96.0768C283.414 96.2612 285.688 96.3687 287.977 96.4455C289.083 96.4763 303.217 96.7528 304.323 96.7682C304.891 96.7682 305.46 96.7682 306.028 96.7682C306.612 96.7682 307.257 96.7067 307.826 96.7989C308.901 96.9832 308.64 98.7653 307.687 98.9343" fill="#D73532"/>
</svg>
