<svg width="49" height="49" viewBox="0 0 49 49" fill="none" xmlns="http://www.w3.org/2000/svg">
<path d="M24.4001 48.1029C37.6718 48.1029 48.4306 37.3442 48.4306 24.0725C48.4306 10.8008 37.6718 0.0419922 24.4001 0.0419922C11.1284 0.0419922 0.369629 10.8008 0.369629 24.0725C0.369629 37.3442 11.1284 48.1029 24.4001 48.1029Z" fill="#EF7D3E"/>
<path d="M35.6006 13.5724C34.7206 12.3823 33.6206 11.2723 32.4305 10.4022C31.8505 9.98224 31.2305 9.67223 30.5805 9.40223C28.7205 8.3022 26.6104 7.64222 24.3204 7.43222C21.1903 7.15221 17.9802 7.91224 15.2402 9.44227C9.81007 12.4823 7.06003 18.9524 8.23006 25.0025C9.43008 31.2627 14.0102 36.2128 20.4403 37.1828C26.6104 38.1129 33.2006 35.4627 36.6707 30.2226C40.0307 25.1525 39.0807 18.2924 35.6006 13.5623V13.5724ZM31.7605 23.8226C31.7205 24.1026 31.6905 24.3825 31.6405 24.6626C31.5805 24.9626 31.5105 25.2626 31.4305 25.5526C31.3905 25.6826 31.3505 25.8026 31.3205 25.9326C31.3105 25.9726 31.3005 25.9926 31.3005 26.0226C31.3005 26.0226 31.3005 26.0226 31.2905 26.0426C31.0405 26.6026 30.7505 27.1326 30.4205 27.6526C30.4005 27.6926 30.3205 27.7926 30.2705 27.8726C30.2505 27.8926 30.2305 27.9226 30.2205 27.9326C29.9605 28.2226 29.7105 28.5126 29.4305 28.7826C29.2105 28.9926 28.9805 29.1826 28.7605 29.3926C29.2305 28.9626 28.7405 29.3927 28.5005 29.5627C28.0305 29.8827 27.5404 30.1427 27.0304 30.4027C26.9004 30.4627 26.6304 30.5826 26.5304 30.6226C26.2404 30.7326 25.9504 30.8227 25.6604 30.9127C25.3204 31.0127 24.9804 31.0827 24.6504 31.1727C25.4204 30.9727 24.6304 31.1727 24.2804 31.2027C23.7504 31.2627 23.2104 31.2827 22.6803 31.2827C22.5603 31.2827 22.3704 31.2626 22.2303 31.2426C21.8403 31.1926 21.4603 31.1327 21.0803 31.0527C20.9903 31.0327 20.9103 31.0126 20.8203 30.9926C20.5703 30.8526 20.2403 30.7927 19.9703 30.6727C19.7303 30.5727 19.4903 30.4427 19.2503 30.3327C19.0903 30.2227 18.9303 30.1327 18.7703 30.0226C18.5102 29.8426 18.2603 29.6527 18.0302 29.4527C17.9302 29.3627 17.8303 29.2827 17.7303 29.1927C17.7103 29.1627 17.7002 29.1526 17.6602 29.1126C17.2402 28.5926 16.8202 28.0926 16.4402 27.5426C16.4302 27.5226 16.4302 27.5326 16.4202 27.5126C16.3602 27.4126 16.3102 27.3026 16.2502 27.2026C16.1102 26.9226 15.9802 26.6425 15.8602 26.3525C15.6202 25.7925 15.4302 25.2125 15.2802 24.6225C15.2502 24.4625 15.1602 24.0226 15.1502 23.9326C15.1002 23.6226 15.0702 23.3125 15.0402 23.0025C15.0102 22.6925 15.0002 22.3725 14.9902 22.0625C14.9902 21.9225 15.0102 21.5124 15.0102 21.3724C15.1202 20.2024 15.3702 18.9725 15.8702 17.9525C16.1202 17.4424 16.4102 16.9724 16.7302 16.5024C16.8102 16.4023 16.9902 16.1624 17.0702 16.0724C17.3402 15.7724 17.6402 15.5023 17.9302 15.2223C17.9302 15.2223 17.9603 15.1924 17.9803 15.1824C18.0603 15.1224 18.1702 15.0323 18.2102 15.0023C18.4703 14.8323 18.7303 14.6523 19.0003 14.4923C19.2503 14.3423 19.5203 14.2224 19.7703 14.0824C19.9303 14.0224 20.0903 13.9523 20.2503 13.8923C20.8803 13.6723 21.5303 13.5023 22.1803 13.3623C22.5903 13.2823 22.1403 13.3523 22.5603 13.3023C22.9503 13.2623 23.3404 13.2323 23.7304 13.2223C24.3904 13.2023 25.0004 13.2423 25.6004 13.3023C25.6104 13.3123 25.6304 13.3224 25.6404 13.3324C25.7704 13.4924 25.9704 13.6123 26.1304 13.7523C26.5204 14.0723 26.9204 14.3824 27.3104 14.6824C27.7504 15.0224 28.1804 15.3624 28.6105 15.7024C28.4004 15.5424 28.9905 16.0724 29.0905 16.1824C29.3205 16.4424 29.5505 16.7224 29.7605 17.0024C29.9505 17.2524 30.1205 17.5024 30.2905 17.7624C30.3105 17.7924 30.3705 17.8924 30.4205 17.9724C30.4505 18.0224 30.4805 18.0723 30.4805 18.0923C30.7805 18.7324 31.0905 19.3624 31.3105 20.0425C31.4005 20.3125 31.4705 20.5824 31.5505 20.8524C31.5805 21.0024 31.6105 21.1525 31.6305 21.3025C31.7405 21.9525 31.7905 22.6125 31.8005 23.2725C31.8005 23.4625 31.7505 23.9626 31.7805 23.8326L31.7605 23.8226Z" fill="#0C0D0D"/>
</svg>
