<svg width="57" height="13" viewBox="0 0 57 13" fill="none" xmlns="http://www.w3.org/2000/svg">
<path d="M13.0668 5.76003C12.7335 4.48002 12.0002 3.33335 11.0668 2.40002C10.1868 1.53335 8.94683 0.866677 7.68016 0.773343C6.22682 0.213341 4.46682 0.186675 3.10681 0.960011C2.45348 1.33335 1.80014 1.81335 1.34681 2.42668C0.77347 3.20002 0.466802 3.97335 0.346802 4.92002C0.0668006 7.0267 1.32014 9.12004 2.77348 10.5467C4.25348 11.9867 6.46683 13.0801 8.58683 12.8534C9.34684 12.7734 10.1068 12.5467 10.7468 12.1067C11.5468 11.5601 12.0402 11.0134 12.5335 10.1734C13.2935 8.86671 13.4402 7.2267 13.0535 5.77336L13.0668 5.76003Z" fill="#EE7C3D"/>
<path d="M31.2536 2.46667C29.8669 1.21333 28.0802 0.319994 26.1735 0.399994C24.9202 0.453328 23.6402 1.04 22.7735 1.96C22.6802 2.05333 22.6269 2.17333 22.5469 2.28C21.9602 2.8 21.5069 3.50667 21.2669 4.20001C20.7869 5.58668 20.9735 7.01335 21.5202 8.34669C22.2269 10.0934 23.7602 11.3734 25.4002 12.2134C27.7602 13.4267 30.9602 13.1467 32.6269 10.9334C33.4136 9.89336 33.9069 8.60002 33.7602 7.28002C33.5469 5.41335 32.6536 3.72001 31.2669 2.46667H31.2536Z" fill="#FFD061"/>
<path d="M54.147 3.09344C53.1337 2.06677 51.6937 1.29344 50.2537 1.0801C49.1603 0.906769 47.907 0.973436 46.907 1.5201C45.9603 2.05344 45.227 2.85344 44.907 3.90678C44.8536 4.08011 44.827 4.25345 44.787 4.44011C44.5203 4.86678 44.3203 5.32012 44.3203 5.86679C44.3203 6.30679 44.4136 6.74679 44.5603 7.17346C44.547 7.32013 44.5203 7.48013 44.5336 7.62679C44.547 8.16013 44.667 8.6268 44.8536 9.12013C45.3736 10.4801 46.587 11.7068 47.9603 12.2135C48.9337 12.5735 49.8537 12.5868 50.8537 12.3068C51.0403 12.2535 51.2137 12.1468 51.387 12.0668C51.6803 12.0535 51.987 12.0401 52.2937 11.9601C53.227 11.7335 54.1603 11.2801 54.7737 10.4935C55.0537 10.1335 55.2404 9.73347 55.387 9.33347C55.6537 8.9868 55.8937 8.61346 56.0004 8.20013C56.5204 6.28012 55.4403 4.42678 54.1337 3.09344H54.147Z" fill="#60BDAF"/>
</svg>
