<svg width="435" height="331" viewBox="0 0 435 331" fill="none" xmlns="http://www.w3.org/2000/svg">
<path d="M26.8536 4.53679C27.1419 4.53679 27.4303 4.55539 27.7279 4.56469C28.6022 5.30876 29.5136 6.00632 30.4623 6.64807C30.6018 6.78759 30.7414 6.9271 30.8716 7.06661C30.9274 7.11312 30.9832 7.15962 31.039 7.20612C32.0993 8.1176 33.1689 9.01978 34.2478 9.91266C35.4197 10.8799 36.6009 11.8286 37.7821 12.7773C37.9123 12.7401 38.0332 12.6936 38.1448 12.6285C38.4517 11.9216 57.444 5.70869 61.5364 5.7645C73.0229 5.94121 84.4722 6.70388 95.9029 7.81068C100.832 8.28502 105.632 8.35012 110.57 7.91298C115.397 7.48515 120.215 7.15032 125.061 7.03871C125.21 7.02941 125.359 7.01081 125.507 7.00151H126.772C136.817 6.86199 146.871 7.12242 156.907 7.21543C177.648 7.40144 198.389 7.53165 219.129 7.74557C239.88 7.95949 260.63 8.12691 281.38 8.32222C301.358 8.49894 347.304 8.0618 350.131 8.1176C351.341 8.0804 352.55 8.0432 353.749 8.006C357.302 7.87578 360.855 7.65256 364.399 7.42004C366.38 7.28983 368.352 7.16892 370.333 7.12242C370.965 6.9643 371.607 6.9085 372.267 6.86199C373.746 6.75969 375.206 6.75038 376.685 6.86199C378.062 6.9736 379.42 7.20612 380.75 7.57816C380.75 7.57816 380.75 7.57816 380.759 7.57816C382.136 7.83858 383.484 8.29432 384.758 8.90818C385.781 9.41042 387.037 10.0429 387.79 10.9544C388.135 10.3777 388.544 9.82896 388.934 9.29881C389.465 8.58265 389.967 7.81068 390.888 7.61536C391.464 7.49445 412.233 7.63396 422.064 7.87578C422.641 7.95949 423.208 8.0525 423.775 8.16411C424.064 8.16411 424.343 8.16411 424.631 8.18271C424.854 8.20131 425.087 8.21991 425.319 8.23852H425.617C425.617 8.23852 425.691 8.26642 425.729 8.28502C426.5 8.37803 427.272 8.55474 427.886 9.04769C428.333 9.40112 428.649 9.87546 428.891 10.3963C429.384 11.252 429.663 12.2565 429.802 13.2331C430.174 15.7443 430.072 18.3671 430.137 20.8969C430.277 26.3751 430.37 31.8626 430.435 37.3408C430.565 48.1669 430.528 59.0024 430.556 69.8378C430.602 91.8157 430.658 113.794 430.695 135.771C430.732 157.414 430.77 179.057 430.788 200.7C430.797 211.48 430.779 222.269 430.863 233.049C430.909 238.425 430.881 243.8 430.863 249.176C430.835 254.487 431.067 259.788 431.067 265.099C431.039 286.473 431.486 307.864 431.16 329.238C431.16 329.6 431.021 329.796 430.853 329.87C430.779 330.065 430.63 330.205 430.379 330.196C414.121 330.065 397.863 329.842 381.605 329.638C352.717 329.275 323.829 328.875 294.931 328.624C280.403 328.494 265.875 328.466 251.338 328.401C244.809 328.373 238.28 328.326 231.741 328.308C230.365 328.363 228.988 328.438 227.602 328.512C225.277 328.429 222.952 328.354 220.627 328.289C220.041 328.289 219.455 328.289 218.869 328.289C215.13 328.289 211.4 328.029 207.662 327.991C207.634 327.991 207.606 327.973 207.596 327.954C207.364 327.954 207.122 327.945 206.89 327.936C171.342 327.275 135.803 328.047 100.256 328.54C91.4106 328.661 82.5562 328.81 73.7111 328.847C69.4793 328.866 65.2195 328.782 61.0527 328.01C57.0069 327.257 53.1284 325.787 48.9524 326.01C44.674 326.243 40.563 327.684 36.3869 328.503C32.3132 329.294 28.1743 329.731 24.0262 329.907C16.3716 330.233 8.38218 330.047 0.774112 328.698C0.690405 328.094 0.569494 327.489 0.560193 326.875C0.560193 326.708 0.922925 312.385 1.22985 305.363C1.53678 298.257 1.84371 291.151 2.15993 284.054C2.69938 271.601 3.24813 259.147 2.45756 246.693C1.67629 234.518 0.188161 222.278 1.59258 210.085C1.94602 207.053 1.52748 186.386 1.50888 183.41C1.49028 181.513 1.50888 179.625 1.50888 177.727V168.64C1.46237 158.121 1.19265 147.602 1.30426 137.083C0.643901 127.894 0.420681 118.649 0.29047 109.441C0.225364 105.181 0.309071 100.94 0.560193 96.6986C0.811316 92.4481 1.09964 88.1884 0.941527 83.9286C0.783413 79.6967 0.29047 75.4834 0.123055 71.2516C-0.0443598 66.9732 -0.00715649 62.6948 0.0393476 58.4071C0.132356 49.8504 0.225364 41.2843 0.318372 32.7276L0.448584 19.9575C0.485787 16.3395 0.476486 12.7215 0.550893 9.10349C0.662502 8.77796 0.774112 8.45244 0.885722 8.12691C0.941527 7.95949 0.997332 7.79208 1.05314 7.62466C1.05314 7.62466 1.05314 7.62466 1.05314 7.61536C1.05314 7.61536 1.05314 7.61536 1.05314 7.60606C1.08104 7.54095 1.09964 7.46655 1.12754 7.40144C1.28566 6.955 1.48097 6.50856 1.69489 6.09002C1.89951 5.95981 2.12273 5.8482 2.34595 5.7552C2.54127 5.64359 2.73658 5.54128 2.9505 5.45757C3.52715 5.22505 6.10348 5.20645 6.65223 5.18785C9.10765 5.07624 11.5538 4.96463 14.0092 4.87162C16.3251 4.77861 18.641 4.6949 20.9476 4.6019C21.5056 4.58329 22.0637 4.55539 22.6217 4.52749C24.0262 4.52749 25.4399 4.52749 26.8443 4.55539L26.8536 4.53679ZM7.87994 327.731C10.233 327.833 12.5769 327.917 14.93 327.982L7.87994 327.731ZM1.23915 71.5213L1.11824 61.6438L1.34146 39.9636C1.25775 47.1903 1.16475 54.4171 1.11824 61.6438C1.09964 64.9363 1.11824 68.2288 1.23915 71.5213ZM1.58328 114.091L1.60189 100.661C1.44377 104.753 1.48097 108.845 1.56468 112.947C1.56468 113.31 1.58328 113.701 1.59258 114.1L1.58328 114.091ZM430.035 243.782V251.846C430.063 249.158 430.053 246.47 430.035 243.782Z" fill="#0B0C0C"/>
<path d="M30.5741 0.816521C30.8624 0.816521 31.1507 0.835122 31.4483 0.844423C32.3226 1.58849 33.2341 2.28605 34.1828 2.92781C34.3223 3.06732 34.4618 3.20683 34.592 3.34634C34.6478 3.39285 34.7036 3.43935 34.7594 3.48586C35.8197 4.39734 36.8893 5.29952 37.9682 6.19239C39.1401 7.15968 40.3213 8.10836 41.5025 9.05705C41.6327 9.01985 41.7537 8.97334 41.8653 8.90824C42.1722 8.20137 42.4791 7.50381 42.8325 6.79695C43.279 5.89477 43.7626 5.01119 44.237 4.12761C44.6183 3.41145 44.981 2.48137 45.7251 2.07213C46.4599 1.6722 47.4178 1.83961 48.2177 1.85821C49.7431 1.90472 51.2684 1.97912 52.7937 2.06283C56.9233 1.7187 61.1645 1.97912 65.2568 2.04423C76.7433 2.22095 88.1926 2.98361 99.6233 4.09041C104.553 4.56475 109.352 4.62986 114.291 4.19272C119.118 3.76488 123.936 3.43005 128.781 3.31844C128.93 3.30914 129.079 3.29054 129.228 3.28124H130.493C140.538 3.14173 150.592 3.40215 160.627 3.49516C181.368 3.68117 202.109 3.81138 222.85 4.0253C243.6 4.23922 264.35 4.40664 285.1 4.60195C305.078 4.77867 351.024 4.34153 353.852 4.39734C355.061 4.36013 356.27 4.32293 357.47 4.28573C361.023 4.15552 364.576 3.93229 368.119 3.69977C370.1 3.56956 372.072 3.44865 374.053 3.40215C374.686 3.24403 375.328 3.18823 375.988 3.14173C377.467 3.03942 378.927 3.03012 380.406 3.14173C381.782 3.25334 383.14 3.48586 384.47 3.85789C384.47 3.85789 384.47 3.85789 384.48 3.85789C385.856 4.11831 387.205 4.57405 388.479 5.18791C389.502 5.69015 390.758 6.32261 391.511 7.23409C391.855 6.65744 392.264 6.10869 392.655 5.57854C393.185 4.86238 393.687 4.09041 394.608 3.89509C395.185 3.77418 415.953 3.91369 425.784 4.15551C426.361 4.23922 426.928 4.33223 427.496 4.44384C427.784 4.44384 428.063 4.44384 428.351 4.46244C428.575 4.48104 428.807 4.49965 429.04 4.51825H429.337C429.337 4.51825 429.412 4.54615 429.449 4.56475C430.221 4.65776 430.993 4.83447 431.607 5.32742C432.053 5.68085 432.369 6.15519 432.611 6.67604C433.104 7.53171 433.383 8.5362 433.523 9.51279C433.895 12.024 433.792 14.6468 433.858 17.1767C433.997 22.6548 434.09 28.1423 434.155 33.6205C434.285 44.4467 434.248 55.2821 434.276 66.1176C434.323 88.0954 434.378 110.073 434.416 132.051C434.453 153.694 434.49 175.337 434.509 196.98C434.518 207.76 434.499 218.549 434.583 229.328C434.63 234.704 434.602 240.08 434.583 245.456C434.555 250.767 434.788 256.068 434.788 261.379C434.76 282.752 435.206 304.144 434.881 325.517C434.881 325.88 434.741 326.075 434.574 326.15C434.499 326.345 434.35 326.485 434.099 326.475C417.842 326.345 401.584 326.122 385.326 325.917C356.438 325.555 327.549 325.155 298.652 324.904C284.124 324.773 269.596 324.745 255.059 324.68C248.529 324.652 242 324.606 235.462 324.587C234.085 324.643 232.709 324.718 231.323 324.792C228.998 324.708 226.673 324.634 224.347 324.569C223.761 324.569 223.175 324.569 222.589 324.569C218.851 324.569 215.121 324.308 211.382 324.271C211.354 324.271 211.326 324.253 211.317 324.234C211.084 324.234 210.843 324.225 210.61 324.215C175.062 323.555 139.524 324.327 103.976 324.82C95.131 324.941 86.2767 325.09 77.4316 325.127C73.1997 325.145 68.9399 325.062 64.7732 324.29C60.7273 323.536 56.8489 322.067 52.6728 322.29C48.3944 322.523 44.2835 323.964 40.1074 324.783C36.0336 325.573 31.8948 326.01 27.7466 326.187C20.092 326.513 12.1026 326.327 4.49457 324.978C4.41086 324.373 4.28995 323.769 4.28065 323.155C4.28065 322.988 4.64338 308.664 4.95031 301.642C5.25724 294.536 5.56417 287.431 5.88039 280.334C6.41984 267.88 6.96859 255.426 6.17802 242.973C5.39675 230.798 3.90862 218.558 5.31304 206.365C5.66647 203.333 5.24794 182.666 5.22934 179.69C5.21073 177.793 5.22934 175.904 5.22934 174.007V164.92C5.18283 154.401 4.91311 143.882 5.02472 133.363C4.36436 124.173 4.14114 114.928 4.01093 105.72C3.94582 101.461 4.02953 97.2195 4.28065 92.9783C4.53177 88.7279 4.8201 84.4681 4.66199 80.2083C4.50387 75.9764 4.01093 71.7632 3.84351 67.5313C3.6761 63.2529 3.7133 58.9745 3.75981 54.6869C3.85281 46.1301 3.94582 37.5641 4.03883 29.0073L4.16904 16.2373C4.20625 12.6193 4.19694 9.00124 4.27135 5.38322C4.38296 5.05769 4.49457 4.73217 4.60618 4.40664C4.66199 4.23922 4.71779 4.07181 4.7736 3.90439C4.7736 3.90439 4.7736 3.90439 4.7736 3.89509C4.7736 3.89509 4.7736 3.89509 4.7736 3.88579C4.8015 3.82069 4.8201 3.74628 4.848 3.68117C5.00612 3.23473 5.20143 2.78829 5.41535 2.36976C5.61997 2.23955 5.84319 2.12794 6.06641 2.03493C6.26173 1.92332 6.45704 1.82101 6.67096 1.7373C7.24761 1.50478 9.82394 1.48618 10.3727 1.46758C12.8281 1.35597 15.2742 1.24436 17.7296 1.15135C20.0455 1.05834 22.3614 0.974635 24.668 0.881627C25.2261 0.863025 25.7841 0.835123 26.3422 0.80722C27.7466 0.80722 29.1603 0.807219 30.5648 0.835122L30.5741 0.816521ZM11.6004 324.011C13.9535 324.113 16.2973 324.197 18.6504 324.262L11.6004 324.011ZM4.95961 67.801L4.8387 57.9236L5.06192 36.2433C4.97821 43.4701 4.88521 50.6968 4.8387 57.9236C4.8201 61.216 4.8387 64.5085 4.95961 67.801ZM5.30374 110.371L5.32234 96.9405C5.16423 101.033 5.20143 105.125 5.28514 109.227C5.28514 109.59 5.30374 109.98 5.31304 110.38L5.30374 110.371ZM433.755 240.061V248.125C433.783 245.437 433.774 242.749 433.755 240.061Z" fill="white"/>
</svg>
