<svg width="15" height="15" viewBox="0 0 15 15" fill="none" xmlns="http://www.w3.org/2000/svg">
<path d="M13.6702 4.03057C12.4901 2.32053 10.5101 1.35051 8.47004 1.18051C7.27001 0.830499 5.96997 0.790497 4.82994 1.21051C2.98991 1.89052 1.36988 3.52055 1.17987 5.5606C1.14987 5.9306 1.15987 6.28061 1.20987 6.63062C1.00987 7.36063 0.88988 8.12065 0.90988 8.92067C0.979882 11.1907 2.3999 13.3808 4.51994 14.2308C6.53998 15.0408 9.10005 14.9408 10.8801 13.6108C11.6901 13.0108 12.3901 12.2807 12.8501 11.3707C13.4501 10.9307 13.9502 10.3707 14.2902 9.68068C15.2102 7.78064 14.8302 5.7406 13.6601 4.04057L13.6702 4.03057Z" fill="#0C0D0D"/>
</svg>
