<svg width="17" height="17" viewBox="0 0 17 17" fill="none" xmlns="http://www.w3.org/2000/svg">
<path d="M15.5539 10.9067C15.0073 11.9467 14.2473 12.7467 13.4206 13.5467C12.9139 14.04 12.0073 14.52 11.234 14.6933C10.7406 15.1067 10.1939 15.4667 9.62059 15.6667C8.91392 15.9067 8.16726 16.0933 7.42059 16.12C6.40726 16.1467 5.66058 16.0667 4.70058 15.76C3.59391 15.4 2.56725 14.68 1.79392 13.8267C-0.246083 11.6133 -0.152756 8.36001 1.28725 5.85334C3.04725 2.81333 6.52726 0.439998 10.0873 0.399998C11.3406 0.386665 12.6606 0.639998 13.6873 1.4C14.8073 2.22667 15.5273 3.13334 16.0606 4.44001C16.514 5.54667 16.6473 6.86667 16.4739 8.04001C16.3139 9.09334 16.0606 9.97334 15.5539 10.92" fill="#0A0C0D"/>
</svg>
