<svg width="15" height="15" viewBox="0 0 15 15" fill="none" xmlns="http://www.w3.org/2000/svg">
<path d="M10.447 13.9067C9.32696 14.4667 8.02029 15 6.74029 14.72C5.87362 14.5333 5.19362 14.2133 4.58029 13.5467C4.03362 12.9467 3.80695 12.24 3.78029 11.5067C2.96695 11.28 2.22028 10.8 1.74028 10.12C0.860282 8.89332 0.686951 7.51998 1.06028 6.06665C1.55362 4.15998 3.08695 2.63998 4.70029 1.59997C5.96696 0.773307 7.71362 0.22664 9.24696 0.493307C10.567 0.719974 11.647 1.46664 12.487 2.49331C13.1936 3.34664 13.807 4.29331 14.247 5.30664C15.687 8.54665 13.3536 12.4267 10.447 13.9067Z" fill="#0A0C0D"/>
</svg>
