<svg width="55" height="95" viewBox="0 0 55 95" fill="none" xmlns="http://www.w3.org/2000/svg">
<path d="M53.6799 74.7832C52.5599 69.9966 51.0532 65.2899 49.6799 60.5832C46.8665 50.9166 43.9066 41.2899 40.4132 31.8499C38.6932 27.1833 36.8399 22.5566 34.8266 18.0099C33.0932 14.0899 31.1599 10.1699 28.3866 6.86327C23.1332 0.583273 13.5199 -2.68339 6.45324 2.7566C3.14658 5.30327 1.06656 9.16994 0.439897 13.2766C0.0398975 15.9166 0.239903 18.5433 0.799903 21.1033C2.61324 21.1566 4.42656 21.2499 6.25323 21.3833C4.7599 17.0633 4.17324 12.5166 6.42657 8.42327C9.97323 1.98327 18.7466 4.9966 22.8932 9.0766C25.5199 11.6499 27.3599 14.8366 28.9466 18.1299C30.7999 21.9833 32.4266 25.9566 33.9866 29.9433C37.1732 38.0633 39.9199 46.3432 42.4665 54.6766C43.7199 58.7566 44.9199 62.8632 46.1065 66.9566C47.2932 71.0499 48.8399 75.2366 49.4265 79.4632C49.8665 82.6232 49.4532 85.7166 46.6399 87.6099C44.1199 89.3032 40.5465 90.3032 37.5199 90.2366C33.5732 90.1432 31.9599 85.4366 30.3866 82.4632C28.4132 78.7299 26.6265 74.8899 25.0399 70.9832C23.5065 67.2232 22.1599 63.3966 20.9999 59.5166C19.7999 55.5166 18.5066 51.3432 18.1199 47.1699C17.8266 44.0766 18.1199 39.4366 21.7866 38.4233C25.4666 37.4099 27.5866 41.6899 28.6132 44.4499C32.0666 53.7832 34.6399 63.5299 37.4665 73.0632C38.0665 75.0766 42.2932 73.4366 41.7999 71.3966C39.3865 61.3966 36.7465 51.2766 33.1865 41.6232C31.9199 38.1833 29.8665 34.6499 26.0399 33.7833C21.7732 32.8233 17.4399 35.8499 15.2932 39.3166C12.6799 43.5166 13.0799 48.5032 14.0666 53.1299C15.0532 57.7566 16.3732 62.3299 17.8932 66.7966C19.4265 71.2766 21.1999 75.6766 23.2132 79.9566C24.2266 82.1032 25.2932 84.2099 26.4132 86.3032C27.4666 88.2632 28.4799 90.4099 29.9066 92.1432C32.7866 95.6499 37.6665 95.0499 41.5999 94.0366C45.5999 93.0232 49.3599 91.1299 51.8932 87.7832C54.7865 83.9699 54.7332 79.2232 53.6932 74.7699" fill="#0A0C0D"/>
</svg>
