<svg width="59" height="113" viewBox="0 0 59 113" fill="none" xmlns="http://www.w3.org/2000/svg">
<path d="M57.9241 90.6858C57.0184 85.0521 55.6522 79.4797 54.4395 73.9074C51.9526 62.4864 49.3123 51.0961 46.0426 39.8747C44.4308 34.333 42.6654 28.8221 40.6852 23.4033C38.9812 18.7213 37.0777 14.0239 34.1304 9.97134C28.5427 2.26524 17.6743 -2.29395 9.06252 3.44725C5.02526 6.13364 2.29283 10.4472 1.24897 15.1446C0.880553 16.7717 0.727051 18.4143 0.727051 20.0568L6.54497 21.3002C5.97699 17.3858 6.33005 13.4867 8.55592 10.0174C13.1765 2.84857 23.1085 7.03933 27.5756 12.1051C30.4001 15.2981 32.2883 19.1358 33.854 23.0809C35.6961 27.6862 37.2619 32.4296 38.751 37.1729C41.7751 46.8286 44.2926 56.6378 46.5799 66.5083C47.7005 71.3438 48.7597 76.1793 49.7882 81.0302C50.832 85.8657 52.2904 90.8393 52.6281 95.7823C52.8737 99.4818 52.1522 103.028 48.7443 104.993C45.6895 106.758 41.468 107.618 37.9681 107.295C33.3935 106.866 31.9198 101.278 30.3387 97.7165C28.3585 93.2341 26.6085 88.6442 25.0734 83.9775C23.6151 79.5105 22.3563 74.9666 21.3124 70.3614C20.2532 65.6333 19.0866 60.6904 18.9791 55.8242C18.887 52.2167 19.6085 46.8747 23.9374 45.9997C28.2817 45.1247 30.3848 50.2518 31.3519 53.5369C34.6062 64.6355 36.7861 76.1333 39.2882 87.4008C39.8102 89.7801 44.8606 88.2297 44.4461 85.8196C42.4658 74.0456 40.2246 62.1026 36.8782 50.6356C35.6961 46.5523 33.6084 42.3001 29.2334 40.9799C24.3826 39.5216 19.1019 42.6685 16.3388 46.5062C12.977 51.1575 13.023 56.9601 13.7905 62.4097C14.5581 67.8438 15.7094 73.2473 17.1217 78.5434C18.534 83.8547 20.2379 89.0893 22.2182 94.2165C23.216 96.7801 24.2752 99.313 25.4111 101.815C26.4703 104.164 27.4681 106.743 28.9725 108.861C32.012 113.144 37.7378 112.852 42.3584 112.008C47.0711 111.148 51.5842 109.26 54.7926 105.591C58.4614 101.416 58.7684 95.9205 57.9241 90.6705V90.6858Z" fill="#3B5FA9"/>
</svg>
