<svg width="244" height="66" viewBox="0 0 244 66" fill="none" xmlns="http://www.w3.org/2000/svg">
<path d="M0 7.16628V27.6105L241.513 29L244 8.73988C244 8.73988 161.831 8.96588 149.806 8.51389C137.78 8.06189 138.339 6.9361 130.542 7.1621C122.745 7.38809 114.231 10.3135 102.205 9.86149C90.1796 9.4095 16.525 6.25811 0 7.1621V7.16628Z" fill="#7ABDE9"/>
<path d="M70.6017 0.753368C66.5657 2.7497 64.8657 7.48258 65.0082 11.8341C65.096 14.5707 65.7979 17.2624 66.5766 19.8643C67.3992 22.6009 68.2656 25.3262 69.1101 28.0628C70.8101 33.5807 72.5211 39.0875 74.221 44.6054C75.0765 47.3644 75.921 50.1234 76.7765 52.8711C77.5442 55.3385 78.1913 57.9517 79.4087 60.2396C81.4816 64.1201 86.1647 67.81 90.486 65.0286C94.6975 62.3033 94.4563 56.5049 93.184 52.2543C91.3744 46.2204 88.9944 40.3099 86.8118 34.3994C84.9803 29.4535 83.1596 24.4514 81.0977 19.5727C81.0319 19.6176 80.9661 19.6512 80.9003 19.6849C80.4835 19.8756 80.0339 19.9989 79.5842 20.0886C79.4306 20.1223 79.2771 20.1559 79.1236 20.1896C79.0907 20.2008 79.0578 20.212 79.0358 20.2232C80.1655 23.7112 81.4268 27.1543 82.6003 30.6087C84.1906 35.2967 85.8686 39.9735 87.5138 44.6391C88.3692 47.0728 89.3015 49.4953 90.0253 51.9739C90.6505 54.1048 91.1221 56.4376 90.3544 58.6022C89.8389 60.0714 88.7092 61.5294 87.2176 62.0117C85.5286 62.5612 83.8616 61.7313 82.8306 60.3518C81.6022 58.7256 81.0868 56.5946 80.4945 54.6768L78.301 47.5438C76.8423 42.7885 75.3726 38.0332 73.9139 33.2891C72.4443 28.5114 70.8759 23.7449 69.5159 18.9335C68.3863 14.9296 67.6624 10.5107 70.0863 6.85452C71.1391 5.26194 72.8062 3.98339 74.7255 3.86002C76.7984 3.73665 78.7616 4.84697 80.1216 6.38348C81.6351 8.09943 82.6113 10.2416 83.5764 12.3052C83.6093 12.3837 83.6532 12.4622 83.6861 12.5519C83.8067 12.5295 83.9274 12.5183 84.048 12.5183C85.079 12.5183 86.088 12.5519 87.108 12.6641C86.8996 12.2379 86.7022 11.8005 86.4938 11.3743C85.4409 9.14246 84.3222 6.9106 82.7758 4.98156C79.9461 1.45994 75.0326 -1.43363 70.6017 0.764583V0.753368Z" fill="#D83231"/>
</svg>
