<svg width="127" height="112" viewBox="0 0 127 112" fill="none" xmlns="http://www.w3.org/2000/svg">
<path d="M18.8842 24.3154H70.2299C77.5 24.3154 83.3894 30.2049 83.3894 37.475V81.9765C83.3894 89.2466 77.5 95.1361 70.2299 95.1361H55.5576L46.2754 110.954C45.5117 112.261 43.6171 112.261 42.868 110.954L33.6887 95.1361H18.8842C11.6141 95.1361 5.72461 89.2466 5.72461 81.9765V37.475C5.72461 30.2049 11.6141 24.3154 18.8842 24.3154Z" fill="#EF7D40"/>
<path d="M13.2454 20.438H64.5911C71.8612 20.438 77.7507 26.3275 77.7507 33.5975V78.0991C77.7507 85.3691 71.8612 91.2586 64.5911 91.2586H49.9189L40.6367 107.076C39.8729 108.384 37.9783 108.384 37.2293 107.076L28.0499 91.2586H13.2454C5.97536 91.2586 0.0859375 85.3691 0.0859375 78.0991V33.5975C0.0859375 26.3275 5.97536 20.438 13.2454 20.438Z" fill="#FED064"/>
<path d="M38.1684 51.0897C38.1684 51.0897 29.5324 37.1077 19.1194 43.6434C8.7063 50.1938 14.8014 64.1758 38.1684 77.8641C38.1684 77.8641 69.7161 62.9862 62.5782 47.5061C55.4403 32.026 38.1684 51.075 38.1684 51.075V51.0897Z" fill="#D83431"/>
<path d="M113.748 1.00724C112.852 0.2582 111.589 0.390376 110.708 1.08066C106.845 4.0915 103.232 7.51356 99.5748 10.7888C97.7095 12.4631 95.8589 14.1668 94.023 15.8851C92.1872 17.6035 90.2338 19.3072 88.912 21.4809C88.3392 22.4208 89.8079 23.3755 90.6157 22.9496C92.8628 21.7599 94.8015 19.9828 96.7108 18.3379C98.6201 16.6929 100.529 15.048 102.424 13.3884C106.184 10.1279 110.149 7.04358 113.792 3.65089C114.57 2.91654 114.555 1.7122 113.733 1.02192L113.748 1.00724Z" fill="white"/>
<path d="M124.176 27.6345C119.124 29.3382 114.145 31.2475 109.063 32.8777C106.596 33.6708 104.099 34.4199 101.617 35.1689C100.031 35.6389 98.4444 36.1089 96.8582 36.5642C95.7273 36.8873 94.3907 37.5335 93.2157 37.6216C92.4814 37.6804 91.8793 38.3854 92.2758 39.1197C93.6564 41.6752 97.7834 39.8541 99.9277 39.3106C102.806 38.591 105.656 37.7832 108.49 36.946C114.365 35.1983 120.299 33.3477 125.968 31.0125C128.274 30.0725 126.291 26.9148 124.176 27.6345Z" fill="white"/>
<path d="M121.43 61.1209C119.271 60.3572 116.847 60.1663 114.6 59.711C112.441 59.2851 110.282 58.8151 108.123 58.3157C105.979 57.8164 103.849 57.2877 101.72 56.7442C99.7369 56.2302 97.6954 55.584 95.6539 55.3343C94.1706 54.7027 92.2613 56.7295 93.9209 57.8164C95.8596 59.0941 98.4004 59.6376 100.618 60.2691C102.762 60.8713 104.921 61.4441 107.08 61.9581C109.239 62.4722 111.413 62.9568 113.587 63.3974C115.819 63.8527 118.125 64.4696 120.401 64.543C122.237 64.6165 123.486 61.8259 121.444 61.1063L121.43 61.1209Z" fill="white"/>
</svg>
