<svg xmlns="http://www.w3.org/2000/svg" width="1248" height="811" fill="none"><path fill="#3960AA" d="M1247.68 0H0v810.99h1247.68V0Z"/><mask id="a" width="1248" height="811" x="0" y="0" maskUnits="userSpaceOnUse" style="mask-type:luminance"><path fill="#fff" d="M1247.68 0H0v810.99h1247.68V0Z"/></mask><g mask="url(#a)"><path fill="#3960AA" d="M1247.68 0H0v810.99h1247.68V0Z"/></g><path fill="#FED064" d="M1187.57 222.108c0 .063-.02.125-.03.188-.05.759-.08 1.206.03-.188Z"/><path fill="#FED064" d="M1224.3 207.458c-5.75-7.996-12.05-15.554-17.64-23.685-5.16-7.486-9.45-17.145-17.8-21.543-2.21-1.165-5.7.852-6.99 2.526-2.99 3.858-3.65 8.401-3.84 13.142-.21 5.313-.32 10.626-.41 15.94a970.69 970.69 0 0 0-.14 15.263c0 5.188-.64 11.198.57 16.24.5 2.111 4.03 1.768 5.41 1.29 2.01-.707 3.8-2.153 4.08-4.346.04-.614.1-1.435.11-1.654.06-1.486.04-2.984.05-4.481.03-2.412 0-4.835 0-7.247 0-1.913.03-3.816.04-5.729.18-.072.36-.145.55-.218l3.02-1.217c1.99-.8 3.96-1.642 5.94-2.464 1.13-.468 2.26-.946 3.39-1.414.51-.218 1.05-.405 1.58-.613 1.34 1.871 2.69 3.743 4.08 5.594 2.88 3.867 5.69 7.995 9.03 11.489 3.56 3.732 12.08-2.579 8.98-6.873h-.01Zm-34.07-12.591c-.82.374-1.64.759-2.45 1.133 0-.748 0-1.507.01-2.256.06-4.876.15-9.742.29-14.619.02-.967 0-2.058-.02-3.192 3.71 4.804 6.65 10.398 9.95 15.274.02.021.03.042.05.073a1859.72 1859.72 0 0 0-7.82 3.576l-.01.011Z"/><path fill="#fff" d="M673.672 447.604c0 .062-.02.125-.031.187-.052.759-.083 1.206.031-.187Z"/><path fill="#fff" d="M710.396 432.955c-5.75-7.996-12.051-15.555-17.644-23.685-5.157-7.487-9.451-17.146-17.801-21.544-2.204-1.164-5.697.853-6.986 2.527-2.995 3.857-3.65 8.401-3.847 13.142-.208 5.313-.312 10.626-.406 15.939a935.704 935.704 0 0 0-.135 15.263c0 5.189-.645 11.198.561 16.241.499 2.111 4.034 1.767 5.417 1.289 2.007-.707 3.795-2.152 4.076-4.346.042-.613.104-1.435.114-1.653.052-1.487.042-2.984.052-4.481.021-2.412 0-4.835 0-7.247 0-1.913.021-3.816.032-5.729.187-.073.364-.146.551-.218l3.025-1.217c1.986-.801 3.962-1.643 5.937-2.464 1.133-.468 2.256-.946 3.39-1.414.509-.218 1.05-.406 1.58-.614a344.822 344.822 0 0 0 4.076 5.594c2.88 3.868 5.698 7.996 9.035 11.489 3.556 3.733 12.082-2.578 8.983-6.872h-.01Zm-34.062-12.602c-.821.374-1.642.759-2.453 1.133 0-.748 0-1.507.01-2.256.062-4.876.156-9.742.291-14.618.021-.967 0-2.059-.021-3.192 3.712 4.803 6.655 10.397 9.951 15.273.02.021.031.042.052.073-2.61 1.185-5.22 2.381-7.819 3.577l-.011.01Z"/><path fill="#FED064" d="M112.447 292.56c-.063.01-.125.01-.187.031-.739.187-1.175.302.187-.031Z"/><path fill="#FED064" d="M138.003 322.733c5.75-7.996 10.918-16.376 16.844-24.257 5.459-7.268 13.257-14.411 14.775-23.727.405-2.464-2.62-5.126-4.617-5.822-4.606-1.612-9.118-.79-13.683.53-5.105 1.487-10.179 3.078-15.242 4.679a912.805 912.805 0 0 0-14.515 4.731c-4.918 1.653-10.823 2.952-15.221 5.697-1.841 1.144-.395 4.388.499 5.542 1.31 1.684 3.244 2.911 5.417 2.485.603-.156 1.393-.353 1.601-.416 1.435-.426 2.849-.915 4.263-1.383 2.298-.748 4.575-1.539 6.872-2.298 1.81-.603 3.629-1.185 5.438-1.788l.385.447c.707.832 1.414 1.653 2.111 2.485 1.393 1.633 2.817 3.234 4.231 4.845l2.423 2.766c.364.416.717.863 1.081 1.3a309.984 309.984 0 0 0-4.003 5.635c-2.755 3.951-5.77 7.944-8.027 12.217-2.412 4.564 6.28 10.636 9.368 6.342v-.01Zm1.123-36.308c-.613-.655-1.237-1.31-1.861-1.965.718-.228 1.425-.478 2.142-.707a1295.56 1295.56 0 0 1 13.943-4.377c.925-.281 1.944-.655 3.015-1.04-3.379 5.043-7.746 9.607-11.323 14.297-.02.02-.031.041-.052.072-1.954-2.1-3.919-4.19-5.874-6.28h.01Z"/><path fill="#fff" d="M636.668 737.222c-.031-.052-.052-.114-.072-.166-.385-.655-.614-1.04.072.166Z"/><path fill="#fff" d="M614.803 770.17c9.285 3.296 18.767 5.927 27.989 9.431 8.505 3.223 17.53 8.723 26.898 7.579 2.475-.301 4.201-3.951 4.315-6.051.26-4.876-1.778-8.983-4.325-12.997-2.849-4.491-5.791-8.92-8.744-13.339a866.493 866.493 0 0 0-8.578-12.623c-2.953-4.263-5.843-9.575-9.711-13.038-1.612-1.445-4.325.842-5.188 2.028-1.248 1.726-1.893 3.93-.874 5.895.312.53.728 1.237.853 1.424.8 1.258 1.674 2.475 2.506 3.712 1.362 1.996 2.745 3.972 4.127 5.958 1.092 1.57 2.153 3.15 3.234 4.731-.104.166-.218.332-.322.488-.603.905-1.196 1.82-1.799 2.724-1.175 1.789-2.319 3.608-3.473 5.407-.655 1.029-1.32 2.059-1.975 3.098-.302.468-.635.936-.957 1.404a371.076 371.076 0 0 0-6.529-2.277c-4.565-1.539-9.244-3.327-13.964-4.304-5.053-1.04-8.463 8.993-3.483 10.761v-.011Zm35.184-9.035 1.373-2.339c.426.624.852 1.237 1.268 1.861 2.724 4.044 5.417 8.099 8.079 12.175.53.811 1.175 1.684 1.83 2.61-5.781-1.841-11.385-4.762-16.875-6.894-.031 0-.052-.02-.083-.031l4.398-7.392.01.01Z"/><path fill="#EF7D40" d="M1227.29 311.411c-2.13-3.151-5.8-5.459-9.05-7.258-2.09-1.154-4.25-2.183-6.49-2.994-.92-.333-1.86-.645-2.8-.894-.7-.187-1.33-.312-2.04-.395-2.02-.229-3.19-.167-5.26.301-1.44.323-3.1 1.373-2.54 3.099-.03.083 0 .166-.02.249-6.68 15.44-11.24 32.034-15.25 48.348-.6 2.391 2.36 3.244 4.06 2.859 2.48-.551 4.31-2.464 4.91-4.908-.67 2.714.32-1.32.45-1.798.22-.894.44-1.778.67-2.672a327.38 327.38 0 0 1 1.65-6.166c.88-3.244 1.83-6.457 2.78-9.68 2.01.125 4.02.146 6.02.094.78 5.198 2.06 10.355 3.35 15.419 1.49 5.854 3.04 11.79 5.06 17.478.87 2.422 4.83 1.195 6.18.291 1.31-.874 3.19-3.182 2.13-4.845.04-.011.08-.031.13-.042-1.42-2.547-2.02-5.885-2.85-8.682-.8-2.693-1.57-5.385-2.3-8.099-1.09-4.065-1.88-8.308-3.02-12.404 4.12-.759 8.74-1.82 11.96-4.679 3.75-3.317 5.23-8.255 2.27-12.633v.011Zm-7.88 8.006c-1.33.592-3.61 1.237-5.55 1.705-4.12.998-8.34 1.445-12.59 1.414-.11-.042-.23-.094-.33-.135-.11-.042-.24-.052-.35-.083 1.57-4.814 3.21-9.618 4.7-14.453.18.083.38.167.57.25 1.97.925 3.9 2.017 5.75 3.181 1.81 1.134 3.59 2.361 5.25 3.712.76.614 1.43 1.3 2.03 2.09.54.718.93 1.373 1.02 1.965v.115c-.16.083-.33.156-.48.228l-.02.011ZM590.775 351.856c-2.132-3.15-5.802-5.459-9.046-7.257-2.09-1.154-4.252-2.184-6.488-2.995a34.248 34.248 0 0 0-2.807-.894 13.831 13.831 0 0 0-2.038-.395c-2.017-.229-3.192-.166-5.261.302-1.435.322-3.098 1.372-2.537 3.098-.031.083 0 .166-.021.25-6.675 15.44-11.239 32.034-15.253 48.347-.592 2.391 2.361 3.244 4.066 2.859 2.474-.551 4.304-2.464 4.907-4.907-.665 2.713.323-1.321.447-1.799.219-.894.447-1.778.676-2.672a430.03 430.03 0 0 1 1.643-6.166c.884-3.244 1.83-6.456 2.787-9.68 2.006.125 4.013.146 6.02.094.779 5.199 2.058 10.356 3.347 15.419 1.487 5.854 3.036 11.791 5.064 17.478.863 2.423 4.824 1.196 6.176.291 1.31-.873 3.192-3.181 2.131-4.845.042-.01.084-.031.125-.042-1.414-2.547-2.017-5.884-2.849-8.681-.8-2.693-1.57-5.386-2.298-8.1-1.091-4.065-1.881-8.307-3.015-12.404 4.118-.759 8.734-1.819 11.957-4.679 3.754-3.316 5.23-8.255 2.267-12.632v.01Zm-7.881 8.016c-1.331.593-3.608 1.238-5.542 1.706-4.128.998-8.349 1.445-12.591 1.414-.115-.042-.229-.094-.333-.136-.114-.041-.239-.052-.353-.083 1.57-4.814 3.212-9.617 4.699-14.452.187.083.385.166.572.25 1.975.925 3.899 2.017 5.75 3.181 1.809 1.133 3.587 2.36 5.25 3.712.759.613 1.435 1.3 2.028 2.09.54.717.936 1.372 1.019 1.965v.114c-.156.083-.323.156-.479.229l-.02.01Z"/><path fill="#FED064" d="M584.952 105.543c2.049-.749 4.378-2.922 3.827-5.116-.572-2.277-3.598-2.485-5.636-2.058-2.256.478-4.45 1.31-6.623 2.058-2.786.967-5.562 1.955-8.307 3.036-4.658 1.82-9.399 3.775-13.735 6.197a8.213 8.213 0 0 0-1.861 1.435c-1.206.457-2.028 1.258-1.872 2.443.624 4.648 2.527 9.15 4.211 13.558 1.591 4.19 3.244 8.37 4.939 12.529a613.22 613.22 0 0 0 5.251 12.435c1.767 4.066 3.316 8.433 5.562 12.29 2.475 4.232 12.529.582 10.668-4.045-1.612-4.013-3.785-7.87-5.604-11.801a503.896 503.896 0 0 1-5.334-11.873c-.135-.302-.25-.603-.385-.905.291-.114.593-.229.884-.343a98.732 98.732 0 0 0 4.024-1.736 130.959 130.959 0 0 0 7.486-3.65c1.393-.738 2.89-1.695 3.431-3.161.343-.925.208-2.017-.531-2.755-.977-.988-2.64-1.164-3.982-1.05-2.505.208-4.678 1.695-6.841 2.807-2.298 1.175-4.606 2.319-6.966 3.379l-.219.094c-.655-1.56-1.33-3.119-1.975-4.689-1.362-3.338-2.547-6.935-4.325-10.148 3.639-1.549 7.278-3.088 10.979-4.492 4.325-1.653 8.412-2.807 12.893-4.439h.041Z"/><path fill="#78BFEA" d="M974.82 604.438c2.048-.749 4.377-2.922 3.826-5.116-.572-2.277-3.597-2.485-5.635-2.058-2.256.478-4.45 1.31-6.623 2.058-2.787.967-5.563 1.955-8.308 3.036-4.658 1.82-9.399 3.775-13.734 6.197a8.24 8.24 0 0 0-1.862 1.435c-1.206.457-2.027 1.258-1.871 2.443.624 4.648 2.527 9.15 4.211 13.558 1.591 4.19 3.244 8.37 4.939 12.529a618.938 618.938 0 0 0 5.25 12.435c1.768 4.066 3.317 8.433 5.563 12.29 2.474 4.232 12.529.582 10.667-4.045-1.611-4.013-3.784-7.87-5.604-11.801a503.896 503.896 0 0 1-5.334-11.873c-.135-.302-.249-.603-.384-.905.291-.114.592-.229.884-.343a98.692 98.692 0 0 0 4.023-1.736 130.634 130.634 0 0 0 7.486-3.65c1.394-.738 2.891-1.695 3.432-3.161.343-.925.207-2.017-.531-2.755-.977-.988-2.641-1.164-3.982-1.05-2.506.208-4.679 1.695-6.841 2.807-2.298 1.175-4.606 2.319-6.967 3.379l-.218.094c-.655-1.56-1.331-3.119-1.975-4.689-1.362-3.338-2.548-6.935-4.326-10.148 3.639-1.549 7.278-3.088 10.98-4.492 4.325-1.653 8.411-2.807 12.893-4.439h.041ZM251.074 32.159c2.048-.749 4.377-2.922 3.826-5.115-.572-2.277-3.597-2.486-5.635-2.06-2.256.48-4.45 1.31-6.623 2.06-2.787.966-5.563 1.954-8.308 3.035-4.658 1.82-9.399 3.775-13.734 6.197a8.197 8.197 0 0 0-1.862 1.435c-1.206.458-2.027 1.258-1.871 2.444.624 4.647 2.526 9.15 4.211 13.558 1.591 4.19 3.244 8.37 4.939 12.528a615.13 615.13 0 0 0 5.25 12.436c1.768 4.065 3.317 8.432 5.563 12.29 2.474 4.23 12.528.581 10.667-4.045-1.611-4.014-3.784-7.871-5.604-11.801a504.683 504.683 0 0 1-5.334-11.874c-.135-.302-.249-.603-.384-.905.291-.114.592-.228.883-.343a97.59 97.59 0 0 0 4.024-1.736 130.628 130.628 0 0 0 7.486-3.65c1.394-.738 2.891-1.694 3.431-3.16.343-.926.208-2.017-.53-2.756-.977-.987-2.641-1.164-3.982-1.05-2.506.208-4.679 1.695-6.841 2.808-2.298 1.174-4.606 2.318-6.967 3.379l-.218.093c-.655-1.56-1.331-3.119-1.976-4.689-1.362-3.337-2.547-6.935-4.325-10.148 3.639-1.549 7.278-3.088 10.98-4.491 4.325-1.654 8.411-2.808 12.892-4.44h.042Z"/><path fill="#EF7D40" d="M188.95 411.879c1.788-.707 3.826-2.745 3.338-4.814-.499-2.142-3.14-2.339-4.908-1.934-1.965.447-3.889 1.227-5.77 1.934a181.742 181.742 0 0 0-7.247 2.849c-4.066 1.716-8.193 3.546-11.978 5.823a7.63 7.63 0 0 0-1.622 1.341c-1.05.426-1.768 1.175-1.632 2.298.54 4.367 2.204 8.609 3.67 12.747a511.74 511.74 0 0 0 4.315 11.77 619.357 619.357 0 0 0 4.585 11.696c1.539 3.816 2.89 7.934 4.855 11.552 2.163 3.972 10.928.551 9.306-3.806-1.404-3.763-3.296-7.392-4.887-11.093a549.957 549.957 0 0 1-4.647-11.157c-.115-.28-.219-.572-.333-.852.26-.104.52-.219.78-.323 1.185-.509 2.35-1.071 3.514-1.632a111.774 111.774 0 0 0 6.53-3.431c1.216-.697 2.516-1.591 2.994-2.974.302-.873.177-1.892-.457-2.589-.853-.925-2.298-1.091-3.473-.987-2.184.197-4.086 1.59-5.968 2.64a124.35 124.35 0 0 1-6.259 3.276c-.572-1.466-1.165-2.932-1.716-4.409-1.185-3.14-2.225-6.519-3.764-9.534 3.171-1.456 6.353-2.901 9.576-4.221 3.774-1.55 7.341-2.631 11.24-4.17h-.042Z"/><path fill="#FED064" d="M349.599 467.536c-.946-2.485-4.325-2.048-6.062-1.185-9.534 4.772-19.068 9.545-28.603 14.307a590.615 590.615 0 0 1 8.318-30.038c1.227-4.014-3.743-4.471-5.957-3.411a457.727 457.727 0 0 1-27.938 12.269c1.923-4.19 3.899-8.359 5.978-12.456 3.224-6.352 6.925-12.414 10.065-18.798 1.851-3.764-6.166-4.492-7.829-1.944-8.048 12.32-14.546 26.232-20.514 39.894-1.684 3.868 3.649 4.367 5.635 3.639a436.359 436.359 0 0 0 29.092-11.905 585.088 585.088 0 0 0-8.016 30.267c-.957 4.034 3.639 4.543 6.02 3.358 12.175-6.082 24.361-12.134 36.546-18.195 1.83-.915 4.211-3.306 3.255-5.802h.01ZM839.218 769.245c-.946-2.485-4.325-2.048-6.061-1.185-9.535 4.772-19.069 9.545-28.603 14.306a590.866 590.866 0 0 1 8.318-30.037c1.226-4.014-3.743-4.471-5.958-3.411a457.727 457.727 0 0 1-27.938 12.269c1.924-4.19 3.899-8.359 5.979-12.456 3.223-6.353 6.924-12.414 10.064-18.798 1.851-3.764-6.165-4.492-7.829-1.944-8.047 12.32-14.546 26.232-20.514 39.894-1.684 3.868 3.65 4.367 5.636 3.639a436.334 436.334 0 0 0 29.091-11.905 586.102 586.102 0 0 0-8.016 30.267c-.957 4.034 3.639 4.543 6.02 3.358 12.175-6.082 24.361-12.134 36.547-18.195 1.829-.915 4.21-3.307 3.254-5.802h.01ZM1052.32 47.931c-1.61-2.12-4.73-.738-6.14.583-7.79 7.278-15.58 14.556-23.38 21.824a611.675 611.675 0 0 1-.54-31.171c.04-4.2-4.85-3.224-6.67-1.58a460.132 460.132 0 0 1-23.313 19.681c.655-4.564 1.373-9.118 2.204-13.641 1.29-7.008 3.12-13.87 4.326-20.888.707-4.128-7.185-2.558-8.058.353-4.222 14.1-6.509 29.28-8.36 44.075-.52 4.18 4.741 3.16 6.436 1.892a436.434 436.434 0 0 0 24.515-19.661c.03 10.418.31 20.856.9 31.295.22 4.139 4.78 3.328 6.72 1.508 9.95-9.285 19.92-18.538 29.9-27.813 1.49-1.393 3.09-4.367 1.47-6.488l-.01.032ZM159.807 710.136c2.651.208 3.711-3.025 3.67-4.969-.219-10.658-.447-21.315-.655-31.972 8.037 6.613 15.908 13.402 23.57 20.399 3.099 2.828 5.646-1.466 5.636-3.919-.042-10.2.26-20.369.904-30.506 2.964 3.535 5.875 7.101 8.682 10.74 4.357 5.636 8.245 11.573 12.664 17.156 2.599 3.285 6.696-3.65 5.115-6.239-7.683-12.559-17.457-24.392-27.24-35.641-2.766-3.182-5.511 1.424-5.709 3.535a444.113 444.113 0 0 0-1.726 31.379 593.997 593.997 0 0 0-23.903-20.223c-3.233-2.589-5.666 1.341-5.614 4.003.27 13.61.509 27.21.759 40.82.041 2.048 1.185 5.219 3.836 5.427l.011.01Z"/><path fill="#78BFEA" d="M1131.9 100.064c-6.79-.551-13.59-1.071-20.38-1.695-7.6-.697-15.87-2.329-23.38-.686-1.06.228-2.16.613-2.72 1.518-.64 1.008-.1 1.351.25 2.266 1.18 3.192 9.63 3.379 12.68 3.743 3.01.354 6.02.655 9.04.947-.52 6.165-.78 12.352-1.42 18.507a323.82 323.82 0 0 1-2.91 21.262c-.12.707-.23 1.414-.38 2.111-.09.343-.46.998-.3 1.019-.99.405-3.08.395-3.94.426-2.73.094-5.19-.686-6.97-2.63-4.73-5.178-1.6-11.895-.38-17.624 1.11-5.126-8.16-3.722-9.48-.062-2.58 7.122-4.11 15.845 1.3 22.26 5.32 6.322 18.07 6.769 24.95 2.34 4.1-2.631 4.79-6.499 5.47-10.73.74-4.554 1.39-9.108 1.93-13.683.58-4.866 1.07-9.742 1.45-14.629.2-2.547.45-5.136.57-7.736 3.49.26 6.97.499 10.46.666 2.63.125 5.56-1.238 6.74-3.442 1.08-2.006-.09-3.972-2.56-4.169l-.02.021Z"/><path fill="#FED064" d="M683.966 216.961c-6.79-.551-13.589-1.071-20.379-1.695-7.6-.696-15.877-2.329-23.383-.686-1.061.229-2.163.614-2.725 1.518-.634 1.009-.093 1.352.25 2.267 1.185 3.192 9.638 3.379 12.685 3.743 3.005.353 6.02.655 9.035.946-.52 6.166-.78 12.352-1.414 18.507a325.989 325.989 0 0 1-2.911 21.263c-.125.707-.229 1.414-.385 2.11-.083.343-.458.998-.291 1.019-.998.406-3.088.395-3.941.427-2.734.093-5.198-.687-6.976-2.631-4.731-5.178-1.601-11.894-.375-17.623 1.103-5.126-8.161-3.723-9.482-.063-2.578 7.122-4.107 15.846 1.3 22.261 5.323 6.321 18.07 6.769 24.953 2.339 4.097-2.63 4.783-6.498 5.469-10.73a321.454 321.454 0 0 0 1.924-13.683 361.862 361.862 0 0 0 1.455-14.629c.198-2.547.447-5.136.572-7.735 3.483.26 6.966.499 10.46.665 2.63.125 5.552-1.237 6.737-3.441 1.082-2.007-.093-3.972-2.557-4.17l-.021.021Z"/><path fill="#EF7D40" d="M594.653 603.283c-6.789-.551-13.589-1.07-20.379-1.694-7.6-.697-15.876-2.329-23.383-.687-1.061.229-2.163.614-2.724 1.519-.635 1.008-.094 1.351.249 2.266 1.185 3.192 9.638 3.379 12.685 3.743 3.005.354 6.02.655 9.035.946-.52 6.166-.78 12.352-1.414 18.507a325.212 325.212 0 0 1-2.911 21.263c-.125.707-.229 1.414-.385 2.111-.083.343-.457.998-.291 1.019-.998.405-3.088.395-3.941.426-2.734.093-5.198-.686-6.976-2.631-4.731-5.178-1.601-11.894-.374-17.623 1.102-5.126-8.162-3.722-9.483-.063-2.578 7.123-4.107 15.846 1.3 22.261 5.323 6.322 18.07 6.769 24.953 2.34 4.097-2.631 4.783-6.499 5.469-10.73a320.078 320.078 0 0 0 1.924-13.683 363.866 363.866 0 0 0 1.456-14.629c.197-2.548.447-5.137.571-7.736 3.483.26 6.967.499 10.46.666 2.631.124 5.552-1.238 6.737-3.442 1.082-2.007-.093-3.972-2.557-4.169l-.021.02Z"/><path fill="#FED064" d="M1159.23 428.754c-3.56-6.914-12.89-5.084-18.85-3.067-1.81.614-3.58 1.31-5.32 2.1 1.84-3.431 3.51-6.935 4.82-10.594 1.83-5.085 4.69-13.028.93-17.957-5.01-6.581-15.89-1.559-21.7 1.196-6.85 3.255-13.86 7.809-18.96 13.465-.4.436-.63.831-.78 1.206-.98.655-1.71 1.653-1.1 2.828 4.59 9.014 9.44 17.758 14.8 26.357a571.53 571.53 0 0 0 7.85 12.258c1.33 2.007 2.68 4.014 4.03 6 .66.977 1.32 1.965 2.02 2.911.99 1.31 2.07 1.476 3.63 1.767.11.021.24 0 .36.021 2.21.676 4.8-.717 6.33-2.162a132.822 132.822 0 0 0 15.94-18.112c3.54-4.846 9.26-11.895 6-18.227v.01Zm-52.18-11.634c4.31-3.099 8.08-6.53 12.83-9.046a67.33 67.33 0 0 1 3.58-1.757 85.227 85.227 0 0 1 7.06-2.838c.6-.24 1.24-.416 1.88-.52 1.21.613 1.03 3.701.94 4.751-.87 10.377-7.31 20.712-13.12 29.227-4.36-6.633-8.75-13.225-13.17-19.807v-.01Zm36.09 30.474c-2.79 3.567-5.8 6.925-8.95 10.148-.31-.437-.63-.884-.95-1.341-1.34-1.965-2.67-3.93-4-5.906-1.66-2.485-3.32-4.98-4.97-7.465.77-.343 1.49-.78 2.06-1.258 2.77-2.288 23.72-16.251 24.42-7.715.4 4.7-4.97 10.148-7.62 13.537h.01ZM792.555 565.749c1.123-7.694-7.517-11.635-13.547-13.464a57.595 57.595 0 0 0-5.542-1.383c3.493-1.716 6.893-3.608 10.085-5.812 4.45-3.068 11.396-7.861 11.209-14.058-.25-8.265-12.02-10.522-18.341-11.655-7.465-1.341-15.814-1.715-23.259-.083a4.058 4.058 0 0 0-1.341.53c-1.175-.031-2.35.354-2.547 1.664-1.498 10.002-2.652 19.942-3.296 30.048-.312 4.845-.572 9.69-.749 14.546a869.16 869.16 0 0 0-.229 7.216c-.031 1.185-.073 2.37-.041 3.555.041 1.643.821 2.402 1.923 3.556.073.083.187.146.27.219 1.414 1.83 4.326 2.214 6.405 1.923a132.919 132.919 0 0 0 23.498-5.458c5.708-1.882 14.452-4.284 15.482-11.334l.02-.01Zm-35.652-39.822c5.303-.01 10.366-.613 15.7.104 1.321.177 2.631.406 3.93.655a87.159 87.159 0 0 1 7.393 1.799 9.396 9.396 0 0 1 1.83.666c.623 1.206-1.321 3.607-2.007 4.408-6.738 7.933-17.998 12.591-27.678 16.137.323-7.933.583-15.846.822-23.769h.01Zm11.614 45.79c-4.346 1.279-8.744 2.256-13.184 3.047 0-.541 0-1.082.01-1.643.052-2.381.105-4.752.177-7.122.094-2.984.198-5.979.302-8.963.821.177 1.663.229 2.412.177 3.577-.25 28.738.582 24.35 7.943-2.412 4.045-9.95 5.365-14.077 6.572l.01-.011ZM440.336 328.867c-3.556-6.914-12.882-5.084-18.85-3.067a56.864 56.864 0 0 0-5.313 2.1c1.84-3.431 3.504-6.935 4.814-10.595 1.83-5.084 4.689-13.027.936-17.956-5.012-6.581-15.898-1.559-21.7 1.196-6.851 3.254-13.859 7.808-18.964 13.464-.395.437-.634.832-.78 1.207-.977.655-1.705 1.653-1.102 2.828 4.595 9.014 9.441 17.758 14.806 26.357a556.367 556.367 0 0 0 7.85 12.258 585.664 585.664 0 0 0 4.023 5.999c.666.978 1.321 1.966 2.028 2.912.988 1.31 2.069 1.476 3.629 1.767.103.021.239 0 .353.021 2.215.676 4.804-.717 6.332-2.163a132.62 132.62 0 0 0 15.939-18.112c3.546-4.845 9.264-11.894 5.999-18.226v.01Zm-52.163-11.634c4.304-3.099 8.079-6.53 12.83-9.046a66.867 66.867 0 0 1 3.577-1.757 85.023 85.023 0 0 1 7.06-2.839 9.02 9.02 0 0 1 1.882-.52c1.206.614 1.029 3.702.935 4.752-.863 10.377-7.309 20.712-13.121 29.227a2320.312 2320.312 0 0 0-13.163-19.807v-.01Zm36.089 30.474c-2.797 3.566-5.802 6.925-8.952 10.148-.312-.437-.634-.884-.946-1.341a1221.767 1221.767 0 0 1-4.003-5.906c-1.664-2.485-3.317-4.98-4.97-7.465a8.939 8.939 0 0 0 2.059-1.258c2.765-2.288 23.716-16.251 24.423-7.715.395 4.699-4.97 10.148-7.621 13.537h.01Z"/><path fill="#fff" d="M880.246 240.771c-3.556-6.914-12.882-5.084-18.85-3.067a56.864 56.864 0 0 0-5.313 2.1c1.84-3.431 3.504-6.935 4.814-10.595 1.83-5.084 4.689-13.028.936-17.956-5.012-6.581-15.898-1.56-21.7 1.196-6.851 3.254-13.859 7.808-18.964 13.464-.395.437-.635.832-.78 1.206-.977.655-1.705 1.654-1.102 2.828 4.595 9.015 9.441 17.759 14.806 26.358a555.043 555.043 0 0 0 7.85 12.258 596.859 596.859 0 0 0 4.023 5.999c.666.978 1.321 1.965 2.028 2.912.988 1.31 2.069 1.476 3.628 1.767.104.021.24 0 .354.021 2.215.676 4.804-.718 6.332-2.163a132.62 132.62 0 0 0 15.939-18.112c3.545-4.845 9.264-11.894 5.999-18.226v.01Zm-52.173-11.635c4.304-3.098 8.078-6.529 12.83-9.045a66.497 66.497 0 0 1 3.577-1.757 84.657 84.657 0 0 1 7.059-2.839 9.036 9.036 0 0 1 1.882-.52c1.206.614 1.03 3.702.936 4.752-.863 10.376-7.309 20.711-13.121 29.227a2352.514 2352.514 0 0 0-13.163-19.807v-.011Zm36.089 30.475c-2.797 3.566-5.802 6.925-8.952 10.148-.312-.437-.635-.884-.947-1.342-1.341-1.965-2.672-3.93-4.003-5.905-1.663-2.485-3.316-4.981-4.97-7.465a8.92 8.92 0 0 0 2.059-1.259c2.766-2.287 23.716-16.251 24.423-7.714.396 4.699-4.969 10.147-7.621 13.537h.011ZM1209.1 770.961c1.94-7.528-6.24-12.362-12.03-14.837a54.191 54.191 0 0 0-5.36-1.965c3.65-1.331 7.23-2.849 10.64-4.7 4.76-2.578 12.18-6.602 12.65-12.778.63-8.245-10.84-11.739-16.99-13.537-7.28-2.132-15.55-3.39-23.11-2.558-.59.062-1.03.198-1.39.385-1.16-.156-2.37.104-2.71 1.383-2.56 9.783-4.76 19.546-6.48 29.517-.82 4.783-1.6 9.576-2.29 14.38-.34 2.381-.67 4.772-.98 7.153-.16 1.175-.33 2.35-.43 3.525-.14 1.643.56 2.485 1.53 3.733.06.083.16.166.25.249 1.2 1.976 4.06 2.662 6.16 2.599 8.04-.239 16.09-1.226 23.95-2.921 5.87-1.258 14.83-2.724 16.6-9.618l-.01-.01Zm-31.21-43.388c5.27.551 10.38.499 15.6 1.778 1.29.322 2.56.676 3.84 1.071a87.78 87.78 0 0 1 7.17 2.568c.61.229 1.19.509 1.74.853.5 1.258-1.69 3.441-2.46 4.169-7.55 7.174-19.24 10.595-29.24 13.1 1.17-7.85 2.27-15.699 3.35-23.549v.01Zm6.68 46.757c-4.47.8-8.94 1.31-13.44 1.622.06-.541.12-1.082.19-1.633.3-2.36.61-4.71.93-7.07.41-2.963.84-5.926 1.26-8.879.8.26 1.64.405 2.38.426 3.59.135 28.52 3.65 23.37 10.491-2.84 3.764-10.47 4.273-14.69 5.032v.011Z"/><path fill="#78BFEA" d="M273.855 319.946c-7.289-13.111-23.467-17.717-37.067-11.998-12.872 5.417-15.575 19.536-11.312 31.68 1.185 3.39 2.89 6.613 4.949 9.556 2.142 3.067 4.658 7.018 8.141 8.577 3.036 1.362 9.971-1.32 7.715-5.396-.936-1.695-2.495-2.911-3.826-4.315a54.592 54.592 0 0 1-3.057-3.524c-1.996-2.506-3.826-5.147-5.126-8.09-2.526-5.697-2.235-12.84 1.352-18.06 3.68-5.365 10.189-5.822 16.074-4.626 5.594 1.133 11.188 4.044 14.962 8.349 1.871 2.141 9.378 1.788 7.184-2.153h.011ZM699.905 623.101c-13.568 6.394-19.235 22.24-14.431 36.182 4.543 13.205 18.455 16.834 30.859 13.392 3.462-.957 6.789-2.443 9.867-4.294 3.202-1.934 7.309-4.18 9.097-7.548 1.56-2.932-.655-10.034-4.876-8.058-1.757.821-3.078 2.297-4.564 3.524a61.088 61.088 0 0 1-3.723 2.818c-2.63 1.83-5.396 3.473-8.411 4.575-5.854 2.131-12.955 1.372-17.925-2.548-5.115-4.034-5.126-10.553-3.545-16.344 1.507-5.5 4.772-10.886 9.326-14.38 2.256-1.726 2.402-9.232-1.674-7.319ZM375.54 533.716c-14.587-3.504-28.925 5.302-33.905 19.183-4.721 13.142 3.857 24.683 15.679 29.767 3.296 1.414 6.831 2.339 10.387 2.828 3.712.499 8.318 1.321 11.821-.187 3.057-1.31 5.781-8.235 1.248-9.337-1.882-.457-3.836-.135-5.77-.104a53.919 53.919 0 0 1-4.669-.135c-3.192-.218-6.373-.665-9.42-1.705-5.905-1.996-10.969-7.039-12.383-13.215-1.466-6.342 2.61-11.447 7.465-14.962 4.627-3.348 10.543-5.5 16.272-5.375 2.839.062 7.653-5.698 3.275-6.748v-.01ZM963.591 315.278c-13.568 6.395-19.235 22.24-14.431 36.183 4.543 13.205 18.455 16.833 30.859 13.392 3.462-.957 6.789-2.444 9.867-4.294 3.202-1.934 7.309-4.18 9.097-7.549 1.557-2.932-.655-10.033-4.876-8.058-1.757.822-3.078 2.298-4.564 3.525a61.088 61.088 0 0 1-3.723 2.818c-2.63 1.83-5.396 3.472-8.411 4.574-5.854 2.132-12.955 1.373-17.925-2.547-5.115-4.034-5.126-10.553-3.545-16.344 1.507-5.501 4.772-10.886 9.326-14.38 2.256-1.726 2.402-9.233-1.674-7.32Z"/><path fill="#fff" d="M1209.59 61.344c-2.53-7.736-9.27-13.132-16.15-16.116-8.19-3.556-19.02-5.5-27.64-2.703-.23.073-.47.166-.72.28-2.65-.29-5.65.999-4.73 3.556 3.53 9.816 6.81 19.682 10.75 29.331 1.89 4.648 3.85 9.254 5.93 13.808 2.01 4.419 3.81 9.576 6.57 13.506.39.561.94.915 1.56 1.133.11.052.23.094.34.125.03 0 .05.01.08.021 1.96.551 4.43-.312 5.86-1.612 10.86-9.95 23.58-24.673 18.14-41.329h.01Zm-19.62 31.94c-1.15-2.287-2.37-4.533-3.43-6.789-2.45-5.22-4.9-10.45-7.23-15.742-3.09-7.018-6.28-14.067-9.08-21.252 1.5.125 3.01.198 3.67.281 1.62.219 3.22.5 4.82.853 3.07.676 6.03 1.674 8.89 3.056 5.13 2.475 10.51 6.02 12.51 11.968 3.63 10.792-3.09 20.181-10.15 27.636v-.01Z"/><path fill="#FED064" d="M89.25 552.358c5.282-5.417 6.79-13.61 6.26-20.909-.635-8.713-3.754-19.111-9.805-25.578a8.99 8.99 0 0 0-.54-.52c-.916-2.464-3.286-4.585-4.991-2.724-6.561 7.164-13.267 14.12-19.506 21.575-3.005 3.587-5.957 7.215-8.806 10.927-2.766 3.598-6.239 7.31-8.276 11.365-.292.582-.344 1.216-.26 1.84.01.125.02.239.052.353 0 .032.01.052.02.084.395 1.965 2.194 3.795 3.879 4.512 12.934 5.531 30.61 10.72 41.984-.925h-.01Zm-34.883-4.243c1.383-1.954 2.714-3.961 4.108-5.832 3.233-4.326 6.487-8.63 9.835-12.862 4.44-5.625 8.87-11.343 13.569-16.781.55 1.393 1.154 2.745 1.372 3.369.53 1.518.988 3.067 1.393 4.626.78 2.995 1.248 6.031 1.352 9.119.198 5.552-.385 11.78-4.419 15.991-7.32 7.642-17.987 5.573-27.21 2.37Z"/><path fill="#78BFEA" d="M827.729 346.896c-1.674-7.371-7.735-13.1-14.15-16.625-7.653-4.211-18.071-7.247-26.805-5.677a7.419 7.419 0 0 0-.727.177c-2.558-.572-5.636.26-5.002 2.713 2.444 9.4 4.638 18.809 7.507 28.104 1.383 4.471 2.818 8.921 4.378 13.33 1.518 4.273 2.744 9.212 5.042 13.121.333.562.832.946 1.404 1.227.104.052.218.104.322.156.021 0 .052.021.073.031 1.861.738 4.377.229 5.906-.8 11.676-7.85 25.65-19.859 22.052-35.736v-.021Zm-22.531 26.971c-.894-2.225-1.85-4.429-2.661-6.613-1.872-5.063-3.712-10.137-5.449-15.242-2.308-6.779-4.699-13.61-6.706-20.514 1.466.291 2.932.53 3.566.686 1.57.385 3.109.832 4.638 1.341 2.932.978 5.739 2.236 8.39 3.827 4.762 2.859 9.67 6.727 11.021 12.404 2.433 10.293-5.105 18.122-12.799 24.121v-.01ZM467.567 642.939c-2.163-7.247-8.588-12.55-15.232-15.638-7.923-3.691-18.518-6.02-27.127-3.878-.229.052-.468.135-.717.218-2.6-.405-5.604.634-4.804 3.036 3.067 9.212 5.885 18.455 9.358 27.532 1.674 4.367 3.4 8.713 5.261 13.007 1.798 4.169 3.348 9.004 5.905 12.758.364.54.895.894 1.487 1.123.115.052.219.093.333.135.031 0 .052.01.083.021 1.903.613 4.377-.063 5.833-1.196 11.125-8.609 24.267-21.523 19.62-37.129v.011Zm-20.67 28.415c-1.04-2.162-2.142-4.294-3.099-6.425-2.204-4.928-4.377-9.867-6.456-14.848-2.756-6.612-5.594-13.267-8.058-20.014 1.487.187 2.963.332 3.608.436 1.591.281 3.161.624 4.72 1.03a42.48 42.48 0 0 1 8.63 3.254c4.939 2.537 10.106 6.072 11.822 11.645 3.119 10.117-3.889 18.424-11.167 24.922Z"/><path fill="#EF7D40" d="M1139.46 644.571c-1.87-.904-4.25-.062-6.01.604l-4.08 1.559c-2.73 1.04-5.46 2.069-8.19 3.109-3.12 1.185-6.24 2.402-9.34 3.608-1.21.468-2.43.998-3.64 1.518-2-5.885-4.05-11.76-6.04-17.655 1.83-.468 3.65-.998 5.45-1.507 2.41-.666 4.84-1.29 7.19-2.111 1.26-.437 2.57-1.341 3.38-2.402.59-.78 1.26-2.09 1.03-3.119-.58-2.651-3.43-2.537-5.5-1.976-2.66.718-5.28 1.654-7.9 2.527-1.98.665-3.95 1.341-5.9 2.048-1.83-5.302-3.72-10.605-5.43-15.939.12-.031.24-.062.36-.104 1.23-.353 2.47-.717 3.7-1.081 2.34-.707 4.67-1.466 6.98-2.236 4.71-1.57 9.39-3.212 14.01-5.032 2.14-.842 4.76-3.275 4.24-5.833-.54-2.651-3.76-2.495-5.7-1.778-5.49 2.049-10.98 4.066-16.54 5.896-2.7.894-5.41 1.767-8.14 2.62-1.61.509-3.58 1.112-5.11 2.142-1.83.363-3.34 1.507-2.83 3.337 2.33 8.411 4.28 16.885 6.85 25.245 2.45 8.006 4.92 16.064 7.82 23.914 1.04 2.817 5.5 2.245 7.89.28 2.82-.769 5.66-2.09 7.54-2.776 3.24-1.185 6.49-2.36 9.73-3.566 2.75-1.029 5.51-2.048 8.25-3.078 1.76-.655 3.65-1.227 5.2-2.308 1.89-1.32 3.56-4.502.71-5.874l.02-.032ZM95.478 783.822c-.738-2.1-3.202-3.202-5.042-3.982-1.435-.603-2.87-1.206-4.315-1.809-2.87-1.206-5.75-2.412-8.62-3.618a1139.393 1139.393 0 0 0-9.898-4.086c-1.279-.53-2.61-1.009-3.93-1.508 2.974-6.113 5.895-12.248 8.869-18.372 1.757.998 3.556 1.924 5.313 2.859 2.34 1.248 4.679 2.568 7.101 3.671 1.29.592 2.984.842 4.42.613 1.05-.166 2.557-.707 3.17-1.695 1.58-2.516-.686-4.533-2.682-5.625-2.579-1.414-5.292-2.62-7.965-3.867a347.787 347.787 0 0 0-6.061-2.756c2.651-5.531 5.26-11.104 8.037-16.573.114.062.24.125.353.187 1.217.634 2.434 1.269 3.66 1.892 2.33 1.186 4.69 2.309 7.05 3.421 4.793 2.256 9.628 4.44 14.546 6.426 2.277.925 6.134.956 7.694-1.446 1.611-2.485-.967-4.751-2.995-5.614-5.75-2.454-11.489-4.939-17.135-7.632-2.745-1.31-5.49-2.63-8.213-3.971-1.612-.801-3.588-1.778-5.542-2.111-1.685-1.071-3.702-1.289-4.71.52-4.648 8.338-9.628 16.469-14.047 24.943-4.242 8.12-8.505 16.282-12.29 24.61-1.362 2.984 2.485 5.844 5.813 6.072 2.734 1.477 5.916 2.548 7.88 3.4 3.38 1.477 6.759 2.953 10.159 4.409 2.89 1.237 5.77 2.464 8.66 3.701 1.841.79 3.723 1.736 5.74 2.028 2.443.363 6.155-.905 5.022-4.097l-.042.01ZM984.157 225.57c-.738-2.1-3.202-3.202-5.043-3.982-1.435-.603-2.869-1.206-4.315-1.809-2.869-1.206-5.749-2.412-8.619-3.619a1211.636 1211.636 0 0 0-9.898-4.086c-1.279-.53-2.61-1.008-3.93-1.507 2.973-6.114 5.895-12.248 8.868-18.372 1.758.998 3.556 1.923 5.313 2.859 2.34 1.248 4.679 2.568 7.102 3.67 1.289.593 2.984.842 4.419.614 1.05-.167 2.557-.707 3.171-1.695 1.58-2.516-.686-4.533-2.683-5.625-2.578-1.414-5.292-2.62-7.964-3.868a345.418 345.418 0 0 0-6.062-2.755c2.652-5.532 5.261-11.104 8.038-16.573.114.062.239.124.353.187 1.217.634 2.433 1.268 3.66 1.892 2.329 1.185 4.689 2.308 7.049 3.421 4.793 2.256 9.628 4.439 14.546 6.425 2.278.926 6.138.957 7.698-1.445 1.61-2.485-.97-4.752-3-5.614-5.748-2.454-11.487-4.939-17.133-7.632a748.956 748.956 0 0 1-8.214-3.972c-1.612-.8-3.587-1.778-5.542-2.111-1.684-1.07-3.701-1.289-4.71.52-4.647 8.339-9.628 16.47-14.046 24.943-4.243 8.121-8.505 16.283-12.29 24.611-1.362 2.984 2.485 5.843 5.812 6.072 2.735 1.476 5.916 2.547 7.881 3.4 3.379 1.476 6.758 2.953 10.158 4.408 2.891 1.238 5.771 2.464 8.661 3.702 1.841.79 3.723 1.736 5.74 2.027 2.443.364 6.155-.904 5.022-4.096l-.042.01Z"/><path fill="#FED064" d="M608.294 545.641c-.738-2.1-3.202-3.203-5.042-3.982-1.435-.603-2.87-1.206-4.315-1.809-2.87-1.207-5.75-2.413-8.62-3.619a1177.144 1177.144 0 0 0-9.898-4.086c-1.279-.53-2.61-1.008-3.93-1.507 2.974-6.114 5.895-12.248 8.869-18.373 1.757.999 3.556 1.924 5.313 2.86 2.339 1.247 4.679 2.568 7.101 3.67 1.29.593 2.984.842 4.419.613 1.05-.166 2.558-.707 3.171-1.694 1.581-2.516-.686-4.534-2.682-5.625-2.579-1.414-5.292-2.62-7.965-3.868a348.7 348.7 0 0 0-6.061-2.755c2.651-5.532 5.261-11.105 8.037-16.574.114.063.239.125.353.188 1.217.634 2.433 1.268 3.66 1.892 2.329 1.185 4.689 2.308 7.05 3.421 4.793 2.256 9.628 4.439 14.546 6.425 2.277.925 6.134.957 7.693-1.445 1.612-2.485-.966-4.752-2.994-5.615-5.75-2.453-11.489-4.938-17.135-7.631a757.861 757.861 0 0 1-8.214-3.972c-1.611-.801-3.587-1.778-5.541-2.111-1.685-1.071-3.702-1.289-4.71.52-4.648 8.339-9.628 16.469-14.047 24.943-4.242 8.121-8.505 16.282-12.29 24.611-1.362 2.984 2.485 5.843 5.812 6.072 2.735 1.476 5.916 2.547 7.882 3.4a1530.4 1530.4 0 0 0 10.158 4.408c2.89 1.237 5.77 2.464 8.661 3.702 1.84.79 3.722 1.736 5.739 2.027 2.443.364 6.155-.905 5.022-4.097l-.042.011Z"/><path fill="#EF7D40" d="M369.614 225.57c-.738-2.1-3.202-3.202-5.043-3.982-1.435-.603-2.87-1.206-4.315-1.809-2.869-1.206-5.749-2.412-8.619-3.619a1211.636 1211.636 0 0 0-9.898-4.086c-1.279-.53-2.61-1.008-3.931-1.507 2.974-6.114 5.896-12.248 8.869-18.372 1.758.998 3.556 1.923 5.313 2.859 2.34 1.248 4.679 2.568 7.102 3.67 1.289.593 2.984.842 4.419.614 1.05-.167 2.557-.707 3.171-1.695 1.58-2.516-.686-4.533-2.683-5.625-2.578-1.414-5.292-2.62-7.964-3.868a345.418 345.418 0 0 0-6.062-2.755c2.652-5.532 5.261-11.104 8.037-16.573.115.062.24.124.354.187 1.216.634 2.433 1.268 3.66 1.892 2.329 1.185 4.689 2.308 7.049 3.421 4.793 2.256 9.628 4.439 14.546 6.425 2.277.926 6.134.957 7.694-1.445 1.612-2.485-.967-4.752-2.994-5.614-5.75-2.454-11.489-4.939-17.135-7.632a748.956 748.956 0 0 1-8.214-3.972c-1.612-.8-3.587-1.778-5.542-2.111-1.684-1.07-3.701-1.289-4.71.52-4.647 8.339-9.628 16.47-14.047 24.943-4.242 8.121-8.505 16.283-12.289 24.611-1.362 2.984 2.485 5.843 5.812 6.072 2.734 1.476 5.916 2.547 7.881 3.4 3.379 1.476 6.758 2.953 10.158 4.408 2.891 1.238 5.771 2.464 8.661 3.702 1.841.79 3.722 1.736 5.74 2.027 2.443.364 6.155-.904 5.021-4.096l-.041.01Z"/><path fill="#fff" d="M388.069 43.846c-3.493-6.81-12.05-10.159-19.755-10.367-8.557-.228-17.353 2.683-24.693 6.665-6.249 3.4-11.916 8.276-13.683 15.055-1.778 6.8 1.133 13.974 5.458 19.402 5.23 6.57 12.81 10.595 19.63 15.492 2.142 1.538 6.343.218 8.038-1.258 4.761-4.138 9.471-8.329 14.244-12.456.925-.8 1.497-2.724.457-3.67-4.616-4.16-9.233-8.443-14.192-12.228-3.14-2.402-12.851 1.944-9.181 5.48 3.546 3.41 7.486 6.53 11.375 9.638-2.038 1.757-4.086 3.525-6.135 5.271-5.094-3.524-10.397-7.08-14.275-11.676-4.076-4.835-6.696-11.988-3.026-17.686 3.442-5.354 11.417-8.442 17.749-9.201 7.361-.874 13.121 1.362 18.756 5.552 2.828 2.1 11.51.437 9.233-4.014ZM497.303 459.437c-3.493-6.81-12.05-10.158-19.755-10.366-8.557-.229-17.353 2.682-24.693 6.664-6.249 3.4-11.916 8.277-13.683 15.056-1.778 6.799 1.133 13.974 5.458 19.401 5.23 6.571 12.81 10.595 19.63 15.492 2.142 1.539 6.343.218 8.038-1.258 4.762-4.138 9.472-8.328 14.244-12.456.925-.801 1.497-2.724.457-3.67-4.616-4.159-9.232-8.443-14.192-12.227-3.14-2.402-12.851 1.944-9.181 5.479 3.546 3.41 7.486 6.529 11.375 9.638-2.038 1.757-4.086 3.525-6.134 5.272-5.095-3.525-10.398-7.081-14.276-11.677-4.076-4.834-6.696-11.988-3.026-17.685 3.442-5.355 11.417-8.443 17.749-9.202 7.361-.873 13.121 1.362 18.756 5.552 2.828 2.1 11.51.437 9.233-4.013ZM1127.19 261.295c-3.49-6.81-12.05-10.158-19.75-10.366-8.56-.229-17.36 2.683-24.7 6.665-6.24 3.4-11.91 8.276-13.68 15.055-1.78 6.8 1.13 13.974 5.46 19.401 5.23 6.572 12.81 10.595 19.63 15.492 2.14 1.539 6.34.219 8.04-1.258 4.76-4.138 9.47-8.328 14.24-12.456.93-.8 1.5-2.724.46-3.67-4.62-4.159-9.23-8.442-14.19-12.227-3.14-2.402-12.85 1.944-9.18 5.479 3.54 3.411 7.48 6.53 11.37 9.639-2.04 1.757-4.09 3.524-6.13 5.271-5.1-3.525-10.4-7.081-14.28-11.676-4.08-4.835-6.7-11.988-3.03-17.686 3.45-5.355 11.42-8.443 17.75-9.202 7.36-.873 13.12 1.362 18.76 5.553 2.83 2.1 11.51.436 9.23-4.014Z"/><path fill="#78BFEA" d="M1219.98 527.404c-2.48-.842-5.76.073-7.49 1.986-4.83 5.375-9.56 10.834-14.26 16.323-1.12-.863-2.27-1.674-3.33-2.526a475.645 475.645 0 0 1-6.11-5.012c-1.93-1.611-3.88-3.181-5.83-4.772-1.38-1.133-2.75-2.277-4.14-3.4-.43-.343-.86-.655-1.31-.956a9.136 9.136 0 0 0-1.45-.791c4.31-5.417 8.67-10.802 13.04-16.188 1.49-1.841-.39-3.754-2.21-4.274-2.32-.665-5.11-.052-6.71 1.778a612.215 612.215 0 0 0-25.99 31.806c-.96 1.268-1.93 2.537-2.89 3.805-1.3 1.716-3 3.743-2.12 5.999 1.23 3.12 5.73 2.07 7.9.687 2.21-1.414 3.64-3.879 5.19-5.927 2.63-3.483 5.33-6.904 8.02-10.335.15.156.28.323.43.479.94.998 1.92 1.965 2.9 2.932 1.99 1.944 4 3.857 6.08 5.708 1.98 1.767 3.98 3.514 6 5.25 1.67 1.435 3.36 3.078 5.22 4.378-4.02 4.793-8.01 9.596-11.96 14.431-1.69 2.08-2.15 6.186.78 7.445 3.24 1.382 6.54-1.404 8.38-3.65a3109.45 3109.45 0 0 1 15.63-18.944c2.52-3.025 5.04-6.051 7.55-9.087 3.32-4.034 7.06-7.923 10.03-12.217 1.33-1.923 1.13-4.065-1.35-4.918v-.01ZM103.287 620.938c-2.475-.842-5.76.073-7.486 1.986-4.835 5.375-9.566 10.834-14.265 16.324-1.113-.863-2.267-1.674-3.327-2.527a560.519 560.519 0 0 1-6.114-5.011c-1.924-1.612-3.878-3.182-5.823-4.773-1.382-1.133-2.755-2.277-4.148-3.4a16.766 16.766 0 0 0-1.31-.956 9.2 9.2 0 0 0-1.445-.79 2402.73 2402.73 0 0 1 13.038-16.189c1.487-1.84-.385-3.753-2.204-4.273-2.33-.666-5.116-.052-6.717 1.778a612.978 612.978 0 0 0-25.983 31.805 919.008 919.008 0 0 0-2.89 3.805c-1.3 1.716-3.005 3.743-2.121 6 1.227 3.119 5.729 2.069 7.902.686 2.204-1.414 3.639-3.878 5.188-5.927 2.63-3.483 5.323-6.903 8.016-10.335.146.156.28.323.426.479.947.998 1.924 1.965 2.901 2.932 1.997 1.944 4.003 3.857 6.083 5.708a491.349 491.349 0 0 0 5.999 5.251c1.674 1.434 3.358 3.077 5.22 4.377a1577.654 1577.654 0 0 0-11.958 14.431c-1.694 2.08-2.152 6.187.78 7.445 3.244 1.383 6.54-1.404 8.38-3.65a3036.546 3036.546 0 0 1 15.628-18.944c2.526-3.025 5.042-6.051 7.548-9.087 3.327-4.034 7.06-7.923 10.034-12.217 1.33-1.923 1.133-4.065-1.352-4.918v-.01Z"/><path fill="#fff" d="M85.58 109.473c-2.505-.062-5.323 1.633-6.425 3.775-3.099 5.999-6.083 12.029-9.025 18.08-1.248-.436-2.527-.842-3.722-1.289a324.89 324.89 0 0 1-6.946-2.693c-2.194-.873-4.408-1.705-6.623-2.557-1.57-.603-3.14-1.227-4.72-1.82a21.215 21.215 0 0 0-1.456-.478 9.738 9.738 0 0 0-1.549-.291c2.61-5.885 5.261-11.76 7.923-17.624.915-2.006-1.32-3.15-3.14-3.109-2.33.052-4.752 1.352-5.77 3.38a566.858 566.858 0 0 0-15.909 34.737c-.572 1.362-1.133 2.734-1.694 4.096-.76 1.851-1.82 4.076-.427 5.792 1.945 2.381 5.844.239 7.486-1.56 1.685-1.83 2.371-4.367 3.286-6.571 1.539-3.743 3.16-7.455 4.772-11.177.177.094.343.198.52.301 1.133.604 2.288 1.186 3.442 1.758 2.34 1.143 4.7 2.256 7.101 3.296 2.287.998 4.596 1.965 6.904 2.921 1.923.79 3.91 1.757 5.958 2.381a1456.843 1456.843 0 0 0-7.372 15.814c-1.04 2.267-.406 5.969 2.63 6.249 3.359.323 5.688-3.005 6.821-5.458a2496.617 2496.617 0 0 1 9.618-20.733c1.56-3.316 3.119-6.633 4.657-9.96 2.049-4.409 4.502-8.817 6.156-13.35.738-2.038 0-3.837-2.516-3.899l.02-.011Z"/><path fill="#FED064" d="M1089.67 769.038c-7.09-13.714-14.82-27.241-22.74-40.487-.99-1.654-3.01-1.758-4.71-1.144-1.25.447-3.77 2.152-2.92 3.868 5.87 11.79 11.94 23.612 18.35 35.163-15.22-6.55-30.24-13.776-44.72-21.751-1.66-.915-4.01-.447-5.45.728-1.2.988-1.92 2.818-.29 3.816.04.031.09.052.14.083 1.04 4.46 4.59 8.858 7.1 12.653 2.5 3.796 5.06 7.559 7.67 11.282 2.58 3.67 5.25 7.278 7.97 10.854 1.35 1.789 2.71 3.556 4.09 5.324 1.47 1.871 2.41 3.691 4.98 3.795 2.08.093 6.72-2.173 5.81-4.96-1.37-4.242-5.3-7.902-8.01-11.416a588.15 588.15 0 0 1-8.1-10.792c-1.78-2.412-3.51-4.866-5.24-7.31 12.29 6.842 24.85 13.153 37.79 18.799 2.12.925 4.51-.073 6.02-1.705.53-.572 1.19-1.737 1.37-2.839 1.03-1.185 1.56-2.641.89-3.951v-.01Z"/><path fill="#EF7D40" d="M529.389 28.353c-6.966-2.12-14.078.187-20.555 2.85-1.009.415-2.184 1.153-2.641 2.13-5.022 2.891-9.389 7.04-12.747 11.853-3.255 4.669-5.501 10.21-4.96 15.981.437 4.658 2.88 9.243 6.623 12.082 9.129 6.935 22.999 1.32 30.703-5.282 7.622-6.53 13.049-16.2 13.028-26.42 0-6.384-3.212-11.28-9.472-13.194h.021Zm-7.777 33.812a26.099 26.099 0 0 1-8.287 5.947c-3.057 1.394-7.018 2.6-10.168.864-7.133-3.92-6.218-13.829-2.87-19.86 4.305-7.745 13.548-15.419 22.916-14.847.301.063.603.094.904.187 3.681 1.092 5.428 4.17 5.49 7.892.104 7.361-2.994 14.494-7.975 19.817h-.01Z"/><path fill="#FED064" d="M289.263 785.06c1.633-7.788-1.466-15.336-4.876-22.167-.53-1.061-1.414-2.288-2.506-2.693-3.524-5.22-8.328-9.628-13.745-12.862-5.25-3.14-11.343-5.105-17.426-4.003-4.907.884-9.555 3.951-12.237 8.287-6.54 10.574.665 25.203 8.38 33.032 7.632 7.746 18.393 12.81 29.248 11.895 6.789-.572 11.696-4.492 13.162-11.489Zm-36.629-5.521a28.817 28.817 0 0 1-7.07-8.516c-1.747-3.212-3.4-7.434-1.83-11.021 3.524-8.12 14.14-7.995 20.846-4.876 8.62 4.013 17.613 13.423 17.842 23.695-.031.333-.052.676-.114 1.009-.832 4.117-3.941 6.29-7.892 6.675-7.808.759-15.669-1.986-21.782-6.966ZM246.354 199.368c-3.286-3.421-7.091-6.446-10.595-9.638-2.475-2.246-4.939-4.513-7.393-6.769a54.789 54.789 0 0 0 9.223-12.331c2.526-4.616 5.022-9.805 3.66-15.18-1.134-4.492-5.552-7.382-9.867-8.297-5.469-1.154-10.949.509-15.721 3.15-2.703 1.498-5.178 3.442-7.559 5.407-2.422 1.996-4.97 4.138-6.997 6.54-.988 1.175-1.186 2.547-.239 3.514-.094.468.02.977.457 1.456 5.771 6.394 11.853 12.456 17.977 18.507 3.088 3.046 6.186 6.103 9.285 9.139 3.088 3.036 6.072 6.343 9.409 9.098 1.841 1.518 4.346 1.414 6.405.281 1.476-.822 3.608-3.172 1.965-4.887l-.01.01Zm-37.909-34.321c2.194-2.08 4.409-4.128 6.769-6.031 1.767-1.424 3.41-2.672 5.635-3.826-.041.042 1.196-.52 1.352-.582.26-.104.52-.187.78-.271.072-.01.208-.052.457-.114 0 0 .801-.135.957-.177a10.28 10.28 0 0 1 1.382 0c.063.032 1.061.188 1.196.219.083.02.697.218.801.239.884.353 1.653.79 2.204 1.289 3.67 3.358 1.643 8.505-.385 12.446-1.84 3.566-4.159 6.727-6.779 9.669a798.27 798.27 0 0 0-14.358-12.851l-.011-.01Z"/><path fill="#EF7D40" d="M939.064 752.911c-6.249-2.298-13.558-3.389-19.651-.093-3.639 1.965-6.124 4.918-7.486 8.38-3.015 4.232-3.109 10.283-1.581 15.242 1.633 5.293 4.575 10.003 8.505 13.912 8.027 7.995 21.076 12.092 32.274 10.47 5.739-.832 10.438-3.909 12.892-9.222 1.882-4.076 2.34-8.745 1.601-13.184 2.267-.458 4.534-.915 6.811-1.362 2.672-.531 5.77-.707 8.224-1.872.811-.384 1.32-1.934 1.393-2.703a7.13 7.13 0 0 0-.385-3.171c-.665-1.913-2.079-3.587-4.262-3.39-2.309.208-4.658.998-6.904 1.591a152.068 152.068 0 0 0-7.965 2.391c-.01 0-.031 0-.041.011-4.97-8.37-14.484-13.704-23.415-16.989l-.01-.011Zm10.189 21.585c-1.851.603-2.682 2.786-2.641 4.596.031 1.33.915 3.93 2.787 3.316 3.306-1.081 6.675-1.923 10.064-2.693.946 4.929-1.154 10.075-6.384 11.916-4.159 1.466-9.035.998-13.298.218-4.762-.873-9.555-2.672-13.558-5.417-3.639-2.495-6.883-5.906-8.879-9.846-.676-1.321-1.331-2.88-1.716-4.461.749-.925 1.071-2.329 1.061-3.4-.021-3.68 3.483-6.435 6.56-7.756 4.138-1.767 9.036-1.029 13.195.27 6.571 2.049 14.192 5.657 19.016 11.105a256.857 256.857 0 0 1-6.207 2.152Z"/><path fill="#fff" d="M796.236 26.45c-6.249-2.297-13.558-3.389-19.651-.093-3.639 1.965-6.124 4.918-7.486 8.38-3.015 4.232-3.109 10.283-1.58 15.243 1.632 5.292 4.574 10.002 8.505 13.911 8.026 7.996 21.075 12.093 32.273 10.47 5.739-.831 10.439-3.909 12.893-9.222 1.881-4.076 2.339-8.744 1.601-13.184 2.266-.457 4.533-.915 6.81-1.362 2.672-.53 5.77-.707 8.224-1.871.811-.385 1.321-1.934 1.394-2.703a7.147 7.147 0 0 0-.385-3.172c-.666-1.913-2.08-3.587-4.263-3.39-2.308.209-4.658.999-6.904 1.592a152.228 152.228 0 0 0-7.964 2.39c-.011 0-.031 0-.042.011-4.97-8.37-14.483-13.703-23.415-16.989l-.01-.01Zm10.179 21.585c-1.851.604-2.683 2.787-2.641 4.596.031 1.331.915 3.93 2.787 3.317 3.306-1.081 6.675-1.924 10.064-2.693.946 4.928-1.154 10.075-6.384 11.915-4.159 1.466-9.035.998-13.298.219-4.762-.874-9.555-2.672-13.558-5.417-3.639-2.496-6.883-5.906-8.879-9.847-.676-1.32-1.331-2.88-1.716-4.46.749-.925 1.071-2.329 1.061-3.4-.021-3.68 3.483-6.436 6.56-7.756 4.138-1.768 9.036-1.03 13.195.27 6.571 2.048 14.192 5.656 19.016 11.104a256.862 256.862 0 0 1-6.207 2.152Z"/><path fill="#EF7D40" d="M67.374 234.679c-.447-5.511-11.665-1.737-11.26 3.171.946 11.624 1.498 23.258 1.84 34.893-2.703-2.578-5.416-5.147-8.11-7.725-6.32-6.083-12.507-12.29-18.912-18.289-1.632-1.528-4.409-1.778-6.488-.977-1.882.717-2.994 2.36-1.643 4.044 5.677 7.091 11.666 13.901 17.821 20.618 5.927 6.467 11.988 13.017 18.539 18.944 3.16 2.859 10.262-.416 10.293-4.357.114-16.781-.707-33.583-2.059-50.312l-.02-.01ZM848.077 614.367c-.447-5.511-11.666-1.736-11.26 3.171.946 11.624 1.497 23.259 1.84 34.894-2.703-2.579-5.417-5.147-8.11-7.726-6.322-6.082-12.508-12.289-18.913-18.289-1.632-1.528-4.408-1.777-6.488-.977-1.882.718-2.994 2.36-1.642 4.045 5.676 7.091 11.665 13.901 17.821 20.618 5.926 6.467 11.988 13.017 18.538 18.943 3.161 2.86 10.262-.416 10.293-4.356.115-16.781-.707-33.583-2.058-50.313l-.021-.01ZM764.472 130.195c-.447-5.51-11.666-1.736-11.26 3.171.946 11.624 1.497 23.259 1.84 34.894-2.703-2.579-5.417-5.147-8.11-7.726-6.321-6.082-12.508-12.289-18.912-18.288-1.633-1.529-4.409-1.778-6.488-.978-1.882.718-2.995 2.36-1.643 4.045 5.677 7.091 11.666 13.901 17.821 20.618 5.926 6.467 11.988 13.017 18.538 18.944 3.161 2.859 10.262-.416 10.294-4.357.114-16.781-.707-33.583-2.059-50.312l-.021-.011ZM329.314 659.377c-1.976-7.954-13.226-8.141-19.672-6.53-6.633 1.653-17.665 7.081-15.159 15.658 2.027 6.925 9.534 10.522 13.558 16.106 1.57 2.183 2.651 5.365 2.079 8.068-.457 2.215-1.497 2.703-3.41 2.589-3.327-.197-6.675-1.757-9.482-3.473-3.379-2.069-5.667-5.115-8.64-7.642-1.383-1.185-4.18-.603-5.605.125-1.216.624-3.223 2.371-2.495 3.972 2.942 6.457 10.013 10.73 16.532 12.82 6.623 2.131 15.554 1.601 20.181-4.253 4.055-5.115 2.672-12.248-1.019-17.134-2.007-2.662-4.606-4.814-7.091-7.019-2.142-1.913-5.687-4.658-5.781-7.829-.073-2.818 3.951-4.18 6.124-4.762 3.785-1.019 8.401-1.227 11.884.77l.031.062c1.394 3.119 8.932 2.475 7.944-1.508l.021-.02ZM1050.7 477.59c-1.98-7.953-13.23-8.141-19.67-6.529-6.64 1.653-17.67 7.081-15.16 15.658 2.03 6.925 9.53 10.522 13.56 16.106 1.57 2.183 2.65 5.365 2.08 8.068-.46 2.215-1.5 2.703-3.41 2.589-3.33-.198-6.68-1.757-9.49-3.473-3.38-2.069-5.66-5.115-8.64-7.642-1.38-1.185-4.18-.603-5.6.125-1.22.624-3.22 2.371-2.5 3.972 2.95 6.456 10.02 10.73 16.54 12.82 6.62 2.131 15.55 1.601 20.18-4.253 4.05-5.115 2.67-12.248-1.02-17.135-2.01-2.661-4.61-4.814-7.09-7.018-2.15-1.913-5.69-4.658-5.78-7.829-.08-2.818 3.95-4.18 6.12-4.762 3.78-1.019 8.4-1.227 11.88.769l.04.063c1.39 3.119 8.93 2.474 7.94-1.508l.02-.021ZM915.264 29.747c-6.467-5.033-15.429 1.757-19.505 7.007-4.201 5.397-9.524 16.48-2.256 21.668 5.874 4.2 13.995 2.392 20.607 4.305 2.589.748 5.396 2.589 6.613 5.063.998 2.028.489 3.047-1.092 4.149-2.745 1.903-6.332 2.745-9.607 3.119-3.94.457-7.621-.52-11.51-.676-1.819-.073-3.66 2.1-4.335 3.566-.572 1.238-1.071 3.848.488 4.658 6.301 3.265 14.504 2.257 20.92-.114 6.529-2.412 13.225-8.339 13.256-15.804.031-6.53-5.458-11.28-11.374-12.85-3.224-.854-6.603-.947-9.909-1.155-2.87-.177-7.351-.156-9.378-2.6-1.799-2.172.53-5.728 1.881-7.527 2.35-3.14 5.854-6.155 9.826-6.727l.062.02c3.026 1.592 8.557-3.566 5.324-6.092l-.011-.01ZM130.694 22.677c.104 7.454.239 14.899.447 22.354.052 2.059.083 4.148.156 6.238l-2.932-.998a470.602 470.602 0 0 1-7.58-2.682c-5.001-1.83-9.887-3.941-14.868-5.813-2.152-.81-3.493 1.3-3.514 3.203-.031 2.319 1.279 4.814 3.452 5.76 6.145 2.683 12.466 5.043 18.788 7.268 1.882.665 3.795 1.268 5.687 1.882l-3.805 3.337a273.39 273.39 0 0 0-4.523 4.055c-.936.863-1.872 1.705-2.797 2.579-1.008.956-1.851 2.131-2.859 3.067-1.393 1.29-1.643 3.65-.998 5.365.582 1.549 2.017 2.568 3.504 1.455 1.954-1.455 4.138-2.64 6.103-4.127a243.322 243.322 0 0 0 5.739-4.513 588.102 588.102 0 0 0 10.761-8.91c3.411-2.901 6.811-5.833 10.19-8.765 3.171-2.766 8.359-5.688 7.361-10.595-.364-1.768-1.175-3.857-2.994-4.616-1.539-.645-2.964.332-3.4 1.86-.302 1.072-2.548 2.423-3.38 3.172-1.549 1.383-3.098 2.766-4.658 4.148-2.089 1.851-4.2 3.691-6.311 5.532.021-1.123.032-2.246.052-3.38.042-2.744.032-5.5.042-8.244.01-5.584 0-11.167-.021-16.75-.01-2.277-2.027-5.116-4.294-5.625-2.516-.572-3.369 1.757-3.338 3.774l-.01-.031Z"/><path fill="#FED064" d="M494.953 791.517c-.395.956-.738 1.819 0 0Z"/><path fill="#FED064" d="M530.866 755.604c2.578 1.435-1.487-.863-1.893-1.081-1.123-.593-2.318-1.03-3.524-1.456-1.914-.676-3.858-1.3-5.781-1.965-3.962-1.362-7.882-2.828-11.843-4.201-3.972-1.382-7.891-2.869-11.894-4.169-1.81-.593-3.587-1.279-5.407-1.861-2.36-.759-4.835-1.081-7.112-2.059-1.902-.821-5.074-.603-6.519.946-1.549 1.664-.052 3.224 1.632 3.993 1.529.697 2.87 2.017 4.336 2.87 1.206.696 2.475 1.31 3.722 1.944 1.674.853 3.328 1.757 5.043 2.547a321.173 321.173 0 0 0 7.767 3.39c-.177.385-.343.769-.52 1.164-.738 1.643-1.424 3.317-2.121 4.981-1.508 3.608-2.994 7.226-4.481 10.844a7055.973 7055.973 0 0 0-8.453 20.691c-1.03 2.526 2.09 3.94 4.304 3.826 2.943-.156 5.771-1.892 6.821-4.461.208-.499.416-1.018.499-1.206.364-.904.738-1.798 1.102-2.703.634-1.549 1.258-3.088 1.892-4.637a4034.51 4034.51 0 0 0 4.19-10.283c1.976-4.856 4.003-9.701 5.885-14.598 1.612.603 3.203 1.237 4.814 1.84 3.567 1.311 6.977 2.61 10.803 3.026 2.651.291 5.511-.437 7.247-2.433 1.435-1.653 1.653-3.701-.52-4.918l.011-.031Z"/><path fill="#78BFEA" d="M677.821 83.158c-.395.956-.738 1.82 0 0Z"/><path fill="#78BFEA" d="M713.733 47.245c2.579 1.435-1.486-.863-1.892-1.081-1.123-.593-2.319-1.03-3.525-1.456-1.913-.676-3.857-1.3-5.781-1.965-3.961-1.362-7.881-2.828-11.842-4.2-3.972-1.383-7.892-2.87-11.895-4.17-1.809-.592-3.587-1.279-5.406-1.86-2.36-.76-4.835-1.082-7.112-2.06-1.903-.82-5.074-.603-6.519.947-1.549 1.663-.052 3.223 1.632 3.992 1.529.697 2.87 2.017 4.336 2.87 1.206.697 2.475 1.31 3.722 1.944 1.674.853 3.327 1.757 5.043 2.547a323.548 323.548 0 0 0 7.767 3.39c-.177.385-.343.77-.52 1.164-.738 1.643-1.425 3.317-2.121 4.98a1888.296 1888.296 0 0 0-4.481 10.845 7124.235 7124.235 0 0 0-8.453 20.69c-1.03 2.527 2.089 3.941 4.304 3.827 2.942-.156 5.77-1.892 6.821-4.46.208-.5.416-1.02.499-1.206.364-.905.738-1.8 1.102-2.704.634-1.549 1.258-3.088 1.892-4.637 1.404-3.431 2.797-6.852 4.19-10.283 1.976-4.855 4.003-9.7 5.885-14.598 1.612.603 3.203 1.237 4.814 1.84 3.566 1.31 6.977 2.61 10.803 3.026 2.651.291 5.51-.437 7.247-2.433 1.435-1.653 1.653-3.701-.52-4.918l.01-.03ZM517.703 269.146c.259 1.944.135 1.029 0 0Z"/><path fill="#78BFEA" d="M530.845 220.081c2.953-.042-1.716 0-2.184.01-1.268.052-2.516.26-3.774.499-1.996.374-3.992.801-5.989 1.185-4.117.801-8.245 1.498-12.352 2.277-4.127.78-8.266 1.466-12.383 2.34-1.861.395-3.743.686-5.604 1.091-2.423.531-4.731 1.487-7.195 1.778-2.059.24-4.7 2.018-5.167 4.076-.51 2.215 1.57 2.818 3.41 2.641 1.674-.156 3.493.312 5.188.312 1.393 0 2.797-.104 4.19-.177 1.882-.093 3.764-.135 5.636-.322 2.807-.27 5.614-.593 8.421-.946.042.426.094.842.136 1.268.176 1.799.426 3.587.655 5.376.499 3.878 1.019 7.756 1.538 11.624.999 7.382 2.007 14.764 3.026 22.146.374 2.703 3.785 2.36 5.646 1.154 2.474-1.601 4.055-4.523 3.68-7.278-.072-.53-.145-1.092-.176-1.289-.136-.967-.26-1.934-.395-2.891a766.072 766.072 0 0 1-.676-4.959c-.499-3.67-1.009-7.341-1.518-11-.718-5.189-1.394-10.408-2.205-15.586 1.695-.281 3.39-.53 5.085-.821 3.743-.645 7.34-1.227 10.865-2.776 2.443-1.071 4.554-3.14 5.063-5.729.416-2.153-.415-4.035-2.911-3.993l-.01-.01ZM395.836 744.666c-4.346 6.239-8.453 12.664-12.498 19.131-.686-.665-1.383-1.331-2.048-2.006a165.145 165.145 0 0 1-6.155-6.53c-1.913-2.142-3.775-4.346-5.646-6.529-2.443-2.849-4.616-5.927-7.278-8.578-1.362-1.362-3.244-1.945-5.157-1.539-1.258.27-3.431 1.352-2.693 3.046 2.766 6.332 7.216 12.061 11.603 17.354a163.687 163.687 0 0 0 6.135 7.007 171.537 171.537 0 0 0 3.296 3.473c.821.842 1.726 1.892 2.713 2.703-4.949 8.1-9.836 16.241-14.857 24.257-1.352 2.163.124 4.481 2.485 4.783 2.786.353 5.656-1.352 7.08-3.66 10.387-16.823 21.19-33.448 31.015-50.604 1.955-3.41-6.249-4.824-7.995-2.308Z"/><path fill="#fff" d="M59.961 344.505c-4.346 6.238-8.453 12.664-12.497 19.131-.686-.665-1.383-1.331-2.049-2.007a166.346 166.346 0 0 1-6.155-6.529c-1.913-2.142-3.774-4.346-5.645-6.53-2.444-2.848-4.617-5.926-7.279-8.577-1.362-1.362-3.244-1.945-5.157-1.539-1.258.27-3.43 1.352-2.693 3.046 2.766 6.332 7.216 12.061 11.604 17.353a163.022 163.022 0 0 0 6.134 7.008 173.796 173.796 0 0 0 3.296 3.473c.822.842 1.726 1.892 2.714 2.703-4.95 8.1-9.836 16.241-14.858 24.257-1.352 2.163.125 4.481 2.485 4.783 2.787.353 5.656-1.352 7.08-3.66 10.387-16.823 21.19-33.448 31.016-50.604 1.955-3.41-6.249-4.824-7.996-2.308ZM254.38 594.019c-.062-1.434-1.435-2.495-2.703-2.911-3.369-1.112-6.706.437-9.909 1.414a338.31 338.31 0 0 1-15.356 4.325 700.75 700.75 0 0 1-6.717 1.674c2.329-5.365 5.001-10.563 7.746-15.72 1.674-3.161 3.4-6.311 5.136-9.441a569.156 569.156 0 0 1 5.053-8.869c1.851-3.192 4.565-6.571 5.033-10.241.353-2.818-3.005-3.671-5.116-3.598-5.802.208-11.593 1.071-17.311 2.007-7.445 1.227-14.983 2.693-22.074 5.282-1.435.53-1.352 2.214-.697 3.285.863 1.394 2.818 2.34 4.43 2.35 3.649.01 7.33-.988 10.907-1.622 2.734-.489 5.489-.905 8.234-1.3 2.87-.416 5.76-.738 8.651-1.071l-.936 1.56a445.563 445.563 0 0 0-3.941 6.779 539.522 539.522 0 0 0-7.028 12.674c-2.246 4.17-4.44 8.36-6.509 12.612a199.239 199.239 0 0 0-3.285 7.123c-.947 2.162-1.81 3.732-.687 5.988.676 1.352 3.192 1.861 4.502 1.654 1.227-.188 2.309-.468 3.265-.936.572.031 1.144 0 1.705-.115l.905-.156a43.12 43.12 0 0 0 2.038-.395c1.31-.28 2.62-.572 3.919-.863a234.15 234.15 0 0 0 7.986-1.965 313.357 313.357 0 0 0 15.377-4.471c1.705-.551 3.463-1.029 5.022-1.933 1.144-.666 2.433-1.602 2.36-3.099v-.021ZM918.592 479.171c-.063-1.435-1.435-2.496-2.704-2.912-3.368-1.112-6.706.437-9.908 1.415a341.34 341.34 0 0 1-15.357 4.325 700.75 700.75 0 0 1-6.717 1.674c2.329-5.365 5.001-10.564 7.746-15.721 1.674-3.161 3.4-6.311 5.136-9.441a587.039 587.039 0 0 1 5.053-8.869c1.851-3.192 4.565-6.571 5.033-10.241.353-2.818-3.005-3.67-5.116-3.597-5.801.207-11.593 1.07-17.311 2.006-7.445 1.227-14.983 2.693-22.074 5.282-1.435.53-1.351 2.215-.696 3.286.863 1.393 2.817 2.339 4.429 2.349 3.649.011 7.33-.987 10.907-1.622 2.734-.488 5.489-.904 8.234-1.299 2.87-.416 5.76-.738 8.651-1.071l-.936 1.559a442.024 442.024 0 0 0-3.94 6.779 536.01 536.01 0 0 0-7.029 12.675c-2.246 4.169-4.44 8.359-6.509 12.612a200.144 200.144 0 0 0-3.285 7.122c-.946 2.163-1.809 3.733-.686 5.989.675 1.351 3.191 1.861 4.502 1.653 1.226-.187 2.308-.468 3.264-.936.572.031 1.144 0 1.705-.114l.905-.156a45.82 45.82 0 0 0 2.038-.395c1.31-.281 2.62-.572 3.92-.863a237.074 237.074 0 0 0 7.985-1.965 313.357 313.357 0 0 0 15.377-4.471c1.706-.551 3.463-1.03 5.022-1.934 1.144-.666 2.433-1.601 2.361-3.098v-.021Z"/></svg>