<svg width="429" height="82" viewBox="0 0 429 82" fill="none" xmlns="http://www.w3.org/2000/svg">
<path d="M320.115 38.2676C320.115 45.6677 312.475 51.6795 303.032 51.6795C293.589 51.6795 285.966 45.6812 285.966 38.2676C285.966 30.854 293.606 24.8692 303.032 24.8692C312.458 24.8692 320.115 30.8675 320.115 38.2676ZM261.415 38.3619C261.415 43.2145 256.401 47.1504 250.221 47.1504H191.28C185.099 47.1504 180.086 43.2145 180.086 38.3619V36.057C180.086 31.2044 185.099 27.2685 191.28 27.2685H250.221C256.401 27.2685 261.415 31.2044 261.415 36.057V38.3619ZM147.465 38.2676C147.465 45.6677 139.825 51.6795 130.399 51.6795C120.973 51.6795 113.333 45.6812 113.333 38.2676C113.333 30.854 120.973 24.8692 130.399 24.8692C139.825 24.8692 147.465 30.8675 147.465 38.2676ZM428.914 80.7003C424.811 48.5253 340.804 45.9508 340.804 45.9508C340.804 8.95017 321.952 5.7421 321.952 5.7421C190.851 -7.17104 109.693 5.7421 109.693 5.7421C109.693 5.7421 90.8421 8.96365 90.8421 45.9508C90.8421 45.9508 6.8348 48.5253 2.73145 80.7003H428.897H428.914Z" fill="#FFD162"/>
<path d="M105.384 6.25434C98.6713 10.5138 94.2933 16.566 91.821 22.9956C90.2929 26.972 89.4345 31.0832 88.9709 35.2213C88.7306 37.3241 88.5932 39.4268 88.5074 41.5431C88.473 42.2844 88.2327 43.3897 88.2327 44.4142C84.8847 44.5355 81.3995 45.169 78.2576 45.5329C73.8623 46.0317 69.4843 46.5304 65.1062 47.0965C56.3844 48.2288 47.6283 49.7385 39.3357 52.1513C25.4976 56.195 11.8999 62.382 4.17391 72.5993C2.88624 74.2977 -0.959599 78.7189 1.52989 80.5251C2.45701 81.2126 3.69316 81.1721 4.7748 80.7543C5.46156 79.4468 6.19982 78.1528 7.00676 76.8992C6.92092 76.8048 6.83507 76.697 6.71489 76.6027C7.43598 75.2008 9.70228 72.5319 10.0457 72.1141C11.5565 70.3078 13.3077 68.6499 15.2135 67.1133C19.5744 63.5952 24.7422 60.7241 30.3221 58.4865C41.9969 53.8227 55.2856 52.4074 68.0764 50.8572C75.6479 49.9407 83.3395 49.1589 90.6191 47.1909C90.8252 47.1909 91.0312 47.1774 91.2372 47.1504C91.2372 46.2473 91.2372 45.3577 91.2372 44.4546C91.5291 30.6383 95.2376 15.9325 108.509 6.44305C107.736 5.98475 106.105 5.79604 105.35 6.26782" fill="#0C0C0C"/>
<path d="M132.356 50.4664C128.991 50.1429 125.798 49.0511 123.154 47.4201C121.729 46.6652 120.458 45.7756 119.514 44.7647C118.553 43.7537 117.832 42.6215 117.351 41.4218C117.351 41.3814 117.299 41.3544 117.282 41.3274C116.08 38.9416 115.685 36.3401 116.578 33.8599C117.368 31.6089 119.033 29.6948 121.197 28.1717C120.441 27.7403 118.965 27.5651 118.278 27.9964C112.801 31.4876 110.209 37.3511 111.805 42.7562C113.385 48.094 119.205 51.9087 126.073 52.5287C130.296 52.9061 134.794 52.367 138.537 50.736C139.018 50.5203 139.43 50.1968 139.499 49.8329C137.215 50.4394 134.794 50.6955 132.356 50.4664Z" fill="#0C0C0C"/>
<path d="M299.616 51.1402C294.946 49.954 292.284 46.6381 291.065 43.0796C290.894 42.8369 290.722 42.6078 290.568 42.3517C288.524 39.0493 288.971 35.2212 291.168 32.1209C291.701 30.5573 292.473 29.0611 293.538 27.6862C292.714 27.3762 291.58 27.4436 290.877 27.9154C284.473 32.2961 282.275 39.7502 286.275 45.7485C288.112 48.4848 291.254 50.601 295.066 51.4232C297.418 51.922 299.89 51.922 302.26 51.5176C301.35 51.4772 300.457 51.3558 299.564 51.1267" fill="#0C0C0C"/>
<path d="M344.976 28.7245C344.392 27.0801 343.843 25.4221 343.345 23.7507C341.937 20.1383 340.083 16.6606 337.627 13.4256C337.095 13.0212 336.563 12.6033 335.996 12.2124C335.447 11.8215 334.898 11.4441 334.348 11.0532C335.67 13.2234 336.7 15.5418 337.782 17.7794C338.967 20.2326 340.151 22.6858 341.181 25.1795C342.761 29.0076 344.066 32.8896 345.096 36.8391" fill="#FFD162"/>
</svg>
