<svg width="1600" height="1040" fill="none" xmlns="http://www.w3.org/2000/svg"><path d="M1599.99 0H0v1039.99h1599.99V0Z" fill="#79BFEA"/><mask id="a" style="mask-type:luminance" maskUnits="userSpaceOnUse" x="22" y="48" width="96" height="101"><path d="m43.776 48.364-21 81.787 73.38 18.841 20.999-81.787-73.38-18.84Z" fill="#fff"/></mask><g mask="url(#a)"><path d="M96.252 64.506a35.328 35.328 0 0 0-9.4-4.92 3.548 3.548 0 0 0-1.333-.493 4.673 4.673 0 0 1-.426-.054c-8.48-2.373-17.32-1.253-25.147 2.467-3.227 1.227-6.306 2.867-9.146 4.987-11.12 8.28-15.4 22.106-19.654 34.706-2.466 7.293-11.013 26.68.174 31.08 3.066 1.2 5.84.093 7.746-2.093 2-5.8 3.547-11.76 5.96-17.414.24-.56.64-.946 1.134-1.186.72-.6 1.84-.774 2.693-.56 3.213.826 2.987 5.186 2.813 7.893-.213 3.373-.933 6.733-1.72 10.013-.133.574-.293 1.134-.44 1.707.267.827.627 1.64 1.16 2.453 4.96 7.64 13.08 5.2 16.627-1.333.426-3.08 1.453-6.173 2.933-8.92.32-.76.707-1.493 1.2-2.16.2-.267.413-.507.627-.733.173-.227.32-.48.493-.707.693-.893 1.973-1.2 3.04-.933l.8.2c.733.186 1.68.76 1.827 1.573.626 3.347-.107 6.573-.627 9.893a90.597 90.597 0 0 0-.8 6.854c.56 1.28 1.36 2.453 2.453 3.413.307.267.627.48.947.707 2.747 2.386 6.96 3.093 10.587 1.813 6.786-2.4 8.88-10.547 10.453-17.293 7.253-20.36 15.12-46.36-4.96-60.973" fill="#fff"/><path d="M63.08 83.546c.106-.68.04-1.4-.214-2.053-.346-.88-1.053-1.64-1.907-2.107a3.432 3.432 0 0 0-2.84-1c-.68.067-1.373.44-1.88.907-.373.346-.72.786-.906 1.266-.053.12-.067.227-.107.347A2.95 2.95 0 0 0 55 84.173c.427.733 1 1.24 1.734 1.64.213.106.44.2.68.28a5.66 5.66 0 0 0 1.56.44c.68.093 1.346-.04 1.973-.267a1.93 1.93 0 0 0 .467-.24c.293-.187.573-.373.787-.653.44-.547.76-1.12.88-1.814M88.413 86.946a4.648 4.648 0 0 0-2.84-1.707c-1.107-.186-2.174-.053-3.174.454a2.219 2.219 0 0 0-.373.24c-.253.186-.507.386-.707.626-.306.374-.586.8-.733 1.267-.213.667-.28 1.187-.213 1.893.066.667.373 1.254.733 1.814.373.56.933.946 1.52 1.253.4.213.867.36 1.333.413.24.027.467.027.707.027.08 0 .16.027.253.027.547.013 1.08-.134 1.574-.347.213-.093.4-.213.586-.333.294-.134.56-.307.8-.507.32-.28.6-.627.814-.987.213-.36.373-.786.453-1.2.187-1.013-.093-2.106-.72-2.92" fill="#0C0C0C"/></g><path d="M113.452 529.649c6.934-1.893 20.187-13.88 29.014-14.506 8.826-.627 26.493 5.04 29.013 13.88 2.52 8.839-2.52 45.413-31.533 58.026-29.014 12.613-57.4 1.893-64.96-12.613-7.56-14.507 5.04-34.694 10.093-37.84 5.054-3.147 21.44-5.04 28.387-6.933l-.014-.014Z" fill="#D83130"/><path d="M113.452 529.649s0-18.92-28.386-29.64c0 0-10.72 20.813 28.386 29.64Z" fill="#FED062"/><path d="M117.959 512.009c.333-5.293.813-10.56 1.533-15.8.187-1.426-.693-2.626-2.093-3-1.16-.293-3.08.16-3.28 1.6-.773 5.387-1.373 10.8-1.707 16.24-.16 2.694-.28 5.4-.333 8.107-.053 2.627-.307 5.453.067 8.053.413 2.92 5.093 3.427 5.386.214.227-2.494.054-5.067.107-7.574.067-2.613.173-5.226.333-7.826l-.013-.014Z" fill="#0C0C0C"/><path d="M149.639 527.449c-.307-1.253-1.52-2.333-2.84-2.386a35.181 35.181 0 0 0-2.387 0h-.04.027c-.013 0-.027 0-.04-.014-.147-.053-.293-.106-.453-.146a7.167 7.167 0 0 0-.774-.16c-.64-.094-1.306-.12-1.946-.094-1.28.054-2.6.347-3.774.867-2.226.973-4.173 2.653-5.306 4.8-1.134 2.146 1.4 4.213 3.48 3.64a322.76 322.76 0 0 0 12.226-3.56c1.16-.36 2.147-1.693 1.84-2.933l-.013-.014Z" fill="#fff"/><path d="m144.239 524.982.107.054h.013c-.04-.014-.093-.04-.133-.054h.013ZM162.945 536.209a6.307 6.307 0 0 0-.853-1.026c-.067-.067-.147-.12-.213-.187.133-.307.213-.627.2-.973 0-1.014-.587-1.84-1.294-2.494-.573-.533-1.386-.866-2.146-1.026-1.547-.32-3.28.08-4.427 1.186-1 .974-1.427 2.574-1.08 3.934.227.866.507 1.56 1.067 2.266.573.734 1.293 1.2 2.093 1.64.667.36 1.453.587 2.2.694.773.12 1.587.146 2.373.079.974-.08 1.947-.546 2.414-1.453.226-.44.306-.893.24-1.373a2.661 2.661 0 0 0-.574-1.28v.013ZM54.213 516.756c-7.027 3.853-12.24 10.107-15.373 17.44-1.494 3.48-2.44 7.173-2.894 10.946-.453 3.76-.68 8.414.907 11.907.813 1.8 4.427 1.867 4.52-.453.067-1.934-.44-3.88-.533-5.827-.08-1.72-.027-3.453.16-5.173.373-3.614 1.373-7.16 2.826-10.48 2.72-6.227 7.28-11.64 12.813-15.56 1.654-1.16-.906-3.64-2.426-2.8ZM63.6 575.289c-1.574-2.92-3.36-5.68-4.52-8.813-1.094-2.974-1.747-6.067-2.04-9.214-.587-6.2.333-12.96 3.52-18.386 1.053-1.787-2.174-3.667-3.254-1.894-3.786 6.267-6.026 12.96-5.986 20.347.04 6.84 2.133 15.173 7.04 20.2 1.013 1.04 2.466 1.52 3.853.92 1.146-.493 2.04-1.893 1.36-3.147l.026-.013Z" fill="#fff"/><path d="M108.279 599.409c-7.88-.92-16.28-2.36-23.586-5.827 2.706 8.187 12.92 8.4 21.426 7.307 2.16-.28 4.28-.667 6.387-1.094-1.414-.133-2.814-.226-4.227-.386Z" fill="#D83130"/><path d="M216.425 338.157h-94.186v94.186h94.186v-94.186Z" fill="#FED061"/><mask id="b" style="mask-type:luminance" maskUnits="userSpaceOnUse" x="122" y="338" width="95" height="95"><path d="M216.425 338.144h-94.186v94.186h94.186v-94.186Z" fill="#fff"/></mask><g mask="url(#b)"><path d="M223.452 365.317s-1.734-.253-2.027-.266c-.48 0-.96 0-1.427.013-.8 0-1.6.013-2.386.027-1.907.026-3.827.04-5.734.053-3.666.027-7.333.053-11 .067-7.333.026-14.666.026-21.999 0-6.507-.027-13.014-.094-19.507-.16.44-2.627.107-5.494.133-8.147.027-2.747.08-5.507.174-8.253.093-2.654.213-5.307.346-7.96.134-3.027.534-6.16.054-9.174-.134-.839-1.56-.959-1.854-.186-1 2.68-1.226 5.666-1.52 8.506-.306 2.867-.506 5.747-.666 8.627-.147 2.787-.254 5.56-.307 8.347-.04 2.666-.333 5.573.147 8.2-7-.094-14-.2-20.987-.32-4.133-.08-8.266-.2-12.4-.24-2.04-.027-4.093-.067-6.133-.054-1.227 0-2.453.027-3.68.08-.933.027-1.827 0-2.68.4 0 .014.027.027.04.04-.587.294-.8 1.08 0 1.614.693.453 1.493.48 2.307.56.986.093 1.96.186 2.946.24 1.947.106 3.88.2 5.814.28 3.68.146 7.36.226 11.04.306 7.333.174 14.666.307 21.999.4 11.92.16 23.827.214 35.747.214v.96c-.027 1.44.04 2.879.067 4.319.053 2.92.106 5.854.106 8.774a295.277 295.277 0 0 1-.293 12.733c-.04.707-.107 1.413-.107 2.12 0 .573.12.96.374 1.32l-52.64.067c-3.987 0-7.973 0-11.96.026-1.907 0-3.813.014-5.72.04-2 .014-4.093-.08-6.08.214-1.72.253-1.507 2.32-.12 2.76v.026c.093.014.173.014.267.027.066 0 .106.04.173.04h.133c1.574.2 3.187.147 4.774.16 1.76.027 3.52 0 5.293.013h14.973c-.413 2.654-.253 5.507-.333 8.134-.107 3.28-.147 6.559-.213 9.853-.067 3.28-.134 6.546-.187 9.826-.053 3.294-.387 6.734-.107 10.014.174 2.146 3.507 1.96 3.707-.107.32-3.307.12-6.733.16-10.053.04-3.334.067-6.667.093-10 .027-3.24.067-6.493.054-9.733 0-2.56.213-5.334-.134-7.934 4.534 0 9.08 0 13.613-.013 14.04-.027 28.094-.04 42.147-.067h11.973c1.92-.026 3.827-.026 5.747-.026 2.026 0 4.053.106 6.053-.24 1.52-.267 1.747-2.454.133-2.787-1.773-.36-3.56-.267-5.373-.267h-23.387c.707-1.013.494-2.653.547-3.84.067-1.493.12-2.973.16-4.466.08-3.054.094-6.107.054-9.147a164.16 164.16 0 0 0-.36-8.853c-.041-.507-.067-2.307-.387-3.867h5.546c4.147 0 8.294-.04 12.427-.066 1.987-.014 3.987-.04 5.973-.054 2.094-.026 4.214.08 6.28-.306.654-.12 1.267-.654 1.294-1.347.013-.333-.694-1.787-1.174-1.453" fill="#EF7D3E"/></g><path d="M165.119 235.971s23.4-3.266 31.333 16.134c5.413 13.24 4.773 49.079-4.747 62.519-9.533 13.44-28.093 10.08-28.093 10.08l1.507-88.719v-.014Z" fill="#EF7D40"/><mask id="c" style="mask-type:luminance" maskUnits="userSpaceOnUse" x="163" y="235" width="37" height="91"><path d="m165.132 235.971-1.507 88.733s18.56 3.36 28.093-10.08c9.534-13.44 10.174-49.279 4.747-62.519-5.933-14.507-20.52-16.334-27.493-16.334-2.347 0-3.84.214-3.84.214" fill="#fff"/></mask><g mask="url(#c)" fill="#D93231"><path d="m196.785 243.411-6.56.76c-2.386.28-4.773.547-7.146.84-2.32.294-4.76.507-6.974 1.28-1.44.507-.853 2.6.467 2.827 1.893.347 3.84.093 5.747-.053 2.12-.16 4.24-.374 6.346-.574 1.787-.16 3.56-.346 5.347-.52.893-.093 1.773-.173 2.666-.266.28-.027.694 0 1.014-.054 1.253 1.08 3.92.427 3.973-1.4.067-2.72-2.787-3.106-4.893-2.853M206.398 264.358c-.44-1.28-1.906-1.653-3.106-1.413-4.32.853-8.56 2.04-12.92 2.773-2.107.36-4.227.667-6.347.947-2.093.266-4.32.333-6.346.933-1.907.573-1.44 3 .386 3.307 2.507.426 5.387-.08 7.894-.36a123.71 123.71 0 0 0 6.266-.854c4.147-.666 8.533-1.306 12.507-2.653 1.133-.387 2.093-1.427 1.666-2.693M202.238 283.024c-2.173-.106-4.573.734-6.719 1.08-2.147.36-4.294.667-6.454.92-2.133.254-4.28.48-6.426.667-2.28.2-4.814.173-7.027.76-.667.173-1.267.573-1.267 1.333 0 .414.694 1.787 1.254 1.534.04-.014 2.213.266 2.72.293.533.027 1.066.053 1.6.067 1.12 0 2.24-.04 3.373-.094a123.07 123.07 0 0 0 8.573-.706c1.867-.214 3.72-.467 5.573-.76 1.96-.307 4.12-.467 5.934-1.254 2.28-.986.946-3.733-1.107-3.826M200.025 299.971c-1.293-.333-2.707.16-3.987.4-1.293.227-2.586.44-3.88.613-3.266.454-6.533.76-9.826.894-2.013.08-4.027.133-6.027.16-1.426.013-2.906-.08-4.306.2-1.587.32-1.6 2.226-.094 2.746 2.254.774 4.84.72 7.2.787 2.067.053 4.134.013 6.2-.08a111.45 111.45 0 0 0 7.867-.653c1.066-.134 2.133-.267 3.2-.427.56-.08 1.186-.24 1.813-.347.347.16.707.267 1.053.28 3.04.174 3.84-3.8.814-4.573M195.412 316.078c-1.294-.334-2.707.16-3.987.4-1.293.226-2.586.44-3.893.613-3.253.453-6.533.76-9.827.893-2.013.08-4.026.134-6.026.16-1.427.014-2.907-.08-4.307.2-1.587.32-1.6 2.227-.093 2.747 2.253.773 4.84.72 7.2.786 2.066.054 4.133.014 6.2-.079a110.833 110.833 0 0 0 11.066-1.081c.574-.08 1.187-.239 1.814-.346.346.16.706.267 1.053.28 3.04.173 3.84-3.8.813-4.573"/></g><path d="M165.119 235.971c12.533 0 17.56 20.414 17.56 44.307s-7.52 44.426-19.054 44.426c-11.533 0-19.053-21.52-19.053-43.68 0-22.159 7.027-45.053 20.56-45.053" fill="#FED063"/><path d="M164.759 292.771c-.36 1.107-2.08 1.627-3.2 1.16-1.08-.44-1.054-2-1.08-3.013-.08-2.774 0-5.56-.04-8.334a572.46 572.46 0 0 0-.094-4.72c.427-2.373.534-4.866.694-7.253.106-1.387.133-2.76.16-4.16 0-.666 0-1.346.026-2.026 0-.04 0-.147.027-.267.76 0 1.64-.36 2.147.147.56.56.56 1.893.64 2.626.306 2.867.466 5.747.613 8.627.147 2.853.213 5.693.227 8.546v4.387c-.014 1.24.306 3.107-.08 4.28m4.626-3.987c-.04-3.84-.2-7.666-.36-11.493-.173-3.773-.28-7.6-.72-11.346-.306-2.614-1.533-5.187-4.373-5.72-.96-.174-1.92-.094-2.867-.254-.88-.16-1.666-.24-2.506.12-1.454.627-1.96 2.04-2.054 3.52-.093 1.52-.093 3.053-.053 4.587-.493 6.213-.72 12.453-.813 18.693-.04 3.093-.534 6.853 1.946 9.227 2.174 2.093 6.427 2.24 9.107 1.053 3.36-1.48 2.72-5.36 2.693-8.373" fill="#fff"/><path d="M203.985 297.771c1.293-5.547 1.187-11.08.147-16.506-.134 5.573-.72 11.159-2.04 16.586-.76 3.093-1.787 6.093-2.934 9.067-.96 2.493-1.893 5-2.413 7.626 3.12-5.28 5.84-10.813 7.24-16.76" fill="#EF7D3E"/><path d="M218.372 409.237c.026-7.387 0-14.76-.054-22.133-.146-15.414-.16-30.827-.173-46.24 0-1.213-2.16-1.813-2.2-.4-.413 15.093-.813 30.187-1.347 45.266-.266 7.56-.48 15.12-.653 22.68-.16 7.533-.747 15.293-.227 22.813.134 1.987 4.014 2.72 4.24.507.734-7.4.374-15.067.4-22.493" fill="#1D1D1B"/><path d="M1562.08 745.914h-94.18V840.1h94.18v-94.186Z" fill="#FED061"/><mask id="d" style="mask-type:luminance" maskUnits="userSpaceOnUse" x="1467" y="745" width="96" height="96"><path d="M1562.08 745.914h-94.18V840.1h94.18v-94.186Z" fill="#fff"/></mask><g mask="url(#d)"><path d="M1569.12 773.087s-1.73-.253-2.03-.267c-.48 0-.96 0-1.42.014-.8 0-1.6.013-2.39.026-1.91.027-3.83.04-5.73.054-3.67.026-7.34.053-11 .066-7.34.027-14.67.027-22 0-6.51-.026-13.02-.093-19.51-.16.44-2.626.11-5.493.13-8.146.03-2.747.08-5.507.18-8.254.09-2.653.21-5.306.34-7.959.14-3.027.54-6.16.06-9.174-.14-.84-1.56-.96-1.86-.186-1 2.68-1.22 5.666-1.52 8.506-.3 2.867-.5 5.747-.66 8.627-.15 2.786-.26 5.56-.31 8.346-.04 2.667-.33 5.574.15 8.2-7-.093-14-.2-20.99-.32-4.13-.08-8.26-.2-12.4-.24-2.04-.026-4.09-.066-6.13-.053-1.23 0-2.45.027-3.68.08-.93.027-1.83 0-2.68.4 0 .013.03.027.04.04-.59.293-.8 1.08 0 1.613.69.454 1.49.48 2.31.56.98.094 1.96.187 2.94.24 1.95.107 3.88.2 5.82.28 3.68.147 7.36.227 11.04.307 7.33.173 14.66.307 21.99.4 11.92.16 23.83.213 35.75.213v.96c-.03 1.44.04 2.88.07 4.32.05 2.92.1 5.854.1 8.774 0 2.92-.05 5.666-.13 8.493-.04 1.413-.09 2.826-.16 4.24-.04.706-.11 1.413-.11 2.12 0 .573.12.96.38 1.32l-52.64.066c-3.99 0-7.97 0-11.96.027-1.91 0-3.81.013-5.72.04-2 .013-4.09-.08-6.08.213-1.72.254-1.51 2.32-.12 2.76v.027c.09.013.17.013.27.027.06 0 .1.04.17.04h.13c1.58.2 3.19.146 4.78.16 1.76.026 3.52 0 5.29.013h14.97c-.41 2.653-.25 5.507-.33 8.133-.11 3.28-.15 6.56-.22 9.854-.06 3.28-.13 6.546-.18 9.826-.05 3.293-.39 6.733-.11 10.013.17 2.147 3.51 1.96 3.71-.106.32-3.307.12-6.734.16-10.054.04-3.333.06-6.666.09-9.999.03-3.24.07-6.494.05-9.734 0-2.56.22-5.333-.13-7.933 4.53 0 9.08 0 13.61-.013 14.04-.027 28.1-.04 42.15-.067h11.97c1.92-.027 3.83-.027 5.75-.027 2.03 0 4.05.107 6.05-.24 1.52-.266 1.75-2.453.14-2.786-1.78-.36-3.56-.267-5.38-.267h-23.38c.7-1.013.49-2.653.54-3.84a232.625 232.625 0 0 0 .22-13.613c-.04-2.96-.16-5.907-.36-8.853-.04-.507-.07-2.307-.39-3.867h5.55c4.14 0 8.29-.04 12.42-.067 1.99-.013 3.99-.04 5.98-.053 2.09-.027 4.21.08 6.28-.307.65-.12 1.26-.653 1.29-1.346.01-.334-.69-1.787-1.17-1.454" fill="#EF7D3E"/></g><path d="M1510.79 643.742s23.4-3.267 31.33 16.133c5.41 13.24 4.77 49.079-4.75 62.519-9.53 13.44-28.09 10.08-28.09 10.08l1.51-88.719v-.013Z" fill="#EF7D40"/><mask id="e" style="mask-type:luminance" maskUnits="userSpaceOnUse" x="1509" y="643" width="37" height="90"><path d="m1510.79 643.741-1.51 88.733s18.56 3.36 28.09-10.08c9.54-13.44 10.18-49.279 4.75-62.519-5.93-14.507-20.52-16.333-27.49-16.333-2.35 0-3.84.213-3.84.213" fill="#fff"/></mask><g mask="url(#e)" fill="#D93231"><path d="M1542.45 651.181c-2.18.254-4.37.507-6.56.76-2.38.28-4.77.547-7.14.84-2.32.294-4.76.507-6.98 1.28-1.44.507-.85 2.6.47 2.827 1.89.347 3.84.093 5.75-.053 2.12-.16 4.24-.374 6.34-.574 1.79-.16 3.56-.346 5.35-.52.89-.093 1.77-.173 2.67-.266.28-.027.69 0 1.01-.054 1.25 1.08 3.92.427 3.97-1.4.07-2.72-2.78-3.106-4.89-2.853M1552.07 672.128c-.44-1.28-1.91-1.653-3.11-1.413-4.32.853-8.56 2.04-12.92 2.773-2.11.36-4.23.667-6.35.947-2.09.266-4.32.333-6.34.933-1.91.573-1.44 3 .38 3.307 2.51.426 5.39-.08 7.9-.36 2.09-.227 4.18-.52 6.26-.854 4.15-.666 8.54-1.306 12.51-2.653 1.13-.387 2.09-1.427 1.67-2.693M1547.91 690.794c-2.18-.106-4.58.734-6.72 1.08-2.15.36-4.3.667-6.46.92-2.13.254-4.28.48-6.42.667-2.28.2-4.82.173-7.03.76-.67.173-1.27.573-1.27 1.333 0 .414.7 1.787 1.26 1.534.04-.014 2.21.266 2.72.293.53.027 1.06.053 1.6.067 1.12 0 2.24-.04 3.37-.094 2.87-.133 5.72-.373 8.57-.706 1.87-.214 3.72-.467 5.58-.76 1.96-.307 4.12-.467 5.93-1.254 2.28-.986.95-3.733-1.11-3.826M1545.69 707.728c-1.29-.334-2.7.16-3.98.4-1.3.226-2.59.44-3.88.613-3.27.453-6.54.76-9.83.893-2.01.08-4.03.134-6.03.16-1.42.014-2.9-.08-4.3.2-1.59.32-1.6 2.227-.1 2.747 2.26.773 4.84.72 7.2.787 2.07.053 4.14.013 6.2-.08 2.63-.12 5.26-.347 7.87-.654a129.8 129.8 0 0 0 3.2-.426c.56-.08 1.19-.24 1.81-.347.35.16.71.267 1.06.28 3.04.173 3.84-3.8.81-4.573M1541.08 723.847c-1.29-.333-2.71.16-3.99.4-1.29.227-2.58.44-3.89.614-3.25.453-6.53.76-9.83.893-2.01.08-4.02.133-6.02.16-1.43.013-2.91-.08-4.31.2-1.59.32-1.6 2.227-.09 2.747 2.25.773 4.84.72 7.2.786 2.06.054 4.13.014 6.2-.08a110.81 110.81 0 0 0 11.06-1.08c.58-.08 1.19-.24 1.82-.346.34.16.7.266 1.05.28 3.04.173 3.84-3.8.81-4.574"/></g><path d="M1510.79 643.741c12.53 0 17.56 20.414 17.56 44.307s-7.52 44.426-19.06 44.426c-11.53 0-19.05-21.52-19.05-43.68 0-22.159 7.03-45.053 20.56-45.053" fill="#FED063"/><path d="M1510.43 700.528c-.36 1.106-2.08 1.626-3.2 1.16-1.08-.44-1.06-2-1.08-3.014-.08-2.773 0-5.559-.04-8.333-.03-1.573-.06-3.146-.1-4.72.43-2.373.54-4.866.7-7.253.1-1.387.13-2.76.16-4.16 0-.667 0-1.347.02-2.027 0-.04 0-.146.03-.266.76 0 1.64-.36 2.15.146.56.56.56 1.894.64 2.627.3 2.867.46 5.747.61 8.627.15 2.853.21 5.693.23 8.546v4.387c-.02 1.24.3 3.107-.08 4.28m4.62-3.987c-.04-3.84-.2-7.666-.36-11.493-.17-3.773-.28-7.6-.72-11.347-.3-2.613-1.53-5.186-4.37-5.72-.96-.173-1.92-.093-2.87-.253-.88-.16-1.66-.24-2.5.12-1.46.627-1.96 2.04-2.06 3.52a53.92 53.92 0 0 0-.05 4.587c-.49 6.213-.72 12.453-.81 18.693-.04 3.093-.54 6.853 1.94 9.226 2.18 2.094 6.43 2.24 9.11 1.054 3.36-1.48 2.72-5.36 2.69-8.374" fill="#fff"/><path d="M1549.65 705.541c1.3-5.546 1.19-11.08.15-16.506-.13 5.573-.72 11.16-2.04 16.586-.76 3.093-1.79 6.093-2.93 9.067-.96 2.493-1.9 5-2.42 7.626 3.12-5.28 5.84-10.813 7.24-16.76" fill="#EF7D3E"/><path d="M1564.04 817.007c.03-7.387 0-14.76-.05-22.133-.15-15.413-.16-30.827-.18-46.24 0-1.213-2.16-1.813-2.2-.4-.41 15.093-.81 30.187-1.34 45.266-.27 7.56-.48 15.12-.66 22.68-.16 7.534-.74 15.293-.22 22.813.13 1.987 4.01 2.72 4.24.507.73-7.4.37-15.066.4-22.493" fill="#1D1D1B"/><path d="M115.492 247.878s-.04.053-.053.067c-.013.026-.04.04-.053.08-.4.466-.587 1.186-.494 1.733.24 1.453 1.96 2.813 3.094 3.653.84.614 1.706 1.227 2.6 1.747.173.107.36.187.533.28l1.88 1.4c1.04.773 1.973 1.693 3.387 1.413.186-.04.346-.106.506-.2 1.187.24 2.374-.706 2.627-1.853.147-.68.147-1.453-.2-2.08-.333-.613-.76-.96-1.373-1.267.493.254-.294-.16-.374-.2-.186-.093-.373-.2-.546-.293-.427-.227-.854-.467-1.28-.693a53.145 53.145 0 0 1-2.4-1.414 61.424 61.424 0 0 1-4.694-3.2c-1.04-.773-2.52-.253-3.146.8M93.532 222.718c-.52.187-.92.507-1.24.96-.733 1.054-.706 2.574.147 3.574l.227.266c.026.04.026.08.053.12.92 1.467 2.094 2.814 3.294 4.04.253.254.506.48.76.734 1 1.186 1.986 2.373 3.013 3.52.826.933 2.173 1.066 3.12.24.773-.667 1.04-1.667.893-2.64.08-.747-.08-1.52-.573-2.134-2.187-2.813-4.627-5.36-7.24-7.773-.054-.067-.12-.133-.174-.2v.027c-.16-.147-.306-.307-.466-.454-.413-.373-1.307-.48-1.827-.293M78.4 198.278c-.174.04-.374.067-.507.16-.027.027-.054.054-.08.067l-.014.013c-.28.2-.506.44-.68.72-.026.04-.04.094-.066.134-.12.213-.214.413-.28.653-.214.72-.187 1.493.146 2.2.2.413.414.8.614 1.213 1.146 2.747 2.6 5.387 4.146 7.92.334.56.707 1.04 1.36 1.267.56.187 1.307.12 1.8-.227 1.12-.786 1.547-2.4.92-3.64-.026-.053-.053-.12-.093-.173-.027-.093-.027-.187-.067-.28-.293-.787-.76-1.507-1.173-2.24a95.398 95.398 0 0 1-.867-1.613c-.84-1.64-1.68-3.294-2.52-4.934-.493-.946-1.613-1.533-2.626-1.24M70.093 167.825c-1.427.494-1.867 1.907-1.694 3.294.56 4.213 1.414 8.373 2.68 12.426.32 1.147 1.334 2.374 2.68 1.947.827-.267 1.454-1.027 1.68-1.88v-.013c.027-.107.067-.214.08-.334.16-.52.214-1.093.147-1.666-.427-3.64-1-7.254-1.667-10.854-.146-.76-.68-1.386-1.346-1.733-.507-.893-1.587-1.533-2.574-1.187" fill="#fff"/><mask id="f" style="mask-type:luminance" maskUnits="userSpaceOnUse" x="704" y="549" width="96" height="102"><path d="m725.662 549.86-20.999 81.786 73.379 18.841 20.999-81.786-73.379-18.841Z" fill="#fff"/></mask><g mask="url(#f)"><path d="M778.141 566.009a35.359 35.359 0 0 0-9.4-4.92 3.55 3.55 0 0 0-1.334-.493 4.768 4.768 0 0 1-.426-.054c-8.48-2.373-17.32-1.253-25.147 2.467-3.226 1.227-6.306 2.867-9.146 4.987-11.12 8.279-15.4 22.106-19.654 34.706-2.466 7.293-11.013 26.68.174 31.08 3.066 1.2 5.84.093 7.746-2.094 2-5.8 3.547-11.76 5.96-17.413.24-.56.64-.947 1.134-1.187.72-.6 1.84-.773 2.693-.56 3.213.827 2.987 5.187 2.813 7.894-.213 3.373-.933 6.733-1.72 10.013-.133.573-.293 1.133-.44 1.707.267.826.627 1.64 1.16 2.453 4.96 7.64 13.08 5.2 16.627-1.333.426-3.08 1.453-6.174 2.933-8.92.32-.76.707-1.494 1.2-2.16.2-.267.413-.507.627-.734.173-.226.32-.48.493-.706.693-.894 1.973-1.2 3.04-.934l.8.2c.733.187 1.68.76 1.827 1.574.626 3.346-.107 6.573-.627 9.893a90.785 90.785 0 0 0-.8 6.853c.56 1.28 1.36 2.454 2.453 3.414.307.266.627.48.947.706 2.747 2.387 6.96 3.094 10.587 1.814 6.786-2.4 8.88-10.547 10.453-17.294 7.253-20.359 15.12-46.359-4.96-60.972" fill="#fff"/><path d="M744.967 585.035c.107-.68.041-1.4-.213-2.053-.346-.88-1.053-1.64-1.906-2.107a3.432 3.432 0 0 0-2.84-1c-.68.067-1.374.44-1.88.907-.374.347-.72.787-.907 1.267-.053.12-.067.226-.107.346a2.95 2.95 0 0 0-.226 3.267c.426.733 1 1.24 1.733 1.64.213.107.44.2.68.28.493.227 1.013.36 1.56.44.68.093 1.347-.04 1.973-.267.174-.066.32-.133.467-.24.293-.186.573-.373.787-.653.44-.547.759-1.12.879-1.813M770.314 588.435a4.643 4.643 0 0 0-2.84-1.706c-1.107-.187-2.173-.053-3.173.453a2.241 2.241 0 0 0-.374.24c-.253.187-.506.387-.706.627-.307.373-.587.8-.734 1.266-.213.667-.28 1.187-.213 1.894.067.666.373 1.253.733 1.813.374.56.934.947 1.52 1.253.4.214.867.36 1.334.414.24.026.466.026.706.026.08 0 .16.027.254.027.546.013 1.08-.133 1.573-.347.213-.093.4-.213.587-.333.293-.133.56-.307.8-.507.32-.28.6-.626.813-.986.213-.36.373-.787.453-1.2.187-1.014-.093-2.107-.72-2.92" fill="#0C0C0C"/></g><path d="M797.394 749.368s-.04.053-.054.066c-.013.027-.04.04-.053.08-.4.467-.587 1.187-.493 1.733.24 1.454 1.96 2.814 3.093 3.654.84.613 1.707 1.226 2.6 1.746.173.107.36.187.533.28l1.88 1.4c1.04.774 1.974 1.694 3.387 1.414.187-.04.347-.107.507-.2 1.186.24 2.373-.707 2.626-1.854.147-.68.147-1.453-.2-2.08-.333-.613-.76-.96-1.373-1.266.493.253-.293-.16-.373-.2-.187-.094-.374-.2-.547-.294-.427-.226-.853-.466-1.28-.693a54.257 54.257 0 0 1-2.4-1.413 62.192 62.192 0 0 1-4.693-3.2c-1.04-.774-2.52-.254-3.147.8M775.421 724.208c-.52.186-.92.506-1.24.96-.734 1.053-.707 2.573.146 3.573l.227.267c.027.04.027.08.053.12.92 1.466 2.094 2.813 3.294 4.04.253.253.506.48.76.733 1 1.187 1.986 2.373 3.013 3.52.827.933 2.173 1.067 3.12.24.773-.667 1.04-1.667.893-2.64.08-.747-.08-1.52-.573-2.133-2.187-2.814-4.627-5.36-7.24-7.774-.053-.066-.12-.133-.173-.2v.027c-.16-.147-.307-.307-.467-.453-.413-.374-1.307-.48-1.827-.294M760.287 699.768c-.173.04-.373.066-.506.16-.027.026-.054.053-.08.066l-.014.014c-.28.2-.506.44-.68.72-.026.04-.04.093-.066.133-.12.213-.214.413-.28.653-.214.72-.187 1.494.146 2.2.2.414.414.8.614 1.214 1.146 2.746 2.6 5.386 4.146 7.92.334.56.707 1.04 1.36 1.266.56.187 1.307.12 1.8-.226 1.12-.787 1.547-2.4.92-3.64-.026-.054-.053-.12-.093-.174-.027-.093-.027-.186-.067-.28-.293-.786-.76-1.506-1.173-2.24a97.622 97.622 0 0 1-.867-1.613c-.84-1.64-1.68-3.293-2.52-4.933-.493-.947-1.613-1.533-2.626-1.24M751.981 669.315c-1.427.493-1.867 1.906-1.694 3.293.56 4.213 1.414 8.373 2.68 12.427.32 1.146 1.334 2.373 2.68 1.946.827-.266 1.454-1.026 1.68-1.88v-.013c.027-.107.067-.213.08-.333.16-.52.214-1.094.147-1.667-.427-3.64-1-7.253-1.667-10.853-.146-.76-.68-1.387-1.346-1.734-.507-.893-1.587-1.533-2.574-1.186M823.42 456.716h.187c.613-.053 1.253-.426 1.573-.866.854-1.2.6-3.374.387-4.774-.16-1.026-.347-2.066-.613-3.079-.054-.2-.12-.387-.174-.587-.106-.773-.226-1.547-.333-2.32-.187-1.28-.2-2.6-1.4-3.387-.16-.106-.32-.16-.493-.213-.667-1-2.187-1.173-3.16-.547-.587.374-1.134.92-1.334 1.614-.2.666-.133 1.213.08 1.866-.173-.52.094.307.12.4.067.2.12.4.187.6.133.467.28.934.413 1.387a60.162 60.162 0 0 1 1.76 8.266c.187 1.28 1.6 1.974 2.8 1.654M821.167 490.049c.493.24 1.013.294 1.56.2 1.267-.226 2.32-1.333 2.427-2.626 0-.12.013-.24.026-.347 0-.04.04-.08.054-.12.373-1.693.506-3.466.533-5.186 0-.36-.013-.707-.027-1.054.134-1.546.267-3.08.36-4.626.08-1.24-.773-2.294-2.026-2.374-1.014-.066-1.92.44-2.494 1.227-.586.467-1.013 1.133-1.106 1.907-.44 3.533-.52 7.066-.387 10.613 0 .093 0 .173-.027.267h.027v.639c.027.56.587 1.267 1.08 1.494M814.58 518.023c.16.093.307.213.467.253h.133c.347.067.667.053.987-.027.053 0 .093-.04.147-.053.226-.067.453-.147.653-.267a3.104 3.104 0 0 0 1.453-1.653c.147-.427.28-.853.427-1.293 1.133-2.76 1.973-5.654 2.667-8.534.16-.64.24-1.24-.067-1.853-.267-.533-.84-1.013-1.427-1.107-1.346-.24-2.8.6-3.226 1.92-.014.067-.04.12-.054.187-.04.08-.106.16-.146.24-.347.76-.52 1.6-.747 2.413l-.52 1.76c-.56 1.76-1.133 3.52-1.707 5.267-.333 1.013.054 2.227.987 2.747M798.914 545.436c1.36.653 2.68-.027 3.533-1.12 2.587-3.374 4.92-6.92 6.88-10.68.587-1.04.733-2.614-.52-3.267-.773-.4-1.747-.293-2.52.147-.107.053-.2.106-.293.173-.48.253-.92.613-1.28 1.067a161.935 161.935 0 0 0-6.494 8.853c-.44.64-.506 1.467-.266 2.173-.28.987.04 2.2.973 2.654M182.918 588.369l.067-.067c.013-.027.04-.04.067-.067a2.276 2.276 0 0 0 .68-1.666c-.094-1.467-1.64-3-2.694-3.96-.773-.707-1.559-1.4-2.399-2.014-.16-.12-.334-.226-.507-.346l-1.72-1.6c-.947-.88-1.787-1.893-3.213-1.76-.187.013-.36.066-.52.133-1.147-.36-2.44.453-2.814 1.56-.226.667-.293 1.427-.026 2.093.266.64.653 1.027 1.226 1.414-.453-.307.267.186.347.24.173.12.347.24.52.346.4.28.8.547 1.2.827.76.533 1.507 1.093 2.24 1.653a63.185 63.185 0 0 1 4.32 3.68c.947.88 2.48.52 3.213-.466M202.078 615.742c.534-.134.974-.4 1.334-.827.84-.973.973-2.493.24-3.573-.067-.093-.134-.2-.2-.293-.014-.04-.014-.094-.04-.12-.76-1.547-1.774-3.014-2.84-4.374-.214-.28-.454-.533-.68-.813-.867-1.28-1.734-2.573-2.627-3.827-.72-1.013-2.04-1.293-3.067-.573-.84.587-1.213 1.547-1.173 2.52-.16.733-.08 1.52.333 2.187 1.88 3.026 4.027 5.826 6.36 8.506.054.067.094.147.147.213l.013-.013c.147.16.267.333.414.493.373.414 1.253.614 1.773.494M214.518 641.648c.187-.026.374-.026.52-.093.04-.013.054-.053.08-.067l.014-.013c.306-.16.56-.387.76-.64.04-.04.053-.093.08-.133.133-.2.253-.387.346-.614.294-.693.347-1.466.08-2.2-.146-.426-.32-.84-.48-1.266-.853-2.854-2.013-5.64-3.28-8.32-.28-.587-.586-1.107-1.213-1.4-.533-.254-1.28-.254-1.813.026-1.2.667-1.8 2.227-1.307 3.52.027.054.053.12.067.187.013.093 0 .187.04.28.2.813.6 1.573.933 2.347.24.56.467 1.133.693 1.693.667 1.72 1.32 3.453 1.987 5.173.387 1 1.44 1.694 2.48 1.52M219.518 672.821c1.48-.346 2.067-1.706 2.04-3.093-.106-4.24-.52-8.48-1.346-12.64-.2-1.173-1.067-2.493-2.467-2.213-.853.173-1.547.867-1.867 1.693-.04.107-.093.2-.12.32a3.93 3.93 0 0 0-.32 1.64c.04 3.654.214 7.32.507 10.96.067.773.52 1.453 1.147 1.867.4.946 1.413 1.693 2.426 1.453M1426.59 741.674a2.48 2.48 0 0 0-1.37-.76c-1.26-.253-2.64.387-3.23 1.56-.05.107-.11.214-.16.32-.03.04-.07.054-.09.094-.98 1.426-1.74 3.04-2.4 4.64-.14.333-.24.666-.38 1-.68 1.386-1.37 2.773-2.02 4.173-.52 1.133-.12 2.413 1.02 2.96.92.44 1.95.28 2.78-.227.72-.226 1.36-.68 1.73-1.373 1.71-3.133 3.07-6.387 4.24-9.733l.12-.24h-.03c.07-.2.16-.4.23-.6.17-.534-.08-1.4-.45-1.787M1409.16 795.394c-.48-.28-.98-.373-1.53-.32-1.28.12-2.43 1.133-2.64 2.413-.01.12-.04.227-.05.347l-.06.12c-.52 1.653-.78 3.413-.96 5.133-.04.347-.04.707-.06 1.053-.26 1.52-.52 3.054-.74 4.587-.17 1.24.59 2.347 1.83 2.533 1 .16 1.95-.293 2.59-1.026.62-.427 1.1-1.054 1.26-1.814.74-3.48 1.1-7 1.26-10.546.01-.08.02-.174.04-.254h-.03c0-.213.04-.426.04-.639.01-.56-.48-1.307-.95-1.587ZM1442.95 718.048c-.11-.147-.2-.307-.35-.414-.02-.026-.06-.026-.09-.04h-.03a2.454 2.454 0 0 0-.93-.346h-.16a3.122 3.122 0 0 0-.71 0c-.74.093-1.45.426-1.96 1.013-.29.347-.57.693-.86 1.04-2.07 2.147-3.91 4.547-5.6 6.973-.38.534-.67 1.067-.62 1.747.06.587.42 1.24.92 1.56 1.18.72 2.83.467 3.71-.6.04-.053.08-.093.12-.147.08-.066.16-.106.23-.173.6-.587 1.06-1.307 1.58-1.973.38-.48.75-.96 1.14-1.44 1.17-1.427 2.34-2.854 3.52-4.28.68-.827.76-2.094.09-2.907M1414.78 768.274c-.16-.093-.31-.213-.48-.24h-.14c-.34-.053-.66-.04-.98.04-.06 0-.1.04-.15.053a2.45 2.45 0 0 0-.65.28c-.66.36-1.18.947-1.43 1.68-.15.427-.27.867-.4 1.294-1.09 2.773-1.88 5.679-2.53 8.573-.15.64-.22 1.24.09 1.853.27.533.85 1 1.45 1.093 1.35.214 2.79-.639 3.2-1.973.02-.066.04-.12.06-.187.04-.08.1-.159.14-.239.34-.774.5-1.614.72-2.427.16-.587.34-1.174.5-1.773.53-1.774 1.08-3.534 1.62-5.294.31-1.026-.08-2.226-1.02-2.72M1467.56 698.261c-1.02-1.106-2.49-.946-3.69-.24-3.64 2.187-7.11 4.64-10.32 7.427-.92.76-1.64 2.16-.71 3.24.58.653 1.52.92 2.4.786h.02c.12-.013.22-.026.33-.053.53-.067 1.08-.24 1.59-.533 3.16-1.84 6.25-3.813 9.28-5.867.64-.44 1-1.173 1.05-1.92.61-.813.77-2.066.06-2.826M1410.62 857.727c-.19.026-.38.026-.54.093-.04.013-.05.04-.08.067l-.01.013c-.31.16-.56.373-.76.627-.04.04-.05.093-.08.133-.13.187-.27.387-.35.613-.29.68-.36 1.467-.1 2.2.14.427.3.854.46 1.28.82 2.867 1.95 5.667 3.19 8.36.27.6.57 1.12 1.2 1.414.53.253 1.28.266 1.81 0 1.2-.654 1.83-2.2 1.35-3.507-.03-.053-.04-.12-.07-.187-.01-.093 0-.187-.04-.28-.2-.813-.58-1.586-.89-2.36-.23-.573-.45-1.133-.68-1.706l-1.92-5.2c-.37-1-1.41-1.72-2.47-1.547M1405.98 826.5c-1.48.32-2.08 1.68-2.08 3.067.05 4.253.41 8.48 1.2 12.653.18 1.173 1.04 2.507 2.44 2.253.85-.16 1.56-.853 1.89-1.666.04-.107.09-.2.12-.32.21-.494.35-1.054.35-1.64 0-3.654-.14-7.32-.38-10.974-.05-.773-.5-1.466-1.13-1.88-.4-.946-1.39-1.706-2.41-1.479" fill="#fff"/><path d="M1103.26 529.649c6.93-1.893 20.18-13.88 29.01-14.506 8.83-.627 26.49 5.04 29.01 13.88 2.52 8.839-2.52 45.413-31.53 58.026-29.01 12.613-57.4 1.893-64.96-12.613-7.57-14.507 5.04-34.694 10.09-37.84 5.06-3.147 21.44-5.04 28.39-6.933l-.01-.014Z" fill="#D83130"/><path d="M1103.26 529.649s0-18.92-28.39-29.64c0 0-10.72 20.813 28.39 29.64Z" fill="#FED062"/><path d="M1107.76 512.009c.34-5.293.82-10.56 1.54-15.8.18-1.426-.7-2.626-2.1-3-1.16-.293-3.08.16-3.28 1.6-.77 5.387-1.37 10.8-1.7 16.24-.16 2.694-.28 5.4-.34 8.107-.05 2.627-.3 5.453.07 8.053.41 2.92 5.09 3.427 5.39.214.22-2.494.05-5.067.1-7.574.07-2.613.18-5.226.34-7.826l-.02-.014Z" fill="#0C0C0C"/><path d="M1139.44 527.449c-.3-1.253-1.52-2.333-2.84-2.386-.78-.027-1.58-.027-2.38 0h-.04.02c-.01 0-.02 0-.04-.014a4.026 4.026 0 0 0-.45-.146c-.25-.067-.51-.12-.77-.16-.64-.094-1.31-.12-1.95-.094-1.28.054-2.6.347-3.77.867-2.23.973-4.18 2.653-5.31 4.8-1.13 2.146 1.4 4.213 3.48 3.64a324.58 324.58 0 0 0 12.23-3.56c1.16-.36 2.14-1.693 1.84-2.933l-.02-.014Z" fill="#fff"/><path d="m1134.04 524.982.11.054h.01c-.04-.014-.09-.04-.13-.054h.01ZM1152.75 536.209a6.14 6.14 0 0 0-.85-1.026c-.07-.067-.15-.12-.22-.187.14-.307.22-.627.2-.973 0-1.014-.58-1.84-1.29-2.494-.57-.533-1.39-.866-2.15-1.026-1.54-.32-3.28.08-4.42 1.186-1 .974-1.43 2.574-1.08 3.934.22.866.5 1.56 1.06 2.266.58.734 1.3 1.2 2.1 1.64.66.36 1.45.587 2.2.694.77.12 1.58.146 2.37.079.97-.08 1.95-.546 2.41-1.453.23-.44.31-.893.24-1.373-.08-.48-.26-.907-.57-1.28v.013ZM1044.02 516.756c-7.03 3.853-12.24 10.107-15.37 17.44-1.5 3.48-2.44 7.173-2.9 10.946-.45 3.76-.68 8.414.91 11.907.81 1.8 4.43 1.867 4.52-.453.07-1.934-.44-3.88-.53-5.827-.08-1.72-.03-3.453.16-5.173.37-3.614 1.37-7.16 2.82-10.48 2.72-6.227 7.28-11.64 12.82-15.56 1.65-1.16-.91-3.64-2.43-2.8ZM1053.4 575.289c-1.57-2.92-3.36-5.68-4.52-8.813-1.09-2.974-1.74-6.067-2.03-9.214-.59-6.2.33-12.96 3.52-18.386 1.05-1.787-2.18-3.667-3.26-1.894-3.78 6.267-6.02 12.96-5.98 20.347.04 6.84 2.13 15.173 7.04 20.2 1.01 1.04 2.46 1.52 3.85.92 1.15-.493 2.04-1.893 1.36-3.147l.02-.013Z" fill="#fff"/><path d="M1098.08 599.409c-7.88-.92-16.28-2.36-23.58-5.827 2.7 8.187 12.92 8.4 21.42 7.307 2.16-.28 4.28-.667 6.39-1.094-1.41-.133-2.81-.226-4.23-.386Z" fill="#D83130"/><path d="M1206.23 338.157h-94.19v94.186h94.19v-94.186Z" fill="#FED061"/><mask id="g" style="mask-type:luminance" maskUnits="userSpaceOnUse" x="1112" y="338" width="95" height="95"><path d="M1206.23 338.144h-94.19v94.186h94.19v-94.186Z" fill="#fff"/></mask><g mask="url(#g)"><path d="M1213.26 365.317s-1.74-.253-2.03-.266c-.48 0-.96 0-1.43.013-.8 0-1.6.013-2.38.027a3088.268 3088.268 0 0 1-16.74.12c-7.33.026-14.66.026-22 0-6.5-.027-13.01-.094-19.5-.16.44-2.627.1-5.494.13-8.147.03-2.747.08-5.507.17-8.253.1-2.654.22-5.307.35-7.96.13-3.027.53-6.16.05-9.174-.13-.839-1.56-.959-1.85-.186-1 2.68-1.23 5.666-1.52 8.506-.31 2.867-.51 5.747-.67 8.627-.14 2.787-.25 5.56-.3 8.347-.04 2.666-.34 5.573.14 8.2-7-.094-14-.2-20.98-.32-4.14-.08-8.27-.2-12.4-.24-2.04-.027-4.1-.067-6.14-.054-1.22 0-2.45.027-3.68.08-.93.027-1.82 0-2.68.4 0 .014.03.027.04.04-.58.294-.8 1.08 0 1.614.7.453 1.5.48 2.31.56.99.093 1.96.186 2.95.24 1.94.106 3.88.2 5.81.28 3.68.146 7.36.226 11.04.306 7.33.174 14.67.307 22 .4 11.92.16 23.83.214 35.75.214v.96c-.03 1.44.04 2.879.06 4.319.06 2.92.11 5.854.11 8.774 0 2.92-.05 5.666-.13 8.493-.04 1.413-.1 2.827-.16 4.24-.04.707-.11 1.413-.11 2.12 0 .573.12.96.37 1.32l-52.64.067c-3.98 0-7.97 0-11.96.026-1.9 0-3.81.014-5.72.04-2 .014-4.09-.08-6.08.214-1.72.253-1.5 2.32-.12 2.76v.026c.1.014.18.014.27.027.07 0 .11.04.17.04h.14c1.57.2 3.18.147 4.77.16 1.76.027 3.52 0 5.29.013h14.98c-.42 2.654-.26 5.507-.34 8.134-.1 3.28-.14 6.559-.21 9.853-.07 3.28-.13 6.546-.19 9.826-.05 3.294-.38 6.734-.1 10.014.17 2.146 3.5 1.96 3.7-.107.32-3.307.12-6.733.16-10.053.04-3.334.07-6.667.1-10 .02-3.24.06-6.493.05-9.733 0-2.56.21-5.334-.13-7.934 4.53 0 9.08 0 13.61-.013 14.04-.027 28.09-.04 42.15-.067h11.97c1.92-.026 3.83-.026 5.75-.026 2.02 0 4.05.106 6.05-.24 1.52-.267 1.75-2.454.13-2.787-1.77-.36-3.56-.267-5.37-.267h-23.39c.71-1.013.5-2.653.55-3.84.07-1.493.12-2.973.16-4.466.08-3.054.09-6.107.05-9.147-.04-2.96-.16-5.907-.36-8.853-.04-.507-.06-2.307-.38-3.867h5.54c4.15 0 8.3-.04 12.43-.066 1.99-.014 3.99-.04 5.97-.054 2.1-.026 4.22.08 6.28-.306.66-.12 1.27-.654 1.3-1.347.01-.333-.7-1.787-1.18-1.453" fill="#EF7D3E"/></g><path d="M1154.92 235.971s23.4-3.266 31.34 16.134c5.41 13.24 4.77 49.079-4.75 62.519-9.53 13.44-28.09 10.08-28.09 10.08l1.5-88.719v-.014Z" fill="#EF7D40"/><mask id="h" style="mask-type:luminance" maskUnits="userSpaceOnUse" x="1153" y="235" width="37" height="91"><path d="m1154.94 235.971-1.51 88.733s18.56 3.36 28.09-10.08c9.54-13.44 10.18-49.279 4.75-62.519-5.93-14.507-20.52-16.334-27.49-16.334-2.35 0-3.84.214-3.84.214" fill="#fff"/></mask><g mask="url(#h)" fill="#D93231"><path d="m1186.59 243.411-6.56.76c-2.39.28-4.77.547-7.15.84-2.32.294-4.76.507-6.97 1.28-1.44.507-.85 2.6.47 2.827 1.89.347 3.84.093 5.74-.053 2.12-.16 4.24-.374 6.35-.574 1.79-.16 3.56-.346 5.35-.52.89-.093 1.77-.173 2.66-.266.28-.027.7 0 1.02-.054 1.25 1.08 3.92.427 3.97-1.4.07-2.72-2.79-3.106-4.89-2.853M1196.2 264.358c-.44-1.28-1.9-1.653-3.1-1.413-4.32.853-8.56 2.04-12.92 2.773-2.11.36-4.23.667-6.35.947-2.09.266-4.32.333-6.35.933-1.9.573-1.44 3 .39 3.307 2.51.426 5.39-.08 7.89-.36 2.1-.227 4.19-.52 6.27-.854 4.15-.666 8.53-1.306 12.51-2.653 1.13-.387 2.09-1.427 1.66-2.693M1192.04 283.024c-2.17-.106-4.57.734-6.72 1.08-2.14.36-4.29.667-6.45.92-2.13.254-4.28.48-6.43.667-2.28.2-4.81.173-7.02.76-.67.173-1.27.573-1.27 1.333 0 .414.69 1.787 1.25 1.534.04-.014 2.22.266 2.72.293.54.027 1.07.053 1.6.067 1.12 0 2.24-.04 3.38-.094 2.86-.133 5.72-.373 8.57-.706a130.1 130.1 0 0 0 5.57-.76c1.96-.307 4.12-.467 5.94-1.254 2.28-.986.94-3.733-1.11-3.826M1189.83 299.971c-1.29-.333-2.71.16-3.99.4-1.29.227-2.58.44-3.88.613-3.26.454-6.53.76-9.82.894-2.02.08-4.03.133-6.03.16-1.43.013-2.91-.08-4.31.2-1.58.32-1.6 2.226-.09 2.746 2.25.774 4.84.72 7.2.787 2.07.053 4.13.013 6.2-.08 2.63-.12 5.25-.347 7.87-.653 1.06-.134 2.13-.267 3.2-.427.56-.08 1.18-.24 1.81-.347.35.16.71.267 1.05.28 3.04.174 3.84-3.8.82-4.573M1185.22 316.078c-1.3-.334-2.71.16-3.99.4-1.29.226-2.59.44-3.89.613-3.26.453-6.54.76-9.83.893-2.01.08-4.03.134-6.03.16-1.42.014-2.9-.08-4.3.2-1.59.32-1.6 2.227-.1 2.747 2.26.773 4.84.72 7.2.786 2.07.054 4.14.014 6.2-.079a110.603 110.603 0 0 0 11.07-1.081c.57-.08 1.19-.239 1.81-.346.35.16.71.267 1.06.28 3.04.173 3.84-3.8.81-4.573"/></g><path d="M1154.92 235.971c12.54 0 17.56 20.414 17.56 44.307s-7.52 44.426-19.05 44.426c-11.53 0-19.05-21.52-19.05-43.68 0-22.159 7.02-45.053 20.56-45.053" fill="#FED063"/><path d="M1154.56 292.771c-.36 1.107-2.08 1.627-3.2 1.16-1.08-.44-1.05-2-1.08-3.013-.08-2.774 0-5.56-.04-8.334-.02-1.573-.05-3.146-.09-4.72.43-2.373.53-4.866.69-7.253.11-1.387.14-2.76.16-4.16 0-.666 0-1.346.03-2.026 0-.04 0-.147.03-.267.76 0 1.64-.36 2.14.147.56.56.56 1.893.64 2.626.31 2.867.47 5.747.62 8.627.14 2.853.21 5.693.22 8.546v4.387c-.01 1.24.31 3.107-.08 4.28m4.63-3.987c-.04-3.84-.2-7.666-.36-11.493-.17-3.773-.28-7.6-.72-11.346-.31-2.614-1.53-5.187-4.37-5.72-.96-.174-1.92-.094-2.87-.254-.88-.16-1.67-.24-2.51.12-1.45.627-1.96 2.04-2.05 3.52a53.92 53.92 0 0 0-.05 4.587c-.5 6.213-.72 12.453-.82 18.693-.04 3.093-.53 6.853 1.95 9.227 2.17 2.093 6.43 2.24 9.11 1.053 3.36-1.48 2.72-5.36 2.69-8.373" fill="#fff"/><path d="M1193.79 297.771c1.29-5.547 1.19-11.08.15-16.506-.14 5.573-.72 11.159-2.04 16.586-.76 3.093-1.79 6.093-2.94 9.067-.96 2.493-1.89 5-2.41 7.626 3.12-5.28 5.84-10.813 7.24-16.76" fill="#EF7D3E"/><path d="M1208.18 409.237c.02-7.387 0-14.76-.06-22.133-.14-15.414-.16-30.827-.17-46.24 0-1.213-2.16-1.813-2.2-.4-.41 15.093-.81 30.187-1.35 45.266-.26 7.56-.48 15.12-.65 22.68-.16 7.533-.75 15.293-.23 22.813.14 1.987 4.02 2.72 4.24.507.74-7.4.38-15.067.4-22.493" fill="#1D1D1B"/><path d="M1105.3 247.878s-.04.053-.06.067c-.01.026-.04.04-.05.08-.4.466-.59 1.186-.49 1.733.24 1.453 1.96 2.813 3.09 3.653.84.614 1.71 1.227 2.6 1.747.17.107.36.187.53.28.63.467 1.26.933 1.88 1.4 1.04.773 1.98 1.693 3.39 1.413.19-.04.35-.106.51-.2 1.18.24 2.37-.706 2.62-1.853.15-.68.15-1.453-.2-2.08-.33-.613-.76-.96-1.37-1.267.49.254-.29-.16-.37-.2-.19-.093-.38-.2-.55-.293-.43-.227-.85-.467-1.28-.693a57.98 57.98 0 0 1-2.4-1.414 62.152 62.152 0 0 1-4.69-3.2c-1.04-.773-2.52-.253-3.15.8M1083.34 222.718c-.52.187-.92.507-1.24.96-.74 1.054-.71 2.574.14 3.574l.23.266c.03.04.03.08.05.12.92 1.467 2.1 2.814 3.3 4.04.25.254.5.48.76.734 1 1.186 1.98 2.373 3.01 3.52.83.933 2.17 1.066 3.12.24.77-.667 1.04-1.667.89-2.64.08-.747-.08-1.52-.57-2.134-2.19-2.813-4.63-5.36-7.24-7.773-.05-.067-.12-.133-.17-.2v.027c-.16-.147-.31-.307-.47-.454-.41-.373-1.31-.48-1.83-.293" fill="#fff"/><path d="M1253.88 738.301c-.49-3.027-1.88-5.413-3.26-8.067-.75-1.426-2.8-.6-2.06.96 1.26 2.64.94 6.24.56 9.04-.3 2.374-.94 4.774-1.88 6.974-2.04 4.84-5.72 8.76-10.12 11.573-4.57 2.92-9.72 4.733-15 5.866-2.93.627-5.9 1.04-8.89 1.214-3.21.2-6.39-.107-9.6-.067-2.95.04-8.79.067-5.8.653 7.17 1.414 17.69 4.787 27.8 2.547 6.07-1.347 11.92-3.88 16.95-7.6 4.85-3.587 8.73-8.453 10.54-14.253.88-2.787 1.24-5.933.76-8.84Z" fill="#0C0C0C"/><path d="M1253.86 739.914c-5.82 21.453-33.96 32.507-62.86 24.68-28.9-7.827-47.62-31.573-41.81-53.026 5.81-21.453 33.95-32.507 62.85-24.68 28.91 7.827 47.63 31.573 41.82 53.026Z" fill="#D73532"/><path d="M1220 754.661c-3.65 13.506-19.72 20.906-35.88 16.533-16.16-4.373-26.29-18.867-22.64-32.373 3.66-13.507 19.72-20.907 35.88-16.533 16.16 4.373 26.3 18.866 22.63 32.373" fill="#FED063"/><mask id="i" style="mask-type:luminance" maskUnits="userSpaceOnUse" x="1148" y="684" width="107" height="84"><path d="M1212.04 686.888c-28.9-7.827-57.05 3.227-62.85 24.68-5.8 21.453 12.91 45.199 41.81 53.026 28.91 7.827 57.04-3.227 62.86-24.68 5.81-21.453-12.91-45.199-41.82-53.026Z" fill="#fff"/></mask><g mask="url(#i)" fill="#fff"><path d="M1179.94 704.208c-2.46 9.04-12.39 14.213-22.19 11.56-9.8-2.654-15.77-12.134-13.32-21.173 2.45-9.04 12.39-14.214 22.19-11.56 9.8 2.653 15.77 12.133 13.32 21.173ZM1233.07 706.408c-2.45 9.04-12.39 14.213-22.19 11.56-9.8-2.654-15.77-12.134-13.32-21.174 2.46-9.039 12.39-14.213 22.19-11.559 9.8 2.653 15.77 12.133 13.32 21.173ZM1265.51 752.207c-2.45 9.04-12.39 14.214-22.19 11.56-9.8-2.653-15.77-12.133-13.32-21.173 2.46-9.04 12.39-14.213 22.19-11.56 9.81 2.653 15.77 12.133 13.32 21.173Z"/></g><path d="M1184.62 738.355c.16-1.147-.24-2.254-1.1-3.054-.08-.066-.17-.12-.25-.173-.04-.04-.05-.093-.11-.133-.56-.52-1.33-.854-2.1-.867-.58-.013-1.23.12-1.72.427-.26.16-.51.333-.71.56-.2.226-.4.48-.55.746-.24.427-.4.907-.56 1.374-.05.146-.09.293-.1.453-.04.453-.03.893.16 1.32.25.573.68 1.04 1.21 1.36.43.4.93.68 1.55.786.26.04.54.04.8 0 .28-.053.5-.133.72-.253.41-.04.81-.12 1.17-.32.83-.453 1.44-1.28 1.57-2.226M1207.23 744.714c0-.213-.07-.44-.13-.653a3.246 3.246 0 0 0-.14-.573c-.16-.44-.45-.8-.8-1.107-.57-.533-1.36-.76-2.12-.8-.28 0-.57.04-.85.093-.04 0-.08.027-.12.04-.79.054-1.59.347-2.09.947-.16.187-.34.387-.47.613a4.27 4.27 0 0 0-.31.747c-.12.36-.14.773-.12 1.147.07.906.58 1.8 1.31 2.36.24.2.49.373.76.48.15.066.31.08.47.12.05 0 .09.04.14.04h.04c.55.133 1.1.186 1.67.053.4-.093.81-.253 1.15-.48.33-.227.65-.467.89-.787.37-.493.59-.88.72-1.48.05-.253.04-.533.03-.786M1196.82 753.088c-.94-.654-2.54-.747-3.3.253-1.22 1.627-2.48 3.227-4.3 4.213-.87.467-1.67.72-2.56.827-.68.08-.7.08-1.27.027-.23-.027-.44-.054-.67-.094l-.36-.12c-.2-.066-.4-.16-.6-.24-.08-.026-.13-.053-.17-.066-.03-.027-.08-.054-.15-.094-.32-.213-.81-.56-.98-.706-.54-.48-1.22-1.36-1.6-2.134-.92-1.88-.88-4.04-.19-5.986.41-1.174-1.53-2.334-2.24-1.187-1.65 2.653-2.2 6.107-1.04 9.053 1.03 2.587 3.33 4.747 6 5.547 5.51 1.64 11.2-1.587 14.05-6.293.64-1.054.43-2.267-.62-3Z" fill="#0C0C0C"/><path d="M1184.74 692.435c-.06-.107-.14-.174-.19-.28.03-.214.01-.427-.05-.614-.27-.8-.98-1.24-1.79-1.293-2.85-.213-5.88-.253-8.57.867-2.64 1.093-5.12 3.173-5.96 5.986-.28.96.29 1.96 1.05 2.494.81.573 2.05.786 2.97.293 1.78-.96 3.59-1.84 5.44-2.613.23-.094.47-.187.7-.28.04-.014.4-.16.48-.187.45-.16.89-.32 1.34-.48.95-.32 1.91-.613 2.87-.867 1.27-.346 2.28-1.693 1.71-3.013M1164.8 706.048c.03-.147 0-.293 0-.44a1.434 1.434 0 0 0-.04-1.067c-.14-.44-.42-.866-.82-1.133-.35-.24-.72-.4-1.14-.493-.48-.107-1.22-.014-1.64.28-.12.093-.21.2-.33.28-.2.133-.41.253-.6.4a9.014 9.014 0 0 0-1.68 1.626 10.004 10.004 0 0 0-1.91 3.827c-.17.68.28 1.44.86 1.907.21.24.45.466.73.626.37.214.76.32 1.19.347.52.027.9-.107 1.36-.333 2.22-1.12 3.65-3.387 4.02-5.8" fill="#FED063"/><path d="M1175.7 587.035s.02-.053.05-.08c0-.026.04-.053.05-.08.36-.506.5-1.226.36-1.76-.34-1.426-2.16-2.653-3.36-3.413-.88-.56-1.78-1.093-2.72-1.547-.18-.093-.37-.16-.56-.24-.66-.426-1.32-.84-1.97-1.266-1.09-.694-2.09-1.547-3.48-1.16-.17.053-.33.133-.48.226-1.2-.146-2.32.894-2.48 2.04-.11.694-.04 1.454.35 2.054.37.586.82.893 1.46 1.16-.5-.214.3.133.39.173.2.08.39.173.57.253l1.32.6c.84.387 1.68.8 2.51 1.227 1.68.867 3.32 1.827 4.92 2.84 1.09.693 2.53.067 3.08-1.04M1199.47 610.502c.51-.227.88-.574 1.16-1.054.65-1.106.51-2.626-.4-3.56-.08-.08-.16-.173-.24-.253-.03-.04-.04-.08-.07-.12-1.02-1.387-2.29-2.64-3.58-3.787-.27-.24-.55-.453-.82-.68-1.08-1.106-2.16-2.213-3.26-3.293-.9-.866-2.24-.906-3.12 0-.72.72-.91 1.747-.7 2.693-.02.747.2 1.507.72 2.094 2.39 2.64 5.02 5 7.79 7.213.07.067.12.12.19.187v-.027c.17.133.32.28.49.413.44.347 1.35.374 1.84.16M1216.36 633.755c.18-.053.36-.093.5-.187l.06-.08.02-.013c.26-.213.48-.48.62-.76.03-.053.04-.093.06-.147.09-.213.18-.426.22-.666.16-.734.08-1.507-.3-2.174-.23-.386-.47-.773-.71-1.16-1.35-2.653-3-5.186-4.73-7.586-.38-.534-.79-.987-1.46-1.16-.57-.147-1.3-.027-1.77.36-1.05.866-1.37 2.506-.65 3.693.04.053.06.107.1.16.04.093.06.187.1.267.34.76.88 1.44 1.33 2.146.33.52.67 1.027.99 1.547.96 1.573 1.92 3.16 2.88 4.733.56.92 1.72 1.414 2.72 1.04M1226.9 663.515c1.38-.6 1.72-2.04 1.45-3.4-.87-4.16-2.03-8.24-3.6-12.187-.41-1.12-1.51-2.266-2.83-1.733-.81.32-1.37 1.133-1.53 2v.013c-.03.107-.05.214-.07.334a4.06 4.06 0 0 0-.02 1.666c.69 3.587 1.53 7.16 2.46 10.693.2.747.78 1.334 1.47 1.627.57.853 1.69 1.413 2.65 1M1190.18 917.473c1.1.147 1.88.92 2.3 1.813.23.414.35.867.34 1.32 0 .067.01.12.01.187-.03 1.4-1 2.853-2.69 3.053-.27.107-.56.2-.9.214-3.04.16-6.1.106-9.14-.107-.39-.027-.76-.04-1.15-.08a78.53 78.53 0 0 1-3.97-.427c-1.74-.24-2.67-2.013-2.63-3.373.04-1.267 1.08-3.133 2.83-3.053l.97.04c.27-.107.53-.2.85-.214 4.39-.226 8.84.027 13.18.627ZM1151.91 917.473c1.11.147 1.88.92 2.31 1.813.22.414.34.867.33 1.32 0 .067.01.12.01.187-.02 1.4-1 2.853-2.69 3.053-.27.107-.56.2-.89.214-3.04.16-6.11.106-9.15-.107-.39-.027-.76-.04-1.15-.08a78.53 78.53 0 0 1-3.97-.427c-1.73-.24-2.67-2.013-2.63-3.373.04-1.267 1.08-3.133 2.83-3.053l.97.04c.27-.107.54-.2.86-.214 4.38-.226 8.84.027 13.17.627Z" fill="#fff"/><path d="m1124.91 895.193-35.41 25.266 33.38 27.894c-7.98 9.533-19.97 15.613-33.38 15.613-24.03 0-43.51-19.48-43.51-43.507 0-24.026 19.48-43.506 43.51-43.506 14.6 0 27.52 7.2 35.41 18.24Z" fill="#FED063"/><path d="M1084.35 893.66c.04-.294.15-.574.24-.854s.19-.56.33-.826c.28-.52.64-1.053 1.07-1.467.35-.346.73-.68 1.16-.96.21-.253.43-.507.68-.733.64-.573 1.53-.947 2.36-1.107a5.382 5.382 0 0 1 2.48.147c.55.16 1.12.426 1.59.773.32.24.64.48.92.76.29.307.53.667.77 1.013.39.56.63 1.174.76 1.827.11.32.2.64.28.96.08.32.12.64.12.96 0 .533 0 1.08-.13 1.6-.1.347-.22.72-.4 1.053-.16.28-.35.6-.55.84-.35.414-.72.667-1.15.907-.1.093-.18.187-.3.28a2.57 2.57 0 0 1-.39.253c-.36.2-.73.414-1.12.56-.53.2-1.15.36-1.72.387-1.16.067-2.35-.013-3.43-.507-.49-.226-1.01-.466-1.44-.813-.3-.253-.62-.493-.88-.787-.26-.293-.46-.64-.66-.96-.3-.466-.44-1.013-.58-1.546-.13-.56-.1-1.187-.01-1.76Z" fill="#0C0C0C"/><path d="m1459.12 100.679 34.15 21.587-29.12 21.586s16.07 34.64 57.24 16.573c41.17-18.079 19.58-69.8.5-77.332-19.08-7.534-46.7-9.04-62.77 17.573" fill="#FED063"/><path d="M1512.44 99.24c-.49-2.8-3.08-5.014-5.92-5.08-1.89-.04-3.91.693-4.97 2.346-.78 1.213-1.28 2.68-1.19 4.133.11 1.68.67 3.227 1.89 4.427.47.453 1.03.867 1.63 1.147 1.36.653 3.03 1.026 4.45.319.12-.053.2-.16.32-.213.14-.053.3-.08.42-.147a6.002 6.002 0 0 0 3.05-3.133c.51-1.2.55-2.533.33-3.786" fill="#0C0C0C"/><path d="M1448.43 115.292c-.32-.013-.63-.026-.95-.053-.05 0-.25-.027-.48-.04-.69-.227-1.4-.427-2.09-.64-1.68-.493-3.4-.893-5.11-1.293-3.38-.814-6.78-1.52-10.21-2.174-1.8-.346-3.83.427-4.59 2.16-.57 1.294-.17 2.614.76 3.52.07.067.16.094.23.16.24.214.49.414.79.56.01 0 .02 0 .04.014.05.026.08.066.12.08.25.106.53.186.78.293 6.6 3.013 13.78 4.267 21 4.373 1.87.027 4.04-1.666 3.84-3.666-.21-2.24-2.13-3.2-4.16-3.294M1404.72 95.36c-2.69-2.134-5.34-4.334-7.85-6.68l-.12-.12c-2.19-2.28-4.37-4.547-6.55-6.814-.72-.76-1.4-1.28-2.46-1.493-.96-.187-2.23-.027-3.07.493-1.55.96-2.63 3.227-1.21 4.827.76.88 1.56 1.72 2.34 2.573.27.493.6.973.92 1.427.55.813 1.18 1.573 1.8 2.32 1.07 1.266 2.18 2.48 3.43 3.56 1.13.986 2.35 1.88 3.59 2.72 1.56 1.64 3.12 3.8 5.62 3.706.91-.026 1.82-.4 2.52-.96.59-.253 1.14-.586 1.54-1.066 1.13-1.374.96-3.374-.47-4.507M1372.5 56.546c-3.06-7.306-5.64-14.773-7.48-22.48-.43-1.826-2.86-2.546-4.44-2.306-1.64.253-3.5 1.64-3.31 3.52a63.07 63.07 0 0 0 5.21 19.546c.12.347.27.68.43 1.027.01.027.03.067.04.107.13.266.28.546.44.826.32.56.87.907 1.47 1.147.24.387.48.787.73 1.173 1.01 1.507 3.09 1.934 4.72 1.334 1.45-.534 2.87-2.214 2.17-3.867M1430.88 241.345h-12.16v12.16h12.16v-12.16ZM1491.68 241.345h-12.16v12.16h12.16v-12.16ZM1443.04 326.451h-12.16v12.16h12.16v-12.16ZM1479.52 326.451h-12.16v12.16h12.16v-12.16Z" fill="#fff"/><path d="M1430.88 277.811h12.16v12.16h-12.16v-12.16Zm36.48 0h12.16v12.16h-12.16v-12.16Zm0-24.32v12.16h-24.32v-12.16h-12.16v12.16h-12.16v12.16h-12.16v12.16h-12.16v36.48h12.16v-24.32h12.16v24.32h12.16v-12.16h48.64v12.16h12.16v-24.32h12.16v24.32H1516v-36.48h-12.16v-12.16h-12.16v-12.16h-12.16v-12.16h-12.16Z" fill="#fff"/><path d="M1455.2 349.877v35.24M1455.2 401.17v35.24M1455.2 452.543v35.24M1455.2 504.236v35.24" stroke="#fff" stroke-width="2.987" stroke-miterlimit="10"/><path d="M1372.48 495.076h10.88v10.88h-10.88v-10.88Zm-32.62 0h10.88v10.88h-10.88v-10.88Zm65.24 0v-10.88h-10.88v-10.88h-21.75v-10.879h-21.75v10.879h-21.74v10.88h-10.88v10.88h-10.88v10.88h10.88v10.88h86.98v-10.88h10.88v-10.88h-10.88.02Z" fill="#D93231"/><path d="M1394.24 514.569h-10.88v13.134h10.88v-13.134ZM1394.24 538.569h-10.88v10.88h10.88v-10.88Z" fill="#D93231"/><path d="M1405.11 527.689h-10.88v10.88h10.88v-10.88ZM1339.87 514.569h-10.88v13.134h10.88v-13.134ZM1339.87 538.569h-10.88v10.88h10.88v-10.88Z" fill="#D93231"/><path d="M1329 527.689h-10.88v10.88H1329v-10.88Z" fill="#D93231"/><path d="M1359.72 566.209v31.52M1359.72 612.089v31.506" stroke="#D93231" stroke-width="2.667" stroke-miterlimit="10"/><path d="M1322.56 965.006c-1.68.613-1.2 3.653.5 3.88 2.06.28 4.13 0 6.2-.2 1.7-.16 3.41-.347 5.12-.507a218.9 218.9 0 0 0 5.01-.547c1.73-.213 3.53-.333 5.05-1.24.55-.32.8-1.199.46-1.746.02.027-.03-.053-.16-.213-.04-.04-.1-.054-.15-.08-.03-.014-.04-.054-.07-.067.03.026.04.04.07.067-.09-.054-.17-.12-.27-.16-.49-.254-1-.387-1.54-.467-.88-.133-1.76-.173-2.66-.173-1.92-.014-3.85-.014-5.77.066-2.11.093-4.21.227-6.33.4-1.88.16-3.68.334-5.47.987M1337.74 926.846c-.43.947-.18 1.987.54 2.707 2.24 2.226 4.75 4.146 7.22 6.12 1.37 1.093 2.82 2.053 4.28 3.026.58.387 1.18.747 1.8 1.094.84.466 1.73.466 2.58.84.48.213.79-.547.55-.894-.49-.693-.72-1.546-1.24-2.226-.6-.76-1.31-1.48-1.99-2.16-1.2-1.2-2.4-2.374-3.7-3.454-2.54-2.106-5.04-4.159-7.82-5.919-.82-.52-1.88.12-2.22.88M1371.44 909.286c-.3.174-.53.414-.69.734-.04.146-.09.28-.13.426-.06.307-.04.614.04.92-.15-.426-.22-.333-.23.28v.4c0 .387.01.774.04 1.147.04.84.19 1.653.31 2.48.22 1.48.38 2.973.6 4.453.18 1.307.33 2.614.58 3.894.2 1.013.47 2 .74 2.986.24.88.65 1.774.76 2.68.06.48.64.347.7-.066.11-.76.46-1.494.64-2.24.16-.627.31-1.267.43-1.907.35-1.813.32-3.653.24-5.493-.07-1.547-.29-3.107-.51-4.64-.09-.72-.17-1.44-.34-2.134-.3-1.186-.79-2.173-1.3-3.266-.32-.694-1.22-1.014-1.89-.64" fill="#fff"/><path d="M1417.7 956.859c-2.7-1.707-6.63-3.147-11.02-4.053-11.2-12.36-31.94-6.814-36.7 9.693-6.27 21.706 17.06 33 35.05 31.026 9.07-1 18.6-5.533 21.76-14.746 2.89-8.44-1.93-17.36-9.09-21.92ZM1471.44 939.659c-6.26-7.8-15.45-5.413-22.12.44-.06.014-.13.027-.2.04-8.52 2.694-18.45 8.294-17.92 18.707.48 9.146 9.16 15.44 17.62 16.586 17.85 2.44 35.08-20.266 22.62-35.773Z" fill="#D73532"/><path d="M1433.22 907.619s20.78 17.267 38.13 8.48c17.36-8.773 21.21-33.453 21.21-33.453s-22.48-6.266-36.4 2.614c-13.92 8.866-22.94 22.359-22.94 22.359Z" fill="#FED063"/><path d="M1465.98 891.993c-.07-.08-.14-.147-.2-.227-1.2-1.427-3.51-.573-3.82.867-.36.16-1.09.466-1.25.546-.8.387-1.6.787-2.4 1.174-1.37.666-2.73 1.333-4.11 2.013-2.84 1.4-5.68 2.8-8.5 4.2-2.71 1.347-5.4 2.693-8.11 4.04-.88.44-1.76.893-2.64 1.333.07-3.746-.21-7.52-.84-11.213-.23-1.36-1.88-1.92-3.05-1.76-.08 0-.18.04-.27.053-.12 0-.24-.026-.37-.013-1.16.12-2.67 1.027-2.67 2.373.01 3.694.4 7.4 1.04 11.054a.591.591 0 0 1-.08.093c-2.68 3.92-4.47 8.64-6.6 12.866-2.12 4.187-4.27 8.36-6.45 12.52-2.2 4.2-4.42 8.4-6.64 12.587a557.375 557.375 0 0 0-3.44 6.533c-.92 1.787-2.08 3.6-2.46 5.6-.32 1.68 2.15 2.76 3.32 1.614 1.88-1.84 3.15-4.227 4.5-6.467a311.52 311.52 0 0 0 3.62-6.133c2.39-4.147 4.68-8.347 6.92-12.56a608.44 608.44 0 0 0 6.34-12.254c1-1.986 2-3.986 2.98-5.986.3-.6.62-1.2.92-1.813 1.91 4.533 3.96 8.999 5.95 13.479 1.41 3.2 2.84 6.4 4.27 9.587 1.52 3.4 2.84 7.107 4.8 10.267 1.3 2.106 5.34.493 4.5-1.987-1.1-3.32-3.02-6.52-4.56-9.667-1.56-3.213-3.13-6.426-4.7-9.64-2.34-4.8-4.67-9.626-7.15-14.359 5.13-2.48 10.21-5.054 15.29-7.627 2.9-1.467 5.79-2.92 8.67-4.4 1.55-.787 3.09-1.587 4.64-2.373 1.21-.627 2.39-1.094 2.93-2.427.3-.707.03-1.347-.42-1.893" fill="#0C0C0C"/><path d="M1387.82 954.232c-.5-.346-1.12-.506-1.75-.506-.65-.907-2.16-1.36-3.2-.56a24.401 24.401 0 0 0-4.85 4.973c-1.3 1.76-2.55 3.733-3.34 5.773-.49 1.267-.42 2.774.39 3.907.41.56 1.03 1.04 1.67 1.293 1.29.494 3.02.36 4-.706.78-.854 1.3-2.014 1.92-2.987.53-.853 1.09-1.693 1.66-2.507.67-.96 1.36-1.906 2.07-2.84.07-.08.12-.16.19-.24-.02.027-.03.04-.04.067 0 0 .01-.027.02-.027.3-.373.6-.746.88-1.133.31-.413.6-.827.9-1.253.73-1.08.56-2.454-.52-3.214M1443.63 950.286c-.63-.427-1.52-.587-2.23-.254-.04.014-.08.014-.12.04l-.6.28c-.36.227-.64.52-.85.894-.83 1.146-1.49 2.426-2.01 3.746-.56 1.454-1.02 2.934-1.18 4.48-.06.627 0 1.174.43 1.68.39.454 1.05.814 1.64.867 1.21.12 2.8-.493 3.03-1.867 0-.04.01-.066.02-.106.22-.334.39-.707.58-1.054.28-.546.53-1.106.77-1.68.23-.506.43-1.026.61-1.546.39-1.08.71-2.187.99-3.294.24-.933-.33-1.746-1.09-2.186M1490.23 628.622c0-.8.36-1.24 1.2-1.24h1.41c.17 0 .27-.094.27-.267v-8.347c0-.146-.03-.2-.08-.2-.06 0-.12.027-.22.094-.46.346-1.09.68-1.65.906-.2.08-.41.12-.59.12-.34 0-.67-.2-.67-.92v-.506c0-.774.19-1.24.77-1.534.76-.386 1.7-1 2.41-1.533.88-.627 1.27-.827 2.15-.827h.14c.86 0 1.32.467 1.32 1.48v11.267c0 .173.1.267.27.267h1.36c.8 0 1.2.44 1.2 1.24v.346c0 .827-.39 1.267-1.2 1.267h-6.89c-.83 0-1.2-.44-1.2-1.267v-.346ZM1501.47 622.368c0-6.213 2.38-8.133 5.72-8.133 3.33 0 5.74 1.92 5.74 8.133 0 6.214-2.41 8.134-5.74 8.134-3.34 0-5.72-1.92-5.72-8.134Zm7.89 0c0-3.746-.2-5.213-2.17-5.213-1.98 0-2.18 1.387-2.18 5.213 0 3.827.23 5.214 2.18 5.214 1.94 0 2.17-1.387 2.17-5.214ZM1515.23 622.368c0-6.213 2.38-8.133 5.72-8.133 3.33 0 5.74 1.92 5.74 8.133 0 6.214-2.41 8.134-5.74 8.134-3.34 0-5.72-1.92-5.72-8.134Zm7.89 0c0-3.746-.2-5.213-2.17-5.213-1.98 0-2.18 1.387-2.18 5.213 0 3.827.23 5.214 2.18 5.214 1.94 0 2.17-1.387 2.17-5.214ZM1528.99 622.368c0-6.213 2.38-8.133 5.72-8.133 3.33 0 5.74 1.92 5.74 8.133 0 6.214-2.41 8.134-5.74 8.134-3.34 0-5.72-1.92-5.72-8.134Zm7.89 0c0-3.746-.2-5.213-2.17-5.213-1.98 0-2.18 1.387-2.18 5.213 0 3.827.23 5.214 2.18 5.214 1.94 0 2.17-1.387 2.17-5.214Z" fill="#fff"/><path d="M584.795 745.914h-94.186V840.1h94.186v-94.186Z" fill="#FED061"/><mask id="j" style="mask-type:luminance" maskUnits="userSpaceOnUse" x="490" y="745" width="95" height="96"><path d="M584.795 745.914h-94.186V840.1h94.186v-94.186Z" fill="#fff"/></mask><g mask="url(#j)"><path d="M591.835 773.087s-1.733-.253-2.026-.267c-.48 0-.96 0-1.427.014-.8 0-1.6.013-2.387.026-1.906.027-3.826.04-5.733.054-3.667.026-7.333.053-11 .066-7.333.027-14.666.027-22 0a3085.66 3085.66 0 0 1-19.506-.16c.44-2.626.106-5.493.133-8.146.027-2.747.08-5.507.173-8.254.094-2.653.214-5.306.347-7.959.133-3.027.533-6.16.053-9.174-.133-.84-1.56-.96-1.853-.186-1 2.68-1.227 5.666-1.52 8.506-.307 2.867-.507 5.747-.667 8.627-.146 2.786-.253 5.56-.306 8.346-.04 2.667-.334 5.574.146 8.2-6.999-.093-13.999-.2-20.986-.32-4.133-.08-8.267-.2-12.4-.24-2.04-.026-4.093-.066-6.133-.053-1.227 0-2.454.027-3.68.08-.934.027-1.827 0-2.68.4 0 .013.026.027.04.04-.587.293-.8 1.08 0 1.613.693.454 1.493.48 2.306.56.987.094 1.96.187 2.947.24 1.947.107 3.88.2 5.813.28 3.68.147 7.36.227 11.04.307 7.334.173 14.667.307 22 .4 11.92.16 23.827.213 35.747.213v.96c-.027 1.44.04 2.88.066 4.32.054 2.92.107 5.854.107 8.774 0 2.92-.053 5.666-.134 8.493a222.728 222.728 0 0 1-.159 4.24c-.04.706-.107 1.413-.107 2.12 0 .573.12.96.373 1.32l-52.639.066c-3.987 0-7.974 0-11.96.027-1.907 0-3.814.013-5.72.04-2 .013-4.094-.08-6.08.213-1.72.254-1.507 2.32-.12 2.76v.027c.093.013.173.013.266.027.067 0 .107.04.174.04h.133c1.573.2 3.187.146 4.773.16 1.76.026 3.52 0 5.294.013h14.973c-.413 2.653-.253 5.507-.333 8.133-.107 3.28-.147 6.56-.214 9.854-.066 3.28-.133 6.546-.186 9.826-.054 3.293-.387 6.733-.107 10.013.173 2.147 3.507 1.96 3.707-.106.32-3.307.12-6.734.16-10.054.04-3.333.066-6.666.093-9.999.027-3.24.067-6.494.053-9.734 0-2.56.214-5.333-.133-7.933 4.533 0 9.08 0 13.613-.013 14.04-.027 28.093-.04 42.146-.067h11.974c1.92-.027 3.826-.027 5.746-.027 2.027 0 4.054.107 6.054-.24 1.52-.266 1.746-2.453.133-2.786-1.773-.36-3.56-.267-5.373-.267h-23.387c.707-1.013.493-2.653.547-3.84.067-1.493.12-2.973.16-4.466.08-3.054.093-6.107.053-9.147-.04-2.96-.16-5.907-.36-8.853-.04-.507-.067-2.307-.387-3.867h5.547c4.147 0 8.293-.04 12.427-.067 1.986-.013 3.986-.04 5.973-.053 2.093-.027 4.213.08 6.28-.307.653-.12 1.267-.653 1.293-1.346.014-.334-.693-1.787-1.173-1.454" fill="#EF7D3E"/></g><path d="M533.502 643.742s23.4-3.267 31.333 16.133c5.414 13.24 4.774 49.079-4.746 62.519-9.533 13.44-28.093 10.08-28.093 10.08l1.506-88.719v-.013Z" fill="#EF7D40"/><mask id="k" style="mask-type:luminance" maskUnits="userSpaceOnUse" x="531" y="643" width="38" height="90"><path d="m533.502 643.741-1.506 88.733s18.56 3.36 28.093-10.08c9.533-13.44 10.173-49.279 4.746-62.519-5.933-14.507-20.519-16.333-27.493-16.333-2.346 0-3.84.213-3.84.213" fill="#fff"/></mask><g mask="url(#k)" fill="#D93231"><path d="m565.169 651.181-6.56.76c-2.387.28-4.773.547-7.147.84-2.32.294-4.76.507-6.973 1.28-1.44.507-.853 2.6.467 2.827 1.893.347 3.84.093 5.746-.053 2.12-.16 4.24-.374 6.347-.574 1.786-.16 3.56-.346 5.346-.52.894-.093 1.774-.173 2.667-.266.28-.027.693 0 1.013-.054 1.254 1.08 3.92.427 3.974-1.4.066-2.72-2.787-3.106-4.894-2.853M574.782 672.128c-.44-1.28-1.907-1.653-3.107-1.413-4.32.853-8.56 2.04-12.92 2.773-2.106.36-4.226.667-6.346.947-2.094.266-4.32.333-6.347.933-1.906.573-1.44 3 .387 3.307 2.506.426 5.386-.08 7.893-.36 2.093-.227 4.187-.52 6.267-.854 4.146-.666 8.533-1.306 12.506-2.653 1.134-.387 2.094-1.427 1.667-2.693M570.622 690.794c-2.173-.106-4.573.734-6.72 1.08-2.147.36-4.293.667-6.453.92-2.134.254-4.28.48-6.427.667-2.28.2-4.813.173-7.026.76-.667.173-1.267.573-1.267 1.333 0 .414.693 1.787 1.253 1.534.04-.014 2.214.266 2.72.293.534.027 1.067.053 1.6.067 1.12 0 2.24-.04 3.374-.094 2.866-.133 5.719-.373 8.573-.706 1.866-.214 3.72-.467 5.573-.76 1.96-.307 4.12-.467 5.933-1.254 2.28-.986.947-3.733-1.106-3.826M568.409 707.728c-1.294-.334-2.707.16-3.987.4-1.293.226-2.587.44-3.88.613-3.267.453-6.533.76-9.826.893-2.014.08-4.027.134-6.027.16-1.427.014-2.907-.08-4.307.2-1.586.32-1.6 2.227-.093 2.747 2.253.773 4.84.72 7.2.787 2.067.053 4.133.013 6.2-.08 2.626-.12 5.253-.347 7.866-.654 1.067-.133 2.134-.266 3.2-.426.56-.08 1.187-.24 1.814-.347.346.16.706.267 1.053.28 3.04.173 3.84-3.8.813-4.573M563.795 723.847c-1.293-.333-2.706.16-3.986.4a95.27 95.27 0 0 1-3.894.614c-3.253.453-6.533.76-9.826.893-2.013.08-4.027.133-6.027.16-1.426.013-2.906-.08-4.306.2-1.587.32-1.6 2.227-.094 2.747 2.254.773 4.84.72 7.2.786 2.067.054 4.133.014 6.2-.08a110.858 110.858 0 0 0 11.067-1.08c.573-.08 1.186-.24 1.813-.346.347.16.707.266 1.053.28 3.04.173 3.84-3.8.814-4.574"/></g><path d="M533.502 643.741c12.534 0 17.56 20.414 17.56 44.307s-7.52 44.426-19.053 44.426c-11.533 0-19.053-21.52-19.053-43.68 0-22.159 7.027-45.053 20.56-45.053" fill="#FED063"/><path d="M533.142 700.528c-.36 1.106-2.08 1.626-3.2 1.16-1.08-.44-1.053-2-1.08-3.014-.08-2.773 0-5.559-.04-8.333a531.498 531.498 0 0 0-.093-4.72c.427-2.373.533-4.866.693-7.253.107-1.387.134-2.76.16-4.16 0-.667 0-1.347.027-2.027 0-.04 0-.146.027-.266.76 0 1.64-.36 2.146.146.56.56.56 1.894.64 2.627.307 2.867.467 5.747.614 8.627.146 2.853.213 5.693.226 8.546v4.387c-.013 1.24.307 3.107-.08 4.28m4.627-3.987c-.04-3.84-.2-7.666-.36-11.493-.173-3.773-.28-7.6-.72-11.347-.307-2.613-1.533-5.186-4.373-5.72-.96-.173-1.92-.093-2.867-.253-.88-.16-1.667-.24-2.507.12-1.453.627-1.96 2.04-2.053 3.52-.093 1.52-.093 3.053-.053 4.587-.494 6.213-.72 12.453-.814 18.693-.04 3.093-.533 6.853 1.947 9.226 2.173 2.094 6.427 2.24 9.107 1.054 3.36-1.48 2.72-5.36 2.693-8.374" fill="#fff"/><path d="M572.369 705.541c1.293-5.546 1.186-11.08.146-16.506-.133 5.573-.72 11.16-2.04 16.586-.76 3.093-1.786 6.093-2.933 9.067-.96 2.493-1.893 5-2.413 7.626 3.12-5.28 5.84-10.813 7.24-16.76" fill="#EF7D3E"/><path d="M586.755 817.007c.027-7.387 0-14.76-.053-22.133-.147-15.413-.16-30.827-.173-46.24 0-1.213-2.16-1.813-2.2-.4-.414 15.093-.814 30.187-1.347 45.266-.267 7.56-.48 15.12-.653 22.68-.16 7.534-.747 15.293-.227 22.813.133 1.987 4.013 2.72 4.24.507.733-7.4.373-15.066.4-22.493" fill="#1D1D1B"/><path d="M449.303 741.674a2.477 2.477 0 0 0-1.373-.76c-1.254-.253-2.64.387-3.227 1.56l-.16.32c-.027.04-.067.054-.093.094-.974 1.426-1.734 3.04-2.4 4.64-.134.333-.24.666-.374 1-.68 1.386-1.373 2.773-2.026 4.173-.52 1.133-.12 2.413 1.026 2.96.92.44 1.947.28 2.774-.227.72-.226 1.36-.68 1.733-1.373 1.707-3.133 3.067-6.387 4.24-9.733l.12-.24h-.027c.067-.2.16-.4.227-.6.173-.534-.08-1.4-.453-1.787M431.876 795.394a2.47 2.47 0 0 0-1.533-.32c-1.28.12-2.426 1.133-2.64 2.413-.013.12-.04.227-.053.347-.014.04-.04.08-.053.12-.52 1.653-.787 3.413-.96 5.133-.04.347-.04.707-.067 1.053-.253 1.52-.52 3.054-.733 4.587-.174 1.24.586 2.347 1.826 2.533 1 .16 1.947-.293 2.587-1.026.626-.427 1.107-1.054 1.266-1.814.734-3.48 1.094-7 1.254-10.546.013-.08.026-.174.04-.254h-.027c0-.213.04-.426.04-.639.013-.56-.48-1.307-.947-1.587ZM465.663 718.048c-.107-.147-.2-.307-.347-.414-.026-.026-.066-.026-.093-.04h-.027a2.486 2.486 0 0 0-.933-.346h-.16a3.096 3.096 0 0 0-.707 0c-.746.093-1.453.426-1.96 1.013-.293.347-.573.693-.866 1.04-2.067 2.147-3.907 4.547-5.6 6.973-.374.534-.667 1.067-.614 1.747.054.587.414 1.24.92 1.56 1.174.72 2.827.467 3.707-.6.04-.053.08-.093.12-.147.08-.066.16-.106.227-.173.6-.587 1.066-1.307 1.586-1.973.374-.48.747-.96 1.134-1.44l3.52-4.28c.68-.827.76-2.094.093-2.907M437.49 768.274c-.16-.093-.307-.213-.48-.24h-.134a2.448 2.448 0 0 0-.986.04c-.054 0-.094.04-.147.053-.227.067-.44.147-.653.28a3.063 3.063 0 0 0-1.427 1.68c-.147.427-.267.867-.4 1.294-1.093 2.773-1.88 5.679-2.533 8.573-.147.64-.214 1.24.093 1.853.267.533.853 1 1.453 1.093 1.347.214 2.787-.639 3.2-1.973.014-.066.04-.12.054-.187.04-.08.106-.159.146-.239.334-.774.494-1.614.72-2.427.16-.587.334-1.174.494-1.773.533-1.774 1.08-3.534 1.626-5.294.307-1.026-.08-2.226-1.026-2.72M490.276 698.261c-1.027-1.106-2.493-.946-3.693-.24-3.64 2.187-7.107 4.64-10.32 7.427-.92.76-1.64 2.16-.707 3.24.574.653 1.52.92 2.4.786h.014a2.39 2.39 0 0 0 .333-.053 4.228 4.228 0 0 0 1.586-.533c3.16-1.84 6.254-3.813 9.28-5.867.64-.44 1-1.173 1.054-1.92.613-.813.773-2.066.066-2.826M433.33 857.727c-.187.026-.374.026-.534.093-.04.013-.053.04-.08.067l-.013.013c-.307.16-.56.373-.76.627-.04.04-.053.093-.08.133a2.54 2.54 0 0 0-.346.613c-.294.68-.361 1.467-.107 2.2.146.427.306.854.466 1.28.814 2.867 1.947 5.667 3.187 8.36.267.6.573 1.12 1.2 1.414.533.253 1.28.266 1.813 0 1.2-.654 1.827-2.2 1.347-3.507-.027-.053-.04-.12-.067-.187-.013-.093 0-.187-.04-.28-.2-.813-.586-1.586-.893-2.36-.227-.573-.453-1.133-.68-1.706l-1.92-5.2c-.373-1-1.413-1.72-2.467-1.547M428.69 826.5c-1.48.32-2.08 1.68-2.08 3.067.053 4.253.413 8.48 1.2 12.653.187 1.173 1.04 2.507 2.44 2.253.853-.16 1.56-.853 1.893-1.666.04-.107.094-.2.12-.32a4.142 4.142 0 0 0 .347-1.64c0-3.654-.134-7.32-.374-10.974-.053-.773-.506-1.466-1.133-1.88-.4-.946-1.386-1.706-2.413-1.479" fill="#fff"/><path d="m481.836 100.679 34.147 21.587-29.12 21.586s16.066 34.64 57.239 16.573c41.173-18.079 19.587-69.8.507-77.332-19.08-7.534-46.706-9.04-62.773 17.573" fill="#FED063"/><path d="M535.156 99.24c-.493-2.8-3.08-5.014-5.92-5.08-1.893-.04-3.907.693-4.973 2.346-.774 1.213-1.28 2.68-1.187 4.133.107 1.68.667 3.227 1.893 4.427a6.1 6.1 0 0 0 1.627 1.147c1.36.653 3.027 1.026 4.453.319.12-.053.2-.16.32-.213.134-.053.294-.08.414-.147a5.986 5.986 0 0 0 3.053-3.133c.507-1.2.547-2.533.333-3.786" fill="#0C0C0C"/><path d="M471.156 115.292a21.41 21.41 0 0 1-.946-.053c-.054 0-.254-.027-.48-.04-.694-.227-1.4-.427-2.094-.64-1.68-.493-3.4-.893-5.106-1.293a220.576 220.576 0 0 0-10.214-2.174c-1.8-.346-3.826.427-4.586 2.16-.574 1.294-.174 2.614.76 3.52.066.067.16.094.226.16.24.214.494.414.787.56.013 0 .027 0 .04.014.053.026.08.066.12.08.253.106.533.186.787.293 6.6 3.013 13.773 4.267 21 4.373 1.866.027 4.039-1.666 3.839-3.666-.213-2.24-2.133-3.2-4.159-3.294M427.437 95.36c-2.694-2.134-5.347-4.334-7.854-6.68l-.12-.12c-2.186-2.28-4.373-4.547-6.546-6.814-.72-.76-1.4-1.28-2.467-1.493-.96-.187-2.226-.027-3.066.493-1.547.96-2.627 3.227-1.214 4.827.76.88 1.56 1.72 2.347 2.573.267.493.6.973.92 1.427.546.813 1.173 1.573 1.8 2.32 1.066 1.266 2.173 2.48 3.426 3.56 1.134.986 2.347 1.88 3.587 2.72 1.56 1.64 3.12 3.8 5.627 3.706.906-.026 1.813-.4 2.52-.96.586-.253 1.133-.586 1.533-1.066 1.133-1.374.96-3.374-.467-4.507M395.21 56.546c-3.053-7.306-5.64-14.773-7.48-22.48-.426-1.826-2.853-2.546-4.44-2.306-1.64.253-3.493 1.64-3.306 3.52a62.882 62.882 0 0 0 5.213 19.546c.12.347.267.68.427 1.027.013.027.026.067.04.107.133.266.28.546.44.826.32.56.866.907 1.466 1.147.24.387.48.787.734 1.173 1.013 1.507 3.093 1.934 4.72 1.334 1.453-.534 2.866-2.214 2.173-3.867M453.596 241.345h-12.159v12.16h12.159v-12.16ZM514.396 241.345h-12.16v12.16h12.16v-12.16ZM465.756 326.451h-12.16v12.16h12.16v-12.16ZM502.236 326.451h-12.16v12.16h12.16v-12.16Z" fill="#fff"/><path d="M453.596 277.811h12.16v12.16h-12.16v-12.16Zm36.48 0h12.16v12.16h-12.16v-12.16Zm0-24.32v12.16h-24.32v-12.16h-12.16v12.16h-12.16v12.16h-12.159v12.16h-12.16v36.48h12.16v-24.32h12.159v24.32h12.16v-12.16h48.64v12.16h12.16v-24.32h12.16v24.32h12.16v-36.48h-12.16v-12.16h-12.16v-12.16h-12.16v-12.16h-12.16Z" fill="#fff"/><path d="M477.916 349.877v35.24M477.916 401.17v35.24M477.916 452.543v35.24M477.916 504.236v35.24" stroke="#fff" stroke-width="2.987" stroke-miterlimit="10"/><path d="M395.21 495.076h10.88v10.88h-10.88v-10.88Zm-32.626 0h10.88v10.88h-10.88v-10.88Zm65.239 0v-10.88h-10.88v-10.88h-21.746v-10.879H373.45v10.879h-21.746v10.88h-10.88v10.88h-10.88v10.88h10.88v10.88h86.986v-10.88h10.88v-10.88h-10.88.013Z" fill="#D93231"/><path d="M416.957 514.569h-10.88v13.134h10.88v-13.134ZM416.957 538.569h-10.88v10.88h10.88v-10.88ZM427.837 527.689h-10.88v10.88h10.88v-10.88ZM362.584 514.569h-10.88v13.134h10.88v-13.134ZM362.584 538.569h-10.88v10.88h10.88v-10.88Z" fill="#D93231"/><path d="M351.717 527.689h-10.88v10.88h10.88v-10.88Z" fill="#D93231"/><path d="M382.437 566.209v31.52M382.437 612.089v31.506" stroke="#D93231" stroke-width="2.667" stroke-miterlimit="10"/><path d="M775.247 107.692h10.88v10.88h-10.88v-10.88Zm-32.626 0h10.88v10.88h-10.88v-10.88Zm65.239 0v-10.88h-10.88v-10.88h-21.746v-10.88h-21.747v10.88h-21.746v10.88h-10.88v10.88h-10.88v10.88h10.88v10.88h86.986v-10.88h10.88v-10.88h-10.88.013Z" fill="#D93231"/><path d="M796.994 127.186h-10.88v13.133h10.88v-13.133ZM796.994 151.199h-10.88v10.88h10.88v-10.88ZM807.874 140.319h-10.88v10.88h10.88v-10.88ZM742.634 127.186h-10.88v13.133h10.88v-13.133ZM742.634 151.199h-10.88v10.88h10.88v-10.88ZM731.754 140.319h-10.88v10.88h10.88v-10.88Z" fill="#D93231"/><path d="M762.474 178.839v31.519M762.474 224.705v31.52" stroke="#D93231" stroke-width="2.667" stroke-miterlimit="10"/><path d="M345.291 965.006c-1.68.613-1.2 3.653.493 3.88 2.067.28 4.133 0 6.2-.2 1.707-.16 3.413-.347 5.12-.507 1.667-.16 3.347-.347 5.013-.547 1.733-.213 3.533-.333 5.053-1.24.547-.32.8-1.199.454-1.746.026.027-.027-.053-.16-.213-.04-.04-.094-.054-.147-.08-.027-.014-.04-.054-.067-.067l.067.067c-.093-.054-.173-.12-.267-.16-.493-.254-1-.387-1.546-.467-.88-.133-1.76-.173-2.653-.173-1.92-.014-3.854-.014-5.774.066-2.106.093-4.213.227-6.333.4-1.88.16-3.68.334-5.467.987M360.45 926.846c-.426.947-.173 1.987.547 2.707 2.24 2.226 4.747 4.146 7.213 6.12 1.374 1.093 2.827 2.053 4.28 3.026.587.387 1.187.747 1.8 1.094.84.466 1.734.466 2.587.84.48.213.787-.547.547-.894-.494-.693-.72-1.546-1.24-2.226-.6-.76-1.307-1.48-1.987-2.16-1.2-1.2-2.4-2.374-3.707-3.454-2.533-2.106-5.04-4.159-7.813-5.919-.827-.52-1.88.12-2.227.88M394.157 909.286a1.679 1.679 0 0 0-.693.734c-.04.146-.094.28-.134.426-.053.307-.04.614.04.92-.146-.426-.213-.333-.226.28v.4c0 .387.013.774.04 1.147.04.84.186 1.653.306 2.48.227 1.48.387 2.973.6 4.453.187 1.307.334 2.614.587 3.894.2 1.013.467 2 .733 2.986.24.88.654 1.774.76 2.68.067.48.64.347.707-.066.107-.76.453-1.494.64-2.24.16-.627.307-1.267.427-1.907.346-1.813.32-3.653.24-5.493-.067-1.547-.294-3.107-.507-4.64-.093-.72-.173-1.44-.347-2.134-.293-1.186-.786-2.173-1.293-3.266-.32-.694-1.227-1.014-1.893-.64" fill="#fff"/><path d="M440.423 956.859c-2.693-1.707-6.626-3.147-11.013-4.053-11.2-12.36-31.946-6.814-36.706 9.693-6.267 21.706 17.066 33 35.053 31.026 9.066-1 18.599-5.533 21.759-14.746 2.894-8.44-1.933-17.36-9.093-21.92ZM494.156 939.659c-6.267-7.8-15.453-5.413-22.12.44l-.2.04c-8.52 2.694-18.453 8.294-17.92 18.707.48 9.146 9.16 15.44 17.614 16.586 17.853 2.44 35.079-20.266 22.626-35.773Z" fill="#D73532"/><path d="M455.943 907.619s20.787 17.267 38.133 8.48c17.36-8.773 21.213-33.453 21.213-33.453s-22.48-6.266-36.399 2.614c-13.92 8.866-22.947 22.359-22.947 22.359Z" fill="#FED063"/><path d="M488.703 891.993c-.067-.08-.134-.147-.2-.227-1.2-1.427-3.507-.573-3.814.867-.36.16-1.093.466-1.253.546-.8.387-1.6.787-2.4 1.174a554.508 554.508 0 0 0-4.106 2.013c-2.84 1.4-5.68 2.8-8.507 4.2-2.707 1.347-5.4 2.693-8.107 4.04-.88.44-1.76.893-2.64 1.333a60.683 60.683 0 0 0-.84-11.213c-.226-1.36-1.88-1.92-3.053-1.76-.08 0-.173.04-.267.053-.12 0-.24-.026-.373-.013-1.16.12-2.667 1.027-2.667 2.373.014 3.694.4 7.4 1.04 11.054-.026.04-.053.066-.08.093-2.68 3.92-4.466 8.64-6.6 12.866a919.454 919.454 0 0 1-6.453 12.52c-2.2 4.2-4.413 8.4-6.64 12.587a625.253 625.253 0 0 0-3.44 6.533c-.92 1.787-2.08 3.6-2.453 5.6-.32 1.68 2.147 2.76 3.32 1.614 1.88-1.84 3.147-4.227 4.493-6.467a311.768 311.768 0 0 0 3.627-6.133 429.184 429.184 0 0 0 6.92-12.56 593.018 593.018 0 0 0 6.333-12.254c1-1.986 2-3.986 2.987-5.986.293-.6.613-1.2.92-1.813 1.906 4.533 3.96 8.999 5.946 13.479 1.414 3.2 2.84 6.4 4.267 9.587 1.52 3.4 2.84 7.107 4.8 10.267 1.307 2.106 5.347.493 4.507-1.987-1.107-3.32-3.027-6.52-4.56-9.667-1.56-3.213-3.134-6.426-4.707-9.64-2.333-4.8-4.667-9.626-7.147-14.359 5.134-2.48 10.214-5.054 15.294-7.627 2.893-1.467 5.786-2.92 8.666-4.4 1.547-.787 3.093-1.587 4.64-2.373 1.213-.627 2.387-1.094 2.933-2.427.294-.707.027-1.347-.426-1.893" fill="#0C0C0C"/><path d="M410.53 954.232c-.493-.346-1.12-.506-1.747-.506-.653-.907-2.16-1.36-3.2-.56-1.853 1.413-3.466 3.093-4.853 4.973-1.293 1.76-2.546 3.733-3.333 5.773-.493 1.267-.427 2.774.387 3.907a3.955 3.955 0 0 0 1.666 1.293c1.294.494 3.027.36 4-.706.787-.854 1.307-2.014 1.92-2.987a54.218 54.218 0 0 1 1.667-2.507c.666-.96 1.36-1.906 2.066-2.84.067-.08.12-.16.187-.24-.013.027-.027.04-.04.067 0 0 .013-.027.027-.027.293-.373.6-.746.88-1.133.306-.413.6-.827.893-1.253.733-1.08.56-2.454-.52-3.214M466.343 950.286c-.627-.427-1.52-.587-2.227-.254-.04.014-.08.014-.12.04l-.6.28c-.36.227-.64.52-.853.894-.827 1.146-1.493 2.426-2.013 3.746-.56 1.454-1.014 2.934-1.174 4.48-.066.627 0 1.174.427 1.68.387.454 1.053.814 1.64.867 1.213.12 2.8-.493 3.027-1.867 0-.04.013-.066.026-.106.214-.334.387-.707.574-1.054.28-.546.533-1.106.773-1.68.227-.506.427-1.026.613-1.546.387-1.08.707-2.187.987-3.294.24-.933-.333-1.746-1.093-2.186" fill="#fff"/><path d="M788.007 387.224c-2.693-1.707-6.626-3.147-11.013-4.054-11.2-12.359-31.947-6.813-36.706 9.694-6.267 21.706 17.066 32.999 35.053 31.026 9.066-1 18.599-5.533 21.759-14.746 2.894-8.44-1.933-17.36-9.093-21.92ZM841.753 370.037c-6.266-7.8-15.453-5.413-22.119.44l-.2.04c-8.52 2.694-18.454 8.293-17.92 18.707.48 9.146 9.16 15.44 17.613 16.586 17.853 2.44 35.08-20.266 22.626-35.773Z" fill="#D73532"/><path d="M803.527 337.997s20.787 17.267 38.133 8.48c17.36-8.773 21.213-33.453 21.213-33.453s-22.48-6.266-36.4 2.614c-13.919 8.866-22.946 22.359-22.946 22.359Z" fill="#FED063"/><path d="M836.287 322.357c-.067-.08-.134-.146-.2-.226-1.2-1.427-3.507-.574-3.813.866-.36.16-1.094.467-1.254.547-.8.387-1.6.787-2.4 1.173a597.335 597.335 0 0 0-4.106 2.014c-2.84 1.4-5.68 2.8-8.507 4.2-2.707 1.346-5.4 2.693-8.107 4.04-.88.44-1.76.893-2.64 1.333a60.676 60.676 0 0 0-.84-11.213c-.226-1.36-1.88-1.92-3.053-1.76-.08 0-.173.04-.267.053-.12 0-.24-.027-.373-.013-1.16.12-2.667 1.026-2.667 2.373.014 3.693.4 7.4 1.04 11.053a.553.553 0 0 1-.08.094c-2.68 3.92-4.466 8.64-6.6 12.866a919.454 919.454 0 0 1-6.453 12.52c-2.2 4.2-4.413 8.4-6.64 12.587a615.387 615.387 0 0 0-3.44 6.533c-.92 1.787-2.08 3.6-2.453 5.6-.32 1.68 2.147 2.76 3.32 1.613 1.88-1.84 3.147-4.226 4.493-6.466a308.952 308.952 0 0 0 3.627-6.134 426.607 426.607 0 0 0 6.92-12.56 590.407 590.407 0 0 0 6.333-12.253c1-1.986 2-3.986 2.987-5.986.293-.6.613-1.2.92-1.814 1.906 4.534 3.96 9 5.946 13.48 1.414 3.2 2.84 6.4 4.267 9.587 1.52 3.4 2.84 7.106 4.8 10.266 1.307 2.107 5.347.494 4.507-1.986-1.107-3.32-3.027-6.52-4.56-9.667-1.56-3.213-3.134-6.427-4.707-9.64-2.333-4.8-4.667-9.626-7.147-14.36 5.134-2.48 10.214-5.053 15.294-7.626 2.893-1.467 5.786-2.92 8.666-4.4 1.547-.787 3.093-1.587 4.64-2.374 1.213-.626 2.387-1.093 2.933-2.426.294-.707.027-1.347-.426-1.894" fill="#0C0C0C"/><path d="M758.127 384.597c-.493-.347-1.12-.507-1.746-.507-.654-.906-2.16-1.36-3.2-.56-1.854 1.414-3.467 3.094-4.854 4.974-1.293 1.76-2.546 3.733-3.333 5.773-.493 1.267-.427 2.773.387 3.907a3.955 3.955 0 0 0 1.666 1.293c1.294.493 3.027.36 4-.707.787-.853 1.307-2.013 1.92-2.986a54.766 54.766 0 0 1 1.667-2.507c.667-.96 1.36-1.907 2.067-2.84.066-.08.12-.16.186-.24-.013.027-.026.04-.04.067 0 0 .014-.027.027-.027.293-.373.6-.747.88-1.133.307-.414.6-.827.893-1.254.734-1.08.56-2.453-.52-3.213M813.94 380.664c-.626-.427-1.52-.587-2.226-.254-.04.014-.08.014-.12.04l-.6.28c-.36.227-.64.52-.854.894-.826 1.146-1.493 2.426-2.013 3.746-.56 1.454-1.013 2.934-1.173 4.48-.067.627 0 1.174.426 1.68.387.454 1.054.814 1.64.867 1.214.12 2.8-.493 3.027-1.867 0-.04.013-.066.027-.106.213-.334.386-.707.573-1.054.28-.546.533-1.106.773-1.68.227-.506.427-1.026.614-1.546a36.08 36.08 0 0 0 .986-3.294c.24-.933-.333-1.746-1.093-2.186M512.943 628.622c0-.8.36-1.24 1.2-1.24h1.413c.173 0 .267-.094.267-.267v-8.347c0-.146-.027-.2-.08-.2-.054 0-.12.027-.214.094a7.902 7.902 0 0 1-1.653.906c-.2.08-.413.12-.587.12-.346 0-.68-.2-.68-.92v-.506c0-.774.2-1.24.774-1.534.76-.386 1.706-1 2.413-1.533.88-.627 1.267-.827 2.147-.827h.146c.854 0 1.32.467 1.32 1.48v11.267c0 .173.094.267.267.267h1.36c.8 0 1.2.44 1.2 1.24v.346c0 .827-.387 1.267-1.2 1.267h-6.893c-.827 0-1.2-.44-1.2-1.267v-.346ZM524.183 622.368c0-6.213 2.386-8.133 5.72-8.133 3.333 0 5.746 1.92 5.746 8.133 0 6.214-2.413 8.134-5.746 8.134-3.334 0-5.72-1.92-5.72-8.134Zm7.893 0c0-3.746-.2-5.213-2.173-5.213-1.974 0-2.174 1.387-2.174 5.213 0 3.827.227 5.214 2.174 5.214 1.946 0 2.173-1.387 2.173-5.214ZM537.943 622.368c0-6.213 2.386-8.133 5.719-8.133 3.334 0 5.747 1.92 5.747 8.133 0 6.214-2.413 8.134-5.747 8.134-3.333 0-5.719-1.92-5.719-8.134Zm7.893 0c0-3.746-.2-5.213-2.174-5.213-1.973 0-2.173 1.387-2.173 5.213 0 3.827.227 5.214 2.173 5.214 1.947 0 2.174-1.387 2.174-5.214ZM551.702 622.368c0-6.213 2.387-8.133 5.72-8.133 3.334 0 5.747 1.92 5.747 8.133 0 6.214-2.413 8.134-5.747 8.134-3.333 0-5.72-1.92-5.72-8.134Zm7.894 0c0-3.746-.2-5.213-2.174-5.213-1.973 0-2.173 1.387-2.173 5.213 0 3.827.227 5.214 2.173 5.214 1.947 0 2.174-1.387 2.174-5.214ZM1043.79 105.493s21.52 3.453 30.6 14.666c9.08 11.213 6.5 28.173 6.5 28.173h-14.67s.13-13.8-2.92-16.96c-3.04-3.16-16.92-4.306-16.92-4.306l-2.6-21.56.01-.013Z" fill="#fff"/><path d="M1080.89 148.332s10.34 9.494 8.62 11.787c-1.72 2.293-8.7-6.04-11.25-7.76 0 0 7.96 8.787 5.72 10.28-2.23 1.506-9.59-9.707-9.59-9.707s5.64 8.907 3.87 9.707c-4.29 1.946-12.03-14.307-12.03-14.307h14.67-.01Z" fill="#FED063"/><path d="M1010.43 106.559s-20.971 2.4-30.051 13.613c-9.08 11.214-6.493 28.174-6.493 28.174h14.666s-.133-13.8 2.92-16.96c3.04-3.16 16.918-4.307 16.918-4.307l2.06-20.506-.02-.014Z" fill="#fff"/><path d="M1084.56 201.239c-4.02-2.88-13.79 4.893-13.79 4.893l-21.86-50.306v-49.733c-21.56-2.88-43.44 0-43.44 0 .19 11.613 0 71.292 0 71.292l-23.838-9.2c-7.48 6.894-5.786 34.027-1.266 31.334 3.853-2.307 3.573-14.094 3.573-14.094s3 2.094 7.347 4.707c.266.067.533.16.786.267.574.253 1.107.586 1.627.933l1.36.773c.373.187.68.44.96.747 8.331 4.573 18.801 9.08 23.931 6.373 9.27-4.893 7.9-31.973 7.9-31.973l4.56-.947 28.02 54.2c10.35-3.733 28.17-16.387 24.15-19.266" fill="#D73532"/><path d="m1012.75 105.186 1.5 21.986 28.04-1.56v-20.266s-21.56-1.96-29.55-.173" fill="#fff"/><path d="M1024.95 45.986c-16.45 0-33.278 17.294-26.758 32.173a8.099 8.099 0 0 0-3.693 1.227c-2.56 1.6-3.6 4.627-2.76 7.493.88 2.987 3.507 5.174 6.413 6.014 2.508.733 5.158.373 7.598-.494 4.02 5.4 9.32 8.48 19.19 8.48 16.57 0 30.01-12.293 30.01-27.453s-13.44-27.453-30.01-27.453" fill="#FED063"/><path d="M1018.62 94v15.519c3.39 6.413 8.49 5.053 13.92 2.307l1.88-17.827h-15.8Z" fill="#FED063"/><mask id="l" style="mask-type:luminance" maskUnits="userSpaceOnUse" x="991" y="45" width="64" height="56"><path d="M998.192 78.16c-1.293.12-2.56.506-3.693 1.226-2.56 1.6-3.6 4.627-2.76 7.493.88 2.987 3.507 5.174 6.413 6.014 2.508.733 5.158.373 7.598-.494 4.03 5.4 9.32 8.48 19.19 8.48 16.57 0 30.01-12.293 30.01-27.453s-13.44-27.453-30.01-27.453-33.281 17.293-26.761 32.173" fill="#fff"/></mask><g mask="url(#l)"><path d="M998.192 78.16s8.748-1.36 9.908-9.467c.65-4.587.6-10.88.6-10.88s19.52 9.147 40.51-5.8c0 0-16.91-15.813-30.59-9.773-13.68 6.04-23.174 16.96-25.188 22.133-2.013 5.173 4.76 13.773 4.76 13.773" fill="#0C0C0C"/></g><path d="M1008.38 53.746s-1.44-14.093-10.068-14.666c-8.626-.574-11.213 9.493-11.213 9.493s2.387-14.093-10.586-10.64c-12.987 3.453-21.174 20.2-10.4 21.853 6.04.92 8.626-8.466 8.626-8.466s1.774 12.32 5.627 14.213c9.32 4.56 14.56-16.96 14.56-16.96l10.534 7.48 2.91-2.293.01-.014Z" fill="#0C0C0C"/><path d="M973.886 148.332s-10.347 9.494-8.627 11.787c1.72 2.293 8.707-6.04 11.253-7.76 0 0-7.96 8.787-5.72 10.28 2.227 1.506 9.587-9.707 9.587-9.707s-5.64 8.907-3.867 9.707c4.294 1.946 12.027-14.307 12.027-14.307h-14.667.014Z" fill="#FED063"/><mask id="m" style="mask-type:luminance" maskUnits="userSpaceOnUse" x="976" y="104" width="110" height="117"><path d="M1005.49 106.079c-1.92 11.693 0 71.306 0 71.306l-23.844-9.2c-7.48 6.907-5.787 34.027-1.267 31.333 3.853-2.306 3.573-14.093 3.573-14.093s26.738 18.68 35.998 13.8c9.27-4.88 7.86-33.28 7.86-33.28l4.6-.773 28.02 55.333c10.35-3.733 28.17-16.387 24.15-19.267-4.03-2.866-13.8 4.894-13.8 4.894l-21.85-50.307v-49.733c-7.19-.96-14.42-1.28-20.84-1.28-12.87 0-22.6 1.28-22.6 1.28" fill="#fff"/></mask><g mask="url(#m)" fill="#D73532"><path d="M1048.27 208.078c1.44-.96 34.1-19.679 34.1-19.679l11.99 17.279-35.77 23.534-10.32-21.134ZM989.446 200.172c-1.027-.667-2.014-1.347-2.84-2.267a2.29 2.29 0 0 1-.774-1.133 2.141 2.141 0 0 1-.24-1.347c.04-.253.12-.48.2-.72-.053-.12-.093-.226-.146-.346-.267-.934.12-1.88.653-2.64.307-.427.693-.76 1.147-1a3.82 3.82 0 0 1 1.506-.654 4.887 4.887 0 0 1 3.107.32c.573.254 1.107.587 1.627.934l.16.093c1.12-9.613 2.546-22.04 2.546-22.48l-7.866-5.28-15 2.64-2.347 37.933 21.373-1.68.107-.96c-1.133-.32-2.24-.76-3.24-1.413"/></g><path d="M1017.17 134.852h24.49s-.36 8.094-10.72 9.36c-15.6 1.92-13.77-9.36-13.77-9.36Z" fill="#D73532"/><path d="M1051.35 232.358c-3.74-1.813-8.13-2.72-12.48-3.56a279.87 279.87 0 0 0-14.74-2.453c-4.82-.68-9.66-1.24-14.54-1.667-4.26-.373-8.78-.8-12.464 1.12-1.334.694-1.44 1.987-.294 2.814 4.628 3.4 12.018 3.48 18.218 4.08.1 0 .2.026.3.026 11.19 2.453 23 3.414 34.75 3.16 2.8-.053 3.32-2.52 1.25-3.52Z" fill="#0C0C0C"/><path d="M1010.37 49.693c-.1-.44-.32-.853-.67-1.147-.24-.2-.51-.333-.79-.44a1.84 1.84 0 0 0-.38-.106c-.1-.014-.18-.04-.27-.054-.12-.013-.23-.066-.36-.066-.2.013-.39.04-.59.053-.37.08-.69.24-.98.493-.08.054-.16.12-.24.174-.34.226-.67.466-.98.706-.2.147-.4.294-.6.454-1.01.76-2.02 1.533-3.05 2.293-.41.307-.61 1.013-.57 1.507.02.293.16.6.33.866.13.36.35.654.65.894.78.613 1.9.733 2.72.16.88-.614 1.71-1.334 2.55-2.014.15-.106.31-.226.45-.333.4-.293.8-.6 1.19-.893.2-.16.41-.307.61-.48.3-.24.52-.507.76-.814.07-.16.14-.32.22-.48.08-.266.08-.52 0-.786" fill="#FED063"/><path d="m1023.02 73.226-.36-.413c-.21-.2-.45-.36-.73-.44a1.48 1.48 0 0 0-.58-.16h-.12c-.04-.013-.06-.053-.1-.053a1.774 1.774 0 0 0-.83-.107c-.27 0-.52.04-.77.147-.44.2-.87.533-.99 1.026-.03.16-.05.32-.08.48 0 .334.09.653.28.933.13.267.27.534.39.8.1.44.25.867.44 1.267.08.267.21.48.41.667.08.106.19.16.28.24 0 0 .01.026.03.026 0 0 0 .014.01.027 0 0 .01.014.03.027.04.053.06.12.12.173.02.027.05.04.08.067.04.04.08.093.1.133.2.2.44.36.72.453.43.187.94.294 1.4.187.35-.08.67-.2.95-.413.21-.16.36-.347.45-.587.14-.213.2-.466.18-.72-.1-1.36-.52-2.64-1.31-3.76ZM1048.41 64.613c-.19-.573-.36-1.147-.59-1.72-.12-.28-.21-.587-.35-.854-.1-.226-.26-.413-.46-.546-.19-.187-.4-.32-.66-.413-.17-.04-.33-.094-.5-.134-.26-.04-.5-.04-.74.04-.16 0-.3.067-.44.147-.21.08-.38.213-.53.4-.27.36-.41.826-.28 1.267.01.066.04.12.07.186v.094c.12.373.25.746.41 1.106.08.16.15.32.24.48.09.213.19.427.28.627.11.226.25.4.45.546.18.187.39.32.64.414.16.053.34.093.5.147.24.053.48.04.72-.027.16 0 .3-.053.42-.133.22-.08.39-.2.54-.387.25-.334.44-.813.29-1.24" fill="#0C0C0C"/><path d="M1038.29 84.066c-.91-.16-1.68.213-1.91 1.12-.04.133-.07.267-.11.387-.08.24-.16.48-.25.72-.17.44-.36.893-.63 1.28-.12.16-.26.306-.4.44-.02.013-.02.026-.06.053-.07.04-.14.08-.2.12-.03 0-.03.013-.08.04-.07.027-.07.027-.1.027-.09 0-.17.013-.26.026-.06-.026-.27-.08-.3-.093-.13-.053-.26-.12-.4-.173h-.01c-.01-.014-.01-.014-.05-.04l-.36-.24c-.46-.307-.88-.654-1.28-1.014-.62-.56-1.23-1.12-1.79-1.733-.6-.667-1.05-1.347-1.89-1.72-.5-.213-1.22-.067-1.51.4-.05.093-.09.2-.11.307h-.01v.053a1.31 1.31 0 0 0 0 .28c-.04.867.61 1.773 1.05 2.453.43.64.88 1.28 1.42 1.814 1.34 1.36 2.96 2.773 4.92 3.053 1.64.24 3.25-.387 4.24-1.72.86-1.187 1.3-2.52 1.62-3.947.19-.866-.72-1.746-1.5-1.88M1000.39 81.28c-1.144-.2-2.318-.32-3.451-.04-.987.24-1.96.76-2.587 1.573-.706.893-1.026 1.946-.76 3.08.227.986.854 1.826 1.627 2.466.413.347.867.654 1.32.934.56.32 1.16.666 1.813.72.52.053 1.054-.2 1.267-.694.12-.28.093-.573 0-.84.053.067 0-.04-.133-.32-.04-.053-.08-.093-.12-.146-.04-.054-.067-.107-.12-.147 0 .013.013.027.026.04-.026-.027-.053-.067-.093-.107-.16-.146-.36-.266-.56-.386-.2-.107-.413-.2-.613-.32-.174-.094-.347-.2-.52-.307-.08-.053-.174-.107-.254-.173-.013-.014 0 0-.04-.027-.12-.107-.24-.24-.373-.347-.013-.013-.027-.04-.04-.053-.04-.053-.08-.133-.12-.187 0-.026-.027-.053-.04-.093 0-.04-.027-.08-.04-.12 0-.04 0-.093-.013-.133v-.094c.013-.053.053-.266.053-.306 0-.027.027-.054.027-.067.04-.08.08-.16.133-.227.013-.026.04-.053.053-.08l.24-.24c.027-.026.174-.133.24-.186.014 0 .027-.014.054-.027.106-.067.213-.12.32-.173.053-.027.106-.054.173-.067.067-.027.08-.027.08-.027a1.32 1.32 0 0 1 .253-.04c.24-.053.467-.093.707-.12.04 0 .267-.013.293-.013.174 0 .36-.013.534-.027.404-.026.804-.026 1.204-.04.66-.013 1.08-.746.96-1.333-.14-.72-.78-1.16-1.47-1.28" fill="#D73532"/><path d="m1033.82 99.666-8.87 1.227 8.44 2.733.43-3.96ZM1066.75 196.985c-4.76 2.4-11.28 5.693-14.88 7.68.14.227.24.48.34.747.04.106.08.226.12.333.21.493.4 1 .54 1.52.07.093.14.2.2.293 3.94-2.266 10.4-5.986 14.58-8.36-.35-.72-.64-1.453-.91-2.213M993.699 191.332l.56.32c1.107-5.88 2.853-15.013 3.133-17.747-.266-.106-.533-.2-.8-.306-.573-.187-1.12-.4-1.68-.614-.413 2.6-1.773 11.52-2.52 17.574.454.226.894.493 1.32.773M1043.06 110.653c-.03-1.547.08-3.32-.61-4.747-.12-.24-.6-.36-.75-.08-.69 1.333-.56 3.12-.63 4.6-.06 1.627-.13 3.253-.22 4.88-.18 3.226-.32 6.466-.5 9.693-.06 1.293 2.27 1.493 2.36.107.23-3.214.39-6.44.39-9.667 0-1.6 0-3.2-.04-4.8M1034.27 144.026c-3.48.733-7.24.72-10.6-.587-2.8-1.093-5.52-3.373-5.8-6.547-.02-.36-.74-.64-.8-.186-.42 3.84 1.79 7.413 5.19 9.133 4 2.026 8.63.92 12.63-.52.94-.333.2-1.467-.62-1.293Z" fill="#0C0C0C"/><path d="M1044.69 71.12c-1.24-1.44-3.56-1.987-5.32-2.44-1.02-.267-2.04-.44-3.1-.534-1.18-.106-2.8-.347-3.72.587-.29.293-.13.84.12 1.093.67.653 1.79.68 2.67.787.51.053 1.03.12 1.53.213.87.16 1.75.333 2.59.587.87.266 1.79.546 2.59.96.21.106.37.2.49.44.16.32.17.76.15 1.12-.08 1.626-1.02 2.92-2.35 3.72-.65.386-1.24.613-2 .866-.95.307-2.03.467-2.81 1.094-.92.733.09 1.973.93 2.106.91.134 1.96-.24 2.83-.533.77-.267 1.53-.6 2.25-.987 1.48-.8 2.8-2.053 3.47-3.64.69-1.666.94-3.96-.32-5.426" fill="#D73532"/><path d="M974.686 36.36c-.08 0-.214-.014-.307-.027-.693-.04-1.387-.067-2.08-.027a.76.76 0 0 0-.173.014 9.055 9.055 0 0 0-1.08.253c-.107.027-.56.187-.64.2l-.4.16c-.507.213-.987.507-1.48.733-.04.014-.054.027-.067.027-.027.027-.053.04-.106.08-.24.173-.481.347-.721.533-.426.334-.826.68-1.226 1.054-.067.066-.08.066-.12.093 0 0 0 .013-.053.08-.16.173-.32.36-.48.533-.387.454-.76.92-1.107 1.414-.08.106-.133.2-.213.306.32-.253.626-.52.973-.746 3.346-1.507 6.706-3 10.026-4.587-.253-.027-.493-.067-.746-.093Z" fill="#0C0C0C"/><path d="M977.806 118.746c.293-.4.546-.827.866-1.214.147-.186.334-.386.547-.6.467-.6.907-1.213 1.387-1.8.013-.026.04-.053.053-.093a64.74 64.74 0 0 0-1.36.653c-.28.147-.547.294-.827.44-.04.027-.293.174-.466.267-.147.107-.534.347-.52.347-.2.133-.4.28-.6.426-.494.374-.96.774-1.414 1.174-.04.04-.093.08-.119.12-.187.213-.387.413-.561.64-.36.426-.68.88-1 1.346-.053.08-.079.134-.119.187 0 .027-.027.067-.067.147-.16.333-.32.68-.454 1.026-.2.56-.306.907-.399 1.467-.174 1.013-.201 2.053-.187 3.093 1.626-2.626 3.386-5.16 5.24-7.64" fill="#D73532"/><path d="M1032.95 160.852c.07.8.14 1.6.2 2.4.02.227.04.467.07.693-.32.107-.64.187-.96.294-.17.053-.35.12-.52.173-.07.027-.15.053-.28.107-.37.133-.73.266-1.11.413-.02 0-.04.013-.06.027a7.25 7.25 0 0 1-.11-.44l-.24-1.16c-.16-.774-.31-1.547-.45-2.32-.15-.774-.27-1.547-.42-2.32-.08-.387-.17-.76-.26-1.147a.914.914 0 0 1-.04-.16c1.36-.16 2.72-.36 4.09-.533 0 1.32 0 2.64.11 3.96m14.41-7.693c-6.93 1.4-13.95 2.026-20.99 2.64-3.41.306-6.84.586-10.26.813-1.79.12-3.58.227-5.36.347-1.76.12-3.68.026-5.38.56-.54.173-.41.879.11.999 1.52.347 3.13.227 4.68.2 1.81-.04 3.63-.106 5.45-.2 3.6-.186 7.2-.439 10.79-.813l1.01-.12v.014c0 .466 0 .92.04 1.386.06.773.14 1.547.22 2.32.08.773.17 1.533.28 2.307.09.666.1 1.466.36 2.12-.18.08-.36.133-.54.213-1.17.48-2.32 1.04-3.46 1.573.09.16.21.32.36.454 1.86-.454 3.73-.854 5.62-1.24 2.08-.427 4.18-.854 6.24-1.387 1.28-.333 2.22-.6 3.12-.893.5-.734 0-1.68-.84-2.067-1.17.28-2.34.587-3.5.92-.04-.147-.07-.293-.1-.427-.12-.72-.25-1.44-.38-2.16-.24-1.333-.59-2.639-.95-3.946 4.63-.627 9.25-1.293 13.89-1.88 1.28-.16.68-1.947-.44-1.72" fill="#0C0C0C"/><path d="M975.726 151.892c-.787.707-1.467 1.547-2.2 2.32-.747.787-1.52 1.56-2.333 2.28-.787.72-1.6 1.4-2.427 2.067-.787.627-1.747 1.2-2.4 1.987-.067.08.053.213.147.173.96-.334 1.826-1.04 2.64-1.64.893-.653 1.76-1.32 2.613-2.027a51.994 51.994 0 0 0 2.44-2.12c.826-.76 1.706-1.546 2.373-2.453.32-.44-.533-.907-.88-.587M979.819 152.945c-.4.334-.68.814-1 1.24-.293.387-.587.787-.88 1.16a52.323 52.323 0 0 1-1.907 2.307c-1.359 1.547-2.84 2.987-4.226 4.507-.147.16.16.373.32.28 1.8-1.107 3.386-2.48 4.893-3.947a48.668 48.668 0 0 0 2.147-2.227c.36-.386.706-.786 1.04-1.2.333-.4.733-.8.933-1.28.293-.693-.8-1.28-1.32-.853M1083.63 162.025c-2.91-2.8-5.88-5.506-8.4-8.679-.16-.2-.54-.04-.38.213 2.2 3.427 4.78 6.76 8.1 9.173.55.4 1.23-.187.68-.707ZM1085.06 158.039c-1-.907-2.01-1.787-2.97-2.747a43.96 43.96 0 0 1-3.06-3.426c-.16-.2-.53-.04-.38.213 1.46 2.373 3.26 4.68 5.38 6.493.24.2.48.414.74.6.28.213.81.667 1.18.4.59-.426-.61-1.266-.91-1.533M1076.11 161.892c-1.54-2.2-3.49-4.107-5.05-6.306a59.892 59.892 0 0 1-4.21-6.867c-.11-.2-.55-.173-.44.107.94 2.573 2.2 5.013 3.73 7.28 1.53 2.266 3.24 4.599 5.51 6.186.26.187.68-.093.46-.4Z" fill="#D73532"/><path d="M64.106 985.166h215.438s18.494-22.707 8.027-33.147c-10.467-10.44-20.906 0-20.906 0s27.626-24.546 2.453-36.826c-25.173-12.28-55.24 21.48-55.24 21.48s15.347-26.387-1.226-27.013c-16.574-.627-31.307 16.573-31.307 16.573s-33.146-54.013-80.292-30.693c-39.2 19.386-3.187 68.133-3.187 68.133s-42.346-12.28-33.76 21.479v.014Z" fill="#fff"/><path d="M186.105 928.033c-.906-.32-1.88-.334-2.84-.24-.426.013-.853.04-1.28.066-1.373.08-2.76.24-4.12.494-1.88.333-3.72.813-5.52 1.44-.92.226-1.84.466-2.746.773-.907.307-2.04.933-1.64 2.08.266.773.973 1.067 1.72 1.173 1.28.494 2.573.534 3.973.414a45.974 45.974 0 0 0 5.04-.694c2.827-.547 6.2-1.16 8.013-3.64.027-.04.04-.08.067-.106.547-.614-.053-1.507-.68-1.734l.013-.026Z" fill="#0C0D0D"/><path d="m160.932 766.634 12.533 41.64 8.094 45.506s-8.974 12.787-14.08 23.88c-5.107 11.093-.574 34.12-.574 34.12h16.587s-3.213-17.627.48-27.014c3.693-9.386 13.36-20.759 13.36-20.759l3.133-.28s-5.12 22.746 0 29.293c5.12 6.546 24.733.573 24.733.573l1.707-15.36-8.813.573 4.706-60.492-34.853-18.28-12.506-32.133-14.507-1.254v-.013Z" fill="#D83431"/><path d="m164.919 779.914 13.946-3.213-3.44-8.8-16.546-8.054 6.04 20.067ZM183.679 814.247c-1.027 1.987 2.346 17.173 2.346 17.173l18.133.2 1.427-17.373-5.973-5.973-15.92 5.973h-.013Z" fill="#fff"/><path d="M216.372 796.327c0 10.213-14.827 21.04-26.44 21.04-11.613 0-21.04-8.28-21.04-18.48 0-10.2 12.267-23.6 23.893-23.6 11.627 0 23.6 5.4 23.6 21.04h-.013Z" fill="#FED063"/><path d="m186.798 811.687 2.72 11.88s8.214 3.04 11.507-1.88c1.52-2.28 1.427-13.4 1.427-13.4l-15.64 3.413-.014-.013Z" fill="#FED063"/><path d="M178.865 781.061s11.6 8.12 28.667 2.76c0 0-2.814 17.919 4.586 20.186l4.387-11.48s3.293 5.787 8.973 5.213c5.68-.573 9.093-7.399 9.093-7.399s-7.679 16.773 6.547 16.213c14.227-.56 20.187-17.347 14.787-21.04-5.4-3.693-15.067 6.827-15.067 6.827s5.693-11.654-1.427-13.934c-7.119-2.28-13.933 7.107-13.933 7.107s-3.133-11.787-15.36-4.613c0 0-13.333-13.987-31.266.146l.013.014Z" fill="#0C0D0D"/><path d="m210.118 785.527 15.36 3.414-4.666 54.852s-7.334 2.134-11.6-6.386c-4.267-8.52.906-51.866.906-51.866v-.014Z" fill="#D83431"/><path d="M210.118 785.527s2.56-15.6 6.254-18.893c3.693-3.293 18.573-4.627 18.573-4.627l-9.48 10.16-2.293 16.267-13.067-2.907h.013Z" fill="#fff"/><path d="M226.905 878.233h12.506s-.573 29.573-4.266 29.573-1.293-14.787-1.293-14.787l-8.654.574 1.707-15.36ZM166.892 911.78h16.587v18.479s-31.8-1.426-31.8-4.266 18.213-.854 18.213-.854l-3-13.359Z" fill="#D83431"/><path d="M186.798 835.367h17.627s-1.107 7.4-8.787 7.68c-7.68.28-8.84-5.12-8.84-7.68Z" fill="#fff"/><path d="M181.425 787.967c-.066-.12-.12-.24-.186-.36a1.465 1.465 0 0 0-.454-.453c-.293-.214-.653-.374-1.013-.387-.387 0-.8.067-1.093.347a5 5 0 0 0-.894 1.146c-.08.147-.16.307-.226.467-.16.293-.294.6-.427.893-.04.054-.067.12-.107.174h.014c-.054.12-.107.226-.16.333-.04.187-.04.373.013.56.027.2.093.373.213.547.094.106.174.213.267.32.16.16.347.28.56.36.307.133.68.226 1.013.146.374-.08.707-.266.92-.6.054-.093.107-.186.174-.28.2-.173.36-.386.426-.666 0-.014 0-.04.014-.054.293-.466.573-.933.866-1.4.187-.306.2-.786.067-1.106l.013.013ZM201.412 790.967c-.187-.333-.547-.653-.907-.773-.347-.12-.747-.187-1.093-.027 0 0-.014 0-.027.014-.067.013-.147.04-.213.066-.107.067-.2.12-.307.187-.187.16-.32.36-.373.6l-.787 1.853a.96.96 0 0 0 0 .547v.013c-.013.12-.04.254 0 .374.013.186.08.373.2.533.08.107.173.213.253.32.147.16.32.28.534.36.293.147.64.24.973.173.36-.067.707-.226.907-.546.333-.56.6-1.187.773-1.827.027-.067.053-.133.093-.2.067-.16.12-.307.16-.48.027-.093 0-.187 0-.293.054-.307-.04-.667-.173-.907l-.013.013Z" fill="#0C0D0D"/><path d="M188.439 793.581c-.774-.32-1.68-.48-2.507-.627-.827-.16-1.667-.213-2.507-.16-1.266.08-2.613.56-3.573 1.413-1.173 1.027-1.72 2.507-1.387 4.054.347 1.586 1.494 3.186 2.894 3.986.826.48 1.853-.333 1.466-1.226-.24-.547-.626-1.014-.933-1.52-.307-.507-.44-.787-.613-1.36 0-.04-.014-.067-.027-.107 0-.027 0-.04-.013-.107l-.04-.386v-.36c0-.027.026-.134.04-.174.026-.106.066-.213.106-.32l.04-.12c.107-.186.227-.373.374-.533.24-.267.573-.507.906-.667.2-.093.414-.16.614-.213.04 0 .186-.04.2-.04a3.65 3.65 0 0 1 .386-.053c1.467-.12 2.8.533 4.214.8.586.106 1.24-.334 1.32-.907.093-.667-.387-1.133-.96-1.373ZM192.878 800.994c-.653-.494-1.653-.48-2.253.106-.093.08-.186.174-.266.267-.2.2-.401.387-.614.573-.32.294-.653.56-1.013.827a19.683 19.683 0 0 1-2.667 1.64c-.866.44-1.786.813-2.706 1.173-1.054.4-2.094.854-3.227.947-.48.04-.733.546-.587.973.16.493.68.747 1.16.707 1.334-.107 2.667-.067 3.974-.374 1.213-.28 2.386-.746 3.506-1.306 1.8-.893 3.52-2.12 4.92-3.574.573-.586.387-1.493-.24-1.959h.013ZM235.131 817.86c-.026-1.053-1.933-1.347-1.893-.133.107 3.4-.427 6.893-1.373 10.16a34.25 34.25 0 0 1-1.707 4.653c-.32.733-.68 1.453-1.053 2.16-.387.747-.947 1.453-1.08 2.293-.16 1.067 1.28 1.507 1.986.947.614-.493.96-1.32 1.307-2.027.413-.8.787-1.613 1.133-2.44a37.787 37.787 0 0 0 1.667-5.04c.893-3.466 1.12-7 1-10.56l.013-.013ZM239.211 812.033c-.213-.453-.68-.8-1.213-.706-.467.08-.773.56-.6 1.013 1.76 4.48 1.507 9.32 1.067 14.013-.12 1.28 2.2 1.84 2.586.56 1.507-4.986.227-10.266-1.853-14.88h.013Z" fill="#D83431"/><path d="M259.971 797.727c2.307-3.093 2.254-7.52.747-11.066-.04.093-.067.186-.08.306-.013.227-.053.44-.067.667-.24.28-.386.653-.373 1.12.08 3.28-1.133 6.293-2.413 9.267a21.53 21.53 0 0 1-1.867 3.026c1.507-.866 2.96-1.84 4.053-3.306v-.014ZM218.825 849.46c-2.947.72-5.84 1.6-8.84 2.08-3.067.48-6.173.68-9.267.827-3 .146-6 .173-8.999.08-3.267-.107-6.547-.44-9.814-.307-1.04.04-.586 1.413.107 1.64 3.88 1.32 8.16 1.72 12.387 1.707l-.04.613c-.04.507-.094 1.027-.147 1.533l-.28 2.84c-.04.467-.08.92-.133 1.387-.054.453-.147.853 0 1.267a.805.805 0 0 0-.174.026c-1 .2-1.986.4-2.973.694-.987.293-1.973.653-2.96.893-1.28.32-.413 1.933.667 1.76.986-.147 2.013-.174 3-.214.986-.04 1.973-.133 2.96-.226 1.799-.173 3.613-.32 5.386-.613.813-.134 1.573-.787 1.387-1.68-.08-.4-.32-.68-.614-.88.294-.04.547-.214.627-.574.28-1.346.52-2.72.693-4.08.094-.733.16-1.48.214-2.226.026-.307.066-.64.093-.974 2.72-.28 5.4-.733 8.08-1.266 3.253-.64 6.6-1.2 9.747-2.267 1.56-.533.173-2.387-1.12-2.067l.013.027Zm-19.72 13.067c-.92.026-1.84.093-2.773.2-.027-.094-.04-.187-.094-.28 0-.027-.026-.04-.04-.054-.08-1.493 0-3.026 0-4.52 0-.76.027-1.52.04-2.28v-.146a79.593 79.593 0 0 0 4.054-.24l-.08.64c-.08.653-.187 1.306-.28 1.96-.2 1.32-.454 2.64-.747 3.946-.067.32.067.587.28.8-.12 0-.24-.04-.36-.026ZM227.118 881.847c-.066-1.187-.026-2.614-.546-3.707-.24-.507-1.094-.72-1.334-.12-.48 1.133-.293 2.693-.346 3.907-.067 1.293-.094 2.586-.16 3.88-.067 1.28-.147 2.573-.24 3.853-.094 1.227-.534 2.813-.04 3.973.28.653 1.546 1.08 2.013.387.733-1.093.573-2.8.653-4.093.08-1.36.12-2.707.12-4.067 0-1.347-.013-2.68-.093-4.027l-.027.014ZM182.172 911.193c-2.373-.027-4.773.107-7.147.16-2.52.067-5.146.4-7.626-.053-.96-.174-1.08 1.12-.374 1.506 2.227 1.24 5.094.894 7.56.894 2.547 0 5.107.04 7.653-.08.667-.027 1.387-.36 1.36-1.147-.013-.707-.746-1.293-1.426-1.293v.013Z" fill="#0C0D0D"/><path d="M246.265 738.901c-.494-3.027-1.88-5.413-3.267-8.067-.747-1.426-2.8-.6-2.053.96 1.253 2.64.933 6.24.56 9.04a26.892 26.892 0 0 1-1.88 6.973c-2.04 4.84-5.72 8.76-10.12 11.574-4.573 2.92-9.72 4.733-15 5.866a58.973 58.973 0 0 1-8.893 1.214c-3.214.2-6.387-.107-9.6-.067-2.947.04-8.787.067-5.8.653 7.173 1.414 17.693 4.787 27.8 2.547 6.066-1.347 11.92-3.88 16.946-7.6 4.853-3.587 8.733-8.453 10.547-14.253.88-2.787 1.24-5.934.76-8.84Z" fill="#0C0C0C"/><path d="M246.251 740.528c-5.813 21.453-33.959 32.506-62.852 24.679-28.907-7.826-47.627-31.573-41.813-53.026 5.813-21.453 33.946-32.506 62.852-24.68 28.907 7.827 47.627 31.573 41.813 53.027Z" fill="#D73532"/><path d="M212.398 755.261c-3.653 13.506-19.72 20.906-35.879 16.533-16.16-4.373-26.294-18.866-22.64-32.373 3.653-13.507 19.72-20.907 35.879-16.533 16.16 4.373 26.294 18.866 22.627 32.373" fill="#FED063"/><mask id="n" style="mask-type:luminance" maskUnits="userSpaceOnUse" x="140" y="684" width="108" height="84"><path d="M204.438 687.501c-28.906-7.826-57.053 3.227-62.852 24.68-5.8 21.453 12.906 45.2 41.813 53.026 28.906 7.827 57.039-3.226 62.852-24.679 5.814-21.454-12.906-45.2-41.813-53.027Z" fill="#fff"/></mask><g mask="url(#n)" fill="#fff"><path d="M172.319 704.808c-2.454 9.04-12.387 14.213-22.187 11.56-9.8-2.653-15.773-12.133-13.32-21.173 2.454-9.04 12.387-14.214 22.187-11.56 9.8 2.653 15.773 12.133 13.32 21.173ZM225.452 707.008c-2.454 9.04-12.387 14.213-22.187 11.56-9.8-2.654-15.773-12.134-13.32-21.173 2.454-9.04 12.387-14.214 22.187-11.56 9.8 2.653 15.773 12.133 13.32 21.173ZM257.891 752.821c-2.453 9.04-12.386 14.213-22.186 11.56-9.8-2.654-15.773-12.134-13.32-21.173 2.453-9.04 12.386-14.214 22.186-11.56 9.814 2.653 15.774 12.133 13.32 21.173Z"/></g><path d="M176.999 738.954c.16-1.146-.24-2.253-1.094-3.053-.08-.067-.173-.12-.253-.173-.04-.04-.053-.094-.107-.134-.56-.52-1.333-.853-2.106-.866-.574-.014-1.227.12-1.72.426-.254.16-.507.334-.707.56-.2.227-.4.48-.547.747-.24.427-.4.907-.56 1.373a1.737 1.737 0 0 0-.106.454c-.04.453-.027.893.16 1.32.253.573.68 1.04 1.213 1.36.427.4.933.68 1.547.786.266.04.546.04.8 0 .28-.053.506-.133.72-.253.413-.04.813-.12 1.173-.32.827-.453 1.44-1.28 1.573-2.227M199.612 745.314c0-.213-.067-.44-.134-.653a3.122 3.122 0 0 0-.133-.573c-.16-.44-.453-.8-.8-1.107-.573-.533-1.36-.76-2.12-.8-.28 0-.573.04-.853.093-.04 0-.08.027-.12.04-.787.054-1.587.347-2.094.947-.16.187-.333.387-.466.613-.134.227-.227.507-.307.747-.12.36-.147.773-.12 1.147.067.906.573 1.799 1.307 2.359.24.2.493.374.76.481.146.066.306.079.466.119.054 0 .094.041.147.041h.04c.547.133 1.093.186 1.667.053.4-.094.813-.253 1.146-.48.334-.227.654-.467.894-.787.373-.493.586-.88.72-1.48.053-.253.04-.533.026-.787M189.198 753.687c-.933-.653-2.533-.746-3.293.254-1.227 1.626-2.48 3.226-4.306 4.213-.867.467-1.667.72-2.56.827-.68.08-.694.08-1.267.026-.227-.026-.44-.053-.667-.093l-.36-.12c-.2-.067-.4-.16-.6-.24-.08-.027-.133-.053-.173-.067-.027-.026-.08-.053-.147-.093-.32-.213-.813-.56-.986-.707-.534-.48-1.214-1.36-1.6-2.133-.92-1.88-.88-4.04-.187-5.987.413-1.173-1.533-2.333-2.24-1.186-1.653 2.653-2.2 6.106-1.04 9.053 1.027 2.587 3.333 4.747 6 5.547 5.507 1.64 11.2-1.587 14.053-6.294.64-1.053.427-2.266-.627-3Z" fill="#0C0C0C"/><path d="M177.132 693.035c-.053-.107-.133-.174-.187-.28a1.336 1.336 0 0 0-.053-.614c-.267-.8-.973-1.24-1.787-1.293-2.853-.213-5.88-.253-8.573.867-2.64 1.093-5.12 3.173-5.96 5.986-.28.96.293 1.96 1.053 2.494.814.573 2.054.786 2.974.293a59.657 59.657 0 0 1 5.44-2.613c.226-.094.466-.187.693-.28.04-.014.4-.16.48-.187.453-.16.893-.32 1.347-.48.946-.32 1.906-.613 2.866-.867 1.267-.346 2.28-1.693 1.707-3.013M157.199 706.648c.026-.147 0-.293 0-.44.026-.093.053-.187.066-.28.04-.28 0-.547-.106-.787-.147-.44-.427-.866-.827-1.133-.347-.24-.72-.4-1.133-.493-.48-.107-1.227-.014-1.64.28-.12.093-.214.2-.334.28-.2.133-.413.253-.6.4a9.266 9.266 0 0 0-1.68 1.626 9.856 9.856 0 0 0-1.906 3.827c-.174.68.28 1.44.853 1.907.213.24.453.466.733.626.374.213.76.32 1.187.347.52.026.907-.107 1.36-.334 2.227-1.12 3.653-3.386 4.027-5.799" fill="#FED063"/><path d="M811.914 914.699v31.76M811.914 960.926v31.773" stroke="#D93231" stroke-width="4.267" stroke-miterlimit="10"/><path d="M800.58 811.274h-10.96v10.96h10.96v-10.96ZM833.447 811.3h-10.96v10.96h10.96V811.3Z" fill="#D93231"/><path d="M833.833 855.113h-10.96v-10.96h10.96v10.96Zm-32.879 0h-10.96v-10.96h10.96v10.96Zm54.799-21.733v10.773h-10.96v-10.96H822.5v-10.946h-10.96l-10.96-.014v10.96h-21.546v10.96h-10.96V833.38h-10.96v65.64h10.96v-32.947h21.546v21.92h44.587v-21.92h21.546v32.653h10.96v-65.333h-10.96v-.013Z" fill="#D93231"/><path d="M778.981 887.993h-10.96v10.96h10.96v-10.96ZM866.7 887.993h-21.773v10.96H866.7v-10.96ZM822.833 887.993H801.06v10.96h21.773v-10.96Z" fill="#D93231"/></svg>