<svg width="1200" height="780" fill="none" xmlns="http://www.w3.org/2000/svg"><path d="M1200 0H0v780h1200V0Z" fill="#3960AA"/><mask id="a" style="mask-type:luminance" maskUnits="userSpaceOnUse" x="0" y="0" width="1200" height="780"><path d="M1200 0H0v780h1200V0Z" fill="#fff"/></mask><g mask="url(#a)"><path d="M1200 0H0v780h1200V0Z" fill="#3960AA"/></g><path d="M60.98 84.4s-6.86 4.37-5.93 15.28c.94 10.91-4.37 21.21 8.11 22.77 12.47 1.56 30.87-4.68 34.62-2.81 3.75 1.87 33.06 9.67 30.87-13.72-2.18-23.39 2.81-17.78-14.03-22.14-16.84-4.37-47.71.31-53.64.62ZM99.65 50.72c0 .94-7.48 20.58 2.49 27.44l47.71-.31s9.98-.94 8.73-9.36 3.12-11.85 0-14.97c-3.12-3.12-58.94-2.81-58.94-2.81l.01.01ZM43.48 131.19s-.83 5.05 2.92 4.71c3.75-.34 1.52-1.92 11.28.04s11.81-7.01 2.7-8.28c-9.11-1.27-14.33 1.18-17.08 3.57" fill="#78BFEA"/><path d="M119.04 122.001c-1.08-.12-2.17-.13-3.25-.18-1.05-.05-2.1-.15-3.15-.21-2.12-.12-4.25-.2-6.36-.45-2.09-.25-4.16-.69-6.15-1.36-2.05-.69-4.02-1.47-6.23-1.36-2.2.11-4.4.66-6.56 1.06-2.24.41-4.48.82-6.73 1.23-2.24.41-4.48.82-6.73 1.23-2.2.4-4.41.88-6.64 1.07-2.2.18-4.44.12-6.52-.7-1.85-.73-3.52-2.1-4.3-3.96-.05-.12-.23-.08-.2.05.92 3.39 4.27 5.49 7.59 5.99 2.27.34 4.52.1 6.76-.25 2.31-.36 4.62-.79 6.93-1.19 4.65-.8 9.29-1.62 13.94-2.41 1.14-.2 2.3-.37 3.46-.3 1.07.06 2.1.4 3.11.75 2.08.72 4.14 1.37 6.31 1.74 2.45.42 4.95.63 7.44.58 1.24-.02 2.46-.18 3.69-.29 1.22-.12 2.45-.21 3.65-.43.35-.06.23-.55-.08-.58l.02-.03ZM157.52 75.2c-.77.44-1.52.88-2.35 1.17-.77.27-1.56.48-2.36.63-1.64.32-3.36.52-5.03.62-3.7.21-7.42-.12-11.12-.24-8.49-.29-16.99-.26-25.47.18-2.28.12-4.6.37-6.87.02-1.88-.29-3.86-.97-4.99-2.6-.19-.28-.59-.04-.45.26.71 1.53 1.97 2.67 3.51 3.36 1.86.83 3.94.85 5.95.78 4.42-.16 8.84-.36 13.27-.42 4.44-.06 8.88-.02 13.32.1 3.97.11 7.95.45 11.92.33 2.04-.06 4.08-.24 6-.93 1.77-.64 3.6-1.58 4.98-2.88.2-.19-.06-.51-.29-.38h-.02Z" fill="#0C0C0C"/><path d="M110.284 225.115s-6.4 0-6.1 4.57c.3 4.57 2.13 4.57 8.84 5.18 6.71.61 17.98.3 15.85-4.88-2.13-5.18-13.11-5.18-18.59-4.88v.01ZM129.794 237.005s12.5-4.88 14.94 1.22v2.44s-3.96.61-6.4 1.52c-2.44.91-9.75-1.83-8.53-5.18h-.01ZM68.824 245.075c.29-.39 3.96-4.42 16.61-4.11 12.65.31 23.93.91 30.33.91 6.4 0 12.8-1.07 13.87 12.8 0 0-.91 6.86-.3 9.6.61 2.74 2.13 9.6-7.01 12.5-9.14 2.9-32.92 2.59-40.84 1.68-7.93-.91-11.43 1.07-12.8-6.55-1.37-7.62-3.05-22.56.15-26.82l-.01-.01Z" fill="#78BFEA"/><path d="M126.644 275.585c-3.77.99-7.68 1.44-11.55 1.79-3.9.35-7.82.43-11.73.38-3.92-.05-7.83-.22-11.75-.29-3.79-.07-7.55.05-11.34.16-1.88.05-3.78.08-5.64-.19-1.86-.27-3.71-.68-5.24-1.84-.13-.1-.3.12-.17.22 1.24 1.02 2.58 1.84 4.1 2.38 1.6.57 3.34.73 5.02.81 1.72.08 3.44.01 5.17 0 2.02-.03 4.04-.01 6.07.03 8.04.16 16.12.77 24.15.11a53.1 53.1 0 0 0 6.64-.96c2.19-.47 4.34-1.2 6.43-1.99.36-.14.22-.69-.16-.59v-.02Z" fill="#0C0C0C"/><path d="M358.58 25.45s-6.66 0-6.34 4.75c.32 4.75 2.22 4.75 9.19 5.39 6.97.64 18.7.32 16.48-5.07-2.22-5.39-13.63-5.39-19.33-5.07ZM378.87 37.81s12.99-5.07 15.53 1.27v2.54s-4.12.63-6.66 1.58c-2.54.95-10.14-1.9-8.87-5.39ZM315.48 46.21c.3-.4 4.12-4.6 17.27-4.28 13.15.32 24.88.95 31.53.95 6.65 0 13.31-1.11 14.42 13.31 0 0-.95 7.13-.32 9.98.63 2.85 2.22 9.98-7.29 12.99s-34.23 2.69-42.47 1.74c-8.24-.95-11.88 1.11-13.31-6.81-1.43-7.92-3.17-23.45.16-27.89l.01.01Z" fill="#78BFEA"/><path d="M375.6 77.92c-3.92 1.03-7.98 1.5-12.01 1.87-4.06.37-8.13.44-12.2.39-4.07-.05-8.15-.23-12.22-.3-3.94-.07-7.85.06-11.79.17-1.95.06-3.93.08-5.87-.2-1.93-.28-3.86-.7-5.45-1.91-.13-.1-.31.13-.18.23 1.29 1.06 2.69 1.91 4.27 2.47 1.66.59 3.47.76 5.22.84 1.79.08 3.58.01 5.37-.01 2.1-.03 4.21-.02 6.31.03 8.36.17 16.76.8 25.11.11 2.32-.19 4.63-.52 6.9-1 2.28-.48 4.51-1.24 6.69-2.07.37-.14.23-.71-.17-.61l.02-.01Z" fill="#0C0C0C"/><path d="M1006.44 586.89s-6.66 0-6.34 4.75c.32 4.75 2.22 4.75 9.19 5.39 6.97.64 18.7.32 16.48-5.07-2.22-5.39-13.63-5.39-19.33-5.07ZM1026.72 599.25s12.99-5.07 15.53 1.27v2.54s-4.12.63-6.66 1.58c-2.54.95-10.14-1.9-8.87-5.39ZM963.34 607.65c.3-.4 4.12-4.6 17.27-4.28 13.15.32 24.88.95 31.53.95 6.65 0 13.31-1.11 14.42 13.31 0 0-.95 7.13-.32 9.98.63 2.85 2.22 9.98-7.29 12.99s-34.23 2.69-42.47 1.74c-8.24-.95-11.88 1.11-13.31-6.81-1.43-7.92-3.17-23.45.16-27.89l.01.01Z" fill="#78BFEA"/><path d="M1023.46 639.36c-3.92 1.03-7.98 1.5-12.01 1.87-4.06.37-8.13.44-12.2.39-4.07-.05-8.15-.23-12.22-.3-3.94-.07-7.85.06-11.79.17-1.95.06-3.93.08-5.87-.2-1.93-.28-3.86-.7-5.45-1.91-.13-.1-.31.13-.18.23 1.29 1.06 2.69 1.91 4.27 2.47 1.66.59 3.47.76 5.22.84 1.79.08 3.58.01 5.37-.01 2.1-.03 4.21-.02 6.31.03 8.36.17 16.76.8 25.11.11 2.32-.19 4.63-.52 6.9-1 2.28-.48 4.51-1.24 6.69-2.07.37-.14.23-.71-.17-.61l.02-.01ZM100.3 751.52c42.338 0 76.66-5.646 76.66-12.61 0-6.965-34.322-12.61-76.66-12.61-42.338 0-76.66 5.645-76.66 12.61 0 6.964 34.322 12.61 76.66 12.61ZM158.65 750.43c.61-.13 1.22-.26 1.82-.4.33-.1.66-.21.98-.31 1.22-.73 2.53-1.38 3.91-1.96a.735.735 0 0 0-.33 0c-.89.24-1.77.47-2.65.7-2.45.51-4.91.99-7.39 1.41-2.31.39-4.65.79-7 1.1 3.55-.13 7.1-.37 10.65-.54h.01ZM171.6 745.64c.8-.21 1.56-.45 2.32-.73 1.08-.64 2.07-1.36 2.92-2.14-.07 0-.15.01-.22.05-1.78.87-3.82 1.52-5.85 2.06-.59.16.29.89.82.75l.01.01Z" fill="#0C0C0C"/><path d="M17.33 635.72s5.35 105.86 5.35 105.16c0-.7 85.41-.23 85.41-.23l8.15-92.59-98.91-12.33v-.01Z" fill="#EF7D3E"/><path d="M27.45 640.38s-2.09 26.18 4.65 27.11c0 0 3.14 1.05 3.03-17.34 0 0 1.28-.23 1.16 1.63-.12 1.86 8.49 10.01 7.56-7.33l-16.41-4.07h.01Z" fill="#78BFEA"/><path d="M17.33 635.72s5.82-3.49 17.22-2.56l21.88 13.03c2.89.25-35.1-2.95-39.1-10.47Z" fill="#0C0C0C"/><path d="M47.7 645.38s8.96 2.33 11.99 11.87c3.03 9.54 7.45 22.69 7.45 22.69s8.96-3.84 9.89-6.05c.93-2.21.47-7.1 1.75-6.28 1.28.82 1.63 5 2.56 4.77.93-.23 21.88-8.73 21.88-11.87 0-3.14-1.86-9.19-1.86-9.19l-53.64-5.93-.02-.01Z" fill="#fff"/><path d="M20.58 638.51s11.4-2.56 17.45-1.86l15.83 9.26s-20.62-.98-33.28-7.4Z" fill="#395FAA"/><path d="M18.49 613.38s3.49-7.21 10.71-10.71c7.22-3.5 13.73.93 19.55 5.12s55.86 20.95 55.86 20.95l17.92 3.72s4.65 5.35-5.82 11.87c0 0-8.38 7.45-33.05 3.96-24.67-3.49-54.23-15.83-65.16-34.91h-.01Z" fill="#EF7D3E"/><path d="M52.24 621.52s-9.08-8.61-4.89-23.27 24.04-23.58 37.76-27.02c.3-.07.59-.15.88-.21 13.73-3.26 10.47-1.63 11.64-3.72l8.38-34.68 5.35 13.5 18.62-2.09-.23-12.57s13.73 15.59 16.76 22.81c3.03 7.22 7.68 13.27-2.56 17.92-10.24 4.65-16.29 4.65-16.29 4.65s-3.49 10.47-6.98 14.2c0 0-15.59 24.2-30.26 28.86-14.67 4.66-37 1.86-38.17 1.63l-.01-.01Z" fill="#0C0C0C"/><path d="M98.08 594.3s-5.12 28.86-2.79 35.84c2.33 6.98 5.59 6.05 7.68 5.59 2.09-.46 7.68-1.86 6.05-3.72s-3.96-5.82-3.96-5.82l5.35-32.58-12.33.7v-.01Z" fill="#0C0C0C"/><path d="M120.89 589.64c.7 0-4.19 25.6-2.79 29.32 1.4 3.72 14.43 12.57 8.38 16.06 0 0-5.82.7-8.15-.47s-3.72-1.88-5.82-5.35c0 0-5.59-14.66-5.82-21.18 0 0 11.64-18.39 14.2-18.39v.01ZM68.83 532.18c-.83-1.64-1.94-3.28-3.35-4.49-2.57-1.32-6.43-2.43-7.19 2.14-1.16 6.98 7.91 11.17-2.79 21.18-10.71 10.01-23.97 12.57-29.56 27.93s3.26 37.7 28.16 45.85l-4.42-12.1s-13.27-2.33-17.22-19.32c0 0-.23-13.5 4.89-18.39 5.12-4.89 19.78-12.33 25.37-16.99 4.61-3.84 10-11.33 7.7-21.8-.41-1.39-.93-2.74-1.57-4.01h-.02Z" fill="#0C0C0C"/><path d="M63.76 589.29s27-2.91 26.3 13.38c0 0-2.09 12.68-12.92 20.25 0 0 20.25 2.21 16.99 9.43 0 0-4.42 2.33-14.66-1.75 0 0-16.17-2.21-21.41-6.4-5.24-4.19 4.77-33.98 5.7-34.91Z" fill="#0C0C0C"/><path d="M142.22 557.63c-.24-.78-1.53-.68-1.48.2.03.53.15 1 .32 1.5.13.38.33.82.3 1.23-.03.63-.57 1.09-1.11 1.33-1.62.7-3.54-.66-4.26-2.06-.14-.26-.62-.15-.58.16.07.58.16 1.15.25 1.73.1.63.07 1.26.1 1.9.04.87.27 1.92-.55 2.5-1.68 1.18-3.84-.36-5.31-1.16-.22-.12-.56.14-.38.38.81 1.05 1.78 2.1 3.03 2.59 1.13.44 2.52.4 3.57-.25 1.23-.77 1.64-2.08 1.46-3.47-.08-.66-.29-1.28-.52-1.9.16.16.33.32.53.47.91.68 2.06.89 3.15.55 1-.3 1.88-1.04 2.2-2.05.41-1.31-.34-2.43-.71-3.64l-.01-.01Z" fill="#3960AA"/><path d="M136.4 556.85s-8.84 2.09-7.45 3.49c1.39 1.4 8.15.93 8.15.93s.47-4.19-.7-4.42Z" fill="#F4A19D"/><path d="M155.79 543.99c-2.35.79-4.62 1.8-6.83 2.93-1.09.56-2.16 1.15-3.21 1.77-.97.57-2.28 1.17-2.96 2.09-.32.42.2.86.61.79.57-.09 1.11-.46 1.62-.72l1.53-.81c1.08-.57 2.17-1.13 3.27-1.67 2.15-1.07 4.34-2.08 6.51-3.12.7-.34.21-1.5-.53-1.26h-.01ZM155.21 549.49c-1.83.69-3.66 1.4-5.48 2.12-.91.36-1.83.7-2.75 1.06-.84.33-1.88.6-2.61 1.13-.27.2-.2.66.18.66.91 0 1.89-.4 2.74-.66.97-.3 1.93-.63 2.88-.96 1.87-.65 3.71-1.39 5.51-2.22.63-.29.18-1.38-.48-1.13h.01Z" fill="#0C0C0C"/><path d="M101.55 591.37c-.8 2.32-1.79 4.57-2.49 6.93-.68 2.31-1.3 4.64-1.84 6.99-.54 2.35-.99 4.72-1.36 7.1-.38 2.41-.5 4.85-.68 7.28-.2 2.72-.45 5.47-.43 8.2 0 .27.37.25.41 0 .33-2.43.53-4.87.9-7.3.36-2.37.87-4.72 1.33-7.07.92-4.7 1.75-9.41 2.83-14.07.3-1.3.63-2.6.89-3.91.27-1.35.53-2.69.92-4.02.09-.32-.39-.45-.5-.14l.02.01ZM103.02 632.75c-.26-.45-.62-.87-1.04-1.17a3.47 3.47 0 0 0-.59-.34c-.25-.11-.51-.15-.78-.18-.14-.01-.27.11-.3.23-.04.14.03.27.14.35.15.11.28.24.41.36.08.07.16.15.23.23.03.03.06.07.09.1.02.02.08.1.03.04.05.06.09.12.13.18 0 0 .06.08.06.09.05.08.1.15.15.23.06.1.11.19.15.29 0 .01.03.08.04.09.01.03.03.07.03.08.14.38.21.78.31 1.17.02.1.05.19.07.29l.03.15s0 .06.01.08v.25c0 .15.04.26.1.4.08.18.35.23.5.13.26-.17.35-.43.45-.71.09-.24.15-.49.17-.75.05-.55-.16-1.13-.43-1.59h.04ZM106.3 632.22c-.17-.39-.39-.76-.64-1.1-.26-.35-.57-.64-.89-.94-.21-.19-.5.1-.31.31.5.55.76 1.32.87 2.04.05.32.07.69.06 1.04 0 .18-.02.36-.03.54 0 .1-.01.2-.01.3 0 .06 0 .12.01.18 0 .05 0 .08.01.09v.03c.03.24.15.46.4.53.23.06.5-.04.62-.25.46-.83.26-1.92-.1-2.76l.01-.01ZM121.93 633.89c-.06-.52-.23-1.02-.45-1.5-.37-.82-1.03-1.68-1.91-1.99-.26-.09-.49.23-.35.45.21.33.45.63.65.97.1.17.19.35.29.53.1.2.14.29.21.51.06.19.12.38.16.58.02.09.04.19.05.28v.04c0 .07.02.15.03.22.01.1.02.12 0 .07v.01c0 .06.01.11.02.17 0 .1.01.2.02.3.02.24.04.47.08.71.08.45.81.55 1 .13.12-.27.18-.51.21-.81.02-.22 0-.45-.02-.67h.01ZM125.56 632.67c-.3-.86-.86-1.66-1.71-2.04-.33-.15-.63.21-.38.5.23.26.43.56.58.87.06.12.07.15.11.25 0 .01.02.06.03.07.02.05.03.09.05.14.06.18.1.35.14.54v.06c0 .03 0 .08.01.09 0 .1.01.19.01.29 0 .19 0 .37-.02.55v.02c0 .04-.01.08-.02.11-.02.09-.04.19-.07.28-.06.19-.13.36-.18.55-.09.34.08.69.41.83.34.14.68 0 .88-.29.28-.42.35-.99.36-1.48.01-.46-.06-.92-.21-1.35l.01.01ZM71.28 623.03c.27.11.54.22.82.31.2.04.4.07.61.11.28.12.59.21.87.28 1.7.37 3.47.49 5.21.56 2.69.11 5.41.11 8.07.59-.02-.24-.15-.48-.45-.56-1.32-.36-2.69-.5-4.05-.68-1.37-.18-2.73-.36-4.1-.52-.13-.02-.27-.03-.41-.04a.366.366 0 0 0-.16-.1c-.78-.24-1.53-.53-2.33-.68-.8-.15-1.61-.27-2.41-.39-.17-.03-.73-.04-.83-.2-.08-.14.17-.5.25-.61.38-.56.91-1.06 1.37-1.55 1.96-2.1 4.03-4.09 5.55-6.55 1.52-2.45 2.51-5.18 2.82-8.06.31-2.91-.09-5.82-1.02-8.59a28.92 28.92 0 0 0-2-4.56c-.75-1.38-1.61-3.03-2.91-3.94-.29-.2-.64.13-.57.44.37 1.45 1.36 2.78 2.04 4.11.67 1.33 1.25 2.7 1.72 4.11.93 2.83 1.38 5.84 1.15 8.82-.23 3.02-1.19 5.81-3.15 8.14-1.89 2.25-4.27 4.04-6.13 6.3-.49.6-.95 1.38-.76 2.19.11.48.42.82.82 1.05l-.02.02Z" fill="#3960AA"/><path d="m49.44 624.78 7.1 3.26s6.5-14.32 12.09-14.08c5.59.24 16.19 3.6 15.72 6.63-.47 3.03-5.71 14.64-5.71 14.64l7.11 1.89s8.32-14.02 2.27-21.47c-6.05-7.45-28.33-15.54-38.58 9.13Z" fill="#78BFEA"/><path d="M70.78 555.45c.2-1.65.32-3.31.35-4.98-.77 1.92-1.69 3.78-2.82 5.54-.8 1.24-1.7 2.41-2.69 3.5-.22.19-.44.38-.67.56-1.55 1.21-3.27 2.2-4.87 3.34-.22.16-.43.43-.46.72 1.54-.36 3.12-.62 4.6-1.15.99-.46 1.94-1.01 2.86-1.64 1.44-1.27 2.45-2.99 3.25-4.76.17-.38.31-.77.46-1.15l-.01.02ZM20.11 588.55c-.1 1.15-.02 2.27.19 3.34.5 1.81 1.2 3.57 2.14 5.18.36.58.76 1.13 1.18 1.68l-.03-.09c.16-.2.24-.46.15-.76-1.74-5.58-2.01-11.52-.86-17.22-1.41 2.45-2.53 5.08-2.77 7.87ZM108.36 650.75c-4.08.68-8.16.96-12.29 1.1-4.11.14-8.19.23-12.3-.05-4.09-.27-8.15-.8-12.17-1.58s-8.06-1.62-11.98-2.8a85.22 85.22 0 0 1-12.98-5.13c-.11-.05-.2.11-.1.16 3.67 1.97 7.45 3.69 11.32 5.22 3.88 1.53 7.84 2.89 11.91 3.84a90.088 90.088 0 0 0 24.88 2.2c4.68-.24 9.37-1.13 13.93-2.16.54-.12.3-.91-.23-.82l.01.02Z" fill="#0C0C0C"/><path d="M22.91 607.33s-6.54 6.15-5.82 11.4c0 0 12.1 18.62 34.91 26.53 22.81 7.91 52.6 9.77 63.54 5.35 0 0 12.1-11.64 9.31-16.52 0 0-7.21 10.01-18.39 13.03-11.17 3.03-74.12-9.47-84.68-32.94 0 0-.52-4.55 1.13-6.85ZM116.75 652.99c.78-.18 1.47-.45 2.12-.79.92-.77 1.82-1.56 2.67-2.41 1.69-1.72 2.74-4.04 3.69-6.34-1.57 1.82-3.42 3.41-5.04 5.18-1.46 1.6-3.06 3.39-4.93 4.65.5-.09.99-.18 1.49-.29Z" fill="#FED062"/><path d="M80.89 671a6.1 6.1 0 0 0-.47-1.32c-.2-.4-.43-.79-.72-1.13-.3-.35-.62-.6-.99-.87-.24-.18-.55.17-.4.4.21.33.39.71.56 1.06.17.35.33.68.46 1.03.13.37.25.74.34 1.12l.06.31c0 .05.02.09.02.14 0 .02.01.11 0 .04.04.29.06.53.19.79.22.48.92.3 1.06-.14.14-.45 0-1-.11-1.45v.02ZM67.26 679.31c-1.39-2-1.85-4.33-2.49-6.64-.73-2.65-1.47-5.29-2.23-7.93-.73-2.52-1.45-5.05-2.39-7.5-.81-2.14-1.8-4.31-3.21-6.13-1.37-1.77-3.15-3.14-5.33-3.73-.07-.02-.1.08-.03.11 2.07.67 3.82 2.14 5.1 3.88 1.41 1.92 2.14 4.12 2.71 6.41.62 2.48 1.16 4.98 1.8 7.46.67 2.58 1.37 5.16 2.06 7.74.35 1.3.68 2.61 1.11 3.89.4 1.2.91 2.38 1.81 3.28.53.53 1.53-.17 1.07-.83l.02-.01ZM35.46 650.43c-.08-.52-.8-.33-.85.12-.29 2.82.07 5.71 0 8.55-.03 1.4-.12 2.8-.27 4.19-.14 1.29-.36 2.64-1.23 3.65-.14.17.09.41.25.25.84-.86 1.22-1.99 1.46-3.14.3-1.44.48-2.92.6-4.38.27-3.02.5-6.23.04-9.23v-.01ZM44.45 645.41c-.09-.27-.53-.32-.6 0-.15.73.01 1.51 0 2.25 0 .81-.07 1.62-.19 2.42-.23 1.54-.64 3.05-1.18 4.52-.05.12.16.21.21.09.69-1.45 1.17-2.98 1.46-4.56.14-.76.25-1.53.31-2.31.06-.77.22-1.68-.03-2.42l.02.01Z" fill="#0C0C0C"/><path d="M115.97 663.13s-.05.03-.07.04c-.18.57-.34 1.15-.5 1.73 0 .34-.02.68-.03 1.03-.7 3.64-1.19 7.31-1.7 10.99-.41 2.96-.8 5.91-1.2 8.87 1.14-3 2.37-5.98 3.14-9.11.6-2.46.86-5.06.97-7.59.07-1.77.23-4.25-.6-6v.04h-.01Z" fill="#EF7D3E"/><path d="M39.27 668.12c-.05-.67-.17-1.43-.8-1.82a.914.914 0 0 0-.14-.07c-.15-.27-.32-.53-.56-.74-.37-.34-1.06-.33-1.31.17-1.68 3.42-1.87 7.47-.39 11 .17.41.53.68.94.63.06 0 .12.001.17-.009.51-.17.83-.52 1.05-.95.56-.83.71-1.94.85-2.93.24-1.75.32-3.521.18-5.281h.01ZM34.95 680.9c-.04-.41-.12-.81-.24-1.2-.13-.52-.31-1.03-.57-1.51-.35-.67-1.42-.51-1.6.21-.15.62-.2 1.27-.15 1.92-.12 1.06.11 2.16.67 3.05a.87.87 0 0 0 1.53-.1c.01-.02.03-.05.04-.07.22-.22.33-.52.26-.82.09-.49.11-1 .06-1.48Z" fill="#78BFEA"/><path d="M125.66 555.89c-.6-.56-1.61-.73-2.38-.91-.81-.19-1.64-.31-2.47-.4-.91-.09-1.82-.13-2.74-.14-.98 0-1.97-.01-2.94.16-.52.1-.84.68-.77 1.17-.03.13-.03.27.01.4.29.79.78 1.36 1.52 1.78.67.38 1.45.66 2.2.87 1.6.46 3.27.55 4.92.33.77-.1 1.64-.21 2.31-.63.92-.57 1.17-1.87.34-2.64v.01ZM138.83 547.65c-.64.16-1.19.6-1.69 1.01-.38.31-.73.65-1.05 1.02-.48.56-1.04 1.28-1.32 2.05-.39.6-.71 1.24-.89 1.93-.1.4 0 .82.29 1.11.31.31.7.36 1.11.29 1.12-.2 2.08-1.03 2.88-1.79.77-.72 1.46-1.55 1.97-2.47.12-.21.22-.42.32-.64.16-.36.34-.73.35-1.14.03-1.07-1.05-1.6-1.99-1.37h.02Z" fill="#fff"/><mask id="b" style="mask-type:luminance" maskUnits="userSpaceOnUse" x="133" y="547" width="8" height="9"><path d="M138.83 547.65c-.64.16-1.19.6-1.69 1.01-.38.31-.73.65-1.05 1.02-.48.56-1.04 1.28-1.32 2.05-.39.6-.71 1.24-.89 1.93-.1.4 0 .82.29 1.11.31.31.7.36 1.11.29 1.12-.2 2.08-1.03 2.88-1.79.77-.72 1.46-1.55 1.97-2.47.12-.21.22-.42.32-.64.16-.36.34-.73.35-1.14.03-1.07-1.05-1.6-1.99-1.37h.02Z" fill="#fff"/></mask><g mask="url(#b)"><path d="M140.17 552.81c-.82-1.19-1.63-2.37-2.49-3.53-.12-.16-.28-.28-.46-.36-.27-.36-.55-.72-.82-1.09-.3-.41-.86-.66-1.34-.35-.45.29-.62.86-.35 1.34.1.17.2.33.3.5 0 .12.03.25.09.36.83 1.68 1.91 3.22 3.19 4.59.34.37.94.37 1.32.08.05-.04.09-.1.14-.15.03-.01.06-.02.08-.04.42-.27.67-.89.35-1.35h-.01Z" fill="#FED062"/></g><mask id="c" style="mask-type:luminance" maskUnits="userSpaceOnUse" x="114" y="554" width="13" height="6"><path d="M125.66 555.89c-.6-.56-1.61-.73-2.38-.91-.81-.19-1.64-.31-2.47-.4-.91-.09-1.82-.13-2.74-.14-.98 0-1.97-.01-2.94.16-.52.1-.84.68-.77 1.17-.03.13-.03.27.01.4.29.79.78 1.36 1.52 1.78.67.38 1.45.66 2.2.87 1.6.46 3.27.55 4.92.33.77-.1 1.64-.21 2.31-.63.92-.57 1.17-1.87.34-2.64v.01Z" fill="#fff"/></mask><g mask="url(#c)"><path d="M124.41 558.55c-1.22-1.54-2.41-3.17-3.66-4.79-.04-.05-.1-.08-.15-.11-.11-.16-.22-.32-.32-.48-.28-.43-.88-.64-1.33-.35-.1.06-.17.14-.24.23-.13 0-.26 0-.4.09-.37.21-.46.68-.27 1.04 1.15 2.19 2.49 4.32 4.32 6.02.39.36.96.41 1.38.08.01 0 .02-.02.03-.03.25-.01.49-.1.66-.28.4-.44.35-.98 0-1.41l-.02-.01Z" fill="#FED062"/></g><path d="M126.1 552.81c1.13.31 2.53.35 3.71.03.25-.07.36-.1.49-.17l.01-.01c.49-.73-.17-1.57-.76-1.99-.75-.53-1.67-.87-2.49-1.28-.56-.28-1.13-.54-1.69-.8 1.98.09 3.98.03 5.81-.85.91-.44.35-1.64-.47-1.72-1.71-.16-3.42-.13-5.13-.05-.9.11-1.8.22-2.7.31-2.27.23-4.69.18-7.02.44 2.75 2.87 6.47 5.03 10.24 6.08v.01Z" fill="#fff"/><path d="M22.68 740.88s51.38 25.15 85.41-.23l-51.55-25.39-33.87 25.62h.01Z" fill="#EF7D3E"/><path d="M297.39 200.79s-5.97 3.8-5.15 13.29c.82 9.49-3.8 18.45 7.05 19.8 10.85 1.35 26.86-4.07 30.11-2.44 3.25 1.63 28.76 8.41 26.86-11.94-1.9-20.35 2.44-15.46-12.21-19.26-14.65-3.8-41.51.27-46.66.54v.01ZM282.17 241.5s-.72 4.4 2.54 4.09c3.26-.3 1.33-1.67 9.82.04s10.27-6.1 2.35-7.2c-7.92-1.1-12.47 1.02-14.86 3.11" fill="#78BFEA"/><path d="M347.91 233.5c-.94-.1-1.88-.11-2.83-.16-.91-.04-1.83-.13-2.74-.19-1.85-.11-3.7-.17-5.53-.39-1.81-.22-3.62-.6-5.35-1.18-1.78-.6-3.5-1.28-5.42-1.19-1.91.1-3.83.58-5.71.92-1.95.36-3.9.71-5.85 1.07-1.95.36-3.9.71-5.85 1.07-1.92.35-3.84.77-5.78.93-1.91.16-3.87.1-5.67-.61-1.61-.64-3.06-1.83-3.74-3.45-.04-.1-.2-.07-.17.05.8 2.95 3.71 4.78 6.61 5.21 1.97.29 3.93.08 5.88-.22 2.01-.31 4.02-.69 6.03-1.03 4.04-.7 8.08-1.41 12.12-2.1 1-.17 2-.32 3.01-.26.93.06 1.83.35 2.7.65 1.81.63 3.6 1.19 5.49 1.52 2.13.36 4.31.55 6.47.51 1.08-.02 2.14-.15 3.21-.25 1.06-.1 2.13-.18 3.18-.37.31-.06.2-.48-.07-.51l.01-.02Z" fill="#0C0C0C"/><path d="M239.72 167.62c0 .81-6.51 17.91 2.17 23.87l41.51-.27s8.68-.81 7.6-8.14 2.71-10.31 0-13.02c-2.71-2.71-51.27-2.44-51.27-2.44h-.01Z" fill="#78BFEA"/><path d="M290.06 188.91c-.67.38-1.32.76-2.05 1.02-.67.24-1.35.41-2.05.55-1.43.28-2.92.46-4.38.54-3.22.18-6.46-.1-9.68-.21-7.38-.25-14.78-.23-22.16.16-1.99.1-4 .32-5.98.02-1.63-.25-3.36-.84-4.34-2.26-.17-.24-.51-.04-.39.23.62 1.34 1.71 2.33 3.05 2.93 1.62.72 3.43.74 5.17.68 3.85-.14 7.69-.31 11.54-.36 3.86-.05 7.73-.02 11.59.09 3.45.1 6.91.39 10.37.28 1.77-.06 3.55-.21 5.22-.81 1.54-.56 3.14-1.37 4.33-2.51.17-.17-.05-.45-.25-.33l.01-.02Z" fill="#0C0C0C"/><path d="M1076.19 177.61s-6.86 4.37-5.93 15.28c.94 10.91-4.37 21.21 8.11 22.77 12.47 1.56 30.87-4.68 34.62-2.81 3.75 1.87 33.06 9.67 30.87-13.72-2.18-23.39 2.81-17.78-14.03-22.14-16.84-4.37-47.71.31-53.64.62ZM1114.86 143.93c0 .94-7.48 20.58 2.49 27.44l47.71-.31s9.98-.94 8.73-9.36 3.12-11.85 0-14.97c-3.12-3.12-58.94-2.81-58.94-2.81l.01.01ZM1058.69 224.41s-.83 5.05 2.92 4.71c3.75-.34 1.52-1.92 11.28.04s11.81-7.01 2.7-8.28c-9.11-1.27-14.33 1.18-17.08 3.57" fill="#78BFEA"/><path d="M1134.26 215.21c-1.08-.12-2.17-.13-3.25-.18-1.05-.05-2.1-.15-3.15-.21-2.12-.12-4.25-.2-6.36-.45-2.09-.25-4.16-.69-6.15-1.36-2.05-.69-4.02-1.47-6.23-1.36-2.2.11-4.4.66-6.56 1.06-2.24.41-4.48.82-6.73 1.23-2.24.41-4.48.82-6.73 1.23-2.2.4-4.41.88-6.64 1.07-2.2.18-4.44.12-6.52-.7-1.85-.73-3.52-2.1-4.3-3.96-.05-.12-.23-.08-.2.05.92 3.39 4.27 5.49 7.59 5.99 2.27.34 4.52.1 6.76-.25 2.31-.36 4.62-.79 6.93-1.19 4.65-.8 9.29-1.62 13.94-2.41 1.14-.2 2.3-.37 3.46-.3 1.07.06 2.1.4 3.11.75 2.08.72 4.14 1.37 6.31 1.74 2.45.42 4.95.63 7.44.58 1.24-.02 2.46-.18 3.69-.29 1.22-.12 2.45-.21 3.65-.43.35-.06.23-.55-.08-.58l.02-.03ZM1172.74 168.41c-.77.44-1.52.88-2.35 1.17-.77.27-1.56.48-2.36.63-1.64.32-3.36.52-5.03.62-3.7.21-7.42-.12-11.12-.24-8.49-.29-16.99-.26-25.47.18-2.28.12-4.6.37-6.87.02-1.88-.29-3.86-.97-4.99-2.6-.19-.28-.59-.04-.45.26.71 1.53 1.97 2.67 3.51 3.36 1.86.83 3.94.85 5.95.78 4.42-.16 8.84-.36 13.27-.42 4.44-.06 8.88-.02 13.32.1 3.97.11 7.95.45 11.92.33 2.04-.06 4.08-.24 6-.93 1.77-.64 3.6-1.58 4.98-2.88.2-.19-.06-.51-.29-.38h-.02Z" fill="#0C0C0C"/><path d="M447.73 621.04s-6.86 4.37-5.93 15.28c.94 10.91-4.37 21.21 8.11 22.77 12.47 1.56 30.87-4.68 34.62-2.81 3.75 1.87 33.06 9.67 30.87-13.72-2.18-23.39 2.81-17.78-14.03-22.14-16.84-4.37-47.71.31-53.64.62ZM486.4 587.36c0 .94-7.48 20.58 2.49 27.44l47.71-.31s9.98-.94 8.73-9.36 3.12-11.85 0-14.97c-3.12-3.12-58.94-2.81-58.94-2.81l.01.01ZM430.23 667.84s-.83 5.05 2.92 4.71c3.75-.34 1.52-1.92 11.28.04s11.81-7.01 2.7-8.28c-9.11-1.27-14.33 1.18-17.08 3.57" fill="#78BFEA"/><path d="M505.8 658.65c-1.08-.12-2.17-.13-3.25-.18-1.05-.05-2.1-.15-3.15-.21-2.12-.12-4.25-.2-6.36-.45-2.09-.25-4.16-.69-6.15-1.36-2.05-.69-4.02-1.47-6.23-1.36-2.2.11-4.4.66-6.56 1.06-2.24.41-4.48.82-6.73 1.23-2.24.41-4.48.82-6.73 1.23-2.2.4-4.41.88-6.64 1.07-2.2.18-4.44.12-6.52-.7-1.85-.73-3.52-2.1-4.3-3.96-.05-.12-.23-.08-.2.05.92 3.39 4.27 5.49 7.59 5.99 2.27.34 4.52.1 6.76-.25 2.31-.36 4.62-.79 6.93-1.19 4.65-.8 9.29-1.62 13.94-2.41 1.14-.2 2.3-.37 3.46-.3 1.07.06 2.1.4 3.11.75 2.08.72 4.14 1.37 6.31 1.74 2.45.42 4.95.63 7.44.58 1.24-.02 2.46-.18 3.69-.29 1.22-.12 2.45-.21 3.65-.43.35-.06.23-.55-.08-.58l.02-.03ZM544.28 611.84c-.77.44-1.52.88-2.35 1.17-.77.27-1.56.48-2.36.63-1.64.32-3.36.52-5.03.62-3.7.21-7.42-.12-11.12-.24-8.49-.29-16.99-.26-25.47.18-2.28.12-4.6.37-6.87.02-1.88-.29-3.86-.97-4.99-2.6-.19-.28-.59-.04-.45.26.71 1.53 1.97 2.67 3.51 3.36 1.86.83 3.94.85 5.95.78 4.42-.16 8.84-.36 13.27-.42 4.44-.06 8.88-.02 13.32.1 3.97.11 7.95.45 11.92.33 2.04-.06 4.08-.24 6-.93 1.77-.64 3.6-1.58 4.98-2.88.2-.19-.06-.51-.29-.38h-.02Z" fill="#0C0C0C"/><path d="M859.74 23.61s-6.4 0-6.1 4.57c.3 4.57 2.13 4.57 8.84 5.18 6.71.61 17.98.3 15.85-4.88-2.13-5.18-13.11-5.18-18.59-4.88v.01ZM879.25 35.49s12.5-4.88 14.94 1.22v2.44s-3.96.61-6.4 1.52c-2.44.91-9.75-1.83-8.53-5.18h-.01ZM818.29 43.57c.29-.39 3.96-4.42 16.61-4.11 12.65.31 23.93.91 30.33.91 6.4 0 12.8-1.07 13.87 12.8 0 0-.91 6.86-.3 9.6.61 2.74 2.13 9.6-7.01 12.5-9.14 2.9-32.92 2.59-40.84 1.68-7.93-.91-11.43 1.07-12.8-6.55-1.37-7.62-3.05-22.56.15-26.82l-.01-.01Z" fill="#78BFEA"/><path d="M876.11 74.08c-3.77.99-7.68 1.44-11.55 1.79-3.9.35-7.82.43-11.73.38-3.92-.05-7.83-.22-11.75-.29-3.79-.07-7.55.05-11.34.16-1.88.05-3.78.08-5.64-.19-1.86-.27-3.71-.68-5.24-1.84-.13-.1-.3.12-.17.22 1.24 1.02 2.58 1.84 4.1 2.38 1.6.57 3.34.73 5.02.81 1.72.08 3.44.01 5.17 0 2.02-.03 4.04-.01 6.07.03 8.04.16 16.12.77 24.15.11a53.1 53.1 0 0 0 6.64-.96c2.19-.47 4.34-1.2 6.43-1.99.36-.14.22-.69-.16-.59v-.02Z" fill="#0C0C0C"/><path d="M556.32 196.84s-6.66 0-6.34 4.75c.32 4.75 2.22 4.75 9.19 5.39 6.97.64 18.7.32 16.48-5.07-2.22-5.39-13.63-5.39-19.33-5.07ZM576.61 209.2s12.99-5.07 15.53 1.27v2.54s-4.12.63-6.66 1.58c-2.54.95-10.14-1.9-8.87-5.39ZM513.22 217.6c.3-.4 4.12-4.6 17.27-4.28 13.15.32 24.88.95 31.53.95 6.65 0 13.31-1.11 14.42 13.31 0 0-.95 7.13-.32 9.98.63 2.85 2.22 9.98-7.29 12.99s-34.23 2.69-42.47 1.74c-8.24-.95-11.88 1.11-13.31-6.81-1.43-7.92-3.17-23.45.16-27.89l.01.01Z" fill="#78BFEA"/><path d="M573.34 249.32c-3.92 1.03-7.98 1.5-12.01 1.87-4.06.37-8.13.44-12.2.39-4.07-.05-8.15-.23-12.22-.3-3.94-.07-7.85.06-11.79.17-1.95.06-3.93.08-5.87-.2-1.93-.28-3.86-.7-5.45-1.91-.13-.1-.31.13-.18.23 1.29 1.06 2.69 1.91 4.27 2.47 1.66.59 3.47.76 5.22.84 1.79.08 3.58.01 5.37-.01 2.1-.03 4.21-.02 6.31.03 8.36.17 16.76.8 25.11.11 2.32-.19 4.63-.52 6.9-1 2.28-.48 4.51-1.24 6.69-2.07.37-.14.23-.71-.17-.61l.02-.01Z" fill="#0C0C0C"/><path d="M624.85 55.71s-5.97 3.8-5.15 13.29c.82 9.49-3.8 18.45 7.05 19.8 10.85 1.35 26.86-4.07 30.11-2.44 3.25 1.63 28.76 8.41 26.86-11.94-1.9-20.35 2.44-15.46-12.21-19.26-14.65-3.8-41.51.27-46.66.54v.01ZM609.63 96.42s-.72 4.4 2.54 4.09c3.26-.3 1.33-1.67 9.82.04s10.27-6.1 2.35-7.2c-7.92-1.1-12.47 1.02-14.86 3.11" fill="#78BFEA"/><path d="M675.36 88.42c-.94-.1-1.88-.11-2.83-.16-.91-.04-1.83-.13-2.74-.19-1.85-.11-3.7-.17-5.53-.39-1.81-.22-3.62-.6-5.35-1.18-1.78-.6-3.5-1.28-5.42-1.19-1.91.1-3.83.58-5.71.92-1.95.36-3.9.71-5.85 1.07-1.95.36-3.9.71-5.85 1.07-1.92.35-3.84.77-5.78.93-1.91.16-3.87.1-5.67-.61-1.61-.64-3.06-1.83-3.74-3.45-.04-.1-.2-.07-.17.05.8 2.95 3.71 4.78 6.61 5.21 1.97.29 3.93.08 5.88-.22 2.01-.31 4.02-.69 6.03-1.03 4.04-.7 8.08-1.41 12.12-2.1 1-.17 2-.32 3.01-.26.93.06 1.83.35 2.7.65 1.81.63 3.6 1.19 5.49 1.52 2.13.36 4.31.55 6.47.51 1.08-.02 2.14-.15 3.21-.25 1.06-.1 2.13-.18 3.18-.37.31-.06.2-.48-.07-.51l.01-.02Z" fill="#0C0C0C"/><path d="M567.17 22.54c0 .81-6.51 17.91 2.17 23.87l41.51-.27s8.68-.81 7.6-8.14 2.71-10.31 0-13.02c-2.71-2.71-51.27-2.44-51.27-2.44h-.01Z" fill="#78BFEA"/><path d="M617.52 43.83c-.67.38-1.32.76-2.05 1.02-.67.24-1.35.41-2.05.55-1.43.28-2.92.46-4.38.54-3.22.18-6.46-.1-9.68-.21-7.38-.25-14.78-.23-22.16.16-1.99.1-4 .32-5.98.02-1.63-.25-3.36-.84-4.34-2.26-.17-.24-.51-.04-.39.23.62 1.34 1.71 2.33 3.05 2.93 1.62.72 3.43.74 5.17.68 3.85-.14 7.69-.31 11.54-.36 3.86-.05 7.73-.02 11.59.09 3.45.1 6.91.39 10.37.28 1.77-.06 3.55-.21 5.22-.81 1.54-.56 3.14-1.37 4.33-2.51.17-.17-.05-.45-.25-.33l.01-.02Z" fill="#0C0C0C"/><path d="M110.24 450.92s-6.71 4.27-5.79 14.94c.92 10.67-4.27 20.73 7.93 22.25 12.19 1.52 30.18-4.57 33.84-2.74 3.66 1.83 32.31 9.45 30.18-13.41-2.13-22.86 2.74-17.38-13.72-21.64-16.46-4.27-46.64.3-52.43.61l-.01-.01ZM93.14 496.67s-.81 4.94 2.85 4.6c3.66-.34 1.49-1.87 11.03.04 9.54 1.92 11.54-6.86 2.64-8.09-8.9-1.23-14.01 1.15-16.69 3.49" fill="#78BFEA"/><path d="M167 487.68c-1.05-.11-2.12-.12-3.18-.17-1.03-.05-2.05-.15-3.08-.21-2.08-.12-4.15-.19-6.22-.44-2.04-.24-4.06-.68-6.01-1.33-2-.67-3.93-1.44-6.09-1.33-2.15.11-4.3.65-6.42 1.03-2.19.4-4.38.8-6.58 1.2-2.19.4-4.38.8-6.58 1.2-2.15.39-4.31.86-6.49 1.04-2.15.18-4.34.11-6.37-.69-1.81-.71-3.44-2.05-4.2-3.87-.05-.11-.23-.08-.19.05.9 3.31 4.17 5.37 7.42 5.85 2.21.33 4.41.09 6.61-.25 2.26-.35 4.52-.77 6.77-1.16 4.54-.79 9.08-1.58 13.62-2.36 1.12-.19 2.25-.36 3.38-.29 1.04.06 2.06.39 3.04.73 2.03.71 4.04 1.34 6.17 1.71 2.4.41 4.84.62 7.27.57 1.21-.02 2.4-.17 3.61-.29 1.19-.11 2.39-.2 3.57-.42.35-.06.22-.54-.08-.57h.03Z" fill="#0C0C0C"/><path d="M45.43 413.65c0 .91-7.32 20.12 2.44 26.83l46.64-.3s9.75-.91 8.54-9.15c-1.22-8.23 3.05-11.58 0-14.63-3.05-3.05-57.61-2.74-57.61-2.74l-.01-.01Z" fill="#78BFEA"/><path d="M102 437.58c-.75.43-1.49.86-2.3 1.15-.75.27-1.52.47-2.3.62-1.61.31-3.28.51-4.92.6-3.62.2-7.26-.11-10.87-.23-8.29-.28-16.61-.25-24.9.17-2.23.12-4.5.36-6.72.02-1.83-.28-3.77-.95-4.87-2.54-.19-.27-.58-.04-.44.26.7 1.5 1.93 2.61 3.43 3.29 1.82.81 3.85.83 5.81.76 4.32-.15 8.64-.35 12.97-.41 4.34-.06 8.68-.02 13.02.1 3.88.11 7.77.44 11.65.32 1.99-.06 3.98-.23 5.86-.91 1.73-.63 3.52-1.54 4.87-2.82.2-.19-.05-.5-.29-.37v-.01Z" fill="#0C0C0C"/><path d="M848.15 279.66s-6.71 4.27-5.79 14.94c.92 10.67-4.27 20.73 7.93 22.25 12.19 1.52 30.18-4.57 33.84-2.74 3.66 1.83 32.31 9.45 30.18-13.41-2.13-22.86 2.74-17.38-13.72-21.64-16.46-4.27-46.64.3-52.43.61l-.01-.01ZM831.05 325.4s-.81 4.94 2.85 4.6c3.66-.34 1.49-1.87 11.03.04 9.54 1.92 11.54-6.86 2.64-8.09-8.9-1.23-14.01 1.15-16.69 3.49" fill="#78BFEA"/><path d="M904.91 316.42c-1.05-.11-2.12-.12-3.18-.17-1.03-.05-2.05-.15-3.08-.21-2.08-.12-4.15-.19-6.22-.44-2.04-.24-4.06-.68-6.01-1.33-2-.67-3.93-1.44-6.09-1.33-2.15.11-4.3.65-6.42 1.03-2.19.4-4.38.8-6.58 1.2-2.19.4-4.38.8-6.58 1.2-2.15.39-4.31.86-6.49 1.04-2.15.18-4.34.11-6.37-.69-1.81-.71-3.44-2.05-4.2-3.87-.05-.11-.23-.08-.19.05.9 3.31 4.17 5.37 7.42 5.85 2.21.33 4.41.09 6.61-.25 2.26-.35 4.52-.77 6.77-1.16 4.54-.79 9.08-1.58 13.62-2.36 1.12-.19 2.25-.36 3.38-.29 1.04.06 2.06.39 3.04.73 2.03.71 4.04 1.34 6.17 1.71 2.4.41 4.84.62 7.27.57 1.21-.02 2.4-.17 3.61-.29 1.19-.11 2.39-.2 3.57-.42.35-.06.22-.54-.08-.57h.03Z" fill="#0C0C0C"/><path d="M783.34 242.38c0 .91-7.32 20.12 2.44 26.83l46.64-.3s9.75-.91 8.54-9.15c-1.22-8.23 3.05-11.58 0-14.63-3.05-3.05-57.61-2.74-57.61-2.74l-.01-.01Z" fill="#78BFEA"/><path d="M839.92 266.31c-.75.43-1.49.86-2.3 1.15-.75.27-1.52.47-2.3.62-1.61.31-3.28.51-4.92.6-3.62.2-7.26-.11-10.87-.23-8.29-.28-16.61-.25-24.9.17-2.23.12-4.5.36-6.72.02-1.83-.28-3.77-.95-4.87-2.54-.19-.27-.58-.04-.44.26.7 1.5 1.93 2.61 3.43 3.29 1.82.81 3.85.83 5.81.76 4.32-.15 8.64-.35 12.97-.41 4.34-.06 8.68-.02 13.02.1 3.88.11 7.77.44 11.65.32 1.99-.06 3.98-.23 5.86-.91 1.73-.63 3.52-1.54 4.87-2.82.2-.19-.05-.5-.29-.37v-.01Z" fill="#0C0C0C"/><path d="M283.9 377.15s-6.4 0-6.1 4.57c.3 4.57 2.13 4.57 8.84 5.18 6.71.61 17.98.3 15.85-4.88-2.13-5.18-13.11-5.18-18.59-4.88v.01ZM303.41 389.03s12.5-4.88 14.94 1.22v2.44s-3.96.61-6.4 1.52c-2.44.91-9.75-1.83-8.53-5.18h-.01ZM242.45 397.11c.29-.39 3.96-4.42 16.61-4.11 12.65.31 23.93.91 30.33.91 6.4 0 12.8-1.07 13.87 12.8 0 0-.91 6.86-.3 9.6.61 2.74 2.13 9.6-7.01 12.5-9.14 2.9-32.92 2.59-40.84 1.68-7.93-.91-11.43 1.07-12.8-6.55-1.37-7.62-3.05-22.56.15-26.82l-.01-.01Z" fill="#78BFEA"/><path d="M300.27 427.61c-3.77.99-7.68 1.44-11.55 1.79-3.9.35-7.82.43-11.73.38-3.92-.05-7.83-.22-11.75-.29-3.79-.07-7.55.05-11.34.16-1.88.05-3.78.08-5.64-.19-1.86-.27-3.71-.68-5.24-1.84-.13-.1-.3.12-.17.22 1.24 1.02 2.58 1.84 4.1 2.38 1.6.57 3.34.73 5.02.81 1.72.08 3.44.01 5.17 0 2.02-.03 4.04-.01 6.07.03 8.04.16 16.12.77 24.15.11a53.1 53.1 0 0 0 6.64-.96c2.19-.47 4.34-1.2 6.43-1.99.36-.14.22-.69-.16-.59v-.02Z" fill="#0C0C0C"/><path d="M520.97 352.8s-5.97 3.8-5.15 13.29c.82 9.49-3.8 18.45 7.05 19.8 10.85 1.35 26.86-4.07 30.11-2.44 3.25 1.63 28.76 8.41 26.86-11.94-1.9-20.35 2.44-15.46-12.21-19.26-14.65-3.8-41.51.27-46.66.54v.01ZM505.75 393.51s-.72 4.4 2.54 4.09c3.26-.3 1.33-1.67 9.82.04s10.27-6.1 2.35-7.2c-7.92-1.1-12.47 1.02-14.86 3.11" fill="#78BFEA"/><path d="M571.48 385.519c-.94-.1-1.88-.11-2.83-.16-.91-.04-1.83-.129-2.74-.189-1.85-.11-3.7-.171-5.53-.391-1.81-.22-3.62-.6-5.35-1.18-1.78-.6-3.5-1.28-5.42-1.19-1.91.1-3.83.58-5.71.92-1.95.36-3.9.71-5.85 1.07-1.95.36-3.9.71-5.85 1.07-1.92.35-3.84.77-5.78.93-1.91.16-3.87.101-5.67-.609-1.61-.64-3.06-1.831-3.74-3.451-.04-.1-.2-.069-.17.051.8 2.95 3.71 4.779 6.61 5.209 1.97.29 3.93.08 5.88-.22 2.01-.31 4.02-.69 6.03-1.03 4.04-.7 8.08-1.41 12.12-2.1 1-.17 2-.32 3.01-.26.93.06 1.83.351 2.7.651 1.81.63 3.6 1.189 5.49 1.519 2.13.36 4.31.551 6.47.511 1.08-.02 2.14-.15 3.21-.25 1.06-.1 2.13-.181 3.18-.371.31-.06.2-.479-.07-.509l.01-.021Z" fill="#0C0C0C"/><path d="M463.29 319.63c0 .81-6.51 17.91 2.17 23.87l41.51-.27s8.68-.81 7.6-8.14 2.71-10.31 0-13.02c-2.71-2.71-51.27-2.44-51.27-2.44h-.01Z" fill="#78BFEA"/><path d="M513.64 340.929c-.67.38-1.32.76-2.05 1.02-.67.24-1.35.41-2.05.55-1.43.28-2.92.46-4.38.54-3.22.18-6.46-.1-9.68-.21-7.38-.25-14.78-.23-22.16.16-1.99.1-4 .32-5.98.02-1.63-.25-3.36-.84-4.34-2.26-.17-.24-.51-.04-.39.23.62 1.34 1.71 2.33 3.05 2.93 1.62.72 3.43.74 5.17.68 3.85-.14 7.69-.31 11.54-.36 3.86-.05 7.73-.02 11.59.09 3.45.1 6.91.39 10.37.28 1.77-.06 3.55-.21 5.22-.81 1.54-.56 3.14-1.37 4.33-2.51.17-.17-.05-.45-.25-.33l.01-.02Z" fill="#0C0C0C"/><path d="M791.13 416.75s-6.66 0-6.34 4.75c.32 4.75 2.22 4.75 9.19 5.39 6.97.64 18.7.32 16.48-5.07-2.22-5.39-13.63-5.39-19.33-5.07ZM811.41 429.11s12.99-5.07 15.53 1.27v2.54s-4.12.63-6.66 1.58c-2.54.95-10.14-1.9-8.87-5.39ZM748.02 437.51c.3-.4 4.12-4.6 17.27-4.28 13.15.32 24.88.95 31.53.95 6.65 0 13.31-1.11 14.42 13.31 0 0-.95 7.13-.32 9.98.63 2.85 2.22 9.98-7.29 12.99s-34.23 2.69-42.47 1.74c-8.24-.95-11.88 1.11-13.31-6.81-1.43-7.92-3.17-23.45.16-27.89l.01.01Z" fill="#78BFEA"/><path d="M808.14 469.22c-3.92 1.03-7.98 1.5-12.01 1.87-4.06.37-8.13.44-12.2.39-4.07-.05-8.15-.23-12.22-.3-3.94-.07-7.85.06-11.79.17-1.95.06-3.93.08-5.87-.2-1.93-.28-3.86-.7-5.45-1.91-.13-.1-.31.13-.18.23 1.29 1.06 2.69 1.91 4.27 2.47 1.66.59 3.47.76 5.22.84 1.79.08 3.58.01 5.37-.01 2.1-.03 4.21-.02 6.31.03 8.36.17 16.76.8 25.11.11 2.32-.19 4.63-.52 6.9-1 2.28-.48 4.51-1.24 6.69-2.07.37-.14.23-.71-.17-.61l.02-.01Z" fill="#0C0C0C"/><path d="M269.28 597.13s-6.66 0-6.34 4.75c.32 4.75 2.22 4.75 9.19 5.39 6.97.64 18.7.32 16.48-5.07-2.22-5.39-13.63-5.39-19.33-5.07ZM289.56 609.49s12.99-5.07 15.53 1.27v2.54s-4.12.63-6.66 1.58c-2.54.95-10.14-1.9-8.87-5.39ZM226.18 617.89c.3-.4 4.12-4.6 17.27-4.28 13.15.32 24.88.95 31.53.95 6.65 0 13.31-1.11 14.42 13.31 0 0-.95 7.13-.32 9.98.63 2.85 2.22 9.98-7.29 12.99s-34.23 2.69-42.47 1.74c-8.24-.95-11.88 1.11-13.31-6.81-1.43-7.92-3.17-23.45.16-27.89l.01.01Z" fill="#78BFEA"/><path d="M286.29 649.61c-3.92 1.03-7.98 1.5-12.01 1.87-4.06.37-8.13.44-12.2.39-4.07-.05-8.15-.23-12.22-.3-3.94-.07-7.85.06-11.79.17-1.95.06-3.93.08-5.87-.2-1.93-.28-3.86-.7-5.45-1.91-.13-.1-.31.13-.18.23 1.29 1.06 2.69 1.91 4.27 2.47 1.66.59 3.47.76 5.22.84 1.79.08 3.58.01 5.37-.01 2.1-.03 4.21-.02 6.31.03 8.36.17 16.76.8 25.11.11 2.32-.19 4.63-.52 6.9-1 2.28-.48 4.51-1.24 6.69-2.07.37-.14.23-.71-.17-.61l.02-.01Z" fill="#0C0C0C"/><path d="M1114.65 475.64s-6.71 4.27-5.79 14.94c.92 10.67-4.27 20.73 7.93 22.25 12.19 1.52 30.18-4.57 33.84-2.74 3.66 1.83 32.31 9.45 30.18-13.41-2.13-22.86 2.74-17.38-13.72-21.64-16.46-4.27-46.64.3-52.43.61l-.01-.01ZM1097.54 521.39s-.81 4.94 2.85 4.6c3.66-.34 1.49-1.87 11.03.04 9.54 1.92 11.54-6.86 2.64-8.09-8.9-1.23-14.01 1.15-16.69 3.49" fill="#78BFEA"/><path d="M1171.41 512.4c-1.05-.11-2.12-.12-3.18-.17-1.03-.05-2.05-.15-3.08-.21-2.08-.12-4.15-.19-6.22-.44-2.04-.24-4.06-.68-6.01-1.33-2-.67-3.93-1.44-6.09-1.33-2.15.11-4.3.65-6.42 1.03-2.19.4-4.38.8-6.58 1.2-2.19.4-4.38.8-6.58 1.2-2.15.39-4.31.86-6.49 1.04-2.15.18-4.34.11-6.37-.69-1.81-.71-3.44-2.05-4.2-3.87-.05-.11-.23-.08-.19.05.9 3.31 4.17 5.37 7.42 5.85 2.21.33 4.41.09 6.61-.25 2.26-.35 4.52-.77 6.77-1.16 4.54-.79 9.08-1.58 13.62-2.36 1.12-.19 2.25-.36 3.38-.29 1.04.06 2.06.39 3.04.73 2.03.71 4.04 1.34 6.17 1.71 2.4.41 4.84.62 7.27.57 1.21-.02 2.4-.17 3.61-.29 1.19-.11 2.39-.2 3.57-.42.35-.06.22-.54-.08-.57h.03Z" fill="#0C0C0C"/><path d="M1049.84 438.37c0 .91-7.32 20.12 2.44 26.83l46.64-.3s9.75-.91 8.54-9.15c-1.22-8.23 3.05-11.58 0-14.63-3.05-3.05-57.61-2.74-57.61-2.74l-.01-.01Z" fill="#78BFEA"/><path d="M1106.41 462.3c-.75.43-1.49.86-2.3 1.15-.75.27-1.52.47-2.3.62-1.61.31-3.28.51-4.92.6-3.62.2-7.26-.11-10.87-.23-8.29-.28-16.61-.25-24.9.17-2.23.12-4.5.36-6.72.02-1.83-.28-3.77-.95-4.87-2.54-.19-.27-.58-.04-.44.26.7 1.5 1.93 2.61 3.43 3.29 1.82.81 3.85.83 5.81.76 4.32-.15 8.64-.35 12.97-.41 4.34-.06 8.68-.02 13.02.1 3.88.11 7.77.44 11.65.32 1.99-.06 3.98-.23 5.86-.91 1.73-.63 3.52-1.54 4.87-2.82.2-.19-.05-.5-.29-.37v-.01Z" fill="#0C0C0C"/><path d="M739.08 604.02s-6.71 4.27-5.79 14.94c.92 10.67-4.27 20.73 7.93 22.25 12.19 1.52 30.18-4.57 33.84-2.74 3.66 1.83 32.31 9.45 30.18-13.41-2.13-22.86 2.74-17.38-13.72-21.64-16.46-4.27-46.64.3-52.43.61l-.01-.01ZM721.97 649.76s-.81 4.94 2.85 4.6c3.66-.34 1.49-1.87 11.03.04 9.54 1.92 11.54-6.86 2.64-8.09-8.9-1.23-14.01 1.15-16.69 3.49" fill="#78BFEA"/><path d="M795.84 640.781c-1.05-.11-2.12-.12-3.18-.17-1.03-.05-2.05-.15-3.08-.21-2.08-.12-4.15-.19-6.22-.44-2.04-.24-4.06-.68-6.01-1.33-2-.67-3.93-1.44-6.09-1.33-2.15.11-4.3.65-6.42 1.03-2.19.4-4.38.8-6.58 1.2-2.19.4-4.38.8-6.58 1.2-2.15.39-4.31.86-6.49 1.04-2.15.18-4.34.11-6.37-.69-1.81-.71-3.44-2.05-4.2-3.87-.05-.11-.23-.08-.19.05.9 3.31 4.17 5.37 7.42 5.85 2.21.33 4.41.09 6.61-.25 2.26-.35 4.52-.77 6.77-1.16 4.54-.79 9.08-1.58 13.62-2.36 1.12-.19 2.25-.36 3.38-.29 1.04.06 2.06.39 3.04.73 2.03.71 4.04 1.34 6.17 1.71 2.4.41 4.84.62 7.27.57 1.21-.02 2.4-.17 3.61-.29 1.19-.11 2.39-.2 3.57-.42.35-.06.22-.54-.08-.57h.03Z" fill="#0C0C0C"/><path d="M1056.85 27.3s-10.09.57-9.09 27.84c0 0 1.7 16.62 32.96 9.94 0 0 4.97-7.39 6.82 0 0 0 34.52 1.7 39.07 1.14 4.55-.56 12.36-4.26 7.1-27.7 0 0-2.42-11.08-27.84-11.51-25.42-.43-47.59-.71-49.01.28l-.01.01ZM1004.57 52.16s-7.53 5.26 2.42 7.67 17.76-.14 14.63-6.25c-3.13-6.11-12.22-.43-17.05-1.42Z" fill="#78BFEA"/><path d="M1016.22 72.05s2.7 1.28 8.81 1.85c6.11.57 18.89 3.84 21.88-2.84 2.99-6.68-1.14-7.25-14.21-9.8-13.07-2.56-19.18 3.55-16.48 10.8v-.01ZM1136.26 30s6.96-3.41 11.65-1.42c0 0 3.41 2.7.57 3.55-2.84.85-5.54.57-7.53 1.42-1.99.85-5.97-1.28-4.69-3.55Z" fill="#78BFEA"/><path d="M1128.97 65.53c-1.55.06-3.1.15-4.65.1-.71-.02-1.4-.13-2.11-.13-.78 0-1.55.01-2.33.02-3.03.04-6.06.04-9.09-.02-1.48-.03-2.96-.06-4.44-.13-1.56-.07-3.1-.22-4.65-.35-2.99-.25-5.98-.36-8.97-.56-.74-.05-1.48-.1-2.21-.16-.64-.05-1.41 0-2.01-.25-.44-.19-.64-.67-.88-1.05-.32-.5-.7-.93-1.24-1.19-1.15-.53-2.4-.04-3.43.53-1.06.59-2.02 1.29-3.17 1.72-2.39.91-4.97 1.11-7.5 1.22-2.85.12-5.7.23-8.55.07-5.27-.3-11.47-2.05-14.24-6.99-.06-.11-.22-.01-.17.1 2.1 4.37 6.47 6.98 11.12 7.88 2.89.55 5.83.6 8.76.54 2.7-.06 5.43-.1 8.09-.57 1.22-.22 2.42-.55 3.56-1.04 1.17-.5 2.17-1.28 3.32-1.83.43-.2 1-.44 1.48-.26s.7.72.96 1.12c.32.49.7.9 1.24 1.15.64.28 1.34.31 2.03.36 3.02.24 6.05.45 9.07.58 3.1.13 6.2 0 9.3.05 3.45.04 6.91.04 10.36-.02 1.63-.02 3.34.06 4.95-.23 1.77-.32 3.62-.28 5.41-.37.18 0 .18-.29 0-.29h-.01ZM1046.26 72.23c-1.59 1.16-3.49 1.74-5.43 2.02-1.95.28-3.9.38-5.87.31-2.3-.09-4.59-.34-6.88-.6-2.37-.26-4.75-.55-7.09-1-2.16-.41-5.08-1.56-4.96-4.22 0-.11-.16-.11-.17 0-.21 2.04 1.17 3.9 2.94 4.77 1.04.51 2.18.77 3.31.98 1.3.25 2.61.44 3.92.62 2.6.37 5.22.66 7.85.83 2.13.13 4.32.18 6.43-.21 2.33-.43 4.51-1.53 6.26-3.12.2-.18-.07-.55-.3-.39l-.01.01Z" fill="#0C0C0C"/><path d="M225.39 743.57c-.95-1.13-2.49-1.44-3.85-1.79-3.31-.85-6.73-1.4-10.12-.71-.49.1-1.02.24-1.56.41-2.37.13-4.9.86-5.43 3.07-.16.68-.01 1.41.32 2.01-.32.07-.69.15-.73.16-1.64.3-3.18.77-4.7 1.48-1.3.61-2.89 1.6-2.45 3.3.42 1.61 2.42 2.05 3.81 2.44 2.84.79 5.86 1.07 8.79.84 2.95-.23 5.82-.92 8.54-2.08 2.58-1.1 5.5-2.77 7.24-5.02.95-1.22 1.18-2.87.14-4.12v.01ZM356.28 737.81c-.33-1.57-1.48-2.9-2.72-3.85-2.51-1.93-5.72-2.44-8.78-2.85-8.12-1.1-16.3-1.76-24.5-1.79-4.13-.02-8.26.11-12.37.42-3.66.27-7.51.58-10.43 3.04-.18.15-.34.33-.51.5-1.03.7-1.83 1.66-2.16 3.02-.18.72-.2 1.5-.02 2.23.1.41.28.79.47 1.16.05.1.17.38.29.63-.4.07-.81.13-1.21.18-1.03.13-2.06.22-3.1.3-3.78.29-7.57.27-11.33.76-2.98.39-8.3.83-9.4 4.3-1.18 3.71 3.27 6.17 5.96 7.5 6.55 3.22 13.95 4.04 21.14 4.56 7.85.56 15.84.44 23.53-1.35 2.74-.64 6.13-1.94 6.79-5.04.18-.86-.04-1.63-.02-2.48.01-.49.09-.58.53-.78 1.34-.6 3.1-.41 4.53-.51 4-.28 7.99-.85 11.91-1.69 3.28-.71 6.9-1.41 9.49-3.7 1.3-1.15 2.28-2.76 1.91-4.54v-.02ZM1021.14 747.58c-.21-.99-.93-1.83-1.71-2.43-1.58-1.22-3.6-1.54-5.53-1.8-5.12-.69-10.27-1.11-15.43-1.13-2.6-.01-5.2.07-7.79.26-2.31.17-4.73.36-6.57 1.92-.12.1-.22.21-.32.32-.65.44-1.15 1.05-1.36 1.9-.11.45-.13.95-.01 1.4.06.26.18.5.3.73.03.06.11.24.18.39-.25.04-.51.08-.76.11-.65.08-1.3.14-1.95.19-2.38.18-4.77.17-7.14.48-1.88.24-5.23.53-5.92 2.71-.74 2.33 2.06 3.89 3.75 4.72 4.13 2.03 8.79 2.55 13.32 2.87 4.94.36 9.98.28 14.82-.85 1.73-.4 3.86-1.22 4.28-3.17.12-.54-.03-1.03 0-1.56 0-.31.05-.37.34-.49.85-.38 1.96-.26 2.85-.32 2.52-.18 5.03-.53 7.5-1.07 2.07-.45 4.34-.89 5.98-2.33.82-.72 1.44-1.74 1.2-2.86l-.03.01ZM441.08 746.541c-1.02-3.05-4.47-4.26-7.24-5.2-3.08-1.05-6.33-1.5-9.56-.97-.23.04-.47.09-.7.14-1.68.18-3.34.54-4.87 1.11-3.82 1.42-1.38 5.44.51 7.37 4.57 4.67 11.27 5.06 17.31 3.7 1.35-.31 2.77-.75 3.72-1.82 1.05-1.17 1.32-2.85.82-4.33h.01ZM412.16 747.35a5.917 5.917 0 0 0-2.06-.699 4.631 4.631 0 0 0-3.03-.081c-.8.27-1.56.7-2.15 1.31-.89.94-1.49 2.32-.77 3.55.7 1.19 2.15 1.33 3.39 1.42 1.01.07 2.03-.03 3.03-.21 1.11-.2 2.46-.52 3.04-1.57.82-1.46-.18-2.99-1.46-3.72h.01ZM420.45 755.22c-.51-.41-.98-.7-1.61-.9-.44-.14-.93-.2-1.39-.22-.85-.04-1.74.12-2.54.38-1.15.36-2.26 1.02-2.62 2.25-.21.69-.13 1.4.25 2.01.21.34.49.6.83.8.47.28.95.27 1.47.19.22-.03.42-.15.58-.3.75.18 1.54.18 2.31.02 1.03-.21 2.04-.82 2.71-1.63.31-.37.56-.8.54-1.3-.02-.46-.17-1-.54-1.3h.01ZM431.06 757.72c-2.01-1.35-5.05-1.25-6.97.23-.25.15-.45.35-.61.59-.01.02-.02.03-.04.05 0 .01-.02.02-.03.04-.66.81-.51 2 .41 2.57 2.18 1.34 5.17 1.2 7.24-.29.54-.39.92-.9.92-1.6 0-.7-.37-1.23-.92-1.6v.01ZM481.46 737.47c-.92-1.53-2.26-2.78-3.91-3.47-1.42-.59-2.94-.69-4.46-.65-3.99-.38-7.98-.66-11.84.71-3.07 1.09-9.66 4.08-6.29 8.25 1.3 1.61 3.41 2.34 5.36 2.81 2.28.56 4.47 1.15 6.65 2.01 2.27.9 4.54 1.79 6.98 2.11 2.2.29 4.82.22 6.74-1.03 3.31-2.15 2.51-7.86.78-10.75l-.01.01ZM452.53 743.07c-.32-.33-.71-.63-1.12-.85-.42-.23-.88-.42-1.35-.51-.64-.12-1.2-.15-1.84-.02-.25.05-.49.17-.72.31-.81.3-1.47.97-1.75 1.81-.21.64-.09 1.39.25 1.96.3.52.78.91 1.28 1.23.83.54 1.8.8 2.78.88.5.04 1-.02 1.5-.1.69-.12 1.35-.52 1.71-1.13.72-1.22.18-2.65-.73-3.59l-.01.01ZM462.41 750.56l-.06-.09c-.04-.51-.36-.96-.89-1.12-.16-.05-.33-.09-.49-.14-.78-.44-1.72-.66-2.6-.7-1.06-.05-2.11.23-3.06.71-.16.08-.29.2-.42.34-.47.31-.86.75-1.03 1.31-.39 1.3.48 2.35 1.5 3.02 1.36.9 3.2 1.15 4.75.69.91-.27 1.87-.78 2.3-1.68.37-.76.37-1.58-.02-2.34h.02ZM473 754.57c-.01-.23-.08-.45-.21-.65a1.81 1.81 0 0 0-.63-.63c-.5-.37-1.23-.55-1.89-.48-.17-.03-.35-.04-.52-.03-.26.02-.53.05-.79.12-.26.07-.51.18-.76.29-.13.06-.26.13-.37.21-.22.16-.44.32-.63.52-.37.39-.53.87-.46 1.4.01.22.08.43.2.62.15.25.35.45.6.6.33.24.74.41 1.13.5.39.1.83.16 1.23.12.27-.02.55-.06.81-.12.27-.06.52-.18.78-.29.38-.17.72-.43 1.03-.71.22-.22.37-.47.45-.77.07-.23.08-.46.03-.7ZM538.59 743.94c-.92-1.53-2.26-2.78-3.91-3.47-1.42-.59-2.94-.69-4.46-.65-3.99-.38-7.98-.66-11.84.71-3.07 1.09-9.66 4.08-6.29 8.25 1.3 1.61 3.41 2.34 5.36 2.81 2.28.56 4.47 1.15 6.65 2.01 2.27.9 4.54 1.79 6.98 2.11 2.2.29 4.82.22 6.74-1.03 3.31-2.15 2.51-7.86.78-10.75l-.01.01ZM509.66 749.54c-.32-.33-.71-.63-1.12-.85-.42-.23-.88-.42-1.35-.51-.64-.12-1.2-.15-1.84-.02-.25.05-.49.17-.72.31-.81.3-1.47.97-1.75 1.81-.21.64-.09 1.39.25 1.96.3.52.78.91 1.28 1.23.83.54 1.8.8 2.78.88.5.04 1-.02 1.5-.1.69-.12 1.35-.52 1.71-1.13.72-1.22.18-2.65-.73-3.59l-.01.01ZM519.54 757.03l-.06-.09c-.04-.51-.36-.96-.89-1.12-.16-.05-.33-.09-.49-.14-.78-.44-1.72-.66-2.6-.7-1.06-.05-2.11.23-3.06.71-.16.08-.29.2-.42.34-.47.31-.86.75-1.03 1.31-.39 1.3.48 2.35 1.5 3.02 1.36.9 3.2 1.15 4.75.69.91-.27 1.87-.78 2.3-1.68.37-.76.37-1.58-.02-2.34h.02ZM530.14 761.04c-.01-.23-.08-.45-.21-.65a1.81 1.81 0 0 0-.63-.63c-.5-.37-1.23-.55-1.89-.48-.17-.03-.35-.04-.52-.03-.26.02-.53.05-.79.12-.26.07-.51.18-.76.29-.13.06-.26.13-.37.21-.22.16-.44.32-.63.52-.37.39-.53.87-.46 1.4.01.22.08.43.2.62.15.25.35.45.6.6.33.24.74.41 1.13.5.39.1.83.16 1.23.12.27-.02.55-.06.81-.12.27-.06.52-.18.78-.29.38-.17.72-.43 1.03-.71.22-.22.37-.47.45-.77.07-.23.08-.46.03-.7ZM584.08 738.69c-.92-1.53-2.26-2.78-3.91-3.47-1.42-.59-2.94-.69-4.46-.65-3.99-.38-7.98-.66-11.84.71-3.07 1.09-9.66 4.08-6.29 8.25 1.3 1.61 3.41 2.34 5.36 2.81 2.28.56 4.47 1.15 6.65 2.01 2.27.9 4.54 1.79 6.98 2.11 2.2.29 4.82.22 6.74-1.03 3.31-2.15 2.51-7.86.78-10.75l-.01.01ZM555.15 744.29c-.32-.33-.71-.63-1.12-.85-.42-.23-.88-.42-1.35-.51-.64-.12-1.2-.15-1.84-.02-.25.05-.49.17-.72.31-.81.3-1.47.97-1.75 1.81-.21.64-.09 1.39.25 1.96.3.52.78.91 1.28 1.23.83.54 1.8.8 2.78.88.5.04 1-.02 1.5-.1.69-.12 1.35-.52 1.71-1.13.72-1.22.18-2.65-.73-3.59l-.01.01ZM565.03 751.779l-.06-.09c-.04-.51-.36-.96-.89-1.12-.16-.05-.33-.09-.49-.14-.78-.44-1.72-.66-2.6-.7-1.06-.05-2.11.23-3.06.71-.16.08-.29.2-.42.34-.47.31-.86.75-1.03 1.31-.39 1.3.48 2.35 1.5 3.02 1.36.9 3.2 1.15 4.75.69.91-.27 1.87-.78 2.3-1.68.37-.76.37-1.58-.02-2.34h.02ZM575.62 755.789c-.01-.23-.08-.45-.21-.65a1.81 1.81 0 0 0-.63-.63c-.5-.37-1.23-.55-1.89-.48-.17-.03-.35-.04-.52-.03-.26.02-.53.05-.79.12-.26.07-.51.18-.76.29-.13.06-.26.13-.37.21-.22.16-.44.32-.63.52-.37.39-.53.87-.46 1.4.01.22.08.43.2.62.15.25.35.45.6.6.33.24.74.41 1.13.5.39.1.83.16 1.23.12.27-.02.55-.06.81-.12.27-.06.52-.18.78-.29.38-.17.72-.43 1.03-.71.22-.22.37-.47.45-.77.07-.23.08-.46.03-.7ZM651.55 750.76c-.92-1.53-2.26-2.78-3.91-3.47-1.42-.59-2.94-.69-4.46-.65-3.99-.38-7.98-.66-11.84.71-3.07 1.09-9.66 4.08-6.29 8.25 1.3 1.61 3.41 2.34 5.36 2.81 2.28.56 4.47 1.15 6.65 2.01 2.27.9 4.54 1.79 6.98 2.11 2.2.29 4.82.22 6.74-1.03 3.31-2.15 2.51-7.86.78-10.75l-.01.01ZM622.62 756.36c-.32-.33-.71-.63-1.12-.85-.42-.23-.88-.42-1.35-.51-.64-.12-1.2-.15-1.84-.02-.25.05-.49.17-.72.31-.81.3-1.47.97-1.75 1.81-.21.64-.09 1.39.25 1.96.3.52.78.91 1.28 1.23.83.54 1.8.8 2.78.88.5.04 1-.02 1.5-.1.69-.12 1.35-.52 1.71-1.13.72-1.22.18-2.65-.73-3.59l-.01.01ZM632.5 763.851l-.06-.09c-.04-.51-.36-.96-.89-1.12-.16-.05-.33-.09-.49-.14-.78-.44-1.72-.66-2.6-.7-1.06-.05-2.11.23-3.06.71-.16.08-.29.2-.42.34-.47.31-.86.75-1.03 1.31-.39 1.3.48 2.35 1.5 3.02 1.36.9 3.2 1.15 4.75.69.91-.27 1.87-.78 2.3-1.68.37-.76.37-1.58-.02-2.34h.02ZM643.1 767.85c-.01-.23-.08-.45-.21-.65a1.81 1.81 0 0 0-.63-.63c-.5-.37-1.23-.55-1.89-.48-.17-.03-.35-.04-.52-.03-.26.02-.53.05-.79.12-.26.07-.51.18-.76.29-.13.06-.26.13-.37.21-.22.16-.44.32-.63.52-.37.39-.53.87-.46 1.4.01.22.08.43.2.62.15.25.35.45.6.6.33.24.74.41 1.13.5.39.1.83.16 1.23.12.27-.02.55-.06.81-.12.27-.06.52-.18.78-.29.38-.17.72-.43 1.03-.71.22-.22.37-.47.45-.77.07-.23.08-.46.03-.7ZM718.43 743.94c-.92-1.53-2.26-2.78-3.91-3.47-1.42-.59-2.94-.69-4.46-.65-3.99-.38-7.98-.66-11.84.71-3.07 1.09-9.66 4.08-6.29 8.25 1.3 1.61 3.41 2.34 5.36 2.81 2.28.56 4.47 1.15 6.65 2.01 2.27.9 4.54 1.79 6.98 2.11 2.2.29 4.82.22 6.74-1.03 3.31-2.15 2.51-7.86.78-10.75l-.01.01ZM689.5 749.54c-.32-.33-.71-.63-1.12-.85-.42-.23-.88-.42-1.35-.51-.64-.12-1.2-.15-1.84-.02-.25.05-.49.17-.72.31-.81.3-1.47.97-1.75 1.81-.21.64-.09 1.39.25 1.96.3.52.78.91 1.28 1.23.83.54 1.8.8 2.78.88.5.04 1-.02 1.5-.1.69-.12 1.35-.52 1.71-1.13.72-1.22.18-2.65-.73-3.59l-.01.01ZM699.38 757.03l-.06-.09c-.04-.51-.36-.96-.89-1.12-.16-.05-.33-.09-.49-.14-.78-.44-1.72-.66-2.6-.7-1.06-.05-2.11.23-3.06.71-.16.08-.29.2-.42.34-.47.31-.86.75-1.03 1.31-.39 1.3.48 2.35 1.5 3.02 1.36.9 3.2 1.15 4.75.69.91-.27 1.87-.78 2.3-1.68.37-.76.37-1.58-.02-2.34h.02ZM709.97 761.04c-.01-.23-.08-.45-.21-.65a1.81 1.81 0 0 0-.63-.63c-.5-.37-1.23-.55-1.89-.48-.17-.03-.35-.04-.52-.03-.26.02-.53.05-.79.12-.26.07-.51.18-.76.29-.13.06-.26.13-.37.21-.22.16-.44.32-.63.52-.37.39-.53.87-.46 1.4.01.22.08.43.2.62.15.25.35.45.6.6.33.24.74.41 1.13.5.39.1.83.16 1.23.12.27-.02.55-.06.81-.12.27-.06.52-.18.78-.29.38-.17.72-.43 1.03-.71.22-.22.37-.47.45-.77.07-.23.08-.46.03-.7ZM763.92 738.69c-.92-1.53-2.26-2.78-3.91-3.47-1.42-.59-2.94-.69-4.46-.65-3.99-.38-7.98-.66-11.84.71-3.07 1.09-9.66 4.08-6.29 8.25 1.3 1.61 3.41 2.34 5.36 2.81 2.28.56 4.47 1.15 6.65 2.01 2.27.9 4.54 1.79 6.98 2.11 2.2.29 4.82.22 6.74-1.03 3.31-2.15 2.51-7.86.78-10.75l-.01.01ZM734.99 744.29c-.32-.33-.71-.63-1.12-.85-.42-.23-.88-.42-1.35-.51-.64-.12-1.2-.15-1.84-.02-.25.05-.49.17-.72.31-.81.3-1.47.97-1.75 1.81-.21.64-.09 1.39.25 1.96.3.52.78.91 1.28 1.23.83.54 1.8.8 2.78.88.5.04 1-.02 1.5-.1.69-.12 1.35-.52 1.71-1.13.72-1.22.18-2.65-.73-3.59l-.01.01ZM744.87 751.779l-.06-.09c-.04-.51-.36-.96-.89-1.12-.16-.05-.33-.09-.49-.14-.78-.44-1.72-.66-2.6-.7-1.06-.05-2.11.23-3.06.71-.16.08-.29.2-.42.34-.47.31-.86.75-1.03 1.31-.39 1.3.48 2.35 1.5 3.02 1.36.9 3.2 1.15 4.75.69.91-.27 1.87-.78 2.3-1.68.37-.76.37-1.58-.02-2.34h.02ZM755.46 755.789c-.01-.23-.08-.45-.21-.65a1.81 1.81 0 0 0-.63-.63c-.5-.37-1.23-.55-1.89-.48-.17-.03-.35-.04-.52-.03-.26.02-.53.05-.79.12-.26.07-.51.18-.76.29-.13.06-.26.13-.37.21-.22.16-.44.32-.63.52-.37.39-.53.87-.46 1.4.01.22.08.43.2.62.15.25.35.45.6.6.33.24.74.41 1.13.5.39.1.83.16 1.23.12.27-.02.55-.06.81-.12.27-.06.52-.18.78-.29.38-.17.72-.43 1.03-.71.22-.22.37-.47.45-.77.07-.23.08-.46.03-.7ZM831.39 750.76c-.92-1.53-2.26-2.78-3.91-3.47-1.42-.59-2.94-.69-4.46-.65-3.99-.38-7.98-.66-11.84.71-3.07 1.09-9.66 4.08-6.29 8.25 1.3 1.61 3.41 2.34 5.36 2.81 2.28.56 4.47 1.15 6.65 2.01 2.27.9 4.54 1.79 6.98 2.11 2.2.29 4.82.22 6.74-1.03 3.31-2.15 2.51-7.86.78-10.75l-.01.01ZM802.46 756.36c-.32-.33-.71-.63-1.12-.85-.42-.23-.88-.42-1.35-.51-.64-.12-1.2-.15-1.84-.02-.25.05-.49.17-.72.31-.81.3-1.47.97-1.75 1.81-.21.64-.09 1.39.25 1.96.3.52.78.91 1.28 1.23.83.54 1.8.8 2.78.88.5.04 1-.02 1.5-.1.69-.12 1.35-.52 1.71-1.13.72-1.22.18-2.65-.73-3.59l-.01.01ZM812.34 763.851l-.06-.09c-.04-.51-.36-.96-.89-1.12-.16-.05-.33-.09-.49-.14-.78-.44-1.72-.66-2.6-.7-1.06-.05-2.11.23-3.06.71-.16.08-.29.2-.42.34-.47.31-.86.75-1.03 1.31-.39 1.3.48 2.35 1.5 3.02 1.36.9 3.2 1.15 4.75.69.91-.27 1.87-.78 2.3-1.68.37-.76.37-1.58-.02-2.34h.02ZM822.93 767.85c-.01-.23-.08-.45-.21-.65a1.81 1.81 0 0 0-.63-.63c-.5-.37-1.23-.55-1.89-.48-.17-.03-.35-.04-.52-.03-.26.02-.53.05-.79.12-.26.07-.51.18-.76.29-.13.06-.26.13-.37.21-.22.16-.44.32-.63.52-.37.39-.53.87-.46 1.4.01.22.08.43.2.62.15.25.35.45.6.6.33.24.74.41 1.13.5.39.1.83.16 1.23.12.27-.02.55-.06.81-.12.27-.06.52-.18.78-.29.38-.17.72-.43 1.03-.71.22-.22.37-.47.45-.77.07-.23.08-.46.03-.7ZM944.17 746.31c-1.63-2.38-4.57-3.69-7.18-4.68-4.35-1.65-9.01-1.91-13.5-1.09-4.45-.08-9.02 1.08-11.17 5.19-.69 1.31-1.17 2.81-.42 4.22.66 1.24 2.05 1.77 3.27 2.27 2.93 1.2 6.09 1.72 9.17 2.38 5.8 1.24 13.37 4.02 18.49-.37 2.31-1.98 3.12-5.31 1.34-7.91v-.01ZM910.17 760.331c-1.98-1.43-4.4-2.25-6.81-2.57-1.38-.19-2.69-.19-4.07.03-1.11.18-2.06.89-2.49 1.92-.56 1.33-.08 2.97 1.21 3.69.06.03.12.04.18.07.75.66 1.73 1.06 2.66 1.4.8.3 1.63.5 2.48.62 2.1.31 4.14.21 6.22-.28 1.02-.24 1.77-1.21 1.91-2.21.15-1.12-.38-2.01-1.27-2.65l-.02-.02ZM1160.17 749.71c-.33-1.57-1.48-2.9-2.72-3.85-2.51-1.93-5.72-2.44-8.78-2.85-8.12-1.1-16.3-1.76-24.5-1.79-4.13-.02-8.26.11-12.37.42-3.66.27-7.51.58-10.43 3.04-.18.15-.34.33-.51.5-1.03.7-1.83 1.66-2.16 3.02-.18.72-.2 1.5-.02 2.23.1.41.28.79.47 1.16.05.1.17.38.29.63-.4.07-.81.13-1.21.18-1.03.13-2.06.22-3.1.3-3.78.29-7.57.27-11.33.76-2.98.39-8.3.83-9.4 4.3-1.18 3.71 3.27 6.17 5.96 7.5 6.55 3.22 13.95 4.04 21.14 4.56 7.85.56 15.84.44 23.53-1.35 2.74-.64 6.13-1.94 6.79-5.04.18-.86-.04-1.63-.02-2.48.01-.49.09-.58.53-.78 1.34-.6 3.1-.41 4.53-.51 4-.28 7.99-.85 11.91-1.69 3.28-.71 6.9-1.41 9.49-3.7 1.3-1.15 2.28-2.76 1.91-4.54v-.02Z" fill="#FED062"/><path d="M1115.85 674.041c-2.69 2.93-4.86 71.9-2.22 74.8 7.96 8.73 37.49 4.61 40.81-.59 3.32-5.2 6.55-74.4 2.77-77.63-3.78-3.23-31.72-7.09-41.37 3.41l.01.01Z" fill="#EF7D3E"/><path d="M1115.85 674.04c-.72 3.88 17.76 7.33 26.26 5.87 8.5-1.45 16.6-3.86 15.11-9.29-1.49-5.42-39.9-4.47-41.37 3.41v.01Z" fill="#fff"/><path d="M1129.71 656.99s-.53 14.26-.03 16.03c.5 1.77 13.39 2.6 15.14.72 0 0 .5-15.74.05-16.75-1.37-3.1-12.62-3.56-15.17 0h.01Z" fill="#FED062"/><path d="M1129.71 656.99c-.08 2.72 15.44 3.99 15.17 0-.27-4-15.03-4.57-15.17 0Z" fill="#D83331"/><path d="M1156.9 706c-.77-4.9-2.53-10.97-7.57-13.03-4.84-1.98-10.68-.28-14.62 2.86-4.9 3.9-6.92 9.73-6.8 15.87.09 4.33 1.09 8.96 3.79 12.37 2.38 4 6.16 6.84 11.42 6.77 12.1-.16 15.28-15.31 13.78-24.84Zm-10.9 21.16c-3.39 1.14-6.89.28-9.45-2.04-.03-.31-.16-.61-.45-.84-.64-.54-1.19-1.15-1.69-1.78-2.02-3.21-2.83-7.19-2.75-10.93.11-4.78 1.89-9.75 5.31-13.16.58-.57 1.23-1.09 1.92-1.54 1.77-.93 3.73-1.5 5.75-1.56 2.15-.06 4.24.56 5.72 2.19 1.42 1.57 2.15 3.69 2.71 5.69 1.28 4.55 1.35 9.42.25 14.02-.98 4.09-3.04 8.51-7.32 9.95Z" fill="#FED062"/><path d="M1132.87 738.12c-1.83.02-3.66 0-5.49-.07-1.55-.06-3.14-.1-4.69-.28-.15-.1-.31-.18-.48-.24-.34-.12-.7-.08-1.02.06a4.57 4.57 0 0 1-.36-.07c-.6-.13-1.19-.34-1.79-.11-.69.27-1.15.93-1 1.68.13.64.71 1.24 1.4 1.22.03.01.1.03.23.06.16.05.33.09.49.14.25.07.49.13.74.18.23.05.45.09.68.14l.13.03c.31.06.63.11.94.15 1.15.16 2.3.26 3.46.32 2.3.12 4.61.04 6.91-.04 2.04-.07 1.88-3.19-.16-3.16l.01-.01ZM1133.37 744.86c-.04-.88-.8-1.53-1.66-1.51-1.92.04-3.86-.01-5.77-.21-1.98-.21-3.93-.61-5.9-.9-1.84-.27-2.38 2.23-.63 2.8 1.96.64 4.04.94 6.08 1.16 2.12.23 4.24.35 6.37.32.86 0 1.55-.83 1.51-1.66Z" fill="#D83331"/><path d="M1142.89 664.61c-.02-.07-.05-.15-.07-.22 0-.02-.01-.05-.02-.08-.21-.75-.64-1.43-1.18-1.98-.37-.38-.91-.45-1.37-.29h-.07c-.4.07-.83.32-.99.71-.14.35-.28.7-.32 1.08-.05.46-.05.85.03 1.3.08.43.21.8.4 1.2.08.17.18.33.3.48.07.19.16.37.27.52.17.23.33.39.56.56.3.22.69.37 1.07.34.78-.06 1.45-.61 1.58-1.4.12-.73 0-1.52-.19-2.23v.01Z" fill="#0C0C0C"/><path d="M1110.69 697.971c-.72 1.89-1.38 3.8-1.94 5.74-.5 1.74-.89 3.49-1.18 5.26.31 3.72 1.43 7.33 2.11 10.99.03-.54.05-1.09.08-1.63.07-1.5.11-3 .13-4.5.12-2.46.22-4.92.35-7.37l.45-8.49Z" fill="#EF7D3E"/><path d="M571.95 474.34c0 .91-7.32 20.12 2.44 26.83l46.64-.3s9.75-.91 8.54-9.15c-1.22-8.23 3.05-11.58 0-14.63-3.05-3.05-57.61-2.74-57.61-2.74l-.01-.01Z" fill="#78BFEA"/><path d="M628.52 498.26c-.75.43-1.49.86-2.3 1.15-.75.27-1.52.47-2.3.62-1.61.31-3.28.51-4.92.6-3.62.2-7.26-.11-10.87-.23-8.29-.28-16.61-.25-24.9.17-2.23.12-4.5.36-6.72.02-1.83-.28-3.77-.95-4.87-2.54-.19-.27-.58-.04-.44.26.7 1.5 1.93 2.61 3.43 3.29 1.82.81 3.85.83 5.81.76 4.32-.15 8.64-.35 12.97-.41 4.34-.06 8.68-.02 13.02.1 3.88.11 7.77.44 11.65.32 1.99-.06 3.98-.23 5.86-.91 1.73-.63 3.52-1.54 4.87-2.82.2-.19-.05-.5-.29-.37v-.01Z" fill="#0C0C0C"/><path d="M1121.56 283.14c0 .91-7.32 20.12 2.44 26.83l46.64-.3s9.75-.91 8.54-9.15c-1.22-8.23 3.05-11.58 0-14.63-3.05-3.05-57.61-2.74-57.61-2.74l-.01-.01Z" fill="#78BFEA"/><path d="M1178.13 307.07c-.75.43-1.49.86-2.3 1.15-.75.27-1.52.47-2.3.62-1.61.31-3.28.51-4.92.6-3.62.2-7.26-.11-10.87-.23-8.29-.28-16.61-.25-24.9.17-2.23.12-4.5.36-6.72.02-1.83-.28-3.77-.95-4.87-2.54-.19-.27-.58-.04-.44.26.7 1.5 1.93 2.61 3.43 3.29 1.82.81 3.85.83 5.81.76 4.32-.15 8.64-.35 12.97-.41 4.34-.06 8.68-.02 13.02.1 3.88.11 7.77.44 11.65.32 1.99-.06 3.98-.23 5.86-.91 1.73-.63 3.52-1.54 4.87-2.82.2-.19-.05-.5-.29-.37v-.01Z" fill="#0C0C0C"/><path d="M1036.64 594c0 .91-7.32 20.12 2.44 26.83l46.64-.3s9.75-.91 8.54-9.15c-1.22-8.23 3.05-11.58 0-14.63-3.05-3.05-57.61-2.74-57.61-2.74l-.01-.01Z" fill="#78BFEA"/><path d="M1093.21 617.93c-.75.43-1.49.86-2.3 1.15-.75.27-1.52.47-2.3.62-1.61.31-3.28.51-4.92.6-3.62.2-7.26-.11-10.87-.23-8.29-.28-16.61-.25-24.9.17-2.23.12-4.5.36-6.72.02-1.83-.28-3.77-.95-4.87-2.54-.19-.27-.58-.04-.44.26.7 1.5 1.93 2.61 3.43 3.29 1.82.81 3.85.83 5.81.76 4.32-.15 8.64-.35 12.97-.41 4.34-.06 8.68-.02 13.02.1 3.88.11 7.77.44 11.65.32 1.99-.06 3.98-.23 5.86-.91 1.73-.63 3.52-1.54 4.87-2.82.2-.19-.05-.5-.29-.37v-.01Z" fill="#0C0C0C"/></svg>