<svg xmlns="http://www.w3.org/2000/svg" width="1187" height="771" fill="none"><path fill="#EF7D3E" d="M1186.15 0H0v771h1186.15V0Z"/><mask id="a" width="1187" height="771" x="0" y="0" maskUnits="userSpaceOnUse" style="mask-type:luminance"><path fill="#fff" d="M1186.15 0H0v771h1186.15V0Z"/></mask><g mask="url(#a)"><path fill="#EF7D3E" d="M1186.15 0H0v771h1186.15V0Z"/></g><path fill="#395FAA" d="M926.752 574.632c1.947-.711 4.161-2.777 3.637-4.863-.543-2.165-3.42-2.362-5.357-1.957-2.145.455-4.231 1.245-6.297 1.957-2.649.919-5.288 1.858-7.897 2.886-4.429 1.73-8.936 3.589-13.058 5.892a7.78 7.78 0 0 0-1.769 1.364c-1.147.435-1.928 1.196-1.78 2.323.593 4.418 2.402 8.698 4.004 12.889a529.95 529.95 0 0 0 4.695 11.911 586.107 586.107 0 0 0 4.992 11.822c1.68 3.865 3.153 8.017 5.288 11.684 2.352 4.023 11.911.553 10.142-3.845-1.533-3.816-3.598-7.483-5.328-11.219a480.34 480.34 0 0 1-5.071-11.289c-.129-.286-.237-.573-.366-.86.277-.108.564-.217.84-.326a92.446 92.446 0 0 0 3.826-1.651 124.002 124.002 0 0 0 7.117-3.469c1.324-.702 2.748-1.611 3.262-3.005.326-.88.197-1.918-.505-2.619-.929-.939-2.51-1.108-3.785-.999-2.383.198-4.448 1.611-6.504 2.669-2.185 1.117-4.379 2.204-6.623 3.213l-.208.089c-.622-1.483-1.265-2.966-1.878-4.458-1.295-3.173-2.422-6.593-4.112-9.648 3.46-1.473 6.919-2.936 10.438-4.27 4.112-1.572 7.997-2.669 12.257-4.221h.04ZM238.694 30.573c1.947-.711 4.161-2.777 3.637-4.863-.543-2.165-3.42-2.362-5.357-1.957-2.145.455-4.231 1.245-6.297 1.957-2.649.92-5.288 1.858-7.898 2.886-4.428 1.73-8.935 3.588-13.057 5.892a7.772 7.772 0 0 0-1.769 1.364c-1.147.435-1.928 1.196-1.78 2.323.593 4.418 2.402 8.698 4.004 12.89a530.51 530.51 0 0 0 4.695 11.91 586.8 586.8 0 0 0 4.991 11.822c1.681 3.865 3.154 8.016 5.289 11.684 2.352 4.023 11.911.553 10.141-3.846-1.532-3.815-3.598-7.482-5.327-11.219a479.183 479.183 0 0 1-5.071-11.288c-.129-.286-.237-.573-.366-.86.277-.108.563-.217.84-.326a93.399 93.399 0 0 0 3.826-1.65 124.865 124.865 0 0 0 7.117-3.47c1.324-.702 2.747-1.611 3.261-3.005.327-.88.198-1.918-.504-2.62-.929-.939-2.51-1.107-3.785-.998-2.383.198-4.449 1.611-6.505 2.669-2.184 1.117-4.378 2.204-6.622 3.212l-.208.09c-.623-1.483-1.265-2.966-1.878-4.459-1.295-3.172-2.422-6.593-4.112-9.647 3.46-1.473 6.919-2.936 10.438-4.27 4.112-1.572 7.997-2.669 12.257-4.22h.04ZM1076.09 95.13c-6.46-.524-12.92-1.018-19.38-1.611-7.22-.662-15.09-2.214-22.23-.653-1 .218-2.05.584-2.59 1.444-.6.959-.08 1.285.24 2.154 1.13 3.035 9.16 3.213 12.06 3.559 2.86.336 5.72.623 8.59.899-.49 5.862-.74 11.743-1.34 17.595a312.65 312.65 0 0 1-2.77 20.214c-.12.672-.22 1.344-.37 2.007-.08.326-.43.949-.27.968-.95.386-2.94.376-3.75.406-2.6.089-4.94-.653-6.63-2.501-4.5-4.923-1.52-11.308-.36-16.755 1.05-4.873-7.76-3.538-9.01-.059-2.45 6.771-3.91 15.064 1.23 21.163 5.06 6.01 17.18 6.435 23.73 2.224 3.89-2.501 4.54-6.178 5.19-10.201.71-4.329 1.32-8.659 1.83-13.008.56-4.626 1.02-9.262 1.39-13.908.19-2.421.42-4.883.54-7.354 3.31.247 6.62.475 9.94.633 2.51.118 5.28-1.176 6.41-3.272 1.03-1.908-.09-3.776-2.43-3.964l-.02.02ZM260.351 304.169c-6.929-12.464-22.31-16.843-35.239-11.407-12.237 5.15-14.807 18.574-10.754 30.119 1.127 3.222 2.748 6.286 4.705 9.084 2.036 2.916 4.428 6.672 7.74 8.155 2.886 1.294 9.479-1.256 7.334-5.131-.89-1.611-2.372-2.767-3.638-4.102a51.886 51.886 0 0 1-2.906-3.351c-1.898-2.382-3.637-4.892-4.873-7.69-2.402-5.417-2.125-12.207 1.285-17.169 3.499-5.101 9.687-5.536 15.282-4.399 5.318 1.077 10.636 3.845 14.224 7.937 1.779 2.037 8.916 1.7 6.83-2.046h.01ZM665.393 592.375c-12.9 6.079-18.287 21.143-13.72 34.398 4.32 12.554 17.545 16.004 29.337 12.732 3.292-.91 6.455-2.323 9.381-4.082 3.044-1.839 6.949-3.974 8.649-7.177 1.483-2.787-.623-9.538-4.636-7.66-1.67.781-2.926 2.184-4.339 3.351a58.325 58.325 0 0 1-3.539 2.678c-2.501 1.74-5.13 3.302-7.997 4.35-5.565 2.026-12.316 1.304-17.041-2.422-4.863-3.835-4.873-10.033-3.37-15.539 1.433-5.229 4.537-10.349 8.866-13.67 2.145-1.641 2.284-8.778-1.591-6.959ZM357.022 507.397c-13.868-3.331-27.499 5.041-32.233 18.237-4.488 12.495 3.667 23.467 14.906 28.3 3.133 1.344 6.494 2.224 9.874 2.689 3.529.474 7.908 1.255 11.239-.178 2.906-1.246 5.496-7.829 1.186-8.877-1.789-.435-3.647-.128-5.486-.098a51.392 51.392 0 0 1-4.438-.129c-3.034-.208-6.059-.633-8.955-1.621-5.615-1.898-10.429-6.692-11.773-12.563-1.394-6.03 2.481-10.883 7.097-14.224 4.399-3.183 10.023-5.229 15.47-5.111 2.698.06 7.275-5.416 3.113-6.415v-.01ZM916.077 299.732c-12.9 6.079-18.287 21.143-13.72 34.398 4.319 12.554 17.545 16.004 29.337 12.732 3.292-.91 6.455-2.323 9.381-4.083 3.044-1.838 6.949-3.973 8.649-7.176 1.483-2.787-.623-9.539-4.636-7.66-1.671.78-2.926 2.184-4.339 3.35a57.93 57.93 0 0 1-3.539 2.679c-2.501 1.74-5.13 3.302-7.997 4.349-5.565 2.027-12.316 1.305-17.041-2.421-4.863-3.836-4.873-10.033-3.37-15.539 1.433-5.229 4.537-10.349 8.866-13.67 2.145-1.641 2.283-8.778-1.591-6.959ZM786.914 329.791c-1.591-7.008-7.354-12.455-13.453-15.806-7.275-4.003-17.179-6.889-25.482-5.397-.218.04-.455.099-.692.168-2.432-.543-5.358.248-4.755 2.58 2.323 8.936 4.409 17.882 7.137 26.718 1.314 4.251 2.679 8.481 4.161 12.673 1.443 4.062 2.61 8.757 4.794 12.474.317.534.791.899 1.335 1.166.099.05.207.099.306.149.02 0 .05.019.069.029 1.77.702 4.162.218 5.615-.761 11.1-7.463 24.385-18.879 20.965-33.973v-.02Zm-21.42 25.641c-.85-2.116-1.759-4.211-2.53-6.287-1.78-4.814-3.529-9.637-5.18-14.491-2.194-6.445-4.468-12.939-6.376-19.502 1.394.277 2.788.504 3.391.652a56.54 56.54 0 0 1 4.408 1.275c2.788.929 5.457 2.126 7.977 3.638 4.528 2.718 9.193 6.395 10.478 11.792 2.313 9.786-4.853 17.229-12.168 22.933v-.01ZM444.511 611.235c-2.056-6.889-8.165-11.931-14.481-14.866-7.532-3.509-17.604-5.724-25.789-3.687-.217.049-.445.128-.682.207-2.471-.385-5.328.603-4.566 2.887 2.915 8.757 5.594 17.545 8.896 26.174 1.591 4.152 3.232 8.283 5.001 12.366 1.71 3.963 3.183 8.56 5.615 12.128.346.514.85.85 1.413 1.068.109.049.208.089.317.128.029 0 .049.01.079.02 1.809.583 4.161-.059 5.545-1.137 10.576-8.184 23.071-20.461 18.652-35.298v.01Zm-19.65 27.015c-.989-2.056-2.037-4.083-2.946-6.109-2.096-4.685-4.161-9.38-6.138-14.115-2.62-6.287-5.318-12.613-7.661-19.028 1.414.178 2.817.316 3.43.415 1.512.267 3.005.593 4.488.979a40.441 40.441 0 0 1 8.204 3.094c4.695 2.411 9.608 5.772 11.239 11.07 2.965 9.618-3.697 17.516-10.616 23.694ZM1159.82 501.397c-2.35-.801-5.47.069-7.12 1.888-4.59 5.11-9.09 10.3-13.56 15.519-1.06-.82-2.15-1.591-3.16-2.402a454.015 454.015 0 0 1-5.81-4.764c-1.83-1.533-3.69-3.025-5.54-4.537-1.31-1.078-2.62-2.165-3.94-3.233-.41-.326-.81-.622-1.25-.909a8.733 8.733 0 0 0-1.37-.751c4.1-5.15 8.24-10.27 12.39-15.391 1.42-1.749-.36-3.568-2.09-4.062-2.22-.633-4.86-.05-6.39 1.69a584.113 584.113 0 0 0-24.7 30.237c-.92 1.206-1.84 2.412-2.75 3.618-1.23 1.631-2.85 3.558-2.01 5.703 1.16 2.966 5.44 1.967 7.51.653 2.09-1.345 3.46-3.687 4.93-5.635 2.5-3.311 5.06-6.563 7.62-9.825.14.148.27.306.41.455.9.949 1.83 1.868 2.76 2.787 1.89 1.849 3.8 3.667 5.78 5.427a460.23 460.23 0 0 0 5.7 4.992c1.59 1.364 3.19 2.925 4.96 4.161-3.81 4.557-7.61 9.124-11.36 13.72-1.61 1.977-2.05 5.881.74 7.077 3.08 1.315 6.22-1.334 7.96-3.469 4.94-6.02 9.88-12.03 14.86-18.01 2.4-2.876 4.8-5.753 7.18-8.639 3.16-3.835 6.71-7.532 9.54-11.615 1.26-1.828 1.07-3.864-1.29-4.675v-.01ZM98.194 590.319c-2.353-.801-5.476.069-7.117 1.888-4.596 5.11-9.094 10.3-13.562 15.519-1.058-.821-2.155-1.592-3.163-2.402a539.157 539.157 0 0 1-5.812-4.764c-1.829-1.533-3.687-3.025-5.536-4.538-1.314-1.077-2.619-2.164-3.944-3.232-.405-.326-.81-.623-1.245-.909a8.732 8.732 0 0 0-1.374-.751c4.102-5.15 8.244-10.271 12.395-15.391 1.414-1.749-.365-3.568-2.095-4.062-2.214-.633-4.863-.05-6.386 1.69a582.683 582.683 0 0 0-24.701 30.237 872.74 872.74 0 0 0-2.748 3.618c-1.236 1.631-2.857 3.558-2.017 5.703 1.167 2.966 5.447 1.967 7.513.653 2.095-1.345 3.46-3.687 4.932-5.635 2.5-3.311 5.061-6.563 7.621-9.825.139.148.267.306.405.455.9.949 1.83 1.868 2.758 2.787 1.898 1.849 3.806 3.667 5.783 5.427a463.489 463.489 0 0 0 5.703 4.992c1.592 1.364 3.193 2.925 4.962 4.161A1488.181 1488.181 0 0 0 59.2 629.66c-1.611 1.977-2.046 5.881.741 7.077 3.084 1.315 6.218-1.334 7.967-3.469 4.933-6.02 9.875-12.03 14.857-18.01 2.402-2.876 4.794-5.753 7.176-8.639 3.163-3.835 6.712-7.532 9.539-11.615 1.265-1.828 1.077-3.865-1.285-4.675v-.01ZM644.398 79.057c-.702 1.73-.376.91 0 0Z"/><path fill="#395FAA" d="M678.539 44.915c2.452 1.364-1.413-.82-1.799-1.028-1.067-.563-2.204-.978-3.351-1.383-1.818-.643-3.667-1.236-5.495-1.869-3.767-1.294-7.493-2.688-11.259-3.993-3.776-1.315-7.503-2.728-11.308-3.964-1.72-.563-3.41-1.215-5.14-1.77-2.244-.72-4.596-1.027-6.761-1.956-1.809-.781-4.824-.574-6.198.9-1.473 1.58-.049 3.064 1.552 3.795 1.453.662 2.728 1.918 4.122 2.728 1.147.662 2.352 1.246 3.539 1.849 1.591.81 3.163 1.67 4.794 2.421a305.823 305.823 0 0 0 7.384 3.223c-.169.365-.327.731-.495 1.107-.702 1.561-1.354 3.153-2.016 4.734-1.433 3.43-2.847 6.87-4.26 10.31a6761.672 6761.672 0 0 0-8.037 19.67c-.978 2.403 1.987 3.747 4.093 3.638 2.797-.148 5.486-1.799 6.484-4.24.198-.475.395-.97.474-1.147.346-.86.702-1.71 1.048-2.57.603-1.473 1.196-2.936 1.799-4.409 1.335-3.261 2.659-6.514 3.984-9.776 1.878-4.616 3.805-9.222 5.594-13.878 1.532.574 3.045 1.177 4.577 1.75 3.39 1.245 6.632 2.481 10.27 2.877 2.521.276 5.239-.416 6.89-2.313 1.364-1.572 1.571-3.52-.495-4.676l.01-.03ZM492.175 255.873c.128.979.247 1.848 0 0Z"/><path fill="#395FAA" d="M504.669 209.228c2.807-.04-1.631 0-2.076.01-1.206.049-2.392.247-3.588.474-1.898.356-3.796.761-5.693 1.127-3.915.761-7.839 1.423-11.743 2.165-3.924.741-7.859 1.393-11.773 2.224-1.769.375-3.558.652-5.328 1.038-2.303.504-4.497 1.413-6.84 1.69-1.957.227-4.468 1.917-4.912 3.875-.485 2.105 1.492 2.678 3.242 2.51 1.591-.148 3.321.297 4.932.297 1.325 0 2.659-.099 3.984-.168 1.789-.089 3.578-.129 5.357-.307a275.66 275.66 0 0 0 8.007-.899c.039.405.089.8.128 1.206.168 1.71.405 3.41.623 5.11.474 3.687.969 7.374 1.463 11.051.949 7.018 1.907 14.036 2.876 21.054.356 2.57 3.598 2.244 5.368 1.098 2.352-1.523 3.855-4.3 3.499-6.92-.07-.504-.139-1.038-.168-1.225-.129-.92-.247-1.839-.376-2.748-.217-1.572-.435-3.144-.642-4.715-.475-3.49-.959-6.979-1.444-10.458-.682-4.933-1.324-9.895-2.095-14.817 1.611-.267 3.222-.504 4.833-.781 3.559-.613 6.979-1.167 10.33-2.639 2.323-1.018 4.329-2.985 4.814-5.447.395-2.046-.396-3.835-2.768-3.795l-.01-.01ZM376.317 707.947c-4.132 5.93-8.036 12.039-11.881 18.187-.652-.632-1.315-1.265-1.947-1.908a157.461 157.461 0 0 1-5.852-6.207c-1.819-2.036-3.588-4.132-5.367-6.208-2.323-2.708-4.389-5.634-6.92-8.154-1.295-1.295-3.084-1.849-4.902-1.463-1.196.257-3.262 1.285-2.561 2.896 2.63 6.02 6.86 11.466 11.032 16.497a154.811 154.811 0 0 0 5.832 6.663 162.795 162.795 0 0 0 3.133 3.301c.781.801 1.641 1.799 2.58 2.57-4.705 7.7-9.351 15.44-14.125 23.061-1.285 2.056.118 4.26 2.362 4.547 2.649.336 5.377-1.285 6.732-3.48 9.874-15.993 20.145-31.798 29.485-48.108 1.859-3.242-5.94-4.587-7.601-2.194Z"/><path fill="#FED064" d="M1129.01 211.155c0 .06-.02.119-.03.178-.05.722-.08 1.147.03-.178Z"/><path fill="#FED064" d="M1163.93 197.228c-5.46-7.601-11.45-14.788-16.77-22.517-4.9-7.117-8.99-16.3-16.92-20.481-2.1-1.107-5.42.81-6.65 2.402-2.84 3.667-3.47 7.987-3.65 12.494-.2 5.051-.3 10.102-.39 15.153-.08 4.834-.13 9.677-.13 14.511 0 4.932-.61 10.645.54 15.439.47 2.007 3.83 1.681 5.15 1.226 1.9-.672 3.6-2.046 3.87-4.132.04-.583.1-1.364.11-1.571.05-1.414.04-2.837.05-4.261.02-2.293 0-4.596 0-6.889 0-1.819.02-3.628.03-5.447.18-.069.34-.138.52-.207l2.88-1.157c1.89-.761 3.77-1.561 5.64-2.342 1.08-.445 2.15-.9 3.23-1.345.48-.207.99-.385 1.5-.583 1.27 1.779 2.56 3.559 3.87 5.318 2.74 3.677 5.42 7.601 8.59 10.923 3.38 3.548 11.49-2.452 8.54-6.534h-.01Zm-32.39-11.97c-.78.355-1.56.721-2.33 1.077 0-.712 0-1.433.01-2.145.06-4.636.15-9.262.28-13.898.01-.919 0-1.957-.02-3.034 3.52 4.566 6.32 9.884 9.45 14.52.02.02.03.04.05.069-2.48 1.127-4.96 2.264-7.43 3.401l-.01.01Z"/><path fill="#fff" d="M640.454 425.533c0 .059-.02.118-.03.178-.049.721-.079 1.146.03-.178Z"/><path fill="#fff" d="M675.366 411.605c-5.466-7.601-11.456-14.787-16.774-22.517-4.903-7.117-8.985-16.3-16.923-20.481-2.095-1.107-5.416.811-6.642 2.402-2.847 3.667-3.469 7.987-3.657 12.494-.198 5.051-.297 10.102-.386 15.153a888.596 888.596 0 0 0-.128 14.511c0 4.932-.613 10.646.534 15.44.474 2.006 3.835 1.68 5.149 1.226 1.908-.673 3.608-2.047 3.875-4.132.04-.583.099-1.364.109-1.572.049-1.413.039-2.837.049-4.26.02-2.293 0-4.597 0-6.89 0-1.819.02-3.627.03-5.446.178-.069.346-.139.524-.208l2.876-1.156c1.888-.761 3.766-1.562 5.644-2.343 1.078-.445 2.145-.899 3.223-1.344.484-.208.998-.386 1.502-.583a331.652 331.652 0 0 0 3.875 5.318c2.738 3.677 5.417 7.601 8.59 10.922 3.38 3.549 11.486-2.451 8.54-6.534h-.01Zm-32.382-11.98c-.781.356-1.562.722-2.333 1.078 0-.712 0-1.434.01-2.145.06-4.636.149-9.262.277-13.898.02-.919 0-1.957-.02-3.035 3.529 4.567 6.326 9.885 9.46 14.521.02.02.03.039.049.069a1804.09 1804.09 0 0 0-7.433 3.4l-.01.01Z"/><path fill="#FED064" d="M106.902 278.133c-.059.01-.119.01-.178.029-.702.178-1.117.287.178-.029Z"/><path fill="#FED064" d="M131.198 306.818c5.466-7.601 10.379-15.568 16.013-23.061 5.19-6.909 12.603-13.7 14.046-22.557.386-2.342-2.491-4.873-4.388-5.535-4.379-1.532-8.669-.751-13.009.504-4.853 1.414-9.677 2.926-14.49 4.448a860.295 860.295 0 0 0-13.799 4.498c-4.676 1.571-10.29 2.807-14.471 5.417-1.75 1.087-.376 4.171.474 5.268 1.246 1.601 3.084 2.768 5.15 2.362.573-.148 1.324-.336 1.522-.395 1.364-.405 2.709-.87 4.053-1.315 2.184-.711 4.349-1.462 6.534-2.184 1.72-.573 3.449-1.127 5.169-1.7l.366.425c.672.791 1.344 1.571 2.007 2.362 1.324 1.552 2.678 3.074 4.023 4.606l2.303 2.63c.346.395.682.82 1.028 1.235a296.33 296.33 0 0 0-3.806 5.358c-2.619 3.756-5.486 7.552-7.631 11.614-2.293 4.34 5.971 10.112 8.906 6.03v-.01Zm1.068-34.517a254.53 254.53 0 0 0-1.77-1.868c.682-.218 1.355-.455 2.037-.672a1198.24 1198.24 0 0 1 13.255-4.162c.88-.267 1.848-.623 2.866-.988-3.212 4.794-7.364 9.133-10.764 13.591-.02.02-.03.04-.049.069-1.859-1.996-3.727-3.983-5.585-5.97h.01Z"/><path fill="#fff" d="M605.274 700.869c-.029-.05-.049-.109-.069-.158-.366-.623-.583-.989.069.158Z"/><path fill="#fff" d="M584.487 732.193c8.827 3.133 17.842 5.634 26.609 8.965 8.086 3.064 16.666 8.293 25.572 7.206 2.352-.287 3.993-3.756 4.102-5.753.247-4.636-1.69-8.54-4.112-12.356-2.708-4.27-5.506-8.481-8.313-12.682a829.32 829.32 0 0 0-8.155-12c-2.807-4.052-5.555-9.103-9.232-12.395-1.532-1.374-4.112.801-4.933 1.928-1.186 1.64-1.798 3.736-.83 5.604.297.504.692 1.177.811 1.354.761 1.196 1.591 2.353 2.382 3.529 1.295 1.898 2.609 3.776 3.924 5.664 1.038 1.493 2.046 2.995 3.074 4.498-.099.158-.207.316-.306.464-.573.86-1.137 1.73-1.71 2.59-1.117 1.7-2.204 3.43-3.302 5.14-.622.979-1.255 1.957-1.878 2.946-.286.444-.603.889-.909 1.334a359.17 359.17 0 0 0-6.208-2.165c-4.339-1.463-8.787-3.163-13.275-4.092-4.804-.988-8.046 8.55-3.311 10.231v-.01Zm33.449-8.59 1.305-2.224c.405.593.811 1.176 1.206 1.769 2.59 3.845 5.15 7.7 7.681 11.575.504.771 1.116 1.602 1.739 2.481-5.496-1.749-10.823-4.527-16.043-6.553-.029 0-.049-.02-.079-.03l4.182-7.028.009.01Z"/><path fill="#D93231" d="M1166.77 296.055c-2.03-2.995-5.52-5.19-8.6-6.9-1.99-1.097-4.04-2.076-6.17-2.847a32.57 32.57 0 0 0-2.67-.85c-.66-.178-1.26-.296-1.93-.375-1.92-.218-3.04-.158-5.01.286-1.36.307-2.94 1.305-2.41 2.946-.03.079 0 .158-.02.237-6.34 14.679-10.68 30.455-14.5 45.964-.56 2.273 2.25 3.084 3.87 2.718 2.35-.524 4.09-2.343 4.66-4.666-.63 2.58.31-1.255.43-1.71.21-.85.42-1.69.64-2.54.5-1.957 1.03-3.914 1.56-5.862.84-3.084 1.74-6.138 2.65-9.202 1.91.118 3.82.138 5.72.089.75 4.942 1.96 9.845 3.19 14.659 1.41 5.565 2.88 11.209 4.81 16.616.82 2.303 4.59 1.136 5.87.276 1.25-.83 3.04-3.024 2.03-4.606.04-.01.08-.029.12-.039-1.35-2.422-1.92-5.595-2.71-8.254-.76-2.56-1.49-5.12-2.19-7.7-1.03-3.865-1.78-7.898-2.86-11.792 3.91-.722 8.3-1.73 11.37-4.448 3.56-3.154 4.97-7.849 2.15-12.01v.01Zm-7.49 7.611c-1.27.563-3.43 1.176-5.27 1.621-3.93.949-7.94 1.374-11.97 1.344-.11-.039-.22-.089-.32-.128-.11-.04-.23-.05-.33-.079 1.49-4.577 3.05-9.144 4.46-13.74.18.079.37.158.55.237 1.88.88 3.7 1.918 5.46 3.025 1.72 1.077 3.41 2.244 5 3.529.72.583 1.36 1.235 1.92 1.986.52.683.89 1.305.97 1.869v.108c-.15.079-.3.149-.45.218l-.02.01ZM561.643 334.505c-2.026-2.995-5.515-5.189-8.599-6.899-1.987-1.097-4.043-2.076-6.168-2.847a32.167 32.167 0 0 0-2.669-.85 13.115 13.115 0 0 0-1.937-.376c-1.918-.217-3.035-.158-5.002.287-1.364.306-2.946 1.305-2.412 2.946-.03.079 0 .158-.02.237-6.346 14.679-10.685 30.454-14.5 45.963-.564 2.274 2.243 3.084 3.865 2.719 2.352-.524 4.092-2.343 4.665-4.666-.633 2.58.306-1.255.425-1.71.208-.85.425-1.69.643-2.54a397.575 397.575 0 0 1 1.561-5.862c.841-3.084 1.74-6.138 2.649-9.202 1.908.118 3.816.138 5.724.088.741 4.943 1.957 9.846 3.183 14.659 1.413 5.565 2.886 11.21 4.813 16.616.821 2.304 4.587 1.137 5.872.277 1.245-.83 3.034-3.025 2.026-4.606.04-.01.079-.03.119-.04-1.345-2.421-1.918-5.594-2.709-8.253-.761-2.56-1.492-5.12-2.184-7.7-1.038-3.865-1.789-7.898-2.867-11.793 3.915-.721 8.303-1.73 11.368-4.448 3.568-3.153 4.972-7.848 2.154-12.01v.01Zm-7.492 7.621c-1.265.564-3.43 1.177-5.269 1.621-3.924.949-7.937 1.374-11.97 1.345-.109-.04-.217-.089-.316-.129-.109-.039-.227-.049-.336-.079 1.492-4.576 3.054-9.143 4.468-13.739.178.079.365.158.543.237 1.878.879 3.707 1.917 5.466 3.024 1.72 1.078 3.411 2.244 4.992 3.529a11.134 11.134 0 0 1 1.928 1.987c.514.682.889 1.305.968 1.868v.109c-.148.079-.306.148-.454.217l-.02.01Z"/><path fill="#FED064" d="M556.108 100.339c1.948-.712 4.162-2.778 3.638-4.863-.544-2.165-3.42-2.363-5.358-1.957-2.145.454-4.23 1.245-6.296 1.957-2.649.919-5.288 1.858-7.898 2.886-4.428 1.73-8.936 3.588-13.057 5.891a7.79 7.79 0 0 0-1.77 1.364c-1.146.435-1.927 1.196-1.779 2.323.593 4.419 2.402 8.699 4.003 12.89a536.702 536.702 0 0 0 4.695 11.911 596.937 596.937 0 0 0 4.992 11.822c1.681 3.865 3.153 8.016 5.288 11.683 2.353 4.023 11.911.554 10.142-3.845-1.532-3.815-3.598-7.483-5.328-11.219a482.55 482.55 0 0 1-5.071-11.288c-.128-.287-.237-.573-.365-.86.276-.109.563-.218.84-.326a93.183 93.183 0 0 0 3.825-1.651 124.015 124.015 0 0 0 7.117-3.47c1.325-.701 2.748-1.611 3.262-3.004.326-.88.198-1.918-.504-2.62-.929-.939-2.511-1.107-3.786-.998-2.382.197-4.448 1.611-6.504 2.669-2.184 1.117-4.379 2.204-6.623 3.212l-.207.089c-.623-1.483-1.265-2.965-1.878-4.458-1.295-3.173-2.422-6.593-4.112-9.647 3.459-1.473 6.919-2.936 10.438-4.27 4.112-1.572 7.997-2.669 12.257-4.221h.039Z"/><path fill="#D93231" d="M179.633 391.569c1.7-.672 3.637-2.61 3.173-4.577-.475-2.036-2.985-2.224-4.666-1.838-1.868.425-3.697 1.166-5.486 1.838-2.313.86-4.616 1.75-6.889 2.709-3.865 1.631-7.789 3.37-11.387 5.535a7.261 7.261 0 0 0-1.542 1.275c-.999.405-1.681 1.117-1.552 2.185.514 4.151 2.095 8.184 3.489 12.118a492.982 492.982 0 0 0 4.102 11.19 597.743 597.743 0 0 0 4.359 11.12c1.463 3.627 2.748 7.542 4.616 10.982 2.056 3.775 10.389.523 8.847-3.618-1.334-3.578-3.133-7.028-4.646-10.547a523.368 523.368 0 0 1-4.418-10.606c-.109-.267-.208-.544-.316-.811.247-.099.494-.207.741-.306a85.58 85.58 0 0 0 3.341-1.552 106.623 106.623 0 0 0 6.208-3.262c1.156-.662 2.392-1.512 2.846-2.827.287-.83.168-1.799-.435-2.461-.81-.88-2.184-1.038-3.301-.939-2.076.187-3.885 1.512-5.674 2.51a118.687 118.687 0 0 1-5.772 3.025l-.178.089c-.544-1.394-1.107-2.787-1.631-4.191-1.127-2.985-2.116-6.198-3.579-9.064 3.015-1.384 6.04-2.758 9.104-4.013 3.588-1.473 6.979-2.501 10.685-3.964h-.039Z"/><path fill="#FED064" d="M332.36 444.482c-.899-2.363-4.112-1.948-5.763-1.127-9.064 4.537-18.128 9.074-27.192 13.601a561.941 561.941 0 0 1 7.907-28.557c1.167-3.815-3.558-4.25-5.663-3.242a435.335 435.335 0 0 1-26.56 11.664c1.828-3.984 3.706-7.947 5.683-11.842 3.064-6.039 6.583-11.802 9.569-17.871 1.759-3.578-5.862-4.27-7.444-1.849-7.65 11.714-13.828 24.939-19.502 37.928-1.601 3.677 3.47 4.151 5.358 3.459a415.196 415.196 0 0 0 27.657-11.318 556.107 556.107 0 0 0-7.621 28.774c-.91 3.836 3.459 4.32 5.723 3.193 11.575-5.782 23.159-11.535 34.744-17.298 1.74-.87 4.004-3.143 3.094-5.515h.01ZM797.836 731.313c-.899-2.363-4.112-1.948-5.762-1.127-9.064 4.537-18.129 9.074-27.193 13.601a561.95 561.95 0 0 1 7.908-28.557c1.166-3.815-3.559-4.25-5.664-3.242a435.335 435.335 0 0 1-26.56 11.664c1.829-3.984 3.707-7.947 5.684-11.842 3.064-6.039 6.583-11.802 9.568-17.871 1.759-3.578-5.862-4.27-7.443-1.849-7.651 11.714-13.829 24.939-19.502 37.928-1.602 3.677 3.469 4.151 5.357 3.459a415.196 415.196 0 0 0 27.657-11.318 557.157 557.157 0 0 0-7.621 28.775c-.909 3.835 3.46 4.319 5.723 3.192 11.575-5.782 23.16-11.535 34.745-17.298 1.739-.87 4.003-3.143 3.094-5.515h.009ZM1000.43 45.568c-1.531-2.017-4.496-.702-5.84.553-7.404 6.92-14.808 13.839-22.221 20.748a570.053 570.053 0 0 1-.514-29.634c.04-3.993-4.616-3.064-6.346-1.502a436.747 436.747 0 0 1-22.161 18.711c.623-4.339 1.305-8.669 2.095-12.968 1.226-6.663 2.966-13.186 4.112-19.858.673-3.925-6.83-2.432-7.66.336-4.013 13.403-6.188 27.835-7.947 41.9-.495 3.974 4.507 3.005 6.118 1.8a416.519 416.519 0 0 0 23.308-18.692c.03 9.904.297 19.828.85 29.752.218 3.934 4.547 3.163 6.395 1.434 9.46-8.827 18.939-17.625 28.419-26.442 1.422-1.324 2.942-4.151 1.402-6.168l-.01.03ZM151.926 675.119c2.521.198 3.529-2.876 3.49-4.725-.208-10.131-.425-20.263-.623-30.395a575.283 575.283 0 0 1 22.408 19.394c2.946 2.689 5.368-1.394 5.358-3.727a428.87 428.87 0 0 1 .86-29.001c2.817 3.361 5.584 6.751 8.253 10.211 4.142 5.357 7.839 11.001 12.04 16.309 2.471 3.124 6.365-3.469 4.863-5.93-7.305-11.941-16.596-23.19-25.898-33.885-2.629-3.025-5.239 1.354-5.426 3.361a421.984 421.984 0 0 0-1.641 29.832 565.173 565.173 0 0 0-22.725-19.226c-3.074-2.461-5.387 1.275-5.338 3.806.257 12.939.485 25.868.722 38.807.04 1.947 1.127 4.962 3.647 5.159l.01.01ZM650.239 206.262c-6.454-.524-12.919-1.018-19.373-1.611-7.226-.663-15.094-2.214-22.231-.653-1.008.218-2.056.584-2.59 1.444-.603.958-.089 1.285.238 2.154 1.126 3.035 9.163 3.213 12.059 3.559 2.856.336 5.723.623 8.59.899-.495 5.862-.742 11.743-1.345 17.595a309.872 309.872 0 0 1-2.767 20.214c-.119.672-.218 1.344-.366 2.007-.079.326-.435.948-.277.968-.949.386-2.936.376-3.746.406-2.6.088-4.943-.653-6.633-2.501-4.497-4.923-1.522-11.308-.356-16.755 1.048-4.873-7.759-3.538-9.014-.059-2.452 6.771-3.905 15.064 1.235 21.163 5.061 6.01 17.18 6.435 23.723 2.224 3.895-2.501 4.547-6.178 5.199-10.201a304.437 304.437 0 0 0 1.829-13.008 344.462 344.462 0 0 0 1.384-13.908c.188-2.421.425-4.883.544-7.354 3.311.247 6.622.475 9.944.633 2.5.118 5.278-1.177 6.405-3.272 1.028-1.908-.089-3.776-2.432-3.964l-.02.02Z"/><path fill="#D93231" d="M565.331 573.535c-6.455-.524-12.92-1.018-19.374-1.611-7.226-.663-15.094-2.214-22.231-.653-1.008.218-2.056.584-2.59 1.443-.603.959-.089 1.285.238 2.155 1.126 3.035 9.163 3.213 12.059 3.559 2.856.336 5.723.623 8.59.899-.495 5.862-.742 11.743-1.345 17.595a309.872 309.872 0 0 1-2.767 20.214c-.119.672-.218 1.344-.366 2.007-.079.326-.435.948-.277.968-.949.386-2.936.376-3.746.405-2.6.089-4.943-.652-6.633-2.5-4.497-4.923-1.522-11.308-.356-16.755 1.048-4.873-7.759-3.538-9.014-.059-2.452 6.771-3.905 15.064 1.235 21.163 5.061 6.01 17.18 6.435 23.723 2.224 3.895-2.501 4.547-6.178 5.2-10.201a306.033 306.033 0 0 0 1.828-13.008 344.462 344.462 0 0 0 1.384-13.908c.188-2.422.425-4.883.544-7.354 3.311.247 6.622.475 9.944.633 2.5.118 5.278-1.177 6.405-3.272 1.028-1.908-.089-3.776-2.432-3.964l-.019.02Z"/><path fill="#FED064" d="M1102.07 407.612c-3.39-6.573-12.25-4.833-17.93-2.916-1.72.583-3.4 1.246-5.05 1.997 1.75-3.262 3.33-6.593 4.58-10.073 1.74-4.833 4.46-12.385.89-17.07-4.76-6.257-15.11-1.483-20.63 1.136-6.51 3.094-13.18 7.424-18.03 12.801-.37.415-.6.791-.74 1.147-.93.622-1.62 1.571-1.05 2.688 4.37 8.57 8.98 16.883 14.08 25.058 2.44 3.914 4.92 7.809 7.46 11.654 1.27 1.907 2.54 3.815 3.83 5.703.63.929 1.25 1.868 1.92 2.768.94 1.245 1.97 1.403 3.45 1.68.1.02.23 0 .34.02 2.1.642 4.57-.682 6.02-2.056a126.598 126.598 0 0 0 15.15-17.219c3.37-4.606 8.81-11.308 5.71-17.328v.01Zm-49.61-11.061c4.1-2.945 7.68-6.207 12.2-8.599a67.635 67.635 0 0 1 3.4-1.671 81.68 81.68 0 0 1 6.71-2.698 8.713 8.713 0 0 1 1.79-.495c1.15.584.98 3.519.89 4.518-.82 9.864-6.95 19.69-12.47 27.785-4.14-6.306-8.31-12.573-12.52-18.83v-.01Zm34.31 28.972c-2.66 3.39-5.51 6.583-8.51 9.647-.29-.415-.6-.84-.9-1.275-1.27-1.868-2.54-3.736-3.8-5.614-1.58-2.363-3.16-4.735-4.73-7.097.73-.327 1.42-.742 1.96-1.196 2.63-2.175 22.55-15.45 23.22-7.335.37 4.468-4.73 9.648-7.25 12.87h.01ZM753.474 537.851c1.068-7.314-7.146-11.06-12.879-12.8a54.658 54.658 0 0 0-5.269-1.315c3.321-1.631 6.554-3.43 9.588-5.525 4.231-2.916 10.834-7.473 10.656-13.364-.237-7.859-11.427-10.004-17.436-11.081-7.098-1.275-15.035-1.631-22.112-.079a3.844 3.844 0 0 0-1.275.504c-1.117-.03-2.234.336-2.422 1.582-1.424 9.509-2.521 18.958-3.134 28.566a498.024 498.024 0 0 0-.711 13.829 825.48 825.48 0 0 0-.218 6.86c-.029 1.127-.069 2.253-.039 3.38.039 1.562.781 2.284 1.828 3.381.07.079.178.138.257.207 1.345 1.74 4.112 2.106 6.089 1.829a126.334 126.334 0 0 0 22.339-5.189c5.427-1.79 13.74-4.073 14.719-10.775l.019-.01Zm-33.894-37.858c5.041-.01 9.855-.583 14.926.099 1.255.168 2.501.386 3.736.623a82.47 82.47 0 0 1 7.028 1.71 8.912 8.912 0 0 1 1.74.633c.593 1.146-1.255 3.43-1.908 4.191-6.405 7.542-17.11 11.97-26.313 15.341.307-7.542.554-15.065.781-22.597h.01Zm11.041 43.532c-4.132 1.216-8.313 2.145-12.534 2.896 0-.514 0-1.028.01-1.561.05-2.264.099-4.518.168-6.771.089-2.837.188-5.684.287-8.521a8.333 8.333 0 0 0 2.293.168c3.401-.237 27.321.554 23.15 7.552-2.293 3.845-9.459 5.1-13.384 6.247l.01-.01ZM418.623 312.651c-3.38-6.574-12.247-4.834-17.921-2.916a54.285 54.285 0 0 0-5.051 1.996c1.75-3.262 3.332-6.593 4.577-10.072 1.74-4.834 4.458-12.385.89-17.071-4.765-6.257-15.114-1.482-20.63 1.137-6.514 3.094-13.176 7.423-18.029 12.801-.376.415-.603.79-.741 1.146-.93.623-1.622 1.572-1.048 2.689 4.369 8.57 8.975 16.883 14.075 25.057a530.77 530.77 0 0 0 7.463 11.654 584.127 584.127 0 0 0 3.826 5.704c.632.929 1.255 1.868 1.927 2.767.939 1.246 1.967 1.404 3.45 1.681.099.02.227 0 .336.02 2.105.642 4.567-.683 6.02-2.056a126.144 126.144 0 0 0 15.153-17.219c3.37-4.607 8.807-11.308 5.703-17.328v.01Zm-49.591-11.061c4.092-2.946 7.68-6.208 12.198-8.6a63.652 63.652 0 0 1 3.4-1.67 80.33 80.33 0 0 1 6.712-2.699 8.592 8.592 0 0 1 1.789-.494c1.146.583.978 3.519.889 4.517-.82 9.865-6.948 19.69-12.474 27.786a2218.253 2218.253 0 0 0-12.514-18.83v-.01Zm34.31 28.972c-2.659 3.39-5.516 6.583-8.511 9.647-.297-.415-.603-.84-.9-1.275-1.275-1.868-2.54-3.737-3.805-5.615-1.582-2.362-3.153-4.734-4.725-7.097a8.436 8.436 0 0 0 1.957-1.196c2.63-2.174 22.547-15.449 23.219-7.334.376 4.468-4.725 9.647-7.245 12.87h.01Z"/><path fill="#fff" d="M836.841 228.898c-3.38-6.574-12.247-4.834-17.921-2.916a54.285 54.285 0 0 0-5.051 1.996c1.75-3.261 3.332-6.593 4.577-10.072 1.74-4.834 4.458-12.385.89-17.071-4.765-6.257-15.114-1.482-20.63 1.137-6.513 3.094-13.176 7.423-18.029 12.801-.376.415-.603.79-.741 1.146-.93.623-1.622 1.572-1.048 2.689 4.369 8.57 8.975 16.883 14.075 25.057a530.77 530.77 0 0 0 7.463 11.654 584.127 584.127 0 0 0 3.826 5.704c.632.929 1.255 1.868 1.927 2.767.939 1.246 1.967 1.404 3.45 1.681.099.02.227 0 .336.02 2.105.642 4.567-.682 6.02-2.056a126.076 126.076 0 0 0 15.153-17.219c3.371-4.607 8.807-11.308 5.703-17.328v.01Zm-49.601-11.061c4.093-2.946 7.681-6.208 12.198-8.6a64.028 64.028 0 0 1 3.4-1.67 80.606 80.606 0 0 1 6.712-2.699 8.592 8.592 0 0 1 1.789-.494c1.147.583.979 3.519.89 4.517-.821 9.865-6.949 19.69-12.475 27.786a2210.215 2210.215 0 0 0-12.514-18.83v-.01Zm34.31 28.972c-2.659 3.39-5.516 6.583-8.511 9.647-.296-.415-.603-.84-.899-1.275a1061.49 1061.49 0 0 1-3.806-5.615c-1.581-2.362-3.153-4.734-4.725-7.097a8.436 8.436 0 0 0 1.957-1.196c2.63-2.174 22.547-15.449 23.219-7.334.376 4.468-4.724 9.647-7.245 12.87h.01ZM1149.48 732.944c1.84-7.156-5.93-11.753-11.43-14.105a53.288 53.288 0 0 0-5.11-1.868c3.47-1.266 6.88-2.709 10.13-4.468 4.51-2.452 11.57-6.277 12.02-12.148.6-7.839-10.3-11.16-16.16-12.87-6.91-2.027-14.77-3.223-21.97-2.432-.55.059-.98.188-1.31.366-1.11-.148-2.26.099-2.58 1.315-2.43 9.301-4.53 18.583-6.16 28.062-.78 4.547-1.52 9.104-2.18 13.67-.32 2.264-.64 4.537-.93 6.801-.15 1.117-.31 2.234-.41 3.351-.13 1.562.53 2.362 1.45 3.549.06.079.16.158.24.237 1.15 1.878 3.87 2.53 5.86 2.471 7.64-.227 15.29-1.166 22.77-2.778 5.58-1.196 14.09-2.589 15.78-9.143l-.01-.01Zm-29.67-41.248c5.01.524 9.86.474 14.83 1.69 1.22.306 2.44.642 3.65 1.018 2.31.712 4.57 1.532 6.81 2.442.59.217 1.14.484 1.66.81.48 1.196-1.61 3.272-2.34 3.964-7.18 6.82-18.29 10.072-27.79 12.454 1.1-7.462 2.15-14.925 3.18-22.388v.01Zm6.34 44.451c-4.24.761-8.49 1.245-12.77 1.542.06-.514.11-1.028.18-1.552.29-2.244.58-4.478.89-6.722.39-2.817.79-5.634 1.2-8.441a8.22 8.22 0 0 0 2.26.405c3.41.129 27.11 3.47 22.21 9.974-2.7 3.578-9.95 4.062-13.97 4.784v.01ZM1149.95 58.319c-2.41-7.354-8.82-12.484-15.35-15.321-7.79-3.38-18.09-5.23-26.29-2.57-.22.07-.44.158-.68.267-2.52-.277-5.37.949-4.5 3.38 3.36 9.331 6.48 18.712 10.22 27.885 1.8 4.418 3.66 8.797 5.64 13.127 1.92 4.2 3.63 9.103 6.24 12.84.38.533.9.87 1.49 1.077.11.05.21.09.32.119.03 0 .05.01.08.02 1.86.523 4.21-.297 5.57-1.533 10.33-9.46 22.42-23.456 17.25-39.291h.01Zm-18.66 30.366c-1.09-2.175-2.25-4.31-3.26-6.455-2.33-4.962-4.65-9.934-6.87-14.965-2.94-6.672-5.97-13.374-8.64-20.205 1.44.12 2.87.188 3.49.267 1.54.208 3.07.475 4.59.81 2.91.643 5.73 1.592 8.45 2.907 4.87 2.353 9.99 5.723 11.89 11.377 3.45 10.26-2.93 19.186-9.65 26.274v-.01Z"/><path fill="#FED064" d="M84.85 525.12c5.02-5.15 6.454-12.939 5.95-19.878-.603-8.283-3.568-18.168-9.321-24.316a8.395 8.395 0 0 0-.514-.494c-.87-2.343-3.124-4.359-4.745-2.59-6.237 6.81-12.613 13.423-18.543 20.51-2.857 3.411-5.664 6.86-8.373 10.389-2.629 3.42-5.93 6.949-7.868 10.804-.277.554-.326 1.157-.247 1.75.01.118.02.227.05.336 0 .029.01.049.02.079.375 1.868 2.085 3.608 3.686 4.29 12.297 5.258 29.1 10.191 39.914-.88h-.01Zm-33.163-4.033c1.314-1.858 2.58-3.766 3.904-5.545 3.074-4.112 6.168-8.204 9.35-12.227 4.221-5.348 8.432-10.785 12.9-15.954.524 1.324 1.097 2.609 1.305 3.202a56.391 56.391 0 0 1 1.325 4.399c.74 2.847 1.186 5.733 1.284 8.669.188 5.278-.365 11.199-4.2 15.202-6.96 7.266-17.1 5.299-25.869 2.254Z"/><path fill="#D93231" d="M1083.27 612.787c-1.77-.86-4.04-.059-5.71.573l-3.88 1.483c-2.59.988-5.19 1.967-7.78 2.955-2.97 1.127-5.93 2.284-8.89 3.43-1.15.445-2.3.949-3.46 1.443-1.9-5.594-3.84-11.179-5.74-16.784 1.74-.444 3.47-.949 5.19-1.433 2.28-.632 4.59-1.226 6.83-2.006 1.19-.416 2.44-1.276 3.21-2.284.56-.741 1.2-1.987.98-2.965-.55-2.521-3.26-2.412-5.23-1.878-2.53.682-5.02 1.571-7.51 2.402-1.88.632-3.75 1.275-5.61 1.947-1.74-5.041-3.54-10.082-5.16-15.153.11-.03.23-.059.34-.099 1.18-.336 2.35-.682 3.52-1.028a260.12 260.12 0 0 0 6.64-2.125c4.48-1.493 8.93-3.054 13.32-4.784 2.03-.801 4.52-3.114 4.03-5.546-.52-2.52-3.58-2.372-5.42-1.69-5.22 1.947-10.44 3.865-15.72 5.605-2.57.85-5.15 1.68-7.74 2.491-1.54.484-3.4 1.057-4.87 2.036-1.74.346-3.17 1.433-2.69 3.173 2.22 7.996 4.08 16.052 6.52 24 2.33 7.611 4.67 15.271 7.43 22.734.99 2.679 5.23 2.135 7.5.267 2.68-.731 5.38-1.987 7.17-2.639 3.08-1.127 6.17-2.244 9.25-3.39 2.62-.979 5.24-1.948 7.85-2.926 1.67-.623 3.47-1.167 4.94-2.195 1.79-1.255 3.38-4.28.67-5.585l.02-.029ZM90.77 745.172c-.702-1.997-3.044-3.045-4.794-3.786-1.364-.573-2.728-1.147-4.102-1.72-2.728-1.147-5.466-2.293-8.194-3.44a1129.541 1129.541 0 0 0-9.41-3.884c-1.216-.504-2.481-.959-3.737-1.434 2.827-5.812 5.605-11.644 8.432-17.466 1.67.949 3.38 1.829 5.05 2.719 2.225 1.186 4.449 2.441 6.752 3.489 1.226.563 2.837.8 4.201.583.998-.158 2.432-.672 3.015-1.611 1.502-2.392-.653-4.31-2.55-5.348-2.452-1.344-5.032-2.491-7.572-3.677a329.688 329.688 0 0 0-5.763-2.619c2.52-5.259 5.002-10.557 7.641-15.756.109.059.227.118.336.178 1.157.602 2.313 1.205 3.48 1.799 2.214 1.126 4.457 2.194 6.701 3.252 4.557 2.145 9.153 4.22 13.829 6.108 2.165.88 5.832.91 7.314-1.374 1.533-2.362-.919-4.517-2.846-5.337-5.467-2.333-10.923-4.696-16.29-7.256a703.912 703.912 0 0 1-7.809-3.776c-1.532-.761-3.41-1.69-5.268-2.006-1.602-1.018-3.52-1.226-4.478.494-4.419 7.928-9.153 15.657-13.354 23.713-4.033 7.72-8.086 15.48-11.684 23.397-1.295 2.837 2.362 5.555 5.526 5.773 2.6 1.403 5.624 2.421 7.492 3.232 3.212 1.404 6.425 2.807 9.657 4.191 2.748 1.176 5.486 2.343 8.234 3.519 1.75.751 3.539 1.651 5.457 1.927 2.322.346 5.851-.859 4.774-3.894l-.04.01ZM935.628 214.447c-.702-1.997-3.044-3.045-4.794-3.786-1.364-.573-2.728-1.147-4.102-1.72-2.728-1.147-5.466-2.293-8.194-3.44a1128.316 1128.316 0 0 0-9.411-3.884c-1.215-.505-2.481-.959-3.736-1.434 2.827-5.812 5.605-11.644 8.432-17.466 1.67.949 3.38 1.829 5.051 2.718 2.224 1.187 4.448 2.442 6.751 3.49 1.226.563 2.837.8 4.201.583.998-.158 2.431-.672 3.015-1.611 1.502-2.392-.653-4.31-2.551-5.348-2.451-1.344-5.031-2.491-7.571-3.677a329.38 329.38 0 0 0-5.763-2.619c2.521-5.259 5.002-10.557 7.641-15.756.109.059.227.118.336.177a379.44 379.44 0 0 0 3.479 1.799c2.215 1.127 4.458 2.195 6.702 3.253 4.557 2.144 9.153 4.22 13.829 6.108 2.164.88 5.832.91 7.314-1.374 1.532-2.362-.919-4.517-2.846-5.337-5.467-2.333-10.923-4.696-16.29-7.256a702.226 702.226 0 0 1-7.809-3.776c-1.532-.761-3.41-1.69-5.269-2.006-1.601-1.018-3.519-1.226-4.477.494-4.419 7.927-9.154 15.657-13.354 23.713-4.033 7.72-8.086 15.479-11.684 23.397-1.295 2.837 2.362 5.555 5.525 5.773 2.6 1.403 5.625 2.421 7.493 3.232 3.212 1.404 6.425 2.807 9.657 4.191 2.748 1.176 5.486 2.343 8.234 3.519 1.75.751 3.539 1.651 5.456 1.927 2.323.346 5.852-.86 4.775-3.894l-.04.01Z"/><path fill="#FED064" d="M578.299 518.735c-.702-1.997-3.044-3.045-4.794-3.786-1.364-.573-2.728-1.147-4.102-1.72-2.728-1.147-5.466-2.293-8.194-3.44a1142.347 1142.347 0 0 0-9.41-3.884c-1.216-.504-2.481-.959-3.737-1.434 2.827-5.812 5.605-11.644 8.432-17.466 1.67.949 3.38 1.829 5.051 2.719 2.224 1.186 4.448 2.441 6.751 3.489 1.226.563 2.837.8 4.201.583.998-.158 2.432-.672 3.015-1.611 1.502-2.392-.653-4.31-2.55-5.348-2.452-1.344-5.032-2.491-7.572-3.677a329.38 329.38 0 0 0-5.763-2.619c2.521-5.259 5.002-10.557 7.641-15.756.109.059.227.118.336.178 1.157.603 2.313 1.205 3.48 1.799 2.214 1.126 4.458 2.194 6.701 3.252 4.557 2.145 9.153 4.22 13.829 6.108 2.165.88 5.832.91 7.314-1.374 1.533-2.362-.919-4.517-2.846-5.337-5.466-2.333-10.923-4.696-16.29-7.256a684.96 684.96 0 0 1-7.809-3.776c-1.532-.761-3.41-1.69-5.268-2.006-1.602-1.018-3.519-1.226-4.478.494-4.419 7.928-9.153 15.657-13.354 23.713-4.033 7.72-8.086 15.48-11.684 23.397-1.295 2.837 2.362 5.555 5.526 5.773 2.599 1.403 5.624 2.421 7.492 3.232 3.213 1.404 6.425 2.807 9.657 4.191 2.748 1.176 5.486 2.343 8.234 3.519 1.75.751 3.539 1.651 5.457 1.927 2.322.346 5.851-.859 4.774-3.894l-.04.01Z"/><path fill="#D93231" d="M304.706 211.45c-.702-1.997-3.045-3.044-4.794-3.786-1.364-.573-2.729-1.146-4.103-1.72l-8.194-3.439c-3.133-1.315-6.267-2.6-9.41-3.885-1.216-.504-2.481-.959-3.736-1.433 2.827-5.812 5.604-11.644 8.431-17.466 1.671.948 3.381 1.828 5.051 2.718 2.224 1.186 4.448 2.441 6.751 3.489 1.226.564 2.837.801 4.201.583.999-.158 2.432-.672 3.015-1.611 1.503-2.392-.652-4.31-2.55-5.347-2.451-1.345-5.031-2.491-7.572-3.678a336.85 336.85 0 0 0-5.762-2.619c2.52-5.259 5.001-10.557 7.64-15.756.109.059.228.119.337.178 1.156.603 2.312 1.206 3.479 1.799 2.214 1.127 4.458 2.194 6.702 3.252 4.556 2.145 9.153 4.221 13.828 6.109 2.165.879 5.832.909 7.315-1.374 1.532-2.363-.919-4.518-2.847-5.338-5.466-2.333-10.922-4.695-16.29-7.255a729.506 729.506 0 0 1-7.809-3.776c-1.532-.761-3.41-1.691-5.268-2.007-1.601-1.018-3.519-1.226-4.478.494-4.418 7.928-9.153 15.658-13.354 23.714-4.033 7.719-8.086 15.479-11.684 23.396-1.294 2.837 2.363 5.556 5.526 5.773 2.6 1.404 5.624 2.422 7.492 3.232 3.213 1.404 6.425 2.808 9.658 4.191 2.748 1.177 5.486 2.343 8.234 3.519 1.749.752 3.538 1.651 5.456 1.928 2.323.346 5.852-.86 4.774-3.895l-.039.01Z"/><path fill="#fff" d="M368.933 41.683c-3.321-6.474-11.456-9.657-18.781-9.855-8.135-.217-16.497 2.55-23.475 6.336-5.941 3.233-11.328 7.869-13.009 14.313-1.69 6.465 1.078 13.285 5.19 18.445 4.972 6.247 12.178 10.073 18.662 14.728 2.036 1.463 6.03.208 7.641-1.196 4.527-3.934 9.005-7.917 13.542-11.842.879-.76 1.423-2.59.435-3.489-4.389-3.954-8.778-8.026-13.493-11.624-2.985-2.284-12.217 1.848-8.728 5.209 3.371 3.242 7.117 6.207 10.814 9.163-1.938 1.67-3.885 3.35-5.832 5.011-4.844-3.35-9.885-6.731-13.572-11.1-3.874-4.596-6.365-11.397-2.876-16.814 3.272-5.09 10.853-8.026 16.873-8.748 6.998-.83 12.474 1.295 17.832 5.279 2.688 1.996 10.942.415 8.777-3.816ZM472.781 436.781c-3.321-6.474-11.456-9.657-18.781-9.854-8.135-.218-16.497 2.55-23.476 6.336-5.94 3.232-11.328 7.868-13.008 14.312-1.69 6.465 1.077 13.285 5.189 18.445 4.972 6.247 12.178 10.073 18.663 14.728 2.036 1.463 6.029.208 7.64-1.196 4.528-3.934 9.005-7.917 13.542-11.842.88-.761 1.424-2.589.435-3.489-4.389-3.954-8.777-8.026-13.492-11.624-2.985-2.283-12.218 1.848-8.728 5.209 3.37 3.242 7.117 6.208 10.813 9.163-1.937 1.671-3.884 3.351-5.832 5.012-4.843-3.351-9.884-6.732-13.571-11.101-3.875-4.596-6.366-11.397-2.877-16.814 3.272-5.09 10.854-8.026 16.874-8.747 6.998-.831 12.474 1.294 17.831 5.278 2.689 1.997 10.943.415 8.778-3.816ZM1071.61 248.41c-3.32-6.474-11.46-9.657-18.78-9.855-8.14-.217-16.5 2.551-23.48 6.336-5.94 3.233-11.32 7.869-13 14.313-1.69 6.465 1.07 13.285 5.19 18.445 4.97 6.247 12.17 10.073 18.66 14.728 2.03 1.463 6.03.208 7.64-1.196 4.53-3.934 9-7.917 13.54-11.842.88-.761 1.42-2.589.44-3.489-4.39-3.954-8.78-8.026-13.5-11.624-2.98-2.284-12.21 1.848-8.73 5.209 3.38 3.242 7.12 6.208 10.82 9.163-1.94 1.671-3.89 3.351-5.83 5.012-4.85-3.351-9.89-6.732-13.58-11.101-3.87-4.596-6.36-11.397-2.87-16.814 3.27-5.09 10.85-8.026 16.87-8.748 7-.83 12.48 1.295 17.83 5.279 2.69 1.997 10.95.415 8.78-3.816ZM81.36 104.076c-2.382-.06-5.06 1.551-6.109 3.588-2.945 5.703-5.782 11.436-8.58 17.189-1.186-.415-2.401-.801-3.538-1.226-2.214-.83-4.409-1.68-6.603-2.56-2.086-.83-4.191-1.621-6.297-2.431-1.492-.574-2.985-1.167-4.487-1.73-.455-.168-.91-.316-1.384-.455a9.36 9.36 0 0 0-1.473-.277 2130.027 2130.027 0 0 1 7.532-16.754c.87-1.908-1.255-2.995-2.985-2.956-2.214.05-4.517 1.285-5.486 3.213A539.235 539.235 0 0 0 26.827 132.7c-.544 1.295-1.078 2.6-1.612 3.895-.721 1.759-1.73 3.875-.405 5.506 1.849 2.263 5.555.227 7.117-1.483 1.601-1.74 2.254-4.152 3.124-6.247 1.463-3.559 3.005-7.087 4.537-10.626.168.089.326.188.494.287 1.077.573 2.175 1.126 3.272 1.67a162.213 162.213 0 0 0 6.75 3.134 388.02 388.02 0 0 0 6.564 2.777c1.829.751 3.717 1.671 5.664 2.264a1378.871 1378.871 0 0 0-7.008 15.034c-.988 2.155-.386 5.674 2.5 5.941 3.194.306 5.408-2.857 6.485-5.19 3.025-6.583 6.06-13.156 9.143-19.709 1.483-3.154 2.966-6.307 4.429-9.47 1.947-4.191 4.28-8.382 5.851-12.692.702-1.937 0-3.647-2.392-3.707l.02-.009Z"/><path fill="#FED064" d="M1035.94 731.116c-6.74-13.038-14.09-25.898-21.62-38.491-.94-1.571-2.86-1.67-4.48-1.087-1.18.425-3.59 2.046-2.78 3.677 5.59 11.209 11.36 22.448 17.45 33.43-14.47-6.228-28.744-13.097-42.513-20.679-1.582-.87-3.816-.425-5.18.692-1.146.939-1.828 2.679-.277 3.628.04.029.089.049.129.079.988 4.24 4.369 8.421 6.751 12.029a464.787 464.787 0 0 0 7.295 10.725c2.451 3.489 4.992 6.919 7.572 10.32 1.285 1.7 2.583 3.38 3.893 5.061 1.39 1.779 2.29 3.509 4.74 3.607 1.97.089 6.38-2.065 5.52-4.715-1.3-4.032-5.04-7.512-7.62-10.853-2.61-3.39-5.169-6.82-7.7-10.26-1.69-2.293-3.331-4.626-4.982-6.949 11.682 6.504 23.622 12.504 35.932 17.871 2.02.88 4.29-.069 5.72-1.621.51-.543 1.13-1.65 1.31-2.698.98-1.127 1.48-2.511.84-3.756v-.01Z"/><path fill="#D93231" d="M503.285 26.955c-6.623-2.016-13.384.178-19.542 2.709-.959.395-2.076 1.097-2.511 2.026-4.774 2.748-8.926 6.692-12.118 11.268-3.094 4.439-5.229 9.707-4.715 15.193.415 4.428 2.738 8.788 6.296 11.486 8.679 6.593 21.865 1.255 29.19-5.021 7.245-6.208 12.405-15.4 12.385-25.117 0-6.07-3.054-10.725-9.005-12.544h.02ZM495.891 59.1a24.817 24.817 0 0 1-7.878 5.654c-2.906 1.325-6.672 2.471-9.667.82-6.781-3.726-5.911-13.146-2.728-18.88 4.092-7.363 12.879-14.658 21.786-14.114.286.059.573.089.859.178 3.5 1.037 5.16 3.963 5.22 7.502.098 6.998-2.847 13.78-7.582 18.84h-.01Z"/><path fill="#FED064" d="M275 746.348c1.551-7.403-1.394-14.579-4.636-21.074-.504-1.008-1.345-2.174-2.382-2.56-3.351-4.962-7.918-9.153-13.068-12.227-4.992-2.985-10.784-4.853-16.567-3.806-4.665.841-9.083 3.757-11.634 7.879-6.217 10.052.633 23.96 7.967 31.403 7.256 7.364 17.486 12.178 27.806 11.308 6.454-.544 11.12-4.27 12.514-10.923Zm-34.824-5.248a27.402 27.402 0 0 1-6.721-8.096c-1.661-3.054-3.233-7.067-1.74-10.477 3.351-7.72 13.443-7.602 19.819-4.636 8.194 3.815 16.744 12.761 16.962 22.527-.03.316-.05.642-.109.959-.791 3.914-3.746 5.98-7.503 6.345-7.423.722-14.896-1.888-20.708-6.622Z"/><path fill="#3960AA" d="M166.83 192.994c-3.124-3.252-6.742-6.128-10.073-9.163-2.352-2.135-4.695-4.29-7.028-6.435a52.068 52.068 0 0 0 8.768-11.723c2.402-4.388 4.774-9.321 3.479-14.431-1.077-4.27-5.278-7.018-9.38-7.888-5.199-1.097-10.409.484-14.946 2.995-2.57 1.423-4.922 3.272-7.186 5.14-2.303 1.898-4.725 3.934-6.652 6.217-.939 1.117-1.127 2.422-.227 3.341-.089.445.019.929.434 1.384 5.486 6.079 11.269 11.842 17.091 17.595 2.936 2.896 5.881 5.802 8.827 8.688 2.936 2.887 5.773 6.03 8.945 8.649 1.75 1.444 4.132 1.345 6.089.267 1.404-.781 3.43-3.015 1.869-4.646l-.01.01Zm-36.04-32.629c2.086-1.977 4.191-3.924 6.435-5.733 1.681-1.354 3.242-2.54 5.358-3.637-.04.039 1.136-.495 1.285-.554.247-.099.494-.178.741-.257.069-.01.198-.049.435-.109 0 0 .761-.128.909-.168.435-.029.88-.029 1.315 0 .059.03 1.008.178 1.137.208.079.02.662.207.761.227.84.336 1.572.751 2.095 1.226 3.49 3.193 1.562 8.086-.365 11.832-1.75 3.39-3.954 6.395-6.445 9.193a756.404 756.404 0 0 0-13.651-12.218l-.01-.01Z"/><path fill="#D93231" d="M892.759 715.784c-5.941-2.184-12.89-3.222-18.682-.089-3.46 1.869-5.822 4.676-7.117 7.967-2.867 4.023-2.956 9.776-1.503 14.491 1.552 5.031 4.35 9.509 8.086 13.226 7.631 7.601 20.036 11.496 30.682 9.954 5.456-.791 9.924-3.717 12.257-8.768 1.789-3.875 2.224-8.313 1.522-12.534 2.155-.435 4.31-.87 6.474-1.295 2.541-.504 5.486-.672 7.819-1.779.771-.366 1.255-1.838 1.325-2.57a6.802 6.802 0 0 0-.366-3.015c-.633-1.818-1.977-3.41-4.053-3.222-2.194.198-4.428.949-6.563 1.512a144.086 144.086 0 0 0-7.572 2.274c-.01 0-.029 0-.039.01-4.725-7.957-13.77-13.028-22.261-16.152l-.009-.01Zm9.687 20.521c-1.76.573-2.551 2.649-2.511 4.369.029 1.265.87 3.736 2.649 3.153 3.143-1.028 6.346-1.829 9.568-2.56.9 4.685-1.097 9.578-6.069 11.328-3.954 1.393-8.59.949-12.642.207-4.528-.83-9.084-2.54-12.89-5.15-3.459-2.372-6.544-5.614-8.441-9.36-.643-1.256-1.266-2.738-1.631-4.241.711-.88 1.018-2.214 1.008-3.232-.02-3.499 3.311-6.119 6.237-7.374 3.934-1.681 8.59-.979 12.544.257 6.247 1.947 13.492 5.377 18.079 10.557a253.73 253.73 0 0 1-5.901 2.046Z"/><path fill="#fff" d="M756.974 25.147c-5.941-2.185-12.89-3.223-18.682-.09-3.46 1.869-5.822 4.676-7.117 7.968-2.867 4.023-2.956 9.776-1.503 14.49 1.552 5.032 4.349 9.51 8.086 13.226 7.631 7.601 20.036 11.496 30.682 9.954 5.456-.79 9.924-3.717 12.257-8.768 1.789-3.874 2.224-8.313 1.522-12.533 2.155-.435 4.31-.87 6.474-1.295 2.541-.504 5.486-.672 7.819-1.78.771-.365 1.255-1.838 1.325-2.57a6.8 6.8 0 0 0-.366-3.014c-.633-1.82-1.977-3.41-4.053-3.223-2.194.198-4.428.95-6.563 1.513a144.56 144.56 0 0 0-7.572 2.273c-.01 0-.029 0-.039.01-4.725-7.957-13.77-13.028-22.261-16.151l-.009-.01Zm9.677 20.52c-1.76.573-2.551 2.65-2.511 4.37.03 1.264.87 3.735 2.649 3.152 3.143-1.028 6.346-1.828 9.568-2.56.9 4.685-1.097 9.578-6.069 11.328-3.954 1.394-8.59.949-12.642.207-4.527-.83-9.084-2.54-12.89-5.15-3.459-2.372-6.543-5.614-8.441-9.36-.643-1.256-1.266-2.738-1.631-4.24.711-.88 1.018-2.215 1.008-3.233-.02-3.5 3.311-6.118 6.237-7.374 3.934-1.68 8.59-.978 12.544.257 6.247 1.947 13.492 5.377 18.079 10.557a245.82 245.82 0 0 1-5.901 2.046Z"/><path fill="#D93231" d="M64.052 223.106c-.425-5.239-11.09-1.651-10.705 3.015.9 11.051 1.423 22.111 1.75 33.172-2.57-2.451-5.15-4.893-7.71-7.344-6.01-5.782-11.892-11.684-17.98-17.387-1.552-1.453-4.192-1.69-6.169-.929-1.789.682-2.846 2.244-1.561 3.845 5.397 6.741 11.09 13.216 16.942 19.601 5.634 6.148 11.397 12.376 17.624 18.01 3.005 2.718 9.756-.395 9.786-4.142.109-15.953-.672-31.927-1.957-47.831l-.02-.01ZM806.258 584.072c-.425-5.239-11.09-1.651-10.705 3.014.9 11.051 1.424 22.112 1.75 33.173-2.57-2.451-5.15-4.893-7.71-7.344-6.01-5.783-11.891-11.684-17.98-17.387-1.552-1.453-4.191-1.69-6.168-.929-1.789.682-2.847 2.243-1.562 3.845 5.397 6.741 11.09 13.216 16.942 19.601 5.634 6.148 11.397 12.376 17.624 18.01 3.005 2.718 9.757-.396 9.786-4.142.109-15.954-.672-31.927-1.957-47.832l-.02-.009ZM726.776 123.775c-.425-5.239-11.09-1.651-10.705 3.015.9 11.051 1.423 22.112 1.75 33.173-2.57-2.452-5.15-4.893-7.71-7.345-6.01-5.782-11.892-11.683-17.98-17.387-1.552-1.453-4.192-1.69-6.169-.929-1.789.682-2.846 2.244-1.561 3.845 5.397 6.742 11.09 13.216 16.942 19.602 5.634 6.148 11.397 12.375 17.624 18.009 3.005 2.719 9.756-.395 9.786-4.141.109-15.954-.672-31.928-1.957-47.832l-.02-.01ZM313.075 626.863c-1.878-7.562-12.573-7.74-18.702-6.207-6.306 1.571-16.793 6.731-14.411 14.886 1.927 6.583 9.064 10.003 12.889 15.311 1.493 2.076 2.521 5.101 1.977 7.671-.435 2.105-1.423 2.57-3.242 2.461-3.163-.188-6.346-1.671-9.015-3.302-3.212-1.967-5.387-4.863-8.214-7.265-1.315-1.127-3.973-.573-5.328.119-1.156.593-3.064 2.253-2.372 3.776 2.797 6.138 9.519 10.201 15.717 12.187 6.296 2.027 14.787 1.523 19.186-4.042 3.855-4.864 2.54-11.644-.969-16.29-1.908-2.531-4.379-4.577-6.741-6.672-2.037-1.819-5.407-4.429-5.496-7.443-.069-2.679 3.756-3.974 5.822-4.528 3.598-.968 7.987-1.166 11.298.732l.03.059c1.324 2.966 8.49 2.353 7.551-1.433l.02-.02ZM998.89 454.04c-1.878-7.562-12.574-7.74-18.702-6.208-6.306 1.572-16.794 6.732-14.412 14.887 1.928 6.583 9.064 10.003 12.89 15.311 1.492 2.076 2.52 5.1 1.977 7.67-.435 2.106-1.424 2.57-3.243 2.462-3.163-.188-6.345-1.671-9.014-3.302-3.213-1.967-5.387-4.863-8.214-7.265-1.315-1.127-3.974-.573-5.328.119-1.157.593-3.064 2.253-2.373 3.775 2.798 6.139 9.519 10.201 15.717 12.188 6.296 2.027 14.787 1.522 19.186-4.043 3.855-4.863 2.54-11.644-.969-16.289-1.907-2.531-4.379-4.577-6.741-6.673-2.036-1.818-5.407-4.428-5.496-7.443-.069-2.678 3.756-3.973 5.822-4.527 3.598-.969 7.987-1.166 11.298.732l.03.059c1.325 2.965 8.491 2.352 7.552-1.433l.02-.02ZM870.133 28.28c-6.149-4.784-14.669 1.67-18.544 6.662-3.993 5.13-9.054 15.667-2.145 20.6 5.585 3.993 13.305 2.273 19.591 4.092 2.462.712 5.13 2.461 6.287 4.814.949 1.927.465 2.896-1.038 3.944-2.609 1.809-6.02 2.61-9.133 2.965-3.747.435-7.246-.494-10.943-.642-1.729-.07-3.479 1.996-4.121 3.39-.544 1.176-1.019 3.657.464 4.428 5.99 3.104 13.789 2.145 19.888-.108 6.208-2.293 12.573-7.928 12.603-15.025.03-6.207-5.19-10.725-10.814-12.217-3.064-.81-6.277-.9-9.42-1.097-2.728-.169-6.988-.149-8.916-2.472-1.71-2.066.504-5.446 1.789-7.156 2.234-2.985 5.565-5.852 9.341-6.395l.06.02c2.876 1.512 8.135-3.391 5.06-5.793l-.009-.01ZM124.249 21.558c.099 7.087.228 14.165.425 21.252.05 1.957.079 3.944.149 5.93l-2.788-.948c-2.412-.83-4.814-1.68-7.206-2.55-4.754-1.74-9.4-3.747-14.135-5.526-2.046-.77-3.32 1.236-3.34 3.045-.03 2.204 1.215 4.576 3.281 5.476 5.842 2.55 11.852 4.794 17.861 6.909 1.79.633 3.608 1.206 5.407 1.79l-3.617 3.172a255.55 255.55 0 0 0-4.3 3.855c-.89.82-1.779 1.621-2.659 2.451-.959.91-1.76 2.027-2.718 2.916-1.325 1.226-1.562 3.47-.949 5.1.553 1.474 1.917 2.442 3.331 1.385 1.858-1.384 3.934-2.511 5.802-3.924a232.32 232.32 0 0 0 5.456-4.29c3.44-2.788 6.86-5.605 10.231-8.471 3.242-2.758 6.474-5.546 9.687-8.333 3.015-2.63 7.947-5.407 6.998-10.073-.346-1.68-1.117-3.667-2.847-4.388-1.463-.613-2.817.316-3.232 1.769-.287 1.018-2.422 2.303-3.212 3.015-1.473 1.314-2.946 2.629-4.429 3.944-1.987 1.76-3.993 3.509-6 5.258.02-1.067.03-2.135.05-3.212.039-2.61.029-5.23.039-7.839.01-5.308 0-10.616-.019-15.924-.01-2.165-1.928-4.863-4.083-5.347-2.392-.544-3.202 1.67-3.173 3.588l-.01-.03Z"/><path fill="#FED064" d="M470.547 752.486c-.702 1.73-.376.909 0 0Z"/><path fill="#FED064" d="M504.688 718.344c2.452 1.364-1.413-.82-1.799-1.028-1.067-.563-2.204-.978-3.351-1.384-1.818-.642-3.667-1.235-5.495-1.868-3.766-1.295-7.493-2.689-11.259-3.993-3.776-1.315-7.502-2.728-11.308-3.964-1.72-.563-3.41-1.216-5.14-1.769-2.244-.722-4.596-1.028-6.761-1.958-1.809-.78-4.824-.573-6.198.9-1.472 1.582-.049 3.064 1.552 3.796 1.453.662 2.728 1.917 4.122 2.728 1.147.662 2.353 1.245 3.539 1.848 1.591.811 3.163 1.671 4.794 2.422a304.773 304.773 0 0 0 7.384 3.222c-.168.366-.327.732-.495 1.107-.701 1.562-1.354 3.154-2.016 4.735-1.433 3.43-2.847 6.87-4.26 10.31a6749.963 6749.963 0 0 0-8.037 19.67c-.978 2.402 1.987 3.747 4.093 3.638 2.797-.148 5.486-1.799 6.484-4.241.198-.474.395-.968.475-1.146.345-.86.701-1.71 1.047-2.57.603-1.473 1.196-2.936 1.799-4.409 1.335-3.262 2.659-6.514 3.984-9.776 1.878-4.616 3.805-9.222 5.594-13.878 1.533.574 3.045 1.176 4.577 1.75 3.39 1.245 6.633 2.481 10.27 2.876 2.521.277 5.239-.415 6.89-2.313 1.364-1.571 1.571-3.519-.494-4.675l.009-.03Z"/><path fill="#fff" d="M57.005 327.517c-4.132 5.931-8.037 12.039-11.882 18.188-.652-.633-1.314-1.266-1.947-1.908a158.335 158.335 0 0 1-5.852-6.208c-1.819-2.036-3.588-4.131-5.367-6.207-2.323-2.709-4.389-5.634-6.92-8.155-1.294-1.295-3.083-1.848-4.902-1.463-1.196.257-3.262 1.285-2.56 2.896 2.629 6.02 6.86 11.466 11.031 16.498a155.667 155.667 0 0 0 5.832 6.662 163.935 163.935 0 0 0 3.133 3.301c.781.801 1.641 1.799 2.58 2.57-4.705 7.7-9.35 15.44-14.125 23.061-1.285 2.056.119 4.26 2.363 4.547 2.649.336 5.377-1.285 6.73-3.479 9.876-15.994 20.146-31.799 29.487-48.109 1.858-3.242-5.94-4.586-7.601-2.194ZM241.837 564.728c-.059-1.364-1.364-2.372-2.57-2.768-3.203-1.057-6.376.415-9.42 1.345a323.338 323.338 0 0 1-14.6 4.111c-2.125.544-4.25 1.068-6.385 1.592 2.214-5.101 4.754-10.043 7.364-14.946 1.591-3.005 3.232-6 4.883-8.975a538.425 538.425 0 0 1 4.804-8.431c1.759-3.035 4.339-6.247 4.784-9.737.336-2.678-2.857-3.489-4.863-3.42-5.516.198-11.022 1.018-16.458 1.908-7.078 1.166-14.244 2.56-20.985 5.021-1.364.504-1.285 2.106-.663 3.124.821 1.324 2.679 2.224 4.211 2.234 3.47.01 6.969-.939 10.369-1.542 2.6-.465 5.219-.86 7.829-1.236 2.728-.395 5.476-.702 8.224-1.018l-.89 1.483a428.042 428.042 0 0 0-3.746 6.444 514.265 514.265 0 0 0-6.682 12.05c-2.135 3.964-4.221 7.947-6.188 11.99a189.964 189.964 0 0 0-3.123 6.771c-.9 2.056-1.72 3.548-.653 5.693.643 1.285 3.035 1.77 4.28 1.572 1.167-.178 2.195-.445 3.104-.89.544.03 1.087 0 1.621-.108l.86-.149a41.431 41.431 0 0 0 1.938-.375 414.65 414.65 0 0 0 3.726-.821 223.38 223.38 0 0 0 7.591-1.868 298.115 298.115 0 0 0 14.62-4.25c1.621-.524 3.291-.979 4.774-1.839 1.087-.632 2.313-1.522 2.244-2.945v-.02ZM873.296 455.542c-.06-1.364-1.364-2.372-2.57-2.767-3.203-1.058-6.376.415-9.42 1.344a322.043 322.043 0 0 1-14.6 4.112c-2.125.544-4.25 1.067-6.385 1.591 2.214-5.1 4.754-10.042 7.364-14.945 1.591-3.005 3.232-6 4.883-8.975a538.522 538.522 0 0 1 4.804-8.432c1.759-3.035 4.339-6.247 4.784-9.736.336-2.679-2.857-3.49-4.863-3.42-5.516.197-11.022 1.018-16.458 1.907-7.078 1.167-14.244 2.56-20.985 5.022-1.364.504-1.285 2.105-.663 3.123.821 1.325 2.679 2.224 4.211 2.234 3.47.01 6.969-.939 10.369-1.542 2.6-.464 5.219-.86 7.829-1.235 2.728-.396 5.476-.702 8.224-1.019l-.89 1.483a423.224 423.224 0 0 0-3.746 6.445 512.181 512.181 0 0 0-6.682 12.049c-2.135 3.964-4.221 7.948-6.188 11.99a190.783 190.783 0 0 0-3.123 6.771c-.9 2.056-1.72 3.549-.653 5.694.643 1.285 3.035 1.769 4.28 1.571 1.167-.177 2.195-.444 3.104-.889.544.03 1.087 0 1.621-.109l.86-.148a41.436 41.436 0 0 0 1.938-.376c1.245-.267 2.49-.543 3.726-.82a223.38 223.38 0 0 0 7.591-1.868 298.126 298.126 0 0 0 14.62-4.251c1.621-.524 3.291-.978 4.774-1.838 1.087-.633 2.313-1.523 2.244-2.946v-.02ZM438.613 168.624c-.06-1.364-1.364-2.372-2.57-2.768-3.203-1.057-6.376.415-9.42 1.345a323.338 323.338 0 0 1-14.6 4.111c-2.125.544-4.25 1.068-6.385 1.592 2.214-5.101 4.754-10.043 7.364-14.946 1.591-3.005 3.232-6 4.883-8.975a538.371 538.371 0 0 1 4.803-8.431c1.76-3.035 4.34-6.248 4.785-9.737.336-2.679-2.857-3.489-4.864-3.42-5.515.198-11.021 1.018-16.457 1.908-7.078 1.166-14.244 2.56-20.986 5.021-1.364.504-1.285 2.106-.662 3.124.821 1.324 2.679 2.224 4.211 2.234 3.47.01 6.969-.939 10.369-1.542 2.6-.465 5.219-.86 7.829-1.236 2.728-.395 5.476-.702 8.224-1.018l-.89 1.483a419.657 419.657 0 0 0-3.746 6.444 507.058 507.058 0 0 0-6.682 12.05c-2.135 3.964-4.221 7.947-6.188 11.99a191.77 191.77 0 0 0-3.124 6.771c-.899 2.056-1.719 3.548-.652 5.693.643 1.285 3.035 1.77 4.28 1.572 1.166-.178 2.194-.445 3.104-.89.544.03 1.087 0 1.621-.108l.86-.149a41.39 41.39 0 0 0 1.937-.375c1.246-.267 2.491-.544 3.727-.821a223.38 223.38 0 0 0 7.591-1.868 298.115 298.115 0 0 0 14.62-4.25c1.621-.524 3.291-.979 4.774-1.839 1.087-.632 2.313-1.522 2.244-2.945v-.02Z"/></svg>