<svg width="826" height="89" viewBox="0 0 826 89" fill="none" xmlns="http://www.w3.org/2000/svg">
<path d="M54.6989 26.0041C54.6989 26.0041 0 33.02 0 43.3464C0 58.2993 107.214 53.8537 125.69 53.8332C210.561 53.7386 611.504 61.3343 622.794 73.5072L625 38.395L54.7062 26L54.6989 26.0041Z" fill="#3B60AA"/>
<path d="M54 35.9309L56.3523 19L820 25.7383L818.156 39L54 35.9328V35.9309Z" fill="#0B0D0D"/>
<path d="M132.228 14.2701L143.635 88.8474L163.728 58.2549L190.033 83.4387L179.739 15.8196L132.228 14.2627V14.2701Z" fill="#D73632"/>
<path d="M517.105 15.1704C415.241 15.2073 313.377 14.403 211.535 12.8165C156.091 11.9532 109.265 10.7062 53.8281 9.42969C54.0126 9.4961 54.138 9.63628 54.138 9.87978L54.02 13.3257C54.02 13.3257 54.0052 13.3847 54.0052 13.4142C153.678 16.1887 244.806 17.4799 344.508 18.3801C446.357 19.2951 548.199 19.332 650.055 18.5425C707.484 18.0924 764.921 17.3176 822.342 16.4911C824.268 16.469 826.777 12.3 824.246 12.359C721.888 14.4325 619.485 15.1482 517.105 15.1851" fill="#0B0D0D"/>
<path d="M517.577 6.41152C415.713 6.44841 313.849 5.64417 212.007 4.05773C156.563 3.19441 109.737 1.94743 54.3003 0.670898C54.4848 0.737307 54.6102 0.877493 54.6102 1.12099L54.4921 4.56682C54.4921 4.56682 54.4774 4.62594 54.4774 4.65545C154.15 7.42987 245.278 8.72115 344.98 9.62136C446.829 10.5363 548.671 10.5732 650.528 9.78367C707.957 9.33356 765.393 8.55877 822.815 7.73235C824.74 7.71021 827.249 3.54122 824.718 3.60025C722.36 5.67369 619.957 6.38939 517.577 6.42629" fill="#0B0D0D"/>
</svg>
