<?xml version="1.0" encoding="utf-8"?>
<!-- Generator: Adobe Illustrator 27.3.0, SVG Export Plug-In . SVG Version: 6.00 Build 0)  -->
<svg version="1.1" id="Capa_1" xmlns="http://www.w3.org/2000/svg" xmlns:xlink="http://www.w3.org/1999/xlink" x="0px" y="0px"
	 viewBox="0 0 373.8 353.9" style="enable-background:new 0 0 373.8 353.9;" xml:space="preserve">
<style type="text/css">
	.st0{fill:#FDD261;}
	.st1{fill:#FFFFFF;filter:url(#Adobe_OpacityMaskFilter);}
	.st2{mask:url(#mask0_292_3347_00000111162627064180112070000011754185514899809934_);}
	.st3{fill:#FFFFFF;}
</style>
<g>
	<path class="st0" d="M7.8,60V19.7h359.6v317.7L3.9,342.3L7.8,60z"/>
	<defs>
		<filter id="Adobe_OpacityMaskFilter" filterUnits="userSpaceOnUse" x="5.1" y="5.4" width="368.7" height="381.7">
			<feColorMatrix  type="matrix" values="1 0 0 0 0  0 1 0 0 0  0 0 1 0 0  0 0 0 1 0"/>
		</filter>
	</defs>
	
		<mask maskUnits="userSpaceOnUse" x="5.1" y="5.4" width="368.7" height="381.7" id="mask0_292_3347_00000111162627064180112070000011754185514899809934_">
		<path class="st1" d="M7.8,60V19.7h359.6v317.7L3.9,342.3L7.8,60z"/>
	</mask>
	<g class="st2">
		<path class="st3" d="M373.8,77.1c-0.2-0.9-1-1.6-1.9-1.9c-0.8-0.3-1.6-0.2-2.4-0.1l-3.3,0.1c-2.1,0.1-4.2,0.1-6.3,0.2
			c-6.5,0.2-13.1,0.5-19.6,0.7c-4.5-0.2-9.4-0.1-14,0l-19.6,0.2c-12.6,0.1-25.3,0.3-37.9,0.4c-50.1,0.6-100.3,1.2-150.4,1.8
			c-28.3,0.3-73.2,0.5-101.5,1c-3.8,0.1-3.9,0.7-2.6,1.2c1.6,0.6,2.2,1,6.1,1c50.8-0.2,121.4-0.8,172.2-1.4l75.9-0.9
			c12.2-0.1,24.5-0.3,36.7-0.4c5.2-0.1,10.3-0.1,15.5-0.2c0.3,0.2,0.6,0.3,0.9,0.3c8.5,0.1,17-0.4,25.5-0.7l12.7-0.4
			c2.1-0.1,4.1-0.1,6.1-0.2c1.1,0,2.2-0.1,3.3-0.1c0.5,0,1.1,0,1.6-0.1c0.1,0,0.2,0,0.3,0c0.5,0.5,1.2,0.7,1.8,0.6
			C373.7,78.3,373.9,77.7,373.8,77.1"/>
		<path class="st3" d="M370.5,110.9c-0.3-0.7-1.1-1.3-1.9-1.3c-3.7-0.1-7.4,0.2-11.1,0.3c-3.7,0.1-7.5,0.2-11.3,0.3
			c-7.3,0.2-14.6,0.5-22,0.8c-1.5-0.1-3.1-0.2-4.7-0.2c-22-0.2-44.2-0.1-66.2-0.2c-22.4,0-44.9-0.1-67.3-0.1
			c-44.3-0.1-130.4-1.5-174.1-0.5c-2.7,0.1-3.7,0.2-2.7,1.2c1,1.1,5.7,1.1,9.7,1.2c44.7,0.2,130.5,0.7,175.1,0.8
			c22.1,0.1,44.1,0.1,66.2,0.2c22.4,0.1,45,0.3,67.3,0.1c1.8,0,2.9-0.1,3.5-0.3c5.5-0.1,10.9-0.2,16.4-0.3c3.7-0.1,7.4-0.2,11.1-0.3
			c3.3-0.1,4.1,0.2,11.3-0.3C370.7,112.3,370.7,111.5,370.5,110.9z"/>
		<path class="st3" d="M369.1,142.6c0.1,0.7-0.4,1.5-1.2,1.5c-7,0.8-14.1,1.2-21.1,1.6c-3.8,0.2-7.5,0.4-11.3,0.6
			c-3.8,0.2-7.5,0.3-11.3,0.5c-7.5,0.3-15,0.5-22.5,0.8l-22.5,0.5l-22.5,0.4l-22.5,0.3c-15,0.1-30.1,0.3-45.1,0.3
			c-7.5,0-15,0.1-22.5,0.1c-7.5,0-15,0-22.5-0.1l-45.1-0.4c-15-0.1-30.1-0.1-45.1-0.3c-7.5-0.1-15-0.2-22.6-0.5
			c-1.9-0.1-3.8-0.1-5.7-0.2c-1.9-0.1-3.8-0.1-5.7-0.2c-1.9-0.1-3.8-0.2-5.7-0.3c-1.4-0.1-2.8-0.2-4.3-0.4c-0.8-0.1-1.3-0.8-1.2-1.5
			c0.1-0.7,0.8-1.1,1.5-1c1.4,0.2,2.8,0.3,4.2,0.4c1.8,0.1,3.7,0.3,5.6,0.3c1.9,0.1,3.7,0.2,5.6,0.3c1.9,0.1,3.7,0.1,5.6,0.2
			c7.5,0.2,15,0.3,22.5,0.4c15,0.2,30,0.2,45.1,0.2c15,0,30.1-0.1,45.1-0.2L189,146c15,0,30-0.2,45.1-0.3l22.5-0.3l22.5-0.4
			l22.5-0.5c7.5-0.2,15-0.4,22.5-0.7c3.7-0.1,7.5-0.3,11.2-0.4c3.7-0.2,7.5-0.3,11.2-0.5c7.1-0.4,14.1-0.8,21.1-1.5
			c0.7-0.1,1.3,0.4,1.5,1.1L369.1,142.6L369.1,142.6z"/>
		<path class="st3" d="M370.8,179.6c-0.2-0.9-1-1.6-1.9-1.9c-0.8-0.3-1.6-0.2-2.4-0.1l-3.3,0.1c-2.1,0.1-4.2,0.1-6.3,0.2
			c-6.5,0.2-13.1,0.5-19.6,0.7c-4.5-0.2-9.4-0.1-14,0l-19.6,0.2c-12.6,0.1-25.3,0.3-37.9,0.4c-50.1,0.6-100.3,1.2-150.4,1.8
			c-28.3,0.3-73.2,0.5-101.5,1.1c-3.8,0.1-3.9,0.7-2.6,1.2c1.6,0.6,2.2,1,6.1,1c50.8-0.2,121.4-0.8,172.2-1.4l75.9-0.9
			c12.2-0.1,24.5-0.3,36.7-0.4c5.2-0.1,10.3-0.1,15.5-0.2c0.3,0.2,0.6,0.3,0.9,0.3c8.5,0.1,17-0.4,25.5-0.7l12.7-0.4
			c2.1-0.1,4.1-0.1,6.1-0.2c1.1,0,2.2-0.1,3.3-0.1c0.5,0,1.1,0,1.6-0.1c0.1,0,0.2,0,0.3,0c0.5,0.5,1.2,0.7,1.8,0.6
			C370.7,180.8,370.9,180.2,370.8,179.6"/>
		<path class="st3" d="M370.2,253.7c-0.2-0.9-1-1.6-1.9-1.9c-0.8-0.3-1.6-0.2-2.4-0.1l-3.3,0.1c-2.1,0.1-4.2,0.1-6.3,0.2
			c-6.5,0.2-13.1,0.5-19.6,0.7c-4.5-0.2-9.4-0.1-14,0l-19.6,0.2c-12.6,0.1-25.3,0.3-37.9,0.4c-50.1,0.6-100.3,1.2-150.4,1.8
			c-28.3,0.3-73.2,0.5-101.5,1.1c-3.8,0.1-3.9,0.7-2.6,1.2c1.6,0.6,2.2,1,6.1,1c50.8-0.2,121.4-0.8,172.2-1.4l75.9-0.9
			c12.2-0.1,24.5-0.3,36.7-0.4c5.2-0.1,10.3-0.1,15.5-0.2c0.3,0.2,0.6,0.3,0.9,0.3c8.5,0.1,17-0.4,25.5-0.7l12.7-0.4
			c2.1-0.1,4.1-0.1,6.1-0.2c1.1,0,2.2-0.1,3.3-0.1c0.5,0,1.1,0,1.6-0.1c0.1,0,0.2,0,0.3,0c0.5,0.5,1.2,0.7,1.8,0.6
			C370.1,254.9,370.3,254.4,370.2,253.7"/>
		<path class="st3" d="M367.5,215.8c-0.3-0.7-1.1-1.3-1.9-1.3c-3.7-0.1-7.4,0.2-11.1,0.3c-3.7,0.1-7.5,0.2-11.3,0.3
			c-7.3,0.2-14.6,0.5-22,0.8c-1.5-0.1-3.1-0.2-4.7-0.2c-22-0.2-44.2-0.1-66.2-0.2c-22.4,0-44.9-0.1-67.3-0.1
			C138.9,215.4,52.8,214,9.1,215c-2.7,0.1-3.7,0.2-2.7,1.2c1,1.1,5.7,1.1,9.7,1.2c44.7,0.2,130.5,0.7,175.1,0.8
			c22.1,0.1,44.1,0.1,66.2,0.2c22.4,0.1,45,0.3,67.3,0.1c1.8,0,2.9-0.1,3.5-0.3c5.5-0.1,10.9-0.2,16.4-0.3c3.7-0.1,7.4-0.2,11.1-0.3
			c3.3-0.1,4.1,0.2,11.3-0.3C367.7,217.2,367.7,216.4,367.5,215.8"/>
		<path class="st3" d="M366.8,293.9c-0.3-0.7-1.1-1.3-1.9-1.3c-3.7-0.1-7.4,0.2-11.1,0.3c-3.7,0.1-7.5,0.2-11.3,0.3
			c-7.3,0.2-14.6,0.5-22,0.8c-1.5-0.1-3.1-0.2-4.7-0.2c-22-0.2-44.2-0.1-66.2-0.2c-22.4,0-44.9-0.1-67.3-0.1
			c-44.3-0.1-130.4-1.5-174.1-0.5c-2.7,0.1-3.7,0.2-2.7,1.2c1,1.1,5.7,1.1,9.7,1.2c44.7,0.2,130.5,0.7,175.1,0.8
			c22.1,0.1,44.1,0.1,66.2,0.2c22.4,0.1,45,0.3,67.3,0.1c1.8,0,2.9-0.1,3.5-0.3c5.5-0.1,10.9-0.2,16.4-0.3c3.7-0.1,7.4-0.2,11.1-0.3
			c3.3-0.1,4.1,0.2,11.3-0.3C367.1,295.2,367.1,294.4,366.8,293.9"/>
		<path class="st3" d="M366.5,330.9c-0.3-0.7-1.1-1.3-1.9-1.3c-3.7-0.1-7.4,0.2-11.1,0.3c-3.7,0.1-7.5,0.2-11.3,0.3
			c-7.3,0.2-14.6,0.5-22,0.8c-1.5-0.1-3.1-0.2-4.7-0.2c-22-0.2-44.2-0.1-66.2-0.2c-22.4,0-44.9-0.1-67.3-0.1
			c-44.3-0.1-130.4-1.5-174.1-0.5c-2.7,0.1-3.7,0.2-2.7,1.2c1,1.1,5.7,1.1,9.7,1.2c44.7,0.2,130.5,0.7,175.1,0.8
			c22.1,0.1,44.1,0.1,66.2,0.2c22.4,0.1,45,0.3,67.3,0.1c1.8,0,2.9-0.1,3.5-0.3c5.5-0.1,10.9-0.2,16.4-0.3c3.7-0.1,7.4-0.2,11.1-0.3
			c3.3-0.1,4,0.2,11.3-0.3C366.7,332.3,366.8,331.5,366.5,330.9"/>
		<path class="st3" d="M368.4,38.1c0.1,0.7-0.4,1.5-1.2,1.5c-7,0.8-14.1,1.2-21.1,1.6c-3.8,0.2-7.5,0.4-11.3,0.6
			c-3.8,0.2-7.5,0.3-11.3,0.5c-7.5,0.3-15,0.5-22.5,0.8l-22.5,0.5L256,44.1l-22.5,0.3c-15,0.1-30.1,0.3-45.1,0.3
			c-7.5,0-15,0.1-22.5,0.1c-7.5,0-15,0-22.5-0.1l-45.1-0.4c-15-0.1-30.1-0.1-45.1-0.3c-7.5-0.1-15-0.2-22.6-0.5
			c-1.9-0.1-3.8-0.1-5.7-0.2c-1.9-0.1-3.8-0.1-5.7-0.2c-1.9-0.1-3.8-0.2-5.7-0.3c-1.4-0.1-2.8-0.2-4.3-0.4c-0.8-0.1-1.3-0.8-1.2-1.5
			c0.1-0.7,0.8-1.1,1.5-1c1.4,0.2,2.8,0.3,4.2,0.4c1.8,0.1,3.7,0.3,5.6,0.3c1.9,0.1,3.7,0.2,5.6,0.3c1.9,0.1,3.7,0.1,5.6,0.2
			c7.5,0.2,15,0.3,22.5,0.4c15,0.2,30,0.2,45.1,0.2c15,0,30.1-0.1,45.1-0.2l45.1-0.2c15,0,30-0.2,45.1-0.3l22.5-0.3l22.5-0.4
			l22.5-0.5c7.5-0.2,15-0.4,22.5-0.7c3.7-0.1,7.5-0.3,11.2-0.4c3.7-0.2,7.5-0.3,11.2-0.5c7.1-0.4,14.1-0.8,21.1-1.5
			c0.7-0.1,1.3,0.4,1.5,1.1L368.4,38.1L368.4,38.1z"/>
		<path class="st3" d="M182.2,7.6c-0.9,0.2-1.6,1-1.9,1.9c-0.3,0.8-0.2,1.6-0.1,2.4l0.1,3.3c0.1,2.1,0.1,4.2,0.2,6.3
			c0.2,6.5,0.5,13.1,0.7,19.6c-0.2,4.5-0.1,9.4,0,14l0.2,19.6c0.1,12.6,0.3,25.3,0.4,37.9c0.6,50.1,1.2,100.3,1.8,150.4
			c0.3,28.4,0.4,89.7,0.9,117.9c0.1,3.8,0.7,3.9,1.2,2.6c0.6-1.6,1-2.2,1-6.1c-0.2-50.8-0.6-137.9-1.2-188.6l-0.9-75.9
			c-0.1-12.2-0.3-24.5-0.4-36.7c-0.1-5.2-0.1-10.3-0.2-15.5c0.2-0.3,0.3-0.6,0.3-0.9c0.1-8.5-0.4-17-0.7-25.5l-0.4-12.7
			c-0.1-2.1-0.1-4.1-0.2-6.1c0-1.1-0.1-2.2-0.1-3.3c0-0.5,0-1.1-0.1-1.6c0-0.1,0-0.2,0-0.3c0.5-0.5,0.7-1.2,0.6-1.8
			C183.3,7.7,182.8,7.5,182.2,7.6"/>
		<path class="st3" d="M138.5,7.6c-0.9,0.2-1.6,1-1.9,1.9c-0.3,0.8-0.2,1.6-0.1,2.4l0.1,3.3c0.1,2.1,0.1,4.2,0.2,6.3
			c0.2,6.5,0.5,13.1,0.7,19.6c-0.2,4.5-0.1,9.4,0,14l0.2,19.6c0.1,12.6,0.3,25.3,0.4,37.9c0.6,50.1,1.2,100.3,1.8,150.4
			c0.3,28.4,0.4,90.5,0.9,118.8c0.1,3.8,0.7,3.9,1.2,2.6c0.6-1.6,1-2.2,1-6.1c-0.2-50.8-0.6-138.7-1.2-189.4l-0.9-75.9
			c-0.1-12.2-0.3-24.5-0.4-36.7c-0.1-5.2-0.1-10.3-0.2-15.5c0.2-0.3,0.3-0.6,0.3-0.9c0.1-8.5-0.4-17-0.7-25.5l-0.4-12.7
			c-0.1-2.1-0.1-4.1-0.2-6.1c0-1.1-0.1-2.2-0.1-3.3c0-0.5,0-1.1-0.1-1.6c0-0.1,0-0.2,0-0.3c0.5-0.5,0.7-1.2,0.6-1.8
			C139.7,7.7,139.2,7.5,138.5,7.6"/>
		<path class="st3" d="M258.1,5.4c-0.9,0.2-1.6,0.2-1.9,1c-0.3,0.8-0.2,1.6-0.1,2.4l0.1,3.3c0.1,2.1,0.1,4.2,0.2,6.3
			c0.2,6.5,0.5,13.9,0.7,20.4c-0.2,4.5-0.1,9.4,0,14l0.2,19.6c0.1,12.6,0.3,25.3,0.4,37.9c0.6,50.1,1.2,100.3,1.8,150.4
			c0.3,28.4,0.3,94.6,0.9,122.9c0.1,3.8,0.7,3.9,1.2,2.6c0.6-1.6,1-2.2,1-6.1c-0.2-50.8-0.6-142.8-1.2-193.5l-0.9-75.9
			c-0.1-12.2-0.3-24.5-0.4-36.7c-0.1-5.2-0.1-10.3-0.2-15.5c0.2-0.3,0.3-0.6,0.3-0.9c0.1-8.5-0.4-17-0.7-25.5l-0.4-13.5
			c-0.1-2.1-0.1-4.1-0.2-6.1c0-1.1-0.1-2.2-0.1-3.3c0-0.5,0-1.1-0.1-1.6c0-0.1,0-0.2,0-0.3c0.5-0.5,0.7-0.4,0.6-1
			C259.3,5.5,258.7,5.3,258.1,5.4"/>
		<path class="st3" d="M221.9,8.3c-0.7,0.3-1.3,1.1-1.3,1.9c-0.1,3.7,1.4,27.7,1.5,31.4c0.1,3.7,0.3,2.6,0.4,6.3
			c0.2,7.3,0.5,14.6,0.8,22c-0.1,1.5-0.2,3.1-0.2,4.7c-0.2,22-0.1,44.2-0.2,66.2c0,22.4-0.1,44.9-0.1,67.3
			c-0.1,44.3-1.5,130.4-0.5,174.1c0.1,2.7,0.2,3.7,1.2,2.7c1.1-1,1.1-5.7,1.2-9.7c0.2-44.7,0.7-130.5,0.8-175.1
			c0.1-22.1,0.1-44.1,0.2-66.2c0.1-22.4,0.3-45,0.1-67.3c0-1.8-0.1-2.9-0.3-3.5c-0.1-5.5-0.2-10.9-0.3-16.4
			c-0.1-3.7-0.2-2.5-0.3-6.1c-0.1-3.3-1-24.4-1.6-31.6C223.3,8.1,222.5,8.1,221.9,8.3"/>
		<path class="st3" d="M301.8,17.3c-0.9,0.2-1.6,1-1.9,1.9c-0.3,0.8-0.2,1.6-0.1,2.4l0.1,3.3c0.1,2.1,0.1,4.2,0.2,6.3
			c0.2,6.5,0.5,13.1,0.7,19.6c-0.2,4.5-0.1,9.4,0,14l0.2,19.6c0.1,12.6,0.3,25.3,0.4,37.9c0.6,50.1,1.2,100.3,1.8,150.4
			c0.3,28.4,0.4,81.4,1,109.7c0.1,3.8,0.7,3.9,1.2,2.6c0.6-1.6,1-2.2,1-6.1c-0.2-50.8-0.7-129.7-1.3-180.4l-0.9-75.9
			c-0.1-12.2-0.3-24.5-0.4-36.7c-0.1-5.2-0.1-10.3-0.2-15.5c0.2-0.3,0.3-0.6,0.3-0.9c0.1-8.5-0.4-17-0.7-25.5l-0.4-12.7
			c-0.1-2.1-0.1-4.1-0.2-6.1c0-1.1-0.1-2.2-0.1-3.3c0-0.5,0-1.1-0.1-1.6c0-0.1,0-0.2,0-0.3c0.5-0.5,0-1.3-0.2-1.8
			C302.2,17.4,302.4,17.2,301.8,17.3"/>
		<path class="st3" d="M96.8,9.7c-0.9,0.2-1.6,1-1.9,1.8c-0.3,0.8-0.2,1.6-0.1,2.4l0.1,3.3c0.1,2.1,0.1,4.2,0.2,6.3
			c0.2,6.5,0.4,13.1,0.7,19.6c-0.2,4.5-0.1,9.4-0.1,14l0.2,19.6c0.1,12.6,0.2,25.3,0.3,37.9c0.4,50.1,0.9,100.3,1.3,150.4
			c0.3,28.4,0.1,89.7,0.6,117.9c0.1,3.8,0.7,3.9,1.2,2.6c0.6-1.6,1-2.2,1-6.1c-0.1-50.8-0.3-137.9-0.7-188.6L98.9,115
			c-0.1-12.2-0.2-24.5-0.3-36.7c0-5.2-0.1-10.3-0.1-15.5c0.2-0.3,0.1-5.5,0.1-5.9c0.1-8.5-0.1-12.1-0.4-20.5l-0.4-12.7
			c-0.1-2.1-0.1-4.1-0.2-6.1c0-1.1-0.1-2.2-0.1-3.3c0-0.5,0-1.1-0.1-1.6c0-0.1,0-0.2,0-0.3c0.5-0.5,0-1.3-0.1-1.8
			C97.2,9.8,97.4,9.6,96.8,9.7"/>
		<path class="st3" d="M49.5,9.3c-0.9,0.2-1.6,1-1.9,1.8c-0.3,0.8-0.2,1.6-0.1,2.4l0.1,3.3c0.1,2.1,0.1,4.2,0.2,6.3
			c0.2,6.5,0.4,13.1,0.7,19.6c-0.2,4.5-0.1,9.4-0.1,14l0.2,19.6c0.1,12.6,0.2,25.3,0.3,37.9c0.4,50.1,0.9,100.3,1.3,150.4
			c0.3,28.4,0.1,89.7,0.6,117.9c0.1,3.8,0.7,3.9,1.2,2.6c0.6-1.6,1-2.2,1-6.1c-0.1-50.8-0.3-137.9-0.7-188.6l-0.6-75.9
			c-0.1-12.2-0.2-24.5-0.3-36.7c0-5.2-0.1-10.3-0.1-15.5c0.2-0.3,0.1-4.3,0.1-4.7c0.1-8.5-0.1-13.3-0.4-21.7l-0.4-12.7
			c-0.1-2.1-0.1-4.1-0.2-6.1c0-1.1-0.1-2.2-0.1-3.3c0-0.5,0-1.1-0.1-1.6c0-0.1,0-0.2,0-0.3c0.5-0.5,0-1.3-0.1-1.8
			C49.9,9.4,50.1,9.2,49.5,9.3"/>
		<path class="st3" d="M333.1,20.6c-0.7,0.3-1.3,1.1-1.3,1.9c-0.1,3.7,0.2,7.4,0.3,11.1c0.1,3.7,0.2,7.5,0.3,11.3
			c0.2,7.3,0.5,14.6,0.8,22c-0.1,1.5-0.2,3.1-0.2,4.7c-0.2,22-0.1,44.2-0.2,66.2c0,22.4-0.1,44.9-0.1,67.3
			c-0.1,44.3-1.5,134.5-0.5,178.2c0.1,2.7,0.2,3.7,1.2,2.7c1.1-1,1.1-5.7,1.2-9.7c0.2-44.7,0.7-134.6,0.9-179.2
			c0.1-22.1,0.1-44.1,0.2-66.2c0.1-22.4,0.3-45,0.1-67.3c0-1.8-0.1-2.9-0.3-3.5c-0.1-5.5-0.2-10.9-0.3-16.4
			c-0.1-3.7-0.2-7.4-0.3-11.1c-0.1-3.3,0.2-4-0.3-11.3C334.5,20.3,333.6,20.3,333.1,20.6"/>
	</g>
</g>
</svg>
