<?xml version="1.0" encoding="UTF-8"?>
<svg id="Capa_1" data-name="Capa 1" xmlns="http://www.w3.org/2000/svg" viewBox="0 0 319.03 309.38">
  <defs>
    <style>
      .cls-1 {
        fill: #fff;
      }

      .cls-2 {
        fill: #fdd261;
      }
    </style>
  </defs>
  <polygon class="cls-2" points="-36.34 -3.78 -36.34 35.8 -40.24 318.1 323.26 313.2 323.26 -3.78 -36.34 -3.78"/>
  <g>
    <path class="cls-1" d="m329.66,52.9c-.2-.9-1-1.6-1.9-1.9-.8-.3-1.6-.2-2.4-.1l-3.3.1c-2.1.1-4.2.1-6.3.2-6.5.2-13.1.5-19.6.7-4.5-.2-9.4-.1-14,0l-19.6.2c-12.6.1-25.3.3-37.9.4-50.1.6-100.3,1.2-150.4,1.8-28.3.3-73.2.5-101.5,1-3.8.1-3.9.7-2.6,1.2,1.6.6,2.2,1,6.1,1,50.8-.2,121.4-.8,172.2-1.4l75.9-.9c12.2-.1,24.5-.3,36.7-.4,5.2-.1,10.3-.1,15.5-.2.3.2.6.3.9.3,8.5.1,17-.4,25.5-.7l12.7-.4c2.1-.1,4.1-.1,6.1-.2,1.1,0,2.2-.1,3.3-.1.5,0,1.1,0,1.6-.1h.3c.5.5,1.2.7,1.8.6.8.1,1-.5.9-1.1"/>
    <path class="cls-1" d="m326.36,86.7c-.3-.7-1.1-1.3-1.9-1.3-3.7-.1-7.4.2-11.1.3-3.7.1-7.5.2-11.3.3-7.3.2-14.6.5-22,.8-1.5-.1-3.1-.2-4.7-.2-22-.2-44.2-.1-66.2-.2-22.4,0-44.9-.1-67.3-.1-44.3-.1-130.4-1.5-174.1-.5-2.7.1-3.7.2-2.7,1.2,1,1.1,5.7,1.1,9.7,1.2,44.7.2,130.5.7,175.1.8,22.1.1,44.1.1,66.2.2,22.4.1,45,.3,67.3.1,1.8,0,2.9-.1,3.5-.3,5.5-.1,10.9-.2,16.4-.3,3.7-.1,7.4-.2,11.1-.3,3.3-.1,4.1.2,11.3-.3.9,0,.9-.8.7-1.4Z"/>
    <path class="cls-1" d="m324.96,118.4c.1.7-.4,1.5-1.2,1.5-7,.8-14.1,1.2-21.1,1.6-3.8.2-7.5.4-11.3.6-3.8.2-7.5.3-11.3.5-7.5.3-15,.5-22.5.8l-22.5.5-22.5.4-22.5.3c-15,.1-30.1.3-45.1.3-7.5,0-15,.1-22.5.1s-15,0-22.5-.1l-45.1-.4c-15-.1-30.1-.1-45.1-.3-7.5-.1-15-.2-22.6-.5-1.9-.1-3.8-.1-5.7-.2-1.9-.1-3.8-.1-5.7-.2-1.9-.1-3.8-.2-5.7-.3-1.4-.1-2.8-.2-4.3-.4-.8-.1-1.3-.8-1.2-1.5s.8-1.1,1.5-1c1.4.2,2.8.3,4.2.4,1.8.1,3.7.3,5.6.3,1.9.1,3.7.2,5.6.3s3.7.1,5.6.2c7.5.2,15,.3,22.5.4,15,.2,30,.2,45.1.2s30.1-.1,45.1-.2l45.1.1c15,0,30-.2,45.1-.3l22.5-.3,22.5-.4,22.5-.5c7.5-.2,15-.4,22.5-.7,3.7-.1,7.5-.3,11.2-.4,3.7-.2,7.5-.3,11.2-.5,7.1-.4,14.1-.8,21.1-1.5.7-.1,1.3.4,1.5,1.1v.1h0Z"/>
    <path class="cls-1" d="m326.66,155.4c-.2-.9-1-1.6-1.9-1.9-.8-.3-1.6-.2-2.4-.1l-3.3.1c-2.1.1-4.2.1-6.3.2-6.5.2-13.1.5-19.6.7-4.5-.2-9.4-.1-14,0l-19.6.2c-12.6.1-25.3.3-37.9.4-50.1.6-100.3,1.2-150.4,1.8-28.3.3-73.2.5-101.5,1.1-3.8.1-3.9.7-2.6,1.2,1.6.6,2.2,1,6.1,1,50.8-.2,121.4-.8,172.2-1.4l75.9-.9c12.2-.1,24.5-.3,36.7-.4,5.2-.1,10.3-.1,15.5-.2.3.2.6.3.9.3,8.5.1,17-.4,25.5-.7l12.7-.4c2.1-.1,4.1-.1,6.1-.2,1.1,0,2.2-.1,3.3-.1.5,0,1.1,0,1.6-.1h.3c.5.5,1.2.7,1.8.6.8,0,1-.6.9-1.2"/>
    <path class="cls-1" d="m326.06,229.5c-.2-.9-1-1.6-1.9-1.9-.8-.3-1.6-.2-2.4-.1l-3.3.1c-2.1.1-4.2.1-6.3.2-6.5.2-13.1.5-19.6.7-4.5-.2-9.4-.1-14,0l-19.6.2c-12.6.1-25.3.3-37.9.4-50.1.6-100.3,1.2-150.4,1.8-28.3.3-73.2.5-101.5,1.1-3.8.1-3.9.7-2.6,1.2,1.6.6,2.2,1,6.1,1,50.8-.2,121.4-.8,172.2-1.4l75.9-.9c12.2-.1,24.5-.3,36.7-.4,5.2-.1,10.3-.1,15.5-.2.3.2.6.3.9.3,8.5.1,17-.4,25.5-.7l12.7-.4c2.1-.1,4.1-.1,6.1-.2,1.1,0,2.2-.1,3.3-.1.5,0,1.1,0,1.6-.1h.3c.5.5,1.2.7,1.8.6.8,0,1-.5.9-1.2"/>
    <path class="cls-1" d="m323.36,191.6c-.3-.7-1.1-1.3-1.9-1.3-3.7-.1-7.4.2-11.1.3s-7.5.2-11.3.3c-7.3.2-14.6.5-22,.8-1.5-.1-3.1-.2-4.7-.2-22-.2-44.2-.1-66.2-.2-22.4,0-44.9-.1-67.3-.1-44.1,0-130.2-1.4-173.9-.4-2.7.1-3.7.2-2.7,1.2,1,1.1,5.7,1.1,9.7,1.2,44.7.2,130.5.7,175.1.8,22.1.1,44.1.1,66.2.2,22.4.1,45,.3,67.3.1,1.8,0,2.9-.1,3.5-.3,5.5-.1,10.9-.2,16.4-.3,3.7-.1,7.4-.2,11.1-.3,3.3-.1,4.1.2,11.3-.3.7-.1.7-.9.5-1.5"/>
    <path class="cls-1" d="m322.66,269.7c-.3-.7-1.1-1.3-1.9-1.3-3.7-.1-7.4.2-11.1.3-3.7.1-7.5.2-11.3.3-7.3.2-14.6.5-22,.8-1.5-.1-3.1-.2-4.7-.2-22-.2-44.2-.1-66.2-.2-22.4,0-44.9-.1-67.3-.1-44.3-.1-130.4-1.5-174.1-.5-2.7.1-3.7.2-2.7,1.2,1,1.1,5.7,1.1,9.7,1.2,44.7.2,130.5.7,175.1.8,22.1.1,44.1.1,66.2.2,22.4.1,45,.3,67.3.1,1.8,0,2.9-.1,3.5-.3,5.5-.1,10.9-.2,16.4-.3,3.7-.1,7.4-.2,11.1-.3,3.3-.1,4.1.2,11.3-.3,1-.1,1-.9.7-1.4"/>
    <path class="cls-1" d="m322.36,306.7c-.3-.7-1.1-1.3-1.9-1.3-3.7-.1-7.4.2-11.1.3-3.7.1-7.5.2-11.3.3-7.3.2-14.6.5-22,.8-1.5-.1-3.1-.2-4.7-.2-22-.2-44.2-.1-66.2-.2-22.4,0-44.9-.1-67.3-.1-44.3-.1-130.4-1.5-174.1-.5-2.7.1-3.7.2-2.7,1.2,1,1.1,5.7,1.1,9.7,1.2,44.7.2,130.5.7,175.1.8,22.1.1,44.1.1,66.2.2,22.4.1,45,.3,67.3.1,1.8,0,2.9-.1,3.5-.3,5.5-.1,10.9-.2,16.4-.3,3.7-.1,7.4-.2,11.1-.3,3.3-.1,4,.2,11.3-.3.9,0,1-.8.7-1.4"/>
    <path class="cls-1" d="m324.26,13.9c.1.7-.4,1.5-1.2,1.5-7,.8-14.1,1.2-21.1,1.6-3.8.2-7.5.4-11.3.6-3.8.2-7.5.3-11.3.5-7.5.3-15,.5-22.5.8l-22.5.5-22.5.5-22.5.3c-15,.1-30.1.3-45.1.3-7.5,0-15,.1-22.5.1s-15,0-22.5-.1l-45.1-.4c-15-.1-30.1-.1-45.1-.3-7.5-.1-15-.2-22.6-.5-1.9-.1-3.8-.1-5.7-.2-1.9-.1-3.8-.1-5.7-.2-1.9-.1-3.8-.2-5.7-.3-1.4-.1-2.8-.2-4.3-.4-.8-.1-1.3-.8-1.2-1.5s.8-1.1,1.5-1c1.4.2,2.8.3,4.2.4,1.8.1,3.7.3,5.6.3,1.9.1,3.7.2,5.6.3s3.7.1,5.6.2c7.5.2,15,.3,22.5.4,15,.2,30,.2,45.1.2s30.1-.1,45.1-.2l45.1-.2c15,0,30-.2,45.1-.3l22.5-.3,22.5-.4,22.5-.5c7.5-.2,15-.4,22.5-.7,3.7-.1,7.5-.3,11.2-.4,3.7-.2,7.5-.3,11.2-.5,7.1-.4,14.1-.8,21.1-1.5.7-.1,1.3.4,1.5,1.1v.3h0Z"/>
    <path class="cls-1" d="m140.46,88.7c-.1-12.2-.3-24.5-.4-36.7-.1-5.2-.1-10.3-.2-15.5.2-.3.3-.6.3-.9.1-8.5-.4-17-.7-25.5l-.4-12.7c-.02-.4-.02-.78-.04-1.17h-2.7c.01.36.02.72.03,1.07.2,6.5.5,13.1.7,19.6-.2,4.5-.1,9.4,0,14l.2,19.6c.1,12.6.3,25.3.4,37.9.6,50.1,1.2,100.3,1.8,150.4.3,28.4.4,89.7.9,117.9.1,3.8.7,3.9,1.2,2.6.6-1.6,1-2.2,1-6.1-.2-50.8-.6-137.9-1.2-188.6l-.9-75.9Z"/>
    <path class="cls-1" d="m96.76,88.8c-.1-12.2-.3-24.5-.4-36.7-.1-5.2-.1-10.3-.2-15.5.2-.3.3-.6.3-.9.1-8.5-.4-17-.7-25.5l-.4-12.7c-.02-.43-.03-.85-.04-1.27h-2.69c.01.36.02.72.03,1.07.2,6.5.5,13.1.7,19.6-.2,4.5-.1,9.4,0,14l.2,19.6c.1,12.6.3,25.3.4,37.9.6,50.1,1.2,100.3,1.8,150.4.3,28.4.4,90.5.9,118.8.1,3.8.7,3.9,1.2,2.6.6-1.6,1-2.2,1-6.1-.2-50.8-.6-138.7-1.2-189.4l-.9-75.9Z"/>
    <path class="cls-1" d="m216.36,86.5c-.1-12.2-.3-24.5-.4-36.7-.1-5.2-.1-10.3-.2-15.5.2-.3.3-.6.3-.9.1-8.5-.4-17-.7-25.5l-.35-11.67h-2.69c.2,5.98.46,12.54.64,18.37-.2,4.5-.1,9.4,0,14l.2,19.6c.1,12.6.3,25.3.4,37.9.6,50.1,1.2,100.3,1.8,150.4.3,28.4.3,94.6.9,122.9.1,3.8.7,3.9,1.2,2.6.6-1.6,1-2.2,1-6.1-.2-50.8-.6-142.8-1.2-193.5l-.9-75.9Z"/>
    <path class="cls-1" d="m181.36,38.9c-.1-5.5-.2-10.9-.3-16.4-.1-3.7-.2-2.5-.3-6.1-.06-2.14-.46-11.72-.9-20.17h-3.01c.42,8.32,1.05,18.83,1.11,21.17.1,3.7.3,2.6.4,6.3.2,7.3.5,14.6.8,22-.1,1.5-.2,3.1-.2,4.7-.2,22-.1,44.2-.2,66.2,0,22.4-.1,44.9-.1,67.3-.1,44.3-1.5,130.4-.5,174.1.1,2.7.2,3.7,1.2,2.7,1.1-1,1.1-5.7,1.2-9.7.2-44.7.7-130.5.8-175.1.1-22.1.1-44.1.2-66.2.1-22.4.3-45,.1-67.3,0-1.8-.1-2.9-.3-3.5Z"/>
    <path class="cls-1" d="m260.06,98.4c-.1-12.2-.3-24.5-.4-36.7-.1-5.2-.1-10.3-.2-15.5.2-.3.3-.6.3-.9.1-8.5-.4-17-.7-25.5l-.4-12.7c-.1-2.1-.1-4.1-.2-6.1,0-1.1-.1-2.2-.1-3.3,0-.46,0-1-.09-1.47h-2.71c0,.39.05.78.1,1.17l.1,3.3c.1,2.1.1,4.2.2,6.3.2,6.5.5,13.1.7,19.6-.2,4.5-.1,9.4,0,14l.2,19.6c.1,12.6.3,25.3.4,37.9.6,50.1,1.2,100.3,1.8,150.4.3,28.4.4,81.4,1,109.7.1,3.8.7,3.9,1.2,2.6.6-1.6,1-2.2,1-6.1-.2-50.8-.7-129.7-1.3-180.4l-.9-75.9Z"/>
    <path class="cls-1" d="m54.76,90.8c-.1-12.2-.2-24.5-.3-36.7,0-5.2-.1-10.3-.1-15.5.2-.3.1-5.5.1-5.9.1-8.5-.1-12.1-.4-20.5l-.4-12.7c-.05-1.12-.08-2.2-.11-3.27h-2.69c.02,1.02.05,2.05.1,3.07.2,6.5.4,13.1.7,19.6-.2,4.5-.1,9.4-.1,14l.2,19.6c.1,12.6.2,25.3.3,37.9.4,50.1.9,100.3,1.3,150.4.3,28.4.1,89.7.6,117.9.1,3.8.7,3.9,1.2,2.6.6-1.6,1-2.2,1-6.1-.1-50.8-.3-137.9-.7-188.6l-.7-75.8Z"/>
    <path class="cls-1" d="m7.56,90.3c-.1-12.2-.2-24.5-.3-36.7,0-5.2-.1-10.3-.1-15.5.2-.3.1-4.3.1-4.7.1-8.5-.1-13.3-.4-21.7l-.4-12.7c-.04-.94-.07-1.86-.09-2.77h-2.8c.02.89.04,1.78.08,2.67.2,6.5.4,13.1.7,19.6-.2,4.5-.1,9.4-.1,14l.2,19.6c.1,12.6.2,25.3.3,37.9.4,50.1.9,100.3,1.3,150.4.3,28.4.1,89.7.6,117.9.1,3.8.7,3.9,1.2,2.6.6-1.6,1-2.2,1-6.1-.1-50.8-.3-137.9-.7-188.6l-.6-75.9Z"/>
    <path class="cls-1" d="m291.36,35.9c-.1-5.5-.2-10.9-.3-16.4-.1-3.7-.2-7.4-.3-11.1-.1-3.3.2-4-.3-11.3-.1-1-1-1-1.5-.7-.7.3-1.3,1.1-1.3,1.9-.1,3.7.2,7.4.3,11.1s.2,7.5.3,11.3c.2,7.3.5,14.6.8,22-.1,1.5-.2,3.1-.2,4.7-.2,22-.1,44.2-.2,66.2,0,22.4-.1,44.9-.1,67.3-.1,44.3-1.5,134.5-.5,178.2.1,2.7.2,3.7,1.2,2.7,1.1-1,1.1-5.7,1.2-9.7.2-44.7.7-134.6.9-179.2.1-22.1.1-44.1.2-66.2.1-22.4.3-45,.1-67.3,0-1.8-.1-2.9-.3-3.5Z"/>
  </g>
</svg>