<svg width="28" height="28" viewBox="0 0 28 28" fill="none" xmlns="http://www.w3.org/2000/svg">
<path fill-rule="evenodd" clip-rule="evenodd" d="M14 3.11111C20.0138 3.11111 24.8889 7.98623 24.8889 14C24.8889 20.0138 20.0138 24.8889 14 24.8889C12.693 24.8889 11.443 24.6593 10.2861 24.2395C9.77609 24.0545 9.209 24.0132 8.65585 24.149C7.17016 24.5139 5.65346 24.7454 4.12388 24.84C4.69906 23.3246 4.89779 21.6862 4.69558 20.0679C4.6506 19.7079 4.53286 19.3922 4.39299 19.1309C3.57538 17.6037 3.11111 15.8584 3.11111 14C3.11111 7.98623 7.98623 3.11111 14 3.11111ZM28 14C28 6.26801 21.732 0 14 0C6.26801 0 0 6.26801 0 14C0 16.3593 0.584855 18.5865 1.61873 20.5402C1.7801 21.9804 1.48108 23.4394 0.758071 24.7047L0.694269 24.8163C-0.116356 26.2349 0.907951 28 2.54183 28C4.82516 28 7.0954 27.7279 9.30521 27.1929C10.7748 27.7159 12.3559 28 14 28C21.732 28 28 21.732 28 14ZM7.77778 15.5556C8.63689 15.5556 9.33333 14.8591 9.33333 14C9.33333 13.1409 8.63689 12.4444 7.77778 12.4444C6.91867 12.4444 6.22222 13.1409 6.22222 14C6.22222 14.8591 6.91867 15.5556 7.77778 15.5556ZM15.5556 14C15.5556 14.8591 14.8591 15.5556 14 15.5556C13.1409 15.5556 12.4444 14.8591 12.4444 14C12.4444 13.1409 13.1409 12.4444 14 12.4444C14.8591 12.4444 15.5556 13.1409 15.5556 14ZM20.2222 15.5556C21.0813 15.5556 21.7778 14.8591 21.7778 14C21.7778 13.1409 21.0813 12.4444 20.2222 12.4444C19.3631 12.4444 18.6667 13.1409 18.6667 14C18.6667 14.8591 19.3631 15.5556 20.2222 15.5556Z" fill="#EF7D3E"/>
</svg>
