<svg width="26" height="25" viewBox="0 0 26 25" fill="none" xmlns="http://www.w3.org/2000/svg">
<path d="M1.60886 15.1814C0.618574 13.531 0.618574 11.469 1.60886 9.81857C1.91105 9.31491 2.41169 8.96211 2.98763 8.84692L5.33906 8.37663C5.47916 8.34861 5.60543 8.27348 5.69689 8.16373L9.67084 3.39499C10.8534 1.97592 11.4447 1.26638 11.9723 1.45742C12.5 1.64846 12.5 2.57207 12.5 4.41928L12.5 20.5807C12.5 22.4279 12.5 23.3515 11.9723 23.5426C11.4447 23.7336 10.8534 23.0241 9.67084 21.605L5.69689 16.8363C5.60543 16.7265 5.47916 16.6514 5.33907 16.6234L2.98764 16.1531C2.41169 16.0379 1.91105 15.6851 1.60886 15.1814Z" fill="white"/>
<path d="M16.0217 7.58964C17.3173 8.88528 18.0484 10.6405 18.0556 12.4728C18.0628 14.305 17.3456 16.0659 16.0602 17.3717" stroke="white" stroke-width="2" stroke-linecap="round"/>
<path d="M21.7457 4.64353C23.8187 6.71654 24.9884 9.52484 25 12.4565C25.0115 15.3882 23.864 18.2056 21.8073 20.2949" stroke="white" stroke-width="2" stroke-linecap="round"/>
</svg>
