<svg width="54" height="48" viewBox="0 0 54 48" fill="none" xmlns="http://www.w3.org/2000/svg">
<ellipse cx="23" cy="25.5" rx="23" ry="22.5" fill="#F4EEE9"/>
<path d="M20.3542 9C20.5519 9 20.7496 9 20.9341 9.02427C20.7496 9.02427 20.5519 9.01214 20.3542 9ZM20.9868 9.02427C20.9868 9.02427 20.9868 9.02427 21 9.02427C21 9.02427 21 9.02427 20.9868 9.02427Z" fill="#CCC9CC"/>
<path d="M34 37L36 39L34 37Z" fill="#C6885D"/>
<mask id="mask0_271_7310" style="mask-type:alpha" maskUnits="userSpaceOnUse" x="0" y="2" width="46" height="47">
<circle cx="23.1407" cy="25.286" r="22.7164" fill="#CAE7EE"/>
</mask>
<g mask="url(#mask0_271_7310)">
<path d="M10.7109 21.8571C10.7109 28.2537 15.8995 33.4296 22.2835 33.4296C28.6674 33.4296 33.856 28.241 33.856 21.8571C33.856 15.4731 28.6674 10.2845 22.2835 10.2845C15.8995 10.2845 10.7109 15.4731 10.7109 21.8571Z" fill="#FDDBBC"/>
<path d="M10.7109 21.8571C10.7109 28.2537 15.8995 33.4296 22.2835 33.4296C28.6674 33.4296 33.856 28.241 33.856 21.8571C33.856 15.4731 28.6674 10.2845 22.2835 10.2845C15.8995 10.2845 10.7109 15.4731 10.7109 21.8571Z" fill="#FDDBBC"/>
<path d="M34.6947 47.9894H10.7109L11.3252 40.4215C11.652 36.4804 15.8867 33.4297 20.8142 33.4297H22.9969H31.7147V33.469L35.5704 39.6228C35.113 39.9501 34.6163 40.2382 34.0804 40.4739L34.6947 48.0025V47.9894Z" fill="#EF9C32"/>
<path d="M10.757 23.143C10.757 23.143 14.3055 20.2311 14.4469 15.5903C14.4469 15.5903 25.9793 19.6981 32.999 17.1632C32.999 17.1632 30.9291 8.86959 20.5795 8.5706C20.5795 8.5706 13.187 8.41461 13.4055 14.1734C13.4055 14.1734 7.71002 15.8113 10.7442 23.143" fill="#906C59"/>
<path d="M35.5331 20.6486V20.5834C35.5331 20.4269 35.5463 20.2834 35.5727 20.1269V20.0747V15.8619C35.5727 15.1446 36.061 14.5707 36.6548 14.5707C37.2486 14.5707 37.7368 15.1446 37.7368 15.8619V17.6227C37.8555 17.6096 37.9611 17.5966 38.0799 17.5966C39.4786 17.5966 40.6134 18.94 40.6134 20.5834V20.6486C40.6134 20.6486 41.9066 34.6304 35.2032 39.4302L31.2842 33.287C32.9336 32.361 35.5727 29.5046 35.5331 20.6616" fill="#FDDBBC"/>
<path d="M20.3749 8.57019C20.5656 8.57019 20.7562 8.57019 20.9342 8.59516C20.7562 8.59516 20.5656 8.58267 20.3749 8.57019ZM20.985 8.59516C20.985 8.59516 20.985 8.59516 20.9977 8.59516C20.9977 8.59516 20.9977 8.59516 20.985 8.59516Z" fill="#CCC9CC"/>
<path d="M33.856 36.8585L35.5704 39.4302L33.856 36.8585Z" fill="#C6885D"/>
</g>
<path d="M54 7.74713C54 12.023 50.3442 19 45.9288 19C41.5134 19 38 12.0345 38 7.74713C38 3.45977 41.5846 0 46 0C50.4154 0 54 3.47126 54 7.74713Z" fill="#FED144"/>
<path d="M48.9883 13.6735C48.9883 15.6939 47.39 19 45.465 19C43.54 19 42 15.6939 42 13.6735C42 11.6531 43.5633 10 45.5 10C47.4367 10 49 11.6408 49 13.6735" fill="#FED144"/>
<path d="M43.0116 18C43.0116 18.0873 43 18.1636 43 18.2509V21.4473C43 22.5491 44.2601 24 45.3006 24H46.7688C47.8092 24 49 22.5491 49 21.4473V18.2509C49 18.1636 49 18.0873 48.9884 18H43.0231H43.0116Z" fill="#BBC1B6"/>
</svg>
