<svg width="441" height="184" viewBox="0 0 441 184" fill="none" xmlns="http://www.w3.org/2000/svg">
<path d="M440.36 179.872L438.455 183.221L373.224 171.56L108.553 35.7834L124.085 2.41528L391.26 136.764L440.36 179.872Z" fill="#FED061"/>
<path d="M109.936 32.8186C109.936 32.8186 99.5811 30.4988 96.5085 22.4794C93.436 14.46 103.299 2.56915 108.43 0.402991C113.561 -1.74781 122.687 5.41128 122.687 5.41128L109.936 32.8033V32.8186Z" fill="#3A60A9"/>
<path d="M116.803 40.0239L132.366 6.59436L391.261 136.764C391.261 136.764 383.564 145.121 353.099 131.418C353.099 131.418 388.542 143.862 386.314 152.188C384.086 160.499 345.449 143.693 345.449 143.693C345.449 143.693 384.701 162.435 373.225 171.576L116.803 40.0239Z" fill="#D73532"/>
<path d="M440.361 179.872L438.456 183.221L420.481 180.01L427.241 168.35L440.361 179.872Z" fill="#D73532"/>
<path d="M174.506 27.1346C174.675 30.5298 176.365 33.8789 178.393 36.5981C182.126 41.6064 187.58 45.0784 192.957 48.0895C204.648 54.6341 216.692 60.5949 228.568 66.8168C233.561 69.4285 238.554 72.0556 243.562 74.6673L292.631 97.8345C299.298 100.984 305.92 104.21 312.618 107.267C314.892 108.312 317.58 109.387 320.115 108.896C321.39 108.65 322.45 108.02 323.387 107.175C323.51 107.114 323.618 107.068 323.741 107.006C325.277 106.146 326.306 104.932 327.013 103.519C327.243 103.688 327.474 103.811 327.689 103.964C329.026 104.901 330.47 105.623 331.975 106.207H332.006C331.668 107.221 331.207 108.189 330.623 109.065C330.024 110.739 328.995 112.26 327.612 113.412C327.121 113.827 326.568 114.15 326.014 114.442C325.968 114.472 325.938 114.503 325.892 114.549C323.372 116.239 319.961 115.993 317.165 115.348C313.955 114.626 310.805 113.443 307.763 112.214C301.511 109.71 295.535 106.637 289.574 103.519C283.137 100.154 276.7 96.7744 270.263 93.41C260.861 88.4938 251.474 83.5624 242.072 78.6462C235.665 75.6198 229.259 72.5933 222.853 69.5668C216.508 66.571 210.148 63.6214 203.834 60.5642C198.195 57.8296 192.603 54.926 187.457 51.3311C181.834 47.3982 176.488 42.5896 172.985 36.6288C170.988 33.2336 169.498 29.0703 169.866 25.0913C171.372 25.8134 172.924 26.474 174.491 27.1192" fill="white"/>
<path d="M332.651 159.547C324.816 155.522 318.732 149.331 311.942 144.03C312.111 144.076 312.295 144.153 312.48 144.276C315.767 146.519 319.086 148.747 322.435 150.944C332.221 156.09 341.853 161.544 351.332 167.228C344.941 165.078 338.673 162.635 332.636 159.547" fill="#D73532"/>
<path d="M121.32 4.42834L106.664 31.7281L109.936 32.8189L122.687 5.42693L121.32 4.42834Z" fill="#0B0C0C"/>
<path d="M108.477 35.292L116.788 39.8087L132.796 6.47131L123.225 2.40015L108.477 35.292Z" fill="white"/>
<path d="M49.667 13.0464C49.667 13.0464 -1.09191 59.2886 0.429017 60.7481C1.94994 62.2075 19.5097 56.3543 22.7359 57.8291C25.9621 59.2886 20.6926 72.1627 23.6116 74.5132C26.5305 76.8637 39.42 65.741 44.6894 66.3248C49.9589 66.9086 50.2508 78.6151 56.396 79.1989C62.5411 79.7826 66.643 70.1194 66.643 70.1194C66.643 70.1194 73.9557 78.6612 75.4305 79.2142C76.89 79.7673 64.5997 18.0086 64.5997 18.0086C64.5997 18.0086 63.724 21.8186 61.9726 21.5267C60.2213 21.2348 59.0383 16.2572 59.0383 16.2572C59.0383 16.2572 53.7689 22.4024 51.7256 21.5267C49.6824 20.651 49.6824 13.031 49.6824 13.031" fill="#FED061"/>
<path d="M71.3286 24.753C71.0367 25.6287 83.9108 73.3457 84.7865 74.5133C85.6622 75.6809 88.5965 68.66 88.3046 65.1419C88.0127 61.6239 79.8243 19.4835 79.8243 19.4835C79.8243 19.4835 77.7196 25.3368 75.5534 26.2125C73.3872 27.0881 71.3286 24.753 71.3286 24.753Z" fill="#FED061"/>
<mask id="mask0_337_309" style="mask-type:luminance" maskUnits="userSpaceOnUse" x="1" y="13" width="75" height="67">
<path d="M1.2124 59.3654V60.9939C2.91768 61.1014 6.86594 60.2104 10.9678 59.3039C15.9454 58.2132 21.1534 57.1071 22.7665 57.8445C25.9927 59.304 20.7232 72.1934 23.6422 74.5285C25.2092 75.7883 29.6183 73.1766 34.1965 70.5803C38.1754 68.3219 42.262 66.0636 44.72 66.3248C49.9895 66.9086 50.2814 78.6151 56.4265 79.1989C62.5717 79.7826 66.6735 70.1194 66.6735 70.1194C66.6735 70.1194 73.9863 78.6612 75.4611 79.2142C76.9206 79.7673 64.6303 18.0086 64.6303 18.0086C64.6303 18.0086 63.7546 21.8186 62.0033 21.5267C60.2519 21.2348 59.0843 16.2572 59.0843 16.2572C59.0843 16.2572 53.8148 22.4024 51.7716 21.5267C49.7283 20.651 49.7283 13.031 49.7283 13.031C49.7283 13.031 7.61871 51.3921 1.25849 59.35" fill="white"/>
</mask>
<g mask="url(#mask0_337_309)">
<path d="M37.9756 18.546C37.9756 18.546 39.2046 32.6952 42.0928 34.6155C44.981 36.5513 55.9194 26.5808 55.9194 26.5808C55.9194 26.5808 54.3063 34.6155 55.9194 36.5513C57.5325 38.487 61.7112 27.5486 61.7112 27.5486L67.6413 33.5555V12.4623L49.805 9.23608L37.9756 18.546Z" fill="#D73532"/>
<path d="M2.24175 51.9755C2.24175 51.9755 22.49 51.0077 26.346 53.9113C30.2021 56.7995 26.346 69.3356 26.346 69.3356C26.346 69.3356 38.8822 59.6877 45.6265 62.9139C52.3708 66.1247 56.8721 76.0952 56.8721 76.0952C56.8721 76.0952 64.2463 65.1722 67.6261 67.0926C71.0059 69.0283 79.8088 80.5965 79.8088 80.5965L33.7202 96.7736L-0.99984 69.9962L-3.13525 57.4601L2.21099 51.9909L2.24175 51.9755Z" fill="#D73532"/>
</g>
<mask id="mask1_337_309" style="mask-type:luminance" maskUnits="userSpaceOnUse" x="71" y="19" width="18" height="56">
<path d="M75.5532 26.2126C73.387 27.0883 71.3438 24.7531 71.3438 24.7531C71.0519 25.6288 83.926 73.3458 84.8016 74.5134C85.6773 75.681 88.6116 68.6602 88.3197 65.1421C88.0279 61.624 79.8394 19.4836 79.8394 19.4836C79.8394 19.4836 77.7347 25.3369 75.5685 26.2126" fill="white"/>
</mask>
<g mask="url(#mask1_337_309)">
<path d="M80.8843 18.8844C79.9164 18.5771 78.8411 18.8844 78.2573 19.7601C78.0883 20.0212 77.9039 20.2824 77.7196 20.5282C77.6274 20.6511 77.5506 20.7587 77.4584 20.8816C77.4431 20.9123 77.3202 21.0505 77.2741 21.112C77.1973 21.1888 77.105 21.3117 77.0897 21.3271C76.9975 21.4346 76.9053 21.5422 76.8132 21.6497C76.8132 21.6497 76.8132 21.6497 76.7978 21.6651C76.552 21.4039 76.1987 21.1888 75.876 21.0966C74.9235 20.8508 73.7406 21.1735 73.3565 22.172C73.2029 22.5715 73.0953 22.9709 73.0185 23.3703C73.0185 23.3703 73.0185 23.355 73.0185 23.3396C72.6959 22.7097 72.0046 22.341 71.3133 22.4332C70.6988 22.5254 70.1764 23.0477 70.2993 23.7237C70.5144 24.8759 70.7756 25.9359 71.4054 26.9499C71.8356 27.6412 72.4194 28.2096 73.1415 28.5937C74.0632 29.0853 75.0465 29.3311 76.0758 29.1468C76.9054 29.0085 77.6889 28.563 78.288 27.9792C80.2237 26.1049 81.5603 23.6008 82.2362 21.0045C82.482 20.0212 81.8215 19.1609 80.9151 18.869" fill="#D73532"/>
<path d="M91.1618 62.8685C90.6702 62.592 89.7024 62.5305 89.4412 63.1758C89.2415 63.652 89.0264 64.1283 88.8113 64.5891C88.627 64.6813 88.4733 64.835 88.3351 65.0347C88.0585 65.4648 87.782 65.895 87.5209 66.3405C85.8463 69.0444 84.2947 71.8097 82.8813 74.6518C82.8506 74.6979 82.8352 74.7594 82.8198 74.8054C82.8198 74.8208 82.7891 74.8362 82.7737 74.8515C82.7737 74.8515 82.7737 74.8515 82.7891 74.8515C82.574 75.5275 82.8659 76.1727 83.3882 76.5568C83.7262 77.7705 85.7234 78.2467 86.3686 76.9102C87.7667 73.9759 89.0725 71.0108 90.3323 68.0151C90.5934 67.5695 90.8392 67.1394 91.1311 66.7092C91.3616 66.3559 91.3923 66.0025 91.3001 65.6799C91.4537 65.2958 91.6228 64.9118 91.7764 64.5123C92.0376 63.8671 91.7764 63.2218 91.1772 62.8685" fill="#D73532"/>
<path d="M91.1618 62.8685C90.6702 62.592 89.7024 62.5305 89.4412 63.1758C89.2415 63.652 89.0264 64.1283 88.8113 64.5891C88.627 64.6813 88.4733 64.835 88.3351 65.0347C88.0585 65.4648 87.782 65.895 87.5209 66.3405C85.8463 69.0444 84.2947 71.8097 82.8813 74.6518C82.8506 74.6979 82.8352 74.7594 82.8198 74.8054C82.8198 74.8208 82.7891 74.8362 82.7737 74.8515C82.7737 74.8515 82.7737 74.8515 82.7891 74.8515C82.574 75.5275 82.8659 76.1727 83.3882 76.5568C83.7262 77.7705 85.7234 78.2467 86.3686 76.9102C87.7667 73.9759 89.0725 71.0108 90.3323 68.0151C90.5934 67.5695 90.8392 67.1394 91.1311 66.7092C91.3616 66.3559 91.3923 66.0025 91.3001 65.6799C91.4537 65.2958 91.6228 64.9118 91.7764 64.5123C92.0376 63.8671 91.7764 63.2218 91.1772 62.8685" fill="#D73532"/>
</g>
<path d="M23.4119 57.3835C23.1661 56.6922 22.3825 56.3696 21.7066 56.4464C14.6243 57.3375 7.55739 58.8123 0.598015 60.4254C-0.677102 60.7173 0.321482 62.7298 1.41225 62.5147C8.4638 61.1321 15.5461 60.026 22.6284 58.8277C23.3043 58.7047 23.6423 58.0134 23.4119 57.3835Z" fill="#0B0C0C"/>
<path d="M44.1058 65.1114C37.93 67.8921 31.8155 70.811 25.7472 73.7761C24.4567 74.4059 25.655 76.3109 26.8226 75.804C33.106 73.0386 39.374 70.2119 45.5653 67.2622C47.0401 66.5555 45.427 64.5276 44.1212 65.1114" fill="#0B0C0C"/>
<path d="M66.5665 70.8724C63.9855 73.269 61.3891 75.6656 58.8082 78.0622C58.3627 78.4617 58.3473 79.0608 58.7468 79.5217C59.0694 79.9058 59.8682 80.2438 60.3138 79.8443C63.0023 77.4631 65.7061 75.0665 68.3946 72.6852C69.5161 71.6866 67.5957 69.9353 66.5818 70.8724" fill="#0B0C0C"/>
<path d="M84.7715 31.1594C85.3092 35.8144 85.9852 40.4693 86.8455 45.0935C87.3678 47.8589 87.9363 50.6242 88.5508 53.3741C89.0424 55.5557 89.4418 57.8754 90.1485 60.0416C88.7351 50.3169 87.8133 40.5 84.7715 31.1594Z" fill="#FED061"/>
<path d="M47.1012 5.02731C46.5482 4.55106 45.6725 4.39743 45.0119 4.73542C44.7047 4.88905 44.3974 5.0734 44.0901 5.24239C43.8751 5.24239 43.6753 5.27312 43.5063 5.38066C39.5427 7.93089 36.1015 11.2185 33.244 14.9671C32.3222 16.1654 34.1043 17.6556 35.3026 17.1025C35.3794 17.0564 35.4716 17.0103 35.5484 16.9796C35.9325 17.0257 36.3472 16.9796 36.7159 16.8106C40.0343 15.3972 42.9072 12.9853 44.9505 10.0202C45.8569 9.02166 46.7018 7.96162 47.4699 6.85549C47.8694 6.2717 47.6082 5.47283 47.1166 5.04267" fill="#FED061"/>
<path d="M57.5791 2.53826C56.9953 2.27709 55.9814 2.26173 55.5973 2.89161C55.459 3.02987 55.3515 3.19886 55.2901 3.42931C55.2901 3.46003 55.2747 3.50612 55.2593 3.53685C54.8445 4.35108 54.4912 5.18067 54.2454 6.07172C54.0917 6.64014 53.9996 7.20857 53.9074 7.777C53.8306 8.26861 53.7231 8.82167 53.7999 9.31328C53.8613 9.72808 53.9535 10.0353 54.2454 10.3426C54.5219 10.6191 54.9981 10.8496 55.3976 10.8649C55.7816 10.8803 56.2118 10.8188 56.5191 10.5577C56.8263 10.2965 56.9493 10.0046 57.0107 9.62054C57.0107 9.52836 57.0414 9.3901 57.0414 9.35937C57.0414 9.31328 57.0414 9.25183 57.0414 9.20574C57.2565 8.49905 57.4562 7.777 57.6559 7.0703C57.9324 6.13317 58.1936 5.19604 58.4701 4.2589C58.6852 3.52148 58.209 2.83016 57.5484 2.5229" fill="#D73532"/>
<path d="M57.0259 9.60535C57.0259 9.60535 57.0259 9.62071 57.0259 9.63607C57.0259 9.71289 57.0105 9.75898 57.0259 9.60535Z" fill="#D73532"/>
</svg>
