<svg width="479" height="108" viewBox="0 0 479 108" fill="none" xmlns="http://www.w3.org/2000/svg">
<path d="M479 10.3789V59.6535L4.88259 63L0 14.1787C0 14.1787 161.299 14.719 184.907 13.6383C208.514 12.5577 207.423 9.83862 222.719 10.3877C238.015 10.9367 254.748 17.9784 278.34 16.8978C301.931 15.8171 446.528 8.21763 478.984 10.3877L479 10.3789Z" fill="#EF7D3E"/>
<path d="M332.965 1.21261C339.704 4.47146 342.536 12.2073 342.314 19.2945C342.172 23.7556 341.001 28.1535 339.688 32.409C338.312 36.8859 336.872 41.3313 335.464 45.7924C332.617 54.7938 329.769 63.7952 326.922 72.7966C325.498 77.2893 324.074 81.7979 322.65 86.2907C321.369 90.3247 320.293 94.5802 318.253 98.3295C314.804 104.657 306.973 110.7 299.775 106.144C292.736 101.699 293.147 92.2389 295.267 85.2783C298.272 75.4226 302.259 65.7726 305.897 56.1385C308.951 48.0546 311.988 39.8917 315.421 31.9502C315.532 32.0135 315.642 32.0926 315.753 32.14C316.449 32.4564 317.209 32.6621 317.952 32.8045C318.205 32.8519 318.474 32.8994 318.727 32.9627C318.775 32.9785 318.838 33.0101 318.87 33.0259C316.987 38.7052 314.883 44.337 312.921 49.9846C310.264 57.6413 307.479 65.2664 304.727 72.8915C303.303 76.8622 301.737 80.8171 300.535 84.8511C299.491 88.3315 298.715 92.1282 299.997 95.6718C300.867 98.0605 302.734 100.449 305.233 101.24C308.049 102.126 310.833 100.782 312.558 98.5193C314.598 95.8616 315.453 92.3971 316.449 89.249L320.119 77.6057C322.556 69.8541 325.008 62.0866 327.444 54.335C329.896 46.5359 332.506 38.7527 334.784 30.8903C336.683 24.3568 337.885 17.143 333.835 11.1632C332.079 8.56875 329.295 6.46474 326.083 6.2749C322.619 6.06924 319.344 7.8885 317.082 10.4038C314.551 13.2039 312.921 16.7001 311.324 20.0696C311.26 20.1962 311.197 20.3386 311.134 20.4651C310.928 20.4335 310.722 20.4019 310.517 20.4177C308.792 20.4177 307.1 20.4651 305.407 20.655C305.755 19.9589 306.087 19.247 306.435 18.551C308.191 14.9124 310.058 11.2581 312.637 8.1258C317.351 2.36744 325.561 -2.33099 332.965 1.24425V1.21261Z" fill="#D83331"/>
</svg>
