<svg width="57" height="49" viewBox="0 0 57 49" fill="none" xmlns="http://www.w3.org/2000/svg">
<ellipse cx="23" cy="26.5" rx="23" ry="22.5" fill="#F4EEE9"/>
<path d="M20.3542 10C20.5519 10 20.7496 10 20.9341 10.0243C20.7496 10.0243 20.5519 10.0121 20.3542 10ZM20.9868 10.0243C20.9868 10.0243 20.9868 10.0243 21 10.0243C21 10.0243 21 10.0243 20.9868 10.0243Z" fill="#CCC9CC"/>
<path d="M34 38L36 40L34 38Z" fill="#C6885D"/>
<mask id="mask0_271_7386" style="mask-type:alpha" maskUnits="userSpaceOnUse" x="0" y="4" width="46" height="45">
<ellipse cx="23" cy="26.5" rx="23" ry="22.5" fill="#F4EEE9"/>
<path d="M20.3542 10C20.5519 10 20.7496 10 20.9341 10.0243C20.7496 10.0243 20.5519 10.0121 20.3542 10ZM20.9868 10.0243C20.9868 10.0243 20.9868 10.0243 21 10.0243C21 10.0243 21 10.0243 20.9868 10.0243Z" fill="#CCC9CC"/>
<path d="M34 38L36 40L34 38Z" fill="#C6885D"/>
</mask>
<g mask="url(#mask0_271_7386)">
<path d="M38.9952 24.1038H6.80176C6.02859 24.1038 5.70865 23.1307 6.32186 22.6641L23.1184 10L39.4884 22.6641C40.0883 23.1307 39.7684 24.0905 38.9952 24.0905" fill="#C65035"/>
<path d="M23.1187 12.3994L7.44189 24.1037V49.032H38.8088V24.1037L23.1187 12.3994Z" fill="#FDDBBC"/>
<path d="M28.1709 49.032H18.0796V36.6879C18.0796 35.6481 18.9327 34.7949 19.9725 34.7949H26.2779C27.3177 34.7949 28.1709 35.6481 28.1709 36.6879V49.032Z" fill="#906C59"/>
<path d="M35.1427 19.3181L30.5303 16.6387V13.0527H35.1427V19.3181Z" fill="#C65035"/>
<path d="M26.9975 24.1037C26.9975 26.3699 25.1579 28.1962 22.905 28.1962C20.6521 28.1962 18.8125 26.3699 18.8125 24.1037C18.8125 21.8375 20.6521 20.0112 22.905 20.0112C25.1579 20.0112 26.9975 21.8509 26.9975 24.1037Z" fill="white"/>
</g>
<path d="M54.7556 2.33286C52.9959 0.879821 50.7297 0 48.2636 0C44.3577 0 40.985 2.19955 39.2387 5.41223C37.799 4.85234 36.1327 4.98565 34.7996 5.97212C33.7199 6.78528 33.1333 7.97171 33 9.21146V11.8109L36.8392 10.1979C38.3989 9.54472 40.0652 9.21146 41.7582 9.21146H52.2627C55.902 9.21146 57.5683 4.63906 54.7556 2.31953" fill="#BBC1B6"/>
</svg>
