<svg width="18" height="23" viewBox="0 0 18 23" fill="none" xmlns="http://www.w3.org/2000/svg">
<g clip-path="url(#clip0_396_253)">
<path d="M13.5156 12.5531C13.935 11.7685 14.3539 10.9831 14.7733 10.1986C14.7983 10.156 14.9267 9.91877 14.8649 9.65948C14.8238 9.48804 14.7114 9.35175 14.5302 9.25488C14.349 9.15801 14.1643 9.13772 13.9898 9.19853C13.6954 9.30136 13.541 9.60028 13.5359 9.60971L12.9142 10.7726C11.7743 12.9044 10.6347 15.0358 9.4949 17.1677L9.48099 17.1937C9.40684 17.3324 9.33029 17.4756 9.24982 17.6109C8.69679 18.5398 7.73953 19.102 6.6896 19.116C5.64315 19.1296 4.7317 18.5938 4.2517 17.6827C3.74215 16.7154 3.75956 15.709 4.30314 14.6913C5.73591 12.0086 7.17061 9.32625 8.60464 6.64415L9.84286 4.32828C9.87622 4.2659 9.91252 4.20509 9.94318 4.15281C10.2634 3.61474 10.7903 3.26859 11.3884 3.20285C11.9861 3.13689 12.5425 3.36397 12.9147 3.82501C13.3968 4.4221 13.4485 5.2577 13.0494 6.0052C11.9463 8.0713 10.842 10.1367 9.73726 12.2019L8.55567 14.4119C8.54008 14.4411 8.52544 14.4684 8.50989 14.4924C8.37798 14.7007 8.17554 14.8412 7.95364 14.8772C7.73523 14.9128 7.52444 14.848 7.36074 14.6941C7.10826 14.4569 7.07015 14.0874 7.26165 13.7292C8.04999 12.2538 8.83876 10.7785 9.62728 9.30374L10.4645 7.73783C10.491 7.69431 10.6047 7.48786 10.5508 7.25014C10.5114 7.07556 10.394 6.93545 10.2023 6.83294C9.59636 6.50898 9.26192 7.09599 9.25736 7.10452C8.94276 7.69291 8.6335 8.27031 8.32689 8.84276C7.53614 10.3187 6.78888 11.7122 6.00237 13.2066C5.47092 14.2157 5.80768 15.49 6.75267 16.0472C7.24617 16.3382 7.82579 16.4022 8.38301 16.2275C8.95627 16.0481 9.44019 15.6385 9.74502 15.0755C10.076 14.4635 10.4091 13.8395 10.7308 13.2358C10.8697 12.976 11.0085 12.7154 11.147 12.4553C11.4626 11.8651 11.7787 11.2759 12.0947 10.6859C12.8223 9.32914 13.5746 7.92616 14.3045 6.54066C15.1495 4.93906 14.6255 2.96622 13.1376 2.14244C12.3756 1.7194 11.4947 1.63801 10.6606 1.91224C9.82194 2.18871 9.11478 2.7969 8.66916 3.6263C6.79909 7.10367 4.91968 10.6188 3.08325 14.0737C2.64454 14.8993 2.44737 15.8021 2.51309 16.6845C2.57881 17.5668 2.90416 18.3871 3.45455 19.0571C3.63476 19.2764 3.84867 19.464 4.05578 19.6452C4.12949 19.71 4.20386 19.7746 4.27619 19.8409L4.28715 19.8508L4.992 20.2542L5.0065 20.2585C5.06 20.275 5.11367 20.2922 5.16735 20.3093C5.27512 20.3439 5.38693 20.38 5.50035 20.41C7.49411 20.9341 9.53566 19.9816 10.5801 18.0393C11.5621 16.2127 12.5555 14.3528 13.5162 12.554L13.5156 12.5531Z" fill="#B6B3B3"/>
</g>
<defs>
<clipPath id="clip0_396_253">
<rect width="8.491" height="19.8123" fill="white" transform="translate(10.2729 0.611328) rotate(28.132)"/>
</clipPath>
</defs>
</svg>
