<svg width="20" height="21" viewBox="0 0 20 21" fill="none" xmlns="http://www.w3.org/2000/svg">
<path d="M12.9163 4.25763C13.1937 4.83623 13.6417 5.52401 14.2605 6.08078C14.8366 6.60479 15.6047 7.04147 16.5116 7.09606M4.48822 16.5393H15.4234M18.1012 10.8843V17.7183C18.1012 18.5699 17.429 19.2685 16.5862 19.2685H3.24002C2.40788 19.2685 1.7251 18.5808 1.7251 17.7183V4.06112C1.7251 3.2096 2.39721 2.51091 3.24002 2.51091H9.96113M16.8103 0.993439L18.8799 2.71833C19.0826 2.91484 19.1893 3.18776 19.1893 3.48252C19.1893 3.76636 19.072 4.03929 18.8693 4.2358L17.2904 6.20086L11.9241 12.9039C11.8281 13.0131 11.7108 13.1004 11.5614 13.1332L8.77694 13.7882C8.40354 13.7991 8.09416 13.5262 8.05148 13.1441L8.1795 10.3384C8.1795 10.1965 8.24351 10.0546 8.33953 9.9454L15.2847 1.2882C15.6367 0.796932 16.2982 0.665928 16.7996 0.993439H16.8103Z" stroke="#B6B3B3" stroke-width="1.5" stroke-linecap="round" stroke-linejoin="round"/>
</svg>
