<?xml version="1.0" encoding="UTF-8"?>
<svg id="Capa_1" data-name="Capa 1" xmlns="http://www.w3.org/2000/svg" xmlns:xlink="http://www.w3.org/1999/xlink" viewBox="0 0 755.05 80.74">
  <defs>
    <style>
      .cls-1 {
        fill: #fff;
      }

      .cls-2 {
        fill: #0c0c0c;
      }

      .cls-3 {
        fill: #76beea;
      }

      .cls-4 {
        fill: #3a60aa;
      }

      .cls-5 {
        clip-path: url(#clippath);
      }

      .cls-6 {
        fill: none;
      }
    </style>
    <clipPath id="clippath">
      <rect class="cls-6" width="755.05" height="80.73"/>
    </clipPath>
  </defs>
  <g class="cls-5">
    <g>
      <path class="cls-2" d="m40.19,70.83c-4.75-.59-9.66-.41-14.33.7-2.22.53-4.44,1.38-6.28,2.76-.69.52-1.56,1.16-1.93,2-.25.26-.44.58-.53.97-.28,1.22.62,1.97,1.62,2.41,2.67,1.18,5.74,1.26,8.73.83,2.13-.17,4.24-.64,6.2-1.31,2.16-.74,4.25-1.78,6.13-3.07.71-.48,1.55-1.06,1.86-1.86.24-.32.43-.65.55-1.01.18-.56.13-1.2-.24-1.67-.45-.57-1.12-.66-1.8-.75"/>
      <path class="cls-4" d="m29.55,22.66l-13.38,8.19-7.23,12.44,15.9,13.41,25.47.25,16.71-12.38-10.03-13.5-10.31-11.67-17.13,3.26Z"/>
      <path class="cls-1" d="m29.83,43.47l-5.04,13.29,25.52.19-4.64-12.52-15.84-.96Z"/>
      <path class="cls-3" d="m28.83,19.43l-12.66,11.37,12.4,16.15,17.83-.39,10.59-15.51-9.81-12.53-18.35.91Z"/>
      <path class="cls-3" d="m66.95,44.63l-16.61,12.31-7.96,18.54"/>
      <path class="cls-3" d="m24.87,56.74l-15.93-13.45,20.76,32.32-4.83-18.87Z"/>
      <path class="cls-4" d="m24.79,56.6l25.67.25-8.08,18.63-12.68.13-4.91-19.01Z"/>
      <path class="cls-1" d="m51.55,26.97c-.02-.1-.03-.19-.05-.29-.05-.1-.11-.2-.16-.3-.04-.07-.1-.13-.15-.2-.08-.11-.16-.21-.24-.32-.17-.22-.35-.45-.53-.67-.37-.46-.74-.91-1.13-1.35-.48-.54-.97-1.08-1.51-1.57-.27-.24-.54-.48-.84-.69-.1-.07-.19-.14-.28-.22-.33-.25-.64-.35-1.05-.39-.47-.04-.88.15-.96.65.08.33.15.66.23.98.02.03.04.06.06.09,0,0,.09.12.11.16.02.04.06.11.07.12.06.09.12.18.18.27.06.08.12.16.18.23,0,0,.02.03.05.07.1.13.19.26.29.39.37.48.76.95,1.14,1.42.37.45.73.9,1.08,1.36.19.24.37.49.55.74.08.11.15.23.24.33.36.43.79.59,1.34.66.74.09,1.68-.68,1.39-1.48"/>
      <path class="cls-1" d="m54.64,31.86c-.02-.18-.09-.35-.2-.49-.04-.05-.07-.1-.11-.14-.1-.12-.19-.22-.3-.34.06.07.13.13.19.2-.09-.09-.21-.24-.32-.34-.05-.05-.12-.1-.18-.14-.03-.02-.06-.05-.09-.07-.08-.08-.16-.15-.22-.24l-.22-.32c-.08-.09-.17-.17-.28-.22-.1-.07-.22-.11-.34-.13-.19-.03-.37-.01-.54.07-.15.07-.3.19-.36.35-.07.19-.08.43.03.61.09.15.2.29.27.45.05.15.09.29.13.44.05.2.17.4.27.58l-.13-.23c.06.1.11.19.16.29.08.17.19.32.34.43.08.05.17.1.25.16.19.09.39.13.61.13.15,0,.29-.03.42-.09.13-.04.25-.11.35-.21.11-.09.18-.2.21-.33.06-.12.08-.25.06-.39"/>
      <path class="cls-3" d="m13.35,57.7c1.44,2.66,3.44,4.59,5.67,6.39-1.48-2.44-2.93-4.89-4.32-7.38-1.54-2.75-2.96-5.56-4.42-8.35.84,3.19,1.5,6.44,3.07,9.34Z"/>
    </g>
  </g>
</svg>