<?xml version="1.0" encoding="utf-8"?>
<!-- Generator: Adobe Illustrator 27.3.0, SVG Export Plug-In . SVG Version: 6.00 Build 0)  -->
<svg version="1.1" id="Capa_1" xmlns="http://www.w3.org/2000/svg" xmlns:xlink="http://www.w3.org/1999/xlink" x="0px" y="0px"
	 viewBox="0 0 389 421" style="enable-background:new 0 0 389 421;" xml:space="preserve">
<style type="text/css">
	.st0{fill:#0C0C0C;}
	.st1{fill:#3A60AA;}
	.st2{fill:#FFFFFF;}
	.st3{fill:#76BEEA;}
</style>
<g>
	<g>
		<path class="st0" d="M210.71,344.55c-29.62-3.68-60.23-2.56-89.35,4.36c-13.84,3.3-27.68,8.6-39.16,17.21
			c-4.3,3.24-9.73,7.23-12.03,12.47c-1.56,1.62-2.74,3.62-3.3,6.05c-1.75,7.61,3.87,12.28,10.1,15.03
			c16.65,7.36,35.79,7.86,54.43,5.18c13.28-1.06,26.44-3.99,38.66-8.17c13.47-4.61,26.5-11.1,38.22-19.14
			c4.43-2.99,9.66-6.61,11.6-11.6c1.5-2,2.68-4.05,3.43-6.3c1.12-3.49,0.81-7.48-1.5-10.41c-2.81-3.55-6.98-4.12-11.22-4.68"/>
		<path class="st1" d="M144.37,44.2L60.94,95.27l-45.08,77.57L115,256.45l158.81,1.56L378,180.81l-62.54-84.18l-64.28-72.76
			C251.18,23.87,144.37,44.2,144.37,44.2z"/>
		<path class="st2" d="M146.11,173.96l-31.43,82.87l159.12,1.18l-28.93-78.06C244.88,179.94,146.11,173.96,146.11,173.96z"/>
		<path class="st3" d="M139.88,24.06L60.94,94.96l77.32,100.7l111.17-2.43l66.03-96.71l-61.17-78.13
			C254.29,18.39,139.88,24.06,139.88,24.06z"/>
		<path class="st3" d="M377.56,181.19L274,257.94l-49.63,115.6"/>
		<path class="st3" d="M115.19,256.7l-99.33-83.86L145.3,374.35C145.3,374.35,115.19,256.7,115.19,256.7z"/>
		<path class="st1" d="M114.69,255.82l160.06,1.56l-50.38,116.16l-79.06,0.81C145.3,374.35,114.69,255.82,114.69,255.82z"/>
		<path class="st2" d="M281.54,71.07c-0.12-0.62-0.19-1.18-0.31-1.81c-0.31-0.62-0.69-1.25-1-1.87c-0.25-0.44-0.62-0.81-0.94-1.25
			c-0.5-0.69-1-1.31-1.5-2c-1.06-1.37-2.18-2.81-3.3-4.18c-2.31-2.87-4.61-5.67-7.05-8.42c-2.99-3.37-6.05-6.73-9.42-9.79
			c-1.68-1.5-3.37-2.99-5.24-4.3c-0.62-0.44-1.18-0.87-1.75-1.37c-2.06-1.56-3.99-2.18-6.55-2.43c-2.93-0.25-5.49,0.94-5.99,4.05
			c0.5,2.06,0.94,4.12,1.43,6.11c0.12,0.19,0.25,0.37,0.37,0.56c0,0,0.56,0.75,0.69,1c0.12,0.25,0.37,0.69,0.44,0.75
			c0.37,0.56,0.75,1.12,1.12,1.68c0.37,0.5,0.75,1,1.12,1.43c0,0,0.12,0.19,0.31,0.44c0.62,0.81,1.18,1.62,1.81,2.43
			c2.31,2.99,4.74,5.92,7.11,8.85c2.31,2.81,4.55,5.61,6.73,8.48c1.18,1.5,2.31,3.06,3.43,4.61c0.5,0.69,0.94,1.43,1.5,2.06
			c2.24,2.68,4.93,3.68,8.36,4.12c4.61,0.56,10.48-4.24,8.67-9.23"/>
		<path class="st2" d="M300.81,101.56c-0.12-1.12-0.56-2.18-1.25-3.06c-0.25-0.31-0.44-0.62-0.69-0.87
			c-0.62-0.75-1.18-1.37-1.87-2.12c0.37,0.44,0.81,0.81,1.18,1.25c-0.56-0.56-1.31-1.5-2-2.12c-0.31-0.31-0.75-0.62-1.12-0.87
			c-0.19-0.12-0.37-0.31-0.56-0.44c-0.5-0.5-1-0.94-1.37-1.5l-1.37-2c-0.5-0.56-1.06-1.06-1.75-1.37c-0.62-0.44-1.37-0.69-2.12-0.81
			c-1.18-0.19-2.31-0.06-3.37,0.44c-0.94,0.44-1.87,1.18-2.24,2.18c-0.44,1.18-0.5,2.68,0.19,3.8c0.56,0.94,1.25,1.81,1.68,2.81
			c0.31,0.94,0.56,1.81,0.81,2.74c0.31,1.25,1.06,2.49,1.68,3.62l-0.81-1.43c0.37,0.62,0.69,1.18,1,1.81c0.5,1.06,1.18,2,2.12,2.68
			c0.5,0.31,1.06,0.62,1.56,1c1.18,0.56,2.43,0.81,3.8,0.81c0.94,0,1.81-0.19,2.62-0.56c0.81-0.25,1.56-0.69,2.18-1.31
			c0.69-0.56,1.12-1.25,1.31-2.06c0.37-0.75,0.5-1.56,0.37-2.43"/>
		<path class="st3" d="M43.36,262.68c8.98,16.59,21.45,28.62,35.35,39.84c-9.23-15.21-18.27-30.49-26.94-46.02
			c-9.6-17.15-18.46-34.67-27.56-52.06C29.45,224.34,33.57,244.6,43.36,262.68z"/>
	</g>
</g>
</svg>
