<svg width="183" height="159" viewBox="0 0 183 159" fill="none" xmlns="http://www.w3.org/2000/svg">
<path d="M0 39.403L9.97511 158.984L182.951 144.322L171.174 24.5176L0 39.403Z" fill="#FFD162"/>
<path d="M82.2216 48.3308C80.7623 42.2015 78.8222 36.1752 77.3457 30.0459C75.7318 23.3157 74.2724 16.5684 73.208 9.71802C72.8989 7.70926 68.0916 7.76068 68.435 10.1643C69.3621 16.6885 70.3579 23.1956 71.6284 29.651C72.9504 36.3126 74.3239 43.2316 76.5731 49.6356C77.3113 51.7474 82.7882 50.6657 82.2388 48.3136" fill="#0B0E0E"/>
<path d="M71.6631 5.87172L79.681 52.1247L99.3565 51.1289L96.764 0L71.6631 5.87172Z" fill="#D73532"/>
<path d="M117.521 123.822C117.349 123.067 116.955 122.328 116.542 121.659C116.027 120.8 115.444 119.925 114.362 119.65C113.572 119.461 112.731 119.598 112.01 119.908C111.873 119.959 111.718 120.062 111.581 120.131C110.997 119.616 110.121 119.41 109.366 119.513C108.61 119.616 107.889 120.028 107.992 120.835C107.992 120.817 107.992 120.8 107.992 120.783C108.027 121.384 107.992 122.002 107.941 122.603C107.821 123.376 107.632 124.148 107.597 124.938C107.546 125.814 107.666 126.689 107.975 127.513C108.25 128.286 108.713 128.921 109.314 129.505C109.984 130.14 110.997 130.466 111.924 130.432C114.362 130.381 116.748 128.732 117.418 126.466C117.676 125.59 117.761 124.732 117.538 123.822" fill="white"/>
<path d="M79.801 126.981C79.4748 126.312 78.9597 125.711 78.4275 125.178C77.7579 124.492 77.0368 123.805 75.9723 123.788C75.1997 123.788 74.4443 124.097 73.8434 124.526C73.7232 124.612 73.603 124.715 73.4828 124.835C72.8304 124.474 71.972 124.474 71.2852 124.732C70.5985 124.99 70.0319 125.522 70.2894 126.243C70.2894 126.243 70.2894 126.208 70.2723 126.191C70.4439 126.741 70.5298 127.307 70.6156 127.891C70.6671 128.646 70.6671 129.385 70.7873 130.14C70.9247 130.964 71.2337 131.737 71.6801 132.441C72.0922 133.093 72.6587 133.591 73.3455 133.986C74.1009 134.432 75.1139 134.518 75.9723 134.295C78.2214 133.728 80.0757 131.685 80.213 129.453C80.2645 128.578 80.1615 127.771 79.7666 126.981" fill="white"/>
<path d="M121.762 84.4192C121.195 88.4883 119.358 109.743 119.032 113.847C118.998 114.173 118.877 114.499 118.706 114.791C118.671 115.049 118.053 124.766 118.019 125.041C117.813 126.964 114.568 128.732 112.971 128.028C112.216 128.303 111.048 128.475 110.396 127.925C109.795 127.427 109.538 126.878 109.538 126.277C109.538 126.122 109.538 125.985 109.538 125.831C109.538 125.813 109.538 125.796 109.538 125.779C109.589 125.522 109.675 125.264 109.829 125.024C109.829 125.006 109.829 124.989 109.829 124.972C109.847 124.938 109.881 124.903 109.898 124.869C109.915 124.835 109.95 124.8 109.967 124.766C110.07 124.612 110.173 124.457 110.31 124.303C110.31 123.616 110.877 113.435 110.894 112.937C110.945 111.89 112.267 93.639 112.302 92.6088C112.388 90.2739 112.491 87.9217 112.576 85.5867C112.714 82.0843 113.521 78.1698 117.71 77.2427C117.71 77.2427 123.496 78.5132 121.71 84.4364" fill="white"/>
<path d="M82.5482 66.5809C74.7192 65.0014 66.3236 65.98 59.6106 70.3409C55.9708 72.7102 53.0349 76.0753 51.1463 79.8352C49.4809 83.166 48.2448 87.5613 50.0303 91.0294C50.6141 92.1454 52.7774 91.9565 53.55 90.995C54.769 91.2182 56.5373 90.4799 56.8464 89.4498C58.4946 84.1618 59.3015 78.6678 63.6796 74.6331C68.4697 70.2207 76.0755 70.4095 81.8099 72.8475C84.5226 73.9978 86.9949 75.8864 88.3169 78.4618C89.4157 80.6079 89.8965 83.6811 88.2998 85.7413C86.6515 87.8531 83.3551 88.66 80.8656 89.4841C77.3975 90.6345 73.5174 91.4757 70.2209 93.0381C66.5468 94.7893 66.6155 98.5837 67.2507 101.863C67.6628 104.043 68.0748 106.241 68.4869 108.421C68.6757 109.4 68.8646 110.361 69.0363 111.34C69.1221 111.821 69.3281 112.473 69.4483 113.109C69.3453 113.263 69.2766 113.435 69.2251 113.606C69.2251 113.641 69.1908 113.692 69.1736 113.727C69.1736 113.761 69.1393 113.795 69.1393 113.83C69.1393 113.83 69.1393 113.864 69.1393 113.881C69.0534 114.139 69.0191 114.396 69.0363 114.654C69.0363 114.671 69.0363 114.688 69.0363 114.705C69.0363 114.843 69.0706 114.98 69.1221 115.117C69.2595 115.667 69.62 116.113 70.2724 116.456C70.9935 116.834 72.0237 116.405 72.6761 115.993C74.3071 116.302 76.934 113.984 76.7108 112.147C76.6764 111.907 76.6593 111.649 76.6249 111.409C76.7279 111.1 76.7623 110.774 76.7279 110.465C76.1614 106.602 75.8008 102.721 75.4574 98.8412C75.5261 98.824 75.612 98.7725 75.6978 98.7554C76.5562 98.4463 77.4319 98.1716 78.2903 97.8969C80.3506 97.2102 82.4108 96.5234 84.4024 95.665C91.2528 92.7291 98.1719 86.5139 97.3306 78.7364C96.5751 71.7659 89.0208 67.9028 82.5482 66.598" fill="white"/>
</svg>
