<svg width="272" height="214" viewBox="0 0 272 214" fill="none" xmlns="http://www.w3.org/2000/svg">
<mask id="mask0_387_429" style="mask-type:luminance" maskUnits="userSpaceOnUse" x="0" y="0" width="272" height="214">
<path d="M271.886 0H0V213.89H271.886V0Z" fill="white"/>
</mask>
<g mask="url(#mask0_387_429)">
<path d="M133.488 85.1063C128.269 83.3207 124.234 82.1875 118.809 81.1059C106.876 78.7023 89.9478 78.9426 88.2481 79.3032C78.7022 80.299 69.4138 83.7155 60.7951 87.7159C55.9363 89.965 51.1977 92.4717 46.4934 95.0298C41.8235 97.588 32.4321 104.404 32.4321 104.404C33.8228 106.825 49.807 126.706 54.2022 133.402C54.2881 133.54 63.9885 126.947 64.1258 126.861C63.731 138.038 64.555 149.112 66.6153 160.203C66.6496 160.34 68.2978 164.804 70.0491 165.663C73.2768 167.242 77.2943 167.963 80.7453 168.856C87.9562 170.745 95.356 172.135 102.842 172.049C109.864 171.964 116.886 170.659 123.479 168.238C129.11 166.178 135.6 163.345 139.068 158.177C139.858 157.525 140.647 156.838 141.42 156.134C139.085 147.687 137.506 138.999 136.733 130.26C138.021 130.518 150.279 132.595 150.502 132.578C152.494 126.518 159.087 101.691 160.855 95.459C160.769 95.2874 142.553 88.1967 133.488 85.0891" fill="#D73532"/>
</g>
<mask id="mask1_387_429" style="mask-type:luminance" maskUnits="userSpaceOnUse" x="32" y="79" width="129" height="94">
<path d="M88.2651 79.3033C78.7192 80.2991 69.4309 83.7328 60.8121 87.716C55.9533 89.9651 51.2147 92.4718 46.5104 95.0299C41.8405 97.5881 32.4663 104.404 32.4663 104.404C33.857 106.825 49.8412 126.707 54.2364 133.402C54.3223 133.54 64.0227 126.947 64.16 126.861C63.7651 138.038 64.5893 149.112 66.6495 160.203C66.6839 160.34 68.3321 164.804 70.0833 165.663C73.311 167.242 77.3285 167.963 80.7795 168.856C87.9904 170.745 95.3902 172.135 102.876 172.05C109.898 171.964 116.92 170.659 123.53 168.238C129.161 166.178 135.651 163.345 139.119 158.194C139.909 157.542 140.699 156.855 141.471 156.151C139.136 147.704 137.557 139.034 136.784 130.278C138.072 130.535 150.331 132.613 150.554 132.595C152.545 126.535 159.138 101.709 160.907 95.4763C160.821 95.3046 142.605 88.2139 133.539 85.1064C128.32 83.3208 124.285 82.1876 118.86 81.106C110.911 79.5093 100.73 79.0801 94.3257 79.0801C91.1323 79.0801 88.8832 79.1831 88.2994 79.3033" fill="white"/>
</mask>
<g mask="url(#mask1_387_429)">
<path d="M135.686 111.804C135.617 120.028 135.583 128.252 135.566 136.476C128.784 136.802 122.002 137.111 115.22 137.403C114.911 128.784 114.499 120.165 113.847 111.564C113.813 111.151 113.778 110.757 113.744 110.345C118.62 110.259 123.513 110.173 128.389 110.104C130.827 110.07 133.265 110.035 135.703 110.035C135.703 110.619 135.703 111.22 135.703 111.804M110.053 161.903C103.322 162.04 96.5922 162.16 89.862 162.435C89.0723 157.01 88.2138 151.619 87.5786 146.176C87.3382 144.15 87.1322 142.124 86.9262 140.098C88.5057 140.047 90.1024 140.012 91.6991 139.961C98.9959 139.721 106.293 139.429 113.589 139.154C113.761 143.772 113.898 148.374 114.019 152.992C114.104 155.928 114.122 158.864 114.173 161.8C112.8 161.834 111.409 161.885 110.053 161.92M85.9132 129.385C85.3638 123.204 84.8487 117.023 84.265 110.86C85.2264 110.86 86.1707 110.825 87.1322 110.825C95.5793 110.688 104.009 110.551 112.456 110.396C112.628 114.86 112.8 119.324 112.988 123.788C113.177 128.355 113.366 132.939 113.538 137.506C104.627 137.883 95.6994 138.278 86.7888 138.639C86.4797 135.548 86.1879 132.475 85.9132 129.385ZM77.6893 139.017C74.0495 139.171 70.4784 139.24 66.8901 139.137C66.3063 129.797 65.6368 120.457 64.8127 111.134C65.2934 111.134 65.7741 111.134 66.2376 111.134C71.766 111.048 77.3116 110.98 82.84 110.877C83.7499 120.148 84.574 129.436 85.5183 138.69C82.9086 138.793 80.299 138.914 77.6893 139.017ZM151.945 109.435C151.721 108.954 151.206 108.628 150.691 108.593C146.245 108.353 141.781 108.267 137.317 108.284C137.317 105.709 137.317 103.134 137.317 100.541C137.282 95.2531 137.231 89.9822 136.973 84.7114C136.973 84.4195 136.338 84.0075 136.321 84.4367C135.857 92.3687 135.806 100.318 135.737 108.267C128.355 108.301 120.972 108.559 113.607 108.748C113.195 104.095 112.714 99.4424 112.319 94.7896C112.319 94.6179 111.924 94.3947 111.941 94.6178C112.199 99.3221 112.233 104.061 112.405 108.765C111.546 108.782 110.671 108.817 109.812 108.834C101.245 109.023 92.6949 109.229 84.1276 109.417C83.6984 105.005 83.252 100.61 82.7026 96.2145C81.93 89.8964 81.0372 83.5439 79.2345 77.4318C79.2002 77.3116 78.8568 77.1056 78.874 77.3288C79.3204 82.8228 80.196 88.2825 80.9171 93.7594C81.6038 98.9787 82.1704 104.215 82.7026 109.469C78.0155 109.572 73.3284 109.675 68.6585 109.778C67.3536 109.812 66.0317 109.847 64.7268 109.881C64.3319 105.64 63.9199 101.4 63.4735 97.1588C62.9756 92.4889 62.3232 87.8361 61.5506 83.2177C61.4991 82.943 60.8123 82.5653 60.8467 82.9945C61.3445 91.991 62.1171 100.953 62.9241 109.932C60.9496 109.984 58.9753 110.036 57.0008 110.087C53.1722 110.207 49.2577 110.156 45.4462 110.619C45.1371 110.654 45.4461 111.1 45.635 111.117C49.0516 111.375 52.5026 111.237 55.9192 111.22C58.2885 111.203 60.675 111.169 63.0443 111.151C63.6623 118.088 64.2976 125.024 64.8127 131.96C64.9843 134.329 65.1389 136.716 65.2934 139.085C63.6108 139.017 61.9283 138.896 60.2457 138.725C59.7993 138.673 60.1599 139.24 60.4002 139.308C62.0141 139.772 63.6967 140.064 65.3792 140.253C65.4994 142.141 65.6367 144.03 65.7569 145.918C65.8084 146.674 67.4738 147.618 67.4052 146.605C67.285 144.528 67.1305 142.468 67.0103 140.39C69.8946 140.596 72.8305 140.527 75.6805 140.442C79.0285 140.339 82.3764 140.236 85.7072 140.133C85.8445 141.506 85.9647 142.88 86.1192 144.236C86.7888 150.331 87.4412 156.494 88.54 162.521C88.0078 162.813 88.9349 164.049 89.5873 164.049C96.7124 164.049 103.838 163.808 110.963 163.62C112.061 163.585 113.16 163.585 114.259 163.551C114.293 165.56 114.328 167.568 114.414 169.577C114.448 170.247 115.942 171.208 115.959 170.23C116.01 167.998 115.993 165.748 115.959 163.517C121.401 163.431 126.861 163.396 132.286 163.053C133.351 162.984 132.183 161.456 131.479 161.439C126.312 161.353 121.109 161.542 115.924 161.714C115.873 159.654 115.821 157.576 115.77 155.533C115.667 150.623 115.547 145.73 115.392 140.819C115.375 140.236 115.341 139.652 115.323 139.068C118.036 138.965 120.749 138.879 123.479 138.776C127.513 138.622 131.565 138.433 135.6 138.261C135.6 138.707 135.6 139.137 135.6 139.583C135.583 144.802 135.548 150.022 135.514 155.241C135.514 156.014 137.179 156.975 137.179 155.945C137.179 150.039 137.231 144.116 137.265 138.21C138.742 138.141 140.201 138.089 141.678 138.021C142.794 137.969 141.626 136.201 140.768 136.235C139.6 136.287 138.433 136.338 137.265 136.39C137.317 127.599 137.368 118.809 137.351 110.018C142.107 110.018 146.88 110.087 151.636 110.362C152.168 110.396 152.134 109.726 151.996 109.417" fill="#ED6D68"/>
<path d="M82.239 101.039C82.033 101.245 81.827 101.451 81.6381 101.708C81.4321 101.983 81.8613 102.378 82.136 102.361C83.7842 102.275 85.1578 101.657 86.6514 100.987C88.0078 100.386 89.3298 99.7168 90.669 99.0644C92.0081 98.4292 93.3301 97.7596 94.6006 97.0385C95.9055 96.3003 97.2961 95.6306 98.4979 94.7207C98.7898 94.4975 98.6353 94.1541 98.3434 93.8794C92.9352 96.18 87.7331 99.0128 82.2219 101.022" fill="#0B0C0C"/>
<path d="M116.474 102.206C116.645 102.206 116.8 102.241 116.972 102.241C117.04 102.241 117.126 102.241 117.212 102.241C117.246 102.241 117.298 102.241 117.384 102.241C117.796 102.241 118.191 102.189 118.585 102.103C118.671 102.086 118.757 102.052 118.843 102.035C118.86 102.035 118.894 102.018 118.912 102C118.809 101.812 118.688 101.657 118.568 101.571C117.229 100.661 115.65 100.095 114.173 99.4423C112.782 98.8242 111.392 98.2405 110.018 97.6224C107.185 96.3691 104.301 95.2016 101.502 93.8796C101.365 93.8109 101.382 93.9997 101.468 94.0512C104.249 95.6651 107.014 97.3478 109.864 98.8586C111.289 99.614 112.714 100.369 114.173 101.073C114.928 101.434 115.701 101.846 116.474 102.189" fill="#0B0C0C"/>
<path d="M120.011 100.129C120.388 99.5108 119.564 97.8111 119.341 97.193C118.62 95.2186 117.882 93.227 117.161 91.2525C115.684 87.2007 114.208 83.1488 112.903 79.0283C112.851 78.891 112.714 78.7365 112.559 78.6335C112.508 78.3759 112.302 78.1184 112.079 77.9982C110.602 77.157 108.885 77.2771 107.254 77.3114C105.177 77.3458 103.099 77.4317 101.022 77.5004C96.9357 77.6377 92.8667 77.5003 88.9007 76.453C88.4886 76.3328 88.1453 76.5904 88.0938 77.0024C88.0423 77.0196 88.0079 77.0368 87.9736 77.0711C87.819 77.1055 87.6817 77.1741 87.5958 77.363C87.3211 77.9467 87.1667 78.5476 87.0465 79.1657C85.1064 86.3079 81.9988 93.0896 80.3506 100.301C80.3678 100.335 80.3849 100.369 80.4021 100.386C80.4021 100.421 80.3849 100.455 80.3678 100.489C80.6253 100.798 80.9 101.09 81.209 101.365C84.9175 99.837 99.8888 93.3816 100.181 93.1756C100.524 93.3816 116.714 100.73 118.792 101.571C119.015 101.571 119.221 101.571 119.444 101.623C119.599 101.468 119.753 101.296 119.925 101.159C119.959 101.125 119.976 101.073 120.011 101.039C120.079 100.901 120.131 100.764 120.182 100.627C120.114 100.472 120.062 100.318 119.994 100.146" fill="#EF7D3E"/>
</g>
<mask id="mask2_387_429" style="mask-type:luminance" maskUnits="userSpaceOnUse" x="0" y="0" width="272" height="214">
<path d="M271.886 0H0V213.89H271.886V0Z" fill="white"/>
</mask>
<g mask="url(#mask2_387_429)">
<path d="M104.524 199.142C97.4847 198.438 90.4798 197.305 83.5436 195.948C80.7966 195.416 77.9122 194.472 75.0965 194.3C74.7016 193.785 74.0321 193.39 73.5513 193.596C70.6498 194.764 67.7482 195.965 64.8982 197.27C63.6105 198.524 62.5461 200.069 62.4087 201.889C62.2542 203.88 63.1642 205.58 64.3317 207.039C66.3061 209.512 69.1733 211.469 72.1778 212.808C72.3839 212.877 72.5899 212.963 72.7959 213.014C84.4879 216.345 97.4847 209.683 106.172 202.009C107.168 201.133 105.417 199.228 104.524 199.142Z" fill="#D73532"/>
</g>
<mask id="mask3_387_429" style="mask-type:luminance" maskUnits="userSpaceOnUse" x="62" y="193" width="45" height="21">
<path d="M73.5513 193.596C70.6326 194.764 67.7482 195.965 64.8982 197.27C63.6105 198.523 62.5461 200.086 62.4087 201.889C62.2542 203.88 63.1642 205.58 64.3317 207.039C66.3061 209.512 69.1733 211.469 72.1778 212.808C72.3839 212.877 72.5899 212.963 72.7959 213.014C73.7402 213.289 74.7017 213.495 75.6631 213.632H82.9942C91.5443 212.465 99.957 207.486 106.155 202.009C107.151 201.133 105.4 199.227 104.507 199.142C97.4847 198.438 90.4627 197.305 83.5264 195.948C80.7794 195.416 77.8951 194.472 75.0794 194.3C74.7532 193.871 74.2381 193.527 73.8088 193.527C73.7058 193.527 73.62 193.527 73.5341 193.579" fill="white"/>
</mask>
<g mask="url(#mask3_387_429)">
<path d="M101.777 198.558C101.554 198.592 101.331 198.644 101.108 198.695C100.61 197.82 99.6656 197.047 98.8587 197.184C98.275 197.287 97.6912 197.339 97.0903 197.373C94.8584 197.15 92.6093 196.927 90.3773 196.738C89.8451 196.687 89.6219 197.081 89.5532 197.511C89.4502 197.511 89.3643 197.528 89.2613 197.545C88.5746 196.755 87.5101 196.257 86.8405 196.893C86.8405 196.893 86.8062 196.927 86.789 196.927C86.4628 196.378 85.7761 195.914 85.3125 196.154C83.2007 197.288 82.0847 199.434 82.5483 201.872C83.0462 204.516 85.3468 206.868 87.8707 207.503C90.5662 208.173 93.4677 206.662 95.9057 205.614C98.5325 204.481 101.074 203.108 103.494 201.58C104.868 200.721 103.014 198.335 101.777 198.558Z" fill="#EF7D3E"/>
<path d="M76.6591 192.532C71.0449 192.909 65.0873 195.004 62.5463 200.601C61.396 203.125 61.396 205.941 62.4777 208.482C63.6451 211.211 65.8256 213.306 68.0404 215.143C68.5211 215.538 71.2338 217.581 71.6286 216.963C72.0407 216.311 76.5733 215.572 76.0411 215.212C72.7961 213.014 67.4051 212.001 65.8427 207.469C65.156 205.494 64.9156 201.631 66.066 199.949C68.8816 195.811 76.0925 195.983 80.1959 193.733C81.2432 193.167 77.4318 192.48 76.642 192.549" fill="#7ABDE9"/>
</g>
<mask id="mask4_387_429" style="mask-type:luminance" maskUnits="userSpaceOnUse" x="0" y="0" width="272" height="214">
<path d="M271.886 0H0V213.89H271.886V0Z" fill="white"/>
</mask>
<g mask="url(#mask4_387_429)">
<path d="M92.7462 204.687C92.626 203.983 92.2483 203.262 91.9736 202.61C91.6989 201.957 91.4414 201.305 91.1667 200.652C90.6344 199.347 90.085 198.06 89.5528 196.755C89.3639 196.291 88.8145 195.811 88.3166 195.845C87.7672 195.879 87.7844 196.429 87.9217 196.824C88.4025 198.128 88.8832 199.433 89.3639 200.738C89.6043 201.391 89.8447 202.043 90.085 202.695C90.3426 203.399 90.5829 204.138 90.9778 204.773C91.2182 205.168 91.7504 205.545 92.2311 205.528C92.6775 205.494 92.832 205.099 92.7634 204.704" fill="#0B0C0C"/>
<path d="M97.0385 202.232C96.9011 201.82 96.5577 201.442 96.3002 201.116C96.077 200.824 95.8538 200.515 95.6306 200.206C95.2014 199.605 94.7894 199.004 94.3945 198.386C94.1713 198.025 93.6734 197.665 93.227 197.768C92.8149 197.854 92.7806 198.352 92.9523 198.695C93.2957 199.347 93.6219 200 93.9653 200.635C94.1885 201.03 94.4116 201.425 94.6348 201.803C94.7207 201.957 94.8237 202.112 94.9095 202.249C94.961 202.335 95.0125 202.421 95.064 202.506C95.2357 202.764 95.4589 202.953 95.6993 203.142C95.9912 203.399 96.5406 203.554 96.8839 203.331C97.2617 203.073 97.1415 202.609 97.0213 202.249" fill="#0B0C0C"/>
<path d="M179.466 164.22C178.007 158.314 174.195 151.567 168.358 149.369C167.774 149.146 167.173 148.974 166.572 148.837C163.636 147.721 160.443 147.24 157.627 147.257C154.314 147.292 151.429 148.528 148.734 150.296C146.21 151.584 143.806 153.198 141.54 154.726C138.69 156.666 135.943 158.743 133.247 160.906C131.977 161.782 130.689 162.658 129.419 163.551C126.706 165.473 123.581 167.328 121.161 169.663C109.726 171.465 98.1887 171.002 87.0117 167.86C86.1533 167.62 85.8443 167.997 85.8271 168.564C76.8134 164.186 67.6796 159.962 57.9964 157.404C55.0777 156.631 51.352 155.481 47.9698 155.533C46.1499 155.086 44.2269 155.189 42.4757 155.91C42.2868 155.979 42.098 156.065 41.9263 156.185C41.2396 156.528 40.57 156.94 39.9519 157.473C38.1663 159.069 37.2049 161.422 36.4495 163.654C35.5567 166.298 34.9386 169.062 34.5952 171.843C34.0286 176.547 34.4922 181.595 36.7585 185.784C37.0504 186.316 37.3937 186.866 37.7715 187.415C38.3895 188.583 39.145 189.681 40.1236 190.66C44.9137 195.433 53.0345 196.274 59.3699 196.377C63.8853 196.446 68.4007 195.879 72.8131 194.884C76.8135 195.193 80.8482 195.227 84.8485 195.279C93.2097 195.399 101.571 195.485 109.932 195.416C120.388 195.33 130.775 194.832 141.077 193.407C141.317 193.527 141.557 193.596 141.763 193.579C148.339 193.081 155.395 192.635 161.782 190.609C168.358 190.231 174.745 185.784 177.955 179.621C180.651 175.242 180.582 168.959 179.397 164.203" fill="#FED061"/>
<path d="M177.715 164.443C177.681 164.254 177.578 164.048 177.458 163.842C177.097 163.07 176.651 162.297 176.118 161.559C175.672 160.941 174.195 160.7 174.762 161.851C174.848 162.022 174.882 162.211 174.968 162.383C174.676 162.486 174.453 162.761 174.367 163.259C174.298 163.653 174.247 164.065 174.195 164.46C174.178 164.632 174.195 164.804 174.247 164.975C173.663 169.147 170.762 172.598 167.929 175.586C164.632 179.037 160.821 182.076 156.769 184.531C155.121 185.527 157.164 187.965 158.434 188.188C164.924 189.269 171.689 184.823 175.414 179.569C178.625 175.054 179.775 169.405 177.715 164.443Z" fill="#9E4236"/>
<path d="M68.0571 192.394C67.7653 191.501 66.9583 190.746 66.0655 190.523C61.0866 189.201 55.85 188.239 51.0084 186.454C49.0855 185.75 47.3 184.771 46.1497 182.969C44.8792 180.994 44.3298 178.573 43.7975 176.307C43.5743 175.346 42.6987 174.401 41.7372 174.212C41.411 174.144 41.1535 174.212 40.9303 174.333C40.9131 173.921 40.8445 173.491 40.8445 173.079C40.8445 168.598 42.3382 164.615 43.3511 160.34C43.5228 159.619 42.2523 157.988 41.5827 158.812C38.6125 162.486 37.4794 168.014 37.6339 172.702C37.7884 176.977 39.0589 181.183 41.4625 184.685C47.1798 193.098 57.979 194.609 67.2502 193.974C68.1086 193.922 68.2803 193.081 68.0571 192.377" fill="#9E4236"/>
<path d="M179.174 165.799C179.105 164.683 178.865 163.602 178.47 162.537C177.938 160.116 176.959 157.816 175.483 155.91C175.208 155.55 174.899 155.275 174.59 154.966C173.886 154.004 173.096 153.112 172.238 152.288C171.105 151.189 170.023 150.485 168.684 150.193C168.615 150.193 168.564 150.141 168.495 150.124C168.358 150.107 168.238 150.107 168.1 150.09C168.1 150.09 168.1 150.09 168.083 150.09C165.662 149.815 163.241 149.952 160.906 150.519C159.361 150.794 157.85 151.223 156.408 151.807C153.987 152.614 151.704 153.85 149.695 155.481C147.635 156.837 145.918 158.623 144.476 160.683C144.047 161.284 143.617 161.936 143.188 162.606C140.699 163.739 138.261 165.13 135.891 166.297C132.2 168.117 128.492 169.937 124.817 171.774C121.126 173.611 117.452 175.465 113.761 177.303C112.387 177.989 110.893 178.642 109.468 179.397C103.391 177.303 97.3987 174.916 91.5785 172.152C89.5697 171.019 87.6125 169.834 85.6553 168.564C85.2432 168.306 84.9513 168.254 84.7281 168.306C77.9121 164.683 70.9759 161.232 63.5933 158.983C59.7646 157.816 55.8329 157.026 51.8498 156.683C49.9784 156.511 47.6949 156.253 45.6175 156.545C45.3084 156.253 44.9479 156.03 44.6903 156.047C44.3298 156.065 44.0036 156.133 43.6946 156.219C43.3168 156.082 42.9562 156.082 42.6815 156.288C39.2993 158.915 38.458 164.168 38.6125 168.272C38.7842 172.684 40.1577 176.959 42.424 180.685C45.9093 186.385 51.5751 190.54 57.8417 192.463C58.2709 192.651 58.7173 192.823 59.1465 193.012C70.6325 195.845 82.0841 198.626 93.8448 200.034C104.077 201.253 114.653 203.022 125.058 202.936C126.242 200.206 127.719 197.407 129.968 195.502C131.239 194.42 132.664 193.664 134.312 193.441C136.166 193.184 138.175 193.476 139.943 192.823C140.287 192.703 140.647 192.737 140.973 192.84C144.27 192.205 147.515 191.347 150.691 190.265C150.863 190.214 151.034 190.128 151.206 190.059C155.79 188.754 160.168 186.745 164.22 184.067C169.937 180.29 174.418 175.568 178.264 169.886C178.59 168.564 178.899 167.224 179.14 165.885C179.14 165.868 179.14 165.851 179.14 165.834C179.14 165.816 179.157 165.799 179.174 165.782" fill="#F4A09D"/>
<path d="M125.075 202.953C125.47 201.82 128.956 200.103 129.35 199.004C130.209 196.635 131.222 194.317 132.355 192.068C132.715 191.347 132.097 190.506 131.411 190.008C131.394 189.871 131.342 189.733 131.273 189.596C127.513 187.604 113.83 181.75 113.023 181.406C112.971 181.458 112.92 181.509 112.885 181.578C112.748 181.887 108.353 195.347 106.258 201.683C118.002 203.485 125.075 202.97 125.075 202.97" fill="#FED061"/>
<path d="M123.753 200.017C123.53 200.12 123.289 200.206 123.066 200.292C121.349 200.875 119.444 200.875 118.465 202.541C118.465 202.592 118.465 202.644 118.465 202.713C118.448 202.781 118.431 202.867 118.413 202.936C118.379 203.125 118.362 203.313 118.362 203.502C121.401 204.172 124.44 204.944 127.53 205.357C131.994 205.957 136.578 205.872 141.076 205.683C146.948 205.442 152.683 204.79 158.4 203.828C160.889 202.695 163.018 200.944 164.426 198.231C166.109 194.969 166.538 190.179 164.409 187.037C162.16 183.707 158.039 183.003 154.365 183.106C151.549 183.191 148.579 183.672 145.712 184.496C144.974 184.634 144.235 184.788 143.514 184.943C140.544 185.595 137.128 187.226 134.089 187.089C133.659 187.072 133.247 187.02 132.818 186.969C132.646 186.917 132.475 186.866 132.32 186.831C131.153 186.505 129.985 186.196 128.818 185.887C126.723 185.338 124.405 184.479 122.191 184.582C120.422 186.042 118.877 187.776 117.864 189.836C116.782 192.034 116.336 194.403 116.473 196.806C117.984 198.798 120.937 199.588 123.787 200" fill="#D73532"/>
</g>
<mask id="mask5_387_429" style="mask-type:luminance" maskUnits="userSpaceOnUse" x="116" y="183" width="50" height="23">
<path d="M154.331 183.106C151.515 183.192 148.545 183.673 145.678 184.497C144.94 184.634 144.201 184.789 143.48 184.943C140.51 185.595 137.093 187.226 134.054 187.089C133.625 187.072 133.213 187.038 132.784 186.969C132.612 186.917 132.441 186.866 132.286 186.832C131.119 186.505 129.951 186.196 128.784 185.887C126.689 185.338 124.371 184.48 122.156 184.583C120.388 186.025 118.843 187.776 117.83 189.836C116.748 192.034 116.302 194.403 116.439 196.807C117.95 198.798 120.903 199.588 123.753 200C123.53 200.103 123.29 200.189 123.066 200.275C121.349 200.859 119.444 200.859 118.465 202.524C118.465 202.576 118.465 202.644 118.465 202.696C118.448 202.764 118.431 202.85 118.414 202.919C118.379 203.108 118.362 203.297 118.362 203.485C121.401 204.155 124.44 204.928 127.53 205.34C131.994 205.941 136.578 205.855 141.077 205.666C146.948 205.426 152.683 204.773 158.4 203.829C160.889 202.696 163.018 200.945 164.426 198.232C166.109 194.97 166.538 190.18 164.409 187.038C162.314 183.93 158.572 183.106 155.086 183.106C154.846 183.106 154.606 183.106 154.365 183.106" fill="white"/>
</mask>
<g mask="url(#mask5_387_429)">
<path d="M166.023 186.574C165.886 185.973 164.323 184.84 164.306 185.973C164.272 190.403 163.894 194.557 160.821 197.94C160.134 198.695 159.379 199.365 158.589 200C155.636 201.631 152.236 202.575 149.095 203.417C145.609 204.344 142.09 205.031 138.57 205.734C134.501 205.906 130.243 205.786 126.346 207.005C124.869 207.469 126.998 209.7 127.874 209.7C129.591 209.7 131.325 209.649 133.059 209.58C133.299 209.735 133.54 209.821 133.746 209.803C134.707 209.683 135.668 209.546 136.63 209.391C138.81 209.254 140.974 209.1 143.12 208.928C147.292 208.602 151.498 207.949 155.43 206.421C158.967 205.048 162.435 202.816 164.667 199.622C167.482 195.605 167.019 191.141 166.006 186.574" fill="#7ABDE9"/>
<path d="M147.91 185.767C146.519 184.789 144.562 185.235 143 185.338C141.523 185.441 140.03 185.596 138.553 185.75C136.51 186.179 134.433 186.42 132.372 186.626C130.707 190.781 129.436 195.107 127.565 199.159C132.166 199.743 136.87 199.966 141.403 198.919C143.79 198.369 145.953 197.339 147.601 195.45C147.944 195.073 148.236 194.661 148.528 194.249C149.747 191.622 150.451 187.587 147.91 185.767Z" fill="#EF7D3E"/>
</g>
<mask id="mask6_387_429" style="mask-type:luminance" maskUnits="userSpaceOnUse" x="0" y="0" width="272" height="214">
<path d="M271.886 0H0V213.89H271.886V0Z" fill="white"/>
</mask>
<g mask="url(#mask6_387_429)">
<path d="M141.454 182.145C142.175 181.132 140.321 179.14 139.394 180.033C138.467 180.926 137.694 181.939 136.905 182.969C136.63 183.329 136.372 183.69 136.132 184.068C136.063 183.45 135.995 182.831 135.96 182.196C135.857 180.565 135.84 178.934 135.754 177.303C135.72 176.616 135.239 175.998 134.655 175.723C134.123 175.483 133.574 175.586 133.488 176.239C132.921 179.913 133.213 183.604 134.432 187.106C134.484 187.261 134.587 187.398 134.724 187.536C134.192 189.012 133.66 190.489 133.196 192C132.887 192.978 132.578 193.957 132.286 194.935C131.977 195.948 131.599 196.961 131.393 198.009C131.273 198.593 131.617 199.142 132.08 199.485C132.423 199.726 133.145 199.966 133.351 199.417C133.694 198.455 133.9 197.425 134.175 196.446C134.467 195.416 134.758 194.386 135.05 193.356C135.6 191.485 136.115 189.596 136.664 187.725C136.733 187.673 136.784 187.604 136.836 187.553C136.87 189.235 136.905 190.901 136.973 192.583C137.025 193.716 137.093 194.833 137.162 195.966C137.231 197.082 137.196 198.283 137.402 199.382C137.505 199.966 138.055 200.515 138.587 200.687C139.051 200.842 139.549 200.721 139.583 200.155C139.669 199.056 139.463 197.871 139.394 196.773C139.325 195.674 139.257 194.592 139.171 193.493C138.999 191.227 138.759 188.978 138.536 186.729C138.518 186.471 138.415 186.214 138.278 186.008C138.553 185.699 138.827 185.407 139.102 185.098C139.909 184.136 140.75 183.226 141.489 182.196" fill="#0B0C0C"/>
<path d="M145.094 194.987C144.991 194.043 144.871 193.116 144.751 192.172C144.493 190.214 144.236 188.257 143.789 186.334C143.669 185.853 143.257 185.39 142.793 185.235C142.467 185.132 141.935 185.184 141.952 185.682C142.072 187.622 142.347 189.528 142.57 191.45C142.673 192.36 142.776 193.27 142.862 194.18C142.965 195.228 142.948 196.344 143.291 197.339C143.446 197.786 143.944 198.198 144.356 198.335C144.648 198.421 145.197 198.472 145.283 198.043C145.489 197.082 145.197 195.931 145.077 194.953" fill="#0B0C0C"/>
<path d="M122.379 200.138C122.5 200.138 122.603 200.172 122.723 200.189C122.86 200.155 123.015 200.12 123.152 200.086C123.238 200.069 123.324 200.035 123.41 200.017C123.547 200 123.701 199.932 123.822 199.897C124.096 199.811 124.371 199.708 124.646 199.605C124.732 199.571 124.8 199.537 124.886 199.502C124.886 199.468 124.886 199.434 124.869 199.399C124.8 199.21 124.697 199.056 124.577 198.901C124.371 198.901 124.148 198.901 123.942 198.884C122.173 198.816 120.13 198.592 118.654 197.459C118.465 197.408 118.276 197.339 118.104 197.253C118.087 197.253 117.984 197.185 117.933 197.15C117.881 197.116 117.778 197.047 117.761 197.03C117.727 197.013 117.727 197.013 117.709 196.996C117.709 196.996 117.71 196.996 117.675 196.961C117.624 196.893 117.555 196.841 117.503 196.772C117.503 196.772 117.503 196.772 117.486 196.738C117.486 196.738 117.383 196.584 117.383 196.566C117.349 196.515 117.332 196.463 117.297 196.395C117.297 196.36 117.263 196.292 117.246 196.275C117.143 195.948 117.091 195.605 117.109 195.279C116.851 194.558 116.748 193.768 116.748 192.978C116.679 192.927 116.611 192.875 116.542 192.841C116.353 193.425 116.181 194.025 116.044 194.626C115.993 194.97 115.941 195.313 115.924 195.657C115.89 196.343 115.907 196.824 115.975 197.356C116.319 197.906 116.765 198.404 117.28 198.747C118.259 199.417 119.392 199.708 120.525 199.88C121.126 199.966 121.744 200.052 122.345 200.12" fill="#0B0C0C"/>
<path d="M157.352 156.443C153.266 157.044 149.455 158.812 145.746 160.615C141.969 162.452 138.364 164.547 134.81 166.779C134.672 166.865 134.878 167.122 134.999 167.071C138.69 165.165 142.518 163.465 146.347 161.834C150.107 160.255 154.09 159.018 157.61 156.907C157.833 156.769 157.524 156.409 157.335 156.426" fill="#ED6D68"/>
<path d="M115.357 182.42C115.323 182.282 115.083 181.99 114.911 182.093C114.344 182.454 114.19 183.158 113.967 183.793C113.675 184.634 113.4 185.476 113.16 186.334C112.662 187.999 112.232 189.682 111.82 191.365C111.408 193.064 110.996 194.747 110.601 196.447C110.224 198.112 109.674 199.846 109.52 201.546C109.468 202.061 110.567 203.057 110.842 202.335C111.46 200.687 111.683 198.799 112.095 197.099C112.49 195.468 112.885 193.854 113.297 192.223C113.709 190.592 114.138 188.978 114.533 187.33C114.756 186.437 114.945 185.544 115.151 184.651C115.323 183.913 115.529 183.158 115.34 182.42" fill="white"/>
<path d="M139.428 155.361C137.42 156.786 135.48 158.314 133.454 159.688C131.428 161.078 129.368 162.435 127.393 163.894C125.487 165.302 123.582 166.693 121.676 168.083C120.663 168.821 119.65 169.56 118.654 170.298C117.538 171.105 116.611 172.169 115.461 172.925C115.409 172.959 115.495 173.079 115.547 173.045C116.628 172.375 117.847 171.981 118.963 171.345C120.062 170.727 121.126 170.041 122.174 169.354C124.2 168.049 126.208 166.71 128.183 165.302C130.157 163.894 132.046 162.349 133.9 160.752C135.857 159.07 137.883 157.456 139.772 155.687C139.926 155.55 139.6 155.224 139.428 155.344" fill="#0B0C0C"/>
<path d="M141.969 204.516C137.9 204.876 133.831 204.653 129.745 204.481C125.848 204.31 121.95 203.76 118.053 203.674C117.83 203.674 118.07 203.983 118.173 204.018C125.951 206.61 134.192 205.992 142.158 204.945C142.415 204.91 142.158 204.498 141.969 204.516Z" fill="#0B0C0C"/>
<path d="M65.5677 194.867C58.3396 192.978 51.163 190.558 45.6346 185.167C45.463 185.012 45.3085 185.167 45.463 185.338C50.751 190.935 58.0306 195.931 65.9283 195.914C66.5978 195.914 65.8939 194.953 65.5677 194.867Z" fill="#0B0C0C"/>
<path d="M48.7251 90.1196C47.901 90.9094 47.094 91.7163 46.2871 92.5233C50.9227 90.1711 55.6613 88.0765 60.4514 85.999C59.2668 86.0334 58.1165 86.1708 56.949 86.497C54.4424 87.2181 52.0902 88.4371 49.7553 89.6045C49.4119 89.7762 49.0685 89.9479 48.7251 90.1196Z" fill="#D73532"/>
</g>
<path d="M150.502 132.595L143.601 131.479L153.438 92.5059L160.855 95.476L150.502 132.595Z" fill="#EF7D3E"/>
<mask id="mask7_387_429" style="mask-type:luminance" maskUnits="userSpaceOnUse" x="0" y="0" width="272" height="214">
<path d="M271.886 0H0V213.89H271.886V0Z" fill="white"/>
</mask>
<g mask="url(#mask7_387_429)">
<path d="M154.589 92.6778C154.589 92.6778 154.589 92.6606 154.572 92.6606L154.726 93.1242C154.726 93.1242 154.76 93.1414 154.743 93.1242C154.692 92.9697 154.64 92.8152 154.589 92.6606" fill="#ED6D68"/>
<path d="M102.841 100.627C102.704 100.421 102.532 100.215 102.309 100.078C102.103 99.9576 101.811 99.7859 101.571 99.8546C101.502 99.8546 101.434 99.9061 101.365 99.9061C101.365 99.9061 101.313 99.9061 101.296 99.9233C101.279 99.9233 101.245 99.9233 101.228 99.9405C101.228 99.9405 101.193 99.9404 101.176 99.9576C100.678 100.061 100.18 100.215 99.7167 100.421C99.5622 100.49 99.4077 100.541 99.2704 100.61C99.1673 100.679 99.0472 100.747 98.9441 100.816C98.927 100.816 98.9098 100.833 98.8926 100.85C98.7896 100.902 98.6866 100.936 98.6007 101.005C98.4291 101.108 98.3432 101.245 98.326 101.434C98.326 101.451 98.2917 101.468 98.2745 101.503C98.2059 101.675 98.2746 101.898 98.3432 102.035C98.4977 102.327 98.8068 102.619 99.1502 102.705C99.4077 102.842 99.6996 102.911 99.9914 102.842C100.953 102.567 101.88 102.19 102.773 101.726C103.202 101.503 103.082 100.971 102.876 100.627" fill="#0B0C0C"/>
<path d="M103.94 106.001C103.631 105.606 103.15 105.297 102.635 105.434C102.498 105.468 102.378 105.537 102.24 105.571C101.811 105.674 101.399 105.777 101.004 105.949C100.558 106.138 100.043 106.344 99.751 106.739C99.6995 106.773 99.6651 106.79 99.6136 106.825C99.4248 106.945 99.3218 107.065 99.3218 107.305C99.3218 107.546 99.442 107.82 99.5965 107.992C99.9227 108.387 100.403 108.713 100.936 108.576C101.931 108.301 102.824 107.838 103.665 107.237C103.751 107.203 103.837 107.151 103.923 107.117C104.369 106.911 104.181 106.292 103.94 105.983" fill="#0B0C0C"/>
<path d="M39.4713 192.978C39.4713 192.978 39.4542 192.978 39.437 192.961C39.1108 192.755 38.7846 192.532 38.4583 192.291C38.424 192.274 38.218 192.103 38.2008 192.085C38.0978 192 38.012 191.931 37.9261 191.845C37.6342 191.588 37.3424 191.33 37.0677 191.055C36.9303 190.918 36.793 190.781 36.6556 190.643C36.6385 190.609 36.5183 190.506 36.4668 190.437C35.986 189.888 35.5396 189.321 35.1276 188.72C34.9559 188.463 34.8014 188.222 34.6469 187.948C34.6125 187.879 34.5954 187.81 34.561 187.742C34.6812 188.205 34.7842 188.652 34.9388 189.098C35.1619 189.751 35.368 190.248 35.6942 190.884C35.8487 191.21 36.0204 191.536 36.2092 191.845C36.3122 192.017 36.3981 192.188 36.5183 192.343C36.6041 192.48 36.5011 192.326 36.6385 192.532C37.0333 193.098 37.4626 193.648 37.9433 194.163C38.012 194.232 38.1493 194.369 38.1665 194.386C38.3039 194.523 38.4412 194.644 38.5957 194.781C38.7331 194.901 38.8876 195.021 39.0421 195.141C39.0936 195.176 39.1108 195.193 39.128 195.21C39.128 195.21 39.128 195.21 39.1795 195.244C40.3298 196.051 41.3771 196.498 42.7506 196.721C42.7677 196.721 42.8021 196.721 42.8193 196.738C42.9051 196.601 42.9738 196.446 42.9738 196.24C42.9738 196 42.9223 195.777 42.8364 195.554C41.669 194.781 40.5701 193.922 39.5228 192.978" fill="#FED061"/>
<path d="M124.268 61.585C124.595 61.2759 124.938 60.9841 125.264 60.6579C126.466 60.0226 127.668 59.3874 128.87 58.735C130.14 58.0311 131.394 57.2928 132.647 56.5717C130.655 57.8594 128.646 59.1127 126.603 60.3145C125.831 60.7609 125.058 61.1729 124.286 61.585M145.747 35.7115C147.086 33.2735 148.133 30.6981 148.7 27.9511C148.82 27.3674 148.957 26.6807 149.043 25.9768C149.558 29.5479 147.876 32.8099 145.747 35.7115ZM60.8295 48.6568C60.6234 54.9062 63.0786 61.1042 67.7142 65.7742C71.2338 69.311 75.7664 71.7146 80.5737 73.0881C83.046 73.8092 85.6041 74.2385 88.1795 74.393C88.437 74.393 88.6946 74.4101 88.9521 74.4272C89.0208 75.5947 89.0723 76.7794 89.1238 77.964C89.1753 79.1315 89.2611 80.299 89.3298 81.4494C90.6346 82.9431 91.9223 84.4539 93.1928 85.982C95.0985 88.0422 97.0043 90.1196 98.7899 92.2657C102.498 88.5744 106.19 84.8831 110.121 81.4322C110.465 81.0201 110.791 80.6081 111.134 80.1961C111.083 79.8355 111.048 79.4749 111.014 79.0972C110.808 76.7794 110.671 74.4617 110.671 72.1439C110.671 71.9035 110.671 71.6459 110.671 71.4055C116.508 69.0705 122.174 66.0832 127.513 62.9413C130.964 60.9153 134.278 58.6834 137.506 56.3313C139.188 55.1123 140.733 53.8247 142.244 52.4855C144.287 51.421 146.124 50.0475 147.309 47.9185C148.391 45.9956 148.374 43.592 147.429 41.6176C146.914 40.5359 146.21 39.6088 145.403 38.8018C148.974 34.4066 152.872 28.5177 150.039 22.852C148.717 20.2252 145.747 18.68 143 17.8387C141.42 17.358 139.789 16.9803 138.175 16.6369C137.952 16.5854 137.712 16.5338 137.454 16.4823C132.183 4.12073 117.899 -0.0512419 105.28 0.0174336C98.2405 0.0517713 90.3771 0.463795 84.0074 3.74305C81.4321 5.08222 79.0628 6.98796 77.3459 9.32293C72.8648 14.2332 71.5944 21.7703 69.0706 27.8653C67.1305 32.5867 63.1988 36.1922 61.4819 40.9995C60.5891 43.5233 60.3488 46.1329 60.7437 48.6568" fill="#F4A09C"/>
<path d="M90.2911 74.4961C90.5315 74.4961 90.7547 74.4961 90.9951 74.4961C90.9951 74.479 91.0294 74.4617 91.0294 74.4446C94.0683 74.1699 97.09 73.7064 100.06 73.0024C100.009 73.0883 99.9572 73.157 99.8542 73.2085C99.6482 73.3115 99.4593 73.4145 99.2533 73.5175C99.3563 73.5003 99.4593 73.4831 99.5452 73.4487C99.4937 73.6376 99.3735 73.8093 99.2018 73.9295C98.9614 74.084 98.721 74.2042 98.4807 74.3587C98.4807 74.4274 98.4635 74.5133 98.3949 74.5648C97.0557 75.8353 95.4418 76.7967 93.8279 77.6895C92.3342 78.5136 90.7891 79.2519 89.2267 79.973C89.261 78.1703 89.1409 76.3847 89.0894 74.5819C89.4842 74.5476 89.8963 74.5305 90.2911 74.4961Z" fill="#0C0C0C"/>
</g>
<mask id="mask8_387_429" style="mask-type:luminance" maskUnits="userSpaceOnUse" x="60" y="0" width="91" height="93">
<path d="M125.264 60.6576C126.466 60.0224 127.668 59.3872 128.869 58.7347C130.14 58.0308 131.393 57.2925 132.647 56.5714C130.655 57.8591 128.646 59.1124 126.586 60.3142C125.813 60.7606 125.041 61.1727 124.268 61.5847C124.594 61.2757 124.938 60.9838 125.264 60.6576ZM148.682 27.9338C148.802 27.35 148.94 26.6632 149.026 25.9593C149.558 29.5304 147.858 32.7925 145.729 35.694C147.068 33.2561 148.116 30.6808 148.665 27.9338M105.314 0C98.2745 0.0343377 90.394 0.446361 84.0415 3.72561C81.4662 5.06479 79.0968 6.97053 77.3971 9.3055C72.916 14.2158 71.6456 21.7529 69.1217 27.8479C67.1817 32.5693 63.25 36.1748 61.5503 40.9821C60.6575 43.5059 60.4171 46.1156 60.812 48.6394C60.606 54.8889 63.0611 61.0868 67.6967 65.7567C71.2163 69.2935 75.7489 71.6972 80.5562 73.0707C83.0285 73.7918 85.5867 74.221 88.162 74.3755C88.4195 74.3755 88.677 74.3926 88.9346 74.4098C89.0032 75.5773 89.0548 76.7619 89.1063 77.9466C89.1578 79.1141 89.2436 80.2816 89.3123 81.4319C90.6171 82.9256 91.9048 84.4365 93.1582 85.9645C95.0639 88.0248 96.9696 90.1022 98.7552 92.2483C102.464 88.557 106.155 84.8657 110.087 81.4147C110.43 81.0027 110.756 80.5907 111.1 80.1786C111.065 79.8181 111.014 79.4575 110.979 79.0798C110.773 76.762 110.636 74.4442 110.636 72.1264C110.636 71.8861 110.636 71.6285 110.636 71.3882C116.473 69.0532 122.139 66.0657 127.496 62.9238C130.93 60.8979 134.26 58.666 137.488 56.3139C139.154 55.0949 140.716 53.8072 142.227 52.4681C144.27 51.4036 146.107 50.03 147.292 47.9011C148.373 45.9782 148.356 43.5746 147.412 41.6001C146.897 40.5185 146.193 39.6085 145.386 38.7844C148.957 34.3892 152.854 28.5003 150.021 22.8346C148.699 20.2077 145.729 18.6626 142.982 17.8213C141.403 17.3406 139.772 16.9628 138.158 16.6195C137.935 16.5679 137.694 16.5164 137.437 16.4649C132.234 4.27499 118.276 0.0515066 105.777 0H105.262H105.314Z" fill="white"/>
</mask>
<g mask="url(#mask8_387_429)">
<path d="M105.863 22.1995C106.172 22.0278 106.499 21.8733 106.79 21.6673C110.585 20.5513 114.276 19.0919 118.122 18.1992C118.294 18.1648 118.482 18.1305 118.654 18.0961C117.882 18.4395 117.126 18.7658 116.354 19.1092C112.971 20.6028 109.469 21.4269 105.863 22.2167M87.8875 25.0495C87.9906 25.0839 88.1108 25.1354 88.2309 25.1697C90.171 25.7878 92.1798 26.0968 94.2229 26.1312C97.5193 26.1827 100.593 25.5131 103.614 24.586C104.026 24.5002 104.438 24.4143 104.833 24.3285C108.61 23.4872 112.267 22.6116 115.787 20.9977C115.976 20.9118 116.148 20.8089 116.336 20.723C119.221 19.8303 122.071 18.8 125.041 18.182C126.638 17.8558 128.269 17.6154 129.9 17.4265C130.69 17.3407 131.479 17.2893 132.269 17.1863C132.012 17.4266 131.754 17.6669 131.514 17.9073C130.157 19.3152 128.801 20.8775 127.908 22.6459C127.084 23.7791 126.397 25.0152 125.917 26.3887C125.11 28.7065 124.68 31.4192 125.127 33.8572C125.419 35.4367 126.14 36.9132 126.912 38.3554C126.02 39.8663 125.333 41.5661 125.007 43.283C124.663 44.9998 124.646 46.7682 124.835 48.5194C124.989 50.0646 125.316 51.6784 126.054 53.0691C126.14 53.5499 126.311 54.0135 126.552 54.4427C126.552 54.4599 126.552 54.477 126.552 54.5114C126.569 54.5457 126.586 54.58 126.603 54.6315C126.689 54.7689 126.844 54.7689 126.998 54.7346V54.7688C127.05 54.8718 127.153 54.9062 127.239 54.9234C127.393 55.1466 127.668 55.3011 127.977 55.3182C128.681 55.3526 129.333 54.8032 129.642 54.2366C129.848 53.8589 130.054 53.4812 130.26 53.1035C130.174 53.9448 130.106 54.786 130.02 55.6445C129.9 56.9321 131.462 56.3999 132.218 55.7475C132.286 56.9665 134.123 56.3312 134.553 55.6788C134.879 55.1981 135.205 54.7173 135.531 54.2538C135.548 54.6315 135.6 55.0093 135.583 55.4042C135.565 56.812 137.471 56.0222 137.952 55.4212C138.124 55.2152 138.295 54.992 138.467 54.786C138.69 55.4728 139.016 56.0737 139.617 56.2111C139.703 56.2282 139.789 56.2111 139.892 56.2111C139.875 56.6574 140.047 57.0867 140.579 57.1211C141.042 57.1554 141.454 57.1039 141.832 56.9837C142.072 57.121 142.382 57.1554 142.673 57.0867C143.412 56.9322 143.91 56.3484 144.167 55.6788C144.373 55.1466 144.51 54.5971 144.631 54.0306C145.3 53.361 145.764 52.3824 146.09 51.3522C146.227 51.1805 146.33 51.0089 146.382 50.82C146.451 50.511 146.502 50.2191 146.571 49.9101C146.571 49.9101 146.571 49.8929 146.571 49.8757C146.639 49.5839 146.691 49.3092 146.742 49.0173C147.051 48.8113 147.309 48.5537 147.429 48.3305C148.408 46.6308 148.82 44.7423 149.009 42.8194C149.713 42.2528 150.279 41.4974 150.674 40.6904C152.219 37.6 152.357 33.6168 152.322 30.2345C152.322 28.7237 152.254 26.8694 151.824 25.1869C152.357 24.8264 152.752 24.1225 152.339 23.7104C148.648 19.9848 143.961 17.5811 139.205 15.4694C138.896 15.1088 138.553 14.7654 138.227 14.4049C138.227 14.1989 138.192 13.9928 138.021 13.8039C136.287 11.9497 134.381 10.2671 132.424 8.65327C130.054 6.57584 127.53 4.67015 124.904 2.91893C124.835 2.76441 124.732 2.60981 124.492 2.52397C124.337 2.4553 124.183 2.421 124.045 2.35232C123.29 1.8716 122.569 1.33939 121.813 0.875827C121.401 0.635462 120.869 0.789903 120.44 1.11611C118.534 0.53237 116.577 0.068831 114.602 -0.257377C113.143 -0.875457 111.649 -1.45921 110.156 -1.99145C109.452 -2.24898 108.422 -1.59654 108.061 -0.892617C107.22 -0.978462 106.361 -1.02994 105.503 -1.08145C105.177 -1.08145 104.85 -1.01278 104.576 -0.875432C104.267 -0.875432 103.94 -0.841044 103.631 -0.823875C103.219 -0.909719 102.79 -1.01279 102.378 -1.09864C101.949 -1.18448 101.485 -0.978436 101.108 -0.652228C99.5967 -0.875423 98.0687 -0.944074 96.5407 -0.84106C95.7509 -0.892567 94.9611 -0.944103 94.1714 -0.978441C94.1198 -0.978441 94.0855 -0.978441 94.034 -0.978441C93.7764 -1.28748 93.2957 -1.35616 92.8493 -1.20164C88.3854 0.274878 83.87 2.421 80.2646 5.45989C79.3546 6.07796 78.5133 6.78193 77.7236 7.53736C77.3115 7.8464 76.8995 8.12103 76.5046 8.43007C76.144 8.70477 75.9552 9.13403 75.9208 9.54608C75.2513 10.4389 74.7018 11.4003 74.2898 12.4304C73.4485 13.6666 72.7274 14.9715 72.1609 16.3278C71.9892 16.1905 71.8175 16.0703 71.6114 15.9844C70.9762 15.7097 70.3238 16.3622 70.3066 16.9802C70.3753 17.0146 70.444 17.0488 70.5127 17.1347C74.3413 22.1137 80.5736 23.9164 86.5484 25.1011C86.9776 25.0839 87.3896 25.0496 87.8189 25.0152" fill="#CE5F28"/>
</g>
<mask id="mask9_387_429" style="mask-type:luminance" maskUnits="userSpaceOnUse" x="0" y="0" width="272" height="214">
<path d="M271.886 0H0V213.89H271.886V0Z" fill="white"/>
</mask>
<g mask="url(#mask9_387_429)">
<path d="M120.456 61.6015C122.585 58.3565 124.834 55.2146 127.084 52.0384C128.097 50.6134 129.058 48.6732 130.586 47.6946C131.273 47.2482 132.08 47.0766 132.904 47.0251C134.844 46.5959 137.196 46.9907 138.776 47.5058C140.544 48.0895 141.935 48.9823 142.862 50.5961C143.72 52.0898 144.046 53.8583 144.081 55.558C144.149 58.9917 142.913 62.5286 140.149 64.7262C137.368 66.9238 133.745 67.6277 130.26 67.5247C128.594 67.4732 126.723 67.2156 124.955 66.7006C124.337 66.6319 123.753 66.4774 123.358 66.1341C121.658 65.4301 120.147 64.4171 119.134 62.9921C118.619 62.271 119.77 61.2409 120.508 61.6015" fill="#F4A09C"/>
<path d="M136.475 3.89728C137.059 4.01746 137.334 4.53245 137.643 4.99601C137.969 5.45957 138.278 5.94034 138.553 6.43824C139.119 7.4512 139.548 8.61869 139.703 9.769C139.875 11.0395 139.583 12.31 139.136 13.5118C138.707 14.6449 138.141 15.8983 137.248 16.7567C136.939 17.0486 136.355 17.0142 136.424 16.4992C136.492 16.0013 136.733 15.5206 136.887 15.0399C137.025 14.5935 137.196 14.147 137.316 13.7006C137.591 12.7048 137.883 11.6576 137.9 10.6274C137.917 9.59731 137.591 8.7732 137.007 7.93192C136.75 7.55421 136.458 7.19364 136.149 6.83309C135.977 6.62706 135.806 6.43825 135.617 6.23222C135.531 6.12921 135.428 6.04339 135.342 5.94038C135.273 5.8717 135.222 5.82017 135.205 5.803C134.192 5.35661 135.651 3.69124 136.492 3.8801" fill="#CE5F28"/>
<path d="M68.6239 3.75979C69.2591 4.12034 69.86 4.48089 70.4781 4.84144C70.5468 4.87578 70.5983 4.89293 70.667 4.92726C71.3366 5.25347 71.9889 5.63122 72.6757 5.92309C73.9462 6.48966 75.2854 6.86738 76.6761 7.00473C78.0839 7.15925 79.5089 7.10767 80.8996 6.8158C81.6379 6.64411 82.3418 6.40379 83.0457 6.11192C83.3891 5.9574 83.7325 5.78568 84.093 5.64833C84.2647 5.57965 84.4707 5.54537 84.6596 5.49387C84.9515 5.30501 85.3807 5.16762 85.518 5.5625C85.518 5.59684 85.5524 5.63118 85.5524 5.66551C85.6897 6.0604 85.3464 6.42094 85.0545 6.62697C84.8485 6.78148 84.6081 6.8502 84.4021 6.98755C84.093 7.17641 83.8183 7.39956 83.5093 7.58842C83.4063 8.01764 83.1316 8.464 82.8054 8.63569C80.1442 9.99203 76.9336 10.1466 74.0492 9.51132C71.3194 8.91041 68.3148 7.58848 66.8898 5.08183C66.4091 4.24056 68.1603 3.21039 68.6582 3.75979" fill="#CE5F28"/>
<path d="M125.521 45.8063C125.71 44.4843 126.002 43.1794 126.38 41.8918C126.775 40.6041 127.341 39.4367 127.873 38.2005C127.908 38.1147 128.148 38.0632 128.097 38.2005C127.324 40.4153 127.066 42.9906 127.049 45.3084C127.049 46.5103 127.066 47.7292 127.187 48.9482C127.221 48.8281 127.272 48.6906 127.307 48.5705C127.805 47.0081 128.268 45.3943 129.024 43.9178C129.247 43.4885 130.672 42.7674 130.586 43.7288C130.466 45.3084 129.934 46.8193 129.453 48.313C128.938 49.8925 128.354 51.4377 127.788 53.0001C127.633 53.4465 127.307 53.8242 126.843 53.9787C126.534 54.0817 125.95 54.0817 125.865 53.6697C125.35 51.0428 125.178 48.4675 125.556 45.8063" fill="#CE5F28"/>
<path d="M83.5093 42.4071C84.7798 41.7031 86.3765 41.3597 87.5096 40.4154C88.0762 39.9347 88.3337 39.2822 88.5226 38.5783C88.8145 37.5825 89.0033 36.5525 89.278 35.5567C89.4325 34.9901 89.9991 34.4406 90.6172 34.3891C91.2009 34.3376 91.5615 34.7497 91.4413 35.2991C91.0636 36.9302 90.7545 38.8016 89.8102 40.2266C88.9346 41.5486 87.6127 42.3212 86.1876 42.9565C85.5696 43.2312 84.9343 43.4887 84.3162 43.7977C83.8698 44.0381 83.1488 44.3986 83.0801 44.9652C83.0114 45.652 83.9729 46.167 84.4708 46.4589C85.209 46.9224 86.2735 47.2143 86.8057 47.901C87.2521 48.4847 86.4452 49.3605 85.8442 49.3948C84.7798 49.4635 83.8527 48.914 82.9599 48.3818C82.2216 47.9354 81.5177 47.4374 81.1915 46.6133C80.4876 44.8621 82.1015 43.1796 83.5093 42.3899" fill="#ED6D68"/>
<path d="M135.651 53.8072C135.05 53.481 134.415 53.3266 133.728 53.2579C133.35 53.2236 132.99 53.2063 132.612 53.1891C132.234 53.172 131.96 53.069 131.651 52.8801C131.513 52.7943 131.599 52.6398 131.685 52.5539C132.904 51.4894 134.724 51.3521 136.252 51.8328C137.419 52.2106 138.381 53.1033 138.879 54.185C140.029 56.6401 138.999 59.8164 136.63 61.1555C135.926 61.5504 135.119 61.8423 134.295 61.8766C133.625 61.9109 132.561 61.8423 132.114 61.2757C131.651 60.692 132.475 59.9537 133.024 59.8679C133.368 59.8164 133.694 59.885 134.037 59.885C134.363 59.885 134.724 59.8507 135.05 59.7992C135.394 59.7477 135.514 59.6962 135.857 59.576C135.926 59.5417 135.96 59.5416 135.977 59.5245C136.029 59.4901 136.097 59.473 136.149 59.4386C136.252 59.3871 136.338 59.3185 136.424 59.267C136.458 59.2327 136.664 59.0781 136.681 59.0438C136.733 58.9923 136.801 58.9407 136.853 58.8892C136.853 58.8892 136.87 58.8721 136.904 58.8378C137.11 58.5802 137.231 58.4085 137.385 58.1166C137.643 57.6015 137.763 57.0007 137.66 56.4341C137.488 55.3525 136.595 54.288 135.634 53.7729" fill="#ED6D68"/>
<path d="M76.8992 45.0167C74.4955 45.6176 71.8 45.1713 69.5165 44.3472C67.3189 43.5574 65.2758 42.2868 63.7821 40.5013C62.5975 39.0762 61.9451 37.4796 61.636 35.7627C61.636 35.591 61.6017 35.4193 61.6017 35.2476C61.6017 34.99 61.6017 34.7326 61.636 34.4579C61.7562 33.2904 62.0138 32.0886 62.4601 31.0069C63.4044 28.672 65.1385 26.7491 67.4219 25.6502C71.5768 23.6243 76.573 24.4828 79.8522 27.6933C83.2173 30.9898 84.0414 36.1919 82.1013 40.4326C81.1055 42.6302 79.32 44.4158 76.8992 45.0167ZM95.6132 39.3166C95.493 37.531 95.8536 35.8829 96.5232 34.3205C97.7422 31.831 99.7166 30.097 102.155 28.6892C102.721 28.363 103.305 28.071 103.889 27.7792C104.61 27.5731 105.348 27.4529 106.138 27.4186C111.409 27.1782 116.697 30.7322 118.413 35.6254C120.113 40.4841 117.504 46.3559 113.091 48.914C108.473 51.5924 102.412 50.0301 98.8066 46.3903C96.918 44.4845 95.8021 41.9606 95.6304 39.3166M74.9076 47.489C77.294 46.9739 79.3371 45.8236 80.951 44.2612C82.1528 43.1624 83.0628 41.8061 83.698 40.3124C83.8697 39.9175 84.0414 39.5226 84.1788 39.1106C84.2131 39.0076 84.2302 38.8874 84.2646 38.7844C84.2646 38.7672 84.2646 38.7501 84.2818 38.7329C84.917 38.8703 85.5694 38.9561 86.2047 39.0763C87.1146 39.2308 88.0074 39.3853 88.9174 39.5055C89.587 39.6085 90.2394 39.6772 90.909 39.763C91.3382 39.8488 91.7674 39.9519 92.1966 40.0378C92.5915 40.1236 93.0207 40.1922 93.3984 40.3124C93.3984 40.3124 93.5014 40.3468 93.5529 40.3468C93.5529 40.3468 93.5529 40.3468 93.5529 40.3296C93.6903 40.3296 93.8277 40.3296 93.965 40.261C93.965 40.3983 93.965 40.5357 93.9822 40.673C93.9993 40.8447 94.0337 41.0335 94.068 41.2052C94.2226 42.6474 94.6174 44.0724 95.3042 45.3773C95.7506 46.2185 96.3171 46.9568 96.9524 47.6436C99.7681 50.9915 104.318 52.8114 109.005 52.1246C114.018 51.3863 118.07 48.0213 119.89 43.5574C121.71 43.9179 123.547 44.2441 125.384 44.5188C126.328 44.6562 127.273 44.7763 128.217 44.8278C128.732 44.8622 129.23 44.8794 129.745 44.8794C130.26 44.8794 130.809 44.7592 131.307 44.8278C131.582 44.8622 131.908 44.3471 131.565 44.2956C131.05 44.2269 130.569 43.9179 130.071 43.7462C129.625 43.5917 129.144 43.4715 128.68 43.3513C127.719 43.0938 126.74 42.8877 125.779 42.6645C124.8 42.4585 123.822 42.2353 122.843 42.0121C122.328 41.8919 121.83 41.789 121.315 41.6688C121.023 41.6001 120.783 41.5486 120.542 41.5658C120.697 40.9477 120.817 40.3296 120.886 39.6772C121.178 36.5009 120.354 33.1702 118.225 30.7151C117.589 29.9768 116.817 29.3072 115.993 28.6892C112.542 25.8735 107.752 24.7403 103.374 26.2168C101.004 27.0066 98.9096 28.4831 97.3129 30.3717C95.1496 32.5865 94.0509 35.6769 93.9478 38.7501C93.8792 38.7329 93.8276 38.7157 93.759 38.6985C93.5873 38.6642 93.4156 38.6127 93.2439 38.5783C93.1237 38.544 93.0207 38.5441 92.9177 38.5441C92.2996 38.3381 91.6472 38.2007 90.9948 38.2179C90.7716 38.1664 90.5484 38.132 90.3252 38.0805C89.3466 37.8916 88.3508 37.6856 87.3722 37.4967C86.4794 37.325 85.5694 37.0675 84.6595 36.9817C84.7625 36.2606 84.7968 35.5566 84.7797 34.8355C84.7797 34.8012 84.7797 34.7841 84.7797 34.7497C84.7625 34.063 84.6766 33.3762 84.5393 32.7066C84.5393 32.6723 84.5393 32.6551 84.5393 32.6208C84.5049 32.4663 84.4535 32.3289 84.4191 32.1744C84.3161 31.7623 84.2131 31.3502 84.0757 30.9554C83.6809 29.7879 83.1486 28.6891 82.4619 27.6933C80.0754 23.9505 75.9034 21.4095 71.1476 22.1649C67.7138 22.7143 64.5376 25.221 62.546 27.9508C60.9149 30.2171 60.0565 32.9985 60.0908 35.7798C60.0908 36.0889 60.0908 36.398 60.1423 36.707C60.1767 37.0332 60.1939 37.3594 60.2625 37.6856C60.5201 39.1965 61.0866 40.5871 61.8764 41.8405C65.4132 45.2571 70.0316 47.901 74.9248 47.489" fill="#D73532"/>
<path d="M111.409 54.3047C111.546 54.0129 111.821 53.8069 112.13 53.6867C112.37 53.5837 112.645 53.6008 112.885 53.6179C112.988 53.6179 113.126 53.6866 113.229 53.7209C113.28 53.7381 113.332 53.7554 113.383 53.7897C113.623 53.9099 113.812 54.0987 114.001 54.2875C114.053 54.3562 114.087 54.4593 114.087 54.5279C114.087 54.6653 114.035 54.7854 113.967 54.9056C113.898 55.0086 113.812 55.0945 113.709 55.1804C113.606 55.2662 113.452 55.352 113.314 55.352C113.177 55.352 113.057 55.352 112.919 55.3692C112.748 55.3692 112.559 55.3692 112.387 55.3692C112.267 55.3692 112.147 55.3348 112.027 55.3176C111.924 55.3005 111.803 55.249 111.7 55.2146C111.597 55.1803 111.494 55.1116 111.443 55.0258C111.357 54.9228 111.323 54.8198 111.323 54.6996C111.323 54.5622 111.357 54.4249 111.426 54.3047" fill="#ED6D68"/>
<path d="M108.267 58.3223C108.335 57.893 108.765 57.6013 109.177 57.5498C109.348 57.5326 109.486 57.5841 109.64 57.6356C109.709 57.6527 109.76 57.6699 109.829 57.7042C109.932 57.7557 110.035 57.8073 110.138 57.8588C110.258 57.9103 110.361 57.9789 110.464 58.0304C110.516 58.0476 110.567 58.0819 110.619 58.0991C110.722 58.1506 110.859 58.288 110.894 58.4082C110.945 58.6314 110.859 58.8546 110.722 59.0263C110.722 59.0263 110.756 58.9919 110.756 59.0091C110.756 59.0091 110.722 59.0606 110.688 59.0949C110.688 59.0949 110.67 59.1121 110.653 59.1293L110.636 59.1464C110.636 59.1464 110.619 59.1465 110.602 59.1636C110.567 59.198 110.516 59.2323 110.481 59.2495C110.481 59.2495 110.516 59.2151 110.55 59.1807C110.464 59.2494 110.378 59.3181 110.275 59.3353C110.121 59.3868 109.966 59.4211 109.795 59.4039C109.675 59.4039 109.554 59.3868 109.434 59.3525C109.108 59.301 108.782 59.1635 108.524 58.9575C108.49 58.9232 108.438 58.8888 108.404 58.8545C108.37 58.8202 108.353 58.7859 108.318 58.7344C108.284 58.6657 108.25 58.5971 108.25 58.5112C108.25 58.4597 108.25 58.3738 108.267 58.3223Z" fill="#ED6D68"/>
<path d="M104.867 55.1291C104.953 54.9918 105.073 54.8716 105.228 54.7857C105.365 54.717 105.485 54.6656 105.64 54.6484C105.709 54.6484 105.777 54.6484 105.846 54.6484C105.88 54.6484 105.915 54.6655 105.949 54.6827C106.069 54.717 106.189 54.7342 106.292 54.8029C106.361 54.8544 106.43 54.9059 106.498 54.9403C106.567 54.9918 106.653 55.0433 106.704 55.1119C106.722 55.1463 106.756 55.1806 106.773 55.1977C106.825 55.2664 106.876 55.3523 106.91 55.4381C106.945 55.4896 106.979 55.5584 106.979 55.6099C106.979 55.6957 106.962 55.7644 106.928 55.8331C106.859 55.9876 106.687 56.142 106.516 56.1764C106.344 56.2279 106.155 56.2794 105.983 56.2966C105.863 56.2966 105.743 56.3138 105.623 56.2966C105.554 56.2794 105.485 56.2623 105.417 56.2451C105.365 56.2451 105.314 56.2107 105.245 56.1936C105.211 56.1936 105.159 56.1765 105.125 56.1593C105.073 56.125 105.022 56.0734 104.97 56.0391C104.953 56.0219 104.919 56.0047 104.902 55.9704C104.902 55.9704 104.867 55.9533 104.867 55.9361C104.867 55.9361 104.867 55.9361 104.867 55.9189C104.833 55.8674 104.816 55.833 104.782 55.7815C104.747 55.6614 104.73 55.5412 104.764 55.4039C104.781 55.318 104.833 55.2321 104.885 55.1463" fill="#ED6D68"/>
<path d="M106.052 54.6828C106.052 54.6828 105.983 54.6657 105.949 54.6485C105.932 54.6485 105.915 54.6485 105.897 54.6313C105.949 54.6313 106 54.6656 106.052 54.6828Z" fill="#ED6D68"/>
<path d="M106.91 55.4041C106.91 55.4041 106.893 55.3697 106.876 55.3525C106.876 55.3525 106.876 55.3869 106.91 55.4041Z" fill="#ED6D68"/>
<path d="M106.944 55.4553C106.944 55.4553 106.944 55.4209 106.927 55.4209C106.927 55.4209 106.927 55.4553 106.944 55.4553Z" fill="#ED6D68"/>
<path d="M66.7182 46.7336C66.804 46.5619 66.9414 46.4074 67.1131 46.3215C67.1131 46.3215 67.1474 46.3044 67.1646 46.3044C67.2848 46.2357 67.3534 46.2013 67.4736 46.1842C67.5766 46.167 67.6625 46.1499 67.7655 46.1499C67.8514 46.1499 67.9029 46.1499 67.9887 46.1671C68.0746 46.1843 68.1947 46.2014 68.2634 46.2357C68.3321 46.2701 68.4008 46.3216 68.4694 46.3559C68.4694 46.3559 68.5038 46.3731 68.5209 46.3903C68.6411 46.4761 68.6583 46.4932 68.727 46.6306C68.727 46.6649 68.7613 46.6993 68.7785 46.7165C68.8128 46.8023 68.8128 46.9053 68.7785 46.9912C68.7613 47.077 68.727 47.1457 68.6755 47.2144C68.5724 47.3861 68.4008 47.5234 68.2119 47.592C68.1776 47.592 68.1261 47.6264 68.0917 47.6264C68.0917 47.6264 68.0746 47.6264 68.0574 47.6264C68.0059 47.6264 67.9372 47.6608 67.8857 47.678C67.817 47.678 67.7484 47.678 67.6797 47.678C67.5767 47.678 67.4908 47.678 67.3878 47.678C67.3019 47.678 67.2161 47.6264 67.1303 47.592C67.0959 47.592 67.0444 47.5749 67.0101 47.5578C66.9414 47.5406 66.8727 47.4547 66.8041 47.4032C66.7354 47.3345 66.7182 47.2659 66.701 47.1972C66.6667 47.1285 66.6667 47.0598 66.701 46.974C66.701 46.8881 66.7354 46.8194 66.7697 46.7336" fill="#ED6D68"/>
<path d="M60.8121 45.3601C60.8808 45.2228 60.9838 45.1027 61.0868 44.9996C61.207 44.8966 61.3272 44.8108 61.4817 44.7593C61.4989 44.7593 61.516 44.7421 61.5332 44.7421C61.6705 44.6906 61.8251 44.6733 61.9796 44.6905C62.0139 44.6905 62.0655 44.6905 62.0998 44.6905C62.1341 44.6905 62.1685 44.6905 62.2028 44.7249C62.2371 44.7249 62.2715 44.7421 62.3058 44.7593C62.3058 44.7593 62.3058 44.7593 62.3229 44.7593C62.3229 44.7593 62.3573 44.7592 62.3745 44.7935C62.4088 44.8107 62.4432 44.8279 62.4775 44.8623C62.5462 44.9138 62.6148 44.9652 62.7007 45.0339C62.735 45.0511 62.7522 45.1026 62.7694 45.1197C62.8037 45.1712 62.838 45.24 62.8724 45.3087C62.8895 45.3602 62.8896 45.3774 62.9067 45.4289C62.9239 45.4804 62.9239 45.5318 62.9067 45.5833C62.9067 45.6348 62.9067 45.7035 62.8724 45.755C62.8724 45.7893 62.8552 45.8237 62.838 45.8581C62.8037 45.9439 62.735 46.0125 62.6663 46.0812C62.5977 46.1499 62.529 46.2186 62.4431 46.2701C62.3745 46.3045 62.3058 46.3388 62.2371 46.3731C62.2028 46.3731 62.1856 46.3903 62.1341 46.3903C62.0826 46.4075 62.0139 46.4246 61.9624 46.4074C61.9109 46.4074 61.8594 46.4075 61.8079 46.3903C61.8251 46.3903 61.8423 46.3902 61.8766 46.4074C61.8251 46.4074 61.7736 46.3731 61.7221 46.3731C61.6191 46.356 61.516 46.3045 61.413 46.2873C61.4645 46.3045 61.516 46.3216 61.5847 46.3388C61.5332 46.3388 61.4817 46.3044 61.413 46.3044C61.3958 46.3044 61.3615 46.3044 61.3272 46.3044C61.2928 46.3044 61.2757 46.2873 61.2414 46.2873C61.2242 46.2873 61.1898 46.2873 61.1727 46.2701C61.1727 46.2701 61.1555 46.2701 61.1383 46.2701C61.1211 46.2701 61.104 46.2701 61.0868 46.2529C61.104 46.2529 61.1211 46.253 61.1383 46.2701C61.0524 46.2701 60.9838 46.2358 60.9323 46.1671C60.8979 46.1499 60.8808 46.1327 60.8636 46.0984C60.8636 46.0984 60.8464 46.0813 60.8293 46.0641C60.6576 45.8752 60.7091 45.5833 60.8121 45.3773" fill="#ED6D68"/>
<path d="M64.2114 48.8794C64.3144 48.7249 64.4518 48.6048 64.6063 48.5018C64.7952 48.3644 65.0012 48.3472 65.2415 48.3644C65.2931 48.3644 65.3274 48.3644 65.3961 48.3987C65.4991 48.4331 65.5334 48.4503 65.6365 48.5361C65.6708 48.5705 65.7051 48.5876 65.7395 48.622C65.8425 48.7078 65.9455 48.8108 66.0657 48.8966C66.1172 48.8966 66.1687 48.931 66.2202 48.9482C66.3232 48.9825 66.4091 49.0168 66.4434 49.1198C66.4777 49.2228 66.4434 49.343 66.409 49.446C66.3403 49.5662 66.2545 49.6692 66.1343 49.7379C66.0313 49.7894 65.9111 49.841 65.791 49.8238C65.7051 49.8066 65.6364 49.7894 65.5506 49.7722C65.3617 49.7894 65.1728 49.8066 65.0012 49.8238C64.7951 49.841 64.5891 49.8753 64.4003 49.7722C64.3831 49.7722 64.366 49.755 64.3488 49.7379C64.2458 49.6864 64.1771 49.6177 64.1427 49.5147C64.1427 49.4632 64.1256 49.4117 64.1084 49.3602C64.1084 49.2057 64.1427 49.0511 64.2286 48.9138" fill="#ED6D68"/>
<path d="M141.54 22.4568C141.282 22.1992 141.883 21.667 142.141 21.9245C142.965 22.783 143.686 23.607 144.218 24.6715C144.75 25.7188 145.042 26.8348 145.18 27.9851C145.454 30.3201 144.939 32.7752 143.566 34.7153C143.154 35.299 141.866 35.2132 142.381 34.3548C143.48 32.5005 144.029 30.4918 143.892 28.3285C143.755 26.2854 142.982 23.9504 141.54 22.4396" fill="#781C12"/>
<path d="M138.278 34.2688C138.587 33.9769 138.93 33.7194 139.257 33.4104C139.325 33.3417 139.257 33.4103 139.308 33.3588C139.342 33.3245 139.36 33.2901 139.394 33.2558C139.463 33.1699 139.548 33.0841 139.617 32.9982C139.737 32.8609 139.857 32.6892 139.961 32.5347C140.424 31.7965 140.682 30.9551 140.647 30.0967C140.647 29.7876 141.265 29.4442 141.3 29.8735C141.403 30.8521 141.231 31.8308 140.802 32.7236C140.561 33.2043 140.252 33.6335 139.892 34.0284C139.514 34.4233 139.068 34.801 138.518 34.9383C138.347 34.9898 138.141 34.9899 138.072 34.801C138.003 34.6122 138.141 34.4062 138.278 34.2688Z" fill="#781C12"/>
<path d="M101.108 37.5481C101.108 36.1403 101.537 34.7668 102.309 33.5821C102.361 33.4276 102.412 33.273 102.481 33.1013C102.67 32.6206 103.511 32.2258 103.854 32.6379C104.095 32.6379 104.301 32.6894 104.37 32.9641C104.387 33.0499 104.37 33.1357 104.404 33.2215C104.404 33.2215 104.404 33.2387 104.404 33.2559C104.404 33.3418 104.404 33.4447 104.421 33.5306C104.661 35.2818 104.181 37.1018 102.979 38.4409C102.739 38.7156 102.412 38.9388 102.035 38.9388C101.726 38.9388 101.468 38.75 101.468 38.4238C101.468 38.3379 101.468 38.2692 101.468 38.1834C101.417 38.1319 101.365 38.0632 101.348 37.9945C101.348 37.9945 101.348 37.9601 101.348 37.943C101.211 37.8571 101.09 37.737 101.09 37.5481" fill="#0C0C0C"/>
<path d="M70.8216 32.3802C70.8731 32.0197 70.9418 31.6763 71.062 31.3329C71.0791 31.2471 71.0963 31.144 71.1135 31.0582C71.3367 30.2684 71.6972 29.5302 72.1435 28.8434C72.4698 28.3455 73.5171 28.0537 73.6201 28.8434C73.6201 28.8606 73.6201 28.8949 73.6201 28.9121C73.809 28.9979 73.9291 29.1353 73.9634 29.3585C74.2381 31.041 73.7918 32.758 72.8303 34.1486C72.59 34.492 72.0062 34.8181 71.5942 34.5949C71.5598 34.5778 71.5255 34.5263 71.4912 34.4919C71.4053 34.5091 71.3194 34.5607 71.2336 34.5607C70.9074 34.5607 70.6842 34.3547 70.6499 34.0284C70.6155 33.4447 70.6842 32.8952 70.8216 32.3458" fill="#0C0C0C"/>
<path d="M75.9891 9.68335C78.4099 9.73486 80.7964 10.2156 83.1828 10.5246C85.3976 10.8165 87.7669 11.1427 89.9474 10.5246C90.1878 10.4559 90.1191 10.7478 89.9474 10.8164C87.7326 11.7264 85.4491 11.9668 83.0627 11.8123C80.5217 11.6578 77.8605 11.5032 75.4225 10.7821C74.6499 10.5589 75.4569 9.66618 75.9891 9.68335Z" fill="#781C12"/>
<path d="M128.011 49.8239C128.302 49.1028 128.594 48.3988 128.903 47.6949C129.539 46.2012 130.311 44.7763 131.101 43.3684C131.17 43.2311 131.324 43.1108 131.496 43.1108C131.633 43.1108 131.736 43.2311 131.685 43.3684C131.135 44.8106 130.62 46.2699 130.019 47.6949C129.728 48.3988 129.436 49.12 129.144 49.8239C128.852 50.545 128.612 51.4206 128.028 51.9528C127.908 52.073 127.547 52.1932 127.478 51.9528C127.29 51.3004 127.787 50.4077 128.028 49.8239" fill="#781C12"/>
<path d="M127.427 44.2443C127.582 43.4545 127.805 42.6476 128.062 41.875C128.595 40.2783 129.402 38.8018 130.312 37.3768C130.483 37.102 131.067 36.9818 130.878 37.4626C130.346 38.8704 129.968 40.3298 129.556 41.772C129.35 42.4931 129.178 43.2313 129.024 43.9695C128.869 44.725 128.646 45.6006 128.251 46.2702C128.114 46.4934 127.65 46.8196 127.479 46.459C127.17 45.8238 127.307 44.8967 127.444 44.2271" fill="#781C12"/>
<path d="M64.5203 12.1896C64.5031 11.8119 64.5203 11.5029 64.6405 11.1595C64.6748 11.0736 64.7435 10.9707 64.8294 10.8676C64.8294 10.8676 64.8465 10.8504 64.8637 10.8333C64.8122 10.9019 64.898 10.8332 64.9152 10.7989C64.9495 10.7817 64.9838 10.7646 65.001 10.7474C65.5504 10.5243 66.2544 10.5585 66.924 10.6787C68.5035 11.2453 70.186 11.6917 71.8686 11.7432C72.2463 11.7947 72.6069 11.8634 72.9846 11.9149C76.0063 12.327 78.9937 12.3613 82.0326 12.1553C82.7708 11.9836 83.2515 12.6875 83.097 13.34C82.9082 14.0954 82.1356 14.7649 81.3458 14.8679C79.9036 15.0224 78.4271 15.074 76.9506 15.0397C77.5 15.1598 78.0322 15.2629 78.5816 15.3659C80.2641 15.6921 78.5816 18.0613 77.3111 17.8725C76.178 17.8381 75.0448 17.6493 73.9288 17.3746C74.6671 17.9583 75.4225 18.4735 76.3497 18.8168C77.5858 19.2632 78.8735 19.6237 80.1268 20.0014C81.3973 20.3791 82.7708 20.7569 83.9211 21.4608C84.4705 21.8042 83.801 22.5939 83.3374 22.6111C82.5476 22.6283 81.7579 22.5767 80.9681 22.4737C82.2214 23.1433 83.5263 23.7271 84.8998 24.122C88.7456 25.2036 92.8146 25.1349 96.7463 24.534C100.918 23.8987 105.005 22.7484 109.039 21.5466C112.971 20.362 116.885 19.0571 120.714 17.5806C120.834 17.5291 120.817 17.6837 120.748 17.7352C112.954 21.9244 104.386 25.3238 95.5788 26.6973C91.4583 27.3497 87.2175 27.3669 83.2 26.1479C80.4358 25.3066 77.0364 23.7614 75.3367 21.2204C75.0105 21.1174 74.6671 20.9972 74.3409 20.877C74.2722 20.8598 74.2035 20.8084 74.1349 20.7912C72.0918 20.3791 70.1174 19.4863 68.5207 18.3017C66.5462 16.808 64.9667 14.7306 64.6749 12.3098C64.6405 12.2583 64.6061 12.2239 64.5718 12.1724" fill="#CE5F28"/>
<path d="M70.8387 15.0571C73.1736 15.5722 75.3884 16.568 77.689 17.1861C79.9897 17.8041 82.3418 18.199 84.7111 18.4222C89.4497 18.8514 94.6004 18.6625 99.2188 17.4607C99.545 17.3749 99.4592 17.7697 99.2188 17.8556C94.3085 19.5553 89.4841 20.4309 84.2475 20.139C81.7237 20.0017 79.2171 19.5725 76.7791 18.9544C74.4613 18.3535 71.8859 17.6153 69.9974 16.1044C69.551 15.7439 70.4094 14.9884 70.8215 15.0742" fill="#781C12"/>
<path d="M81.5348 22.6628C84.0929 22.4052 86.7541 22.783 89.3295 22.6628C91.9735 22.5598 94.6003 22.2507 97.1585 21.5983C101.502 20.4652 105.606 18.3705 108.988 15.4346C109.348 15.1256 109.829 15.4518 109.469 15.8467C106.292 19.5036 101.949 21.8902 97.2615 23.2122C94.6346 23.9505 91.8876 24.3796 89.1749 24.5169C86.5309 24.6371 83.3547 24.7745 80.848 23.8302C80.1441 23.5727 81.1914 22.6971 81.5348 22.6628Z" fill="#781C12"/>
<path d="M78.2555 50.3218C78.2555 50.3218 96.6262 54.7513 96.7808 55.5583C96.9353 56.3652 93.141 66.9928 83.6466 64.2973C74.1522 61.6189 78.2555 50.3218 78.2555 50.3218Z" fill="#D73532"/>
</g>
<mask id="mask10_387_429" style="mask-type:luminance" maskUnits="userSpaceOnUse" x="77" y="50" width="20" height="15">
<path d="M83.6466 64.3148C93.141 66.9932 96.9353 56.3828 96.7808 55.5758C96.6262 54.7689 78.2555 50.3394 78.2555 50.3394C78.2555 50.3394 74.1522 61.6365 83.6466 64.3148Z" fill="white"/>
</mask>
<g mask="url(#mask10_387_429)">
<path d="M75.9033 60.4344C75.9033 60.4344 81.0197 57.0693 86.7712 58.6831C92.5056 60.297 94.9093 63.6622 94.9093 63.6622C94.9093 63.6622 83.0456 74.7189 75.9205 60.4344" fill="#BC2825"/>
<path d="M95.8708 53.4809C93.1924 52.9659 90.4969 52.468 87.8186 51.953C86.5137 51.6954 85.1917 51.4551 83.8869 51.1975C83.2516 51.0774 82.6336 50.9572 81.9984 50.8541C81.861 50.837 81.7236 50.8027 81.6035 50.7683C81.5519 50.7512 81.5004 50.7339 81.4489 50.7168C81.3803 50.6824 81.2944 50.6481 81.2257 50.6138C81.1227 50.133 80.7965 49.6866 80.4016 49.4463C80.0582 49.2574 79.4402 49.1887 79.3715 49.7553C79.2685 50.6138 79.5947 51.3349 80.1098 51.9186C80.1784 52.0388 80.2471 52.1418 80.333 52.2448C80.4016 52.3307 80.4703 52.3993 80.5218 52.4336C80.8824 52.7084 81.3116 52.8801 81.758 53.0346C83.1658 53.6355 84.711 54.0476 86.1704 54.4425C89.5355 55.3524 93.0036 55.8846 96.4889 56.0734C98.0684 56.1593 96.9181 53.6699 95.8708 53.4638" fill="white"/>
</g>
<mask id="mask11_387_429" style="mask-type:luminance" maskUnits="userSpaceOnUse" x="0" y="0" width="272" height="214">
<path d="M271.886 0H0V213.89H271.886V0Z" fill="white"/>
</mask>
<g mask="url(#mask11_387_429)">
<path d="M153.936 28.2941C154.005 29.6848 153.85 31.127 153.576 32.3631C153.25 33.8225 152.769 35.1274 151.996 36.4151C151.739 36.8443 151.361 37.3593 150.915 37.8744C150.88 37.9087 150.812 37.9774 150.777 38.0118C150.657 38.1148 150.554 38.2178 150.434 38.3208C150.399 38.3551 150.211 38.4925 150.176 38.5268C150.056 38.6127 149.919 38.6985 149.799 38.7672C149.678 38.8359 149.541 38.956 149.421 39.059C149.369 39.0419 149.301 39.0418 149.249 39.0075C148.631 38.5439 148.923 37.6168 149.352 37.1018C149.593 36.8099 149.816 36.5352 150.022 36.2261C150.022 36.209 150.09 36.106 150.159 36.0373C150.176 36.003 150.348 35.7454 150.365 35.7111C150.554 35.3849 150.726 35.0587 150.88 34.7325C150.932 34.6123 151 34.475 151.052 34.3548C151.069 34.3205 151.138 34.1316 151.172 34.0458C151.636 32.7581 151.979 31.3674 152.168 30.011C152.185 29.8565 152.271 29.6848 152.391 29.5132C152.511 29.0668 152.855 28.6547 153.267 28.4487C153.473 28.3457 153.713 28.277 153.953 28.2941" fill="#CE5F28"/>
</g>
<path d="M32.4492 104.404L40.7074 98.6353L59.8336 129.745L54.2193 133.402L32.4492 104.404Z" fill="#EF7D3E"/>
<mask id="mask12_387_429" style="mask-type:luminance" maskUnits="userSpaceOnUse" x="0" y="0" width="272" height="214">
<path d="M271.886 0H0V213.89H271.886V0Z" fill="white"/>
</mask>
<g mask="url(#mask12_387_429)">
<path d="M50.7508 128.595C50.1671 127.839 49.6005 127.067 49.0168 126.311C47.7978 124.749 46.5616 123.204 45.3255 121.658C42.9046 118.62 40.6384 115.443 38.3549 112.301C38.3206 112.25 38.2519 112.267 38.2862 112.336C40.3808 115.598 42.6128 118.791 44.7074 122.053C45.7204 123.616 46.7505 125.144 47.815 126.672C48.3472 127.444 48.9138 128.217 49.4803 128.972C50.0298 129.728 50.5276 130.5 51.3002 131.033C51.6265 131.273 52.2445 131.204 52.09 130.672C51.8496 129.865 51.2659 129.247 50.768 128.595" fill="#0B0C0C"/>
<path d="M28.8951 207.709C29.0496 207.692 29.2213 207.692 29.3758 207.709C30.2342 207.091 31.1614 206.593 31.6936 206.232C36.7756 202.781 41.8576 199.348 46.9396 195.914C57.0005 189.115 67.0615 182.316 77.1225 175.552C97.3474 161.954 117.589 148.408 137.883 134.913C148.425 127.908 159.001 120.955 169.594 114.053C175.981 109.606 182.385 105.142 188.772 100.678C199.949 92.8664 211.074 84.9514 222.371 77.3113C222.955 76.9164 223.71 76.6761 224.414 76.762C221.564 80.3159 217.495 83.3548 214.491 86.7885C205.837 93.3642 196.961 99.6652 188.05 105.863C175.586 114.516 162.898 122.878 150.021 130.93C147.618 132.441 145.214 133.917 142.793 135.411C130.226 144.115 117.658 152.803 105.056 161.456C93.8449 169.148 82.6165 176.839 71.3709 184.497C71.182 184.617 70.9932 184.72 70.7871 184.823C62.134 190.694 53.4122 196.446 44.5874 202.043C40.3982 204.704 36.209 207.331 31.9855 209.941C32.0542 211.52 29.9424 212.945 28.2942 212.053C27.5559 212.053 26.8005 211.812 26.4056 211.28C25.1008 209.563 27.3499 207.932 28.8779 207.743" fill="#0B0C0C"/>
</g>
<path d="M207.692 40.1408L0 182.848L24.7575 212.739L226.509 77.9982L271.903 30.4061L271.405 22.2852L207.692 40.1408Z" fill="#FED061"/>
<mask id="mask13_387_429" style="mask-type:luminance" maskUnits="userSpaceOnUse" x="4" y="22" width="268" height="191">
<path d="M207.606 40.6902L14.6793 172.804L4.25781 187.982L24.7574 212.739L225.891 77.8951L260.812 41.2738L271.234 26.0794V23.1435L270.942 22.9375L207.606 40.6902Z" fill="white"/>
</mask>
<g mask="url(#mask13_387_429)">
<path d="M13.2371 203.983C25.5471 195.21 37.9087 186.488 50.2875 177.835C62.6834 169.165 75.1137 160.563 87.5783 151.996C100.043 143.446 112.507 134.913 125.024 126.466C137.557 118.002 150.124 109.606 162.726 101.262C175.346 92.9178 188.016 84.6425 200.721 76.4358C202.335 75.3885 203.966 74.3755 205.563 73.3282C206.816 72.5213 209.288 73.6715 207.468 74.8562C194.867 83.0457 182.35 91.3726 169.817 99.6652C157.215 108.009 144.63 116.388 132.097 124.835C119.615 133.23 107.151 141.695 94.7377 150.193C82.3074 158.692 69.9458 167.276 57.6014 175.895C45.2055 184.548 32.8439 193.253 20.5338 202.009C19.0401 203.073 17.5293 204.155 16.0184 205.219C15.3145 205.717 14.3015 205.992 13.4603 205.597C12.8078 205.288 12.5332 204.481 13.2199 204" fill="white"/>
<path d="M5.9403 194.094C18.6968 185.029 31.4361 175.946 44.2269 166.933C57.0692 157.867 69.9287 148.854 82.8397 139.909C95.682 130.998 108.559 122.156 121.47 113.331C134.381 104.507 147.326 95.7161 160.306 86.9943C173.371 78.221 186.471 69.5336 199.657 60.932C201.271 59.8847 202.884 58.8374 204.481 57.7901C205.734 56.966 208.207 58.1163 206.404 59.3181C193.407 67.9884 180.41 76.693 167.431 85.3804C154.485 94.0507 141.574 102.755 128.681 111.494C115.718 120.285 102.807 129.161 89.9304 138.072C77.1224 146.931 64.3316 155.824 51.5752 164.786C38.7672 173.783 25.9935 182.797 13.2886 191.93C11.7262 193.046 10.181 194.162 8.61864 195.278C7.94905 195.759 6.95327 196.034 6.1635 195.656C5.52825 195.347 5.27071 194.574 5.9403 194.111" fill="white"/>
<path d="M262.769 42.0465L252.279 22.9375L193.081 40.2609C193.081 40.2609 216.087 33.9771 218.336 37.8744C220.586 41.7718 200.189 59.7304 201.168 61.4816C202.146 63.2329 224.843 46.9052 226.492 51.1631C228.157 55.421 202.181 74.3754 203.4 76.367C204.619 78.3414 229.977 57.0521 232.535 62.0139C235.11 66.9757 224.706 78.5819 224.706 78.5819L262.752 42.0465H262.769Z" fill="#F4A29D"/>
</g>
<mask id="mask14_387_429" style="mask-type:luminance" maskUnits="userSpaceOnUse" x="0" y="0" width="272" height="214">
<path d="M271.886 0H0V213.89H271.886V0Z" fill="white"/>
</mask>
<g mask="url(#mask14_387_429)">
<path d="M96.3518 114.74C93.4674 114.122 90.3255 114.225 87.4583 114.74C81.5179 115.873 77.3631 120.937 74.1182 125.916C73.6718 126.38 73.2254 126.844 72.7618 127.29L51.6269 131.582L40.3127 109.572C40.3127 109.572 31.0414 117.675 30.0285 119.272C27.5905 123.118 22.6115 128.458 27.5561 138.621C33.6339 151.172 53.3094 148.219 65.6024 145.455C66.375 145.317 67.1304 145.146 67.8858 144.94C68.1605 144.871 68.4352 144.819 68.7099 144.751V144.682C72.985 143.291 76.9682 140.716 80.505 138.175C83.1662 136.269 85.793 133.574 89.2954 134.226C91.3385 134.604 94.6693 136.492 96.0943 133.969C96.2316 133.728 96.0771 133.402 95.9054 133.213C94.4632 131.479 92.5575 130.398 90.4457 129.865C89.4499 129.608 88.3511 129.419 87.2351 129.385C87.8361 129.161 88.437 128.973 89.0894 128.87C90.4973 128.664 91.9737 128.801 93.3473 129.247C94.6864 129.676 96.06 130.638 97.5021 130.123C98.0344 129.934 98.4979 129.505 98.6696 128.938C98.7555 128.629 98.7555 128.32 98.6868 128.028C99.5281 128.166 100.455 127.942 100.661 126.964C101.125 124.766 98.2404 122.895 96.7123 122.105C93.725 120.543 90.5144 120.354 87.4412 121.006C88.3511 120.474 89.2783 119.993 90.2569 119.65C93.4675 118.482 96.7295 118.894 100.06 119.169C100.283 119.169 100.644 119.204 100.764 118.929C101.863 116.319 98.1031 115.134 96.3862 114.774" fill="#F4A09C"/>
<path d="M100.781 126.414C100.799 126.088 100.799 125.762 100.781 125.453C100.747 125.264 100.73 125.092 100.696 124.921C98.7383 122.517 95.6479 121.058 92.7636 120.663C90.9608 120.422 89.141 120.56 87.3554 120.817C85.2951 121.109 83.4581 121.916 82.0502 123.513C81.6897 123.925 82.5653 124.526 82.9258 124.251C85.7072 122.105 89.1581 121.041 92.6262 121.59C95.7853 122.088 98.395 123.547 100.404 126.191C100.49 126.294 100.627 126.38 100.799 126.432" fill="#ED6D68"/>
<path d="M98.8071 127.926C98.8071 127.926 98.8071 127.857 98.8071 127.84C98.8071 127.788 98.8071 127.754 98.7899 127.703C98.7728 127.617 98.7556 127.531 98.7213 127.445C98.6869 127.359 98.6698 127.273 98.6354 127.17C98.6183 127.136 98.6011 127.084 98.5839 127.05C98.5153 126.896 98.4122 126.741 98.3264 126.587C96.1631 125.333 93.5706 124.749 91.1841 124.681C88.1452 124.595 85.1063 125.11 82.6684 127.033C82.2048 127.411 83.2006 128.012 83.5955 127.806C85.9476 126.552 88.6603 125.539 91.3558 125.608C94.1028 125.659 96.4721 126.638 98.8415 128.012C98.8415 127.977 98.8415 127.96 98.8415 127.926" fill="#ED6D68"/>
<path d="M96.1802 133.076C96.1802 133.076 96.1802 132.922 96.1459 132.836C96.1459 132.836 96.1459 132.836 96.1459 132.819C96.06 132.75 95.9913 132.681 95.9055 132.613C95.4247 132.2 94.9097 131.823 94.3775 131.497C93.3473 130.844 92.2142 130.329 91.0639 129.951C88.7633 129.23 86.2738 129.041 83.9903 129.797C83.7328 129.883 83.7843 130.192 83.9388 130.363C84.1277 130.604 84.4367 130.707 84.7114 130.655C86.806 130.243 89.0208 130.26 91.081 130.913C92.0768 131.222 93.0212 131.668 93.9139 132.235C94.738 132.75 95.4076 133.471 96.1802 134.055C96.2317 133.729 96.2489 133.402 96.2146 133.076" fill="#ED6D68"/>
<path d="M203.468 93.5534C203.468 93.5534 214.13 85.9648 210.216 84.9518C206.318 83.9389 198.266 92.2486 198.266 92.2486C198.266 92.2486 182.333 91.7851 184.188 98.8071C185.784 104.816 184.497 107.168 184.497 107.168L154.451 128.698L166.59 131.016C186.299 127.977 193.785 107.683 193.785 107.683L203.468 93.5363V93.5534Z" fill="#F4A09C"/>
<path d="M185.595 73.6547C188.205 75.011 190.574 77.0885 192.446 79.3205C196.326 83.9733 200.618 92.8151 196.841 97.3821C194.815 99.8372 191.519 101.262 189.407 103.546C180.822 112.834 182.23 98.5152 181.647 96.97C181.08 95.4248 180.204 94.0514 178.642 93.1758C176.822 92.18 173.045 91.5104 173.56 88.6604C173.612 88.3857 173.938 88.2311 174.178 88.1796C176.393 87.7675 178.556 88.1453 180.531 89.0724C181.458 89.5016 182.436 90.0681 183.312 90.7377C183.003 90.1883 182.66 89.6561 182.213 89.1582C181.252 88.0937 180.033 87.2697 178.693 86.7375C177.389 86.2224 175.706 86.0678 174.934 84.7802C174.642 84.2995 174.556 83.6642 174.796 83.1319C174.916 82.8401 175.122 82.5997 175.363 82.4109C174.642 81.9816 174.058 81.2262 174.504 80.3334C175.534 78.3418 178.951 78.7367 180.651 79.0973C183.964 79.784 186.54 81.6898 188.514 84.1449C188.154 83.1491 187.742 82.2048 187.209 81.312C185.475 78.3762 182.694 76.625 179.947 74.7021C179.758 74.5647 179.483 74.3587 179.569 74.0668C180.376 71.3541 184.033 72.8307 185.595 73.6376" fill="#F4A09C"/>
<path d="M174.762 79.8525C174.951 79.595 175.157 79.3375 175.38 79.1143C175.517 78.9941 175.655 78.8739 175.792 78.7537C178.831 78.1356 182.144 78.9769 184.617 80.5049C186.162 81.4664 187.467 82.7369 188.686 84.0589C190.076 85.6041 191.004 87.3896 191.072 89.5186C191.089 90.068 190.025 89.965 189.922 89.5186C189.149 86.102 187.158 83.0802 184.119 81.2946C181.372 79.6808 178.436 79.1314 175.208 79.904C175.071 79.9383 174.916 79.904 174.745 79.8353" fill="#ED6D68"/>
<path d="M175.329 82.2732C175.329 82.2732 175.38 82.2218 175.397 82.2218C175.432 82.1874 175.466 82.153 175.5 82.1358C175.569 82.0843 175.638 82.0157 175.724 81.9642C175.792 81.9127 175.878 81.8611 175.964 81.8096C175.998 81.7925 176.05 81.7753 176.084 81.7582C176.239 81.6895 176.41 81.6208 176.582 81.5693C179.054 81.9814 181.424 83.166 183.312 84.6253C185.716 86.4967 187.742 88.8146 188.394 91.8535C188.514 92.4372 187.347 92.2655 187.192 91.8707C186.179 89.3983 184.72 86.9088 182.608 85.2434C180.462 83.5437 178.007 82.7712 175.312 82.342C175.329 82.3248 175.346 82.2904 175.363 82.2732" fill="#ED6D68"/>
<path d="M174.075 87.9221C174.075 87.9221 174.196 87.8019 174.264 87.7676C174.264 87.7676 174.281 87.7676 174.299 87.7676C174.402 87.7676 174.505 87.7676 174.608 87.7676C175.243 87.7676 175.878 87.8019 176.496 87.8706C177.715 88.0251 178.917 88.3341 180.033 88.7977C182.282 89.7076 184.308 91.1499 185.596 93.1758C185.75 93.4162 185.493 93.605 185.27 93.6393C184.978 93.708 184.669 93.5879 184.497 93.3818C183.141 91.7336 181.424 90.3429 179.415 89.5359C178.454 89.141 177.441 88.8836 176.393 88.7634C175.432 88.6432 174.453 88.7634 173.492 88.729C173.646 88.4543 173.852 88.1796 174.075 87.9392" fill="#ED6D68"/>
</g>
<path d="M32.4492 104.404L40.7074 98.6353L59.8336 129.745L57.3613 130.638L52.9317 131.222L32.4492 104.404Z" fill="#EF7D3E"/>
<mask id="mask15_387_429" style="mask-type:luminance" maskUnits="userSpaceOnUse" x="0" y="0" width="272" height="214">
<path d="M271.886 0H0V213.89H271.886V0Z" fill="white"/>
</mask>
<g mask="url(#mask15_387_429)">
<path d="M50.7513 128.595C50.1676 127.839 49.601 127.067 49.0172 126.311C47.7983 124.749 46.5621 123.204 45.3259 121.658C42.9051 118.62 40.6389 115.443 38.3554 112.301C38.3211 112.25 38.2524 112.267 38.2867 112.336C40.3813 115.598 42.6133 118.791 44.7079 122.053C45.7209 123.616 46.751 125.144 47.8155 126.672C48.3477 127.444 48.9143 128.217 49.4808 128.972C50.0302 129.728 50.5281 130.5 51.3007 131.033C51.6269 131.273 52.245 131.204 52.0905 130.672C51.8501 129.865 51.2664 129.247 50.7685 128.595" fill="#0B0C0C"/>
</g>
</svg>
