<svg width="103" height="106" viewBox="0 0 103 106" fill="none" xmlns="http://www.w3.org/2000/svg">
<path d="M50.1464 85.2118C53.0897 82.2262 56.0838 79.2914 59.0982 76.3768C72.2823 62.1698 86.7655 49.1712 102.304 37.7162C96.3567 31.3083 90.4092 24.9106 84.5225 18.4519C78.0167 20.1174 71.4196 21.7219 65.0965 23.8443C67.238 18.4215 69.7754 13.1712 72.8202 8.15461C73.1247 7.657 73.4089 7.08832 73.6728 6.48916C73.4495 6.23529 73.2059 5.98141 72.9826 5.72753C72.0489 4.6917 71.1253 3.65588 70.1814 2.62006C52.3286 14.7453 34.1104 26.4237 19.6779 42.6618C12.0658 51.2226 5.88484 60.7785 0.201172 70.6696C4.70751 75.9503 9.00073 81.4239 13.162 86.9991C15.202 89.3856 17.242 91.7822 19.2618 94.1889C23.5651 97.9768 27.8583 101.765 32.1718 105.542C37.9265 98.5658 43.7625 91.6705 50.1363 85.222" fill="#D93231"/>
<path d="M48.7458 4.77291C42.4125 9.00761 36.2417 13.4556 30.4667 18.3808C27.6553 21.5797 24.986 24.9004 22.4385 28.3328C22.9662 28.3125 23.5143 28.1805 24.0725 27.7845C34.77 20.2697 45.4776 12.7447 56.1751 5.21974C57.8396 4.0519 59.0982 2.07165 59.4331 0C55.8707 1.5842 52.298 3.1684 48.7559 4.77291" fill="#D93231"/>
</svg>
