<svg width="122" height="26" viewBox="0 0 122 26" fill="none" xmlns="http://www.w3.org/2000/svg">
<path d="M108.747 25.156C115.61 25.156 121.173 19.5931 121.173 12.7308C121.173 5.86861 115.61 0.305664 108.747 0.305664C101.885 0.305664 96.3223 5.86861 96.3223 12.7308C96.3223 19.5931 101.885 25.156 108.747 25.156Z" fill="#FED064"/>
<path d="M13.223 25.156C20.0853 25.156 25.6482 19.5931 25.6482 12.7308C25.6482 5.86861 20.0853 0.305664 13.223 0.305664C6.36078 0.305664 0.797852 5.86861 0.797852 12.7308C0.797852 19.5931 6.36078 25.156 13.223 25.156Z" fill="white"/>
<path d="M60.4272 25.156C67.2894 25.156 72.8523 19.5931 72.8523 12.7308C72.8523 5.86861 67.2894 0.305664 60.4272 0.305664C53.5649 0.305664 48.002 5.86861 48.002 12.7308C48.002 19.5931 53.5649 25.156 60.4272 25.156Z" fill="#D83431"/>
</svg>
