<svg width="864" height="650" viewBox="0 0 864 650" fill="none" xmlns="http://www.w3.org/2000/svg">
<path d="M0.466664 34.4446C0.529942 33.5976 0.593221 32.7594 0.6565 31.9124C0.893795 28.4273 1.13109 24.9422 1.35256 21.4571C1.60568 17.7603 1.90625 14.0723 2.19101 10.3755C2.25428 9.5461 2.30174 5.66398 2.90289 4.79933C3.12437 4.49053 3.3933 4.19055 3.69387 3.89939C3.94699 3.55529 4.23174 3.22002 4.57977 2.92004C5.70297 2.59359 6.87363 2.31125 8.0601 2.06421C8.23412 2.02891 8.42395 1.99362 8.59797 1.95833C8.59797 1.95833 8.59797 1.95833 8.62961 1.95833C8.62961 1.95833 8.62961 1.95833 8.66125 1.95833C9.1042 1.8701 9.54715 1.79069 9.9901 1.70246C10.8602 1.53483 11.7144 1.37601 12.5845 1.20838C22.1712 1.08485 31.7738 1.1025 41.3447 1.04956L75.1671 0.846633C97.8366 0.714289 120.522 0.564298 143.192 0.42313C154.534 0.352546 165.877 0.299608 177.22 0.546652C188.436 0.793695 199.604 1.55247 210.821 1.78187C222.116 2.02009 233.379 1.57894 244.659 1.20838C255.907 0.83781 267.154 0.714289 278.418 0.802519C302.828 1.00545 327.301 1.34072 351.647 2.3289C379.506 2.17008 407.38 2.56712 435.254 2.65535L459.332 2.6377C464.346 2.62006 469.377 2.60241 474.392 2.62888C482.286 2.66417 490.085 3.11414 497.615 4.47288C501.538 5.18754 505.478 6.0522 509.654 6.13161C513.593 6.21101 517.485 5.7081 521.297 5.20519C529.16 4.16408 537.038 3.28178 545.074 2.7524C577.362 0.643704 609.808 2.88474 642.049 4.0582C675.064 5.25813 708.032 4.42877 741.032 3.61705C759.858 3.14943 778.683 2.68182 797.493 2.22302C816.112 1.76423 854.064 1.2172 854.491 1.2172C856.12 1.23485 857.702 1.42013 859.316 1.54365C862.891 13.0047 863.381 25.0304 862.527 36.5709C862.053 42.8176 860.914 49.0554 858.81 55.1962C856.658 61.4959 852.83 67.6896 852.213 74.1304C851.596 80.4123 855.503 86.2532 857.496 92.3499C859.553 98.6318 859.759 105.046 859.711 111.425C859.616 124.757 859.221 138.079 858.904 151.411C857.607 204.949 855.535 258.487 857.291 312.025C857.291 312.378 857.323 312.73 857.338 313.083C857.402 313.11 857.433 313.145 857.433 313.189C857.528 318.818 858.208 324.447 858.208 330.076C858.208 330.959 858.208 331.841 858.208 332.723C858.398 336.226 858.588 339.729 858.81 343.232C858.604 345.305 858.43 347.387 858.272 349.461C858.335 359.298 858.446 369.136 858.525 378.973C858.699 400.863 858.778 422.744 859.11 444.634C859.775 488.149 860.819 531.664 861.784 575.188C862.322 599.681 862.923 624.164 863.271 648.657C863.271 649.028 862.923 649.248 862.401 649.363C862.195 649.61 861.689 649.813 860.724 649.822C804.089 650.307 747.423 649.645 690.789 649.68C676.725 649.689 662.677 649.336 648.614 649.372C634.36 649.407 620.123 649.451 605.869 649.38C577.299 649.248 548.729 649.283 520.158 649.266C462.812 649.23 405.481 649.178 348.135 649.116C289.903 649.054 231.687 648.983 173.455 648.904C144.758 648.869 116.061 648.922 87.364 648.728C72.8416 648.63 58.3191 648.489 43.7967 648.278C37.0892 648.181 30.1285 648.33 23.4843 647.766C20.8898 647.545 18.248 647.131 15.9699 646.389C14.5936 646.019 13.328 645.551 12.3947 644.881C11.0975 643.963 10.6229 642.798 10.3856 641.625C10.3539 641.563 10.3065 641.51 10.2749 641.449V640.999C10.2116 640.646 10.1799 640.293 10.1325 639.957C10.0692 639.525 10.0692 639.102 10.085 638.669C9.80026 637.813 9.54715 636.958 9.32567 636.093C8.7087 621.288 8.32903 590.011 8.64543 589.137C9.15166 587.752 11.1924 587.002 13.0907 586.199C14.4829 585.608 15.9383 584.99 17.4728 584.479C15.0524 583.34 13.3597 581.452 12.0467 579.908C10.4172 578.002 9.21493 575.964 8.51887 573.891C8.51887 573.891 8.51887 573.882 8.51887 573.873C7.55387 571.87 6.90526 569.824 6.62051 567.75C6.31994 565.527 6.35158 563.321 6.62051 561.098C6.73125 560.109 6.88944 559.148 7.31658 558.186C7.42731 555.204 7.75953 552.222 8.10756 549.248C8.72452 543.902 9.30985 538.564 9.6737 533.208C9.80026 531.391 9.89518 529.573 9.97428 527.756C9.8319 523.494 11.0026 454.286 10.5121 424.191C10.0059 392.931 9.56297 361.68 8.99346 330.421C8.42395 299.178 8.09174 267.936 7.58551 236.694C7.34821 221.571 6.63633 206.422 7.03182 191.3L7.00018 189.394C7.03182 189.165 7.07928 188.944 7.11092 188.715C7.39567 181.418 8.28157 174.165 9.42059 166.886C10.5754 159.449 10.4172 152.231 9.15166 144.794C6.2092 127.571 4.2001 110.331 3.74133 93.0292C3.56732 86.8619 2.90289 80.4653 3.78879 74.2539C3.56732 71.9599 3.37748 69.6571 3.25092 67.3631C3.18764 66.1632 2.74469 64.7162 3.80461 63.6134C4.88035 62.4929 7.34822 61.9458 9.24657 61.3723C11.6037 60.6577 13.9292 59.9342 16.318 59.2548C18.1847 58.7343 20.0356 58.2578 21.9023 57.799C22.0763 57.6314 22.2029 57.4549 22.2978 57.2608C19.7825 55.4786 17.2671 53.6963 14.7202 51.9317C12.363 50.3083 9.97428 48.6937 7.55387 47.0967C7.42731 47.0173 7.31658 46.9291 7.19002 46.8497C6.81035 46.6468 6.44649 46.4438 6.08264 46.2321C4.37412 44.8028 2.52322 43.4352 0.561582 42.1206C0.545762 41.6794 0.498303 41.2471 0.498303 40.806C0.419205 38.6884 0.419205 36.5621 0.435024 34.4446H0.466664ZM857.417 22.8335C857.259 19.2955 857.022 15.7575 856.753 12.2195L857.417 22.8335ZM151.813 2.04656C132.672 2.11714 113.53 2.25831 94.388 2.39066L151.813 2.04656L177.979 2.23184C169.262 2.02891 160.53 2.01127 151.813 2.04656ZM287.704 2.70828C276.852 2.58476 266.015 2.523 255.163 2.77005L290.757 2.7524C289.697 2.73475 288.669 2.72593 287.704 2.71711V2.70828ZM655.717 648.11H634.344C641.479 648.145 648.598 648.154 655.717 648.11Z" fill="white"/>
</svg>
