<svg width="231" height="341" viewBox="0 0 231 341" fill="none" xmlns="http://www.w3.org/2000/svg">
<path d="M148.795 203.216C148.795 203.216 146.981 211.636 147.38 213.983C147.78 216.346 149.094 225.914 149.094 225.914L113.001 228.476C113.001 228.476 109.623 220.173 109.374 215.946C108.974 208.941 111.77 186.376 111.77 186.376L148.795 203.216Z" fill="#F18984"/>
<path d="M87.2582 185.477C87.2582 185.477 79.7034 197.608 78.7715 198.207C77.8396 198.806 76.0924 208.458 76.0924 208.458L41.5967 196.377C41.5967 196.377 43.7433 180.967 46.5222 175.826C49.3178 170.684 55.791 163.345 55.791 163.345L87.2748 185.46L87.2582 185.477Z" fill="#F18984"/>
<path d="M148.778 221.171C148.778 221.171 124.949 227.278 111.32 224.1C111.32 224.1 113.4 233.036 118.076 247.014C122.752 260.992 135 309.615 135 309.615L157.548 291.277C157.548 291.277 158.296 270.593 155.634 253.104C152.988 235.665 148.778 221.171 148.778 221.171Z" fill="#FED063"/>
<path d="M77.1904 204.997C77.1904 204.997 61.8479 268.364 59.9842 272.906L42.9277 275.536L32.4941 258.845C32.4941 258.845 38.9507 195.545 42.545 188.223L77.1738 204.98L77.1904 204.997Z" fill="#FED063"/>
<path d="M79.4042 199.255L77.5238 200.32L59.0029 169.02L79.4042 199.255Z" fill="#0B0C0C"/>
<path d="M148.462 209.273L147.863 211.885L103.683 202.783L148.462 209.273Z" fill="#0B0C0C"/>
<path d="M148.778 221.171C148.778 221.171 124.949 227.278 111.32 224.1C111.32 224.1 113.4 233.036 118.076 247.014C122.752 260.992 134.384 310.148 134.384 310.148L158.213 289.78C158.213 289.78 158.28 270.593 155.634 253.104C152.988 235.665 148.778 221.171 148.778 221.171Z" fill="#FED061"/>
<path d="M77.1904 204.997C77.1904 204.997 61.8479 268.364 59.9842 272.906L42.9277 275.536L32.4941 258.845C32.4941 258.845 38.9507 195.545 42.545 188.223L77.1738 204.98L77.1904 204.997Z" fill="#FED061"/>
<path d="M62.248 269.062C62.248 269.062 55.2091 287.916 53.179 291.776C53.179 291.776 17.0192 277.815 14.6729 276.55C12.31 275.286 3.14104 269.561 1.54355 263.671C-0.0539322 257.796 1.44371 255.234 2.79159 254.868C4.15611 254.518 31.2302 268.579 31.2302 268.579C31.2302 268.579 30.8807 256.532 33.1771 255.35C35.4735 254.169 38.5853 257.48 40.3991 260.276C42.2129 263.071 44.3595 270.759 44.3595 270.759C44.3595 270.759 48.4198 263.038 50.0173 262.472C51.6148 261.907 60.767 264.519 62.2314 269.062" fill="#D93231"/>
<path d="M157.115 312.91C157.115 312.91 134.484 320.814 121.854 319.599C109.473 318.384 102.235 312.444 100.837 307.435C99.4225 302.443 99.2893 301.644 100.837 300.895C102.384 300.13 119.175 306.42 130.374 301.478C130.374 301.478 129.675 294.871 129.076 288.049C129.076 288.049 136.78 287.05 139.526 288.981C143.52 291.793 144.418 302.043 144.418 302.043C144.418 302.043 146.149 292.641 150.842 290.878C152.689 290.179 158.197 289.779 158.197 289.779L157.098 312.91H157.115Z" fill="#D93231"/>
<path d="M53.1781 291.776L51.5473 296.103C51.5473 296.103 23.3917 284.738 20.4297 283.356C15.1546 280.91 4.68774 274.554 2.99041 271.758C-0.737058 265.568 -0.254472 260.442 0.610833 257.614C1.4595 254.785 2.77408 255.101 2.77408 255.101C2.77408 255.101 3.88902 263.587 4.98729 266.35C6.81774 270.976 14.905 275.968 23.5414 279.962C26.337 281.26 53.1781 291.793 53.1781 291.793" fill="#3A60AA"/>
<path d="M157.219 312.839L156.719 317.839C156.719 317.839 129.454 321.042 126.426 321.237C121.04 321.596 109.645 321.056 106.966 319.499C101.058 316.038 99.8571 309.587 99.2192 306.839C98.568 304.098 99.7191 301.839 99.7191 301.839C99.7191 301.839 103.839 312.289 106.021 314.09C109.669 317.11 118.512 317.594 127.325 316.998C130.18 316.809 157.219 312.839 157.219 312.839Z" fill="#3A60AA"/>
<path d="M12.1762 270.942C13.99 268.596 17.1017 269.694 19.4314 270.493C20.7127 270.942 21.9607 271.458 23.2088 271.991C23.1921 271.758 23.1589 271.541 23.1422 271.325C23.059 270.543 22.9425 269.761 22.8427 268.979C22.643 267.331 22.46 265.701 22.3102 264.053C22.2769 263.621 22.9925 263.321 23.1922 263.754C23.9077 265.285 24.4901 266.832 24.9394 268.463C25.1557 269.245 25.3388 270.044 25.5218 270.842C25.6882 271.575 25.9046 272.407 25.838 273.172C26.6534 273.555 27.4854 273.954 28.3008 274.337C28.4172 274.387 28.5337 274.437 28.6668 274.503C28.6169 274.254 28.5837 274.021 28.5504 273.804C28.384 273.006 28.2176 272.19 28.0678 271.392C27.7516 269.777 27.552 268.147 27.5187 266.516C27.5187 266.117 28.151 265.8 28.3507 266.233C29.0995 267.814 29.6986 269.461 30.1645 271.142C30.3809 271.941 30.6138 272.74 30.8301 273.522C30.9633 274.004 31.0964 274.503 31.2295 274.986C31.2794 275.169 31.3294 275.352 31.3626 275.535C31.3626 275.602 31.3626 275.652 31.3626 275.718C31.9783 276.001 32.5774 276.301 33.2097 276.55C33.5924 276.717 34.0251 276.9 34.4578 277.083C34.3246 276.866 34.2081 276.633 34.075 276.417C33.5924 275.568 33.0933 274.72 32.6107 273.871C31.5956 272.107 30.5306 270.277 29.7818 268.38C29.6653 268.064 30.1146 267.714 30.3642 267.98C31.762 269.495 32.9268 271.275 34.0417 273.006C34.5909 273.871 35.1234 274.736 35.6559 275.618C35.9221 276.051 36.1884 276.5 36.4546 276.933C36.621 277.199 36.8041 277.465 36.9538 277.748C37.453 277.782 37.9523 277.732 38.4182 277.515C39.7827 276.916 40.6314 275.252 41.3469 274.054C41.7962 273.305 42.2289 272.54 42.6282 271.774C42.8612 271.342 43.0609 270.892 43.2938 270.46C43.2439 270.077 43.2273 269.694 43.194 269.312C43.1441 268.796 43.0942 268.28 43.011 267.764C42.8279 266.666 42.5617 265.567 42.1456 264.536C41.6964 263.388 41.1972 262.256 40.648 261.141C41.3469 262.023 41.9959 262.955 42.5451 263.937C42.6116 264.07 42.7447 264.153 42.8446 264.253C42.8446 264.253 42.8446 264.269 42.8446 264.286C43.2939 265.268 43.7098 266.25 44.0593 267.281C44.3921 268.313 44.8414 269.644 44.675 270.743C44.6418 270.959 44.4587 271.125 44.2257 271.192C44.0427 272.174 43.5934 273.189 43.2772 273.971C42.7447 275.302 42.0624 276.75 41.0973 277.831C38.9839 280.228 36.1052 279.629 33.476 278.547C30.5472 277.332 27.7183 275.884 24.8229 274.57C22.0439 273.305 19.0487 272.007 16.0035 271.508C14.589 271.275 14.0233 271.841 13.6239 273.139C13.524 273.472 13.4242 273.921 13.3077 274.354C13.0581 274.187 12.7919 274.004 12.5423 273.838C12.3259 273.671 12.0929 273.505 11.8933 273.322C11.6769 273.139 11.444 273.006 11.1777 272.889C11.4273 272.19 11.6936 271.508 12.1429 270.926" fill="#0B0C0C"/>
<path d="M33.9423 280.91C35.6895 281.925 37.7529 282.857 39.7664 283.206C40.6317 283.356 41.7633 283.539 42.5953 283.14C43.3442 282.774 43.8267 282.025 44.4591 281.509C45.7404 280.444 47.5875 280.011 49.2182 280.461C51.1485 280.993 52.1303 282.657 53.1121 284.271C53.395 284.737 52.5464 285.103 52.2135 284.787C50.9821 283.572 49.0519 281.542 47.1715 281.642C46.0732 281.709 45.6572 282.79 45.0748 283.589C44.5755 284.255 43.9598 284.771 43.1777 285.087C41.6302 285.719 40.0493 285.336 38.5683 284.737C36.6713 283.972 34.8408 283.107 32.9938 282.225C31.9953 281.742 33.0936 280.411 33.9423 280.893" fill="white"/>
<path d="M135.133 309.632C136.431 309.482 137.713 309.349 139.01 309.232C139.659 309.166 140.358 309.116 140.974 308.883C141.407 308.716 141.706 308.45 141.939 308.117C141.606 308.067 141.257 307.967 140.941 307.868C140.292 307.668 139.676 307.385 139.077 307.086C137.862 306.487 136.681 305.837 135.516 305.155C134.351 304.49 133.186 303.807 132.021 303.142C131.472 302.826 130.907 302.509 130.357 302.177C130.274 302.127 130.191 302.077 130.108 302.027C130.324 302.293 130.524 302.559 130.74 302.826C131.289 303.541 131.838 304.273 132.354 305.006C133.369 306.453 134.551 307.967 135.15 309.648M119.408 315.422C118.975 315.972 118.659 316.571 118.376 317.203C118.343 317.203 118.31 317.17 118.276 317.17C118.243 317.17 118.21 317.153 118.16 317.136C117.86 317.003 117.561 316.937 117.245 316.92C117.095 316.887 116.945 316.853 116.795 316.804C117.594 315.206 118.642 313.725 120.207 312.827C121.438 312.111 122.853 311.795 124.234 311.479C125.881 311.096 127.545 310.746 129.209 310.464C129.492 310.414 129.775 310.38 130.058 310.347C129.875 310.247 129.692 310.147 129.509 310.014C129.176 309.765 128.893 309.449 128.627 309.149C128.044 308.467 127.512 307.751 126.979 307.036C126.43 306.303 125.864 305.571 125.315 304.839C125.032 304.456 124.75 304.074 124.467 303.674C124.217 303.308 123.951 302.959 123.918 302.509C123.884 301.977 124.616 301.844 124.982 302.027C125.432 302.243 125.715 302.692 126.014 303.092C126.264 303.425 126.497 303.757 126.73 304.09L128.244 306.303C128.727 307.002 129.176 307.701 129.642 308.4C130.025 308.983 130.424 309.765 131.073 310.097C131.123 310.114 131.106 310.147 131.139 310.181C132.071 310.048 133.003 309.898 133.935 309.781C132.804 308.683 131.855 307.352 130.857 306.12C130.258 305.372 129.675 304.623 129.076 303.874C128.777 303.508 128.477 303.142 128.194 302.759C127.845 302.31 127.479 301.894 127.312 301.345C127.079 300.529 128.261 300.346 128.743 300.646C128.86 300.712 128.96 300.829 129.059 300.912C129.059 300.912 129.059 300.895 129.059 300.879C129.01 300.596 129.126 300.313 129.376 300.163C130.507 299.481 131.988 300.646 132.987 301.195C134.035 301.777 135.05 302.41 136.082 303.025C137.097 303.641 138.129 304.24 139.16 304.839C139.709 305.155 140.258 305.471 140.808 305.788C141.373 306.12 142.006 306.453 142.505 306.903C143.154 305.089 143.57 303.192 144.119 301.345C145.051 298.2 145.999 294.589 148.496 292.309C148.529 292.276 148.612 292.309 148.579 292.359C146.382 295.054 145.733 298.15 145.45 301.528C145.301 303.208 145.101 304.839 144.618 306.453C144.202 307.851 143.67 309.199 142.322 309.914C141.24 310.497 139.992 310.597 138.794 310.713C137.113 310.863 135.433 311.079 133.769 311.312C130.507 311.778 127.246 312.327 124.017 312.976C122.187 313.359 120.589 313.908 119.408 315.439" fill="#0B0C0C"/>
<path d="M161.757 266.333C161.807 266.582 161.841 266.815 161.89 267.065C161.774 270.975 161.075 274.819 160.01 278.58L159.977 278.647C159.977 278.647 159.977 278.68 159.977 278.713C159.977 278.746 159.96 278.763 159.943 278.796C159.977 273.505 159.993 268.196 159.727 262.921C159.694 262.206 159.611 261.507 159.561 260.791C159.394 259.427 159.211 258.062 159.062 256.698C160.193 259.859 161.092 263.038 161.757 266.349" fill="#FED061"/>
<path d="M81.2507 201.984L54.21 161.914L108.125 139.017L181.51 160.716C181.51 160.716 188.532 165.325 150.741 209.639C150.741 209.639 136.364 208.308 100.986 203.748L113.051 180.085" fill="#3A60AA"/>
<path d="M179.896 157.487C174.704 164.244 171.693 172.181 168.048 179.703C166.251 183.397 164.321 187.074 161.758 190.386C160.56 191.95 159.179 193.398 157.715 194.712C155.884 196.36 153.871 197.857 152.273 199.754C150.692 201.618 150.01 203.781 149.344 206.028C149.095 206.893 148.828 207.792 148.496 208.674C147.73 208.357 146.948 208.058 146.166 207.775C147.214 205.096 147.763 202.25 149.361 199.754C150.609 197.824 152.373 196.277 154.104 194.762C155.784 193.298 157.315 191.684 158.696 189.936C163.871 183.38 166.834 175.709 170.727 168.487C172.99 164.277 175.553 160.3 179.064 156.938C179.48 156.539 180.329 156.955 179.913 157.487" fill="#D93231"/>
<path d="M174.521 151.397C172.191 155.125 169.978 158.985 168.031 162.913C166.1 166.84 164.653 170.9 163.272 174.994C161.957 178.871 160.526 182.765 158.013 186.159C155.301 189.82 151.74 192.732 148.761 196.16C147.13 198.024 145.649 200.004 144.335 202.084C143.453 203.449 142.737 204.88 142.038 206.311C141.306 206.045 140.574 205.762 139.842 205.479C141.373 202.4 143.486 199.405 145.599 196.793C148.495 193.215 152.023 190.236 155.084 186.808C156.599 185.111 157.913 183.247 158.862 181.217C159.794 179.22 160.443 177.14 161.075 175.06C162.34 170.95 163.804 166.94 165.751 163.046C167.931 158.686 170.527 154.692 173.822 151.015C174.121 150.682 174.787 150.965 174.504 151.397" fill="#D93231"/>
<path d="M134.8 189.088C135.765 188.922 136.78 189.038 137.679 189.454C137.812 189.421 137.962 189.438 138.062 189.521C138.311 189.72 138.528 189.92 138.744 190.153C139.343 190.686 139.776 191.368 140.025 192.15C140.475 193.282 140.591 194.53 140.225 195.728C139.559 197.891 137.379 199.389 135.133 198.856C133.003 198.357 131.272 196.293 131.173 194.114C131.073 191.85 132.454 189.487 134.817 189.088" fill="#FED061"/>
<path d="M135.383 195.361H135.349C135.349 195.361 135.333 195.361 135.316 195.361C135.266 195.344 135.249 195.311 135.383 195.394" fill="white"/>
<path d="M135.099 195.261C135.099 195.261 135.099 195.261 135.083 195.261C134.999 195.228 135.033 195.228 135.099 195.261Z" fill="white"/>
<path d="M134.866 195.095C134.866 195.095 134.866 195.095 134.85 195.095C134.85 195.095 134.833 195.062 134.816 195.045C134.833 195.045 134.866 195.078 134.883 195.111" fill="white"/>
<path d="M134.751 192.416C134.751 192.416 134.734 192.433 134.717 192.449C134.684 192.499 134.651 192.533 134.618 192.582C134.568 192.666 134.501 192.749 134.468 192.849C134.434 192.899 134.418 192.949 134.385 192.998C134.335 193.132 134.301 193.265 134.285 193.398C134.251 193.631 134.285 193.864 134.285 194.097C134.285 194.097 134.285 194.097 134.285 194.113C134.285 194.113 134.285 194.113 134.285 194.08C134.285 194.08 134.285 194.097 134.285 194.113C134.285 194.147 134.285 194.18 134.285 194.163C134.285 194.197 134.285 194.23 134.301 194.246C134.301 194.296 134.335 194.363 134.351 194.413C134.351 194.429 134.368 194.463 134.385 194.479C134.418 194.563 134.484 194.662 134.518 194.729C134.518 194.746 134.667 194.895 134.551 194.796C134.434 194.679 134.584 194.829 134.601 194.846C134.634 194.879 134.701 194.945 134.767 195.012C134.734 195.012 134.717 195.012 134.784 195.045C134.784 195.045 134.784 195.045 134.801 195.045L134.834 195.079C134.834 195.079 134.834 195.078 134.834 195.062C134.884 195.095 134.934 195.128 134.984 195.162C135.017 195.195 135.1 195.212 135.133 195.245C135.1 195.212 135.1 195.228 135.083 195.212C135.15 195.228 135.217 195.262 135.283 195.295C135.283 195.295 135.3 195.295 135.316 195.295C135.333 195.295 135.35 195.295 135.366 195.312C135.366 195.312 135.366 195.312 135.35 195.312C135.4 195.312 135.433 195.328 135.483 195.345C135.533 195.345 135.583 195.345 135.633 195.361H135.666C135.749 195.361 135.832 195.361 135.915 195.345C135.965 195.328 136.015 195.311 136.065 195.295C136.115 195.278 136.165 195.261 136.215 195.228C136.248 195.228 136.265 195.228 136.265 195.212C136.348 195.162 136.465 195.062 136.481 195.045C136.515 195.012 136.548 194.995 136.581 194.962C136.648 194.879 136.714 194.812 136.781 194.729C136.831 194.662 136.864 194.579 136.931 194.513C136.947 194.463 136.98 194.413 136.997 194.346C137.014 194.296 137.03 194.23 137.047 194.163C137.014 194.28 137.047 194.113 137.047 194.08C137.047 193.964 137.047 193.847 137.047 193.731C137.047 193.631 136.98 193.598 137.047 193.747C137.03 193.697 137.014 193.614 137.014 193.564C136.98 193.431 136.947 193.315 136.897 193.198C136.831 192.982 136.748 192.782 136.648 192.582C136.614 192.516 136.581 192.433 136.531 192.366C136.331 192.333 136.148 192.233 136.049 192.05C136.049 192.033 135.965 191.933 135.965 191.95C135.965 191.95 135.932 191.933 135.932 191.917C135.916 191.9 135.866 191.867 135.866 191.867C135.866 191.867 135.866 191.867 135.849 191.867C135.683 191.85 135.799 191.85 135.849 191.867C135.816 191.867 135.766 191.867 135.732 191.867C135.699 191.867 135.666 191.867 135.633 191.867C135.533 191.867 135.45 191.9 135.35 191.917C135.333 191.917 135.333 191.917 135.316 191.917C135.316 191.917 135.316 191.917 135.283 191.933C135.25 191.95 135.2 191.967 135.167 191.983C135.15 191.983 135.067 192.05 135.05 192.05C135.034 192.05 135.017 192.083 135 192.1C134.9 192.183 134.801 192.283 134.701 192.383M135.416 190.336C136.198 190.319 137.064 190.752 137.297 191.551C137.347 191.567 137.38 191.584 137.43 191.617C137.563 191.717 137.696 191.8 137.813 191.917C138.079 192.166 138.345 192.449 138.545 192.749C138.911 193.298 139.16 194.063 139.077 194.729C138.977 195.494 138.645 196.127 138.062 196.643C137.563 197.075 136.864 197.342 136.215 197.375C134.784 197.441 133.369 196.526 132.787 195.228C132.471 194.546 132.354 193.814 132.504 193.065C132.537 192.932 132.571 192.815 132.604 192.682C132.604 192.649 132.621 192.616 132.637 192.582C132.637 192.582 132.671 192.483 132.704 192.433C132.721 192.383 132.77 192.266 132.77 192.266C132.77 192.216 132.804 192.183 132.82 192.15C132.97 191.834 133.17 191.551 133.403 191.284C133.919 190.685 134.651 190.369 135.433 190.353" fill="white"/>
<path d="M164.736 197.109C167.482 193.065 169.645 188.672 173.14 185.294C171.775 188.173 170.427 191.085 168.564 193.681C167.199 195.578 165.502 197.192 163.655 198.657C164.004 198.141 164.37 197.625 164.72 197.109" fill="#3A60AA"/>
<path d="M154.053 11.9671C154.053 11.9671 157.215 7.67386 159.312 9.32127C163.488 12.6161 157.714 15.7611 157.714 15.7611L154.053 11.9505V11.9671Z" fill="black"/>
<path d="M110.172 22.084C110.172 22.084 106.728 24.8963 103.083 25.9612C99.4392 27.0262 96.5604 27.5754 98.058 30.4375C99.5557 33.2997 102.9 32.3844 106.461 31.4359C110.023 30.4874 110.189 22.084 110.189 22.084" fill="#AD3B2D"/>
<path d="M196.72 87.1479L208.934 91.541L203.509 136.836L184.422 135.006L196.72 87.1479Z" fill="#D93231"/>
<path d="M183.273 149.151L189.364 135.972C189.364 135.972 192.426 120.629 193.641 112.625C194.606 106.285 196.719 87.1652 196.719 87.1652L138.677 67.2466L90.8689 84.3529L81.7832 130.048L98.9395 125.338L102.933 136.77C102.933 136.77 94.0805 134.108 96.3769 142.495C96.3769 142.495 97.9078 161.315 124.815 163.262C151.74 165.209 180.977 167.855 183.39 160.799C184.505 157.538 183.257 149.168 183.257 149.168" fill="#FED061"/>
<path d="M148.346 86.9651C144.302 91.0087 128.86 95.6015 119.691 88.2631C114.216 83.8866 113.301 76.3152 113.301 76.3152L138.678 67.2295L153.521 72.3215C153.904 76.881 152.639 82.6718 148.346 86.9484" fill="#D93231"/>
<path d="M140.175 58.5435L145.667 69.6426C145.667 69.6426 147.597 82.3226 134.75 84.4859C125.315 86.0834 119.491 78.8781 119.491 78.8781L115.131 66.5974L140.175 58.5435Z" fill="#F18984"/>
<path d="M114.882 14.8789C114.882 14.8789 110.505 21.3521 107.111 25.2627C102.851 30.155 93.4655 38.3919 95.3791 51.2883C97.2928 64.1847 106.794 70.6911 121.921 70.9407C137.047 71.1903 147.53 56.5966 151.774 50.7891C156.017 44.9816 158.863 37.743 158.863 37.743L114.882 14.8789Z" fill="#F18984"/>
<path d="M151.341 42.2692C151.341 42.2692 157.315 40.0061 159.844 45.0981C162.956 51.3383 160.477 58.6934 152.639 59.1926C145.45 59.6585 142.255 56.58 142.255 56.58L151.341 42.2692Z" fill="#F18984"/>
<path d="M150.675 34.9468C150.675 34.9468 142.97 42.9842 140.89 46.6284C138.827 50.2727 136.714 53.035 138.544 53.5841C142.338 54.7157 147.064 46.8448 147.064 46.8448C147.064 46.8448 144.668 51.6538 146.032 52.0033C150.109 53.0516 156.649 38.3747 156.649 38.3747L150.675 34.9634V34.9468Z" fill="#AD3B2D"/>
<path d="M157.631 42.6019C157.631 42.6019 168.814 31.3696 162.59 20.5866C156.383 9.80354 139.177 -2.67686 130.324 2.0324C121.455 6.74166 114.299 14.2465 114.299 14.2465L157.631 42.6019Z" fill="#3A60AA"/>
<path d="M158.978 41.0375L157.614 42.6017C157.614 42.6017 108.608 16.8921 102.9 12.8984C97.1922 8.90469 97.0923 2.63129 97.5915 0.800841C98.0907 -1.01297 102.717 0.11859 109.073 5.59331C129.391 23.0991 158.978 41.0375 158.978 41.0375Z" fill="#D93231"/>
<mask id="mask0_1200_432" style="mask-type:luminance" maskUnits="userSpaceOnUse" x="114" y="1" width="51" height="42">
<path d="M130.324 2.01553C121.455 6.72479 114.299 14.2297 114.299 14.2297L157.631 42.585C157.631 42.585 168.797 31.3527 162.59 20.5697C157.315 11.4008 144.069 1.00049 134.784 1.00049C133.153 1.00049 131.655 1.31665 130.324 2.03219" fill="white"/>
</mask>
<g mask="url(#mask0_1200_432)">
<path d="M118.243 3.64683C119.458 4.91151 120.506 6.3093 121.688 7.59062C122.803 8.78873 123.984 9.9203 125.266 10.9354C127.861 13.0154 130.774 14.8459 133.919 15.9275C136.182 16.7096 140.192 17.6083 141.989 15.3618C142.888 14.2302 142.289 12.8324 141.39 11.9172C140.175 10.6692 138.561 9.77054 137.147 8.75547C135.366 7.47415 133.586 6.19282 131.805 4.89487C129.858 3.46378 127.845 1.99948 126.264 0.169026C126.014 -0.113862 126.43 -0.413439 126.713 -0.296956C128.793 0.518428 130.657 1.71653 132.521 2.91465C134.368 4.07948 136.182 5.3276 137.996 6.54236C139.743 7.72383 141.64 8.82207 143.187 10.2532C144.502 11.4679 145.467 13.2984 145.018 15.1288C144.152 18.6899 139.643 19.3888 136.598 19.0061C132.621 18.5068 128.843 16.5432 125.582 14.2801C123.868 13.082 122.237 11.7508 120.756 10.2865C119.059 8.62242 117.411 6.8086 116.346 4.66198C115.864 3.68019 117.578 3.01451 118.21 3.66349" fill="#EF7D3E"/>
</g>
<path d="M125.864 45.2143C129.724 46.9948 131.971 57.3119 121.271 58.7762C109.44 60.3737 104.847 54.9656 105.912 50.4228C106.977 45.8799 111.936 47.5606 116.179 46.8284C120.406 46.1128 123.584 44.1493 125.88 45.2143" fill="#D93231"/>
<path d="M116.429 70.5412C116.429 70.5412 122.203 70.6078 125.665 70.2583L117.993 74.6514L116.429 70.5412Z" fill="#0B0C0C"/>
<path d="M205.023 124.207L208.101 98.4478C208.101 98.4478 232.297 107.85 230.782 124.657C229.767 135.972 222.279 141.164 211.829 145.058C200.563 149.268 181.693 143.477 181.693 143.477L178.315 128.434L205.023 124.207Z" fill="#F18984"/>
<mask id="mask1_1200_432" style="mask-type:luminance" maskUnits="userSpaceOnUse" x="105" y="44" width="25" height="16">
<path d="M125.864 45.2148C129.725 46.9953 131.971 57.3123 121.271 58.7767C109.44 60.3742 104.847 54.9661 105.912 50.4233C106.977 45.8804 111.936 47.561 116.179 46.8289C120.406 46.1133 123.584 44.1498 125.881 45.2148" fill="white"/>
</mask>
<g mask="url(#mask1_1200_432)">
<path d="M111.986 57.5284C112.269 56.896 112.852 56.3303 113.467 55.8311C113.584 55.6148 113.767 55.4317 114.116 55.3153C114.116 55.3153 114.116 55.3153 114.133 55.3153C114.333 55.1655 114.516 55.0324 114.699 54.8992C116.845 53.3184 119.375 52.2534 121.987 51.7708C124.866 51.2383 128.128 51.2716 130.69 52.8192C130.757 52.8525 130.807 52.9023 130.84 52.9689C131.289 53.3516 131.472 54.0339 131.073 54.5498C129.276 56.7796 126.38 57.7614 123.701 58.4437C120.673 59.2258 117.544 59.5752 114.416 59.7916C113.767 59.8415 113.085 59.8914 112.519 59.4754C111.903 59.0261 111.687 58.2439 112.003 57.545" fill="#BC2524"/>
<path d="M107.693 45.9971C108.342 46.2134 109.007 46.3965 109.673 46.5462C111.154 46.047 112.751 45.8806 114.249 45.4147C115.68 44.9654 117.078 44.4828 118.542 44.1666C120.905 43.6342 123.551 43.5509 125.997 44.0168C126.18 43.917 126.347 43.8338 126.513 43.7007C126.796 43.4843 127.179 43.7839 126.896 44.0502C126.846 44.1001 126.796 44.1334 126.763 44.1666C127.195 44.2665 127.611 44.3829 128.027 44.5327C128.111 44.566 128.161 44.6159 128.227 44.6492C128.394 44.6492 128.543 44.6492 128.71 44.6992C128.943 44.7491 129.059 45.0818 128.926 45.2649C128.394 46.0636 127.545 46.3965 126.68 46.7792C125.764 47.1952 124.783 47.5446 123.817 47.8608C121.954 48.4598 120.04 48.9258 118.093 49.192C114.416 49.7079 110.305 49.6247 106.861 48.1104C105.33 47.4448 106.178 45.4645 107.709 45.9804" fill="white"/>
<path d="M113.401 58.4277C115.464 57.8952 117.677 57.6288 119.791 57.4125C120.889 57.296 121.987 57.2794 123.085 57.2295C124.267 57.1962 125.432 57.3627 126.596 57.3627C126.946 57.3627 126.846 57.7786 126.547 57.8285C126.097 57.8785 125.631 57.9783 125.182 58.0782C125.964 57.9617 126.563 58.9934 125.681 59.3262C123.851 60.0418 121.821 59.8753 119.89 59.9252C117.86 59.9752 115.83 60.0251 113.817 60.1582C112.735 60.2248 112.219 58.7272 113.401 58.411" fill="white"/>
</g>
<path d="M207.403 104.271L207.236 123.874L205.023 124.207L207.403 104.271Z" fill="#0B0C0C"/>
<path d="M128.377 39.1072C128.41 38.9242 128.443 38.7246 128.477 38.5415C128.543 38.1588 128.61 37.7927 128.71 37.41C128.959 36.4781 129.325 35.5295 130.041 34.8473C130.474 34.4479 131.322 34.6809 131.372 35.2966C131.655 35.3465 131.905 35.4963 131.988 35.8125C132.121 36.2451 131.988 36.761 131.921 37.2103C131.855 37.593 131.755 37.9591 131.622 38.3252C131.439 38.8078 131.239 39.307 130.989 39.7562C130.607 40.4385 129.658 40.738 128.959 40.3719C128.76 40.2721 128.61 40.139 128.493 39.9559C128.31 39.673 128.327 39.4234 128.394 39.1239" fill="black"/>
<path d="M105.429 33.5158C105.779 32.767 106.178 32.0348 106.611 31.3192C106.877 30.8866 107.409 30.7202 107.875 30.8533C108.325 30.9865 108.624 31.3691 108.558 31.8351C108.657 32.1512 108.558 32.5839 108.474 32.8834C108.358 33.3161 108.225 33.7654 108.042 34.1814C107.726 34.897 107.31 35.5793 106.81 36.1783C106.428 36.6443 105.529 36.5943 105.163 36.1284C104.514 35.2963 105.046 34.3312 105.429 33.5158Z" fill="black"/>
<path d="M105.23 21.502C105.413 21.2357 105.662 20.9861 105.912 20.7864C106.394 20.4037 106.927 20.1041 107.509 19.9044C108.591 19.5383 109.772 19.5051 110.871 19.7381C112.801 20.1541 114.931 21.6018 115.597 23.532C115.946 24.5138 114.365 25.113 113.933 24.2144C113.583 23.4822 113.234 22.8166 112.618 22.2508C112.019 21.685 111.287 21.3022 110.488 21.1358C109.606 20.9694 108.691 21.1026 107.859 21.4021C107.459 21.5519 107.06 21.7183 106.694 21.918C106.511 22.0178 106.345 22.1176 106.161 22.2175C105.879 22.3673 105.612 22.3839 105.296 22.4338C105.213 22.4338 105.113 22.3839 105.097 22.3007C105.063 22.0011 105.03 21.7682 105.196 21.5186" fill="#AD3B2D"/>
<path d="M127.795 26.2602C128.094 26.0438 128.56 25.9939 128.876 26.2102C129.841 26.8259 130.657 27.6246 131.505 28.3901C132.271 29.0724 133.053 29.738 133.852 30.3703C134.601 30.9527 135.383 31.5519 136.215 32.0012C137.063 32.4671 137.895 32.9829 138.794 33.3157C139.077 33.4322 138.794 33.765 138.578 33.7484C137.662 33.6652 136.764 33.5654 135.882 33.2659C134.784 32.8665 133.735 32.3506 132.737 31.7349C131.772 31.1358 130.873 30.4536 130.008 29.7214C129.093 28.9393 128.211 28.1738 127.528 27.1754C127.329 26.8759 127.528 26.4432 127.795 26.2602Z" fill="#AD3B2D"/>
<path d="M112.369 34.5642C113.9 33.6324 115.564 33.4493 117.294 33.233C118.093 33.1332 118.659 32.8503 119.158 32.2013C119.591 31.6522 119.857 30.8701 120.439 30.4541C120.606 30.3376 121.005 30.2877 121.088 30.5539C121.454 31.7354 120.273 33.4327 119.341 34.0484C117.993 34.9303 116.263 34.6808 114.765 35.1301C113.317 35.5627 112.119 36.5445 111.653 38.0255C111.187 39.5564 111.687 41.0707 112.835 42.1523C113.667 42.951 112.019 43.9661 111.287 43.184C108.924 40.638 109.357 36.4113 112.369 34.5642Z" fill="#D93231"/>
<path d="M149.394 43.8497C149.394 43.8497 149.46 43.9828 149.394 44.0827C148.795 45.0145 148.279 45.9796 147.663 46.9115C147.048 47.8433 146.382 48.7253 145.65 49.574C144.202 51.288 142.388 52.8854 140.225 53.5676C140.092 53.6009 139.992 53.6009 139.875 53.5676C143.47 50.7887 146.448 47.2942 149.394 43.833" fill="#0B0C0C"/>
<path d="M151.507 46.5788C152.023 45.7301 152.489 44.8481 152.888 43.9496C153.304 43.001 153.537 42.0026 153.937 41.0541C154.136 40.5882 155.068 40.688 154.935 41.2705C154.719 42.219 154.186 43.1674 153.737 44.0161C153.238 44.9812 152.689 45.8965 152.056 46.7785C150.875 48.4591 149.444 49.9068 147.863 51.2048C147.813 51.2381 147.747 51.1882 147.796 51.1383C149.228 49.7904 150.459 48.2428 151.491 46.5621" fill="#0B0C0C"/>
<path d="M151.724 53.2684C152.173 52.9856 152.739 53.0854 153.238 52.9689C153.621 52.8857 154.004 52.7194 154.32 52.503C155.085 51.9705 155.534 51.1219 155.551 50.19C155.584 49.308 155.218 48.3928 154.686 47.7106C154.203 47.0949 153.471 46.762 152.955 46.1962C152.805 46.0298 152.955 45.8301 153.122 45.7636C154.27 45.3309 155.568 46.1464 156.317 46.9617C157.165 47.9102 157.431 49.2581 157.132 50.4895C156.849 51.7209 156.183 52.8025 155.135 53.5181C154.619 53.8675 154.037 54.1338 153.421 54.2503C152.805 54.3834 152.007 54.4665 151.541 53.984C151.341 53.7676 151.507 53.4182 151.724 53.2851" fill="#D93231"/>
<path d="M166.451 27.3423C166.484 26.9263 166.467 26.4936 166.451 26.0776C167.382 28.1411 168.048 30.2211 167.399 32.2678C166.817 34.0817 165.169 35.5627 163.655 36.9938C163.122 37.493 162.607 38.0088 162.124 38.508C162.141 38.4747 162.124 38.4415 162.157 38.4082C163.655 35.9787 164.87 33.4494 165.718 30.8534C166.084 29.7053 166.367 28.5404 166.451 27.3589" fill="#3A60AA"/>
<path d="M196.786 124.938C199.964 123.99 203.359 123.607 206.62 122.992C209.499 122.459 212.361 121.927 215.273 121.61C215.423 121.594 215.423 121.793 215.307 121.827C212.261 122.842 209.133 123.574 205.971 124.206C203.026 124.805 199.997 125.571 196.986 125.737C196.486 125.77 196.253 125.105 196.802 124.938" fill="#D93231"/>
<path d="M170.96 74.8347C175.836 75.8997 180.728 76.9314 185.454 78.4124C187.9 80.1264 190.23 81.9735 192.443 83.9703C184.872 80.6256 177.35 77.1311 169.396 74.7349C169.912 74.7515 170.444 74.7848 170.96 74.8347Z" fill="#FED061"/>
<path d="M111.254 108.981C111.254 108.981 117.444 103.406 122.27 102.807C127.096 102.208 133.103 106.601 131.472 113.656C129.842 120.712 114.183 132.194 114.183 132.194L131.023 132.061L131.239 138.484L109.074 138.584L108.442 129.365C108.442 129.365 126.031 114.089 126.247 112.225C126.464 110.362 124.883 108.931 123.219 108.764C121.555 108.598 114.2 113.69 114.2 113.69L111.254 108.964V108.981Z" fill="#D93231"/>
<path d="M137.729 105.935L156.067 104.903L157.165 113.024L148.329 118.415C148.329 118.415 159.229 119.663 161.192 125.005C163.139 130.347 160.843 136.62 156.799 138.45C152.755 140.281 138.212 139.665 138.212 139.665L137.995 133.242C137.995 133.242 154.336 133.375 155.418 131.545C158.197 126.869 151.441 122.975 141.839 123.075L141.49 117.251L151.557 110.661L138.811 111.327L137.712 105.935H137.729Z" fill="#D93231"/>
<path d="M87.3745 103.323C87.3745 103.323 88.7557 122.859 86.5093 128.999C86.5093 128.999 71.7658 138.018 66.2578 133.608L74.0955 106.335L87.3579 103.323H87.3745Z" fill="#D93231"/>
<path d="M60.3174 112.708C60.3174 112.708 72.8311 90.7097 75.1108 85.3348C77.3905 79.96 80.8019 81.0915 80.8019 81.0915L91.6681 87.2319L82.183 122.809C82.183 122.809 77.6236 137.619 65.9419 135.223C51.3649 132.244 60.3174 112.692 60.3174 112.692" fill="#F18984"/>
<path d="M92.5332 82.7385L109.49 53.418C109.49 53.418 111.869 52.9853 112.918 54.433C113.95 55.8807 113.966 56.6794 113.966 56.6794L97.5587 84.9017L92.5332 82.7552V82.7385Z" fill="#3A60AA"/>
<path d="M105.396 84.07C104.481 84.5692 95.0624 78.3789 95.0624 78.3789L93.9974 80.2094L86.8087 76.5484C86.8087 76.5484 85.128 73.5365 87.0749 71.4898C89.0219 69.443 96.9594 72.9208 99.938 74.302C102.917 75.6998 110.388 81.2743 105.396 84.0533" fill="#F18984"/>
<path d="M89.971 77.0977C89.971 77.0977 99.9552 84.4527 100.271 86.9488C100.588 89.4449 98.1082 91.7413 97.0931 91.7413C95.1795 91.7413 95.8617 91.5582 95.8617 91.5582C95.8617 91.5582 92.7 95.9846 89.1722 92.2073C89.1722 92.2073 88.0074 94.6368 85.0288 94.6035C82.0501 94.5536 78.1562 89.345 78.1562 89.345L80.2363 82.0066C80.2363 82.0066 79.0881 80.1928 80.4027 78.9115C81.7173 77.6302 82.8322 77.5803 82.8322 77.5803C82.8322 77.5803 82.1001 76.4154 83.4146 75.2506C84.7126 74.0858 88.074 74.3686 88.074 74.3686L89.9543 77.0977H89.971Z" fill="#F18984"/>
<path d="M85.6279 74.5513C87.6913 75.1337 89.5717 76.4483 91.3356 77.6464C93.2492 78.961 95.0797 80.392 96.7771 81.9729C98.2081 83.3041 99.7889 84.7186 100.172 86.7321C100.455 88.1965 99.8555 90.1101 98.6075 90.9588C98.4577 91.0586 98.3412 90.8589 98.4744 90.7757C100.388 89.4944 99.7058 87.2146 98.5909 85.6504C97.4593 84.0862 96.0282 82.7717 94.5805 81.507C93.1494 80.2589 91.6684 79.0775 90.1209 77.9959C88.5733 76.9309 86.8427 76.0656 85.4116 74.8674C85.2285 74.7177 85.4948 74.5179 85.6446 74.5678" fill="#D93231"/>
<path d="M79.8528 89.1283C81.417 90.1933 82.3822 91.874 83.8132 93.0887C84.6286 93.771 85.5438 94.1204 86.6088 94.1371C87.2079 94.1371 87.8402 94.0872 88.4226 93.9374C88.7388 93.8542 89.1049 93.7876 89.1548 93.4049C89.1715 93.2218 89.0882 93.0222 88.9884 92.8392C88.9884 92.8392 88.9551 92.8058 88.9551 92.7892C88.9551 92.7892 88.9551 92.756 88.9551 92.7393C88.9052 92.6561 88.872 92.5896 88.822 92.5397C88.1731 91.5412 87.341 90.6093 86.5922 89.6774C85.8101 88.7123 85.0114 87.7472 84.196 86.7987C83.3806 85.8502 82.5652 84.9183 81.7165 84.0031C80.9011 83.1378 79.9693 82.2558 79.3037 81.2907C79.1706 81.1076 79.4701 80.9578 79.6199 81.041C80.5184 81.6068 81.3005 82.4222 82.066 83.1377C82.898 83.9198 83.6967 84.7519 84.4788 85.5839C86.0763 87.2646 87.6073 89.0285 89.055 90.8423C89.4211 91.3082 89.7539 91.8074 89.9369 92.3565C90.1033 92.4231 90.2531 92.523 90.4195 92.6062C90.8022 92.8059 91.2016 93.0056 91.6176 93.1387C92.2 93.3217 92.7991 93.3051 93.3815 93.1387C94.3134 92.8558 95.0788 92.1902 95.5947 91.3748C95.578 91.3582 95.5614 91.3416 95.5448 91.3083C94.8791 89.977 93.7476 88.9619 92.6993 87.9302C91.5344 86.782 90.3696 85.6505 89.1881 84.5356C86.8917 82.3723 84.379 80.3421 82.249 78.0124C81.9828 77.7129 82.4654 77.2969 82.7649 77.4966C85.5438 79.3603 88.0067 81.7899 90.4362 84.0863C91.6176 85.2012 92.7991 86.3327 93.9473 87.4809C94.9624 88.496 95.9275 89.5776 96.3768 90.9588C96.4766 91.2583 96.2104 91.5079 95.9275 91.5412C95.4782 92.5729 94.5297 93.3383 93.4481 93.7044C92.7658 93.9207 92.0336 93.9541 91.3347 93.8542C90.9187 93.7877 90.5027 93.6878 90.1033 93.538C90.0701 93.538 90.0368 93.5047 90.0035 93.5047C89.8537 94.2868 89.1715 94.6863 88.4726 94.9359C86.4757 95.6681 84.4622 95.7013 82.7649 94.3035C81.2672 93.0721 80.4186 91.2583 78.9376 89.9936C78.3219 89.4611 79.2704 88.7622 79.8361 89.1283" fill="#D93231"/>
<path d="M101.752 74.3353C101.652 74.5184 101.536 74.7014 101.436 74.8844C100.953 74.5849 100.454 74.3186 99.9551 74.069C100.072 73.8527 100.171 73.653 100.288 73.4367C100.754 72.5381 101.22 71.6396 101.736 70.7743C102.734 69.027 103.799 67.2964 104.764 65.5325C105.496 64.1846 106.362 62.8533 107.909 62.404C108.691 62.1711 109.507 62.2044 110.239 62.5705C110.305 62.6038 110.355 62.6537 110.422 62.687C110.239 63.0365 110.089 63.3859 109.939 63.7354C109.207 63.6189 108.408 63.8185 107.876 64.2844C106.794 65.2662 106.079 66.6475 105.363 67.8955C104.548 69.3099 103.766 70.741 103 72.1721C102.601 72.9043 102.185 73.6198 101.769 74.3353" fill="#FED061"/>
<path d="M102.934 136.753C102.934 136.753 113.45 154.842 138.245 155.041" stroke="#0B0C0C" stroke-width="0.999998" stroke-linecap="round" stroke-linejoin="round"/>
<path d="M183.739 148.502C182.325 147.504 180.594 146.821 178.963 146.272C178.265 146.039 177.549 145.823 176.817 145.64C176.367 145.523 175.902 145.423 175.452 145.324C175.036 145.24 174.62 145.124 174.188 145.157C173.905 145.157 173.722 145.49 173.722 145.74C173.722 146.039 173.905 146.339 174.188 146.455C174.57 146.605 175.003 146.638 175.402 146.705C175.785 146.771 176.151 146.855 176.517 146.938C177.399 147.137 178.298 147.37 179.163 147.637C180.627 148.086 182.025 148.718 183.49 149.201C183.872 149.334 184.039 148.702 183.756 148.502" fill="#0B0C0C"/>
<path d="M181.626 149.866C180.295 149.866 178.98 149.933 177.649 150.032C176.301 150.149 174.97 150.365 173.622 150.565C172.807 150.681 173.223 152.113 173.988 151.929C176.484 151.33 179.08 150.964 181.643 150.665C182.076 150.615 182.076 149.849 181.643 149.866" fill="#0B0C0C"/>
<path d="M183.241 142.894C183.241 142.894 170.844 152.562 169.596 152.479C168.331 152.412 166.9 151.714 167.066 150.565C167.233 149.417 173.157 142.578 175.42 141.48C175.42 141.48 167.782 144.924 165.818 146.172C163.855 147.437 161.775 149.217 160.493 149.367C159.229 149.517 157.282 146.588 157.282 146.422C157.282 146.256 158.164 145.573 158.164 145.573C158.164 145.573 157.448 145.956 156.217 145.057C154.985 144.159 154.603 142.145 156.45 140.498C158.297 138.851 165.203 134.258 170.894 133.409C170.894 133.409 166.867 132.244 163.688 132.361C160.527 132.461 156.483 133.276 154.802 133.209C153.122 133.126 153.804 129.249 154.619 128.683C155.435 128.117 160.593 127.002 164.82 126.686C169.047 126.387 178.914 128.583 178.914 128.583L183.208 142.894H183.241Z" fill="#F18984"/>
<path d="M166.766 150.399C167.216 149.517 167.881 148.702 168.497 147.92C169.113 147.104 169.778 146.339 170.477 145.606C171.193 144.858 171.925 144.159 172.707 143.493C173.106 143.16 173.506 142.828 173.922 142.511C174.321 142.212 174.72 141.879 175.17 141.696C175.253 141.663 175.353 141.746 175.303 141.829C175.053 142.195 174.671 142.478 174.338 142.794C173.988 143.11 173.656 143.443 173.323 143.776C172.591 144.475 171.892 145.224 171.226 145.989C170.594 146.721 169.978 147.47 169.379 148.236C168.747 149.068 168.214 149.983 167.565 150.798C167.266 151.181 166.483 150.931 166.75 150.399" fill="#D93231"/>
<path d="M156.998 145.806C157.88 144.641 159.361 143.742 160.526 142.894C161.774 141.978 163.072 141.146 164.42 140.381C165.751 139.632 167.099 138.917 168.514 138.351C169.995 137.752 171.575 137.119 173.19 137.003C173.489 136.986 173.622 137.402 173.356 137.569C172.141 138.334 170.727 138.817 169.429 139.399C168.031 140.015 166.65 140.647 165.319 141.379C164.021 142.078 162.756 142.844 161.525 143.642C160.842 144.092 160.177 144.541 159.544 145.04C158.962 145.49 158.413 146.039 157.764 146.372C157.414 146.555 156.599 146.322 156.982 145.806" fill="#D93231"/>
<path d="M155.667 140.897C156.566 139.915 157.781 139.1 158.862 138.334C160.11 137.452 161.458 136.72 162.84 136.038C165.502 134.74 168.181 133.758 171.11 133.342C171.326 133.309 171.293 133.575 171.143 133.642C168.514 134.773 165.835 135.888 163.289 137.219C162.057 137.852 160.843 138.551 159.628 139.25C158.43 139.932 157.298 140.731 156.1 141.38C155.801 141.546 155.385 141.213 155.667 140.914" fill="#D93231"/>
<mask id="mask2_1200_432" style="mask-type:luminance" maskUnits="userSpaceOnUse" x="111" y="221" width="48" height="90">
<path d="M148.778 221.171C148.778 221.171 124.949 227.278 111.32 224.1C111.32 224.1 113.4 233.036 118.076 247.014C122.752 260.992 134.384 310.148 134.384 310.148L158.213 289.78C158.213 289.78 158.28 270.593 155.634 253.104C152.988 235.665 148.778 221.171 148.778 221.171Z" fill="white"/>
</mask>
<g mask="url(#mask2_1200_432)">
<path d="M109.224 230.29C111.171 229.99 113.218 230.19 115.181 230.173C117.028 230.157 118.859 230.09 120.706 230.007C124.5 229.824 128.294 229.508 132.071 229.042C139.626 228.11 147.031 226.529 154.436 224.782C154.985 224.649 155.368 225.348 154.752 225.547C147.447 228.06 139.809 229.658 132.171 230.706C128.377 231.222 124.566 231.621 120.756 231.837C118.842 231.954 116.928 232.02 115.031 232.054C113.151 232.087 111.138 232.27 109.274 231.887C108.275 231.688 108.176 230.44 109.257 230.273" fill="white"/>
<path d="M110.954 238.227C114.05 238.011 117.161 237.944 120.256 237.711C123.285 237.478 126.297 237.162 129.309 236.746C135.366 235.931 141.39 234.749 147.314 233.252C150.975 232.336 154.636 231.388 158.263 230.356C158.496 230.29 158.613 230.606 158.397 230.706C146.898 235.565 134.501 238.211 122.104 239.459C118.493 239.825 114.798 240.174 111.171 240.074C109.889 240.041 109.557 238.327 110.971 238.227" fill="white"/>
</g>
<mask id="mask3_1200_432" style="mask-type:luminance" maskUnits="userSpaceOnUse" x="32" y="188" width="46" height="88">
<path d="M77.1904 204.997C77.1904 204.997 61.8479 268.38 59.9842 272.906L42.9277 275.536L32.4941 258.845C32.4941 258.845 38.9507 195.545 42.545 188.223L77.1738 204.98L77.1904 204.997Z" fill="white"/>
</mask>
<g mask="url(#mask3_1200_432)">
<path d="M36.2887 189.821C37.9194 190.403 39.4337 191.335 40.9813 192.117C42.5122 192.899 44.0598 193.665 45.6074 194.413C48.7025 195.928 51.7976 197.392 54.926 198.823C61.0996 201.652 67.3231 204.381 73.5966 206.96C77.2575 208.458 80.9018 209.972 84.5128 211.57C85.0287 211.803 84.4296 212.468 84.0136 212.352C77.3574 210.455 70.8676 207.959 64.461 205.33C58.121 202.717 51.8475 199.938 45.6573 196.993C43.91 196.161 42.1794 195.329 40.4488 194.463C38.6183 193.565 36.6215 192.749 34.9408 191.568C33.726 190.719 35.2237 189.405 36.3053 189.787" fill="white"/>
<path d="M31.3628 203.3C31.6623 202.717 32.3612 202.617 32.927 202.767C41.1141 204.864 49.2846 206.977 57.4717 209.074C61.4987 210.106 65.5257 211.137 69.5527 212.169C71.5662 212.685 73.563 213.217 75.5599 213.733C76.6249 214.016 77.6732 214.299 78.7216 214.615C79.5703 214.865 80.5354 215.031 81.2177 215.597C81.667 215.98 81.2842 216.546 80.8016 216.612C79.8531 216.745 78.9213 216.462 78.0061 216.246C76.9078 215.996 75.8095 215.747 74.7279 215.481C72.6977 214.965 70.6842 214.465 68.6541 213.95C64.6271 212.918 60.5835 211.903 56.5565 210.871C48.3527 208.791 40.1489 206.694 31.9452 204.614C31.3794 204.465 31.1298 203.766 31.3794 203.283" fill="white"/>
</g>
</svg>
