<svg version="1.2" xmlns="http://www.w3.org/2000/svg" viewBox="0 0 85 124" width="85" height="124">
	<title>Group 629-svg</title>
	<style>
		.s0 { fill: #ffffff } 
		.s1 { fill: #d73532 } 
	</style>
	<g id="Carpeta 1">
		<path id="Layer" fill-rule="evenodd" class="s0" d="m814 1143.6h-842v-1143.6h842zm-794.3-1078c7.4 0 13.5-6 13.5-13.5 0-7.4-6.1-13.5-13.5-13.5-7.5 0-13.5 6.1-13.5 13.5 0 7.5 6 13.5 13.5 13.5zm93-27c-7.5 0-13.5 6.1-13.5 13.5 0 7.5 6 13.5 13.5 13.5 7.4 0 13.5-6 13.5-13.5 0-7.4-6.1-13.5-13.5-13.5zm93 27c7.4 0 13.5-6 13.5-13.5 0-7.4-6.1-13.5-13.5-13.5-7.5 0-13.5 6.1-13.5 13.5 0 7.5 6 13.5 13.5 13.5zm93-27c-7.5 0-13.5 6.1-13.5 13.5 0 7.5 6 13.5 13.5 13.5 7.4 0 13.5-6 13.5-13.5 0-7.4-6.1-13.5-13.5-13.5zm93 27c7.4 0 13.5-6 13.5-13.5 0-7.4-6.1-13.5-13.5-13.5-7.5 0-13.5 6.1-13.5 13.5 0 7.5 6 13.5 13.5 13.5zm93-27c-7.5 0-13.5 6.1-13.5 13.5 0 7.5 6 13.5 13.5 13.5 7.4 0 13.5-6 13.5-13.5 0-7.4-6.1-13.5-13.5-13.5zm93 27c7.4 0 13.5-6 13.5-13.5 0-7.4-6.1-13.5-13.5-13.5-7.5 0-13.5 6.1-13.5 13.5 0 7.5 6 13.5 13.5 13.5zm93-27c-7.5 0-13.5 6.1-13.5 13.5 0 7.5 6 13.5 13.5 13.5 7.4 0 13.5-6 13.5-13.5 0-7.4-6.1-13.5-13.5-13.5zm93 27c7.4 0 13.5-6 13.5-13.5 0-7.4-6.1-13.5-13.5-13.5-7.5 0-13.5 6.1-13.5 13.5 0 7.5 6 13.5 13.5 13.5z"/>
		<path id="Layer" class="s1" d="m36.2 100.8c0.1 0.5 0.1 1-0.4 1.3-0.4 0.4-1.4 0.2-2 0.2q-1.2 0-2.4 0-2.2 0-4.5 0c-3.1 0-15.8-0.1-18.9-0.2-1-0.1-1.5-2-0.4-2.1 2.9-0.2 15.4-0.1 18.4-0.1q2.2 0 4.3-0.1h2.1q0.6 0 1.2 0c0.1 0 0.5 0 0.8 0 0 0 0 0 0 0q0.1 0 0.1-0.1c0.2-0.1 0.5-0.1 0.8 0 0.5 0.2 0.7 0.7 0.8 1.1"/>
		<path id="Layer" class="s1" d="m77.4 100.8c0.2 0.5 0.1 1-0.3 1.3-0.5 0.4-1.4 0.2-2 0.2q-1.2 0-2.4 0-2.3 0-4.5 0c-3.1 0-15.8-0.1-19-0.2-0.9-0.1-1.4-2-0.4-2.1 3-0.2 15.5-0.1 18.4-0.1q2.2 0 4.4-0.1h2.1q0.6 0 1.2 0c0.1 0 0.5 0 0.7 0 0.1 0 0.1 0 0.1 0q0 0 0-0.1c0.3-0.1 0.6-0.1 0.8 0 0.5 0.2 0.8 0.7 0.9 1.1"/>
		<path id="Layer" class="s1" d="m118.7 100.8c0.2 0.5 0.1 1-0.4 1.3-0.4 0.4-1.4 0.2-1.9 0.2q-1.2 0-2.5 0-2.2 0-4.5 0c-3.1 0-15.8-0.1-18.9-0.2-0.9-0.1-1.4-2-0.4-2.1 2.9-0.2 15.4-0.1 18.4-0.1q2.2 0 4.3-0.1h2.1q0.6 0 1.2 0c0.2 0 0.6 0 0.8 0 0 0 0 0 0 0q0.1 0 0.1-0.1c0.2-0.1 0.5-0.1 0.8 0 0.5 0.2 0.7 0.7 0.9 1.1"/>
		<path id="Layer" class="s1" d="m160 100.8c0.1 0.5 0 1-0.4 1.3-0.5 0.4-1.4 0.2-2 0.2q-1.2 0-2.4 0-2.3 0-4.5 0c-3.1 0-15.8-0.1-18.9-0.2-1-0.1-1.5-2-0.4-2.1 2.9-0.2 15.4-0.1 18.4-0.1q2.1 0 4.3-0.1h2.1q0.6 0 1.2 0c0.1 0 0.5 0 0.7 0 0.1 0 0.1 0 0.1 0q0 0 0.1-0.1c0.2-0.1 0.5-0.1 0.7 0 0.5 0.2 0.8 0.7 0.9 1.1"/>
		<path id="Layer" class="s1" d="m201.2 100.8c0.2 0.5 0.1 1-0.3 1.3-0.5 0.4-1.4 0.2-2 0.2q-1.2 0-2.4 0-2.3 0-4.6 0c-3.1 0-15.8-0.1-18.9-0.2-0.9-0.1-1.4-2-0.4-2.1 3-0.2 15.5-0.1 18.4-0.1q2.2 0 4.4-0.1h2.1q0.6 0 1.2 0c0.1 0 0.5 0 0.7 0 0 0 0 0 0.1 0q0 0 0-0.1c0.2-0.1 0.6-0.1 0.8 0 0.5 0.2 0.8 0.7 0.9 1.1"/>
		<path id="Layer" class="s1" d="m242.5 100.8c0.1 0.5 0.1 1-0.4 1.3-0.4 0.4-1.4 0.2-2 0.2q-1.2 0-2.4 0-2.2 0-4.5 0c-3.1 0-15.8-0.1-18.9-0.2-1-0.1-1.5-2-0.4-2.1 2.9-0.2 15.4-0.1 18.4-0.1q2.2 0 4.3-0.1h2.1q0.6 0 1.2 0c0.1 0 0.5 0 0.8 0 0 0 0 0 0 0q0.1 0 0.1-0.1c0.2-0.1 0.5-0.1 0.8 0 0.5 0.2 0.7 0.7 0.8 1.1"/>
		<path id="Layer" class="s1" d="m283.7 100.8c0.2 0.5 0.1 1-0.3 1.3-0.5 0.4-1.4 0.2-2 0.2q-1.2 0-2.4 0-2.3 0-4.5 0c-3.1 0-15.8-0.1-19-0.2-0.9-0.1-1.4-2-0.4-2.1 3-0.2 15.5-0.1 18.4-0.1q2.2 0 4.4-0.1h2.1q0.6 0 1.2 0c0.1 0 0.5 0 0.7 0 0.1 0 0.1 0 0.1 0q0 0 0-0.1c0.3-0.1 0.6-0.1 0.8 0 0.5 0.2 0.8 0.7 0.9 1.1"/>
		<path id="Layer" class="s1" d="m325 100.8c0.2 0.5 0.1 1-0.4 1.3-0.4 0.4-1.4 0.2-1.9 0.2q-1.2 0-2.5 0-2.2 0-4.5 0c-3.1 0-15.8-0.1-18.9-0.2-0.9-0.1-1.4-2-0.4-2.1 2.9-0.2 15.4-0.1 18.4-0.1q2.2 0 4.3-0.1h2.1q0.6 0 1.2 0c0.2 0 0.5 0 0.8 0 0 0 0 0 0 0q0.1 0 0.1-0.1c0.2-0.1 0.5-0.1 0.8 0 0.5 0.2 0.7 0.7 0.9 1.1"/>
		<path id="Layer" class="s1" d="m366.3 100.8c0.1 0.5 0 1-0.4 1.3-0.5 0.4-1.4 0.2-2 0.2q-1.2 0-2.4 0-2.3 0-4.5 0c-3.1 0-15.8-0.1-18.9-0.2-1-0.1-1.5-2-0.4-2.1 2.9-0.2 15.4-0.1 18.4-0.1q2.1 0 4.3-0.1h2.1q0.6 0 1.2 0c0.1 0 0.5 0 0.7 0 0.1 0 0.1 0 0.1 0q0 0 0.1-0.1c0.2-0.1 0.5-0.1 0.7 0 0.5 0.2 0.8 0.7 0.9 1.1"/>
		<path id="Layer" class="s1" d="m407.5 100.8c0.2 0.5 0.1 1-0.3 1.3-0.5 0.4-1.4 0.2-2 0.2q-1.2 0-2.4 0-2.3 0-4.6 0c-3.1 0-15.8-0.1-18.9-0.2-0.9-0.1-1.4-2-0.4-2.1 3-0.2 15.5-0.1 18.4-0.1q2.2 0 4.4-0.1h2.1q0.6 0 1.2 0c0.1 0 0.5 0 0.7 0 0 0 0 0 0.1 0q0 0 0-0.1c0.2-0.1 0.6-0.1 0.8 0 0.5 0.2 0.7 0.7 0.9 1.1"/>
		<path id="Layer" class="s1" d="m448.8 100.8c0.1 0.5 0.1 1-0.4 1.3-0.4 0.4-1.4 0.2-2 0.2q-1.2 0-2.4 0-2.2 0-4.5 0c-3.1 0-15.8-0.1-18.9-0.2-1-0.1-1.5-2-0.4-2.1 2.9-0.2 15.4-0.1 18.4-0.1q2.2 0 4.3-0.1h2.1q0.6 0 1.2 0c0.1 0 0.5 0 0.8 0 0 0 0 0 0 0q0.1 0 0.1-0.1c0.2-0.1 0.5-0.1 0.8 0 0.5 0.2 0.7 0.7 0.8 1.1"/>
		<path id="Layer" class="s1" d="m490 100.8c0.2 0.5 0.1 1-0.3 1.3-0.5 0.4-1.4 0.2-2 0.2q-1.2 0-2.4 0-2.3 0-4.5 0c-3.1 0-15.8-0.1-19-0.2-0.9-0.1-1.4-2-0.4-2.1 3-0.2 15.5-0.1 18.4-0.1q2.2 0 4.4-0.1h2.1q0.6 0 1.2 0c0.1 0 0.5 0 0.7 0 0.1 0 0.1 0 0.1 0q0 0 0-0.1c0.3-0.1 0.6-0.1 0.8 0 0.5 0.2 0.8 0.7 0.9 1.1"/>
		<path id="Layer" class="s1" d="m531.3 100.8c0.2 0.5 0.1 1-0.4 1.3-0.4 0.4-1.4 0.2-1.9 0.2q-1.2 0-2.5 0-2.2 0-4.5 0c-3.1 0-15.8-0.1-18.9-0.2-1-0.1-1.4-2-0.4-2.1 2.9-0.2 15.4-0.1 18.4-0.1q2.2 0 4.3-0.1h2.1q0.6 0 1.2 0c0.2 0 0.5 0 0.8 0 0 0 0 0 0 0q0.1 0 0.1-0.1c0.2-0.1 0.5-0.1 0.8 0 0.5 0.2 0.7 0.7 0.9 1.1"/>
		<path id="Layer" class="s1" d="m572.6 100.8c0.1 0.5 0 1-0.4 1.3-0.5 0.4-1.4 0.2-2 0.2q-1.2 0-2.4 0-2.3 0-4.5 0c-3.1 0-15.8-0.1-18.9-0.2-1-0.1-1.5-2-0.4-2.1 2.9-0.2 15.4-0.1 18.4-0.1q2.1 0 4.3-0.1h2.1q0.6 0 1.2 0c0.1 0 0.5 0 0.7 0 0.1 0 0.1 0 0.1 0q0 0 0.1-0.1c0.2-0.1 0.5-0.1 0.7 0 0.5 0.2 0.8 0.7 0.9 1.1"/>
		<path id="Layer" class="s1" d="m613.8 100.8c0.2 0.5 0.1 1-0.3 1.3-0.5 0.4-1.4 0.2-2 0.2q-1.2 0-2.4 0-2.3 0-4.6 0c-3.1 0-15.8-0.1-18.9-0.2-0.9-0.1-1.4-2-0.4-2.1 3-0.2 15.5-0.1 18.4-0.1q2.2 0 4.4-0.1h2.1q0.6 0 1.2 0c0.1 0 0.5 0 0.7 0 0 0 0 0 0.1 0q0 0 0-0.1c0.2-0.1 0.6-0.1 0.8 0 0.5 0.2 0.7 0.7 0.9 1.1"/>
		<path id="Layer" class="s1" d="m655.1 100.8c0.1 0.5 0.1 1-0.4 1.3-0.4 0.4-1.4 0.2-2 0.2q-1.2 0-2.4 0-2.2 0-4.5 0c-3.1 0-15.8-0.1-18.9-0.2-1-0.1-1.5-2-0.4-2.1 2.9-0.2 15.4-0.1 18.4-0.1q2.2 0 4.3-0.1h2.1q0.6 0 1.2 0c0.1 0 0.5 0 0.8 0 0 0 0 0 0 0q0.1 0 0.1-0.1c0.2-0.1 0.5-0.1 0.7 0 0.6 0.2 0.8 0.7 0.9 1.1"/>
		<path id="Layer" class="s1" d="m696.3 100.8c0.2 0.5 0.1 1-0.3 1.3-0.5 0.4-1.4 0.2-2 0.2q-1.2 0-2.4 0-2.3 0-4.5 0c-3.1 0-15.8-0.1-19-0.2-0.9-0.1-1.4-2-0.4-2.1 3-0.2 15.5-0.1 18.4-0.1q2.2 0 4.4-0.1h2.1q0.6 0 1.2 0c0.1 0 0.5 0 0.7 0 0.1 0 0.1 0 0.1 0q0 0 0-0.1c0.3-0.1 0.6-0.1 0.8 0 0.5 0.2 0.8 0.7 0.9 1.1"/>
		<path id="Layer" class="s1" d="m737.6 100.8c0.2 0.5 0.1 1-0.4 1.3-0.4 0.4-1.4 0.2-1.9 0.2q-1.2 0-2.5 0-2.2 0-4.5 0c-3.1 0-15.8-0.1-18.9-0.2-1-0.1-1.4-2-0.4-2.1 2.9-0.2 15.4-0.1 18.4-0.1q2.2 0 4.3-0.1h2.1q0.6 0 1.2 0c0.2 0 0.5 0 0.8 0 0 0 0 0 0 0q0.1 0 0.1-0.1c0.2-0.1 0.5-0.1 0.8 0 0.5 0.2 0.7 0.7 0.9 1.1"/>
		<path id="Layer" class="s1" d="m778.9 100.8c0.1 0.5 0 1-0.4 1.3-0.5 0.4-1.4 0.2-2 0.2q-1.2 0-2.4 0-2.3 0-4.5 0c-3.1 0-15.8-0.1-18.9-0.2-1-0.1-1.5-2-0.4-2.1 2.9-0.2 15.4-0.1 18.4-0.1q2.1 0 4.3-0.1h2.1q0.6 0 1.2 0c0.1 0 0.5 0 0.7 0 0.1 0 0.1 0 0.1 0q0 0 0.1-0.1c0.2-0.1 0.5-0.1 0.7 0 0.5 0.2 0.8 0.7 0.9 1.1"/>
	</g>
</svg>