<svg width="265" height="120" viewBox="0 0 265 120" fill="none" xmlns="http://www.w3.org/2000/svg">
<path d="M89.4141 40.2725C89.4141 41.8905 81.3564 83.7644 81.3564 83.7644L210.198 87.1785V52.6178L89.3979 40.2725H89.4141Z" fill="#FED062"/>
<path d="M16.9759 11.2773L0.32666 27.9105L76.567 100.397L97.504 87.1618L16.9759 11.2773Z" fill="#EF7D3E"/>
<path d="M145.785 96.6433L232.769 0L253.706 11.2774L174.246 100.397L145.785 96.6433Z" fill="#3960AA"/>
<path d="M170.492 99.2321L247.8 18.7041L264.433 32.7484L202.157 102.452L170.492 99.2321Z" fill="#78BFEA"/>
<path d="M229.258 37.3116C230.1 36.4217 230.973 35.5803 231.896 34.7713C231.799 34.5933 231.702 34.4315 231.556 34.302C230.213 33.0885 228.611 32.1986 227.106 31.1793C225.666 30.2085 224.194 29.2539 222.754 28.2831C221.379 27.3608 219.971 26.4709 218.596 25.5487C217.188 24.594 215.699 23.5585 214.114 22.8789C213.434 22.5877 212.593 22.523 212.027 23.0893C211.784 23.332 211.687 23.6394 211.671 23.963C211.622 23.8336 211.606 23.8498 211.671 24.2381C211.671 24.319 211.719 24.416 211.752 24.4969C211.752 24.5293 211.768 24.5616 211.784 24.594C211.849 24.7396 211.93 24.9014 212.01 25.0309C212.285 25.4354 212.641 25.7752 212.981 26.1311C213.709 26.8916 214.534 27.5873 215.343 28.2507C216.751 29.3995 218.224 30.516 219.696 31.5677C221.104 32.5708 222.56 33.5416 224.048 34.4477C225.715 35.4508 227.381 36.5835 229.194 37.2954C229.21 37.2954 229.242 37.2954 229.275 37.3116H229.258Z" fill="#0C0C0C"/>
<path d="M232.915 33.8648C233.821 32.9749 234.759 32.1335 235.714 31.3245C230.164 26.4219 224.372 21.8107 218.353 17.5068C217.107 16.6169 215.667 18.1215 216.783 19.2542C221.815 24.4803 227.155 29.3991 232.704 34.0589C232.785 33.9942 232.85 33.9295 232.931 33.8648H232.915Z" fill="#0C0C0C"/>
<path d="M50.2586 71.2404C47.3139 67.4057 43.7219 64.3801 40.0652 61.2411C36.0849 57.8595 32.0561 54.5264 27.9463 51.3066C20.2123 45.2229 12.2841 39.4143 4.67945 33.1364C4.22641 32.7643 3.59539 33.3953 4.04843 33.816C11.2971 40.5307 18.1412 47.6176 25.2443 54.4779C32.2341 61.2412 39.3533 68.506 47.686 73.5541C49.1422 74.444 51.5045 72.8422 50.2586 71.2242V71.2404Z" fill="#0C0C0C"/>
<path d="M251.716 106.06C247.089 105.704 242.494 106.626 237.915 107.209C234.258 107.662 230.601 108.082 226.945 108.438C219.615 109.166 212.269 109.733 204.924 110.17C190.345 111.027 175.751 111.432 161.157 111.674C131.321 112.176 101.485 112.419 71.6485 112.775C63.1702 112.872 54.708 112.985 46.2297 113.082C41.5051 113.147 36.7806 113.228 32.056 113.341C27.8006 113.438 23.61 113.373 19.4841 114.474C17.494 115.007 18.2221 117.79 19.8724 118.243C23.9498 119.36 28.189 119.166 32.3958 119.182C36.1981 119.198 39.9842 119.198 43.7865 119.182C51.472 119.133 59.1737 119.069 66.8593 119.02C82.117 118.907 97.3586 118.81 112.616 118.696C142.501 118.47 172.466 118.745 202.319 117.127C210.603 116.674 218.871 116.075 227.123 115.25C231.313 114.829 235.488 114.36 239.662 113.826C243.982 113.276 248.415 112.872 252.493 111.286C255.227 110.218 254.807 106.286 251.732 106.06H251.716Z" fill="#0C0C0C"/>
<path d="M243.351 23.1863C236.167 30.7262 228.838 38.1206 221.605 45.5957C218.013 49.301 214.405 52.99 210.845 56.7276C207.075 60.6594 203.225 64.6072 200.021 69.0082C198.678 70.8689 202.043 72.4061 203.419 71.1764C207.237 67.7786 210.522 63.7983 213.855 59.9474C217.463 55.7891 220.974 51.5338 224.55 47.327C231.151 39.5444 237.607 31.6485 244.257 23.9144C244.629 23.4776 243.756 22.7818 243.367 23.1863H243.351Z" fill="#0C0C0C"/>
<path d="M254.806 60.5781H16.9761V113.762H254.806V60.5781Z" fill="#D83331"/>
</svg>
