<svg width="60" height="28" viewBox="0 0 60 28" fill="none" xmlns="http://www.w3.org/2000/svg">
<path d="M11.0509 0.259805C10.6898 0.1617 10.2564 0.259804 9.87114 0.488716C9.79891 0.488716 9.73874 0.456014 9.6665 0.456014C8.94417 0.39061 8.20981 0.406962 7.48748 0.488716C5.89836 0.652225 4.1527 1.07735 2.72008 2.0584C1.35969 3.00675 0.179853 4.83804 0.577134 7.01271C0.878105 8.64779 1.8894 9.8087 2.86454 10.7571C4.97133 12.8009 7.2587 14.2725 9.77481 15.1554C12.7243 16.1855 15.7581 16.0874 18.7558 15.6296C19.4059 15.5315 20.2968 14.763 20.2005 13.7493C19.5383 7.27432 15.8183 1.53517 11.0509 0.259805ZM5.78996 7.50323C5.36861 7.09446 3.86378 5.81909 4.16475 4.87075C4.21291 4.70724 4.67039 4.49467 4.85097 4.39657C5.56126 3.9878 6.31969 3.69348 7.09018 3.51362C7.77639 3.35012 8.47461 3.26836 9.16082 3.26836C9.25713 3.36647 9.35345 3.44822 9.47384 3.51362C12.7966 5.06696 15.5053 8.17362 16.5647 12.6538C12.7484 12.3921 8.84783 10.4791 5.78996 7.50323Z" fill="#EF7D3E"/>
<path d="M35.0683 5.98249C32.6003 2.53246 29.097 0.815616 25.5817 0.995475C25.1603 1.01183 24.6547 1.27344 24.2213 1.64951C24.0768 1.68221 23.9203 1.68221 23.7759 1.71491C22.873 1.91112 21.2598 3.67702 22.2229 5.00144C22.4637 5.32845 22.7165 5.60642 22.9693 5.90073C25.1844 9.98844 29.3137 11.411 32.7207 9.53062C32.9976 9.48157 33.2745 9.44887 33.5393 9.36711C34.4784 9.1055 36.0314 7.33961 35.0562 5.98249H35.0683Z" fill="#EF7D3E"/>
<path d="M39.1256 20.1098C39.0654 19.8154 38.945 19.5865 38.7644 19.4067C38.5237 19.096 38.2468 18.818 37.9699 18.5728C37.8375 18.4583 37.705 18.3439 37.5726 18.213C37.3318 18.0005 37.1031 17.8697 36.8382 17.7225C36.6336 17.6408 36.4169 17.6081 36.2122 17.6244C36.0075 17.6244 35.7908 17.6735 35.5982 17.7552C35.3454 17.6244 35.0926 17.4773 34.8277 17.3628C34.7073 17.3465 34.5869 17.3138 34.4545 17.2974C34.2739 17.2811 34.0933 17.2974 33.9127 17.3628C33.672 17.4282 33.3951 17.559 33.2266 17.8206C33.1183 18.0005 33.0339 18.1967 33.0098 18.442C32.9737 18.7853 33.1904 19.1614 33.383 19.3413C33.4673 19.423 33.5516 19.5048 33.6359 19.5865C33.7924 19.7173 33.961 19.8645 34.1175 19.9953C34.1175 20.028 34.1175 20.0443 34.1175 20.077C34.1897 20.3714 34.3341 20.6166 34.5388 20.7801C34.7916 21.0417 35.0685 21.2216 35.3454 21.4178C35.6463 21.6304 35.9714 21.8593 36.3085 22.0064C36.5854 22.1863 36.9586 22.2354 37.2234 22.219C37.6327 22.2027 38.1505 22.0064 38.4876 21.6631C38.7645 21.3851 39.0774 21.009 39.1015 20.5185C39.1015 20.3714 39.1015 20.2406 39.1015 20.0934L39.1256 20.1098Z" fill="#EF7D3E"/>
<path d="M33.2626 19.2266C33.2626 19.2266 33.359 19.3247 33.4072 19.3575C33.3349 19.2757 33.2626 19.2103 33.1782 19.1285C33.2023 19.1612 33.2385 19.1776 33.2626 19.2103V19.2266Z" fill="#EF7D3E"/>
<path d="M53.0543 6.5876C52.982 6.01532 52.5968 5.57384 51.7781 5.63925C51.6698 5.63925 51.5735 5.63925 51.4651 5.6556C50.9595 5.6883 50.2492 5.90086 49.852 6.44044C49.7195 6.63665 49.6232 6.84921 49.5871 7.12717C49.4426 8.20633 50.3214 8.6478 50.9475 8.68051C51.0558 8.68051 51.1762 8.68051 51.2846 8.69686C52.4403 8.77861 53.1867 7.50324 53.0543 6.57124V6.5876Z" fill="#EF7D3E"/>
<path d="M59.3266 23.7559C58.3756 22.7912 57.2319 22.2517 56.0882 21.8919C55.6187 21.7448 55.1492 21.6467 54.6676 21.614C53.8369 21.5322 53.0544 21.6957 52.2478 21.9083C51.7662 22.0391 51.2245 22.4152 50.8633 22.9548C50.5262 23.1837 50.2373 23.4943 50.0928 23.9522C50.0085 24.2301 49.9725 24.5081 50.0086 24.8187C50.0808 25.3093 50.4299 25.5382 50.7188 25.7344C50.8633 25.8325 51.0198 25.9143 51.1643 25.996C50.8753 26.4375 50.9115 27.0915 51.2606 27.4839C51.7421 28.0235 52.5969 28.1707 53.1628 27.7783C53.536 27.5166 53.9091 27.2714 54.2824 27.0261C55.2816 27.1569 56.2928 27.1733 57.2921 27.1079C58.0264 27.0588 58.7608 26.6173 59.2303 25.8489C59.4109 25.5545 59.5312 25.2602 59.5794 24.8842C59.6275 24.5244 59.5794 24.0176 59.3387 23.7723L59.3266 23.7559Z" fill="white"/>
</svg>
