<svg version="1.2" xmlns="http://www.w3.org/2000/svg" viewBox="0 0 880 1003" width="880" height="1003">
	<title>slide_7_borde-svg</title>
	<style>
		.s0 { fill: #ef7d3e } 
		.s1 { fill: #ffffff } 
	</style>
	<path id="Layer" class="s0" d="m364-0.5h-314.5l-49.5 47.5v958.8l384.9-2.8c0 0 32.9 0 67.4 0 29.8 0 59.7 0 59.7 0h368v-964.9l-42.5-38.6h-300.9c0 0-27.3 0-81.4 0-54.1 0-91.2 0-91.2 0z"/>
	<path id="Layer" class="s1" d="m385.8 20.4h-319.3l-41.1 35.6v926.9h370.2c0 0 23.2 0 56.2 0 28.6 0 48.2 0 48.2 0h353.2v-934l-33-28.5h-305.9c0 0-8.1 0-59.8 0-51.7 0-68.7 0-68.7 0z"/>
</svg>