<svg width="231" height="320" viewBox="0 0 231 320" fill="none" xmlns="http://www.w3.org/2000/svg">
<path d="M148.795 203.216C148.795 203.216 146.981 211.636 147.38 213.983C147.78 216.346 149.094 225.914 149.094 225.914L113.001 228.476C113.001 228.476 109.623 220.173 109.374 215.946C108.974 208.941 111.77 186.376 111.77 186.376L148.795 203.216Z" fill="#F18984"/>
<path d="M87.2582 185.477C87.2582 185.477 79.7034 197.607 78.7715 198.207C77.8396 198.806 76.0924 208.457 76.0924 208.457L41.5967 196.376C41.5967 196.376 43.7433 180.967 46.5222 175.825C49.3178 170.683 55.791 163.345 55.791 163.345L87.2748 185.46L87.2582 185.477Z" fill="#F18984"/>
<path d="M148.778 221.171C148.778 221.171 124.949 227.278 111.32 224.1C111.32 224.1 113.4 233.036 118.076 247.014C122.752 260.992 135 309.615 135 309.615L157.548 291.277C157.548 291.277 158.296 270.593 155.634 253.104C152.988 235.665 148.778 221.171 148.778 221.171Z" fill="#FED063"/>
<path d="M77.1904 204.996C77.1904 204.996 61.8479 268.363 59.9842 272.906L42.9277 275.535L32.4941 258.845C32.4941 258.845 38.9507 195.544 42.545 188.223L77.1738 204.98L77.1904 204.996Z" fill="#FED063"/>
<path d="M79.4042 199.255L77.5238 200.32L59.0029 169.02L79.4042 199.255Z" fill="#0B0C0C"/>
<path d="M148.462 209.273L147.863 211.885L103.682 202.783L148.462 209.273Z" fill="#0B0C0C"/>
<path d="M148.778 221.171C148.778 221.171 124.949 227.278 111.32 224.1C111.32 224.1 113.4 233.036 118.076 247.014C122.752 260.992 134.384 310.148 134.384 310.148L158.213 289.78C158.213 289.78 158.28 270.593 155.634 253.104C152.988 235.665 148.778 221.171 148.778 221.171Z" fill="white"/>
<mask id="mask0_393_678" style="mask-type:luminance" maskUnits="userSpaceOnUse" x="111" y="221" width="48" height="90">
<path d="M148.778 221.171C148.778 221.171 124.949 227.278 111.32 224.1C111.32 224.1 113.4 233.036 118.076 247.014C122.752 260.992 134.384 310.148 134.384 310.148L158.213 289.78C158.213 289.78 158.28 270.593 155.634 253.104C152.988 235.665 148.778 221.171 148.778 221.171Z" fill="white"/>
</mask>
<g mask="url(#mask0_393_678)">
<path d="M109.224 230.29C111.171 229.99 113.218 230.19 115.181 230.173C117.028 230.157 118.859 230.09 120.706 230.007C124.5 229.824 128.294 229.508 132.071 229.042C139.626 228.11 147.031 226.529 154.436 224.782C154.985 224.649 155.368 225.348 154.752 225.547C147.447 228.06 139.809 229.658 132.171 230.706C128.377 231.222 124.566 231.621 120.756 231.837C118.842 231.954 116.928 232.02 115.031 232.054C113.151 232.087 111.138 232.27 109.274 231.887C108.275 231.688 108.176 230.44 109.257 230.273" fill="#3A60AA"/>
<path d="M110.954 238.227C114.05 238.011 117.161 237.944 120.256 237.711C123.285 237.478 126.297 237.162 129.309 236.746C135.366 235.931 141.39 234.749 147.314 233.252C150.975 232.336 154.636 231.388 158.263 230.356C158.496 230.29 158.613 230.606 158.397 230.706C146.898 235.565 134.501 238.211 122.104 239.459C118.493 239.825 114.798 240.174 111.171 240.074C109.889 240.041 109.557 238.327 110.971 238.227" fill="#3A60AA"/>
</g>
<path d="M77.1904 204.996C77.1904 204.996 61.8479 268.363 59.9842 272.906L42.9277 275.535L32.4941 258.845C32.4941 258.845 38.9507 195.544 42.545 188.223L77.1738 204.98L77.1904 204.996Z" fill="white"/>
<mask id="mask1_393_678" style="mask-type:luminance" maskUnits="userSpaceOnUse" x="32" y="188" width="46" height="88">
<path d="M77.1904 204.996C77.1904 204.996 61.8479 268.38 59.9842 272.906L42.9277 275.535L32.4941 258.845C32.4941 258.845 38.9507 195.544 42.545 188.223L77.1738 204.98L77.1904 204.996Z" fill="white"/>
</mask>
<g mask="url(#mask1_393_678)">
<path d="M36.2887 189.82C37.9194 190.403 39.4337 191.334 40.9813 192.117C42.5122 192.899 44.0598 193.664 45.6074 194.413C48.7025 195.927 51.7976 197.392 54.926 198.823C61.0996 201.652 67.3231 204.381 73.5966 206.96C77.2575 208.458 80.9018 209.972 84.5128 211.569C85.0287 211.802 84.4296 212.468 84.0136 212.351C77.3574 210.454 70.8676 207.958 64.461 205.329C58.121 202.717 51.8475 199.938 45.6573 196.992C43.91 196.16 42.1794 195.328 40.4488 194.463C38.6183 193.564 36.6215 192.749 34.9408 191.568C33.726 190.719 35.2237 189.404 36.3053 189.787" fill="#3A60AA"/>
<path d="M31.3628 203.299C31.6623 202.717 32.3612 202.617 32.927 202.767C41.1141 204.863 49.2846 206.977 57.4717 209.073C61.4987 210.105 65.5257 211.137 69.5527 212.169C71.5662 212.684 73.563 213.217 75.5599 213.733C76.6249 214.016 77.6732 214.299 78.7216 214.615C79.5703 214.864 80.5354 215.031 81.2177 215.596C81.667 215.979 81.2842 216.545 80.8016 216.612C79.8531 216.745 78.9213 216.462 78.0061 216.245C76.9078 215.996 75.8095 215.746 74.7279 215.48C72.6977 214.964 70.6842 214.465 68.6541 213.949C64.6271 212.917 60.5834 211.902 56.5565 210.871C48.3527 208.791 40.1489 206.694 31.9452 204.614C31.3794 204.464 31.1298 203.765 31.3794 203.283" fill="#3A60AA"/>
</g>
<path d="M62.2476 269.062C62.2476 269.062 55.2086 287.916 53.1785 291.776C53.1785 291.776 17.0187 277.815 14.6724 276.55C12.3095 275.286 3.14055 269.561 1.54307 263.671C-0.0544205 257.796 1.44322 255.234 2.7911 254.868C4.15562 254.518 31.2297 268.579 31.2297 268.579C31.2297 268.579 30.8803 256.532 33.1766 255.35C35.473 254.169 38.5848 257.48 40.3986 260.276C42.2124 263.071 44.359 270.759 44.359 270.759C44.359 270.759 48.4193 263.038 50.0168 262.472C51.6143 261.907 60.7665 264.519 62.2309 269.062" fill="#D93231"/>
<path d="M157.115 312.91C157.115 312.91 134.484 320.814 121.854 319.599C109.473 318.384 102.235 312.444 100.837 307.435C99.4225 302.443 99.2893 301.644 100.837 300.895C102.384 300.13 119.175 306.42 130.374 301.478C130.374 301.478 129.675 294.871 129.076 288.049C129.076 288.049 136.78 287.05 139.526 288.981C143.52 291.793 144.418 302.043 144.418 302.043C144.418 302.043 146.149 292.641 150.842 290.878C152.689 290.179 158.197 289.779 158.197 289.779L157.098 312.91H157.115Z" fill="#D93231"/>
<path d="M53.1781 291.776L51.5473 296.103C51.5473 296.103 23.3917 284.738 20.4297 283.356C15.1546 280.91 4.68774 274.554 2.99041 271.758C-0.737058 265.568 -0.254472 260.442 0.610833 257.614C1.4595 254.785 2.77408 255.101 2.77408 255.101C2.77408 255.101 3.88902 263.587 4.98729 266.35C6.81774 270.976 14.905 275.968 23.5414 279.962C26.337 281.26 53.1781 291.793 53.1781 291.793" fill="white"/>
<path d="M12.1762 270.942C13.99 268.596 17.1017 269.694 19.4314 270.493C20.7127 270.942 21.9607 271.458 23.2088 271.991C23.1921 271.758 23.1589 271.541 23.1422 271.325C23.059 270.543 22.9425 269.761 22.8427 268.979C22.643 267.331 22.46 265.701 22.3102 264.053C22.2769 263.621 22.9925 263.321 23.1922 263.754C23.9077 265.285 24.4901 266.832 24.9394 268.463C25.1557 269.245 25.3388 270.044 25.5218 270.842C25.6882 271.575 25.9046 272.407 25.838 273.172C26.6534 273.555 27.4854 273.954 28.3008 274.337C28.4172 274.387 28.5337 274.437 28.6668 274.503C28.6169 274.254 28.5837 274.021 28.5504 273.804C28.384 273.006 28.2176 272.19 28.0678 271.392C27.7516 269.777 27.552 268.147 27.5187 266.516C27.5187 266.117 28.151 265.8 28.3507 266.233C29.0995 267.814 29.6986 269.461 30.1645 271.142C30.3809 271.941 30.6138 272.74 30.8301 273.522C30.9633 274.004 31.0964 274.503 31.2295 274.986C31.2794 275.169 31.3294 275.352 31.3626 275.535C31.3626 275.602 31.3626 275.652 31.3626 275.718C31.9783 276.001 32.5774 276.301 33.2097 276.55C33.5924 276.717 34.0251 276.9 34.4578 277.083C34.3246 276.866 34.2081 276.633 34.075 276.417C33.5924 275.568 33.0933 274.72 32.6107 273.871C31.5956 272.107 30.5306 270.277 29.7818 268.38C29.6653 268.064 30.1146 267.714 30.3642 267.98C31.762 269.495 32.9268 271.275 34.0417 273.006C34.5909 273.871 35.1234 274.736 35.6559 275.618C35.9221 276.051 36.1884 276.5 36.4546 276.933C36.621 277.199 36.8041 277.465 36.9538 277.748C37.453 277.782 37.9523 277.732 38.4182 277.515C39.7827 276.916 40.6314 275.252 41.3469 274.054C41.7962 273.305 42.2289 272.54 42.6282 271.774C42.8612 271.342 43.0609 270.892 43.2938 270.46C43.2439 270.077 43.2273 269.694 43.194 269.312C43.1441 268.796 43.0942 268.28 43.011 267.764C42.8279 266.666 42.5617 265.567 42.1456 264.536C41.6964 263.388 41.1972 262.256 40.648 261.141C41.3469 262.023 41.9959 262.955 42.5451 263.937C42.6116 264.07 42.7447 264.153 42.8446 264.253C42.8446 264.253 42.8446 264.269 42.8446 264.286C43.2939 265.268 43.7098 266.25 44.0593 267.281C44.3921 268.313 44.8414 269.644 44.675 270.743C44.6418 270.959 44.4587 271.125 44.2257 271.192C44.0427 272.174 43.5934 273.189 43.2772 273.971C42.7447 275.302 42.0624 276.75 41.0973 277.831C38.9839 280.228 36.1052 279.629 33.476 278.547C30.5472 277.332 27.7183 275.884 24.8229 274.57C22.0439 273.305 19.0487 272.007 16.0035 271.508C14.589 271.275 14.0233 271.841 13.6239 273.139C13.524 273.472 13.4242 273.921 13.3077 274.354C13.0581 274.187 12.7919 274.004 12.5423 273.838C12.3259 273.671 12.0929 273.505 11.8933 273.322C11.6769 273.139 11.444 273.006 11.1777 272.889C11.4273 272.19 11.6936 271.508 12.1429 270.926" fill="#0B0C0C"/>
<path d="M33.9423 280.91C35.6895 281.925 37.7529 282.857 39.7664 283.206C40.6317 283.356 41.7633 283.539 42.5953 283.14C43.3442 282.774 43.8267 282.025 44.4591 281.509C45.7404 280.444 47.5875 280.011 49.2182 280.461C51.1485 280.993 52.1303 282.657 53.1121 284.271C53.395 284.737 52.5464 285.103 52.2135 284.787C50.9821 283.572 49.0519 281.542 47.1715 281.642C46.0732 281.709 45.6572 282.79 45.0748 283.589C44.5755 284.255 43.9598 284.771 43.1777 285.087C41.6302 285.719 40.0493 285.336 38.5683 284.737C36.6713 283.972 34.8408 283.107 32.9938 282.225C31.9953 281.742 33.0936 280.411 33.9423 280.893" fill="white"/>
<path d="M135.133 309.632C136.431 309.482 137.713 309.349 139.01 309.233C139.659 309.166 140.358 309.116 140.974 308.883C141.407 308.717 141.706 308.451 141.939 308.118C141.606 308.068 141.257 307.968 140.941 307.868C140.292 307.668 139.676 307.386 139.077 307.086C137.862 306.487 136.681 305.838 135.516 305.156C134.351 304.49 133.186 303.808 132.021 303.142C131.472 302.826 130.907 302.51 130.357 302.177C130.274 302.127 130.191 302.077 130.108 302.027C130.324 302.294 130.524 302.56 130.74 302.826C131.289 303.542 131.838 304.274 132.354 305.006C133.369 306.454 134.551 307.968 135.15 309.649M119.408 315.423C118.975 315.972 118.659 316.571 118.376 317.204C118.343 317.204 118.31 317.17 118.276 317.17C118.243 317.17 118.21 317.154 118.16 317.137C117.86 317.004 117.561 316.937 117.245 316.921C117.095 316.887 116.945 316.854 116.795 316.804C117.594 315.207 118.642 313.726 120.207 312.827C121.438 312.112 122.853 311.795 124.234 311.479C125.881 311.096 127.545 310.747 129.209 310.464C129.492 310.414 129.775 310.381 130.058 310.348C129.875 310.248 129.692 310.148 129.509 310.015C129.176 309.765 128.893 309.449 128.627 309.149C128.044 308.467 127.512 307.752 126.979 307.036C126.43 306.304 125.864 305.572 125.315 304.84C125.032 304.457 124.75 304.074 124.467 303.675C124.217 303.309 123.951 302.959 123.918 302.51C123.884 301.977 124.616 301.844 124.982 302.027C125.432 302.244 125.715 302.693 126.014 303.092C126.264 303.425 126.497 303.758 126.73 304.091L128.244 306.304C128.727 307.003 129.176 307.702 129.642 308.401C130.025 308.983 130.424 309.765 131.073 310.098C131.123 310.115 131.106 310.148 131.139 310.181C132.071 310.048 133.003 309.898 133.935 309.782C132.804 308.684 131.855 307.352 130.857 306.121C130.258 305.372 129.675 304.623 129.076 303.874C128.777 303.508 128.477 303.142 128.194 302.759C127.845 302.31 127.479 301.894 127.312 301.345C127.079 300.53 128.261 300.347 128.743 300.646C128.86 300.713 128.96 300.829 129.059 300.912C129.059 300.912 129.059 300.896 129.059 300.879C129.01 300.596 129.126 300.313 129.376 300.164C130.507 299.481 131.988 300.646 132.987 301.195C134.035 301.778 135.05 302.41 136.082 303.026C137.097 303.641 138.129 304.24 139.16 304.84C139.709 305.156 140.258 305.472 140.808 305.788C141.373 306.121 142.006 306.454 142.505 306.903C143.154 305.089 143.57 303.192 144.119 301.345C145.051 298.2 145.999 294.589 148.496 292.309C148.529 292.276 148.612 292.309 148.579 292.359C146.382 295.055 145.733 298.15 145.45 301.528C145.301 303.209 145.101 304.84 144.618 306.454C144.202 307.852 143.67 309.199 142.322 309.915C141.24 310.497 139.992 310.597 138.794 310.714C137.113 310.863 135.433 311.08 133.769 311.313C130.507 311.779 127.246 312.328 124.017 312.977C122.187 313.359 120.589 313.909 119.408 315.44" fill="#0B0C0C"/>
<path d="M161.757 266.333C161.807 266.583 161.841 266.816 161.89 267.065C161.774 270.976 161.075 274.82 160.01 278.581L159.977 278.647C159.977 278.647 159.977 278.68 159.977 278.714C159.977 278.747 159.96 278.764 159.943 278.797C159.977 273.505 159.993 268.197 159.727 262.922C159.694 262.206 159.611 261.507 159.561 260.792C159.394 259.427 159.211 258.063 159.062 256.698C160.193 259.86 161.092 263.038 161.757 266.35" fill="white"/>
<path d="M81.2507 201.984L54.21 161.914L108.125 139.017L181.51 160.716C181.51 160.716 188.532 165.325 150.741 209.639C150.741 209.639 136.364 208.308 100.986 203.748L113.051 180.085" fill="#3A60AA"/>
<path d="M179.896 157.487C174.704 164.244 171.692 172.181 168.048 179.703C166.251 183.397 164.32 187.074 161.758 190.386C160.56 191.95 159.178 193.398 157.714 194.712C155.884 196.36 153.87 197.857 152.273 199.754C150.692 201.618 150.009 203.781 149.344 206.028C149.094 206.893 148.828 207.792 148.495 208.674C147.73 208.357 146.948 208.058 146.166 207.775C147.214 205.096 147.763 202.25 149.36 199.754C150.609 197.824 152.372 196.277 154.103 194.762C155.784 193.298 157.315 191.684 158.696 189.936C163.871 183.38 166.833 175.709 170.727 168.487C172.99 164.277 175.553 160.3 179.064 156.938C179.48 156.539 180.328 156.955 179.912 157.487" fill="#D93231"/>
<path d="M174.521 151.398C172.191 155.125 169.978 158.986 168.031 162.913C166.1 166.84 164.653 170.9 163.272 174.994C161.957 178.871 160.526 182.765 158.013 186.16C155.301 189.821 151.74 192.733 148.761 196.161C147.13 198.024 145.649 200.005 144.335 202.085C143.453 203.449 142.737 204.88 142.038 206.311C141.306 206.045 140.574 205.762 139.842 205.479C141.373 202.401 143.486 199.406 145.599 196.793C148.495 193.215 152.023 190.237 155.084 186.809C156.599 185.111 157.913 183.248 158.862 181.218C159.794 179.221 160.443 177.141 161.075 175.061C162.34 170.95 163.804 166.94 165.751 163.046C167.931 158.686 170.527 154.693 173.822 151.015C174.121 150.682 174.787 150.965 174.504 151.398" fill="#D93231"/>
<path d="M134.8 189.088C135.765 188.922 136.78 189.038 137.678 189.454C137.812 189.421 137.961 189.438 138.061 189.521C138.311 189.72 138.527 189.92 138.744 190.153C139.343 190.686 139.775 191.368 140.025 192.15C140.474 193.282 140.591 194.53 140.224 195.728C139.559 197.891 137.379 199.389 135.133 198.856C133.003 198.357 131.272 196.293 131.172 194.114C131.072 191.85 132.453 189.487 134.816 189.088" fill="#FED061"/>
<path d="M135.383 195.362H135.349C135.349 195.362 135.333 195.362 135.316 195.362C135.266 195.345 135.249 195.312 135.383 195.395" fill="white"/>
<path d="M135.099 195.261C135.099 195.261 135.099 195.261 135.083 195.261C134.999 195.228 135.033 195.228 135.099 195.261Z" fill="white"/>
<path d="M134.866 195.095C134.866 195.095 134.866 195.095 134.85 195.095C134.85 195.095 134.833 195.062 134.816 195.045C134.833 195.045 134.866 195.078 134.883 195.111" fill="white"/>
<path d="M134.75 192.416C134.75 192.416 134.734 192.433 134.717 192.45C134.684 192.5 134.65 192.533 134.617 192.583C134.567 192.666 134.501 192.749 134.467 192.849C134.434 192.899 134.417 192.949 134.384 192.999C134.334 193.132 134.301 193.265 134.284 193.398C134.251 193.631 134.284 193.864 134.284 194.097C134.284 194.097 134.284 194.097 134.284 194.114C134.284 194.114 134.284 194.114 134.284 194.081C134.284 194.081 134.284 194.097 134.284 194.114C134.284 194.147 134.284 194.18 134.284 194.164C134.284 194.197 134.284 194.23 134.301 194.247C134.301 194.297 134.334 194.363 134.351 194.413C134.351 194.43 134.367 194.463 134.384 194.48C134.417 194.563 134.484 194.663 134.517 194.73C134.517 194.746 134.667 194.896 134.55 194.796C134.434 194.68 134.584 194.829 134.6 194.846C134.634 194.879 134.7 194.946 134.767 195.012C134.734 195.012 134.717 195.012 134.783 195.046C134.783 195.046 134.783 195.046 134.8 195.046L134.833 195.079C134.833 195.079 134.833 195.079 134.833 195.062C134.883 195.096 134.933 195.129 134.983 195.162C135.016 195.195 135.1 195.212 135.133 195.245C135.1 195.212 135.1 195.229 135.083 195.212C135.15 195.229 135.216 195.262 135.283 195.295C135.283 195.295 135.299 195.295 135.316 195.295C135.333 195.295 135.349 195.295 135.366 195.312C135.366 195.312 135.366 195.312 135.349 195.312C135.399 195.312 135.432 195.329 135.482 195.345C135.532 195.345 135.582 195.345 135.632 195.362H135.665C135.749 195.362 135.832 195.362 135.915 195.345C135.965 195.329 136.015 195.312 136.065 195.295C136.115 195.279 136.165 195.262 136.215 195.229C136.248 195.229 136.264 195.229 136.264 195.212C136.348 195.162 136.464 195.062 136.481 195.046C136.514 195.012 136.547 194.996 136.581 194.963C136.647 194.879 136.714 194.813 136.78 194.73C136.83 194.663 136.864 194.58 136.93 194.513C136.947 194.463 136.98 194.413 136.997 194.347C137.013 194.297 137.03 194.23 137.047 194.164C137.013 194.28 137.047 194.114 137.047 194.081C137.047 193.964 137.047 193.848 137.047 193.731C137.047 193.631 136.98 193.598 137.047 193.748C137.03 193.698 137.013 193.615 137.013 193.565C136.98 193.432 136.947 193.315 136.897 193.199C136.83 192.982 136.747 192.783 136.647 192.583C136.614 192.516 136.581 192.433 136.531 192.367C136.331 192.333 136.148 192.233 136.048 192.05C136.048 192.034 135.965 191.934 135.965 191.951C135.965 191.951 135.932 191.934 135.932 191.917C135.915 191.901 135.865 191.867 135.865 191.867C135.865 191.867 135.865 191.867 135.848 191.867C135.798 191.851 135.682 191.851 135.848 191.867C135.815 191.867 135.765 191.867 135.732 191.867C135.699 191.867 135.665 191.867 135.632 191.867C135.532 191.867 135.449 191.901 135.349 191.917C135.333 191.917 135.333 191.917 135.316 191.917C135.316 191.917 135.316 191.917 135.283 191.934C135.249 191.951 135.199 191.967 135.166 191.984C135.15 191.984 135.066 192.05 135.05 192.05C135.033 192.05 135.016 192.084 135 192.1C134.9 192.183 134.8 192.283 134.7 192.383M135.416 190.336C136.198 190.32 137.063 190.752 137.296 191.551C137.346 191.568 137.379 191.584 137.429 191.618C137.562 191.718 137.696 191.801 137.812 191.917C138.078 192.167 138.344 192.45 138.544 192.749C138.91 193.298 139.16 194.064 139.077 194.73C138.977 195.495 138.644 196.127 138.062 196.643C137.562 197.076 136.863 197.342 136.215 197.375C134.783 197.442 133.369 196.527 132.787 195.229C132.47 194.546 132.354 193.814 132.504 193.065C132.537 192.932 132.57 192.816 132.604 192.683C132.604 192.649 132.62 192.616 132.637 192.583C132.637 192.583 132.67 192.483 132.703 192.433C132.72 192.383 132.77 192.267 132.77 192.267C132.77 192.217 132.803 192.184 132.82 192.15C132.97 191.834 133.169 191.551 133.402 191.285C133.918 190.686 134.65 190.37 135.432 190.353" fill="white"/>
<path d="M164.736 197.109C167.482 193.065 169.645 188.672 173.14 185.294C171.775 188.173 170.427 191.085 168.564 193.681C167.199 195.578 165.502 197.192 163.655 198.656C164.004 198.14 164.37 197.625 164.72 197.109" fill="#3A60AA"/>
<path d="M154.053 11.9671C154.053 11.9671 157.214 7.67386 159.311 9.32127C163.488 12.6161 157.714 15.7611 157.714 15.7611L154.053 11.9505V11.9671Z" fill="black"/>
<path d="M110.172 22.084C110.172 22.084 106.727 24.8963 103.083 25.9612C99.4387 27.0262 96.5599 27.5754 98.0575 30.4375C99.5552 33.2997 102.9 32.3844 106.461 31.4359C110.022 30.4874 110.188 22.084 110.188 22.084" fill="#AD3B2D"/>
<path d="M196.719 87.1484L208.933 91.5414L203.509 136.837L184.422 135.006L196.719 87.1484Z" fill="#D93231"/>
<path d="M183.273 149.151L189.364 135.972C189.364 135.972 192.426 120.629 193.641 112.625C194.606 106.285 196.719 87.1652 196.719 87.1652L138.677 67.2466L90.8689 84.3529L81.7832 130.048L98.9395 125.338L102.933 136.77C102.933 136.77 94.0805 134.108 96.3769 142.495C96.3769 142.495 97.9078 161.315 124.815 163.262C151.74 165.209 180.977 167.855 183.39 160.799C184.505 157.538 183.257 149.168 183.257 149.168" fill="#FED061"/>
<path d="M148.345 86.9651C144.302 91.0087 128.859 95.6015 119.69 88.2631C114.216 83.8866 113.3 76.3152 113.3 76.3152L138.677 67.2295L153.52 72.3215C153.903 76.881 152.638 82.6718 148.345 86.9484" fill="#D93231"/>
<path d="M140.175 58.543L145.666 69.6421C145.666 69.6421 147.596 82.3222 134.75 84.4854C125.315 86.0829 119.491 78.8776 119.491 78.8776L115.131 66.5969L140.175 58.543Z" fill="#F18984"/>
<path d="M114.881 14.8789C114.881 14.8789 110.505 21.3521 107.11 25.2627C102.85 30.155 93.465 38.3919 95.3786 51.2883C97.2923 64.1847 106.794 70.6911 121.92 70.9407C137.046 71.1903 147.53 56.5966 151.773 50.7891C156.017 44.9816 158.862 37.743 158.862 37.743L114.881 14.8789Z" fill="#F18984"/>
<path d="M151.341 42.2687C151.341 42.2687 157.315 40.0057 159.844 45.0976C162.956 51.3378 160.476 58.6929 152.639 59.1921C145.45 59.658 142.255 56.5795 142.255 56.5795L151.341 42.2687Z" fill="#F18984"/>
<path d="M150.674 34.9468C150.674 34.9468 142.97 42.9842 140.89 46.6284C138.826 50.2727 136.713 53.035 138.544 53.5841C142.338 54.7157 147.063 46.8448 147.063 46.8448C147.063 46.8448 144.667 51.6538 146.032 52.0033C150.109 53.0516 156.648 38.3747 156.648 38.3747L150.674 34.9634V34.9468Z" fill="#AD3B2D"/>
<path d="M157.631 42.6019C157.631 42.6019 168.814 31.3696 162.59 20.5866C156.383 9.80355 139.177 -2.67686 130.324 2.0324C121.455 6.74166 114.299 14.2465 114.299 14.2465L157.631 42.6019Z" fill="#3A60AA"/>
<path d="M158.978 41.0375L157.614 42.6017C157.614 42.6017 108.608 16.8921 102.9 12.8984C97.1922 8.90469 97.0923 2.63129 97.5915 0.800841C98.0907 -1.01297 102.717 0.11859 109.073 5.59331C129.391 23.0991 158.978 41.0375 158.978 41.0375Z" fill="#D93231"/>
<mask id="mask2_393_678" style="mask-type:luminance" maskUnits="userSpaceOnUse" x="114" y="1" width="51" height="42">
<path d="M130.324 2.01553C121.455 6.72479 114.299 14.2297 114.299 14.2297L157.631 42.585C157.631 42.585 168.797 31.3527 162.59 20.5697C157.315 11.4008 144.069 1.00049 134.784 1.00049C133.153 1.00049 131.655 1.31665 130.324 2.03219" fill="white"/>
</mask>
<g mask="url(#mask2_393_678)">
<path d="M118.243 3.64683C119.458 4.91151 120.506 6.3093 121.688 7.59062C122.803 8.78873 123.984 9.9203 125.266 10.9354C127.861 13.0154 130.774 14.8459 133.919 15.9275C136.182 16.7096 140.192 17.6083 141.989 15.3618C142.888 14.2302 142.289 12.8324 141.39 11.9172C140.175 10.6692 138.561 9.77054 137.147 8.75547C135.366 7.47415 133.586 6.19282 131.805 4.89487C129.858 3.46378 127.845 1.99948 126.264 0.169027C126.014 -0.113862 126.43 -0.413439 126.713 -0.296956C128.793 0.518428 130.657 1.71653 132.521 2.91465C134.368 4.07948 136.182 5.3276 137.996 6.54236C139.743 7.72383 141.64 8.82207 143.187 10.2532C144.502 11.4679 145.467 13.2983 145.018 15.1288C144.152 18.6899 139.643 19.3888 136.598 19.0061C132.621 18.5068 128.843 16.5432 125.582 14.2801C123.868 13.082 122.237 11.7508 120.756 10.2865C119.059 8.62242 117.411 6.8086 116.346 4.66198C115.864 3.68019 117.578 3.01451 118.21 3.66349" fill="#EF7D3E"/>
</g>
<path d="M125.864 45.2143C129.724 46.9948 131.971 57.3119 121.271 58.7762C109.44 60.3737 104.847 54.9656 105.912 50.4228C106.977 45.8799 111.936 47.5606 116.179 46.8284C120.406 46.1128 123.584 44.1493 125.88 45.2143" fill="#D93231"/>
<path d="M116.429 70.5412C116.429 70.5412 122.203 70.6078 125.665 70.2583L117.993 74.6514L116.429 70.5412Z" fill="#0B0C0C"/>
<path d="M205.023 124.207L208.101 98.4478C208.101 98.4478 232.297 107.85 230.782 124.657C229.767 135.972 222.279 141.164 211.829 145.058C200.563 149.268 181.693 143.477 181.693 143.477L178.315 128.434L205.023 124.207Z" fill="#F18984"/>
<mask id="mask3_393_678" style="mask-type:luminance" maskUnits="userSpaceOnUse" x="105" y="44" width="25" height="16">
<path d="M125.864 45.2143C129.725 46.9948 131.971 57.3119 121.271 58.7762C109.44 60.3737 104.847 54.9656 105.912 50.4228C106.977 45.8799 111.936 47.5606 116.179 46.8284C120.406 46.1128 123.584 44.1493 125.881 45.2143" fill="white"/>
</mask>
<g mask="url(#mask3_393_678)">
<path d="M111.986 57.5279C112.269 56.8955 112.852 56.3298 113.467 55.8306C113.584 55.6143 113.767 55.4313 114.116 55.3148C114.116 55.3148 114.116 55.3148 114.133 55.3148C114.333 55.165 114.516 55.0319 114.699 54.8988C116.845 53.3179 119.375 52.2529 121.987 51.7703C124.866 51.2378 128.128 51.2711 130.69 52.8187C130.757 52.852 130.807 52.9018 130.84 52.9684C131.289 53.3511 131.472 54.0334 131.073 54.5493C129.276 56.7791 126.38 57.7609 123.701 58.4432C120.673 59.2253 117.544 59.5747 114.416 59.7911C113.767 59.841 113.085 59.8909 112.519 59.4749C111.903 59.0256 111.687 58.2434 112.003 57.5445" fill="#BC2524"/>
<path d="M107.693 45.9966C108.342 46.2129 109.007 46.396 109.673 46.5457C111.154 46.0465 112.751 45.8801 114.249 45.4142C115.68 44.9649 117.078 44.4823 118.542 44.1662C120.905 43.6337 123.551 43.5504 125.997 44.0164C126.18 43.9165 126.347 43.8333 126.513 43.7002C126.796 43.4839 127.179 43.7834 126.896 44.0497C126.846 44.0996 126.796 44.1329 126.763 44.1662C127.195 44.266 127.611 44.3824 128.027 44.5322C128.111 44.5655 128.161 44.6154 128.227 44.6487C128.394 44.6487 128.543 44.6487 128.71 44.6987C128.943 44.7486 129.059 45.0813 128.926 45.2644C128.394 46.0631 127.545 46.396 126.68 46.7787C125.764 47.1947 124.783 47.5441 123.817 47.8603C121.954 48.4594 120.04 48.9253 118.093 49.1915C114.416 49.7074 110.305 49.6242 106.861 48.1099C105.33 47.4443 106.178 45.4641 107.709 45.9799" fill="white"/>
<path d="M113.401 58.4272C115.464 57.8947 117.677 57.6284 119.791 57.412C120.889 57.2955 121.987 57.2789 123.085 57.229C124.267 57.1957 125.432 57.3622 126.596 57.3622C126.946 57.3622 126.846 57.7781 126.547 57.828C126.097 57.878 125.631 57.9778 125.182 58.0777C125.964 57.9612 126.563 58.9929 125.681 59.3257C123.851 60.0413 121.821 59.8748 119.89 59.9248C117.86 59.9747 115.83 60.0246 113.817 60.1578C112.735 60.2243 112.219 58.7267 113.401 58.4105" fill="white"/>
</g>
<path d="M207.402 104.271L207.236 123.874L205.022 124.207L207.402 104.271Z" fill="#0B0C0C"/>
<path d="M128.376 39.1072C128.41 38.9242 128.443 38.7246 128.476 38.5415C128.543 38.1588 128.609 37.7927 128.709 37.41C128.959 36.4781 129.325 35.5295 130.04 34.8473C130.473 34.4479 131.322 34.6809 131.372 35.2966C131.655 35.3465 131.904 35.4963 131.987 35.8125C132.121 36.2451 131.987 36.761 131.921 37.2103C131.854 37.593 131.754 37.9591 131.621 38.3252C131.438 38.8078 131.239 39.307 130.989 39.7562C130.606 40.4385 129.658 40.738 128.959 40.3719C128.759 40.2721 128.609 40.139 128.493 39.9559C128.31 39.673 128.326 39.4234 128.393 39.1239" fill="black"/>
<path d="M105.429 33.5158C105.779 32.767 106.178 32.0348 106.611 31.3192C106.877 30.8866 107.409 30.7202 107.875 30.8533C108.325 30.9865 108.624 31.3691 108.558 31.8351C108.657 32.1512 108.558 32.5839 108.474 32.8834C108.358 33.3161 108.225 33.7654 108.042 34.1814C107.726 34.897 107.31 35.5793 106.81 36.1783C106.428 36.6443 105.529 36.5943 105.163 36.1284C104.514 35.2963 105.046 34.3312 105.429 33.5158Z" fill="black"/>
<path d="M105.23 21.502C105.413 21.2357 105.662 20.9861 105.912 20.7864C106.394 20.4037 106.927 20.1041 107.509 19.9044C108.591 19.5383 109.772 19.5051 110.871 19.7381C112.801 20.1541 114.931 21.6018 115.597 23.532C115.946 24.5138 114.365 25.113 113.933 24.2144C113.583 23.4822 113.234 22.8166 112.618 22.2508C112.019 21.685 111.287 21.3022 110.488 21.1358C109.606 20.9694 108.691 21.1026 107.859 21.4021C107.459 21.5519 107.06 21.7183 106.694 21.918C106.511 22.0178 106.345 22.1176 106.161 22.2175C105.879 22.3673 105.612 22.3839 105.296 22.4338C105.213 22.4338 105.113 22.3839 105.097 22.3007C105.063 22.0011 105.03 21.7682 105.196 21.5186" fill="#AD3B2D"/>
<path d="M127.794 26.2607C128.094 26.0443 128.56 25.9944 128.876 26.2107C129.841 26.8264 130.656 27.6251 131.505 28.3906C132.27 29.0729 133.053 29.7385 133.851 30.3708C134.6 30.9532 135.382 31.5524 136.214 32.0017C137.063 32.4676 137.895 32.9834 138.794 33.3162C139.076 33.4327 138.794 33.7655 138.577 33.7489C137.662 33.6657 136.763 33.5659 135.881 33.2663C134.783 32.867 133.735 32.351 132.736 31.7353C131.771 31.1363 130.873 30.4541 130.007 29.7219C129.092 28.9398 128.21 28.1743 127.528 27.1759C127.328 26.8763 127.528 26.4437 127.794 26.2607Z" fill="#AD3B2D"/>
<path d="M112.368 34.5642C113.899 33.6324 115.563 33.4493 117.294 33.233C118.093 33.1332 118.658 32.8503 119.158 32.2013C119.59 31.6522 119.857 30.8701 120.439 30.4541C120.605 30.3376 121.005 30.2877 121.088 30.5539C121.454 31.7354 120.273 33.4327 119.341 34.0484C117.993 34.9303 116.262 34.6808 114.765 35.1301C113.317 35.5627 112.119 36.5445 111.653 38.0255C111.187 39.5564 111.686 41.0707 112.834 42.1523C113.666 42.951 112.019 43.9661 111.287 43.184C108.924 40.638 109.356 36.4113 112.368 34.5642Z" fill="#D93231"/>
<path d="M149.394 43.8497C149.394 43.8497 149.46 43.9828 149.394 44.0827C148.795 45.0145 148.279 45.9796 147.663 46.9115C147.048 47.8433 146.382 48.7253 145.65 49.574C144.202 51.288 142.388 52.8854 140.225 53.5676C140.092 53.6009 139.992 53.6009 139.875 53.5676C143.47 50.7887 146.448 47.2942 149.394 43.833" fill="#0B0C0C"/>
<path d="M151.507 46.5793C152.023 45.7306 152.489 44.8486 152.888 43.95C153.304 43.0015 153.537 42.0031 153.937 41.0546C154.136 40.5887 155.068 40.6885 154.935 41.2709C154.719 42.2195 154.186 43.1679 153.737 44.0166C153.238 44.9817 152.689 45.897 152.056 46.7789C150.875 48.4596 149.444 49.9073 147.863 51.2053C147.813 51.2385 147.747 51.1887 147.796 51.1387C149.228 49.7909 150.459 48.2433 151.491 46.5626" fill="#0B0C0C"/>
<path d="M151.723 53.2684C152.173 52.9856 152.738 53.0854 153.238 52.9689C153.62 52.8857 154.003 52.7194 154.319 52.503C155.085 51.9705 155.534 51.1219 155.551 50.19C155.584 49.308 155.218 48.3928 154.685 47.7106C154.203 47.0949 153.471 46.762 152.955 46.1962C152.805 46.0298 152.955 45.8301 153.121 45.7636C154.269 45.3309 155.567 46.1464 156.316 46.9617C157.165 47.9102 157.431 49.2581 157.131 50.4895C156.849 51.7209 156.183 52.8025 155.135 53.5181C154.619 53.8675 154.036 54.1338 153.421 54.2503C152.805 54.3834 152.006 54.4665 151.54 53.984C151.341 53.7676 151.507 53.4182 151.723 53.2851" fill="#D93231"/>
<path d="M166.451 27.3423C166.484 26.9263 166.467 26.4936 166.451 26.0776C167.382 28.1411 168.048 30.2211 167.399 32.2678C166.817 34.0817 165.169 35.5627 163.655 36.9938C163.122 37.493 162.607 38.0088 162.124 38.508C162.141 38.4747 162.124 38.4415 162.157 38.4082C163.655 35.9787 164.87 33.4494 165.718 30.8534C166.084 29.7053 166.367 28.5404 166.451 27.3589" fill="#3A60AA"/>
<path d="M196.786 124.938C199.964 123.99 203.359 123.607 206.62 122.992C209.499 122.459 212.361 121.927 215.273 121.61C215.423 121.594 215.423 121.793 215.307 121.827C212.261 122.842 209.133 123.574 205.971 124.206C203.026 124.805 199.997 125.571 196.986 125.737C196.486 125.77 196.253 125.105 196.802 124.938" fill="#D93231"/>
<path d="M170.96 74.8347C175.835 75.8997 180.728 76.9314 185.454 78.4124C187.9 80.1264 190.229 81.9735 192.443 83.9703C184.871 80.6256 177.35 77.1311 169.396 74.7349C169.911 74.7515 170.444 74.7848 170.96 74.8347Z" fill="#FED061"/>
<path d="M111.254 108.981C111.254 108.981 117.444 103.406 122.27 102.807C127.095 102.208 133.103 106.601 131.472 113.656C129.841 120.712 114.182 132.194 114.182 132.194L131.023 132.061L131.239 138.484L109.074 138.584L108.441 129.365C108.441 129.365 126.03 114.089 126.247 112.225C126.463 110.362 124.882 108.931 123.218 108.764C121.554 108.598 114.199 113.69 114.199 113.69L111.254 108.964V108.981Z" fill="#D93231"/>
<path d="M137.729 105.935L156.066 104.903L157.165 113.024L148.329 118.415C148.329 118.415 159.228 119.663 161.192 125.005C163.139 130.347 160.842 136.62 156.799 138.45C152.755 140.281 138.211 139.665 138.211 139.665L137.995 133.242C137.995 133.242 154.336 133.375 155.417 131.545C158.196 126.869 151.44 122.975 141.839 123.075L141.489 117.251L151.557 110.661L138.81 111.327L137.712 105.935H137.729Z" fill="#D93231"/>
<path d="M87.3745 103.323C87.3745 103.323 88.7557 122.859 86.5093 128.999C86.5093 128.999 71.7658 138.018 66.2578 133.608L74.0955 106.335L87.3579 103.323H87.3745Z" fill="#D93231"/>
<path d="M60.317 112.708C60.317 112.708 72.8306 90.7097 75.1103 85.3348C77.3901 79.96 80.8014 81.0915 80.8014 81.0915L91.6676 87.2319L82.1825 122.809C82.1825 122.809 77.6231 137.619 65.9414 135.223C51.3644 132.244 60.317 112.692 60.317 112.692" fill="#F18984"/>
<path d="M92.5327 82.7385L109.489 53.418C109.489 53.418 111.869 52.9853 112.917 54.433C113.949 55.8807 113.966 56.6794 113.966 56.6794L97.5582 84.9017L92.5327 82.7552V82.7385Z" fill="#3A60AA"/>
<path d="M105.396 84.07C104.481 84.5692 95.0624 78.3789 95.0624 78.3789L93.9974 80.2094L86.8087 76.5484C86.8087 76.5484 85.128 73.5365 87.0749 71.4898C89.0219 69.443 96.9594 72.9208 99.938 74.302C102.917 75.6998 110.388 81.2743 105.396 84.0533" fill="#F18984"/>
<path d="M89.971 77.0972C89.971 77.0972 99.9552 84.4522 100.271 86.9483C100.588 89.4444 98.1082 91.7408 97.0931 91.7408C95.1795 91.7408 95.8617 91.5578 95.8617 91.5578C95.8617 91.5578 92.7 95.9842 89.1722 92.2068C89.1722 92.2068 88.0074 94.6363 85.0288 94.603C82.0501 94.5531 78.1562 89.3445 78.1562 89.3445L80.2363 82.0061C80.2363 82.0061 79.0881 80.1924 80.4027 78.911C81.7173 77.6297 82.8322 77.5798 82.8322 77.5798C82.8322 77.5798 82.1001 76.4149 83.4146 75.2501C84.7126 74.0853 88.074 74.3681 88.074 74.3681L89.9543 77.0972H89.971Z" fill="#F18984"/>
<path d="M85.6274 74.5513C87.6908 75.1337 89.5712 76.4483 91.3351 77.6464C93.2488 78.961 95.0792 80.392 96.7766 81.9729C98.2077 83.3041 99.7885 84.7186 100.171 86.7321C100.454 88.1965 99.855 90.1101 98.607 90.9588C98.4572 91.0586 98.3408 90.8589 98.4739 90.7757C100.388 89.4944 99.7053 87.2146 98.5904 85.6504C97.4588 84.0862 96.0277 82.7717 94.58 81.507C93.1489 80.2589 91.6679 79.0775 90.1204 77.9959C88.5728 76.9309 86.8422 76.0656 85.4111 74.8674C85.228 74.7177 85.4943 74.5179 85.6441 74.5678" fill="#D93231"/>
<path d="M79.8528 89.1283C81.417 90.1933 82.3822 91.874 83.8132 93.0887C84.6286 93.771 85.5438 94.1204 86.6088 94.1371C87.2079 94.1371 87.8402 94.0872 88.4226 93.9374C88.7388 93.8542 89.1049 93.7876 89.1548 93.4049C89.1715 93.2218 89.0882 93.0222 88.9884 92.8392C88.9884 92.8392 88.9551 92.8058 88.9551 92.7892C88.9551 92.7892 88.9551 92.756 88.9551 92.7393C88.9052 92.6561 88.872 92.5896 88.822 92.5397C88.1731 91.5412 87.341 90.6093 86.5922 89.6774C85.8101 88.7123 85.0114 87.7472 84.196 86.7987C83.3806 85.8502 82.5652 84.9183 81.7165 84.0031C80.9011 83.1378 79.9693 82.2558 79.3037 81.2907C79.1706 81.1076 79.4701 80.9578 79.6199 81.041C80.5184 81.6068 81.3005 82.4222 82.066 83.1377C82.898 83.9198 83.6967 84.7519 84.4788 85.5839C86.0763 87.2646 87.6073 89.0285 89.055 90.8423C89.4211 91.3082 89.7539 91.8074 89.9369 92.3565C90.1033 92.4231 90.2531 92.523 90.4195 92.6062C90.8022 92.8059 91.2016 93.0056 91.6176 93.1387C92.2 93.3217 92.7991 93.3051 93.3815 93.1387C94.3134 92.8558 95.0788 92.1902 95.5947 91.3748C95.578 91.3582 95.5614 91.3416 95.5448 91.3083C94.8791 89.977 93.7476 88.9619 92.6993 87.9302C91.5344 86.782 90.3696 85.6505 89.1881 84.5356C86.8917 82.3723 84.379 80.3421 82.249 78.0124C81.9828 77.7129 82.4654 77.2969 82.7649 77.4966C85.5438 79.3603 88.0067 81.7899 90.4362 84.0863C91.6176 85.2012 92.7991 86.3327 93.9473 87.4809C94.9624 88.496 95.9275 89.5776 96.3768 90.9588C96.4766 91.2583 96.2104 91.5079 95.9275 91.5412C95.4782 92.5729 94.5297 93.3383 93.4481 93.7044C92.7658 93.9207 92.0336 93.9541 91.3347 93.8542C90.9187 93.7877 90.5027 93.6878 90.1033 93.538C90.0701 93.538 90.0368 93.5047 90.0035 93.5047C89.8537 94.2868 89.1715 94.6863 88.4726 94.9359C86.4757 95.6681 84.4622 95.7013 82.7649 94.3035C81.2672 93.0721 80.4186 91.2583 78.9376 89.9936C78.3219 89.4611 79.2704 88.7622 79.8361 89.1283" fill="#D93231"/>
<path d="M101.752 74.3353C101.652 74.5184 101.535 74.7014 101.436 74.8844C100.953 74.5849 100.454 74.3186 99.9546 74.069C100.071 73.8527 100.171 73.653 100.287 73.4367C100.753 72.5381 101.219 71.6396 101.735 70.7743C102.734 69.027 103.799 67.2964 104.764 65.5325C105.496 64.1846 106.361 62.8533 107.909 62.404C108.691 62.1711 109.506 62.2044 110.238 62.5705C110.305 62.6038 110.355 62.6537 110.421 62.687C110.238 63.0365 110.089 63.3859 109.939 63.7354C109.207 63.6189 108.408 63.8185 107.875 64.2844C106.794 65.2662 106.078 66.6475 105.363 67.8955C104.547 69.3099 103.765 70.741 103 72.1721C102.6 72.9043 102.184 73.6198 101.768 74.3353" fill="#FED061"/>
<path d="M102.934 136.753C102.934 136.753 113.45 154.842 138.245 155.041" stroke="#0B0C0C" stroke-width="0.999998" stroke-linecap="round" stroke-linejoin="round"/>
<path d="M183.739 148.502C182.325 147.504 180.594 146.821 178.963 146.272C178.265 146.039 177.549 145.823 176.817 145.64C176.367 145.523 175.902 145.423 175.452 145.324C175.036 145.24 174.62 145.124 174.188 145.157C173.905 145.157 173.722 145.49 173.722 145.74C173.722 146.039 173.905 146.339 174.188 146.455C174.57 146.605 175.003 146.638 175.402 146.705C175.785 146.771 176.151 146.855 176.517 146.938C177.399 147.137 178.298 147.37 179.163 147.637C180.627 148.086 182.025 148.718 183.49 149.201C183.872 149.334 184.039 148.702 183.756 148.502" fill="#0B0C0C"/>
<path d="M181.626 149.866C180.295 149.866 178.98 149.933 177.649 150.032C176.301 150.149 174.97 150.365 173.622 150.565C172.807 150.681 173.223 152.113 173.988 151.929C176.484 151.33 179.08 150.964 181.643 150.665C182.076 150.615 182.076 149.849 181.643 149.866" fill="#0B0C0C"/>
<path d="M183.24 142.894C183.24 142.894 170.843 152.562 169.595 152.479C168.33 152.412 166.899 151.714 167.066 150.565C167.232 149.417 173.156 142.578 175.419 141.48C175.419 141.48 167.781 144.924 165.818 146.172C163.854 147.437 161.774 149.217 160.493 149.367C159.228 149.517 157.281 146.588 157.281 146.422C157.281 146.256 158.163 145.573 158.163 145.573C158.163 145.573 157.448 145.956 156.216 145.057C154.985 144.159 154.602 142.145 156.449 140.498C158.296 138.851 165.202 134.258 170.893 133.409C170.893 133.409 166.866 132.244 163.688 132.361C160.526 132.461 156.482 133.276 154.802 133.209C153.121 133.126 153.803 129.249 154.619 128.683C155.434 128.117 160.593 127.002 164.819 126.686C169.046 126.387 178.914 128.583 178.914 128.583L183.207 142.894H183.24Z" fill="#F18984"/>
<path d="M166.766 150.399C167.216 149.517 167.881 148.702 168.497 147.92C169.113 147.104 169.778 146.339 170.477 145.606C171.193 144.858 171.925 144.159 172.707 143.493C173.106 143.16 173.506 142.828 173.922 142.511C174.321 142.212 174.72 141.879 175.17 141.696C175.253 141.663 175.353 141.746 175.303 141.829C175.053 142.195 174.671 142.478 174.338 142.794C173.988 143.11 173.656 143.443 173.323 143.776C172.591 144.475 171.892 145.224 171.226 145.989C170.594 146.721 169.978 147.47 169.379 148.236C168.747 149.068 168.214 149.983 167.565 150.798C167.266 151.181 166.483 150.931 166.75 150.399" fill="#D93231"/>
<path d="M156.998 145.806C157.88 144.641 159.361 143.743 160.526 142.894C161.774 141.979 163.072 141.147 164.42 140.381C165.751 139.633 167.099 138.917 168.514 138.351C169.995 137.752 171.575 137.12 173.19 137.003C173.489 136.987 173.622 137.403 173.356 137.569C172.141 138.335 170.727 138.817 169.429 139.4C168.031 140.015 166.65 140.648 165.319 141.38C164.021 142.079 162.756 142.844 161.525 143.643C160.842 144.092 160.177 144.542 159.544 145.041C158.962 145.49 158.413 146.039 157.764 146.372C157.414 146.555 156.599 146.322 156.982 145.806" fill="#D93231"/>
<path d="M155.667 140.898C156.566 139.916 157.78 139.1 158.862 138.335C160.11 137.453 161.458 136.721 162.839 136.038C165.502 134.741 168.181 133.759 171.109 133.343C171.326 133.309 171.292 133.576 171.143 133.642C168.513 134.774 165.834 135.889 163.288 137.22C162.057 137.852 160.842 138.551 159.627 139.25C158.429 139.932 157.298 140.731 156.1 141.38C155.8 141.546 155.384 141.214 155.667 140.914" fill="#D93231"/>
</svg>
