<svg width="65" height="30" viewBox="0 0 65 30" fill="none" xmlns="http://www.w3.org/2000/svg">
<path d="M12.2249 0.0404315C11.8394 -0.0642898 11.3768 0.040457 10.9656 0.284807C10.8885 0.284807 10.8242 0.249866 10.7471 0.249866C9.97605 0.180051 9.19216 0.197539 8.42112 0.284807C6.72482 0.459342 4.86147 0.913173 3.33223 1.96039C1.8801 2.97269 0.620733 4.92743 1.04481 7.24875C1.36607 8.99411 2.44554 10.2334 3.48644 11.2457C5.73532 13.4274 8.17695 14.9982 10.8628 15.9407C14.0112 17.0403 17.2496 16.9355 20.4494 16.4468C21.1433 16.3421 22.0943 15.5217 21.9915 14.4396C21.2847 7.528 17.3138 1.40181 12.2249 0.0404315ZM6.60917 7.77234C6.15939 7.336 4.55305 5.97465 4.87432 4.96234C4.92572 4.78781 5.41405 4.56095 5.60681 4.45623C6.365 4.01989 7.1746 3.70566 7.99704 3.51367C8.72953 3.33913 9.47488 3.25193 10.2074 3.25193C10.3102 3.35665 10.413 3.44386 10.5415 3.51367C14.0883 5.17176 16.9797 8.48798 18.1106 13.2702C14.0369 12.991 9.87325 10.9489 6.60917 7.77234Z" fill="#EF7D3E"/>
<path d="M37.8623 6.14936C35.2279 2.46666 31.4884 0.634062 27.736 0.826051C27.2862 0.843505 26.7464 1.1228 26.2838 1.52424C26.1296 1.55914 25.9626 1.5591 25.8083 1.59401C24.8445 1.80345 23.1225 3.68845 24.1506 5.10219C24.4076 5.45126 24.6775 5.74795 24.9473 6.06211C27.3119 10.4255 31.7197 11.944 35.3564 9.93686C35.652 9.8845 35.9476 9.84953 36.2303 9.76226C37.2326 9.483 38.8904 7.59801 37.8495 6.14936H37.8623Z" fill="#EF7D3E"/>
<path d="M42.1935 21.2466C42.1293 20.9325 42.0008 20.6881 41.808 20.4961C41.551 20.1645 41.2554 19.8678 40.9599 19.606C40.8185 19.4838 40.6772 19.3616 40.5358 19.222C40.2788 18.9951 40.0346 18.8555 39.7519 18.6984C39.5334 18.6111 39.3021 18.5762 39.0837 18.5937C38.8652 18.5937 38.6339 18.646 38.4283 18.7333C38.1584 18.5937 37.8886 18.4366 37.6058 18.3144C37.4773 18.297 37.3488 18.262 37.2075 18.2446C37.0147 18.2271 36.8219 18.2446 36.6292 18.3144C36.3722 18.3843 36.0766 18.5238 35.8967 18.8031C35.781 18.9951 35.6911 19.2045 35.6654 19.4663C35.6268 19.8329 35.8581 20.2343 36.0638 20.4263C36.1537 20.5135 36.2437 20.6008 36.3336 20.6881C36.5007 20.8277 36.6806 20.9848 36.8476 21.1244C36.8476 21.1594 36.8476 21.1768 36.8476 21.2117C36.9248 21.5259 37.079 21.7876 37.2974 21.9622C37.5673 22.2414 37.8629 22.4335 38.1584 22.6429C38.4797 22.8698 38.8267 23.1141 39.1865 23.2712C39.482 23.4632 39.8804 23.5156 40.1631 23.4981C40.6001 23.4806 41.1526 23.2713 41.5125 22.9047C41.808 22.608 42.1421 22.2066 42.1678 21.683C42.1678 21.5259 42.1678 21.3862 42.1678 21.2292L42.1935 21.2466Z" fill="#EF7D3E"/>
<path d="M35.9353 20.2867C35.9353 20.2867 36.0382 20.3913 36.0897 20.4262C36.0125 20.339 35.9353 20.2692 35.8452 20.182C35.8709 20.2169 35.9095 20.2343 35.9353 20.2692V20.2867Z" fill="#EF7D3E"/>
<path d="M57.0616 6.81255C56.9845 6.20168 56.5733 5.73051 55.6994 5.80033C55.5838 5.80033 55.481 5.80024 55.3653 5.81769C54.8256 5.8526 54.0674 6.07957 53.6433 6.65553C53.502 6.86498 53.3991 7.09184 53.3606 7.38855C53.2064 8.54049 54.1445 9.01175 54.8127 9.04666C54.9284 9.04666 55.0569 9.04668 55.1725 9.06413C56.4062 9.1514 57.203 7.78994 57.0616 6.79508V6.81255Z" fill="#EF7D3E"/>
<path d="M63.7568 25.1212C62.7415 24.0914 61.5207 23.5156 60.2999 23.1316C59.7987 22.9745 59.2976 22.8697 58.7835 22.8348C57.8968 22.7475 57.0615 22.922 56.2005 23.1489C55.6865 23.2886 55.1082 23.69 54.7227 24.266C54.3629 24.5103 54.0545 24.8419 53.9003 25.3306C53.8103 25.6273 53.7717 25.9241 53.8103 26.2557C53.8874 26.7793 54.2601 27.0237 54.5685 27.2331C54.7227 27.3378 54.8898 27.4251 55.044 27.5123C54.7355 27.9836 54.7741 28.6818 55.1468 29.1007C55.6608 29.6766 56.5732 29.8337 57.1772 29.4148C57.5756 29.1356 57.9739 28.8737 58.3723 28.6119C59.4389 28.7515 60.5184 28.7691 61.585 28.6993C62.3689 28.6469 63.1528 28.1756 63.6539 27.3553C63.8467 27.0411 63.9752 26.7269 64.0266 26.3255C64.078 25.9415 64.0266 25.4005 63.7696 25.1387L63.7568 25.1212Z" fill="white"/>
</svg>
