<svg width="773" height="89" viewBox="0 0 773 89" fill="none" xmlns="http://www.w3.org/2000/svg">
<path d="M1 35.9309L3.35232 19L767 25.7383L765.156 39L1 35.9328V35.9309Z" fill="#0B0D0D"/>
<path d="M79.2275 14.2701L90.6351 88.8474L110.728 58.2549L137.033 83.4387L126.739 15.8196L79.2275 14.2627V14.2701Z" fill="#D73632"/>
<path d="M464.105 15.1704C362.241 15.2073 260.377 14.403 158.535 12.8165C103.091 11.9532 56.2649 10.7062 0.828125 9.42969C1.01259 9.4961 1.13804 9.63628 1.13804 9.87978L1.01997 13.3257C1.01997 13.3257 1.00522 13.3847 1.00522 13.4142C100.678 16.1887 191.806 17.4799 291.508 18.3801C393.357 19.2951 495.199 19.332 597.055 18.5425C654.484 18.0924 711.921 17.3176 769.342 16.4911C771.268 16.469 773.777 12.3 771.246 12.359C668.888 14.4325 566.485 15.1482 464.105 15.1851" fill="#0B0D0D"/>
<path d="M464.577 6.41152C362.713 6.44841 260.849 5.64417 159.007 4.05773C103.563 3.19441 56.737 1.94743 1.30029 0.670898C1.48476 0.737307 1.61021 0.877493 1.61021 1.12099L1.49214 4.56682C1.49214 4.56682 1.47739 4.62594 1.47739 4.65545C101.15 7.42987 192.278 8.72115 291.98 9.62136C393.829 10.5363 495.671 10.5732 597.528 9.78367C654.957 9.33356 712.393 8.55877 769.815 7.73235C771.74 7.71021 774.249 3.54122 771.718 3.60025C669.36 5.67369 566.957 6.38939 464.577 6.42629" fill="#0B0D0D"/>
</svg>
