<svg version="1.2" xmlns="http://www.w3.org/2000/svg" viewBox="0 0 960 72" width="960" height="72">
	<title>Proyecto nuevo</title>
	<style>
		.s0 { fill: #ffffff } 
	</style>
	<path id="Layer" class="s0" d="m-22 24.7h80.8c0 0-14.8 21.8-0.5 30.4 14.3 8.6 30.3 5.9 40-1 9.8-6.9 1.7-32.2 1.7-32.2h90.6c0 0-11.2 22.2 4.8 30.8 16.1 8.6 35.5-0.3 40.7-8.3 5.1-8-3.2-25.4-3.2-25.4h91.2c0 0-16.9 25 2 36.5 18.9 11.4 34.4 0.3 41.2-6 6.9-6.3-4.3-30.5-4.3-30.5l111.7 2.9c0 0-11.8 32.6 15.6 39 25.4 5.9 35.8-7.1 35.8-14.5 0-7.5-5.5-24.5-5.5-24.5l65.9-2.9c0 0-17.9 26.7 0.4 36.4 18.3 9.8 35.2 1.1 44-8.3 7.3-7.5-0.3-28.1-0.3-28.1h83.1c0 0-20.1 17.5-4.6 30.1 15.5 12.6 40.7 2.2 44.1-7 3.4-9.2-0.6-23.1-0.6-23.1h80.3c0 0 0.2 409.9 8.3 551.9 0.9 14.9 6.6 388.9 4.3 421.5-2.3 32.7-3.6 276.3-3.6 276.3h-863.9c0 0-8-18.4-6.9-53.5 0.9-29.2 3.5-84.6 4.6-96.6 1.1-12-0.6-138.7 0.6-157 1.1-18.3-4-100.8-2.3-112.3 1.7-11.5 11.4-118 8.6-151.9-2.9-33.8-8.1-196.5-6.3-230.9 1.7-34.3 1.1-166.1 1.7-186.2 0.6-20-1.2-115.7 0-139.2 1.1-23.5 0-116.4 0-116.4z"/>
	<path id="Layer copy" class="s0" d="m760 18.7h80.8c0 0-14.8 21.8-0.5 30.4 14.3 8.6 30.3 5.9 40-1 9.8-6.9 1.7-32.2 1.7-32.2h90.6c0 0-11.2 22.2 4.8 30.8 16.1 8.6 35.5-0.3 40.7-8.3 5.1-8-3.2-25.4-3.2-25.4h91.2c0 0-16.9 25 2 36.5 18.9 11.4 34.4 0.3 41.2-6 6.9-6.3-4.3-30.5-4.3-30.5l111.7 2.9c0 0-11.8 32.6 15.6 39 25.4 5.9 35.8-7.1 35.8-14.5 0-7.5-5.5-24.5-5.5-24.5l65.9-2.9c0 0-17.9 26.7 0.4 36.4 18.3 9.8 35.2 1.1 44-8.3 7.3-7.5-0.3-28.1-0.3-28.1h83.1c0 0-20.1 17.5-4.6 30.1 15.5 12.6 40.7 2.2 44.1-7 3.4-9.2-0.6-23.1-0.6-23.1h80.2c0 0 0.3 409.9 8.4 551.9 0.9 14.9 6.6 388.9 4.3 421.5-2.3 32.7-3.6 276.3-3.6 276.3h-863.9c0 0-8-18.4-6.9-53.5 0.9-29.2 3.5-84.6 4.6-96.6 1.1-12-0.6-138.7 0.6-157 1.1-18.3-4-100.8-2.3-112.3 1.7-11.5 11.4-118 8.6-151.9-2.9-33.8-8.1-196.5-6.3-230.9 1.7-34.3 1.1-166.1 1.7-186.2 0.6-20-1.2-115.7 0-139.2 1.1-23.5 0-116.4 0-116.4z"/>
</svg>