<svg width="57" height="26" viewBox="0 0 57 26" fill="none" xmlns="http://www.w3.org/2000/svg">
<path d="M21.334 7.86936C16.8143 6.11547 12.0927 6.20688 7.65369 8.16173C7.46537 8.19827 7.27707 8.253 7.08875 8.30781C6.52378 8.47224 5.97229 8.67327 5.43423 8.94732C4.385 9.47714 3.36264 10.2262 2.44793 11.1397C0.793385 12.8022 -1.02259 15.9081 0.67231 18.5572C2.01747 20.6582 4.70784 21.0966 6.60451 21.462C9.4428 22.0101 12.2273 22.0466 15.079 21.8822C17.4599 21.736 19.8005 21.3524 22.1276 20.6581C23.9974 20.11 25.9479 19.361 27.2931 17.4062C30.7098 12.4186 24.0109 8.94728 21.3206 7.88764L21.334 7.86936ZM24.2261 16.036C23.1769 17.4244 21.2668 17.6801 19.9082 18.009C17.8635 18.5023 15.7516 18.8129 13.6801 18.5572C11.7834 18.3379 9.87325 17.8994 8.03038 17.26C7.23673 16.9859 4.385 16.5474 4.08907 15.1589C3.87384 14.1724 5.20551 13.0945 5.73013 12.656C6.12022 12.3271 6.5372 12.0532 6.96765 11.8157C7.35775 11.8157 7.73444 11.706 8.03038 11.5782C8.62225 11.3224 9.21414 11.1396 9.81946 10.9569C10.1961 10.9204 10.5862 10.8656 10.909 10.6647C13.1286 10.1897 15.4018 10.1713 17.5944 10.7011C19.2086 11.0848 20.7556 11.7791 22.2487 12.656C23.1769 13.2041 25.5174 14.3003 24.2261 16.0177V16.036Z" fill="#EF7D3E"/>
<path d="M53.3619 1.49334C53.2409 0.762552 52.8238 0.452017 52.3127 0.28759C50.7388 -0.223961 49.044 -0.0230838 47.4836 0.652894C45.143 0.85386 42.8697 2.04147 40.9999 4.05113C40.3946 4.69057 39.9776 5.95118 40.7981 6.68197C42.5872 8.25316 45.1161 8.41758 47.1338 7.81468C49.313 7.15697 51.3576 5.69534 52.8373 3.41163C53.187 2.86354 53.483 2.26068 53.3485 1.51163L53.3619 1.49334Z" fill="#EF7D3E"/>
<path d="M39.3185 22.1929C39.3185 22.0285 39.2916 21.864 39.2243 21.7361C39.184 21.5717 39.1032 21.4438 38.9956 21.3524C38.9014 21.2063 38.7938 21.115 38.6593 21.0602C38.4575 20.914 38.2558 20.8409 38.0271 20.8227C37.5832 20.7496 37.1259 20.8227 36.7089 21.0602C36.6416 21.0967 36.5744 21.1332 36.5206 21.1698C36.3995 21.2429 36.2784 21.2976 36.1439 21.3707C36.0228 21.4438 35.9018 21.4986 35.7673 21.5717C35.7135 21.6082 35.6462 21.6265 35.5924 21.663C35.552 21.6813 35.5251 21.6996 35.4848 21.7179C35.0543 21.9554 34.7853 22.2293 34.3952 22.5765C34.5297 22.4486 34.6777 22.3208 34.8122 22.1929C34.6642 22.3208 34.5163 22.4486 34.3683 22.5765L34.0454 23.015C33.8975 23.2343 33.8168 23.4717 33.7765 23.7458C33.7227 23.9102 33.7092 24.0746 33.7495 24.2391C33.7495 24.4948 33.8168 24.7324 33.9379 24.9333C34.0186 25.0247 34.0858 25.116 34.1665 25.2073C34.2472 25.3169 34.3279 25.4266 34.4086 25.4997C35.1081 26.066 36.0363 26.0295 36.7224 25.4631C36.8434 25.3535 36.9779 25.2439 37.099 25.1343C37.4487 24.8602 37.785 24.5679 38.1213 24.2938C38.1751 24.2573 38.2289 24.2208 38.2827 24.1842C38.4038 24.0746 38.5382 23.965 38.6593 23.8554C38.7669 23.7092 38.8745 23.5631 38.9956 23.4352C39.0763 23.2708 39.1436 23.1246 39.2243 22.9602C39.3185 22.7227 39.3454 22.4669 39.3185 22.2112V22.1929Z" fill="#EF7D3E"/>
<path d="M55.0707 9.58663C53.5641 7.90582 51.3581 7.55869 49.6362 8.89238C48.2104 9.98856 47.2553 11.9252 47.2418 14.1723C47.2284 16.2003 48.3045 17.8994 49.6228 18.6667C51.5464 19.7812 53.9811 19.3426 55.4877 17.3329C55.7298 17.0041 55.9316 16.4926 55.8643 16.0176C55.8643 15.9993 55.8509 15.9627 55.8509 15.9444C56.093 15.7435 56.3217 15.4878 56.4024 15.1224C56.8328 13.1127 56.2544 10.9021 55.0707 9.60492V9.58663ZM51.5329 15.506C51.5329 15.506 51.4791 15.4512 51.4522 15.4329C51.358 15.3416 51.2908 15.232 51.2101 15.1224C51.0755 14.8849 50.9679 14.629 50.8872 14.355C50.8334 14.0444 50.8065 13.7339 50.8065 13.4233C50.8469 13.0579 50.9141 12.7108 51.0217 12.3637C51.1159 12.1444 51.1966 11.9251 51.3177 11.7424C51.3581 11.6876 51.385 11.6329 51.4253 11.5598C51.4253 11.5598 51.4253 11.5598 51.4253 11.5415C51.4791 11.4867 51.5195 11.4501 51.5598 11.4136C51.5733 11.4136 51.6002 11.3771 51.6405 11.3406C51.6809 11.304 51.7347 11.2675 51.7885 11.2309C51.775 11.2309 51.7481 11.231 51.7347 11.2492H51.7616C51.7616 11.2492 51.775 11.2492 51.7885 11.2492C51.8557 11.2675 51.923 11.304 51.9633 11.3223L51.9903 11.3406C52.0844 11.4136 52.1652 11.4867 52.2593 11.5598C52.2862 11.5781 52.2997 11.6146 52.3266 11.6328C52.4745 11.7973 52.5956 11.9982 52.7166 12.1992C52.8781 12.528 53.0126 12.8935 53.1068 13.2771C53.1606 13.6243 53.174 13.9897 53.1471 14.3368C53.1471 14.4099 53.1202 14.483 53.1068 14.556C53.0664 14.7753 53.0664 14.958 53.1068 15.1407C52.905 15.2868 52.7166 15.4512 52.5552 15.6705C52.5418 15.6887 52.5284 15.7069 52.5149 15.7252C52.488 15.7435 52.4745 15.7618 52.4476 15.7801C52.4207 15.7801 52.4072 15.7984 52.3803 15.8166C52.3534 15.8166 52.3265 15.8166 52.2996 15.8348C52.2458 15.8348 52.192 15.8348 52.1382 15.8348C52.0575 15.8348 51.9768 15.7983 51.9096 15.7618C51.8423 15.7252 51.775 15.6887 51.7212 15.6522C51.6674 15.6156 51.6002 15.5791 51.5464 15.5243L51.5329 15.506Z" fill="#EF7D3E"/>
</svg>
