<svg width="30" height="33" viewBox="0 0 30 33" fill="none" xmlns="http://www.w3.org/2000/svg">
<path d="M29.4699 30.0434C29.1463 27.2442 28.1917 24.4936 27.415 21.7915C26.8163 19.7043 26.153 17.6333 25.441 15.5784C24.1628 11.8732 22.9169 7.82817 20.9268 4.44654C18.6454 0.563335 13.8076 -0.553087 10.2642 2.3755C7.38411 4.75397 5.86319 8.96078 4.50407 12.3262C3.56562 14.6561 2.74043 17.0346 2.06086 19.4616C1.42984 21.7592 0.734137 24.2186 0.782677 26.6294C0.815037 28.4901 3.75978 29.8816 4.69822 27.8429C5.71756 25.61 6.34858 23.2154 7.17376 20.9178C7.98276 18.7012 8.90501 16.533 9.892 14.3811C10.8628 12.2939 11.9469 10.2714 13.0633 8.26503C13.4678 7.52075 13.8885 6.82501 14.471 6.21017C14.5357 6.14545 15.3771 5.36881 15.28 5.36881C16.2993 5.41735 17.2377 8.621 17.529 9.36528C18.4027 11.5819 19.1632 13.8471 19.8751 16.1285C20.5708 18.3614 21.2342 20.6104 21.8005 22.8756C22.4801 25.5777 22.8684 28.3445 23.6774 30.998C24.5188 33.7648 29.842 33.247 29.4699 30.0919V30.0434Z" fill="#0C0C0C"/>
</svg>
