<svg width="306" height="58" viewBox="0 0 306 58" fill="none" xmlns="http://www.w3.org/2000/svg">
<path d="M305.341 6.54251H226.538C226.538 6.54251 217.615 11.7458 213.903 13.2368C210.183 14.7202 206.47 12.4913 203.496 9.88967C200.522 7.28801 167.073 5.0591 144.768 6.54251C122.464 8.02591 74.8888 12.4913 60.7622 9.88967V54.1179L305.341 46.6857V6.54251Z" fill="#FED064"/>
<path d="M118.63 0.950899C118.485 0.692254 118.265 0.479253 117.953 0.357538C117.953 0.235823 117.938 0.114108 117.93 0C111.015 0.441217 104.077 0.62379 97.1549 1.02697C96.8887 1.06501 96.6148 1.09544 96.3486 1.13347C92.8416 1.62033 89.213 1.96266 85.7745 2.82988C82.7925 3.58299 80.0311 4.21438 77.0415 3.72752C77.0415 3.75795 77.0415 3.78838 77.0415 3.81881C82.5719 4.35131 88.1023 4.89903 93.6708 4.79253C102.122 4.64039 110.376 2.70816 118.63 0.950899Z" fill="#FED064"/>
<path d="M296.098 42.281C296.319 38.5763 296.387 34.8564 296.509 31.1517C296.638 27.2416 296.813 23.3239 296.76 19.4062C296.722 16.9187 293.428 17.9608 293.261 19.9691C292.652 27.4622 292.302 35.0542 292.203 42.5701C292.165 45.438 295.954 44.7838 296.098 42.281Z" fill="white"/>
<path d="M75.9917 35.7537C75.3146 32.1175 74.9115 28.4204 74.8202 24.7309C88.9696 23.8332 103.127 22.966 117.284 22.0836C131.798 21.1783 146.32 20.0905 160.85 19.4211C167.917 19.094 175.03 19.0635 182.074 19.7938C185.512 20.1513 188.936 20.6915 192.306 21.4826C195.615 22.2585 198.81 23.4148 202.081 24.3201C205.39 25.233 208.714 25.7731 212.16 25.6666C215.743 25.5525 219.281 24.9971 222.81 24.4114C229.969 23.2323 237.165 22.4183 244.4 21.9314C260.595 20.8436 276.814 21.2772 293.025 21.4826C295.14 21.513 295.801 17.7703 293.398 17.6866C278.777 17.1769 264.11 16.8498 249.489 17.5345C242.308 17.8768 235.134 18.4778 228.006 19.4439C220.962 20.3948 213.773 22.1977 206.66 20.9045C203.283 20.2959 200.057 19.0787 196.763 18.1507C193.454 17.215 190.084 16.4999 186.684 16.013C179.837 15.0241 172.907 14.9024 166.008 15.0926C151.455 15.4805 136.902 16.7053 122.365 17.6029C105.85 18.6223 89.3423 19.6645 72.8271 20.661C71.686 20.7295 71.009 22.1292 70.9937 23.1029C70.9405 27.3782 71.2448 31.585 71.899 35.7613" fill="white"/>
<path d="M43.3794 5L45.7301 57.0256H3.80681L0.467285 10.9564L43.3794 5Z" fill="#D73632"/>
</svg>
