<svg width="61" height="43" viewBox="0 0 61 43" fill="none" xmlns="http://www.w3.org/2000/svg">
<path d="M60.4319 34.2056C56.4382 27.2832 52.0784 20.5272 47.3026 13.9542C45.0062 10.7925 42.61 7.68072 40.1472 4.60223C38.0838 2.03959 35.6709 -0.955692 31.3277 0.292344C29.3475 0.85812 27.983 2.02295 26.8348 3.40411C25.0376 5.56738 23.4901 7.8804 21.8094 10.1102C19.3466 13.3551 16.8838 16.6 14.4376 19.8449C11.8916 23.2396 9.32902 26.6342 6.84958 30.0622C5.61819 31.7761 4.38679 33.5067 3.15539 35.2374C2.55634 36.086 1.92401 36.9347 1.37488 37.8C0.559493 39.1146 0.725901 40.2794 0.0270012 41.594C-0.172685 41.9934 0.792464 42.1432 1.04207 41.8935C2.45651 40.579 4.17047 39.7968 5.45179 38.3658C6.83295 36.8348 8.14754 35.2706 9.47878 33.7064C11.8584 30.9108 14.2213 28.0986 16.5344 25.2531C21.4766 19.1959 26.3356 13.1055 31.2945 7.06502C31.7271 7.44775 32.1764 7.84712 32.2429 7.93032C33.3412 9.21164 34.323 10.5595 35.3381 11.8741C37.4681 14.6364 39.5315 17.4487 41.5117 20.2776C45.6552 26.1849 49.4991 32.2254 53.0602 38.3824C54.9905 41.7438 62.1126 37.1843 60.3987 34.2056" fill="#0B0C0C"/>
</svg>
