<svg width="172" height="70" viewBox="0 0 172 70" fill="none" xmlns="http://www.w3.org/2000/svg">
<g clip-path="url(#clip0_850_332)">
<path d="M46.3459 57.2386C66.3941 59.1564 86.3923 60.9527 106.64 61.9157C126.769 62.8753 146.736 62.9101 166.833 63.0418C169.554 63.0641 169.79 64.658 169.072 65.5317C168.051 66.7438 165.445 67.8719 162.668 67.9814C142.463 68.8071 121.696 68.2966 101.341 67.344C81.0789 66.394 60.6046 64.9312 40.7493 62.3118C33.8785 61.4006 41.3699 56.7802 46.3455 57.2519" fill="#0B0C0C"/>
<path d="M171.52 4.82844C171.52 4.82844 70.0008 7.62236 11.7679 0.281474L3.49662 56.4744C3.49662 56.4744 72.2312 69.9096 170.313 64.0589L171.52 4.82844Z" fill="#D73532"/>
<path d="M1.5549 26.9819C3.43546 18.8308 4.38784 10.4806 4.40909 2.03775C4.40615 0.703795 6.36358 0.824895 7.18253 1.11443C7.43355 1.20144 7.67013 1.32807 7.90671 1.45469C7.73525 3.7842 7.5375 6.09965 7.2994 8.42731C6.33182 17.8042 4.83887 27.3666 1.48476 36.2237C1.2541 36.8442 0.997149 37.4506 0.739825 38.0704C1.09568 34.3855 1.35861 30.6846 1.54119 26.9948" fill="#D73532"/>
</g>
<defs>
<clipPath id="clip0_850_332">
<rect width="170.23" height="64.7433" fill="white" transform="matrix(-0.999614 -0.027784 -0.027784 0.999614 171.962 4.72968)"/>
</clipPath>
</defs>
</svg>
