<svg width="63" height="25" viewBox="0 0 63 25" fill="none" xmlns="http://www.w3.org/2000/svg">
<path d="M19.9063 9.20328C18.7251 6.14664 16.1637 4.79564 13.7267 4.9814C13.0677 5.03207 12.4086 5.20094 11.787 5.50492C11.2523 5.20094 10.5436 5.15028 10.1705 5.42048C9.84726 5.6569 9.26286 5.70756 8.88985 5.89333C8.56656 6.0622 8.24328 6.24796 7.93243 6.43373C7.04962 6.97413 6.19168 7.61585 5.38347 8.34202C4.10277 9.49037 2.83451 10.9089 1.8771 12.547C1.03159 14.0162 0.472062 16.296 1.59112 17.799C2.63557 19.2176 4.36389 19.1669 5.73162 19.2176C8.86498 19.3358 12.0481 18.5252 15.0073 17.1235C17.4941 15.9414 21.6844 13.7798 19.9188 9.20328H19.9063ZM14.9576 13.3576C13.652 14.0331 12.3092 14.506 10.9414 14.8268C9.30016 15.1983 7.57185 15.3166 5.9057 15.1477C5.60728 15.1139 4.83638 15.1477 4.72447 14.6411C4.56283 13.9656 5.60728 12.8003 5.89326 12.4288C6.95015 11.0778 8.16868 9.91255 9.46181 9.0344C9.56128 9.1695 9.67318 9.3046 9.84726 9.42282C10.357 9.74368 11.0036 9.7099 11.5258 9.45659C11.9113 9.27083 12.1973 8.8993 12.5703 8.71354C12.4957 8.74732 12.7444 8.64599 12.819 8.61222C12.8314 8.61222 13.4034 8.52778 13.2915 8.52778C13.6023 8.52778 14.0002 8.59533 14.4727 8.81486C15.1939 9.15261 15.9772 9.94633 16.3751 10.9427C16.487 11.2298 16.5989 11.6013 16.6486 11.9222C16.6611 12.0573 16.6238 12.4963 16.6859 12.3612C16.5243 12.7328 15.3431 13.155 14.9825 13.3407L14.9576 13.3576Z" fill="#EF7D3E"/>
<path d="M31.8555 13.9704C28.7844 13.278 25.5764 14.5446 23.102 17.0946C22.2565 17.6857 21.4235 18.3443 20.6277 19.0536C19.8568 19.7459 19.0734 20.5228 18.8621 21.8062C18.7004 22.7857 19.061 23.6132 19.6205 24.1705C20.9261 25.4539 22.6917 25.0148 24.0968 24.4069C25.6137 23.7483 27.0809 22.7688 28.4238 21.5867C29.9034 20.2863 31.2587 18.682 32.4026 16.8582C33.0865 15.7774 33.0865 14.2406 31.8555 13.9535V13.9704Z" fill="#EF7D3E"/>
<path d="M40.7829 0.814963C38.2215 -0.569813 35.2249 -0.147623 32.8625 1.76067C32.0667 2.40239 30.9725 4.07425 31.9548 5.25638C33.2355 6.81003 35.2498 6.60738 36.7046 5.47591C36.7543 5.47591 36.8165 5.47591 36.8662 5.47591C37.7739 5.3577 38.7313 5.15505 39.6017 4.73287C40.3228 4.39512 41.0191 3.82094 41.33 2.80769C41.5662 2.03086 41.3922 1.15271 40.7829 0.814963Z" fill="#EF7D3E"/>
<path d="M62.4303 3.61339C62.4303 3.61339 62.4303 3.52896 62.4179 3.47829C62.393 3.34319 62.3681 3.20809 62.3308 3.07299C62.3308 3.07299 62.3308 3.03922 62.3184 3.02233C62.2935 2.95478 62.2438 2.87035 62.2189 2.81968C62.1941 2.76902 62.1443 2.66769 62.107 2.61703C62.0449 2.53259 61.9702 2.46504 61.9081 2.39749C61.8459 2.26239 61.7589 2.12729 61.6345 2.04286C61.5226 1.97531 61.3983 1.90776 61.2864 1.82332C61.075 1.73888 60.8512 1.70511 60.6398 1.722C60.4782 1.722 60.3165 1.72199 60.1673 1.80643C59.9186 1.85709 59.6824 1.95842 59.4586 2.1273C59.3964 2.17796 59.3343 2.22862 59.2721 2.27928C59.3094 2.22862 59.2969 2.21173 59.2223 2.27928C59.1726 2.31306 59.1477 2.38061 59.098 2.41438L59.0607 2.44816C59.0607 2.44816 59.011 2.51571 58.9861 2.54948C58.9488 2.60015 58.9115 2.63392 58.8742 2.68458C58.8369 2.73525 58.812 2.76902 58.7747 2.81968C58.6379 3.00545 58.4266 3.57962 58.439 3.86671C58.439 4.03558 58.4514 4.22135 58.4763 4.39022V4.424C58.439 4.30578 58.5882 4.76174 58.6504 4.86307C58.6504 4.86307 58.6628 4.87996 58.6752 4.89684C58.8742 5.18393 59.0731 5.40347 59.3591 5.53857C59.4959 5.58923 59.6575 5.65678 59.7694 5.67367C60.1052 5.72433 60.4284 5.70744 60.7517 5.58923C60.9009 5.53857 61.0501 5.48791 61.1993 5.43724C61.3485 5.36969 61.4978 5.28526 61.6345 5.16704C61.9827 4.87996 61.9578 4.86307 62.2065 4.47466C62.2065 4.45777 62.2314 4.44088 62.2314 4.424C62.2065 4.49155 62.3557 4.12002 62.3806 3.98492C62.4054 3.84982 62.4179 3.69783 62.4054 3.54585L62.4303 3.61339Z" fill="#EF7D3E"/>
</svg>
