<svg width="429" height="104" viewBox="0 0 429 104" fill="none" xmlns="http://www.w3.org/2000/svg">
<path d="M319.406 48.7386C319.406 58.1643 311.766 65.8216 302.323 65.8216C292.88 65.8216 285.257 58.1815 285.257 48.7386C285.257 39.2957 292.897 31.6727 302.323 31.6727C311.749 31.6727 319.406 39.3129 319.406 48.7386ZM260.706 48.8588C260.706 55.0396 255.692 60.0529 249.512 60.0529H190.571C184.39 60.0529 179.377 55.0396 179.377 48.8588V45.9229C179.377 39.7421 184.39 34.7288 190.571 34.7288H249.512C255.692 34.7288 260.706 39.7421 260.706 45.9229V48.8588ZM146.756 48.7386C146.756 58.1643 139.116 65.8216 129.69 65.8216C120.264 65.8216 112.624 58.1815 112.624 48.7386C112.624 39.2957 120.264 31.6727 129.69 31.6727C139.116 31.6727 146.756 39.3129 146.756 48.7386ZM428.205 102.786C424.102 61.8041 340.095 58.5248 340.095 58.5248C340.095 11.3963 321.243 7.31012 321.243 7.31012C190.142 -9.13765 108.985 7.31012 108.985 7.31012C108.985 7.31012 90.1331 11.4135 90.1331 58.5248C90.1331 58.5248 6.12582 61.8041 2.02246 102.786H428.188H428.205Z" fill="#FFD162"/>
<path d="M104.675 7.96241C97.9624 13.3878 93.5843 21.0966 91.112 29.2861C89.5839 34.351 88.7255 39.5875 88.262 44.8583C88.0216 47.5367 87.8842 50.215 87.7984 52.9105C87.7641 53.8548 87.5237 55.2626 87.5237 56.5675C84.1758 56.722 80.6905 57.5289 77.5486 57.9925C73.1533 58.6277 68.7753 59.263 64.3972 59.9841C55.6754 61.4263 46.9193 63.3492 38.6268 66.4224C24.7886 71.5731 11.1909 79.4536 3.46492 92.4676C2.17726 94.6309 -1.66858 100.262 0.820903 102.563C1.74802 103.438 2.98418 103.387 4.06582 102.855C4.75257 101.189 5.49084 99.5412 6.29778 97.9445C6.21193 97.8243 6.12609 97.6869 6.00591 97.5667C6.727 95.7812 8.9933 92.3817 9.33667 91.8495C10.8475 89.5489 12.5987 87.4371 14.5045 85.4799C18.8654 80.9988 24.0332 77.3418 29.6131 74.4918C41.2879 68.5513 54.5766 66.7486 67.3674 64.7742C74.9389 63.6067 82.6306 62.6109 89.9102 60.1043C90.1162 60.1043 90.3222 60.0871 90.5282 60.0528C90.5282 58.9024 90.5282 57.7693 90.5282 56.619C90.8201 39.0209 94.5286 20.2897 107.8 8.20278C107.028 7.61904 105.396 7.37867 104.641 7.97958" fill="#0C0C0C"/>
<path d="M131.648 64.2764C128.283 63.8643 125.089 62.4737 122.445 60.3962C121.02 59.4348 119.75 58.3016 118.806 57.014C117.844 55.7263 117.123 54.2841 116.642 52.7561C116.642 52.7046 116.591 52.6702 116.574 52.6359C115.372 49.597 114.977 46.2834 115.87 43.1243C116.659 40.2571 118.325 37.8192 120.488 35.8791C119.733 35.3297 118.256 35.1065 117.569 35.6559C112.093 40.1026 109.5 47.5711 111.097 54.4558C112.676 61.2547 118.497 66.1135 125.364 66.9032C129.588 67.3839 134.086 66.6972 137.829 64.6198C138.309 64.3451 138.721 63.933 138.79 63.4694C136.507 64.242 134.086 64.5683 131.648 64.2764Z" fill="#0C0C0C"/>
<path d="M298.907 65.1348C294.237 63.6239 291.576 59.4004 290.357 54.8678C290.185 54.5588 290.014 54.2669 289.859 53.9407C287.816 49.7343 288.262 44.8584 290.46 40.9095C290.992 38.9179 291.765 37.0122 292.829 35.261C292.005 34.8661 290.872 34.9519 290.168 35.5528C283.764 41.1327 281.566 50.6271 285.567 58.2672C287.404 61.7525 290.546 64.448 294.357 65.4953C296.709 66.1306 299.182 66.1306 301.551 65.6155C300.641 65.564 299.748 65.4095 298.856 65.1176" fill="#0C0C0C"/>
<path d="M344.267 36.5831C343.683 34.4885 343.134 32.3767 342.636 30.2478C341.228 25.6465 339.374 21.217 336.919 17.0964C336.387 16.5814 335.854 16.0491 335.288 15.5512C334.738 15.0533 334.189 14.5726 333.64 14.0747C334.962 16.8389 335.992 19.7919 337.073 22.642C338.258 25.7667 339.443 28.8914 340.473 32.0677C342.052 36.9436 343.357 41.8883 344.387 46.9188" fill="#FFD162"/>
</svg>
