<svg width="49" height="108" viewBox="0 0 49 108" fill="none" xmlns="http://www.w3.org/2000/svg">
<path d="M39.0596 1.21261C45.7988 4.47146 48.6305 12.2073 48.4091 19.2945C48.2667 23.7556 47.096 28.1535 45.783 32.409C44.4067 36.8859 42.9671 41.3313 41.5591 45.7924C38.7116 54.7938 35.8641 63.7952 33.0165 72.7966C31.5928 77.2893 30.169 81.7979 28.7452 86.2907C27.4638 90.3247 26.3881 94.5802 24.3473 98.3295C20.8987 104.657 13.0679 110.7 5.86999 106.144C-1.16975 101.699 -0.758451 92.2389 1.36138 85.2783C4.36712 75.4226 8.35367 65.7726 11.9922 56.1385C15.0454 48.0546 18.0828 39.8917 21.5157 31.9502C21.6264 32.0135 21.7371 32.0926 21.8479 32.14C22.5439 32.4564 23.3033 32.6621 24.0468 32.8045C24.2999 32.8519 24.5688 32.8994 24.822 32.9627C24.8694 32.9785 24.9327 33.0101 24.9643 33.0259C23.0818 38.7052 20.9778 44.337 19.0161 49.9846C16.3584 57.6413 13.5742 65.2664 10.8216 72.8915C9.39779 76.8622 7.83165 80.8171 6.62936 84.8511C5.58526 88.3315 4.8101 92.1282 6.09149 95.6718C6.96157 98.0605 8.82829 100.449 11.3278 101.24C14.1437 102.126 16.928 100.782 18.6523 98.5193C20.693 95.8616 21.5473 92.3971 22.5439 89.249L26.2141 77.6057C28.6503 69.8541 31.1024 62.0866 33.5386 54.335C35.9907 46.5359 38.6009 38.7527 40.8789 30.8903C42.7773 24.3568 43.9795 17.143 39.9297 11.1632C38.1737 8.56875 35.3895 6.46474 32.1781 6.2749C28.7136 6.06924 25.4389 7.8885 23.1767 10.4038C20.6456 13.2039 19.0162 16.7001 17.4184 20.0696C17.3551 20.1962 17.2918 20.3386 17.2285 20.4651C17.0228 20.4335 16.8172 20.4019 16.6116 20.4177C14.8872 20.4177 13.1945 20.4651 11.5018 20.655C11.8498 19.9589 12.182 19.247 12.5301 18.551C14.286 14.9124 16.1528 11.2581 18.7314 8.1258C23.4456 2.36744 31.656 -2.33099 39.0596 1.24425V1.21261Z" fill="#D83331"/>
</svg>
