<svg width="166" height="1130" viewBox="0 0 166 1130" fill="none" xmlns="http://www.w3.org/2000/svg">
<g filter="url(#filter0_d_284_183)">
<path d="M115.517 74.1538C115.517 74.1538 98.4569 0.0195923 73.3411 0.0195923C36.9816 0.0195923 47.7899 145.318 47.8366 170.356C48.0698 285.375 29.5946 716.557 0 731.86L85.378 734.846L115.517 74.1538Z" fill="#3A5FA9"/>
</g>
<g filter="url(#filter1_d_284_183)">
<path d="M62.9369 73.0807L154.349 76.2688L117.974 1111.86L46.3745 1109.36L62.9369 73.0807Z" fill="#0B0C0C"/>
</g>
<g filter="url(#filter2_d_284_183)">
<path d="M75.1297 73.5007L64.3369 1117.6L161.892 1121.02L161.954 76.5332L75.1297 73.5007Z" fill="#7ABCE8"/>
</g>
<g filter="url(#filter3_d_284_183)">
<path d="M79.1885 912.382L22.4409 921.06L56.7476 943.594L28.506 973.096L77.3223 965.662L79.1885 912.382Z" fill="#D73532"/>
</g>
<g filter="url(#filter4_d_284_183)">
<path d="M11.1504 775.529L67.7891 771.407L67.136 833.863L18.0553 839.772L11.1504 775.529Z" fill="#EF7D3F"/>
</g>
<g filter="url(#filter5_d_284_183)">
<path d="M79.0641 700.819C79.0174 562.768 80.106 424.717 82.2521 286.697C83.4185 211.552 85.1136 148.101 86.8398 72.9719C86.7465 73.2207 86.5599 73.3918 86.2333 73.3918L81.5679 73.2363C81.5679 73.2363 81.4901 73.2207 81.4435 73.2207C77.68 208.301 75.9382 331.796 74.7096 466.924C73.4655 604.959 73.4189 742.979 74.4919 881.015C75.0984 958.85 76.1559 1036.69 77.2756 1114.51C77.3067 1117.12 82.952 1120.52 82.8742 1117.09C80.0594 978.368 79.0952 839.586 79.0485 700.835" fill="#0B0C0C"/>
</g>
<defs>
<filter id="filter0_d_284_183" x="-4" y="0.0195923" width="123.517" height="742.826" filterUnits="userSpaceOnUse" color-interpolation-filters="sRGB">
<feFlood flood-opacity="0" result="BackgroundImageFix"/>
<feColorMatrix in="SourceAlpha" type="matrix" values="0 0 0 0 0 0 0 0 0 0 0 0 0 0 0 0 0 0 127 0" result="hardAlpha"/>
<feOffset dy="4"/>
<feGaussianBlur stdDeviation="2"/>
<feComposite in2="hardAlpha" operator="out"/>
<feColorMatrix type="matrix" values="0 0 0 0 0 0 0 0 0 0 0 0 0 0 0 0 0 0 0.25 0"/>
<feBlend mode="normal" in2="BackgroundImageFix" result="effect1_dropShadow_284_183"/>
<feBlend mode="normal" in="SourceGraphic" in2="effect1_dropShadow_284_183" result="shape"/>
</filter>
<filter id="filter1_d_284_183" x="42.3745" y="73.0807" width="115.975" height="1046.78" filterUnits="userSpaceOnUse" color-interpolation-filters="sRGB">
<feFlood flood-opacity="0" result="BackgroundImageFix"/>
<feColorMatrix in="SourceAlpha" type="matrix" values="0 0 0 0 0 0 0 0 0 0 0 0 0 0 0 0 0 0 127 0" result="hardAlpha"/>
<feOffset dy="4"/>
<feGaussianBlur stdDeviation="2"/>
<feComposite in2="hardAlpha" operator="out"/>
<feColorMatrix type="matrix" values="0 0 0 0 0 0 0 0 0 0 0 0 0 0 0 0 0 0 0.25 0"/>
<feBlend mode="normal" in2="BackgroundImageFix" result="effect1_dropShadow_284_183"/>
<feBlend mode="normal" in="SourceGraphic" in2="effect1_dropShadow_284_183" result="shape"/>
</filter>
<filter id="filter2_d_284_183" x="60.3369" y="73.5007" width="105.617" height="1055.52" filterUnits="userSpaceOnUse" color-interpolation-filters="sRGB">
<feFlood flood-opacity="0" result="BackgroundImageFix"/>
<feColorMatrix in="SourceAlpha" type="matrix" values="0 0 0 0 0 0 0 0 0 0 0 0 0 0 0 0 0 0 127 0" result="hardAlpha"/>
<feOffset dy="4"/>
<feGaussianBlur stdDeviation="2"/>
<feComposite in2="hardAlpha" operator="out"/>
<feColorMatrix type="matrix" values="0 0 0 0 0 0 0 0 0 0 0 0 0 0 0 0 0 0 0.25 0"/>
<feBlend mode="normal" in2="BackgroundImageFix" result="effect1_dropShadow_284_183"/>
<feBlend mode="normal" in="SourceGraphic" in2="effect1_dropShadow_284_183" result="shape"/>
</filter>
<filter id="filter3_d_284_183" x="18.4409" y="912.382" width="64.7476" height="68.7133" filterUnits="userSpaceOnUse" color-interpolation-filters="sRGB">
<feFlood flood-opacity="0" result="BackgroundImageFix"/>
<feColorMatrix in="SourceAlpha" type="matrix" values="0 0 0 0 0 0 0 0 0 0 0 0 0 0 0 0 0 0 127 0" result="hardAlpha"/>
<feOffset dy="4"/>
<feGaussianBlur stdDeviation="2"/>
<feComposite in2="hardAlpha" operator="out"/>
<feColorMatrix type="matrix" values="0 0 0 0 0 0 0 0 0 0 0 0 0 0 0 0 0 0 0.25 0"/>
<feBlend mode="normal" in2="BackgroundImageFix" result="effect1_dropShadow_284_183"/>
<feBlend mode="normal" in="SourceGraphic" in2="effect1_dropShadow_284_183" result="shape"/>
</filter>
<filter id="filter4_d_284_183" x="7.15039" y="771.407" width="64.6387" height="76.3646" filterUnits="userSpaceOnUse" color-interpolation-filters="sRGB">
<feFlood flood-opacity="0" result="BackgroundImageFix"/>
<feColorMatrix in="SourceAlpha" type="matrix" values="0 0 0 0 0 0 0 0 0 0 0 0 0 0 0 0 0 0 127 0" result="hardAlpha"/>
<feOffset dy="4"/>
<feGaussianBlur stdDeviation="2"/>
<feComposite in2="hardAlpha" operator="out"/>
<feColorMatrix type="matrix" values="0 0 0 0 0 0 0 0 0 0 0 0 0 0 0 0 0 0 0.25 0"/>
<feBlend mode="normal" in2="BackgroundImageFix" result="effect1_dropShadow_284_183"/>
<feBlend mode="normal" in="SourceGraphic" in2="effect1_dropShadow_284_183" result="shape"/>
</filter>
<filter id="filter5_d_284_183" x="69.729" y="72.9719" width="21.1108" height="1053.57" filterUnits="userSpaceOnUse" color-interpolation-filters="sRGB">
<feFlood flood-opacity="0" result="BackgroundImageFix"/>
<feColorMatrix in="SourceAlpha" type="matrix" values="0 0 0 0 0 0 0 0 0 0 0 0 0 0 0 0 0 0 127 0" result="hardAlpha"/>
<feOffset dy="4"/>
<feGaussianBlur stdDeviation="2"/>
<feComposite in2="hardAlpha" operator="out"/>
<feColorMatrix type="matrix" values="0 0 0 0 0 0 0 0 0 0 0 0 0 0 0 0 0 0 0.25 0"/>
<feBlend mode="normal" in2="BackgroundImageFix" result="effect1_dropShadow_284_183"/>
<feBlend mode="normal" in="SourceGraphic" in2="effect1_dropShadow_284_183" result="shape"/>
</filter>
</defs>
</svg>
