<svg version="1.2" xmlns="http://www.w3.org/2000/svg" viewBox="0 0 23 406" width="23" height="406">
	<title>Vector-svg</title>
	<style>
		.s0 { fill: #ffffff } 
	</style>
	<path id="Layer" fill-rule="evenodd" class="s0" d="m-840 61.1q0.1-2.3 0.2-4.5 0.4-9.4 0.7-18.8c0.3-6.6 0.6-13.2 0.9-19.8 0-1.5 0.1-8.5 0.7-10q0.3-0.9 0.8-1.7 0.3-0.9 0.9-1.7 1.6-0.9 3.4-1.6 0.3 0 0.6-0.1 0 0 0 0 0 0 0 0 0.7-0.3 1.4-0.5 1.3-0.4 2.6-0.9c9.5-0.2 19.1-0.2 28.7-0.3l33.8-0.3q34.1-0.4 68.1-0.8c11.3-0.1 22.7-0.2 34 0.2 11.2 0.5 22.4 1.8 33.6 2.2 11.3 0.5 22.6-0.3 33.8-1 11.3-0.7 22.5-0.9 33.8-0.7 24.4 0.3 48.9 1 73.2 2.7 27.9-0.3 55.8 0.4 83.6 0.6h24.1c5-0.1 10.1-0.1 15.1 0 7.9 0 15.7 0.8 23.2 3.3 3.9 1.2 7.9 2.8 12 2.9 4 0.2 7.9-0.7 11.7-1.6 7.8-1.9 15.7-3.5 23.7-4.4 32.3-3.8 64.8 0.2 97 2.3 33 2.2 66 0.7 99-0.8q28.2-1.2 56.5-2.5c18.6-0.8 56.5-1.8 57-1.8 1.6 0.1 3.2 0.4 4.8 0.6 3.6 20.6 4.1 42.1 3.2 62.8-0.5 11.2-1.6 22.4-3.7 33.4-2.2 11.3-6 22.4-6.6 34-0.6 11.2 3.3 21.7 5.3 32.6 2 11.3 2.2 22.8 2.2 34.2-0.1 23.9-0.5 47.8-0.8 71.7-1.3 96-3.4 192-1.6 288q0 1 0 1.9 0.1 0.1 0.1 0.2c0.1 10.1 0.8 20.2 0.8 30.3q0 2.3 0 4.7 0.3 9.4 0.6 18.9-0.3 5.5-0.6 11.1c0.1 17.7 0.2 35.3 0.3 52.9 0.2 39.3 0.3 78.5 0.6 117.8 0.6 78 1.7 156 2.7 234.1 0.5 43.9 1.1 87.8 1.4 131.7 0 0.7-0.3 1.1-0.8 1.3-0.2 0.4-0.7 0.8-1.7 0.8-56.6 0.8-113.3-0.3-169.9-0.3-14.1 0-28.1-0.6-42.2-0.5-14.3 0-28.5 0.1-42.8 0-28.5-0.2-57.1-0.2-85.7-0.2q-86-0.1-172-0.3-87.3-0.2-174.7-0.4c-28.7 0-57.4 0.1-86.1-0.3q-21.7-0.2-43.5-0.8c-6.7-0.2-13.7 0.1-20.3-0.9-2.6-0.4-5.3-1.1-7.6-2.5-1.3-0.6-2.6-1.5-3.5-2.7-1.3-1.6-1.8-3.7-2-5.8q-0.1-0.2-0.2-0.3v-0.8c0-0.7 0-1.3-0.1-1.9q-0.1-1.2 0-2.3-0.5-2.3-0.8-4.6c-0.6-26.6-1-82.7-0.7-84.2 0.5-2.5 2.6-3.9 4.5-5.3 1.4-1.1 2.8-2.2 4.3-3.1-2.4-2-4.1-5.4-5.4-8.2-1.6-3.4-2.8-7.1-3.5-10.8q0 0 0 0-1.5-5.4-1.9-11c-0.3-4-0.3-7.9 0-11.9 0.1-1.8 0.3-3.5 0.7-5.2 0.1-5.4 0.4-10.7 0.8-16 0.6-9.6 1.2-19.2 1.5-28.8q0.2-4.9 0.3-9.8c-0.1-7.6 1.1-131.7 0.6-185.7-0.5-56-1-112.1-1.5-168.1-0.6-56-0.9-112-1.4-168.1-0.3-27.1-1-54.2-0.6-81.4v-3.4q0-0.6 0.1-1.2c0.3-13.1 1.2-26.1 2.3-39.1 1.1-13.4 1-26.3-0.3-39.6-2.9-30.9-4.9-61.8-5.4-92.9-0.2-11-0.8-22.5 0.1-33.6q-0.4-6.2-0.6-12.4c0-2.1-0.5-4.7 0.6-6.7 1.1-2 3.5-3 5.4-4 2.4-1.3 4.7-2.6 7.1-3.8q2.8-1.4 5.6-2.6 0.2-0.5 0.4-1-3.8-4.8-7.6-9.5-3.5-4.4-7.2-8.7-0.2-0.2-0.3-0.5-0.6-0.5-1.1-1.1-2.6-3.8-5.6-7.3c0-0.8 0-1.6 0-2.4-0.1-3.8-0.1-7.6-0.1-11.4zm857-20.8q-0.3-9.5-0.7-19zm-705.6-37.3c-19.2 0.1-38.3 0.4-57.4 0.6l57.4-0.6 26.2 0.3c-8.8-0.3-17.5-0.4-26.2-0.3zm135.9 1.2c-10.9-0.2-21.7-0.4-32.6 0.1h35.6q-1.6-0.1-3-0.1zm368 1157.2h-21.4q10.7 0.1 21.4 0z"/>
</svg>