<svg width="65" height="78" viewBox="0 0 65 78" fill="none" xmlns="http://www.w3.org/2000/svg">
<path d="M0.836216 0.480957L12.5969 77.3669L33.3113 45.8274L60.431 71.7908L49.5679 0.480957H0.828613H0.836216Z" fill="#D73632"/>
<path d="M64.28 36.1738C63.4508 33.1994 62.6749 30.1945 61.975 27.1972C60.1341 22.8231 58.529 18.3501 57.0304 13.8467C56.7717 14.364 56.612 14.9192 56.6272 15.505C56.612 15.505 56.5968 15.5202 56.5815 15.5355C56.6272 15.7332 56.6652 15.9462 56.6957 16.1516V16.2201C57.6237 21.0127 58.7572 25.7823 59.8146 30.5444C60.4612 33.458 61.085 36.3944 61.762 39.3079C62.0739 40.837 62.4086 42.3508 62.7358 43.8799C63.1389 41.2934 63.6638 38.7298 64.2648 36.189" fill="#D73632"/>
</svg>
