<svg width="52" height="23" viewBox="0 0 52 23" fill="none" xmlns="http://www.w3.org/2000/svg">
<path d="M51.7453 7.02056C51.4631 6.41652 50.9123 6.04587 50.2405 6.00468C47.0564 5.77131 44.0738 5.90859 41.3867 6.4028C41.1852 6.44398 40.9971 6.48516 40.7956 6.52635C39.8686 5.2771 38.7535 4.16512 37.5174 3.28653C31.8612 -0.722059 24.3644 -0.516138 19.2322 1.0214C16.5586 1.81763 13.9253 3.41008 12.0444 5.31828C9.92163 4.67306 7.67796 4.45341 5.54177 4.64561C3.91612 4.79661 2.35764 5.26337 0.812598 6.05959C0.11397 6.41652 -0.181604 7.22648 0.11397 8.00898C0.436413 8.87384 1.40374 9.64261 2.35764 9.39551C4.89688 8.70911 7.43613 8.51691 9.65293 8.83266C8.98117 10.4388 8.81995 12.0999 9.1827 13.761C9.82758 16.74 12.4609 18.7992 16.2362 19.2797C17.7006 19.4719 19.5278 19.4993 20.6966 18.154C21.6371 17.0695 21.7983 15.4496 21.1534 13.4865C20.3607 11.0566 18.762 8.98367 16.4914 7.41867C17.9827 6.32043 19.8636 5.44183 21.8252 4.96135C26.7827 3.73956 31.7672 4.28868 35.1663 6.43025C35.7171 6.77345 36.2277 7.18529 36.6979 7.66578C35.0588 8.24235 33.5138 8.91503 32.1031 9.71125C27.4276 12.3059 26.9171 15.2162 27.3201 17.2068C27.965 20.4466 31.0954 22.5332 33.8496 22.9176C34.2393 22.9725 34.6289 23 35.0185 23C37.6652 23 40.1373 21.7507 41.6555 19.5817C43.5229 16.891 43.9394 13.6787 42.8646 10.4114C43.711 10.2604 44.5843 10.1368 45.4442 10.0682C46.9489 9.94463 48.4536 9.9309 49.8643 10.0407C50.1465 10.0819 51.0869 10.1368 51.584 9.40924C52.0408 8.72283 52.1349 7.74814 51.799 7.03429L51.7453 7.02056ZM32.1702 15.2711C33.6078 13.61 35.9724 12.5392 38.1086 11.7155C38.3638 11.6195 38.6191 11.5234 38.8744 11.441C39.2371 12.8275 39.3312 14.8318 37.8802 16.7537C36.7651 18.2226 34.9513 18.9228 33.245 18.5247C32.3986 18.3187 31.7941 17.852 31.606 17.2342C31.4179 16.6165 31.606 15.9301 32.1837 15.2711H32.1702ZM17.1094 14.8867C17.0557 15.0103 16.7467 15.0652 16.4914 15.0789C15.4569 15.1338 14.4627 14.9416 13.791 14.5847C12.958 14.1317 12.9848 13.0472 13.0789 12.4431C13.1864 11.7018 13.4551 10.988 13.8447 10.2878C14.5299 10.6997 15.1479 11.2076 15.6853 11.7705C16.5586 12.6902 17.3244 14.3513 17.1094 14.9005V14.8867Z" fill="#3A60AA"/>
</svg>
